<svg xmlns="http://www.w3.org/2000/svg" width="16" height="16" fill="#9FA8DA" viewBox="0 0 24 24">
  <path
      d="M15 5h2V3h-2m4 18h2v-2h-2m0-6h2v-2h-2m0-6h2V3h-2m0 14h2v-2h-2m-4 6h2v-2h-2m4-10h2V7h-2M3 21h2V3H3m4 2h2V3H7m0 18h2v-2H7m4-14h2V3h-2m0 18h2v-2h-2z"/>
  <path
      d="M11 5h2V3h-2m4 2h2V3h-2m0 18h2v-2h-2m4 2h2V3h-2M3 9h2V7H3m0 10h2v-2H3m0-2h2v-2H3m8 10h2v-2h-2m-8 2h2v-2H3M7 5h2V3H7M3 5h2V3H3m4 18h2v-2H7z"/>
  <path
      d="M5 15H3v2h2m-2 4h18v-2H3m2-8H3v2h2m14-4h2V7h-2m0-2h2V3h-2M5 7H3v2h2m14 8h2v-2h-2m0-2h2v-2h-2m-2-8h-2v2h2m-4-2h-2v2h2M5 3H3v2h2m4-2H7v2h2"/>
</svg>