<svg xmlns="http://www.w3.org/2000/svg" xml:space="preserve" width="16" height="16" fill-rule="evenodd" stroke-linejoin="round" stroke-miterlimit="1.414" clip-rule="evenodd"  viewBox="0 0 24 24"><path fill="#93254A" fill-rule="nonzero" d="M10 4H4c-1.11 0-2 .89-2 2v12c0 1.097.903 2 2 2h16c1.097 0 2-.903 2-2V8a2 2 0 0 0-2-2h-8z"/><path fill="#F13C6F" d="M14.125 10.735c-.45-.492-.508-1.153-.797-1.72-.282-.345-.472-.881-.93-1.015-.574.472-.355 1.277-.367 1.913-.014.462.592.906.244 1.05-.04.659.134 1.3.173 1.954-.021.23.16.438.362.597-.212-.134-.364-.167-.282.28.247.623.384 1.15.467 1.844-.03.303.385.604.039.662.038.566.254 1.604.143 1.856.093.6.239 1.188.31 1.803-.094.274.279.539.412.596-.58.155.87.59.125.508-.599.068.388.36-.22.408-.434.266.994-.263.276.212-.361.333.737-.236.26.175-.29.387-1.235 1.009-1.132 1.216.57-.17 1.169-1.068 1.605-1.015.028.383-.226 1.202-.003 1.301.149-.3.23-1.279.402-1.133.047.415.368.622.2.083-.016-.357-.016-.844.052-.198-.022.18.186.596.187.158.586.512-.232-.754.397-.291.529.054-.831-.814-.16-.447.395.326-.016-.214.368.003.597-.022.888-.482 1.219-.814-.37.003.544-.26.588-.57.084-.298.846-.732.615-.885.21-.128.67-.826.833-1.265-.051.027-.11.05-.168.069.26-.144.666-.699.59-.838-.102.041-.169.07-.21.089.14-.075.505-.303.453-.574.444-.65.48-.975.874-1.59.065-.197.244-.49.177-.537.2-.173.394-.468.34-.642.234-.408.662-1.336.525-1.577-.412.318.458-.353.39-.65.175-.356-.042-.307-.092-.284.25-.33.366-.885.438-.989a3.2 3.2 0 0 0 .442-1.532c-.364.674.55-1-.315-.785-.502.29-.996.653-1.296 1.165-.288.233-.345.547-.327.879-.044-.217-.116-.282-.272.124a.8.8 0 0 0-.028.303c-.036-.144-.109-.184-.233.125-.632.396-.848 1.167-1.358 1.68-.154.175-.189.429-.17.68-.024-.131-.053-.229-.104-.248-.326.343-.554.81-.659 1.211-.081-.125-.402.658-.591.882-.183.174-.351.547-.414.825-.06-.157-.22-.1-.373.205-.216.22-.399.488-.408.783-.049-.162-.114-.197-.275.175-.324.53-.331-.452-.478-.402.1-.383-.17-.992-.217-.698.048-.604-.231-1.159-.397-1.773-.411-1.813-.986-2.593-1.23-3.342"/></svg>