<!--
  - The MIT License (MIT)
  -
  - Copyright (c) 2015-2024 Elior "Mallowigi" Boukhobza
  -
  - Permission is hereby granted, free of charge, to any person obtaining a copy
  - of this software and associated documentation files (the "Software"), to deal
  - in the Software without restriction, including without limitation the rights
  - to use, copy, modify, merge, publish, distribute, sublicense, and/or sell
  - copies of the Software, and to permit persons to whom the Software is
  - furnished to do so, subject to the following conditions:
  -
  - The above copyright notice and this permission notice shall be included in all
  - copies or substantial portions of the Software.
  -
  - THE SOFTWARE IS PROVIDED "AS IS", WITHOUT WARRANTY OF ANY KIND, EXPRESS OR
  - IMPLIED, INCLUDING BUT NOT LIMITED TO THE WARRANTIES OF MERCHANTABILITY,
  - FITNESS FOR A PARTICULAR PURPOSE AND NONINFRINGEMENT. IN NO EVENT SHALL THE
  - AUTHORS OR COPYRIGHT HOLDERS BE LIABLE FOR ANY CLAIM, DAMAGES OR OTHER
  - LIABILITY, WHETHER IN AN ACTION OF CONTRACT, TORT OR OTHERWISE, ARISING FROM,
  - OUT OF OR IN CONNECTION WITH THE SOFTWARE OR THE USE OR OTHER DEALINGS IN THE
  - SOFTWARE.
  -->

<svg data-big="true" clip-rule="evenodd" fill-rule="evenodd" stroke-linejoin="round" stroke-miterlimit="1.414" version="1.1"
     viewBox="0 0 24 24" xmlns="http://www.w3.org/2000/svg" width="16px" height="16px">
  <path d="M10 4H4c-1.11 0-2 .89-2 2v12c0 1.097.903 2 2 2h16c1.097 0 2-.903 2-2V8a2 2 0 0 0-2-2h-8l-2-2z" fill="#afb42b"
        fill-rule="nonzero"/>
  <path
    d="m21.589 10.926v8.2791h-8.28v-8.2791h8.28m.65088-1.1832h-9.5808a.53024 .53024 0 0 0 -.53226 .53227v9.5808c0 .23622.23622.53226.53226.53226h9.5808c.23622 0 .53226-.29604.53226-.53226v-9.5808c0-.29604-.29604-.53227-.53226-.53227zm-5.3825 2.3653h3.5484v1.1832h-3.5484zm0 2.3663h3.5484v1.1821h-3.5484zm0 2.3653h3.5484v1.1832h-3.5484zm-2.3653-4.7316h1.1832v1.1832h-1.1832zm0 2.3663h1.1832v1.1821h-1.1832zm0 2.3653h1.1832v1.1832h-1.1832z"
    fill="#f0f4c3"/>
</svg>
