<svg xmlns="http://www.w3.org/2000/svg" width="16" height="16" data-big="true" viewBox="0 0 24 24"><path fill="#D52A29" d="M10 4H4c-1.11 0-2 .89-2 2v12c0 1.097.903 2 2 2h16c1.097 0 2-.903 2-2V8a2 2 0 0 0-2-2h-8z"/><g fill="#FFCDD2"><path d="M16.2 17.504v-3.75c0-.824-.5-1.114-.5-1.114s.616-.035.872.243c.963-1.16 2.89-1.694 2.89-1.694l-1.335 1.799v4.516c.488.835 1.707-.372 2.09-.871-.22.627-1.23 2.217-2.775 3.111l-1.033-.894-1.138 1.161c-1.2-.153-2.507-.476-3.563-1.613.51.15.763-.038.763-.302v-3.762c-.157-.95-1.272-.168-2.052.732-.65.749-1.001 1.564-.988 1.674-.253-2.352 3.095-5.41 5.103-5.917-1.329.923-.8 2.316-.209 2.107v4.701c.614.824 1.243.436 1.875-.127"/><path d="M22.14 15.36a6.78 6.78 0 1 1-13.56 0 6.78 6.78 0 0 1 13.56 0m-6.78-7.68a7.68 7.68 0 1 0 0 15.36 7.68 7.68 0 0 0 0-15.36"/></g></svg>