<svg xmlns="http://www.w3.org/2000/svg" width="16" height="16">
  <path fill="#D33534"
        d="M13.681 3.5c-.114-.145-.237-.282-.349-.429a2.7 2.7 0 0 0-.375-.421 7.03 7.03 0 0 0-3.068-1.484A8 8 0 0 0 8.7 1.028a7.6 7.6 0 0 0-1.221-.006 9.3 9.3 0 0 0-2.312.415A6.4 6.4 0 0 0 3.26 2.58a6.3 6.3 0 0 0-.76.85 7 7 0 0 0-.673.963A5.7 5.7 0 0 0 1 6.813a4 4 0 0 0 .022.635 3 3 0 0 0 .112.65.3.3 0 0 1 .029.09.5.5 0 0 0-.028.077.3.3 0 0 0 .043.066.4.4 0 0 1 0 .12 1.3 1.3 0 0 0 .058.272.42.42 0 0 1-.02.263q.058-.036.117-.07c.031.124.07.245.1.37a.5.5 0 0 0 .154.3 3 3 0 0 0-.063-.444l.065.01a.34.34 0 0 0 .077.264.14.14 0 0 1 .124-.056c-.02-.049-.029-.1-.05-.152s-.05-.077-.056-.108a.3.3 0 0 0-.007-.076c-.011-.024-.039-.033-.051-.056a.6.6 0 0 1 .009-.2c-.023-.159-.076-.312-.095-.468a.65.65 0 0 0-.091-.421c-.068.051-.049.189-.149.15-.08-.029-.059-.148.017-.129a.25.25 0 0 1 .006-.158 2 2 0 0 0 .107-.159 1.4 1.4 0 0 0 .079-.442 3.6 3.6 0 0 1 .2-.949 9 9 0 0 1 .84-1.718A6 6 0 0 1 5.18 2.093a6.4 6.4 0 0 1 1.052-.352 8 8 0 0 1 1.076-.115c-.3.425-.59.862-.908 1.274-.3.4-.613.79-.914 1.19s-.586.855-.876 1.285q-.21.316-.433.625c-.071.1-.146.2-.224.288a.4.4 0 0 0-.057.138 1 1 0 0 1-.085.154l-.035-.066c-.07.112-.131.227-.2.34-.038.062-.166.183-.05.225q-.037.029-.072.06c.034.038.084.057.116.1L3.6 7.2c.012.089.045 0 .066-.032a1 1 0 0 1 .08-.1c.054-.061.128-.11.189-.168a5 5 0 0 0 .348-.4c.247-.3.464-.627.717-.922-.023.305-.033.612-.058.922-.012.145 0 .288-.013.434a4 4 0 0 0-.028.448c0 .305.02.606 0 .911-.008.123.015.239.016.36 0 .077-.021.184.077.184 0 .2-.068.373-.053.572.007.091-.009.176-.01.266s.083.18.081.278c-.061 0-.1-.019-.128.037a.5.5 0 0 0 .006.2c.005.095 0 .192 0 .287a.6.6 0 0 1-.029.262.26.26 0 0 1-.192.033h-.348c-.223 0-.446.009-.669.011-.451.005-.9-.006-1.353.015a1.8 1.8 0 0 0-.58.092.18.18 0 0 0-.113.137.2.2 0 0 0-.047.037.3.3 0 0 0 .045.117 1 1 0 0 0 .062-.032l-.046.076.152-.057a.6.6 0 0 0 .228.003 2 2 0 0 1 .214.043 4 4 0 0 0 .6.058c.377.02.753.017 1.131.016.395 0 .789.014 1.184 0 .378-.009.756-.027 1.133-.039.774-.026 1.547-.02 2.32-.069s1.552-.1 2.331-.12c.429-.013.858-.029 1.287-.058a9 9 0 0 1 1.289-.035l-.072.06c.123 0-.072.182-.085.2s-.026.083-.049.118a.3.3 0 0 1-.08.066s-.019.039-.024.047c-.021.038-.02.077-.043.115a.24.24 0 0 1-.176.135l.071.024a.15.15 0 0 0-.018.094.6.6 0 0 1-.1.165 2.2 2.2 0 0 1-.309.322c-.18.158-.334.336-.526.482s-.39.283-.593.41-.407.229-.6.355a4 4 0 0 1-.657.3 3 3 0 0 1-.672.237c-.253.037-.508.062-.762.1a6 6 0 0 1-.768.075 1.6 1.6 0 0 1-.311-.009 3 3 0 0 0-.372-.056 2.7 2.7 0 0 1-.7-.124.8.8 0 0 0-.243-.038c-.109-.008-.206-.067-.315-.079a.4.4 0 0 1-.169-.078 3 3 0 0 1-.292-.139 1.7 1.7 0 0 0-.281-.159c-.1-.041-.213-.058-.315-.1a1.5 1.5 0 0 1-.25-.154 1.2 1.2 0 0 0-.271-.119 1.9 1.9 0 0 1-.554-.386 1.3 1.3 0 0 1-.46-.36.35.35 0 0 0-.13-.132 2.5 2.5 0 0 0-.272-.216 1.7 1.7 0 0 1-.419-.478.8.8 0 0 0-.18-.225.33.33 0 0 0-.18.055l.323.514a.5.5 0 0 1-.1-.051c-.016-.02-.011-.06-.026-.077a.33.33 0 0 0-.2-.032c.076.12.15.264.206.372a4 4 0 0 0 .267.307c-.106.023.037.178.067.211s.079.074.115.114A.19.19 0 0 1 3 13c.059-.059.07-.03.122.012a1 1 0 0 0 .066.043.2.2 0 0 0 .05.025 1 1 0 0 0 .062-.016s.077.044.089.051a.1.1 0 0 0 .023.041.4.4 0 0 1 .12.057 5 5 0 0 0 .474.429 7.4 7.4 0 0 0 1.29.736 4 4 0 0 0 .679.228c.254.062.5.147.761.195a4 4 0 0 0 .606.1c.121 0 .242-.005.365 0 .033 0 .277 0 .151.058a3.5 3.5 0 0 0 .84.023c.127-.006.264-.078.385-.073a.2.2 0 0 0 .065.021.2.2 0 0 0 .058-.03.4.4 0 0 1 .155-.018 6 6 0 0 0 .7-.147.4.4 0 0 0 .134-.029.2.2 0 0 0 .046-.087.42.42 0 0 1 .271-.162l-.047.047a.4.4 0 0 0 .178-.022c.042-.027.039-.074.077-.1a.4.4 0 0 1 .135-.031 1.2 1.2 0 0 0 .231-.091 1.3 1.3 0 0 1 .183-.071c.045-.016.079-.042.125-.058l.077-.028.024-.026a.08.08 0 0 0 .052.007.7.7 0 0 0 .209-.122h-.118a.3.3 0 0 1 .107-.063 1 1 0 0 1 .069.039c.06.014.261-.071.209-.155a.2.2 0 0 1 .1 0 .2.2 0 0 0 .07-.054 1 1 0 0 0 .045-.143.9.9 0 0 1 .188-.137.4.4 0 0 1 .109-.085.3.3 0 0 0 .09-.068.3.3 0 0 1 .072-.074c.085-.075.174-.144.257-.222a5 5 0 0 0 .479-.527 6.6 6.6 0 0 0 .711-1.124.5.5 0 0 1 .221-.321 1 1 0 0 1 .213-.01.6.6 0 0 0 .256-.073.9.9 0 0 1-.284-.592 8 8 0 0 0 .261-.772A7.7 7.7 0 0 0 15 7.7a7.7 7.7 0 0 0-.286-2.289A6.4 6.4 0 0 0 13.681 3.5m-7.79.913a1 1 0 0 0 .08-.093.45.45 0 0 1 .119-.154.4.4 0 0 0 .089-.1c.021-.037.056-.066.083-.104s.05-.1.059-.041a1 1 0 0 0 .162-.269.1.1 0 0 1-.027-.024.1.1 0 0 1 .03-.044.3.3 0 0 1 .072-.084c.025-.019.045-.008.076-.029a.7.7 0 0 0 .085-.108.4.4 0 0 0 .087-.1 1 1 0 0 1 0-.088q.024.046.047.1c.02-.051.049-.1.067-.153a.3.3 0 0 0 .007-.1.7.7 0 0 1 .116-.172l.145-.21a5 5 0 0 1 .558-.755c.789 1 1.5 2.046 2.2 3.1-.386 0-.767-.022-1.153.007s-.768.072-1.153.084c-.76.024-1.522.088-2.282.078.179-.246.348-.5.533-.74Zm4.693 1.933.02.81a2.8 2.8 0 0 0-.33-.6 2.2 2.2 0 0 0-.487-.544 2.8 2.8 0 0 0-.637-.333s1.034-.026 1.161-.025a.2.2 0 0 1 .187.112 1 1 0 0 1 .085.581Zm-4.935-.512c.377-.018.751-.034 1.132-.056a3 3 0 0 0-.617.538 5 5 0 0 0-.541.641c.02-.374.038-.748.025-1.123ZM6 10.781a.6.6 0 0 1-.323-.012.7.7 0 0 1-.006-.318c-.021-.383-.066-.765-.064-1.151a2.8 2.8 0 0 0 .305.564c.061.085.116.178.185.258a.6.6 0 0 1 .2.157c.006.05-.058.059-.02.117a.5.5 0 0 0 .164.088c.076.04.14.1.214.14.1.06.224.08.331.132-.326.006-.654 0-.98.023H6Zm.907-.558.021.009a1.6 1.6 0 0 1-.5-.3 3 3 0 0 1-.216-.214 2 2 0 0 1-.147-.243 3.3 3.3 0 0 1-.3-.481c-.021-.051-.065-.149-.122-.064a.27.27 0 0 0 .036.2.1.1 0 0 0-.07.032C5.614 8.876 5.6 8.59 5.6 8.3c.1.069.161-.082.183-.154.017-.046.017-.1.038-.146a.4.4 0 0 0 .055-.12c-.015-.065-.076-.023-.047-.106.02-.056.074-.094.095-.156a.7.7 0 0 1 .094-.241v.04a.29.29 0 0 0 .176-.212.7.7 0 0 1 .154-.243.7.7 0 0 1 .215-.218 2 2 0 0 1 .237-.193.6.6 0 0 0 .15-.059.25.25 0 0 0 .095-.084.2.2 0 0 1 .018-.068 1 1 0 0 1 .282-.129.76.76 0 0 1 .325-.111c-.07.134.171.05.23.07 0-.128.028-.152.158-.154a2.5 2.5 0 0 1 .433.016 1.9 1.9 0 0 1 .746.384 2.2 2.2 0 0 1 .627.563 1.2 1.2 0 0 1 .163.346 1.6 1.6 0 0 1 .085.488c-.01.137-.044.272-.054.41a1.2 1.2 0 0 1-.13.474.23.23 0 0 0-.054.127.3.3 0 0 1 .047.066.6.6 0 0 1-.06.15q-.035.09-.076.177a1.84 1.84 0 0 1-1.073 1.045 2.48 2.48 0 0 1-1.8-.04Zm2.393.439a2 2 0 0 0 .2-.142 1 1 0 0 1 .153-.132.4.4 0 0 0-.043.042l.013-.012.038-.034c.086-.086.194-.146.284-.229a2 2 0 0 0 .224-.255 4.3 4.3 0 0 0 .361-.646 12 12 0 0 0 .116 1.359zm4.234-.107c-.242-.01-.486 0-.728 0q-.426-.001-.85.027c-.127.009-.253.011-.38.015a1 1 0 0 1-.162.008.24.24 0 0 1-.116-.071l-.015.029a.22.22 0 0 1-.035-.162 1 1 0 0 1 .021-.071.18.18 0 0 0 .076-.144.17.17 0 0 0-.045-.086.1.1 0 0 1-.037-.037.5.5 0 0 1 0-.119c.037.028.036-.038.066-.061a.16.16 0 0 1 .1-.019.5.5 0 0 1-.029-.171c-.018-.1-.023-.09.074-.122a.12.12 0 0 1-.1-.084.7.7 0 0 1 0-.159.5.5 0 0 0-.027-.159.3.3 0 0 1-.079-.11l.1.041c-.021-.075-.063-.144-.082-.22a1 1 0 0 1-.008-.226l.052.013a.4.4 0 0 0-.013-.123c-.017-.023-.034-.044-.042-.067a.7.7 0 0 1-.007-.225l.047.018a.14.14 0 0 1 .074-.115c-.058 0-.058.009-.075-.033a.4.4 0 0 1 0-.1c-.005-.077-.037-.13-.035-.2l.021-.847c.573.758 1.023 1.6 1.594 2.363.153.2.748.987.783 1.034a.4.4 0 0 1 .1.139c0 .095-.182.052-.241.049Zm.714-3.3-.061-.055c-.012.035-.013.128-.073.107-.007.1.024.2.013.3l.051-.034c-.014.072.064.141.055.212s-.065.025-.091.056a.5.5 0 0 0 0 .262.4.4 0 0 1 .059.081.4.4 0 0 1-.01.166 6 6 0 0 0-.048.666c-.011.131-.034.055-.115.056s-.034.139-.019.193c-.073-.006-.058.091-.06.139 0 .087-.047.153-.057.235-.268-.393-.505-.806-.779-1.195s-.557-.812-.838-1.216-.53-.818-.8-1.221a1.2 1.2 0 0 1-.175-.247 1 1 0 0 1-.022-.312v-.3a.22.22 0 0 1 .089-.208h-.537a.38.38 0 0 1-.259-.213c-.089-.127-.171-.26-.264-.39a20 20 0 0 0-.684-.937c-.438-.589-.846-1.2-1.323-1.753.3.038.6.039.9.083a7 7 0 0 1 .878.185 8.4 8.4 0 0 1 1.565.645c.111.058.224.112.331.176a1.5 1.5 0 0 1 .309.276c.2.215.395.439.586.664a4.9 4.9 0 0 1 .877 1.23 5.5 5.5 0 0 1 .272.919c.035.159.032.322.063.479q.019.094.035.189a.3.3 0 0 0 .027.06c.016.036.021.092.06.052a3 3 0 0 1 .034.654Zm-11.357.43.035-.025c-.078.023-.076-.047-.055-.1a1.5 1.5 0 0 1 .147-.181.3.3 0 0 0 .071.058c.052-.065.1-.13.158-.193.053.079.135.044.074.151a1 1 0 0 1-.139.174.15.15 0 0 1 .039.09.8.8 0 0 1-.194.277.6.6 0 0 0-.129.087.3.3 0 0 1-.039.1c-.021.022-.054.033-.076.054a1 1 0 0 1-.107.142c-.062.038-.121.029-.119-.043-.041.006-.08.02-.12.03a2 2 0 0 1 .137-.213c.039-.05.09-.083.126-.128s.059-.107.1-.156a.5.5 0 0 0 .089-.124Z"/>
</svg>