<svg xmlns="http://www.w3.org/2000/svg" xml:space="preserve" width="16" height="16" fill-rule="evenodd" stroke-linejoin="round" stroke-miterlimit="1.414" clip-rule="evenodd"  viewBox="0 0 24 24"><path fill="#6CAC23" fill-rule="nonzero" d="M10 4H4c-1.11 0-2 .89-2 2v12c0 1.097.903 2 2 2h16c1.097 0 2-.903 2-2V8a2 2 0 0 0-2-2h-8z"/><path fill="#A5D6A7" d="M17.39 12.544a2.05 2.05 0 0 0 2.05-2.05 2.05 2.05 0 0 0-2.05-2.052 2.05 2.05 0 0 0-2.05 2.051 2.05 2.05 0 0 0 2.05 2.051m0 2.42a9 9 0 0 0-6.152-2.42v7.52c2.392 0 4.539.923 6.152 2.42a9 9 0 0 1 6.153-2.42v-7.52c-2.393 0-4.54.923-6.153 2.42"/></svg>