<!--
  - The MIT License (MIT)
  -
  - Copyright (c) 2015-2022 Elior "Mallowigi" Boukhobza
  -
  - Permission is hereby granted, free of charge, to any person obtaining a copy
  - of this software and associated documentation files (the "Software"), to deal
  - in the Software without restriction, including without limitation the rights
  - to use, copy, modify, merge, publish, distribute, sublicense, and/or sell
  - copies of the Software, and to permit persons to whom the Software is
  - furnished to do so, subject to the following conditions:
  -
  - The above copyright notice and this permission notice shall be included in all
  - copies or substantial portions of the Software.
  -
  - THE SOFTWARE IS PROVIDED "AS IS", WITHOUT WARRANTY OF ANY KIND, EXPRESS OR
  - IMPLIED, INCLUDING BUT NOT LIMITED TO THE WARRANTIES OF MERCHANTABILITY,
  - FITNESS FOR A PARTICULAR PURPOSE AND NONINFRINGEMENT. IN NO EVENT SHALL THE
  - AUTHORS OR COPYRIGHT HOLDERS BE LIABLE FOR ANY CLAIM, DAMAGES OR OTHER
  - LIABILITY, WHETHER IN AN ACTION OF CONTRACT, TORT OR OTHERWISE, ARISING FROM,
  - OUT OF OR IN CONNECTION WITH THE SOFTWARE OR THE USE OR OTHER DEALINGS IN THE
  - SOFTWARE.
  -
  -
  -->


<svg xmlns="http://www.w3.org/2000/svg" version="1.1" width="16px" height="16px" viewBox="0 0 24 24">
  <g big="true">
    <path fill="#E57373"
        d="M12.17,5.81C11.87,6.69 11.47,7.55 11,8.39L12.35,9.74C13.11,8.5 13.71,7.18 14.13,5.81H17.16V3.75H9.94V1.69H7.87V3.75H6.37L8.43,5.81H12.17M15.53,12.91L17.03,14.41L17.67,12.69L19.08,16.47L22.39,19.77L18.7,9.94H16.64L15.53,12.91M1.31,1.31L0,2.62L1.13,3.75H0.65V5.81H3.19L5.26,7.88H4.46C5.21,9.56 6.24,11.15 7.53,12.58L2.28,17.76L3.75,19.22L8.91,14.07L12.11,17.27L12.8,15.43L14.1,16.72L12,22.31H14.06L15.22,19.22H16.6L21.38,24L22.69,22.69L1.31,1.31Z" />
  </g>
</svg>
