<!--
  - The MIT License (MIT)
  -
  - Copyright (c) 2015-2024 Elior "Mallowigi" Boukhobza
  -
  - Permission is hereby granted, free of charge, to any person obtaining a copy
  - of this software and associated documentation files (the "Software"), to deal
  - in the Software without restriction, including without limitation the rights
  - to use, copy, modify, merge, publish, distribute, sublicense, and/or sell
  - copies of the Software, and to permit persons to whom the Software is
  - furnished to do so, subject to the following conditions:
  -
  - The above copyright notice and this permission notice shall be included in all
  - copies or substantial portions of the Software.
  -
  - THE SOFTWARE IS PROVIDED "AS IS", WITHOUT WARRANTY OF ANY KIND, EXPRESS OR
  - IMPLIED, INCLUDING BUT NOT LIMITED TO THE WARRANTIES OF MERCHANTABILITY,
  - FITNESS FOR A PARTICULAR PURPOSE AND NONINFRINGEMENT. IN NO EVENT SHALL THE
  - AUTHORS OR COPYRIGHT HOLDERS BE LIABLE FOR ANY CLAIM, DAMAGES OR OTHER
  - LIABILITY, WHETHER IN AN ACTION OF CONTRACT, TORT OR OTHERWISE, ARISING FROM,
  - OUT OF OR IN CONNECTION WITH THE SOFTWARE OR THE USE OR OTHER DEALINGS IN THE
  - SOFTWARE.
  -->

<svg data-big="true" version="1.1" viewBox="0 0 24 24" width="16px" height="16px" xmlns="http://www.w3.org/2000/svg">
  <path
    d="m15.449 11.908c-.11-2.21-1.75-3.54-3.73-3.54h-.08c-2.29 0-3.55 1.8-3.55 3.84 0 2.29 1.53 3.74 3.54 3.74 2.25 0 3.72-1.65 3.83-3.59m-3.81-5.97c1.53 0 2.97.68 4.02 1.74 0-.51.33-.89.83-.89h.11c.74 0 .89.7.89.92v7.9c-.04.52.54.78.87.44 1.27-1.29 2.78-6.69-.79-9.81-3.33-2.92-7.8-2.44-10.18-.8-2.52 1.74-4.14 5.61-2.57 9.22 1.71 3.95 6.61 5.13 9.52 3.95 1.48-.59 2.15 1.4.65 2.05-2.34.99-8.77.89-11.78-4.32-2.03-3.52-1.93-9.71 3.46-12.92 4.13-2.45 9.56-1.77 12.82 1.63 3.45 3.6 3.25 10.3-.1 12.91-1.51 1.18-3.76.03-3.74-1.7l-.02-.56c-1.05 1.05-2.46 1.66-3.99 1.66-3.02 0-5.65-2.66-5.65-5.68 0-3.05 2.63-5.74 5.65-5.74z"
    fill="#7963E6"/>
</svg>
