<svg xmlns="http://www.w3.org/2000/svg" width="16" height="16"  viewBox="-48 -48 608 608"><path fill="#7963E6" d="M181.39 200.838 51.302 101.902 0 127.552v256.533l51.302 25.65 129.39-99.663L386.642 512l124.61-50.215V49.853L385.919 0zm203.2 157.596L253.952 254.72l130.277-101.155zM130.09 255.83l-77.867 73.308V182.545z"/><path fill="#42A5F5" d="M432 396v141.84c.72 5.4-1.08 11.16-5.22 14.94-7.02 7.02-18.36 7.02-25.38 0l-36.18-36.18c-4.14-4.14-5.94-9.72-5.22-14.94V396h-.54L255.78 263.16c-6.12-7.74-4.68-19.08 3.06-25.2 3.42-2.52 7.2-3.96 11.16-3.96h252c3.96 0 7.74 1.44 11.16 3.96 7.74 6.12 9.18 17.46 3.06 25.2L432.54 396z"/></svg>