<svg xmlns="http://www.w3.org/2000/svg" width="16" height="16" data-big="true" style="isolation:isolate" viewBox="0 0 214 214"><defs><clipPath id="a"><path d="M0 0h214v214H0z"/></clipPath></defs><g fill="#91DC5A" clip-path="url(#a)"><path d="M77.237 30.963v96.035h21.24v19.998h-21.24v36.042c0 10.84 20.108 10.965 20.965 10.965v19.998c-11.507 0-23.071-3.051-30.964-9.553-7.893 6.502-19.456 9.553-30.963 9.553v-19.998c.856 0 20.965-.125 20.965-10.965v-36.042H36v-19.998h21.24V30.963c0-10.84-20.109-10.965-20.965-10.965V0c11.507 0 23.07 3.052 30.963 9.553C75.13 3.052 86.694 0 98.201 0v19.998c-.856 0-20.964.125-20.964 10.965M157.712 123.922c-2.539.017-4.206 1.631-4.19 4.055l.187 28.184-29.519.196c-2.538.017-4.206 1.631-4.19 4.055l.054 8.052c.016 2.424 1.705 4.015 4.244 3.998l29.519-.196.187 28.184c.016 2.424 1.705 4.015 4.244 3.998l8.434-.056c2.539-.017 4.206-1.631 4.19-4.055l-.187-28.184 29.519-.196c2.538-.017 4.206-1.631 4.19-4.054l-.054-8.053c-.016-2.424-1.705-4.015-4.244-3.998l-29.519.196-.187-28.184c-.016-2.423-1.705-4.015-4.244-3.998z"/></g></svg>