<svg xmlns="http://www.w3.org/2000/svg" width="16" height="16" data-big="true" viewBox="0 0 400 400"><g fill="#F5A623" fill-rule="evenodd"><path d="M95.614 11.974c-.281.524-.414 22.113-.414 66.999v66.225l-10 9.994c-5.5 5.497-10 10.178-10 10.401a.404.404 0 0 1-.399.407c-.75 0-32.402 31.969-32.369 32.694.023.519.091.556.255.139.383-.968 8.021-8.39 8.34-8.104.166.149.192.078.058-.158-.291-.512 1.117-1.822 1.545-1.438.164.147.189.074.055-.162-.281-.493 1.316-2.02 1.915-1.831.22.07.28.006.133-.14-.395-.396.938-1.8 1.438-1.515.236.134.309.109.162-.055-.384-.428.926-1.836 1.438-1.545.236.134.307.108.159-.058-.351-.391 9.756-10.57 10.232-10.305.199.111.253.026.12-.189-.296-.479 1.133-1.772 1.548-1.4.164.147.189.074.055-.162-.281-.493 1.316-2.02 1.915-1.831.22.07.28.006.133-.14-.395-.396.938-1.8 1.438-1.515.236.134.307.108.159-.058-.351-.391 9.756-10.57 10.232-10.305.199.111.253.026.12-.189-.289-.468 1.135-1.783 1.518-1.4.146.147.207.072.133-.166-.173-.565 2.869-3.607 3.434-3.434.238.074.313.013.166-.133-.395-.396.938-1.8 1.438-1.515.236.134.303.104.149-.067s.881-1.455 2.3-2.853l2.58-2.542V79.061c0-52.767.104-66.647.5-66.969.275-.223.86-.494 1.3-.603.616-.151.551-.207-.286-.243-.697-.029-1.234.231-1.5.728m66.685-.492c.508.098.992.553 1.111 1.046.511 2.106 0 38.074-.54 37.962-.291-.06-.415.075-.276.3.171.277-4.17.41-13.37.41H135.6v109.648l-19.265 19.271c-12.623 12.626-19.3 19.584-19.365 20.178-.055.499.032.825.194.725.402-.248 1.636 1.245 1.303 1.578-.147.146-.072.207.166.133.522-.16 3.613 2.847 3.457 3.363-.06.2.03.279.2.175.432-.262 12.105 11.593 11.777 11.96-.147.163-.074.188.162.054.512-.291 1.822 1.117 1.438 1.545-.147.164-.074.189.162.055.459-.262 2.025 1.296 1.854 1.845-.057.181.037.245.207.141.432-.262 12.105 11.593 11.777 11.96-.147.163-.074.188.162.054.512-.291 1.822 1.117 1.438 1.545-.147.164-.074.189.162.055.389-.222 1.463.681 1.681 1.415.05.165.135.262.19.216s.595.346 1.2.872l1.1.956V348.8h13.226c8.353 0 13.512.153 14 .414 1.21.648 1.21 38.524 0 39.172-1.588.85-65.785.544-66.564-.317-.61-.675-.662-5.909-.662-67.157v-66.425l-26.337-26.344C54.777 213.654 42.822 201.53 42.694 201.2c-.178-.464-.238-.434-.262.133-.02.459 9.834 10.604 26.368 27.146l26.4 26.412v66.355c0 66.006.004 66.358.807 67.161 1.09 1.09 66.913 1.083 67.602-.007.506-.802.507-38.397 0-39.2-.323-.51-2.413-.617-13.994-.715L136 348.37V238.815l-11.396-11.407c-6.268-6.275-11.578-11.408-11.8-11.408a.41.41 0 0 1-.404-.41c0-.226-3.33-3.734-7.4-7.795-4.07-4.062-7.4-7.549-7.4-7.749s8.64-9.007 19.2-19.571l19.2-19.209V51.6h13.586c13.023 0 13.603-.032 14-.774.628-1.174.566-38.514-.066-39.146-.264-.264-.849-.455-1.3-.426-.742.05-.734.071.079.228M189.68 78.88c-.367.367-.48 10.284-.48 42.2 0 35.946-.079 41.72-.573 41.72-.315 0-.687.36-.827.8s-.5.8-.8.8-.66.36-.8.8-.408.8-.595.8c-.445 0-4.005 3.56-4.005 4.005 0 .187-.36.455-.8.595s-.8.403-.8.585c0 .433-8.382 8.815-8.815 8.815-.182 0-.445.36-.585.8s-.408.8-.595.8c-.445 0-4.005 3.56-4.005 4.005 0 .187-.36.455-.8.595s-.8.5-.8.8-.36.66-.8.8-.8.404-.8.587c0 .435-6.778 7.213-7.213 7.213-.183 0-.447.36-.587.8s-.493.8-.784.8c-.712 0-1.016.907-1.016 3.027 0 1.73 3.078 5.773 4.395 5.773.223 0 .405.194.405.431 0 .56 2.209 2.769 2.769 2.769.237 0 .431.148.431.328 0 .531 2.23 2.872 2.736 2.872.255 0 .464.258.464.573s.36.687.8.827.8.428.8.64c0 .478 6.717 7.16 7.198 7.16.191 0 .462.36.602.8s.512.8.827.8.573.235.573.523.716 1.053 1.591 1.7c.874.647 1.594 1.326 1.6 1.508.014.492 2.28 2.669 2.778 2.669.237 0 .431.17.431.377 0 .208 1.71 2.085 3.8 4.172l3.8 3.794.006 41.328c.003 22.731.147 41.551.32 41.823.618.973 2.722 1.058 3.632.148.463-.463 1.267-.842 1.786-.842.607 0 1.426-.569 2.3-1.598.864-1.018 1.695-1.599 2.291-1.6.802-.002 5.265-3.933 5.265-4.639 0-.336-1.974 1.214-1.987 1.561-.007.178-.221.195-.475.038-.256-.158-.354-.112-.22.105.289.468-1.135 1.783-1.518 1.4-.146-.147-.207.003-.133.333.091.409-.248.643-1.067.735-.66.074-1.346.393-1.525.708-.178.316-.538.451-.8.301-.261-.15-.351-.134-.199.034.464.517-1.576 2.222-2.658 2.222-.56 0-1.018.184-1.018.409 0 .77-1.825 1.313-2.749.818l-.851-.455v-41.786c0-29.143-.128-41.786-.424-41.786-.233 0-.309-.184-.17-.41s.09-.36-.11-.3c-.516.156-3.523-2.935-3.363-3.457.074-.238.013-.313-.133-.166-.383.383-1.807-.932-1.518-1.4.133-.215.079-.298-.12-.186-.458.26-12.186-11.524-11.827-11.882.146-.146.07-.206-.168-.132-.522.16-3.613-2.847-3.457-3.363.06-.2-.03-.285-.2-.19-.443.247-12.109-11.576-11.781-11.94.149-.166.078-.193-.158-.059-.5.285-1.833-1.119-1.438-1.515.147-.146-.003-.207-.333-.133-1.597.355-.944-3.759.837-5.267.909-.77 2.038-1.822 2.508-2.339 2.604-2.857 15.466-15.662 15.736-15.665.175-.002.769-.574 1.319-1.271s4.105-4.38 7.9-8.184l6.9-6.917v-83.25l.9-.362c.552-.221.66-.371.28-.387-.341-.014-.836.191-1.1.455m2.62-.068c.495.199.9.548.9.775s.45.413 1 .413c.633 0 1.587.587 2.6 1.6.915.915 1.985 1.601 2.5 1.602.575.001 1.733.867 3.207 2.4 1.27 1.319 2.575 2.398 2.9 2.398.641 0 1.339.545 3.801 2.965.876.861 1.592 1.394 1.592 1.184s-.72-1.044-1.6-1.853-1.6-1.637-1.6-1.841c0-.42-.962-.855-1.892-.855-.344 0-1.696-1.08-3.004-2.4-1.612-1.628-2.691-2.4-3.353-2.4-.537 0-1.08-.27-1.206-.6-.127-.33-.481-.6-.788-.6-.306 0-.557-.264-.557-.586 0-.683-1.205-1.414-2.331-1.414-.431 0-.887-.27-1.014-.6-.126-.33-.641-.589-1.142-.575l-.913.026zm19.67 13.876c.314.124 1.175.83 1.913 1.569.768.767 1.749 1.343 2.29 1.343.89 0 2.336 1.199 4.524 3.753.504.587 1.318 1.047 1.854 1.047.608 0 1.482.583 2.401 1.6.795.88 1.81 1.6 2.256 1.6.449 0 1.801.992 3.038 2.229 1.226 1.226 2.33 2.129 2.453 2.006.428-.428-4.081-4.616-4.981-4.626-.853-.009-2.918-1.696-2.918-2.384 0-.421-1.006-.825-2.052-.825-.765 0-2.748-1.774-2.748-2.458 0-.188-.258-.342-.573-.342s-.685-.354-.823-.786c-.157-.496-.752-.881-1.611-1.042-.784-.147-1.921-.83-2.678-1.609-.723-.745-1.675-1.342-2.115-1.327q-.81.025-.23.252m21.968 15.59c.297.118 1.54 1.184 2.763 2.368 1.307 1.267 2.583 2.154 3.096 2.154.511 0 1.466.662 2.308 1.6.79.88 1.8 1.6 2.245 1.6.96 0 2.965 1.738 2.543 2.204-.161.178-.1.215.136.081.512-.291 1.822 1.117 1.438 1.545-.147.164-.041.168.236.009.294-.169.602-.03.743.336.135.352.709.625 1.313.625.741 0 1.53.496 2.545 1.6.99 1.076 1.81 1.6 2.507 1.6.716 0 .947.155.748.5-.158.275-.149.375.021.223.17-.153 1.188.64 2.264 1.762s1.956 1.833 1.956 1.581c0-.253-.36-.684-.8-.959s-.8-.665-.8-.868c0-.661-2.523-2.639-3.372-2.643-.461-.002-1.449-.71-2.228-1.596-.873-.992-1.75-1.594-2.329-1.596-.607-.003-1.744-.839-3.271-2.404-1.374-1.409-2.684-2.4-3.171-2.4-.456 0-1.549-.72-2.429-1.6s-1.964-1.6-2.408-1.6c-.46 0-1.71-.949-2.898-2.2-1.246-1.311-2.414-2.187-2.892-2.168-.493.019-.594.114-.264.246m28.567 20.399c.388.101.602.35.476.553-.125.204-.054.37.159.37.212 0 1.22.81 2.239 1.8 1.115 1.084 2.221 1.8 2.78 1.8.59 0 1.423.583 2.285 1.598.746.879 1.716 1.6 2.156 1.602.79.004 2.32 1.257 4.13 3.382.511.601 1.043.979 1.181.84s-.504-.965-1.429-1.836-1.682-1.746-1.682-1.942c0-.463-1.007-.844-2.233-.844-.532 0-.967-.178-.967-.397 0-.762-2.527-2.803-3.472-2.803-.524 0-1.057-.27-1.183-.6s-.469-.6-.761-.6c-.291 0-.644-.36-.784-.8s-.468-.8-.731-.8-.701-.36-.976-.8-.813-.779-1.196-.754c-.654.044-.653.058.008.231m16.665 12.411c.313.124 1.187.842 1.94 1.595.754.754 1.47 1.271 1.591 1.149.403-.403-2.485-3.024-3.301-2.996q-.81.025-.23.252m4.568 3.195c.898.231 1.907 1.038 3.775 3.017.784.831 1.8 1.5 2.277 1.5.542 0 1.666.883 3.036 2.386 1.442 1.583 2.488 2.391 3.105 2.4.548.008 1.552.659 2.438 1.581.926.965 1.953 1.619 2.668 1.7.787.09 1.12.327 1.03.733-.074.33-.009.475.144.322s1.083.538 2.066 1.535 1.879 1.72 1.992 1.607c.41-.41-4.185-4.664-5.038-4.664-.487 0-1.491-.69-2.327-1.6-.858-.933-1.837-1.6-2.348-1.6-.537 0-1.814-.931-3.292-2.4-1.42-1.412-2.762-2.4-3.258-2.4-.81 0-2.806-1.749-2.806-2.458 0-.188-.227-.342-.504-.342s-.728-.36-1.003-.8c-.319-.51-.897-.783-1.596-.754-.746.032-.861.108-.359.237m23.862 17.2c.33.121 1.185.827 1.899 1.569.715.741 1.57 1.348 1.9 1.348.331 0 .935.315 1.343.7a38 38 0 0 0 1.977 1.676c.679.537 1.127 1.15.996 1.362-.132.213-.03.257.226.098.26-.16.57-.011.705.339.132.344.665.625 1.185.625.622 0 1.761.819 3.337 2.4 1.464 1.468 2.731 2.4 3.265 2.4.482 0 1.475.639 2.22 1.428.741.786 1.347 1.3 1.347 1.143 0-.804-2.693-2.963-3.7-2.967-.686-.002-1.1-.22-1.1-.577 0-.315-.36-.687-.8-.827s-.8-.451-.8-.691c0-.698-2.468-2.709-3.325-2.709-.429 0-1.375-.63-2.101-1.4s-1.5-1.4-1.72-1.4-.51-.347-.645-.772c-.142-.448-.773-.888-1.499-1.048-.689-.151-1.827-.884-2.529-1.628-.701-.743-1.614-1.338-2.028-1.32-.564.023-.602.086-.153.251m21.6 15.611c.33.127.891.563 1.247.969.356.405.784.737.953.737s.9.63 1.626 1.4 1.69 1.4 2.142 1.4 1.499.72 2.327 1.599c.828.88 1.805 1.6 2.172 1.6.648.001 3.239 2.075 4.872 3.901.443.495 1.129.9 1.524.9s1.742.991 2.992 2.202 2.362 2.114 2.47 2.006c.405-.404-4.141-4.59-4.993-4.599-.82-.008-4.532-3.284-4.532-3.998 0-.434-1.039-.811-2.233-.811-.532 0-.967-.172-.967-.382 0-.739-2.084-2.455-3.27-2.692-.659-.132-1.293-.484-1.407-.783s-.375-.543-.578-.543c-.204 0-1.032-.72-1.841-1.6-.843-.917-1.82-1.587-2.288-1.568-.586.022-.647.096-.216.262m23.373 17.196c.425.108 1.415.806 2.2 1.55s1.822 1.355 2.304 1.357c.483.001 1.158.403 1.5.892.5.713.623.756.623.214 0-.727-1.139-1.503-2.208-1.503-.363 0-1.218-.63-1.9-1.4-.852-.962-1.56-1.385-2.266-1.354-.796.036-.853.091-.253.244m5.922 7.706c-.276.442-.921.804-1.434.804-.574 0-1.501.614-2.413 1.6-.896.968-1.841 1.6-2.395 1.6-.556 0-1.371.549-2.081 1.4-.642.77-1.327 1.4-1.523 1.4s-.649.339-1.008.753c-.359.413-1.01.843-1.447.953-.646.164-.605.21.222.248.709.032 1.462-.438 2.488-1.554.809-.88 1.637-1.6 1.841-1.6s.463-.244.578-.543.748-.651 1.407-.783c1.186-.237 3.27-1.953 3.27-2.692 0-.21.518-.382 1.151-.382 1.179 0 2.234-.845 1.986-1.59-.077-.23-.366-.056-.642.386m-14.149 9.516c-1.573 1.769-3.98 3.688-4.629 3.69-.394.001-1.327.721-2.073 1.6-.975 1.148-1.667 1.598-2.458 1.598-.629 0-1.203.268-1.34.625-.135.35-.445.499-.705.339-.256-.158-.368-.125-.249.074.275.462-2.337 2.973-2.728 2.623-.161-.143-.174-.055-.03.197.268.469-.532.942-1.594.942-.326 0-1.167.608-1.869 1.352-.701.743-1.634 1.442-2.073 1.553-.732.186-.725.206.089.249.518.027 1.449-.517 2.242-1.31.745-.745 1.913-1.478 2.595-1.627.714-.157 1.344-.6 1.485-1.045.135-.425.418-.772.63-.772s.964-.63 1.671-1.4c.706-.77 1.658-1.4 2.115-1.4.913 0 3.375-1.996 3.375-2.736 0-.255.435-.464.967-.464 1.226 0 2.233-.381 2.233-.844 0-.196.757-1.07 1.682-1.942s1.59-1.675 1.478-1.787c-.111-.112-.478.107-.814.485M321.4 228.181c-.88.951-1.739 1.646-1.91 1.544s-.26.054-.2.345c.067.322-.345.582-1.047.662-.756.086-1.827.82-3.087 2.113-1.061 1.09-2.07 1.993-2.243 2.008-.172.015-.268.189-.213.387s-.395.364-1 .369c-.779.006-1.502.474-2.476 1.6-.808.934-1.731 1.591-2.236 1.591-.475 0-1.493.671-2.275 1.5-1.868 1.979-2.877 2.786-3.775 3.017-.502.129-.387.205.359.237.699.029 1.277-.244 1.596-.754.275-.44.726-.8 1.003-.8s.504-.154.504-.342c0-.705 1.994-2.458 2.797-2.458.459 0 1.561-.72 2.45-1.6s1.98-1.6 2.424-1.6c.455 0 1.848-1.047 3.193-2.4 1.35-1.358 2.737-2.4 3.195-2.4.673 0 5.141-4.014 5.141-4.618 0-.51-.759.041-2.2 1.599m-23.09 16.736c-.753.753-1.626 1.471-1.94 1.595q-.58.226.23.252c.816.028 3.704-2.593 3.301-2.996-.121-.122-.837.395-1.591 1.149m-5.607 4.067c-1.21 1.219-2.525 2.216-2.923 2.216s-1.49.765-2.425 1.7c-2.461 2.458-3.279 3.1-3.955 3.1-.33 0-1.32.72-2.2 1.6s-1.422 1.6-1.203 1.6.621-.36.896-.8.707-.8.96-.8c.254 0 .555-.244.67-.543s.74-.65 1.391-.78c1.131-.226 4.886-3.537 4.886-4.309 0-.202.435-.368.967-.368 1.226 0 2.233-.381 2.233-.844 0-.196.757-1.07 1.682-1.942s1.578-1.688 1.45-1.815c-.127-.127-1.22.766-2.429 1.985M275.8 261.436c-1.276 1.356-2.338 2.133-2.934 2.145-.608.012-1.725.856-3.204 2.419-1.412 1.493-2.596 2.4-3.134 2.4-.476 0-1.592.72-2.481 1.6s-1.975 1.6-2.414 1.6-1.752.971-2.916 2.157-2.477 2.246-2.917 2.354c-.702.172-.685.202.135.243.637.031 1.597-.633 3.02-2.091 1.148-1.175 2.592-2.263 3.21-2.419.618-.155 1.71-.903 2.427-1.663.716-.759 1.664-1.381 2.107-1.381.852 0 4.901-3.597 4.901-4.354 0-.245.435-.446.967-.446 1.381 0 2.233-.398 2.233-1.043 0-.306.27-.557.6-.557s.6-.173.6-.384.486-.835 1.081-1.386c.594-.551.999-1.073.9-1.161-.1-.087-1.081.798-2.181 1.967m-22.707 16.298c-.763.763-1.726 1.474-2.14 1.58-.573.147-.514.203.247.235.992.042 3.98-2.502 3.501-2.981-.121-.122-.845.403-1.608 1.166m-5.558 4.023c-1.423 1.511-2.424 2.243-3.069 2.243-.616 0-1.457.57-2.36 1.6-.921 1.051-1.739 1.6-2.384 1.6-.569 0-1.349.439-1.852 1.04-.479.573-1.212 1.338-1.63 1.7-.418.363-1.093.975-1.5 1.36s-1.096.7-1.531.7c-.436 0-1.757.966-2.937 2.146s-2.399 2.246-2.709 2.368q-.556.221.237.245c.458.013 1.703-.896 2.913-2.126 1.431-1.455 2.554-2.232 3.478-2.405.861-.161 1.456-.546 1.613-1.042.138-.432.508-.786.823-.786s.573-.154.573-.342c0-.684 1.983-2.458 2.748-2.458 1.046 0 2.052-.404 2.052-.825 0-.688 2.065-2.375 2.918-2.384.918-.01 5.405-4.202 4.966-4.64-.131-.131-1.188.772-2.349 2.006m-22.565 16.445c-.723.867-1.521 1.398-2.102 1.398-.625 0-1.689.797-3.206 2.4-1.46 1.544-2.589 2.4-3.166 2.4-.512 0-1.581.685-2.496 1.6-.88.88-1.968 1.6-2.417 1.6-.462 0-1.734.938-2.923 2.156-1.157 1.185-2.454 2.244-2.882 2.353-.663.169-.641.205.153.245.938.046 3.269-1.895 3.269-2.723 0-.237.276-.431.613-.431s.709-.252.827-.561c.119-.308.823-.674 1.565-.814.848-.159 1.443-.545 1.599-1.039.138-.432.489-.786.78-.786s.634-.27.761-.6c.126-.33.661-.6 1.188-.6.943 0 5.067-3.6 5.067-4.422 0-.208.435-.378.967-.378 1.258 0 2.233-.384 2.233-.879 0-.216.405-.721.9-1.122s.796-.835.668-.963c-.127-.128-.756.396-1.398 1.166"/><path d="M97.4 11.485c-.44.111-1.025.384-1.3.607-.396.322-.5 14.202-.5 66.969v66.562l-2.58 2.542c-1.419 1.398-2.454 2.682-2.3 2.853s.087.201-.149.067c-.5-.285-1.833 1.119-1.438 1.515.147.146.072.207-.166.133-.565-.173-3.607 2.869-3.434 3.434.074.238.013.313-.133.166-.383-.383-1.807.932-1.518 1.4.133.215.079.3-.12.189-.476-.265-10.583 9.914-10.232 10.305.148.166.077.192-.159.058-.5-.285-1.833 1.119-1.438 1.515.147.146.087.21-.133.14-.599-.189-2.196 1.338-1.915 1.831.134.236.109.309-.055.162-.415-.372-1.844.921-1.548 1.4.133.215.079.3-.12.189-.476-.265-10.583 9.914-10.232 10.305.148.166.077.192-.159.058-.512-.291-1.822 1.117-1.438 1.545.147.164.074.189-.162.055-.5-.285-1.833 1.119-1.438 1.515.147.146.087.21-.133.14-.599-.189-2.196 1.338-1.915 1.831.134.236.109.309-.055.162-.428-.384-1.836.926-1.545 1.438.134.236.108.307-.058.158s-2.126 1.552-4.355 3.78c-6.187 6.182-8.861 2.191 22.437 33.488l26.491 26.49v66.494c0 63.911.028 66.521.731 67.157.883.799 65.019 1.038 66.495.248 1.21-.648 1.21-38.524 0-39.172-.488-.261-5.647-.414-14-.414H135.6l-.002-54.9-.001-54.9-1.887-1.8c-1.038-.99-2.072-1.74-2.298-1.667-.227.074-.292.013-.145-.133.395-.396-.938-1.8-1.438-1.515-.236.134-.309.109-.162-.054.328-.367-11.345-12.222-11.777-11.96-.17.104-.264.04-.207-.141.171-.549-1.395-2.107-1.854-1.845-.236.134-.309.109-.162-.055.384-.428-.926-1.836-1.438-1.545-.236.134-.309.109-.162-.054.328-.367-11.345-12.222-11.777-11.96-.17.104-.26.025-.2-.175.156-.516-2.935-3.523-3.457-3.363-.238.074-.313.013-.166-.133.333-.333-.901-1.826-1.303-1.578-.162.1-.249-.226-.194-.725.065-.594 6.742-7.552 19.365-20.178l19.265-19.271V51.2h13.52c9.982 0 13.646-.126 14-.48.601-.601.686-37.775.089-38.72-.375-.592-63.537-1.087-65.809-.515m93.085 67.362-.885.327v83.25l-6.9 6.917c-3.795 3.804-7.35 7.487-7.9 8.184s-1.144 1.269-1.319 1.271c-.27.003-13.132 12.808-15.736 15.665-.47.517-1.594 1.569-2.496 2.339-2.136 1.822-2.373 4.42-.549 6.022.605.531 1.28.909 1.5.839s.278-.006.129.144c-.336.335 11.351 12.149 11.781 11.909.17-.095.26-.01.2.19-.156.516 2.935 3.523 3.457 3.363.238-.074.314-.014.168.132-.359.358 11.369 12.142 11.827 11.882.199-.112.253-.029.12.186-.289.468 1.135 1.783 1.518 1.4.146-.147.207-.072.133.166-.16.522 2.847 3.613 3.363 3.457.2-.06.249.075.11.3-.139.226-.063.41.17.41.296 0 .424 12.65.424 41.809v41.808l.949.433c1.001.456 2.651-.082 2.651-.864 0-.212.464-.386 1.031-.386.673 0 1.583-.557 2.616-1.6.927-.936 1.963-1.6 2.496-1.6.951 0 2.939-1.903 2.718-2.6-.07-.22-.003-.276.149-.124s.752-.168 1.333-.712 1.507-1.104 2.057-1.244c.55-.141 1.937-1.215 3.083-2.388 1.173-1.201 2.439-2.132 2.9-2.132.449 0 1.537-.72 2.417-1.6.915-.915 1.984-1.6 2.496-1.6.577 0 1.706-.856 3.166-2.4 1.517-1.603 2.581-2.4 3.206-2.4.577 0 1.374-.525 2.076-1.367.627-.752 1.581-1.478 2.12-1.613.539-.136 1.964-1.23 3.166-2.433 1.203-1.203 2.528-2.187 2.945-2.187.755 0 2.317-1.121 3.565-2.56 1.625-1.872 2.119-2.24 3.012-2.24.61 0 1.455-.575 2.354-1.6.903-1.03 1.744-1.6 2.36-1.6.642 0 1.635-.72 3.013-2.184 1.131-1.202 2.555-2.31 3.164-2.463.61-.153 1.708-.877 2.44-1.61.733-.732 1.824-1.449 2.425-1.593s2.045-1.227 3.209-2.406 2.476-2.144 2.916-2.144 1.525-.72 2.414-1.6 2.005-1.6 2.481-1.6c.538 0 1.722-.907 3.134-2.4 1.419-1.5 2.596-2.4 3.139-2.4.526 0 1.716-.868 3.016-2.2 1.219-1.248 2.502-2.2 2.966-2.2.449 0 1.537-.72 2.417-1.6s1.87-1.6 2.2-1.6c.676 0 1.494-.642 3.955-3.1.935-.935 2.032-1.7 2.436-1.7.405 0 1.629-.917 2.721-2.038s2.539-2.231 3.217-2.467 1.829-1.027 2.559-1.756 1.803-1.447 2.385-1.593c1.211-.304 2.045-.933 4.04-3.046.782-.829 1.8-1.5 2.275-1.5.505 0 1.428-.657 2.236-1.591.889-1.028 1.719-1.594 2.346-1.6.658-.006 1.708-.781 3.261-2.409 1.497-1.568 2.609-2.4 3.207-2.4.588 0 1.659-.78 2.995-2.181 1.144-1.2 2.594-2.308 3.223-2.463.629-.154 1.717-.883 2.417-1.618s1.638-1.338 2.085-1.338c.936 0 4.552-3.341 4.126-3.813-.156-.173-.058-.185.219-.026.294.169.602.03.743-.336.137-.357.711-.625 1.34-.625.791 0 1.483-.45 2.458-1.598.746-.879 1.679-1.599 2.073-1.6.395-.001 1.45-.677 2.344-1.502l2.604-2.4c.537-.495 1.287-.9 1.667-.9s.951-.36 1.268-.8.763-.8.991-.8.939-.63 1.581-1.4c.71-.851 1.525-1.4 2.081-1.4.554 0 1.499-.632 2.395-1.6.895-.967 1.842-1.6 2.394-1.6 1.092 0 2.158-1.383 2.158-2.8 0-1.398-1.061-2.799-2.123-2.803-.482-.002-1.507-.602-2.278-1.332s-1.863-1.444-2.427-1.586-2.052-1.252-3.308-2.468-2.606-2.211-3.001-2.211-1.081-.405-1.524-.9c-1.633-1.826-4.224-3.9-4.872-3.901-.367 0-1.344-.72-2.172-1.6-.828-.879-1.875-1.599-2.327-1.599s-1.416-.63-2.142-1.4-1.458-1.4-1.626-1.4c-.169 0-.597-.334-.953-.743-.356-.408-1.086-.881-1.622-1.05s-1.547-.915-2.247-1.658-1.665-1.349-2.145-1.349c-.534 0-1.801-.932-3.265-2.4-1.576-1.581-2.715-2.4-3.337-2.4-.52 0-1.053-.281-1.185-.625-.135-.35-.445-.499-.705-.339-.256.159-.358.115-.226-.098.131-.212-.317-.825-.996-1.362a38 38 0 0 1-1.977-1.676c-.408-.385-1.012-.7-1.343-.7s-1.185-.617-1.9-1.371c-.714-.753-1.829-1.502-2.477-1.663-.648-.16-2.102-1.254-3.231-2.429-1.289-1.341-2.389-2.137-2.954-2.137-.527 0-1.537-.663-2.437-1.6-.91-.947-1.917-1.606-2.469-1.614-.617-.009-1.663-.817-3.105-2.4-1.37-1.503-2.494-2.386-3.036-2.386-.477 0-1.493-.669-2.277-1.5-1.995-2.113-2.829-2.742-4.04-3.046-.582-.146-1.661-.869-2.399-1.607s-2.001-1.559-2.808-1.825-1.466-.622-1.466-.791c0-.668-3.408-3.631-4.179-3.633-.463-.001-1.412-.699-2.177-1.6-.862-1.015-1.695-1.598-2.285-1.598-.559 0-1.665-.716-2.78-1.8-1.019-.99-2.027-1.8-2.239-1.8-.213 0-.285-.165-.16-.367.125-.203-.36-.494-1.077-.648-.837-.179-2.035-1.048-3.352-2.432-1.243-1.307-2.388-2.153-2.912-2.153-.496 0-1.49-.681-2.335-1.6-1.015-1.104-1.804-1.6-2.545-1.6-.604 0-1.178-.273-1.313-.625-.141-.366-.449-.505-.743-.336-.277.159-.383.155-.236-.009.384-.428-.926-1.836-1.438-1.545-.236.134-.297.097-.136-.081.422-.466-1.583-2.204-2.543-2.204-.445 0-1.455-.72-2.245-1.6-.842-.938-1.797-1.6-2.308-1.6-.513 0-1.786-.884-3.086-2.144-1.217-1.179-2.779-2.341-3.471-2.582-.691-.241-2.142-1.346-3.223-2.456-1.109-1.14-2.325-2.018-2.792-2.018-.457 0-1.473-.715-2.273-1.6-.919-1.017-1.793-1.6-2.401-1.6-.536 0-1.35-.46-1.854-1.047-2.188-2.554-3.634-3.753-4.524-3.753-.542 0-1.525-.578-2.301-1.354-.745-.745-1.786-1.489-2.313-1.653s-1.63-.949-2.451-1.745c-2.405-2.334-3.073-2.848-3.701-2.848-.325 0-1.63-1.079-2.9-2.398-1.474-1.533-2.632-2.399-3.207-2.4-.515-.001-1.585-.687-2.5-1.602-.975-.975-1.974-1.6-2.557-1.6-.527 0-1.051-.245-1.166-.544-.279-.726-1.5-1.013-2.592-.609"/></g></svg>