<!--
  - The MIT License (MIT)
  -
  - Copyright (c) 2015-2023 Elior "Mallowigi" Boukhobza
  -
  - Permission is hereby granted, free of charge, to any person obtaining a copy
  - of this software and associated documentation files (the "Software"), to deal
  - in the Software without restriction, including without limitation the rights
  - to use, copy, modify, merge, publish, distribute, sublicense, and/or sell
  - copies of the Software, and to permit persons to whom the Software is
  - furnished to do so, subject to the following conditions:
  -
  - The above copyright notice and this permission notice shall be included in all
  - copies or substantial portions of the Software.
  -
  - THE SOFTWARE IS PROVIDED "AS IS", WITHOUT WARRANTY OF ANY KIND, EXPRESS OR
  - IMPLIED, INCLUDING BUT NOT LIMITED TO THE WARRANTIES OF MERCHANTABILITY,
  - FITNESS FOR A PARTICULAR PURPOSE AND NONINFRINGEMENT. IN NO EVENT SHALL THE
  - AUTHORS OR COPYRIGHT HOLDERS BE LIABLE FOR ANY CLAIM, DAMAGES OR OTHER
  - LIABILITY, WHETHER IN AN ACTION OF CONTRACT, TORT OR OTHERWISE, ARISING FROM,
  - OUT OF OR IN CONNECTION WITH THE SOFTWARE OR THE USE OR OTHER DEALINGS IN THE
  - SOFTWARE.
  -
  -->

<svg big="true" xmlns="http://www.w3.org/2000/svg" viewBox="120 -840 720 720" width="16px" height="16px">
  <path fill="#FDD835"
        d="M479.858-160Q460-160 446-174.142q-14-14.141-14-34Q432-228 446.142-242q14.141-14 34-14Q500-256 514-241.858q14 14.141 14 34Q528-188 513.858-174q-14.141 14-34 14Zm0-272Q460-432 446-446.142q-14-14.141-14-34Q432-500 446.142-514q14.141-14 34-14Q500-528 514-513.858q14 14.141 14 34Q528-460 513.858-446q-14.141 14-34 14Zm0-272Q460-704 446-718.142q-14-14.141-14-34Q432-772 446.142-786q14.141-14 34-14Q500-800 514-785.858q14 14.141 14 34Q528-732 513.858-718q-14.141 14-34 14Z"/>
</svg>
