<svg xmlns="http://www.w3.org/2000/svg" width="16" height="16" ><g fill="#6E6E6E" fill-rule="evenodd"><path d="M4.8 7.69h-.655a.245.245 0 0 0-.245.245v.2c0 .136.11.246.245.246H4.8v.469a3.05 3.05 0 0 0 3.05 3.05h.3a3.05 3.05 0 0 0 3.05-3.05v-.47h.655c.135 0 .245-.109.245-.245v-.2a.245.245 0 0 0-.245-.245H11.2V6H4.8zm.583 4.195A3.7 3.7 0 0 1 4 9v-.018h-.3a.5.5 0 0 1-.5-.5V7.59a.5.5 0 0 1 .5-.5h.303L4 6.837V6H2V4.8h2V3.436c0-.847.088-1.154.254-1.464.165-.31.408-.553.718-.718.31-.166.617-.254 1.464-.254h3.128c.847 0 1.154.088 1.464.254.31.165.553.408.718.718.166.31.254.617.254 1.464V4.8h2V6h-2v.837q0 .135-.003.254h.303a.5.5 0 0 1 .5.5v.89a.5.5 0 0 1-.5.5H12V9c0 1.166-.54 2.207-1.383 2.885C12.874 12.383 13.4 13.5 13.4 14H2.6c0-.5.526-1.617 2.783-2.115" data-themed="true"/><circle cx="6.7" cy="7.7" r=".7" data-themed="true"/><circle cx="9.3" cy="7.7" r=".7" data-themed="true"/><path d="m6.242 9.837.516-.474c.365.397.771.587 1.237.587s.878-.19 1.25-.589l.51.478c-.499.535-1.092.811-1.76.811s-1.259-.276-1.753-.813" data-themed="true"/></g></svg>