<svg xmlns="http://www.w3.org/2000/svg" width="16" height="16" style="isolation:isolate" viewBox="0 0 214 214">
  <defs>
    <clipPath id="a">
      <path d="M0 0h214v214H0z"/>
    </clipPath>
  </defs>
  <g fill="#D81F27" clip-path="url(#a)">
    <path
        d="M77.237 30.963v96.035h21.24v19.998h-21.24v36.042c0 10.84 20.108 10.965 20.965 10.965v19.998c-11.507 0-23.071-3.051-30.964-9.553-7.893 6.502-19.456 9.553-30.963 9.553v-19.998c.856 0 20.965-.125 20.965-10.965v-36.042H36v-19.998h21.24V30.963c0-10.84-20.109-10.965-20.965-10.965V0c11.507 0 23.07 3.052 30.963 9.553C75.13 3.052 86.694 0 98.201 0v19.998c-.856 0-20.964.125-20.964 10.965M136 167.119h57v15.919h-57z"/>
  </g>
</svg>