<svg xmlns="http://www.w3.org/2000/svg" width="16" height="16"  viewBox="0 0 24 24"><path fill="#FF5370" d="M14 12h-4v-2h4m0 6h-4v-2h4m6-6h-2.81a6 6 0 0 0-1.82-1.96L17 4.41 15.59 3l-2.17 2.17a6 6 0 0 0-2.83 0L8.41 3 7 4.41l1.62 1.63C7.88 6.55 7.26 7.22 6.81 8H4v2h2.09c-.05.33-.09.66-.09 1v1H4v2h2v1c0 .34.04.67.09 1H4v2h2.81c1.04 1.79 2.97 3 5.19 3s4.15-1.21 5.19-3H20v-2h-2.09c.05-.33.09-.66.09-1v-1h2v-2h-2v-1c0-.34-.04-.67-.09-1H20z"/><path fill="#66BB6A" d="M20.755 12.845A5.57 5.57 0 0 0 16.8 11.2a5.6 5.6 0 0 0-5.6 5.6 5.6 5.6 0 0 0 5.6 5.6 5.59 5.59 0 0 0 5.411-4.2h-1.456A4.19 4.19 0 0 1 16.8 21a4.2 4.2 0 0 1-4.2-4.2 4.2 4.2 0 0 1 4.2-4.2 4.14 4.14 0 0 1 2.954 1.246L17.5 16.1h4.9v-4.9z"/></svg>