<svg xmlns="http://www.w3.org/2000/svg" width="16" height="16"  viewBox="60 -880 840 840"><path fill="#FF5370" d="M480-120q-65 0-121-31t-83-89h-87q-12 0-20.5-9t-8.5-21q0-13 8.5-21.5T190-300h62q-7-26-7-52.5V-406h-57q-12 0-20.5-9t-8.5-21q0-13 8.5-21.5T189-466h56q0-29 .5-57.5T254-580h-65q-12 0-20.5-9t-8.5-21q0-13 8.5-21.5T190-640h90q14-28 37-49t51-35l-58-57q-8-8-7.5-19.5T311-820t20-8 20 8l74 74q28-10 56.5-10t56.5 10l75-75q8-8 19.5-7.5T652-820t8 20-8 20l-56 56q28 14 49.5 35.5T683-640h89q12 0 20.5 9t8.5 21q0 13-8.5 21.5T771-580h-65q9 28 8.5 56.5T714-466h58q12 0 20.5 9t8.5 21q0 13-8.5 21.5T771-406h-57q0 27 .5 53.5T708-300h64q12 0 20.5 9t8.5 21q0 13-8.5 21.5T771-240h-86q-26 59-82.5 89.5T480-120m0-60q72 0 123-50.5T654-353v-167q0-72-51-122.5T480-693t-123 50.5T306-520v167q0 72 51 122.5T480-180m-50-140h101q12 0 20.5-8.5T560-350t-8.5-21.5T530-380H429q-12 0-20.5 8.5T400-350t8.5 21.5T430-320m0-173h101q12 0 20.5-8.5T560-523t-8.5-21.5T530-553H429q-12 0-20.5 8.5T400-523t8.5 21.5T430-493m50 57h.5zh.5zh.5zh.5z"/><path fill="#66BB6A" d="M648-120q-79.8 0-135.9-56.1T456-312t56.1-135.9T648-504q51 0 89.4 20.7t66.6 56.7V-486q0-7.8 5.1-12.9T822-504t12.9 5.1T840-486v116.4q0 7.8-5.1 12.9t-12.9 5.1H705.6q-7.8 0-12.9-5.1t-5.1-12.9 5.1-12.9 12.9-5.1h82.8q-22.8-36-58.2-58.2T648-468q-65.4 0-110.7 45.3T492-312t45.3 110.7T648-156q45 0 84-23.7t58.2-63.9q3-6.6 9.9-9.9t13.5-.3q7.2 3 9.6 9.9t-.6 14.1q-23.4 50.4-70.5 80.1T648-120"/></svg>