<!--
  - The MIT License (MIT)
  -
  - Copyright (c) 2015-2024 Elior "Mallowigi" Boukhobza
  -
  - Permission is hereby granted, free of charge, to any person obtaining a copy
  - of this software and associated documentation files (the "Software"), to deal
  - in the Software without restriction, including without limitation the rights
  - to use, copy, modify, merge, publish, distribute, sublicense, and/or sell
  - copies of the Software, and to permit persons to whom the Software is
  - furnished to do so, subject to the following conditions:
  -
  - The above copyright notice and this permission notice shall be included in all
  - copies or substantial portions of the Software.
  -
  - THE SOFTWARE IS PROVIDED "AS IS", WITHOUT WARRANTY OF ANY KIND, EXPRESS OR
  - IMPLIED, INCLUDING BUT NOT LIMITED TO THE WARRANTIES OF MERCHANTABILITY,
  - FITNESS FOR A PARTICULAR PURPOSE AND NONINFRINGEMENT. IN NO EVENT SHALL THE
  - AUTHORS OR COPYRIGHT HOLDERS BE LIABLE FOR ANY CLAIM, DAMAGES OR OTHER
  - LIABILITY, WHETHER IN AN ACTION OF CONTRACT, TORT OR OTHERWISE, ARISING FROM,
  - OUT OF OR IN CONNECTION WITH THE SOFTWARE OR THE USE OR OTHER DEALINGS IN THE
  - SOFTWARE.
  -->

<svg xmlns="http://www.w3.org/2000/svg" width="20px" height="20px" viewBox="0 0 16 16">
  <path fill="#E25A1C"
        d="M5.244 10.447 1.45 8.839a.7.7 0 0 1-.065-1.257l3.599-1.985.379-3.957a.7.7 0 0 1 1.157-.46l3.068 2.678 4.047-.898a.7.7 0 0 1 .786.98l-1.727 3.694 2.204 3.482a.7.7 0 0 1-.671 1.07l-4.218-.48-2.743 3.078a.7.7 0 0 1-1.208-.327zm1.411-1.21.662 3.033 2.048-2.376 3.142.3-1.653-2.636 1.28-2.848-3.07.747-2.351-2.06-.245 3.098-2.732 1.573z"/>
</svg>
