<svg xmlns="http://www.w3.org/2000/svg" xml:space="preserve" width="16" height="16" fill="#92DC5B" data-big="true" viewBox="0 0 512 512"><path d="m411.815 255.999 67.915-67.915c42.958-42.958 42.958-112.857 0-155.814C458.92 11.46 431.252 0 401.823 0s-57.097 11.46-77.908 32.271L256 100.186l-67.915-67.915C167.274 11.46 139.607 0 110.177 0S53.08 11.46 32.27 32.271c-42.958 42.958-42.958 112.856 0 155.814L100.186 256 32.27 323.914c-42.958 42.958-42.958 112.857 0 155.814 20.809 20.809 48.478 32.271 77.908 32.271s57.097-11.46 77.908-32.271L256 411.814l67.915 67.915C344.724 500.538 372.393 512 401.823 512s57.097-11.46 77.908-32.271c42.958-42.958 42.958-112.856 0-155.814zm-66.392-202.22c15.549-15.549 35.974-23.324 56.4-23.324 20.425 0 40.85 7.775 56.4 23.324 31.099 31.099 31.099 81.7 0 112.798l-67.915 67.915-112.8-112.798zM53.778 166.577c-31.099-31.099-31.099-81.7 0-112.798 15.549-15.549 35.974-23.324 56.4-23.324s40.85 7.775 56.4 23.324l67.915 67.915-112.8 112.797zm112.799 291.644c-31.099 31.099-81.701 31.099-112.799 0s-31.099-81.7 0-112.798l67.916-67.915 112.799 112.799zM143.2 255.999 256 143.2l112.799 112.799L256 368.799zm315.022 202.222c-31.099 31.099-81.701 31.099-112.799 0l-67.915-67.915 112.799-112.799 67.915 67.915c31.098 31.1 31.098 81.701 0 112.799"/><path d="m233.774 192.667 21.508-21.508 22.942 22.942-21.508 21.507zM296.385 255.28l21.508-21.508 22.941 22.941-21.508 21.508zM171.158 255.281l21.508-21.507 22.941 22.94-21.508 21.509zM233.78 317.888l21.508-21.508 22.942 22.942-21.508 21.508zM233.774 255.286l21.508-21.508 22.94 22.941-21.507 21.508z"/></svg>