<svg xmlns="http://www.w3.org/2000/svg" xml:space="preserve" width="16" height="16" fill="#32C7BA"
     viewBox="0 0 512.002 512.002"><path d="M481.683 30.32c-40.425-40.425-105.965-40.425-146.39 0l-79.29 79.29 146.388 146.388 79.292-79.292c40.425-40.421 40.425-105.965 0-146.386M176.709 30.32c-40.425-40.425-105.965-40.425-146.39 0s-40.425 105.965 0 146.39L109.611 256l-79.292 79.292c-40.425 40.425-40.425 105.965 0 146.39s105.965 40.425 146.39 0l79.292-79.292L109.616 256l146.387-146.39-.002.002zM402.39 255.999h.002v.002h-.002zM402.391 256.002 256.004 402.387l79.294 79.294c40.421 40.425 105.965 40.425 146.388 0 40.42-40.421 40.42-105.962-.003-146.387z"/>
  <circle cx="256.004" cy="195.623" r="25.876"/>
  <circle cx="316.386" cy="256.005" r="25.878"/>
  <circle cx="195.622" cy="256.005" r="25.878"/>
  <circle cx="256.004" cy="316.387" r="25.876"/></svg>