<svg xmlns="http://www.w3.org/2000/svg" width="16" height="16" viewBox="0 0 512 512">
  <path fill="#497CE3"
        d="M144.676 342.115 7.68 268.81a14.48 14.48 0 0 1-7.677-13.014A14.49 14.49 0 0 1 8.033 243l136.643-68.316v32.498l-98.52 49.253 98.52 52.72zm222.649.002v-32.964l98.52-52.717-98.52-49.253v-32.498L503.966 243A14.49 14.49 0 0 1 512 255.797a14.48 14.48 0 0 1-7.675 13.014zm-42.448-199.243H290.65l-10.319 56.838h-32.163l10.32-56.838H224.26l-10.32 56.838h-33.467v33.677h27.353l-8.791 48.425h-33.25v33.677h27.136l-9.738 53.635h34.227l9.737-53.635h32.165l-9.737 53.635h34.227l9.737-53.635h37.184v-33.677h-31.07l8.79-48.425h32.523v-33.677H314.56zm-82.823 90.515h32.164l-8.791 48.425h-32.164z"
        data-iconColor="FreeMarker"/>
</svg>