<!--
  - The MIT License (MIT)
  -
  - Copyright (c) 2015-2024 Elior "Mallowigi" Boukhobza
  -
  - Permission is hereby granted, free of charge, to any person obtaining a copy
  - of this software and associated documentation files (the "Software"), to deal
  - in the Software without restriction, including without limitation the rights
  - to use, copy, modify, merge, publish, distribute, sublicense, and/or sell
  - copies of the Software, and to permit persons to whom the Software is
  - furnished to do so, subject to the following conditions:
  -
  - The above copyright notice and this permission notice shall be included in all
  - copies or substantial portions of the Software.
  -
  - THE SOFTWARE IS PROVIDED "AS IS", WITHOUT WARRANTY OF ANY KIND, EXPRESS OR
  - IMPLIED, INCLUDING BUT NOT LIMITED TO THE WARRANTIES OF MERCHANTABILITY,
  - FITNESS FOR A PARTICULAR PURPOSE AND NONINFRINGEMENT. IN NO EVENT SHALL THE
  - AUTHORS OR COPYRIGHT HOLDERS BE LIABLE FOR ANY CLAIM, DAMAGES OR OTHER
  - LIABILITY, WHETHER IN AN ACTION OF CONTRACT, TORT OR OTHERWISE, ARISING FROM,
  - OUT OF OR IN CONNECTION WITH THE SOFTWARE OR THE USE OR OTHER DEALINGS IN THE
  - SOFTWARE.
  -->

<svg data-big="true" xmlns="http://www.w3.org/2000/svg" width="16px" height="16px" viewBox="0 0 16 16">
  <path fill="#808080" data-themed="true" data-iconColor="GitIgnore"
        d="M14.718,7.356L8.6,1.241a0.9,0.9,0,0,0-1.276,0l-1.27,1.27L7.668,4.122A1.071,1.071,0,0,1,9.025,5.487L10.577,7.04a1.072,1.072,0,1,1-.643.605L8.487,6.2v3.81A1.071,1.071,0,1,1,7.6,9.975V6.13a1.074,1.074,0,0,1-.583-1.407L5.434,3.135,1.241,7.327a0.9,0.9,0,0,0,0,1.276l6.115,6.115a0.9,0.9,0,0,0,1.276,0l6.086-6.086A0.9,0.9,0,0,0,14.718,7.356Z"
  />
</svg>
