<svg xmlns="http://www.w3.org/2000/svg" width="16" height="16" data-big="true" viewBox="0 -1 16 16"><path fill="#26A2C1" d="M14.59 2.257A2.29 2.29 0 0 0 12.579.989c-.769-.015-1.4.445-1.284.751a5 5 0 0 0 .261.547c.13.2.357.044.439 0a1.2 1.2 0 0 1 .79-.146 1.19 1.19 0 0 1 .892.736A2.071 2.071 0 0 1 10.21 4.86a5.53 5.53 0 0 0-5.437-.809c-.988.35-1.448.7-1.057 1.509a17 17 0 0 0 .872 1.677c.817 1.451 2.612-.67 2.612-.67-1.335 2.133-2.481 1.618-2.921.875a12 12 0 0 1-.707-1.451C.188 7.288 1.1 12.969 1.1 12.969l1.682.007c.426-2.107 1.963-2.02 2.224.007l1.284.007c1.133-4.112 4.009.015 4.009.015l1.675.007c-.467-2.807.94-3.69 1.826-5.33s1.744-3.66.79-5.425m-5.21 5.5a.92.92 0 0 1-.529-1.181s.206.073.549.19a.36.36 0 0 0-.055.255.39.39 0 0 0 .426.357.406.406 0 0 0 .35-.357q.206.077.432.153a.945.945 0 0 1-1.173.581Z" class="i-color" data-iconColor="Gradle"/></svg>