<!--
  - The MIT License (MIT)
  -
  - Copyright (c) 2015-2024 Elior "Mallowigi" Boukhobza
  -
  - Permission is hereby granted, free of charge, to any person obtaining a copy
  - of this software and associated documentation files (the "Software"), to deal
  - in the Software without restriction, including without limitation the rights
  - to use, copy, modify, merge, publish, distribute, sublicense, and/or sell
  - copies of the Software, and to permit persons to whom the Software is
  - furnished to do so, subject to the following conditions:
  -
  - The above copyright notice and this permission notice shall be included in all
  - copies or substantial portions of the Software.
  -
  - THE SOFTWARE IS PROVIDED "AS IS", WITHOUT WARRANTY OF ANY KIND, EXPRESS OR
  - IMPLIED, INCLUDING BUT NOT LIMITED TO THE WARRANTIES OF MERCHANTABILITY,
  - FITNESS FOR A PARTICULAR PURPOSE AND NONINFRINGEMENT. IN NO EVENT SHALL THE
  - AUTHORS OR COPYRIGHT HOLDERS BE LIABLE FOR ANY CLAIM, DAMAGES OR OTHER
  - LIABILITY, WHETHER IN AN ACTION OF CONTRACT, TORT OR OTHERWISE, ARISING FROM,
  - OUT OF OR IN CONNECTION WITH THE SOFTWARE OR THE USE OR OTHER DEALINGS IN THE
  - SOFTWARE.
  -
  -->

<svg xmlns="http://www.w3.org/2000/svg" width="16" height="16"  viewBox="0 0 512 512"><path fill="#D52A29" d="M242.377 187.713 178.767 0h270.246l-63.83 188.259a64 64 0 0 0-8.083 2.505L314.045 62.133l-63.238 127.87a64 64 0 0 0-8.43-2.29M34.55 494.993c85.001 59.705 179.284-55.824 307.71-70.378 73.75-4.37 123.878-49.518 95.316-119.409-53.105 32.709-102.736-10.153-102.389-53.163h-40.353c-1.325 38.399-30.208 68.609-74.979 64.118-35.044 52.425-75.66 81.88-121.746 96.852-31.149-14.375-60.462-49.39-47.172-96.158a64.7 64.7 0 0 1-16.855-4.231c-42.842 79.999-48.136 143.223.468 182.369m63.281-242.944c0-30.385-33.119-49.478-59.47-34.286s-26.353 53.38 0 68.571c26.351 15.193 59.47-3.9 59.47-34.285m171.408-.377c0-30.384-33.12-49.478-59.471-34.285s-26.352 53.379 0 68.57c26.352 15.193 59.47-3.9 59.47-34.285m170.764 0c0-30.384-33.12-49.478-59.471-34.285s-26.352 53.379 0 68.57c26.352 15.193 59.47-3.9 59.47-34.285" data-iconColor="Jest"/></svg>