<!--
  - The MIT License (MIT)
  -
  - Copyright (c) 2015-2024 Elior "Mallowigi" Boukhobza
  -
  - Permission is hereby granted, free of charge, to any person obtaining a copy
  - of this software and associated documentation files (the "Software"), to deal
  - in the Software without restriction, including without limitation the rights
  - to use, copy, modify, merge, publish, distribute, sublicense, and/or sell
  - copies of the Software, and to permit persons to whom the Software is
  - furnished to do so, subject to the following conditions:
  -
  - The above copyright notice and this permission notice shall be included in all
  - copies or substantial portions of the Software.
  -
  - THE SOFTWARE IS PROVIDED "AS IS", WITHOUT WARRANTY OF ANY KIND, EXPRESS OR
  - IMPLIED, INCLUDING BUT NOT LIMITED TO THE WARRANTIES OF MERCHANTABILITY,
  - FITNESS FOR A PARTICULAR PURPOSE AND NONINFRINGEMENT. IN NO EVENT SHALL THE
  - AUTHORS OR COPYRIGHT HOLDERS BE LIABLE FOR ANY CLAIM, DAMAGES OR OTHER
  - LIABILITY, WHETHER IN AN ACTION OF CONTRACT, TORT OR OTHERWISE, ARISING FROM,
  - OUT OF OR IN CONNECTION WITH THE SOFTWARE OR THE USE OR OTHER DEALINGS IN THE
  - SOFTWARE.
  -->

<svg data-big="true" xmlns="http://www.w3.org/2000/svg" width="16px" height="16px" viewBox="0 0 16 16">
  <path fill="#1E9CEF" data-iconColor="Yarn"
        d="M7.511,2.479S8.1,0.7,8.637,1.045A9.179,9.179,0,0,1,9.4,2.488a1.232,1.232,0,0,1,.711-0.234A5.8,5.8,0,0,1,9.078,8.025a4.574,4.574,0,0,1,1.436,4.55c1.378,0,2.087-1.342,3.845-1.425a0.541,0.541,0,0,1,.234,1.055c-1.222.173-2.427,1.538-4.89,2.232-0.318.484-2.216,0.43-3.71,0.564-1.581.017-1.173-1.216-.6-1.425a4.841,4.841,0,0,1-.459-0.383C4.536,15.3,3.457,14.658,2.8,14.477c-0.509-.271.036-0.906,0.036-0.906-0.5.213-.886-0.725-0.828-1.646a2.688,2.688,0,0,1,.873-1.447A4.247,4.247,0,0,1,4.787,6.446a2.02,2.02,0,0,1-.314-2.629C5.458,3.543,5.649,2.374,7.511,2.479Z"
  />
</svg>
