<svg xmlns="http://www.w3.org/2000/svg" width="16" height="16" data-big="true"><g fill="#FF5370" fill-rule="evenodd" transform="translate(2 1)"><circle cx="8.5" cy="10.5" r="3.5"/><path d="M6.39 6.525a4.5 4.5 0 0 0-2.16 5.399q-.354.075-.73.076a3.5 3.5 0 1 1 2.89-5.475"/><path d="M3.125 6.606C4.089 3.063 7.165.473 10.81.473q.569 0 1.116.082l.099-.049v1.135C10.059 2.72 8.807 4.347 8.807 6.168q.002.64.2 1.242H7.842a5 5 0 0 1-.133-1.144c0-1.78.95-3.406 2.514-4.642C7.191 1.9 4.718 4.287 4.09 7.41h-.965z"/></g></svg>