<svg xmlns="http://www.w3.org/2000/svg" width="16" height="16" viewBox="0 -1 16 16">
  <path fill="#E79627"
        d="M11.087 6.1a1.9 1.9 0 0 0-1.229.528 1.6 1.6 0 0 0-.474 1.2 1.79 1.79 0 0 0 .977 1.66 7 7 0 0 0 .81.389 2.6 2.6 0 0 1 .886.489.61.61 0 0 1 .1.66.7.7 0 0 1-.118.156.97.97 0 0 1-.706.24 1.37 1.37 0 0 1-1.208-.668 1 1 0 0 0-.086-.111c-.012 0-1.017.58-1.038.6s0 .04.049.124a2.43 2.43 0 0 0 1.876 1.186 4 4 0 0 0 .85 0A2.13 2.13 0 0 0 13.024 12a1.65 1.65 0 0 0 .493-1.247 1.85 1.85 0 0 0-.177-.842 1.5 1.5 0 0 0-.314-.44 4 4 0 0 0-1.359-.805 2.5 2.5 0 0 1-.846-.466.57.57 0 0 1-.153-.446.5.5 0 0 1 .132-.332.6.6 0 0 1 .5-.192.74.74 0 0 1 .588.235 1.4 1.4 0 0 1 .172.209.2.2 0 0 0 .082.1c.034-.015.994-.635.994-.644s-.049-.082-.108-.172a2.2 2.2 0 0 0-.512-.532A2 2 0 0 0 11.5 6.1a2 2 0 0 0-.413 0M6.976 8.5v2.335l-.029.11a.6.6 0 0 1-.162.309.64.64 0 0 1-.491.158.84.84 0 0 1-.779-.547.7.7 0 0 0-.077-.114l-.538.318-.522.317.04.079a1.97 1.97 0 0 0 1.138.992 2.6 2.6 0 0 0 1.678-.04 1.66 1.66 0 0 0 1.023-1.459c.008-.074.013-.9.013-2.452V6.165H6.981Zm6.506 5.5H2.518A1.52 1.52 0 0 1 1 12.482V1.518A1.52 1.52 0 0 1 2.518 0h10.964A1.52 1.52 0 0 1 15 1.518v10.964A1.52 1.52 0 0 1 13.482 14M2.518.705a.814.814 0 0 0-.813.813v10.964a.814.814 0 0 0 .813.813h10.964a.814.814 0 0 0 .813-.813V1.518a.814.814 0 0 0-.813-.813z"
        class="i-color"/>
</svg>