<svg xmlns="http://www.w3.org/2000/svg" width="16" height="16" data-big="true" viewBox="0 -960 960 960"><path fill="#4DD0E1" d="M508-508h50q12.75 0 21.375 8.675t8.625 21.5-8.625 21.325T558-448h-80q-12.75 0-21.375-8.625T448-478v-80q0-12.75 8.675-21.375t21.5-8.625 21.325 8.625T508-558zm300 0v-50q0-12.75 8.675-21.375t21.5-8.625 21.325 8.625T868-558v80q0 12.75-8.625 21.375T838-448h-80q-12.75 0-21.375-8.675t-8.625-21.5 8.625-21.325T758-508zM508-808v50q0 12.75-8.675 21.375t-21.5 8.625-21.325-8.625T448-758v-80q0-12.75 8.625-21.375T478-868h80q12.75 0 21.375 8.675t8.625 21.5-8.625 21.325T558-808zm300 0h-50q-12.75 0-21.375-8.675t-8.625-21.5 8.625-21.325T758-868h80q12.75 0 21.375 8.625T868-838v80q0 12.75-8.675 21.375t-21.5 8.625-21.325-8.625T808-758zM368-326 155-113q-9 9-21 9t-21-9-9-21 9-21l213-213H158q-12.75 0-21.375-8.675t-8.625-21.5 8.625-21.325T158-428h240q12.75 0 21.375 8.625T428-398v240q0 12.75-8.675 21.375t-21.5 8.625-21.325-8.625T368-158z"/></svg>