<svg xmlns="http://www.w3.org/2000/svg" xml:space="preserve" width="64" height="64" data-big="true" viewBox="0 0 58 58"><path d="M54.392 19.5H3.608A3.61 3.61 0 0 1 0 15.892V4.108A3.61 3.61 0 0 1 3.608.5h50.783A3.61 3.61 0 0 1 58 4.108v11.783a3.61 3.61 0 0 1-3.608 3.609" style="fill:#556080"/><path d="M54.392 38.5H3.608A3.61 3.61 0 0 1 0 34.892V23.108A3.61 3.61 0 0 1 3.608 19.5h50.783a3.61 3.61 0 0 1 3.608 3.608v11.783a3.61 3.61 0 0 1-3.607 3.609" style="fill:#424a60"/><path d="M54.392 57.5H3.608A3.61 3.61 0 0 1 0 53.892V42.108A3.61 3.61 0 0 1 3.608 38.5h50.783a3.61 3.61 0 0 1 3.608 3.608v11.783a3.61 3.61 0 0 1-3.607 3.609" style="fill:#556080"/><circle cx="9.5" cy="10" r="3.5" style="fill:#7383bf"/><circle cx="49" cy="8.5" r="1" style="fill:#7383bf"/><circle cx="45" cy="8.5" r="1" style="fill:#7383bf"/><circle cx="51" cy="11.5" r="1" style="fill:#7383bf"/><circle cx="47" cy="11.5" r="1" style="fill:#7383bf"/><circle cx="41" cy="8.5" r="1" style="fill:#7383bf"/><circle cx="43" cy="11.5" r="1" style="fill:#7383bf"/><circle cx="37" cy="8.5" r="1" style="fill:#7383bf"/><circle cx="39" cy="11.5" r="1" style="fill:#7383bf"/><circle cx="33" cy="8.5" r="1" style="fill:#7383bf"/><circle cx="35" cy="11.5" r="1" style="fill:#7383bf"/><circle cx="9.5" cy="29" r="3.5" style="fill:#7383bf"/><circle cx="49" cy="27.5" r="1" style="fill:#7383bf"/><circle cx="45" cy="27.5" r="1" style="fill:#7383bf"/><circle cx="51" cy="30.5" r="1" style="fill:#7383bf"/><circle cx="47" cy="30.5" r="1" style="fill:#7383bf"/><circle cx="41" cy="27.5" r="1" style="fill:#7383bf"/><circle cx="43" cy="30.5" r="1" style="fill:#7383bf"/><circle cx="37" cy="27.5" r="1" style="fill:#7383bf"/><circle cx="39" cy="30.5" r="1" style="fill:#7383bf"/><circle cx="33" cy="27.5" r="1" style="fill:#7383bf"/><circle cx="35" cy="30.5" r="1" style="fill:#7383bf"/><circle cx="9.5" cy="48" r="3.5" style="fill:#7383bf"/><circle cx="49" cy="46.5" r="1" style="fill:#7383bf"/><circle cx="45" cy="46.5" r="1" style="fill:#7383bf"/><circle cx="51" cy="49.5" r="1" style="fill:#7383bf"/><circle cx="47" cy="49.5" r="1" style="fill:#7383bf"/><circle cx="41" cy="46.5" r="1" style="fill:#7383bf"/><circle cx="43" cy="49.5" r="1" style="fill:#7383bf"/><circle cx="37" cy="46.5" r="1" style="fill:#7383bf"/><circle cx="39" cy="49.5" r="1" style="fill:#7383bf"/><circle cx="33" cy="46.5" r="1" style="fill:#7383bf"/><circle cx="35" cy="49.5" r="1" style="fill:#7383bf"/></svg>