<!--
  - The MIT License (MIT)
  -
  - Copyright (c) 2015-2024 Elior "Mallowigi" Boukhobza
  -
  - Permission is hereby granted, free of charge, to any person obtaining a copy
  - of this software and associated documentation files (the "Software"), to deal
  - in the Software without restriction, including without limitation the rights
  - to use, copy, modify, merge, publish, distribute, sublicense, and/or sell
  - copies of the Software, and to permit persons to whom the Software is
  - furnished to do so, subject to the following conditions:
  -
  - The above copyright notice and this permission notice shall be included in all
  - copies or substantial portions of the Software.
  -
  - THE SOFTWARE IS PROVIDED "AS IS", WITHOUT WARRANTY OF ANY KIND, EXPRESS OR
  - IMPLIED, INCLUDING BUT NOT LIMITED TO THE WARRANTIES OF MERCHANTABILITY,
  - FITNESS FOR A PARTICULAR PURPOSE AND NONINFRINGEMENT. IN NO EVENT SHALL THE
  - AUTHORS OR COPYRIGHT HOLDERS BE LIABLE FOR ANY CLAIM, DAMAGES OR OTHER
  - LIABILITY, WHETHER IN AN ACTION OF CONTRACT, TORT OR OTHERWISE, ARISING FROM,
  - OUT OF OR IN CONNECTION WITH THE SOFTWARE OR THE USE OR OTHER DEALINGS IN THE
  - SOFTWARE.
  -->

<!-- Generator: Adobe Illustrator 19.0.0, SVG Export Plug-In . SVG Version: 6.00 Build 0)  -->
<svg data-big="true" version="1.1" id="Capa_1" xmlns="http://www.w3.org/2000/svg" x="0px" y="0px" viewBox="0 0 58 58"
     style="enable-background:new 0 0 58 58;" xml:space="preserve" width="64px" height="64px">
<path style="fill:#556080;" d="M54.392,19.5H3.608C1.616,19.5,0,17.884,0,15.892V4.108C0,2.116,1.616,0.5,3.608,0.5h50.783
C56.384,0.5,58,2.116,58,4.108v11.783C58,17.884,56.384,19.5,54.392,19.5z"/>
  <path style="fill:#424A60;" d="M54.392,38.5H3.608C1.616,38.5,0,36.884,0,34.892V23.108C0,21.116,1.616,19.5,3.608,19.5h50.783
c1.993,0,3.608,1.616,3.608,3.608v11.783C58,36.884,56.384,38.5,54.392,38.5z"/>
  <path style="fill:#556080;" d="M54.392,57.5H3.608C1.616,57.5,0,55.884,0,53.892V42.108C0,40.116,1.616,38.5,3.608,38.5h50.783
c1.993,0,3.608,1.616,3.608,3.608v11.783C58,55.884,56.384,57.5,54.392,57.5z"/>
  <circle style="fill:#7383BF;" cx="9.5" cy="10" r="3.5"/>
  <circle style="fill:#7383BF;" cx="49" cy="8.5" r="1"/>
  <circle style="fill:#7383BF;" cx="45" cy="8.5" r="1"/>
  <circle style="fill:#7383BF;" cx="51" cy="11.5" r="1"/>
  <circle style="fill:#7383BF;" cx="47" cy="11.5" r="1"/>
  <circle style="fill:#7383BF;" cx="41" cy="8.5" r="1"/>
  <circle style="fill:#7383BF;" cx="43" cy="11.5" r="1"/>
  <circle style="fill:#7383BF;" cx="37" cy="8.5" r="1"/>
  <circle style="fill:#7383BF;" cx="39" cy="11.5" r="1"/>
  <circle style="fill:#7383BF;" cx="33" cy="8.5" r="1"/>
  <circle style="fill:#7383BF;" cx="35" cy="11.5" r="1"/>
  <circle style="fill:#7383BF;" cx="9.5" cy="29" r="3.5"/>
  <circle style="fill:#7383BF;" cx="49" cy="27.5" r="1"/>
  <circle style="fill:#7383BF;" cx="45" cy="27.5" r="1"/>
  <circle style="fill:#7383BF;" cx="51" cy="30.5" r="1"/>
  <circle style="fill:#7383BF;" cx="47" cy="30.5" r="1"/>
  <circle style="fill:#7383BF;" cx="41" cy="27.5" r="1"/>
  <circle style="fill:#7383BF;" cx="43" cy="30.5" r="1"/>
  <circle style="fill:#7383BF;" cx="37" cy="27.5" r="1"/>
  <circle style="fill:#7383BF;" cx="39" cy="30.5" r="1"/>
  <circle style="fill:#7383BF;" cx="33" cy="27.5" r="1"/>
  <circle style="fill:#7383BF;" cx="35" cy="30.5" r="1"/>
  <circle style="fill:#7383BF;" cx="9.5" cy="48" r="3.5"/>
  <circle style="fill:#7383BF;" cx="49" cy="46.5" r="1"/>
  <circle style="fill:#7383BF;" cx="45" cy="46.5" r="1"/>
  <circle style="fill:#7383BF;" cx="51" cy="49.5" r="1"/>
  <circle style="fill:#7383BF;" cx="47" cy="49.5" r="1"/>
  <circle style="fill:#7383BF;" cx="41" cy="46.5" r="1"/>
  <circle style="fill:#7383BF;" cx="43" cy="49.5" r="1"/>
  <circle style="fill:#7383BF;" cx="37" cy="46.5" r="1"/>
  <circle style="fill:#7383BF;" cx="39" cy="49.5" r="1"/>
  <circle style="fill:#7383BF;" cx="33" cy="46.5" r="1"/>
  <circle style="fill:#7383BF;" cx="35" cy="49.5" r="1"/>
  <g>
</g>
  <g>
</g>
  <g>
</g>
  <g>
</g>
  <g>
</g>
  <g>
</g>
  <g>
</g>
  <g>
</g>
  <g>
</g>
  <g>
</g>
  <g>
</g>
  <g>
</g>
  <g>
</g>
  <g>
</g>
  <g>
</g>
</svg>
