<svg xmlns="http://www.w3.org/2000/svg" width="64" height="64" viewBox="0 0 511.999 511.999"><g fill="#cdd4d5"><path d="M370.885 327.27 186.862 143.248a8 8 0 0 0-11.312 0l-30.169 30.167a7.996 7.996 0 0 0 0 11.312l184.023 184.024a7.996 7.996 0 0 0 11.312 0l30.167-30.169a7.996 7.996 0 0 0 .002-11.312"/><path d="M214.012 73.862 144.626 4.476a8 8 0 0 0-11.313 0l-30.166 30.167a8 8 0 0 0 0 11.312l51.662 51.662-55.056 55.056-51.663-51.66a8 8 0 0 0-11.312 0L6.61 131.18a8 8 0 0 0 0 11.312l69.386 69.386a8 8 0 0 0 6.381 2.31l66.37-6.034a8 8 0 0 0 4.932-2.31l54.302-54.302a8 8 0 0 0 2.31-4.932l6.034-66.37a8 8 0 0 0-2.313-6.378"/></g><path fill="#fff" d="M167.172 76.537a7.97 7.97 0 0 1-5.656-2.343l-21.332-21.332a8 8 0 0 1 0-11.312 8 8 0 0 1 11.312 0l21.332 21.332a7.998 7.998 0 0 1-5.656 13.655"/><path fill="#cdd4d5" d="m509.657 369.506-69.386-69.386a8 8 0 0 0-6.38-2.31l-66.37 6.034a8 8 0 0 0-4.932 2.31l-54.302 54.302a8 8 0 0 0-2.31 4.932l-6.034 66.37a8 8 0 0 0 2.31 6.38l69.386 69.386a7.98 7.98 0 0 0 5.656 2.343 7.97 7.97 0 0 0 5.656-2.343l30.167-30.167a8 8 0 0 0 0-11.312l-51.662-51.662 55.056-55.056 51.662 51.662a8 8 0 0 0 11.312 0l30.167-30.167a8 8 0 0 0 .004-11.316"/><path fill="#687f82" d="m160.98 157.816-15.6 15.599a7.996 7.996 0 0 0 0 11.312l184.024 184.024a7.996 7.996 0 0 0 11.312 0l15.599-15.6z"/><path fill="#9baaab" d="m127.796 124.631-28.044 28.044-51.662-51.662a8 8 0 0 0-11.312 0L6.61 131.18a8 8 0 0 0 0 11.312l69.386 69.386a8 8 0 0 0 6.381 2.31l66.37-6.034a8 8 0 0 0 4.932-2.31l27.666-27.666zm180.491 235.824a8 8 0 0 0-2.31 4.932l-6.034 66.37a8 8 0 0 0 2.31 6.38l69.386 69.386a7.98 7.98 0 0 0 5.656 2.343 7.97 7.97 0 0 0 5.656-2.343l30.167-30.167a8 8 0 0 0 0-11.312l-51.662-51.663 28.044-28.044-53.547-53.547z"/><g fill="#cdd4d5"><path d="m363.602 145.459-24.134-24.135a8 8 0 0 0-11.312 0l-159.89 159.889a8 8 0 0 0 0 11.313L192.4 316.66a7.98 7.98 0 0 0 5.656 2.343 7.97 7.97 0 0 0 5.656-2.343l159.889-159.889a7.997 7.997 0 0 0 .001-11.312"/><path d="M463.155 45.905 439.021 21.77a7.995 7.995 0 0 0-8.967-1.625l-66.37 30.169a8 8 0 0 0-2.346 1.625l-51.283 51.285a8 8 0 0 0 0 11.312l60.335 60.335a7.97 7.97 0 0 0 5.656 2.343 7.97 7.97 0 0 0 5.656-2.343l51.285-51.285a8 8 0 0 0 1.625-2.346l30.167-66.37a7.99 7.99 0 0 0-1.624-8.965"/></g><path fill="#fd6a33" d="M200.696 362.666 122.26 284.23a8 8 0 0 0-11.312 0l-93.52 93.52a8 8 0 0 0 0 11.313l78.436 78.436a7.98 7.98 0 0 0 5.656 2.343 7.97 7.97 0 0 0 5.656-2.343l93.52-93.52a8 8 0 0 0 0-11.313"/><path fill="#ff8c29" d="M122.26 284.23a8 8 0 0 0-11.312 0l-93.52 93.52a8 8 0 0 0 0 11.313l38.888 38.889 104.833-104.833z"/><path fill="#365558" d="m62.297 433.936-11.313-11.313 104.831-104.831 11.313 11.313zm24.14 18.101-11.313-11.313L176.938 338.91l11.313 11.313z"/><path fill="#687f82" d="M44.202 409.808 32.89 398.495l101.814-101.814 11.313 11.313zm116.945-86.694L56.316 427.944l-5.324-5.324 104.83-104.83zm190.059-190.052L180.004 304.263l12.396 12.396a7.98 7.98 0 0 0 5.656 2.343 7.97 7.97 0 0 0 5.656-2.343l159.89-159.889a8 8 0 0 0 0-11.312z"/><path fill="#9baaab" d="M450.759 33.508 339.893 144.375l30.497 30.497a7.97 7.97 0 0 0 5.656 2.343 7.97 7.97 0 0 0 5.656-2.343l51.285-51.285a8 8 0 0 0 1.625-2.346l30.167-66.37a8 8 0 0 0-1.625-8.967z"/><path fill="#ff8c29" d="M74.371 484.926c1.327 0 2.663-.33 3.882-1.007l27.15-15.084-89.314-89.313-15.082 27.151a8 8 0 0 0 1.336 9.541l66.37 66.369a8 8 0 0 0 5.658 2.343"/><path fill="#ffd1a9" d="M16.091 379.522 1.007 406.673a8 8 0 0 0 1.336 9.541l32.855 32.855 25.22-25.22z"/><path fill="#ff8c29" d="M164.495 266.13a8 8 0 0 0-8.808-1.696l-42.235 18.101 88.94 88.94 18.101-42.235a8 8 0 0 0-1.696-8.808z"/><path fill="#ffd1a9" d="M164.495 266.13a8 8 0 0 0-8.808-1.696l-42.235 18.101 44.141 44.141 33.723-33.723z"/><path fill="#fff" d="M353.575 117.36a7.97 7.97 0 0 1-5.656-2.343 8 8 0 0 1 0-11.312l25.598-25.598a8 8 0 0 1 11.312 0 8 8 0 0 1 0 11.312l-25.598 25.598a7.98 7.98 0 0 1-5.656 2.343"/></svg>