<svg xmlns="http://www.w3.org/2000/svg" xml:space="preserve" width="64" height="64" viewBox="0 0 512 512"><path d="M459.148 439.554 304 177.394V32c0-4.418-3.578-8-8-8s-8 3.582-8 8h-64c0-4.418-3.578-8-8-8s-8 3.582-8 8v145.394L52.852 439.554c-8.898 15.027-9.039 33.055-.391 48.223S76.695 512 94.156 512h323.687c17.461 0 33.047-9.055 41.695-24.223s8.509-33.195-.39-48.223" style="fill:#b3f4ff"/><path d="M256 32h-32c0-4.418-3.578-8-8-8s-8 3.582-8 8v145.394L52.852 439.554c-8.898 15.027-9.039 33.055-.391 48.223S76.695 512 94.156 512H256z" style="fill:#53dcff"/><path d="m431.617 455.851-44.937-75.926a7.99 7.99 0 0 0-6.883-3.926H132.203a7.99 7.99 0 0 0-6.883 3.926l-44.93 75.926c-3.008 5.078-3.062 10.934-.133 16.082 2.938 5.125 8 8.066 13.898 8.066h323.687c5.898 0 10.961-2.941 13.906-8.082 2.924-5.128 2.877-10.984-.131-16.066" style="fill:#00e68c"/><path d="M256 376H132.203a7.99 7.99 0 0 0-6.883 3.926l-44.93 75.926c-3.008 5.078-3.062 10.934-.133 16.082 2.938 5.125 8 8.066 13.898 8.066H256z" style="fill:#00bebe"/><path d="M280 264h-48c-4.422 0-8-3.582-8-8s3.578-8 8-8h48c4.422 0 8 3.582 8 8s-3.578 8-8 8M280 304h-48c-4.422 0-8-3.582-8-8s3.578-8 8-8h48c4.422 0 8 3.582 8 8s-3.578 8-8 8M280 344h-48c-4.422 0-8-3.582-8-8s3.578-8 8-8h48c4.422 0 8 3.582 8 8s-3.578 8-8 8" style="fill:#5c546a"/><circle cx="288" cy="432" r="16" style="fill:#fff"/><circle cx="200" cy="408" r="16" style="fill:#00e68c"/><circle cx="344" cy="416" r="8" style="fill:#fff"/><circle cx="224" cy="440" r="8" style="fill:#00e68c"/><circle cx="152" cy="424" r="8" style="fill:#00e68c"/><path d="M304 0h-96c-8.837 0-16 7.163-16 16s7.163 16 16 16h96c8.837 0 16-7.163 16-16s-7.164-16-16-16" style="fill:#44bef1"/></svg>