<svg xmlns="http://www.w3.org/2000/svg" xml:space="preserve" width="64" height="64" viewBox="0 0 512 512"><path d="M485.517 61.793H26.483C11.857 61.793 0 73.65 0 88.276v335.448c0 14.626 11.857 26.483 26.483 26.483h459.034c14.626 0 26.483-11.857 26.483-26.483V88.276c0-14.626-11.857-26.483-26.483-26.483m-44.138 17.655h8.828a8.829 8.829 0 0 1 0 17.656h-8.828a8.829 8.829 0 0 1 0-17.656m-247.172 0h211.862a8.829 8.829 0 0 1 0 17.656H194.207a8.829 8.829 0 0 1 0-17.656m-44.138 0h8.828a8.829 8.829 0 0 1 0 17.656h-8.828a8.829 8.829 0 0 1 0-17.656m-35.31 0h8.828a8.829 8.829 0 0 1 0 17.656h-8.828a8.829 8.829 0 0 1 0-17.656m-35.311 0a8.829 8.829 0 1 1-.001 17.657 8.829 8.829 0 0 1 .001-17.657m-26.482 0a8.829 8.829 0 1 1-.001 17.657 8.829 8.829 0 0 1 .001-17.657m-26.483 0a8.829 8.829 0 1 1-.001 17.657 8.829 8.829 0 0 1 .001-17.657m467.862 88.276v256a8.83 8.83 0 0 1-8.828 8.828H26.483a8.83 8.83 0 0 1-8.828-8.828V123.586a8.83 8.83 0 0 1 8.828-8.828h459.034a8.83 8.83 0 0 1 8.828 8.828zm-8.828-70.621h-8.828a8.829 8.829 0 0 1 0-17.656h8.828a8.829 8.829 0 0 1 0 17.656" style="fill:#d2dcf0"/>
  <path
      d="M256 432.552h229.517a8.83 8.83 0 0 0 8.828-8.828v-256H256zm132.414-220.69v-8.828a8.83 8.83 0 0 1 8.828-8.828h61.793a8.83 8.83 0 0 1 8.828 8.828v79.449a8.83 8.83 0 0 1-8.828 8.828h-61.793a8.83 8.83 0 0 1-8.828-8.828zm-105.931 0v-8.828a8.83 8.83 0 0 1 8.828-8.828h61.793a8.83 8.83 0 0 1 8.828 8.828v79.449a8.83 8.83 0 0 1-8.828 8.828H291.31a8.83 8.83 0 0 1-8.828-8.828zm8.827 105.931h167.725a8.83 8.83 0 0 1 8.828 8.828v70.621a8.83 8.83 0 0 1-8.828 8.828H291.31a8.83 8.83 0 0 1-8.828-8.828v-70.621a8.83 8.83 0 0 1 8.828-8.828"
      style="fill:#fff"/>
  <circle cx="26.483" cy="88.276" r="8.828" style="fill:#ff6469"/>
  <circle cx="52.966" cy="88.276" r="8.828" style="fill:#ffe169"/>
  <circle cx="79.448" cy="88.276" r="8.828" style="fill:#87e1aa"/>
  <path
      d="M114.759 97.103h8.828a8.829 8.829 0 0 0 0-17.656h-8.828a8.829 8.829 0 0 0 0 17.656M150.069 97.103h8.828a8.829 8.829 0 0 0 0-17.656h-8.828a8.829 8.829 0 0 0 0 17.656M441.379 97.103h8.828a8.829 8.829 0 0 0 0-17.656h-8.828a8.829 8.829 0 0 0 0 17.656M485.517 79.448h-8.828a8.829 8.829 0 0 0 0 17.656h8.828a8.829 8.829 0 0 0 0-17.656M194.207 97.103h211.862a8.829 8.829 0 0 0 0-17.656H194.207a8.829 8.829 0 0 0 0 17.656"
      style="fill:#e4eaf6"/>
  <path
      d="M485.517 114.759H256v52.966h238.345v-44.138a8.83 8.83 0 0 0-8.828-8.828m-167.724 35.31h-35.31a8.829 8.829 0 0 1 0-17.656h35.31a8.829 8.829 0 0 1 0 17.656m70.621 0h-35.31a8.829 8.829 0 0 1 0-17.656h35.31a8.829 8.829 0 0 1 0 17.656m70.62 0h-35.31a8.829 8.829 0 0 1 0-17.656h35.31a8.829 8.829 0 0 1 0 17.656"
      style="fill:#ff6469"/>
  <path
      d="M317.793 132.414h-35.31a8.829 8.829 0 0 0 0 17.656h35.31a8.829 8.829 0 0 0 0-17.656M388.414 132.414h-35.31a8.829 8.829 0 0 0 0 17.656h35.31a8.829 8.829 0 0 0 0-17.656M459.034 132.414h-35.31a8.829 8.829 0 0 0 0 17.656h35.31a8.829 8.829 0 0 0 0-17.656"
      style="fill:#d2555f"/>
  <path
      d="M291.31 291.31h61.793a8.83 8.83 0 0 0 8.828-8.828v-70.621a8.83 8.83 0 0 1-8.828 8.828H291.31a8.83 8.83 0 0 1-8.828-8.828v70.621a8.83 8.83 0 0 0 8.828 8.828M397.241 291.31h61.793a8.83 8.83 0 0 0 8.828-8.828v-70.621a8.83 8.83 0 0 1-8.828 8.828h-61.793a8.83 8.83 0 0 1-8.828-8.828v70.621a8.83 8.83 0 0 0 8.828 8.828"
      style="fill:#dee3ed"/>
  <path
      d="M291.31 220.69h61.793a8.83 8.83 0 0 0 8.828-8.828v-8.828a8.83 8.83 0 0 0-8.828-8.828H291.31a8.83 8.83 0 0 0-8.828 8.828v8.828a8.83 8.83 0 0 0 8.828 8.828"
      style="fill:#ff969b"/>
  <path
      d="M397.241 220.69h61.793a8.83 8.83 0 0 0 8.828-8.828v-8.828a8.83 8.83 0 0 0-8.828-8.828h-61.793a8.83 8.83 0 0 0-8.828 8.828v8.828a8.83 8.83 0 0 0 8.828 8.828"
      style="fill:#a0dcf0"/>
  <path
      d="M308.966 326.621v70.621a8.83 8.83 0 0 1-8.828 8.828h158.897a8.83 8.83 0 0 0 8.828-8.828v-70.621a8.83 8.83 0 0 0-8.828-8.828H300.138a8.83 8.83 0 0 1 8.828 8.828"
      style="fill:#dee3ed"/>
  <path
      d="M291.31 406.069h8.828a8.83 8.83 0 0 0 8.828-8.828V326.62a8.83 8.83 0 0 0-8.828-8.828h-8.828a8.83 8.83 0 0 0-8.828 8.828v70.621a8.83 8.83 0 0 0 8.828 8.828"
      style="fill:#91e6be"/>
  <path
      d="M256 114.759H26.483a8.83 8.83 0 0 0-8.828 8.828v300.138a8.83 8.83 0 0 0 8.828 8.828H256V114.759M88.276 141.241h141.241a8.829 8.829 0 0 1 0 17.656H88.276a8.829 8.829 0 0 1 0-17.656m-44.138 0h8.828a8.829 8.829 0 0 1 0 17.656h-8.828a8.829 8.829 0 0 1 0-17.656m88.276 52.966h-26.483a8.829 8.829 0 0 1 0-17.656h26.483a8.829 8.829 0 0 1 0 17.656m8.827 26.483a8.83 8.83 0 0 1-8.828 8.828H105.93a8.829 8.829 0 0 1 0-17.656h26.483a8.83 8.83 0 0 1 8.828 8.828m-97.103 61.793h8.828a8.829 8.829 0 0 1 0 17.656h-8.828a8.829 8.829 0 0 1 0-17.656M35.31 256a8.83 8.83 0 0 1 8.828-8.828h8.828a8.829 8.829 0 0 1 0 17.656h-8.828A8.83 8.83 0 0 1 35.31 256m26.483 61.793h8.828a8.829 8.829 0 0 1 0 17.656h-8.828a8.829 8.829 0 0 1 0-17.656m8.828-88.276h-8.828a8.829 8.829 0 0 1 0-17.656h8.828a8.829 8.829 0 0 1 0 17.656m0-35.31h-8.828a8.829 8.829 0 0 1 0-17.656h8.828a8.829 8.829 0 0 1 0 17.656M52.966 406.069h-8.828a8.829 8.829 0 0 1 0-17.656h8.828a8.829 8.829 0 0 1 0 17.656m17.655-35.31h-8.828a8.829 8.829 0 0 1 0-17.656h8.828a8.829 8.829 0 0 1 0 17.656m158.896 35.31H88.276a8.829 8.829 0 0 1 0-17.656h141.241a8.829 8.829 0 0 1 0 17.656m-123.586-52.966h26.483a8.829 8.829 0 0 1 0 17.656h-26.483a8.829 8.829 0 0 1 0-17.656m-8.828-26.482a8.83 8.83 0 0 1 8.828-8.828h26.483a8.829 8.829 0 0 1 0 17.656h-26.483a8.83 8.83 0 0 1-8.828-8.828m132.414 44.138h-61.793a8.829 8.829 0 0 1 0-17.656h61.793a8.829 8.829 0 0 1 0 17.656m0-35.311h-61.793a8.829 8.829 0 0 1 0-17.656h61.793a8.829 8.829 0 0 1 0 17.656m0-35.31H88.276a8.829 8.829 0 0 1 0-17.656h141.241a8.829 8.829 0 0 1 0 17.656m0-35.31H88.276a8.829 8.829 0 0 1 0-17.656h141.241a8.829 8.829 0 0 1 0 17.656m0-35.311h-61.793a8.829 8.829 0 0 1 0-17.656h61.793a8.829 8.829 0 0 1 0 17.656m0-35.31h-61.793a8.829 8.829 0 0 1 0-17.656h61.793a8.829 8.829 0 0 1 0 17.656"
      style="fill:#464655"/>
  <path d="M88.276 158.897h141.241a8.829 8.829 0 0 0 0-17.656H88.276a8.829 8.829 0 0 0 0 17.656" style="fill:#ffe169"/>
  <path
      d="M132.414 176.552h-26.483a8.829 8.829 0 0 0 0 17.656h26.483a8.829 8.829 0 0 0 0-17.656M132.414 211.862h-26.483a8.829 8.829 0 0 0 0 17.656h26.483a8.829 8.829 0 0 0 0-17.656"
      style="fill:#91e6be"/>
  <path d="M229.517 247.172H88.276a8.829 8.829 0 0 0 0 17.656h141.241a8.829 8.829 0 0 0 0-17.656" style="fill:#ffe169"/>
  <path
      d="M229.517 282.483H88.276a8.829 8.829 0 0 0 0 17.656h141.241a8.829 8.829 0 0 0 0-17.656M229.517 176.552h-61.793a8.829 8.829 0 0 0 0 17.656h61.793a8.829 8.829 0 0 0 0-17.656M229.517 211.862h-61.793a8.829 8.829 0 0 0 0 17.656h61.793a8.829 8.829 0 0 0 0-17.656M229.517 317.793h-61.793a8.829 8.829 0 0 0 0 17.656h61.793a8.829 8.829 0 0 0 0-17.656M229.517 353.103h-61.793a8.829 8.829 0 0 0 0 17.656h61.793a8.829 8.829 0 0 0 0-17.656"
      style="fill:#fff"/>
  <path
      d="M105.931 335.448h26.483a8.829 8.829 0 0 0 0-17.656h-26.483a8.829 8.829 0 0 0 0 17.656M105.931 370.759h26.483a8.829 8.829 0 0 0 0-17.656h-26.483a8.829 8.829 0 0 0 0 17.656"
      style="fill:#91e6be"/>
  <path d="M229.517 388.414H88.276a8.829 8.829 0 0 0 0 17.656h141.241a8.829 8.829 0 0 0 0-17.656" style="fill:#ffe169"/>
  <path
      d="M44.138 158.897h8.828a8.829 8.829 0 0 0 0-17.656h-8.828a8.829 8.829 0 0 0 0 17.656M70.621 176.552h-8.828a8.829 8.829 0 0 0 0 17.656h8.828a8.829 8.829 0 0 0 0-17.656M70.621 211.862h-8.828a8.829 8.829 0 0 0 0 17.656h8.828a8.829 8.829 0 0 0 0-17.656M44.138 264.828h8.828a8.829 8.829 0 0 0 0-17.656h-8.828a8.829 8.829 0 0 0 0 17.656M44.138 300.138h8.828a8.829 8.829 0 0 0 0-17.656h-8.828a8.829 8.829 0 0 0 0 17.656M61.793 335.448h8.828a8.829 8.829 0 0 0 0-17.656h-8.828a8.829 8.829 0 0 0 0 17.656M70.621 353.103h-8.828a8.829 8.829 0 0 0 0 17.656h8.828a8.829 8.829 0 0 0 0-17.656M52.966 388.414h-8.828a8.829 8.829 0 0 0 0 17.656h8.828a8.829 8.829 0 0 0 0-17.656"
      style="fill:#ff6469"/></svg>