<!--
  - The MIT License (MIT)
  -
  - Copyright (c) 2015-2024 Elior "Mallowigi" Boukhobza
  -
  - Permission is hereby granted, free of charge, to any person obtaining a copy
  - of this software and associated documentation files (the "Software"), to deal
  - in the Software without restriction, including without limitation the rights
  - to use, copy, modify, merge, publish, distribute, sublicense, and/or sell
  - copies of the Software, and to permit persons to whom the Software is
  - furnished to do so, subject to the following conditions:
  -
  - The above copyright notice and this permission notice shall be included in all
  - copies or substantial portions of the Software.
  -
  - THE SOFTWARE IS PROVIDED "AS IS", WITHOUT WARRANTY OF ANY KIND, EXPRESS OR
  - IMPLIED, INCLUDING BUT NOT LIMITED TO THE WARRANTIES OF MERCHANTABILITY,
  - FITNESS FOR A PARTICULAR PURPOSE AND NONINFRINGEMENT. IN NO EVENT SHALL THE
  - AUTHORS OR COPYRIGHT HOLDERS BE LIABLE FOR ANY CLAIM, DAMAGES OR OTHER
  - LIABILITY, WHETHER IN AN ACTION OF CONTRACT, TORT OR OTHERWISE, ARISING FROM,
  - OUT OF OR IN CONNECTION WITH THE SOFTWARE OR THE USE OR OTHER DEALINGS IN THE
  - SOFTWARE.
  -->

<svg xmlns="http://www.w3.org/2000/svg" width="16px" height="16px" data-big="true" style="isolation:isolate" viewBox="0 0 214 214">
  <g fill="#91DC5A" stroke="#91DC5A" stroke-width="3" stroke-linejoin="round">
    <path
      d="M77.237 30.963v96.035h21.24v19.998h-21.24v36.042c0 10.84 20.108 10.965 20.965 10.965v19.998c-11.507 0-23.071-3.051-30.964-9.553-7.893 6.502-19.456 9.553-30.963 9.553v-19.998c.856 0 20.965-.125 20.965-10.965v-36.042H36v-19.998h21.24V30.963c0-10.84-20.109-10.965-20.965-10.965V0c11.507 0 23.07 3.052 30.963 9.553C75.13 3.052 86.694 0 98.201 0v19.998c-.856 0-20.964.125-20.964 10.965M157.712 123.922c-2.539.017-4.206 1.631-4.19 4.055l.187 28.184-29.519.196c-2.538.017-4.206 1.631-4.19 4.055l.054 8.052c.016 2.424 1.705 4.015 4.244 3.998l29.519-.196.187 28.184c.016 2.424 1.705 4.015 4.244 3.998l8.434-.056c2.539-.017 4.206-1.631 4.19-4.055l-.187-28.184 29.519-.196c2.538-.017 4.206-1.631 4.19-4.054l-.054-8.053c-.016-2.424-1.705-4.015-4.244-3.998l-29.519.196-.187-28.184c-.016-2.423-1.705-4.015-4.244-3.998z"/>
  </g>
</svg>
