<!--
  - The MIT License (MIT)
  -
  - Copyright (c) 2015-2025 Elior "Mallowigi" Boukhobza
  -
  - Permission is hereby granted, free of charge, to any person obtaining a copy
  - of this software and associated documentation files (the "Software"), to deal
  - in the Software without restriction, including without limitation the rights
  - to use, copy, modify, merge, publish, distribute, sublicense, and/or sell
  - copies of the Software, and to permit persons to whom the Software is
  - furnished to do so, subject to the following conditions:
  -
  - The above copyright notice and this permission notice shall be included in all
  - copies or substantial portions of the Software.
  -
  - THE SOFTWARE IS PROVIDED "AS IS", WITHOUT WARRANTY OF ANY KIND, EXPRESS OR
  - IMPLIED, INCLUDING BUT NOT LIMITED TO THE WARRANTIES OF MERCHANTABILITY,
  - FITNESS FOR A PARTICULAR PURPOSE AND NONINFRINGEMENT. IN NO EVENT SHALL THE
  - AUTHORS OR COPYRIGHT HOLDERS BE LIABLE FOR ANY CLAIM, DAMAGES OR OTHER
  - LIABILITY, WHETHER IN AN ACTION OF CONTRACT, TORT OR OTHERWISE, ARISING FROM,
  - OUT OF OR IN CONNECTION WITH THE SOFTWARE OR THE USE OR OTHER DEALINGS IN THE
  - SOFTWARE.
  -
  -->

<svg xmlns="http://www.w3.org/2000/svg" height="16px" viewBox="0 -960 960 960" width="16px" fill="#92DC5B">
  <path
    d="M480-254 330-104q-23 23-56 23t-56-23L104-218q-23-23-23-56t23-56l150-150-150-150q-23-23-23-56t23-56l114-114q23-23 56-23t56 23l150 150 150-150q23-23 56-23t56 23l114 114q23 23 23 56t-23 56L706-480l150 150q23 23 23 56t-23 56L742-104q-23 23-56 23t-56-23L480-254Zm0-266q17 0 28.5-11.5T520-560q0-17-11.5-28.5T480-600q-17 0-28.5 11.5T440-560q0 17 11.5 28.5T480-520Zm-170-16 114-114-150-150-114 114 150 150Zm90 96q17 0 28.5-11.5T440-480q0-17-11.5-28.5T400-520q-17 0-28.5 11.5T360-480q0 17 11.5 28.5T400-440Zm80 80q17 0 28.5-11.5T520-400q0-17-11.5-28.5T480-440q-17 0-28.5 11.5T440-400q0 17 11.5 28.5T480-360Zm80-80q17 0 28.5-11.5T600-480q0-17-11.5-28.5T560-520q-17 0-28.5 11.5T520-480q0 17 11.5 28.5T560-440Zm-24 130 150 150 114-114-150-150-114 114ZM339-621Zm282 282Z"/>
</svg>
