<!--
  - The MIT License (MIT)
  -
  - Copyright (c) 2015-2024 Elior "Mallowigi" Boukhobza
  -
  - Permission is hereby granted, free of charge, to any person obtaining a copy
  - of this software and associated documentation files (the "Software"), to deal
  - in the Software without restriction, including without limitation the rights
  - to use, copy, modify, merge, publish, distribute, sublicense, and/or sell
  - copies of the Software, and to permit persons to whom the Software is
  - furnished to do so, subject to the following conditions:
  -
  - The above copyright notice and this permission notice shall be included in all
  - copies or substantial portions of the Software.
  -
  - THE SOFTWARE IS PROVIDED "AS IS", WITHOUT WARRANTY OF ANY KIND, EXPRESS OR
  - IMPLIED, INCLUDING BUT NOT LIMITED TO THE WARRANTIES OF MERCHANTABILITY,
  - FITNESS FOR A PARTICULAR PURPOSE AND NONINFRINGEMENT. IN NO EVENT SHALL THE
  - AUTHORS OR COPYRIGHT HOLDERS BE LIABLE FOR ANY CLAIM, DAMAGES OR OTHER
  - LIABILITY, WHETHER IN AN ACTION OF CONTRACT, TORT OR OTHERWISE, ARISING FROM,
  - OUT OF OR IN CONNECTION WITH THE SOFTWARE OR THE USE OR OTHER DEALINGS IN THE
  - SOFTWARE.
  -->

<svg data-big="true" xmlns="http://www.w3.org/2000/svg" height="16px" viewBox="0 -960 960 960" width="16px">
  <path fill="#26A69A"
        d="m480-240-168 72q-40 17-76-6.5T200-241v-519q0-33 23.5-56.5T280-840h200q17 0 28.5 11.5T520-800q0 17-11.5 28.5T480-760H280v518l200-86 200 86v-238q0-17 11.5-28.5T720-520q17 0 28.5 11.5T760-480v239q0 43-36 66.5t-76 6.5l-168-72Zm0-520H280h240-40Zm200 80h-40q-17 0-28.5-11.5T600-720q0-17 11.5-28.5T640-760h40v-40q0-17 11.5-28.5T720-840q17 0 28.5 11.5T760-800v40h40q17 0 28.5 11.5T840-720q0 17-11.5 28.5T800-680h-40v40q0 17-11.5 28.5T720-600q-17 0-28.5-11.5T680-640v-40Z"/>
</svg>
