<!--
  - The MIT License (MIT)
  -
  - Copyright (c) 2015-2024 Elior "Mallowigi" Boukhobza
  -
  - Permission is hereby granted, free of charge, to any person obtaining a copy
  - of this software and associated documentation files (the "Software"), to deal
  - in the Software without restriction, including without limitation the rights
  - to use, copy, modify, merge, publish, distribute, sublicense, and/or sell
  - copies of the Software, and to permit persons to whom the Software is
  - furnished to do so, subject to the following conditions:
  -
  - The above copyright notice and this permission notice shall be included in all
  - copies or substantial portions of the Software.
  -
  - THE SOFTWARE IS PROVIDED "AS IS", WITHOUT WARRANTY OF ANY KIND, EXPRESS OR
  - IMPLIED, INCLUDING BUT NOT LIMITED TO THE WARRANTIES OF MERCHANTABILITY,
  - FITNESS FOR A PARTICULAR PURPOSE AND NONINFRINGEMENT. IN NO EVENT SHALL THE
  - AUTHORS OR COPYRIGHT HOLDERS BE LIABLE FOR ANY CLAIM, DAMAGES OR OTHER
  - LIABILITY, WHETHER IN AN ACTION OF CONTRACT, TORT OR OTHERWISE, ARISING FROM,
  - OUT OF OR IN CONNECTION WITH THE SOFTWARE OR THE USE OR OTHER DEALINGS IN THE
  - SOFTWARE.
  -->

<svg  xmlns="http://www.w3.org/2000/svg" height="16px" viewBox="40 -920 880 880" width="16px" fill="#EC407A">
  <path
    d="M384-337q-99 0-169.5-70T144-576q0-23 3.5-44.5T161-663q4-8 10.78-13.5 6.78-5.5 14.91-7.5 8.14-2 16.72.5Q212-681 219-674l107 107 70-70-106-106q-7.11-7.11-9.56-15.56Q278-767 280-775q2-8 7.5-15.5T302-802q20-8 40.67-11 20.66-3 41.33-3 100 0 170 71t70 170.19q0 22.81-4.5 42.31Q615-513 607-493l161 160q29 29 29 69.23 0 40.22-29 68-29 27.77-68.5 27.27T632-197L475-354q-20 8-43.5 12.5T384-337Zm0-72q17 0 47-7t56-28l196 196q7 7 16.5 7t17.5-7.5q8-7.5 8-17t-8-17.5L520-478q20-24 26-52.5t6-44.5q0-66.85-47.5-116.42Q457-741 390-744l82 81q11 11.18 11 26.09t-11.29 26.12L351.29-491.21Q340-480 325.82-480T301-491l-85-85q0 69 49.5 118T384-409Zm88-82Z"/>
</svg>
