<!--
  - The MIT License (MIT)
  -
  - Copyright (c) 2015-2024 Elior "Mallowigi" Boukhobza
  -
  - Permission is hereby granted, free of charge, to any person obtaining a copy
  - of this software and associated documentation files (the "Software"), to deal
  - in the Software without restriction, including without limitation the rights
  - to use, copy, modify, merge, publish, distribute, sublicense, and/or sell
  - copies of the Software, and to permit persons to whom the Software is
  - furnished to do so, subject to the following conditions:
  -
  - The above copyright notice and this permission notice shall be included in all
  - copies or substantial portions of the Software.
  -
  - THE SOFTWARE IS PROVIDED "AS IS", WITHOUT WARRANTY OF ANY KIND, EXPRESS OR
  - IMPLIED, INCLUDING BUT NOT LIMITED TO THE WARRANTIES OF MERCHANTABILITY,
  - FITNESS FOR A PARTICULAR PURPOSE AND NONINFRINGEMENT. IN NO EVENT SHALL THE
  - AUTHORS OR COPYRIGHT HOLDERS BE LIABLE FOR ANY CLAIM, DAMAGES OR OTHER
  - LIABILITY, WHETHER IN AN ACTION OF CONTRACT, TORT OR OTHERWISE, ARISING FROM,
  - OUT OF OR IN CONNECTION WITH THE SOFTWARE OR THE USE OR OTHER DEALINGS IN THE
  - SOFTWARE.
  -->

<svg xmlns="http://www.w3.org/2000/svg" height="16px" viewBox="0 -960 960 960" width="16px" data-big="true" fill="#82AAFF">
  <path
    d="M479.79-102Q450-102 429-123.15T408-174h144q0 30-21.21 51t-51 21Zm.21-696q-42 0-81 15.5T331-738l-52-51q40-41 92-61t109.5-20q119.79 0 203.65 84Q768-702 768-582q0 57-21.5 108T686-382l-50-50q28-31 44-69.5t16-80.5q0-90.33-62.84-153.16Q570.33-798 480-798Zm42 456H321q-62-41-95.5-104T192-582q0-20.34 3-39.67 3-19.33 9-39.33l-89-89q-11-11-11-25t11-25q11-11 25.5-11t25.5 11l627.92 627.92Q805-161 805-146.82q0 14.18-11 24.82-10.67 11-25.33 11-14.67 0-25.85-11.18L522-342Zm-178-72h106L265-599q-1 8-1 13v10q0 32 17.5 79.5T344-414Zm16-90Zm120-96ZM372-222q-15.3 0-25.65-10.29Q336-242.58 336-257.79t10.35-25.71Q356.7-294 372-294h234q15.3 0 25.65 10.29Q642-273.42 642-258.21t-10.35 25.71Q621.3-222 606-222H372Z"/>
</svg>
