<!--
  - The MIT License (MIT)
  -
  - Copyright (c) 2015-2024 Elior "Mallowigi" Boukhobza
  -
  - Permission is hereby granted, free of charge, to any person obtaining a copy
  - of this software and associated documentation files (the "Software"), to deal
  - in the Software without restriction, including without limitation the rights
  - to use, copy, modify, merge, publish, distribute, sublicense, and/or sell
  - copies of the Software, and to permit persons to whom the Software is
  - furnished to do so, subject to the following conditions:
  -
  - The above copyright notice and this permission notice shall be included in all
  - copies or substantial portions of the Software.
  -
  - THE SOFTWARE IS PROVIDED "AS IS", WITHOUT WARRANTY OF ANY KIND, EXPRESS OR
  - IMPLIED, INCLUDING BUT NOT LIMITED TO THE WARRANTIES OF MERCHANTABILITY,
  - FITNESS FOR A PARTICULAR PURPOSE AND NONINFRINGEMENT. IN NO EVENT SHALL THE
  - AUTHORS OR COPYRIGHT HOLDERS BE LIABLE FOR ANY CLAIM, DAMAGES OR OTHER
  - LIABILITY, WHETHER IN AN ACTION OF CONTRACT, TORT OR OTHERWISE, ARISING FROM,
  - OUT OF OR IN CONNECTION WITH THE SOFTWARE OR THE USE OR OTHER DEALINGS IN THE
  - SOFTWARE.
  -->

<svg xmlns="http://www.w3.org/2000/svg" height="16px" viewBox="40 -920 880 880" width="16px"  fill="#e8eaed">
  <path
    d="M320-320v50q0 13 8.5 21.5T350-240q13 0 21.5-8.5T380-270v-50h50q13 0 21.5-8.5T460-350q0-13-8.5-21.5T430-380h-50v-50q0-13-8.5-21.5T350-460q-13 0-21.5 8.5T320-430v50h-50q-13 0-21.5 8.5T240-350q0 13 8.5 21.5T270-320h50Zm230 50h140q13 0 21.5-8.5T720-300q0-13-8.5-21.5T690-330H550q-13 0-21.5 8.5T520-300q0 13 8.5 21.5T550-270Zm0-100h140q13 0 21.5-8.5T720-400q0-13-8.5-21.5T690-430H550q-13 0-21.5 8.5T520-400q0 13 8.5 21.5T550-370Zm70-208 35 35q9 9 21 9t21-9q8-8 8.5-20.5T698-585l-36-37 35-35q9-9 9-21t-9-21q-9-9-21-9t-21 9l-35 35-35-35q-9-9-21-9t-21 9q-9 9-9 21t9 21l35 35-36 37q-8 9-8 21t9 21q9 9 21 9t21-9l35-35Zm-340-14h140q13 0 21.5-8.5T450-622q0-13-8.5-21.5T420-652H280q-13 0-21.5 8.5T250-622q0 13 8.5 21.5T280-592Zm-80 472q-33 0-56.5-23.5T120-200v-560q0-33 23.5-56.5T200-840h560q33 0 56.5 23.5T840-760v560q0 33-23.5 56.5T760-120H200Zm0-80h560v-560H200v560Zm0-560v560-560Z"/>
</svg>
