<!--
  - The MIT License (MIT)
  -
  - Copyright (c) 2015-2024 Elior "Mallowigi" Boukhobza
  -
  - Permission is hereby granted, free of charge, to any person obtaining a copy
  - of this software and associated documentation files (the "Software"), to deal
  - in the Software without restriction, including without limitation the rights
  - to use, copy, modify, merge, publish, distribute, sublicense, and/or sell
  - copies of the Software, and to permit persons to whom the Software is
  - furnished to do so, subject to the following conditions:
  -
  - The above copyright notice and this permission notice shall be included in all
  - copies or substantial portions of the Software.
  -
  - THE SOFTWARE IS PROVIDED "AS IS", WITHOUT WARRANTY OF ANY KIND, EXPRESS OR
  - IMPLIED, INCLUDING BUT NOT LIMITED TO THE WARRANTIES OF MERCHANTABILITY,
  - FITNESS FOR A PARTICULAR PURPOSE AND NONINFRINGEMENT. IN NO EVENT SHALL THE
  - AUTHORS OR COPYRIGHT HOLDERS BE LIABLE FOR ANY CLAIM, DAMAGES OR OTHER
  - LIABILITY, WHETHER IN AN ACTION OF CONTRACT, TORT OR OTHERWISE, ARISING FROM,
  - OUT OF OR IN CONNECTION WITH THE SOFTWARE OR THE USE OR OTHER DEALINGS IN THE
  - SOFTWARE.
  -->

<svg xmlns="http://www.w3.org/2000/svg" height="16px" viewBox="40 -920 880 880" width="16px" data-big="true" fill="#FFCB6C">
  <path
    d="M280-360q17 0 28.5-11.5T320-400v-160q0-17-11.5-28.5T280-600q-17 0-28.5 11.5T240-560v160q0 17 11.5 28.5T280-360Zm200 0q17 0 28.5-11.5T520-400v-160q0-17-11.5-28.5T480-600q-17 0-28.5 11.5T440-560v160q0 17 11.5 28.5T480-360Zm200 0q17 0 28.5-11.5T720-400v-160q0-17-11.5-28.5T680-600q-17 0-28.5 11.5T640-560v160q0 17 11.5 28.5T680-360Zm-520 80h640v-400H160v400Zm0 0v-400 400Zm0 80q-33 0-56.5-23.5T80-280v-400q0-33 23.5-56.5T160-760h40v-40q0-17 11.5-28.5T240-840q17 0 28.5 11.5T280-800v40h160v-40q0-17 11.5-28.5T480-840q17 0 28.5 11.5T520-800v40h160v-40q0-17 11.5-28.5T720-840q17 0 28.5 11.5T760-800v40h40q33 0 56.5 23.5T880-680v400q0 33-23.5 56.5T800-200h-40v40q0 17-11.5 28.5T720-120q-17 0-28.5-11.5T680-160v-40H520v40q0 17-11.5 28.5T480-120q-17 0-28.5-11.5T440-160v-40H280v40q0 17-11.5 28.5T240-120q-17 0-28.5-11.5T200-160v-40h-40Z"/>
</svg>
