<!--
  - The MIT License (MIT)
  -
  - Copyright (c) 2015-2024 Elior "Mallowigi" Boukhobza
  -
  - Permission is hereby granted, free of charge, to any person obtaining a copy
  - of this software and associated documentation files (the "Software"), to deal
  - in the Software without restriction, including without limitation the rights
  - to use, copy, modify, merge, publish, distribute, sublicense, and/or sell
  - copies of the Software, and to permit persons to whom the Software is
  - furnished to do so, subject to the following conditions:
  -
  - The above copyright notice and this permission notice shall be included in all
  - copies or substantial portions of the Software.
  -
  - THE SOFTWARE IS PROVIDED "AS IS", WITHOUT WARRANTY OF ANY KIND, EXPRESS OR
  - IMPLIED, INCLUDING BUT NOT LIMITED TO THE WARRANTIES OF MERCHANTABILITY,
  - FITNESS FOR A PARTICULAR PURPOSE AND NONINFRINGEMENT. IN NO EVENT SHALL THE
  - AUTHORS OR COPYRIGHT HOLDERS BE LIABLE FOR ANY CLAIM, DAMAGES OR OTHER
  - LIABILITY, WHETHER IN AN ACTION OF CONTRACT, TORT OR OTHERWISE, ARISING FROM,
  - OUT OF OR IN CONNECTION WITH THE SOFTWARE OR THE USE OR OTHER DEALINGS IN THE
  - SOFTWARE.
  -->

<svg xmlns="http://www.w3.org/2000/svg" height="16px" viewBox="40 -920 880 880" width="16px" fill="#FF5370">
  <path
      d="M200-200q-33 0-56.5-23.5T120-280v-360q-17 0-28.5-11.5T80-680q0-17 11.5-28.5T120-720h120v-20q0-17 11.5-28.5T280-780h80q17 0 28.5 11.5T400-740v20h120q17 0 28.5 11.5T560-680q0 17-11.5 28.5T520-640v360q0 33-23.5 56.5T440-200H200Zm440-40q-17 0-28.5-11.5T600-280q0-17 11.5-28.5T640-320h80q17 0 28.5 11.5T760-280q0 17-11.5 28.5T720-240h-80Zm0-160q-17 0-28.5-11.5T600-440q0-17 11.5-28.5T640-480h160q17 0 28.5 11.5T840-440q0 17-11.5 28.5T800-400H640Zm0-160q-17 0-28.5-11.5T600-600q0-17 11.5-28.5T640-640h200q17 0 28.5 11.5T880-600q0 17-11.5 28.5T840-560H640Zm-440-80v360h240v-360H200Z"/>
</svg>
