<!--
  - The MIT License (MIT)
  -
  - Copyright (c) 2015-2024 Elior "Mallowigi" Boukhobza
  -
  - Permission is hereby granted, free of charge, to any person obtaining a copy
  - of this software and associated documentation files (the "Software"), to deal
  - in the Software without restriction, including without limitation the rights
  - to use, copy, modify, merge, publish, distribute, sublicense, and/or sell
  - copies of the Software, and to permit persons to whom the Software is
  - furnished to do so, subject to the following conditions:
  -
  - The above copyright notice and this permission notice shall be included in all
  - copies or substantial portions of the Software.
  -
  - THE SOFTWARE IS PROVIDED "AS IS", WITHOUT WARRANTY OF ANY KIND, EXPRESS OR
  - IMPLIED, INCLUDING BUT NOT LIMITED TO THE WARRANTIES OF MERCHANTABILITY,
  - FITNESS FOR A PARTICULAR PURPOSE AND NONINFRINGEMENT. IN NO EVENT SHALL THE
  - AUTHORS OR COPYRIGHT HOLDERS BE LIABLE FOR ANY CLAIM, DAMAGES OR OTHER
  - LIABILITY, WHETHER IN AN ACTION OF CONTRACT, TORT OR OTHERWISE, ARISING FROM,
  - OUT OF OR IN CONNECTION WITH THE SOFTWARE OR THE USE OR OTHER DEALINGS IN THE
  - SOFTWARE.
  -->

<svg xmlns="http://www.w3.org/2000/svg" height="16px" viewBox="40 -920 880 880" width="16px" fill="#FFD54F">
  <path
      d="M440-520h80v-280q0-17-11.5-28.5T480-840q-17 0-28.5 11.5T440-800v280ZM200-360h560v-80H200v80Zm-58 240h98v-80q0-17 11.5-28.5T280-240q17 0 28.5 11.5T320-200v80h120v-80q0-17 11.5-28.5T480-240q17 0 28.5 11.5T520-200v80h120v-80q0-17 11.5-28.5T680-240q17 0 28.5 11.5T720-200v80h98l-40-160H182l-40 160Zm676 80H142q-39 0-63-31t-14-69l55-220v-80q0-33 23.5-56.5T200-520h160v-280q0-50 35-85t85-35q50 0 85 35t35 85v280h160q33 0 56.5 23.5T840-440v80l55 220q13 38-11.5 69T818-40Zm-58-400H200h560Zm-240-80h-80 80Z"/>
</svg>
