<!--
  - The MIT License (MIT)
  -
  - Copyright (c) 2015-2024 Elior "Mallowigi" Boukhobza
  -
  - Permission is hereby granted, free of charge, to any person obtaining a copy
  - of this software and associated documentation files (the "Software"), to deal
  - in the Software without restriction, including without limitation the rights
  - to use, copy, modify, merge, publish, distribute, sublicense, and/or sell
  - copies of the Software, and to permit persons to whom the Software is
  - furnished to do so, subject to the following conditions:
  -
  - The above copyright notice and this permission notice shall be included in all
  - copies or substantial portions of the Software.
  -
  - THE SOFTWARE IS PROVIDED "AS IS", WITHOUT WARRANTY OF ANY KIND, EXPRESS OR
  - IMPLIED, INCLUDING BUT NOT LIMITED TO THE WARRANTIES OF MERCHANTABILITY,
  - FITNESS FOR A PARTICULAR PURPOSE AND NONINFRINGEMENT. IN NO EVENT SHALL THE
  - AUTHORS OR COPYRIGHT HOLDERS BE LIABLE FOR ANY CLAIM, DAMAGES OR OTHER
  - LIABILITY, WHETHER IN AN ACTION OF CONTRACT, TORT OR OTHERWISE, ARISING FROM,
  - OUT OF OR IN CONNECTION WITH THE SOFTWARE OR THE USE OR OTHER DEALINGS IN THE
  - SOFTWARE.
  -->

<svg xmlns="http://www.w3.org/2000/svg" height="16px" viewBox="40 -920 880 880" width="16px" fill="#FF7043">
  <path
      d="M160-280q-17 0-28.5-11.5T120-320q0-17 11.5-28.5T160-360h480q17 0 28.5 11.5T680-320q0 17-11.5 28.5T640-280H160Zm80-160q-17 0-28.5-11.5T200-480q0-17 11.5-28.5T240-520h480q17 0 28.5 11.5T760-480q0 17-11.5 28.5T720-440H240Zm80-160q-17 0-28.5-11.5T280-640q0-17 11.5-28.5T320-680h480q17 0 28.5 11.5T840-640q0 17-11.5 28.5T800-600H320Z"/>
</svg>
