<!--
  - The MIT License (MIT)
  -
  - Copyright (c) 2015-2024 Elior "Mallowigi" Boukhobza
  -
  - Permission is hereby granted, free of charge, to any person obtaining a copy
  - of this software and associated documentation files (the "Software"), to deal
  - in the Software without restriction, including without limitation the rights
  - to use, copy, modify, merge, publish, distribute, sublicense, and/or sell
  - copies of the Software, and to permit persons to whom the Software is
  - furnished to do so, subject to the following conditions:
  -
  - The above copyright notice and this permission notice shall be included in all
  - copies or substantial portions of the Software.
  -
  - THE SOFTWARE IS PROVIDED "AS IS", WITHOUT WARRANTY OF ANY KIND, EXPRESS OR
  - IMPLIED, INCLUDING BUT NOT LIMITED TO THE WARRANTIES OF MERCHANTABILITY,
  - FITNESS FOR A PARTICULAR PURPOSE AND NONINFRINGEMENT. IN NO EVENT SHALL THE
  - AUTHORS OR COPYRIGHT HOLDERS BE LIABLE FOR ANY CLAIM, DAMAGES OR OTHER
  - LIABILITY, WHETHER IN AN ACTION OF CONTRACT, TORT OR OTHERWISE, ARISING FROM,
  - OUT OF OR IN CONNECTION WITH THE SOFTWARE OR THE USE OR OTHER DEALINGS IN THE
  - SOFTWARE.
  -->

<svg xmlns="http://www.w3.org/2000/svg" height="16px" viewBox="40 -920 880 880" width="16px" data-big="true" fill="#607D8B">
  <path
    d="m280-224-96 96q-11 11-28 11t-28-11q-11-11-11-28t11-28l96-96h-64q-17 0-28.5-11.5T120-320q0-17 11.5-28.5T160-360h160q17 0 28.5 11.5T360-320v160q0 17-11.5 28.5T320-120q-17 0-28.5-11.5T280-160v-64Zm400 0v64q0 17-11.5 28.5T640-120q-17 0-28.5-11.5T600-160v-160q0-17 11.5-28.5T640-360h160q17 0 28.5 11.5T840-320q0 17-11.5 28.5T800-280h-64l96 96q11 11 11 28t-11 28q-11 11-28 11t-28-11l-96-96ZM224-680l-96-96q-11-11-11-28t11-28q11-11 28-11t28 11l96 96v-64q0-17 11.5-28.5T320-840q17 0 28.5 11.5T360-800v160q0 17-11.5 28.5T320-600H160q-17 0-28.5-11.5T120-640q0-17 11.5-28.5T160-680h64Zm512 0h64q17 0 28.5 11.5T840-640q0 17-11.5 28.5T800-600H640q-17 0-28.5-11.5T600-640v-160q0-17 11.5-28.5T640-840q17 0 28.5 11.5T680-800v64l96-96q11-11 28-11t28 11q11 11 11 28t-11 28l-96 96Z"/>
</svg>
