<!--
  - The MIT License (MIT)
  -
  - Copyright (c) 2015-2024 Elior "Mallowigi" Boukhobza
  -
  - Permission is hereby granted, free of charge, to any person obtaining a copy
  - of this software and associated documentation files (the "Software"), to deal
  - in the Software without restriction, including without limitation the rights
  - to use, copy, modify, merge, publish, distribute, sublicense, and/or sell
  - copies of the Software, and to permit persons to whom the Software is
  - furnished to do so, subject to the following conditions:
  -
  - The above copyright notice and this permission notice shall be included in all
  - copies or substantial portions of the Software.
  -
  - THE SOFTWARE IS PROVIDED "AS IS", WITHOUT WARRANTY OF ANY KIND, EXPRESS OR
  - IMPLIED, INCLUDING BUT NOT LIMITED TO THE WARRANTIES OF MERCHANTABILITY,
  - FITNESS FOR A PARTICULAR PURPOSE AND NONINFRINGEMENT. IN NO EVENT SHALL THE
  - AUTHORS OR COPYRIGHT HOLDERS BE LIABLE FOR ANY CLAIM, DAMAGES OR OTHER
  - LIABILITY, WHETHER IN AN ACTION OF CONTRACT, TORT OR OTHERWISE, ARISING FROM,
  - OUT OF OR IN CONNECTION WITH THE SOFTWARE OR THE USE OR OTHER DEALINGS IN THE
  - SOFTWARE.
  -->

<svg xmlns="http://www.w3.org/2000/svg" height="16px" viewBox="40 -920 880 880" width="16px" data-big="true" fill="#4ec4fc">
  <path
    d="M782-100 650-231l-30 91q-5 14-19 13.5T582-141l-91-303q-4-11 5-20t20-5l303 91q14 5 14.5 19T820-340l-91 30 132 132q17 17 17 39t-17 39q-17 17-39.5 17T782-100ZM480-800q-134 0-227 93t-93 227q0 126 83 216t208 102q17 2 29.5 15t11.5 30q-1 17-12.5 28T451-79q-78-5-145.5-39t-118-88.5q-50.5-54.5-79-125T80-480q0-83 31.5-156T197-763q54-54 127-85.5T480-880q157 0 273.5 107T881-509q2 16-9.5 27.5T843-469q-17 1-30.5-11T797-509q-15-120-104.5-205.5T480-800Z"/>
</svg>
