<!--
  - The MIT License (MIT)
  -
  - Copyright (c) 2015-2024 Elior "Mallowigi" Boukhobza
  -
  - Permission is hereby granted, free of charge, to any person obtaining a copy
  - of this software and associated documentation files (the "Software"), to deal
  - in the Software without restriction, including without limitation the rights
  - to use, copy, modify, merge, publish, distribute, sublicense, and/or sell
  - copies of the Software, and to permit persons to whom the Software is
  - furnished to do so, subject to the following conditions:
  -
  - The above copyright notice and this permission notice shall be included in all
  - copies or substantial portions of the Software.
  -
  - THE SOFTWARE IS PROVIDED "AS IS", WITHOUT WARRANTY OF ANY KIND, EXPRESS OR
  - IMPLIED, INCLUDING BUT NOT LIMITED TO THE WARRANTIES OF MERCHANTABILITY,
  - FITNESS FOR A PARTICULAR PURPOSE AND NONINFRINGEMENT. IN NO EVENT SHALL THE
  - AUTHORS OR COPYRIGHT HOLDERS BE LIABLE FOR ANY CLAIM, DAMAGES OR OTHER
  - LIABILITY, WHETHER IN AN ACTION OF CONTRACT, TORT OR OTHERWISE, ARISING FROM,
  - OUT OF OR IN CONNECTION WITH THE SOFTWARE OR THE USE OR OTHER DEALINGS IN THE
  - SOFTWARE.
  -->
<svg xmlns="http://www.w3.org/2000/svg" height="24px" viewBox="0 -960 960 960" width="24px" fill="#66BB6A">
  <path
    d="M120-480q0-150 105-255t255-105v-40q0-12 11-18t21 2l125 94q16 12 16 32t-16 32l-125 94q-10 8-21 2t-11-18v-40q-91 0-155.5 64.5T260-480q0 33 9.5 63.5T296-360q11 16 9 34.5T288-296l-34 25q-18 14-40 11t-35-22q-29-43-44-93t-15-105Zm360 360v40q0 12-11 18t-21-2l-125-94q-16-12-16-32t16-32l125-94q10-8 21-2t11 18v40q91 0 155.5-64.5T700-480q0-33-9.5-63.5T664-600q-11-16-9-34.5t17-29.5l34-25q18-14 40-10.5t35 21.5q28 43 43.5 93T840-480q0 150-105 255T480-120Z"/>
</svg>
