<!--
  - The MIT License (MIT)
  -
  - Copyright (c) 2015-2024 Elior "Mallowigi" Boukhobza
  -
  - Permission is hereby granted, free of charge, to any person obtaining a copy
  - of this software and associated documentation files (the "Software"), to deal
  - in the Software without restriction, including without limitation the rights
  - to use, copy, modify, merge, publish, distribute, sublicense, and/or sell
  - copies of the Software, and to permit persons to whom the Software is
  - furnished to do so, subject to the following conditions:
  -
  - The above copyright notice and this permission notice shall be included in all
  - copies or substantial portions of the Software.
  -
  - THE SOFTWARE IS PROVIDED "AS IS", WITHOUT WARRANTY OF ANY KIND, EXPRESS OR
  - IMPLIED, INCLUDING BUT NOT LIMITED TO THE WARRANTIES OF MERCHANTABILITY,
  - FITNESS FOR A PARTICULAR PURPOSE AND NONINFRINGEMENT. IN NO EVENT SHALL THE
  - AUTHORS OR COPYRIGHT HOLDERS BE LIABLE FOR ANY CLAIM, DAMAGES OR OTHER
  - LIABILITY, WHETHER IN AN ACTION OF CONTRACT, TORT OR OTHERWISE, ARISING FROM,
  - OUT OF OR IN CONNECTION WITH THE SOFTWARE OR THE USE OR OTHER DEALINGS IN THE
  - SOFTWARE.
  -->

<svg xmlns="http://www.w3.org/2000/svg" height="16px" viewBox="0 -960 960 960" width="16px" data-big="true" fill="#FFD54F">
  <path
    d="m136-304-92-90q-12-12-12-28t12-28q88-95 203-142.5T480-640q118 0 232.5 47.5T916-450q12 12 12 28t-12 28l-92 90q-11 11-25.5 12t-26.5-8l-116-88q-8-6-12-14t-4-18v-114q-38-12-78-19t-82-7q-42 0-82 7t-78 19v114q0 10-4 18t-12 14l-116 88q-12 9-26.5 8T136-304Zm104-198q-29 15-56 34.5T128-424l40 40 72-56v-62Zm480 2v60l72 56 40-38q-29-26-56-45t-56-33Zm-480-2Zm480 2Z"/>
</svg>
