<!--
  - The MIT License (MIT)
  -
  - Copyright (c) 2015-2024 Elior "Mallowigi" Boukhobza
  -
  - Permission is hereby granted, free of charge, to any person obtaining a copy
  - of this software and associated documentation files (the "Software"), to deal
  - in the Software without restriction, including without limitation the rights
  - to use, copy, modify, merge, publish, distribute, sublicense, and/or sell
  - copies of the Software, and to permit persons to whom the Software is
  - furnished to do so, subject to the following conditions:
  -
  - The above copyright notice and this permission notice shall be included in all
  - copies or substantial portions of the Software.
  -
  - THE SOFTWARE IS PROVIDED "AS IS", WITHOUT WARRANTY OF ANY KIND, EXPRESS OR
  - IMPLIED, INCLUDING BUT NOT LIMITED TO THE WARRANTIES OF MERCHANTABILITY,
  - FITNESS FOR A PARTICULAR PURPOSE AND NONINFRINGEMENT. IN NO EVENT SHALL THE
  - AUTHORS OR COPYRIGHT HOLDERS BE LIABLE FOR ANY CLAIM, DAMAGES OR OTHER
  - LIABILITY, WHETHER IN AN ACTION OF CONTRACT, TORT OR OTHERWISE, ARISING FROM,
  - OUT OF OR IN CONNECTION WITH THE SOFTWARE OR THE USE OR OTHER DEALINGS IN THE
  - SOFTWARE.
  -->

<svg xmlns="http://www.w3.org/2000/svg" height="16px" viewBox="40 -920 880 880" width="16px"  fill="#1565C0">
  <path
    d="M280-240q-100 0-170-70T40-480q0-100 70-170t170-70q66 0 121 33t87 87h352q33 0 56.5 23.5T920-520v80q0 33-23.5 56.5T840-360v40q0 33-23.5 56.5T760-240h-80q-33 0-56.5-23.5T600-320v-40H488q-32 54-87 87t-121 33Zm0-80q66 0 106-40.5t48-79.5h246v120h80v-120h80v-80H434q-8-39-48-79.5T280-640q-66 0-113 47t-47 113q0 66 47 113t113 47Zm0-80q33 0 56.5-23.5T360-480q0-33-23.5-56.5T280-560q-33 0-56.5 23.5T200-480q0 33 23.5 56.5T280-400Zm0-80Z"/>
  <path fill="#9CCC65" transform="translate(240 240)"
        d="m400-416 236-236q11-11 28-11t28 11q11 11 11 28t-11 28L428-332q-12 12-28 12t-28-12L268-436q-11-11-11-28t11-28q11-11 28-11t28 11l76 76Z"/>
</svg>
