<!--
  - The MIT License (MIT)
  -
  - Copyright (c) 2015-2024 Elior "Mallowigi" Boukhobza
  -
  - Permission is hereby granted, free of charge, to any person obtaining a copy
  - of this software and associated documentation files (the "Software"), to deal
  - in the Software without restriction, including without limitation the rights
  - to use, copy, modify, merge, publish, distribute, sublicense, and/or sell
  - copies of the Software, and to permit persons to whom the Software is
  - furnished to do so, subject to the following conditions:
  -
  - The above copyright notice and this permission notice shall be included in all
  - copies or substantial portions of the Software.
  -
  - THE SOFTWARE IS PROVIDED "AS IS", WITHOUT WARRANTY OF ANY KIND, EXPRESS OR
  - IMPLIED, INCLUDING BUT NOT LIMITED TO THE WARRANTIES OF MERCHANTABILITY,
  - FITNESS FOR A PARTICULAR PURPOSE AND NONINFRINGEMENT. IN NO EVENT SHALL THE
  - AUTHORS OR COPYRIGHT HOLDERS BE LIABLE FOR ANY CLAIM, DAMAGES OR OTHER
  - LIABILITY, WHETHER IN AN ACTION OF CONTRACT, TORT OR OTHERWISE, ARISING FROM,
  - OUT OF OR IN CONNECTION WITH THE SOFTWARE OR THE USE OR OTHER DEALINGS IN THE
  - SOFTWARE.
  -->

<svg xmlns="http://www.w3.org/2000/svg" height="16px" viewBox="40 -920 880 880" width="16px" data-big="true" fill="#F5776C">
  <path
    d="M492-576.23v36.11q0 15.35 10.35 25.74Q512.7-504 528-504q15.3 0 25.65-10.38Q564-524.77 564-540.12v-36.11h36q15.3 0 25.65-10.39Q636-597 636-612.21q0-15.21-10.35-25.5T600-648h-36v-35.79q0-15.21-10.29-25.71t-25.5-10.5q-15.21 0-25.59 10.35-10.39 10.35-10.39 25.65v36h-36.11q-15.35 0-25.74 10.35Q420-627.3 420-612q0 15 10.35 25.38 10.35 10.39 25.65 10.39h36ZM455.94-360h143.78q15.28 0 25.78-10.29 10.5-10.29 10.5-25.5t-10.33-25.71Q615.33-432 600.06-432H456.28q-15.28 0-25.78 10.29-10.5 10.29-10.5 25.5t10.33 25.71q10.34 10.5 25.61 10.5ZM312-192q-29 0-50.5-21.5T240-264v-576q0-29 21.5-50.5T312-912h282q14.22 0 27.11 5Q634-902 645-891l150 150q11 11 16 23.89t5 27.11v426q0 29-21.5 50.5T744-192H312Zm0-72h432v-426L594-840H312v576ZM168-48q-29 0-50.5-21.5T96-120v-516q0-15.3 10.29-25.65Q116.58-672 131.79-672t25.71 10.35Q168-651.3 168-636v516h396q15.3 0 25.65 10.29Q600-99.42 600-84.21T589.65-58.5Q579.3-48 564-48H168Zm144-216v-576 576Z"/>
</svg>
