<!--
  - The MIT License (MIT)
  -
  - Copyright (c) 2015-2024 Elior "Mallowigi" Boukhobza
  -
  - Permission is hereby granted, free of charge, to any person obtaining a copy
  - of this software and associated documentation files (the "Software"), to deal
  - in the Software without restriction, including without limitation the rights
  - to use, copy, modify, merge, publish, distribute, sublicense, and/or sell
  - copies of the Software, and to permit persons to whom the Software is
  - furnished to do so, subject to the following conditions:
  -
  - The above copyright notice and this permission notice shall be included in all
  - copies or substantial portions of the Software.
  -
  - THE SOFTWARE IS PROVIDED "AS IS", WITHOUT WARRANTY OF ANY KIND, EXPRESS OR
  - IMPLIED, INCLUDING BUT NOT LIMITED TO THE WARRANTIES OF MERCHANTABILITY,
  - FITNESS FOR A PARTICULAR PURPOSE AND NONINFRINGEMENT. IN NO EVENT SHALL THE
  - AUTHORS OR COPYRIGHT HOLDERS BE LIABLE FOR ANY CLAIM, DAMAGES OR OTHER
  - LIABILITY, WHETHER IN AN ACTION OF CONTRACT, TORT OR OTHERWISE, ARISING FROM,
  - OUT OF OR IN CONNECTION WITH THE SOFTWARE OR THE USE OR OTHER DEALINGS IN THE
  - SOFTWARE.
  -->

<svg data-big="true" xmlns="http://www.w3.org/2000/svg" height="16px" viewBox="40 -920 880 880" width="16px">
  <path fill="#FD8A6A"
        d="M480-337q-8 0-15-2.5t-13-8.5L308-492q-12-12-11.5-28t11.5-28q12-12 28.5-12.5T365-549l75 75v-286q0-17 11.5-28.5T480-800q17 0 28.5 11.5T520-760v286l75-75q12-12 28.5-11.5T652-548q11 12 11.5 28T652-492L508-348q-6 6-13 8.5t-15 2.5ZM240-160q-33 0-56.5-23.5T160-240v-80q0-17 11.5-28.5T200-360q17 0 28.5 11.5T240-320v80h480v-80q0-17 11.5-28.5T760-360q17 0 28.5 11.5T800-320v80q0 33-23.5 56.5T720-160H240Z"/>
</svg>
