<!--
  - The MIT License (MIT)
  -
  - Copyright (c) 2015-2024 Elior "Mallowigi" Boukhobza
  -
  - Permission is hereby granted, free of charge, to any person obtaining a copy
  - of this software and associated documentation files (the "Software"), to deal
  - in the Software without restriction, including without limitation the rights
  - to use, copy, modify, merge, publish, distribute, sublicense, and/or sell
  - copies of the Software, and to permit persons to whom the Software is
  - furnished to do so, subject to the following conditions:
  -
  - The above copyright notice and this permission notice shall be included in all
  - copies or substantial portions of the Software.
  -
  - THE SOFTWARE IS PROVIDED "AS IS", WITHOUT WARRANTY OF ANY KIND, EXPRESS OR
  - IMPLIED, INCLUDING BUT NOT LIMITED TO THE WARRANTIES OF MERCHANTABILITY,
  - FITNESS FOR A PARTICULAR PURPOSE AND NONINFRINGEMENT. IN NO EVENT SHALL THE
  - AUTHORS OR COPYRIGHT HOLDERS BE LIABLE FOR ANY CLAIM, DAMAGES OR OTHER
  - LIABILITY, WHETHER IN AN ACTION OF CONTRACT, TORT OR OTHERWISE, ARISING FROM,
  - OUT OF OR IN CONNECTION WITH THE SOFTWARE OR THE USE OR OTHER DEALINGS IN THE
  - SOFTWARE.
  -->

<svg xmlns="http://www.w3.org/2000/svg" height="16px" viewBox="40 -920 880 880" width="16px"  fill="#FFB74D">
  <path
    d="M360-160q-33 0-56.5-23.5T280-240q0-33 23.5-56.5T360-320q33 0 56.5 23.5T440-240q0 33-23.5 56.5T360-160Zm240 0q-33 0-56.5-23.5T520-240q0-33 23.5-56.5T600-320q33 0 56.5 23.5T680-240q0 33-23.5 56.5T600-160ZM360-400q-33 0-56.5-23.5T280-480q0-33 23.5-56.5T360-560q33 0 56.5 23.5T440-480q0 33-23.5 56.5T360-400Zm240 0q-33 0-56.5-23.5T520-480q0-33 23.5-56.5T600-560q33 0 56.5 23.5T680-480q0 33-23.5 56.5T600-400ZM360-640q-33 0-56.5-23.5T280-720q0-33 23.5-56.5T360-800q33 0 56.5 23.5T440-720q0 33-23.5 56.5T360-640Zm240 0q-33 0-56.5-23.5T520-720q0-33 23.5-56.5T600-800q33 0 56.5 23.5T680-720q0 33-23.5 56.5T600-640Z"/>
</svg>
