<!--
  - The MIT License (MIT)
  -
  - Copyright (c) 2015-2024 Elior "Mallowigi" Boukhobza
  -
  - Permission is hereby granted, free of charge, to any person obtaining a copy
  - of this software and associated documentation files (the "Software"), to deal
  - in the Software without restriction, including without limitation the rights
  - to use, copy, modify, merge, publish, distribute, sublicense, and/or sell
  - copies of the Software, and to permit persons to whom the Software is
  - furnished to do so, subject to the following conditions:
  -
  - The above copyright notice and this permission notice shall be included in all
  - copies or substantial portions of the Software.
  -
  - THE SOFTWARE IS PROVIDED "AS IS", WITHOUT WARRANTY OF ANY KIND, EXPRESS OR
  - IMPLIED, INCLUDING BUT NOT LIMITED TO THE WARRANTIES OF MERCHANTABILITY,
  - FITNESS FOR A PARTICULAR PURPOSE AND NONINFRINGEMENT. IN NO EVENT SHALL THE
  - AUTHORS OR COPYRIGHT HOLDERS BE LIABLE FOR ANY CLAIM, DAMAGES OR OTHER
  - LIABILITY, WHETHER IN AN ACTION OF CONTRACT, TORT OR OTHERWISE, ARISING FROM,
  - OUT OF OR IN CONNECTION WITH THE SOFTWARE OR THE USE OR OTHER DEALINGS IN THE
  - SOFTWARE.
  -->

<svg xmlns="http://www.w3.org/2000/svg" height="14px" viewBox="0 -960 960 960" width="14px" fill="#E79627">
  <path
    d="M360-240h240q17 0 28.5-11.5T640-280q0-17-11.5-28.5T600-320H360q-17 0-28.5 11.5T320-280q0 17 11.5 28.5T360-240Zm0-160h240q17 0 28.5-11.5T640-440q0-17-11.5-28.5T600-480H360q-17 0-28.5 11.5T320-440q0 17 11.5 28.5T360-400ZM240-80q-33 0-56.5-23.5T160-160v-640q0-33 23.5-56.5T240-880h287q16 0 30.5 6t25.5 17l194 194q11 11 17 25.5t6 30.5v447q0 33-23.5 56.5T720-80H240Zm280-560v-160H240v640h480v-440H560q-17 0-28.5-11.5T520-640ZM240-800v200-200 640-640Z"/>
</svg>
