<!--
  - The MIT License (MIT)
  -
  - Copyright (c) 2015-2024 Elior "Mallowigi" Boukhobza
  -
  - Permission is hereby granted, free of charge, to any person obtaining a copy
  - of this software and associated documentation files (the "Software"), to deal
  - in the Software without restriction, including without limitation the rights
  - to use, copy, modify, merge, publish, distribute, sublicense, and/or sell
  - copies of the Software, and to permit persons to whom the Software is
  - furnished to do so, subject to the following conditions:
  -
  - The above copyright notice and this permission notice shall be included in all
  - copies or substantial portions of the Software.
  -
  - THE SOFTWARE IS PROVIDED "AS IS", WITHOUT WARRANTY OF ANY KIND, EXPRESS OR
  - IMPLIED, INCLUDING BUT NOT LIMITED TO THE WARRANTIES OF MERCHANTABILITY,
  - FITNESS FOR A PARTICULAR PURPOSE AND NONINFRINGEMENT. IN NO EVENT SHALL THE
  - AUTHORS OR COPYRIGHT HOLDERS BE LIABLE FOR ANY CLAIM, DAMAGES OR OTHER
  - LIABILITY, WHETHER IN AN ACTION OF CONTRACT, TORT OR OTHERWISE, ARISING FROM,
  - OUT OF OR IN CONNECTION WITH THE SOFTWARE OR THE USE OR OTHER DEALINGS IN THE
  - SOFTWARE.
  -->

<svg xmlns="http://www.w3.org/2000/svg" width="16px" height="16px" viewBox="0 0 24 24" data-big="true">
  <path fill="#4cc3fc"
        d="M17.5 4C15.57 4 14 5.57 14 7.5c0 1.554 1.025 2.859 2.43 3.315-.146.932-.547 1.7-1.23 2.323-1.946 1.773-5.527 1.935-7.2 1.907V8.837c1.44-.434 2.5-1.757 2.5-3.337C10.5 3.57 8.93 2 7 2S3.5 3.57 3.5 5.5c0 1.58 1.06 2.903 2.5 3.337v6.326c-1.44.434-2.5 1.757-2.5 3.337C3.5 20.43 5.07 22 7 22s3.5-1.57 3.5-3.5c0-.551-.14-1.065-.367-1.529 2.06-.186 4.657-.757 6.409-2.35 1.097-.997 1.731-2.264 1.904-3.768C19.915 10.438 21 9.1 21 7.5 21 5.57 19.43 4 17.5 4zm-12 1.5C5.5 4.673 6.173 4 7 4s1.5.673 1.5 1.5S7.827 7 7 7s-1.5-.673-1.5-1.5zM7 20c-.827 0-1.5-.673-1.5-1.5a1.5 1.5 0 0 1 1.482-1.498l.13.01A1.495 1.495 0 0 1 7 20zM17.5 9c-.827 0-1.5-.673-1.5-1.5S16.673 6 17.5 6s1.5.673 1.5 1.5S18.327 9 17.5 9z"></path>
</svg>
