<!--
  - The MIT License (MIT)
  -
  - Copyright (c) 2015-2024 Elior "Mallowigi" Boukhobza
  -
  - Permission is hereby granted, free of charge, to any person obtaining a copy
  - of this software and associated documentation files (the "Software"), to deal
  - in the Software without restriction, including without limitation the rights
  - to use, copy, modify, merge, publish, distribute, sublicense, and/or sell
  - copies of the Software, and to permit persons to whom the Software is
  - furnished to do so, subject to the following conditions:
  -
  - The above copyright notice and this permission notice shall be included in all
  - copies or substantial portions of the Software.
  -
  - THE SOFTWARE IS PROVIDED "AS IS", WITHOUT WARRANTY OF ANY KIND, EXPRESS OR
  - IMPLIED, INCLUDING BUT NOT LIMITED TO THE WARRANTIES OF MERCHANTABILITY,
  - FITNESS FOR A PARTICULAR PURPOSE AND NONINFRINGEMENT. IN NO EVENT SHALL THE
  - AUTHORS OR COPYRIGHT HOLDERS BE LIABLE FOR ANY CLAIM, DAMAGES OR OTHER
  - LIABILITY, WHETHER IN AN ACTION OF CONTRACT, TORT OR OTHERWISE, ARISING FROM,
  - OUT OF OR IN CONNECTION WITH THE SOFTWARE OR THE USE OR OTHER DEALINGS IN THE
  - SOFTWARE.
  -->

<svg data-big="true" xmlns="http://www.w3.org/2000/svg" height="16px" viewBox="0 -960 960 960" width="16px">
  <path fill="#B388FF"
        d="M200-520q-33 0-56.5-23.5T120-600v-160q0-33 23.5-56.5T200-840h160q33 0 56.5 23.5T440-760v160q0 33-23.5 56.5T360-520H200Zm0 400q-33 0-56.5-23.5T120-200v-160q0-33 23.5-56.5T200-440h160q33 0 56.5 23.5T440-360v160q0 33-23.5 56.5T360-120H200Zm400-400q-33 0-56.5-23.5T520-600v-160q0-33 23.5-56.5T600-840h160q33 0 56.5 23.5T840-760v160q0 33-23.5 56.5T760-520H600Zm0 400q-33 0-56.5-23.5T520-200v-160q0-33 23.5-56.5T600-440h160q33 0 56.5 23.5T840-360v160q0 33-23.5 56.5T760-120H600ZM200-600h160v-160H200v160Zm400 0h160v-160H600v160Zm0 400h160v-160H600v160Zm-400 0h160v-160H200v160Zm400-400Zm0 240Zm-240 0Zm0-240Z"/>
</svg>
