<!--
  - The MIT License (MIT)
  -
  - Copyright (c) 2015-2024 Elior "Mallowigi" Boukhobza
  -
  - Permission is hereby granted, free of charge, to any person obtaining a copy
  - of this software and associated documentation files (the "Software"), to deal
  - in the Software without restriction, including without limitation the rights
  - to use, copy, modify, merge, publish, distribute, sublicense, and/or sell
  - copies of the Software, and to permit persons to whom the Software is
  - furnished to do so, subject to the following conditions:
  -
  - The above copyright notice and this permission notice shall be included in all
  - copies or substantial portions of the Software.
  -
  - THE SOFTWARE IS PROVIDED "AS IS", WITHOUT WARRANTY OF ANY KIND, EXPRESS OR
  - IMPLIED, INCLUDING BUT NOT LIMITED TO THE WARRANTIES OF MERCHANTABILITY,
  - FITNESS FOR A PARTICULAR PURPOSE AND NONINFRINGEMENT. IN NO EVENT SHALL THE
  - AUTHORS OR COPYRIGHT HOLDERS BE LIABLE FOR ANY CLAIM, DAMAGES OR OTHER
  - LIABILITY, WHETHER IN AN ACTION OF CONTRACT, TORT OR OTHERWISE, ARISING FROM,
  - OUT OF OR IN CONNECTION WITH THE SOFTWARE OR THE USE OR OTHER DEALINGS IN THE
  - SOFTWARE.
  -->

<svg xmlns="http://www.w3.org/2000/svg" width="16px" height="16px"  viewBox="0 0 16 16">
  <path stroke="#C74748" fill="none" stroke-width="1.5" stroke-linejoin="round"
        d="M12 3.993c-1.011.741-6.417.7-7-.039.149-.246 2.446-.169 2.333-.468a3.3 3.3 0 0 0-.583-1.559L5.311.327 5.716 0s.755.765 1 .991a3.6 3.6 0 0 1 1.24 2.184.47.47 0 0 0 .544.468c1.685.12 3.324.089 3.5.35M6.245 12.18a.523.523 0 0 1-.428-.58L5 4.305a13 13 0 0 0 7 0l-.7 7.251a.71.71 0 0 1-.622.663 9.4 9.4 0 0 1-4.433-.039m4.394.974a31 31 0 0 0-.156 1.949.47.47 0 0 1-.311.429l-1.4.468h-.765s-.907-.39-1.257-.546a.5.5 0 0 1-.194-.273c-.166-1.4.057-2.292-.428-2.807V12.3a9.65 9.65 0 0 0 4.939-.078 2 2 0 0 0-.428.932"
        class="i-color"/>
</svg>
