<!--
  - The MIT License (MIT)
  -
  - Copyright (c) 2015-2024 Elior "Mallowigi" Boukhobza
  -
  - Permission is hereby granted, free of charge, to any person obtaining a copy
  - of this software and associated documentation files (the "Software"), to deal
  - in the Software without restriction, including without limitation the rights
  - to use, copy, modify, merge, publish, distribute, sublicense, and/or sell
  - copies of the Software, and to permit persons to whom the Software is
  - furnished to do so, subject to the following conditions:
  -
  - The above copyright notice and this permission notice shall be included in all
  - copies or substantial portions of the Software.
  -
  - THE SOFTWARE IS PROVIDED "AS IS", WITHOUT WARRANTY OF ANY KIND, EXPRESS OR
  - IMPLIED, INCLUDING BUT NOT LIMITED TO THE WARRANTIES OF MERCHANTABILITY,
  - FITNESS FOR A PARTICULAR PURPOSE AND NONINFRINGEMENT. IN NO EVENT SHALL THE
  - AUTHORS OR COPYRIGHT HOLDERS BE LIABLE FOR ANY CLAIM, DAMAGES OR OTHER
  - LIABILITY, WHETHER IN AN ACTION OF CONTRACT, TORT OR OTHERWISE, ARISING FROM,
  - OUT OF OR IN CONNECTION WITH THE SOFTWARE OR THE USE OR OTHER DEALINGS IN THE
  - SOFTWARE.
  -->

<svg big="true" xmlns="http://www.w3.org/2000/svg" height="16px" viewBox="0 -960 960 960" width="16px">
  <path fill="#AB7967"
        d="M160-760q-17 0-28.5-11.5T120-800q0-17 11.5-28.5T160-840q17 0 28.5 11.5T200-800q0 17-11.5 28.5T160-760Zm160 0q-17 0-28.5-11.5T280-800q0-17 11.5-28.5T320-840q17 0 28.5 11.5T360-800q0 17-11.5 28.5T320-760Zm160 0q-17 0-28.5-11.5T440-800q0-17 11.5-28.5T480-840q17 0 28.5 11.5T520-800q0 17-11.5 28.5T480-760Zm160 0q-17 0-28.5-11.5T600-800q0-17 11.5-28.5T640-840q17 0 28.5 11.5T680-800q0 17-11.5 28.5T640-760Zm160 0q-17 0-28.5-11.5T760-800q0-17 11.5-28.5T800-840q17 0 28.5 11.5T840-800q0 17-11.5 28.5T800-760ZM160-600q-17 0-28.5-11.5T120-640q0-17 11.5-28.5T160-680q17 0 28.5 11.5T200-640q0 17-11.5 28.5T160-600Zm640 0q-17 0-28.5-11.5T760-640q0-17 11.5-28.5T800-680q17 0 28.5 11.5T840-640q0 17-11.5 28.5T800-600ZM160-440q-17 0-28.5-11.5T120-480q0-17 11.5-28.5T160-520q17 0 28.5 11.5T200-480q0 17-11.5 28.5T160-440Zm640 0q-17 0-28.5-11.5T760-480q0-17 11.5-28.5T800-520q17 0 28.5 11.5T840-480q0 17-11.5 28.5T800-440ZM160-280q-17 0-28.5-11.5T120-320q0-17 11.5-28.5T160-360q17 0 28.5 11.5T200-320q0 17-11.5 28.5T160-280Zm640 0q-17 0-28.5-11.5T760-320q0-17 11.5-28.5T800-360q17 0 28.5 11.5T840-320q0 17-11.5 28.5T800-280ZM160-120q-17 0-28.5-11.5T120-160q0-17 11.5-28.5T160-200q17 0 28.5 11.5T200-160q0 17-11.5 28.5T160-120Zm160 0q-17 0-28.5-11.5T280-160q0-17 11.5-28.5T320-200q17 0 28.5 11.5T360-160q0 17-11.5 28.5T320-120Zm160 0q-17 0-28.5-11.5T440-160q0-17 11.5-28.5T480-200q17 0 28.5 11.5T520-160q0 17-11.5 28.5T480-120Zm160 0q-17 0-28.5-11.5T600-160q0-17 11.5-28.5T640-200q17 0 28.5 11.5T680-160q0 17-11.5 28.5T640-120Zm160 0q-17 0-28.5-11.5T760-160q0-17 11.5-28.5T800-200q17 0 28.5 11.5T840-160q0 17-11.5 28.5T800-120Z"/>
</svg>
