<!--
  - The MIT License (MIT)
  -
  - Copyright (c) 2015-2024 Elior "Mallowigi" Boukhobza
  -
  - Permission is hereby granted, free of charge, to any person obtaining a copy
  - of this software and associated documentation files (the "Software"), to deal
  - in the Software without restriction, including without limitation the rights
  - to use, copy, modify, merge, publish, distribute, sublicense, and/or sell
  - copies of the Software, and to permit persons to whom the Software is
  - furnished to do so, subject to the following conditions:
  -
  - The above copyright notice and this permission notice shall be included in all
  - copies or substantial portions of the Software.
  -
  - THE SOFTWARE IS PROVIDED "AS IS", WITHOUT WARRANTY OF ANY KIND, EXPRESS OR
  - IMPLIED, INCLUDING BUT NOT LIMITED TO THE WARRANTIES OF MERCHANTABILITY,
  - FITNESS FOR A PARTICULAR PURPOSE AND NONINFRINGEMENT. IN NO EVENT SHALL THE
  - AUTHORS OR COPYRIGHT HOLDERS BE LIABLE FOR ANY CLAIM, DAMAGES OR OTHER
  - LIABILITY, WHETHER IN AN ACTION OF CONTRACT, TORT OR OTHERWISE, ARISING FROM,
  - OUT OF OR IN CONNECTION WITH THE SOFTWARE OR THE USE OR OTHER DEALINGS IN THE
  - SOFTWARE.
  -->

<svg  xmlns="http://www.w3.org/2000/svg" height="16px" viewBox="40 -920 880 880" width="16px">
  <path fill="#FFD54F"
        d="M160 0q-33 0-56.5-23.5T80-80q0-33 23.5-56.5T160-160h640q33 0 56.5 23.5T880-80q0 33-23.5 56.5T800 0H160Zm424-480L480-584 320-424l103 104 161-160Zm-47-160 103 103 160-159-104-104-159 160Zm-84-29 216 216-189 190q-24 24-56.5 24T367-263l-5 4q-11 9-24 14t-27 5H189q-14 0-19.5-12t4.5-22l92-91q-24-24-25-57.5t23-57.5l189-189Zm0 0 187-187q24-24 56.5-24t56.5 24l104 103q24 24 24 56.5T857-640L669-453 453-669Z"/>
</svg>
