<!--
  - The MIT License (MIT)
  -
  - Copyright (c) 2015-2025 Elior "Mallowigi" Boukhobza
  -
  - Permission is hereby granted, free of charge, to any person obtaining a copy
  - of this software and associated documentation files (the "Software"), to deal
  - in the Software without restriction, including without limitation the rights
  - to use, copy, modify, merge, publish, distribute, sublicense, and/or sell
  - copies of the Software, and to permit persons to whom the Software is
  - furnished to do so, subject to the following conditions:
  -
  - The above copyright notice and this permission notice shall be included in all
  - copies or substantial portions of the Software.
  -
  - THE SOFTWARE IS PROVIDED "AS IS", WITHOUT WARRANTY OF ANY KIND, EXPRESS OR
  - IMPLIED, INCLUDING BUT NOT LIMITED TO THE WARRANTIES OF MERCHANTABILITY,
  - FITNESS FOR A PARTICULAR PURPOSE AND NONINFRINGEMENT. IN NO EVENT SHALL THE
  - AUTHORS OR COPYRIGHT HOLDERS BE LIABLE FOR ANY CLAIM, DAMAGES OR OTHER
  - LIABILITY, WHETHER IN AN ACTION OF CONTRACT, TORT OR OTHERWISE, ARISING FROM,
  - OUT OF OR IN CONNECTION WITH THE SOFTWARE OR THE USE OR OTHER DEALINGS IN THE
  - SOFTWARE.
  -
  -->

<svg xmlns="http://www.w3.org/2000/svg" height="16px" viewBox="0 -960 960 960" width="16px" fill="#E57373">
  <path
    d="M240-200h120v-200q0-17 11.5-28.5T400-440h160q17 0 28.5 11.5T600-400v200h120v-360L480-740 240-560v360Zm-80 0v-360q0-19 8.5-36t23.5-28l240-180q21-16 48-16t48 16l240 180q15 11 23.5 28t8.5 36v360q0 33-23.5 56.5T720-120H560q-17 0-28.5-11.5T520-160v-200h-80v200q0 17-11.5 28.5T400-120H240q-33 0-56.5-23.5T160-200Zm320-270Z"/>
</svg>
