<!--
  - The MIT License (MIT)
  -
  - Copyright (c) 2015-2024 Elior "Mallowigi" Boukhobza
  -
  - Permission is hereby granted, free of charge, to any person obtaining a copy
  - of this software and associated documentation files (the "Software"), to deal
  - in the Software without restriction, including without limitation the rights
  - to use, copy, modify, merge, publish, distribute, sublicense, and/or sell
  - copies of the Software, and to permit persons to whom the Software is
  - furnished to do so, subject to the following conditions:
  -
  - The above copyright notice and this permission notice shall be included in all
  - copies or substantial portions of the Software.
  -
  - THE SOFTWARE IS PROVIDED "AS IS", WITHOUT WARRANTY OF ANY KIND, EXPRESS OR
  - IMPLIED, INCLUDING BUT NOT LIMITED TO THE WARRANTIES OF MERCHANTABILITY,
  - FITNESS FOR A PARTICULAR PURPOSE AND NONINFRINGEMENT. IN NO EVENT SHALL THE
  - AUTHORS OR COPYRIGHT HOLDERS BE LIABLE FOR ANY CLAIM, DAMAGES OR OTHER
  - LIABILITY, WHETHER IN AN ACTION OF CONTRACT, TORT OR OTHERWISE, ARISING FROM,
  - OUT OF OR IN CONNECTION WITH THE SOFTWARE OR THE USE OR OTHER DEALINGS IN THE
  - SOFTWARE.
  -->

<svg xmlns="http://www.w3.org/2000/svg" height="14px" viewBox="0 -960 960 960" width="14px" fill="#C792EA">
  <defs>
    <mask id="mask1">
      <rect x="0" y="-960" width="960" height="960" fill="white"/>
      <circle cx="720" cy="-240" r="200" fill="black"/>
    </mask>
  </defs>

  <path mask="url(#mask1)"
        d="M221-120q-45 0-73-24t-28-64q0-32 17-51.5t43-19.5q25 0 42.5 17t17.5 41q0 5-.5 9t-1.5 9q5-1 8.5-5.5T252-221l62-339h-74q-17 0-28.5-11.5T200-600q0-17 11.5-28.5T240-640h89l21-114q7-38 37.5-62t72.5-24q44 0 72 26t28 65q0 30-17 49.5T500-680q-25 0-42.5-17T440-739q0-5 .5-9t1.5-9q-6 2-9 6t-5 12l-17 99h149q17 0 28.5 11.5T600-600q0 15-9.5 26T567-561l53 60 53-60q-14-2-23.5-13t-9.5-26q0-17 11.5-28.5T680-640h120q17 0 28.5 11.5T840-600q0 17-11.5 28.5T800-560h-22L673-440l105 120h22q17 0 28.5 11.5T840-280q0 17-11.5 28.5T800-240H680q-17 0-28.5-11.5T640-280q0-15 9.5-26t23.5-13l-53-61-53 61q14 2 23.5 13t9.5 26q0 17-11.5 28.5T560-240H440q-17 0-28.5-11.5T400-280q0-17 11.5-28.5T440-320h22l105-120-105-120h-66l-64 344q-8 45-37 70.5T221-120Z"/>
  <path fill="#64bcf4" transform="scale(0.5) translate(960 0)"
        d="M440-313v-447q0-17 11.5-28.5T480-800q17 0 28.5 11.5T520-760v447l196-196q12-12 28-11.5t28 12.5q11 12 11.5 28T772-452L508-188q-6 6-13 8.5t-15 2.5q-8 0-15-2.5t-13-8.5L188-452q-11-11-11-27.5t11-28.5q12-12 28.5-12t28.5 12l195 195Z"/>

</svg>
