<!--
  - The MIT License (MIT)
  -
  - Copyright (c) 2015-2024 Elior "Mallowigi" Boukhobza
  -
  - Permission is hereby granted, free of charge, to any person obtaining a copy
  - of this software and associated documentation files (the "Software"), to deal
  - in the Software without restriction, including without limitation the rights
  - to use, copy, modify, merge, publish, distribute, sublicense, and/or sell
  - copies of the Software, and to permit persons to whom the Software is
  - furnished to do so, subject to the following conditions:
  -
  - The above copyright notice and this permission notice shall be included in all
  - copies or substantial portions of the Software.
  -
  - THE SOFTWARE IS PROVIDED "AS IS", WITHOUT WARRANTY OF ANY KIND, EXPRESS OR
  - IMPLIED, INCLUDING BUT NOT LIMITED TO THE WARRANTIES OF MERCHANTABILITY,
  - FITNESS FOR A PARTICULAR PURPOSE AND NONINFRINGEMENT. IN NO EVENT SHALL THE
  - AUTHORS OR COPYRIGHT HOLDERS BE LIABLE FOR ANY CLAIM, DAMAGES OR OTHER
  - LIABILITY, WHETHER IN AN ACTION OF CONTRACT, TORT OR OTHERWISE, ARISING FROM,
  - OUT OF OR IN CONNECTION WITH THE SOFTWARE OR THE USE OR OTHER DEALINGS IN THE
  - SOFTWARE.
  -->

<svg data-big="true" xmlns="http://www.w3.org/2000/svg" viewBox="0 -960 960 960" width="12px" height="12px">
  <path fill="#C792EA"
        d="M433-80q-27 0-46.5-18T363-142l-9-66q-13-5-24.5-12T307-235l-62 26q-25 11-50 2t-39-32l-47-82q-14-23-8-49t27-43l53-40q-1-7-1-13.5v-27q0-6.5 1-13.5l-53-40q-21-17-27-43t8-49l47-82q14-23 39-32t50 2l62 26q11-8 23-15t24-12l9-66q4-26 23.5-44t46.5-18h94q27 0 46.5 18t23.5 44l9 66q13 5 24.5 12t22.5 15l62-26q25-11 50-2t39 32l47 82q14 23 8 49t-27 43l-53 40q1 7 1 13.5v27q0 6.5-2 13.5l53 40q21 17 27 43t-8 49l-48 82q-14 23-39 32t-50-2l-60-26q-11 8-23 15t-24 12l-9 66q-4 26-23.5 44T527-80h-94Zm7-80h79l14-106q31-8 57.5-23.5T639-327l99 41 39-68-86-65q5-14 7-29.5t2-31.5q0-16-2-31.5t-7-29.5l86-65-39-68-99 42q-22-23-48.5-38.5T533-694l-13-106h-79l-14 106q-31 8-57.5 23.5T321-633l-99-41-39 68 86 64q-5 15-7 30t-2 32q0 16 2 31t7 30l-86 65 39 68 99-42q22 23 48.5 38.5T427-266l13 106Zm42-180q58 0 99-41t41-99q0-58-41-99t-99-41q-59 0-99.5 41T342-480q0 58 40.5 99t99.5 41Zm-2-140Z"/>
</svg>
