<!--
  - The MIT License (MIT)
  -
  - Copyright (c) 2015-2024 Elior "Mallowigi" Boukhobza
  -
  - Permission is hereby granted, free of charge, to any person obtaining a copy
  - of this software and associated documentation files (the "Software"), to deal
  - in the Software without restriction, including without limitation the rights
  - to use, copy, modify, merge, publish, distribute, sublicense, and/or sell
  - copies of the Software, and to permit persons to whom the Software is
  - furnished to do so, subject to the following conditions:
  -
  - The above copyright notice and this permission notice shall be included in all
  - copies or substantial portions of the Software.
  -
  - THE SOFTWARE IS PROVIDED "AS IS", WITHOUT WARRANTY OF ANY KIND, EXPRESS OR
  - IMPLIED, INCLUDING BUT NOT LIMITED TO THE WARRANTIES OF MERCHANTABILITY,
  - FITNESS FOR A PARTICULAR PURPOSE AND NONINFRINGEMENT. IN NO EVENT SHALL THE
  - AUTHORS OR COPYRIGHT HOLDERS BE LIABLE FOR ANY CLAIM, DAMAGES OR OTHER
  - LIABILITY, WHETHER IN AN ACTION OF CONTRACT, TORT OR OTHERWISE, ARISING FROM,
  - OUT OF OR IN CONNECTION WITH THE SOFTWARE OR THE USE OR OTHER DEALINGS IN THE
  - SOFTWARE.
  -->

<svg xmlns="http://www.w3.org/2000/svg" height="12px" viewBox="40 -920 880 880" width="12px" fill="#90A4AE">
  <path
    d="M280-400q17 0 28.5-11.5T320-440q0-17-11.5-28.5T280-480q-17 0-28.5 11.5T240-440q0 17 11.5 28.5T280-400Zm0-120q17 0 28.5-11.5T320-560q0-17-11.5-28.5T280-600q-17 0-28.5 11.5T240-560q0 17 11.5 28.5T280-520Zm0-120q17 0 28.5-11.5T320-680q0-17-11.5-28.5T280-720q-17 0-28.5 11.5T240-680q0 17 11.5 28.5T280-640Zm160 240h120q17 0 28.5-11.5T600-440q0-17-11.5-28.5T560-480H440q-17 0-28.5 11.5T400-440q0 17 11.5 28.5T440-400Zm0-120h240q17 0 28.5-11.5T720-560q0-17-11.5-28.5T680-600H440q-17 0-28.5 11.5T400-560q0 17 11.5 28.5T440-520Zm0-120h240q17 0 28.5-11.5T720-680q0-17-11.5-28.5T680-720H440q-17 0-28.5 11.5T400-680q0 17 11.5 28.5T440-640ZM240-240l-92 92q-19 19-43.5 8.5T80-177v-623q0-33 23.5-56.5T160-880h640q33 0 56.5 23.5T880-800v480q0 33-23.5 56.5T800-240H240Zm-34-80h594v-480H160v525l46-45Zm-46 0v-480 480Z"/>
</svg>
