<!--
  - The MIT License (MIT)
  -
  - Copyright (c) 2015-2024 Elior "Mallowigi" Boukhobza
  -
  - Permission is hereby granted, free of charge, to any person obtaining a copy
  - of this software and associated documentation files (the "Software"), to deal
  - in the Software without restriction, including without limitation the rights
  - to use, copy, modify, merge, publish, distribute, sublicense, and/or sell
  - copies of the Software, and to permit persons to whom the Software is
  - furnished to do so, subject to the following conditions:
  -
  - The above copyright notice and this permission notice shall be included in all
  - copies or substantial portions of the Software.
  -
  - THE SOFTWARE IS PROVIDED "AS IS", WITHOUT WARRANTY OF ANY KIND, EXPRESS OR
  - IMPLIED, INCLUDING BUT NOT LIMITED TO THE WARRANTIES OF MERCHANTABILITY,
  - FITNESS FOR A PARTICULAR PURPOSE AND NONINFRINGEMENT. IN NO EVENT SHALL THE
  - AUTHORS OR COPYRIGHT HOLDERS BE LIABLE FOR ANY CLAIM, DAMAGES OR OTHER
  - LIABILITY, WHETHER IN AN ACTION OF CONTRACT, TORT OR OTHERWISE, ARISING FROM,
  - OUT OF OR IN CONNECTION WITH THE SOFTWARE OR THE USE OR OTHER DEALINGS IN THE
  - SOFTWARE.
  -->

<svg  xmlns="http://www.w3.org/2000/svg" height="16px" viewBox="40 -920 880 880" width="16px">
  <path fill="#26A69A"
        d="M320-160v-40H160q-33 0-56.5-23.5T80-280v-480q0-33 23.5-56.5T160-840h280q17 0 28.5 11.5T480-800q0 17-11.5 28.5T440-760H160v480h640v-80q0-17 11.5-28.5T840-400q17 0 28.5 11.5T880-360v80q0 33-23.5 56.5T800-200H640v40q0 17-11.5 28.5T600-120H360q-17 0-28.5-11.5T320-160Zm320-393v-247q0-17 11.5-28.5T680-840q17 0 28.5 11.5T720-800v247l76-75q11-11 27.5-11.5T852-628q11 11 11 28t-11 28L708-428q-12 12-28 12t-28-12L508-572q-11-11-11.5-27.5T508-628q11-11 28-11t28 11l76 75Z"/>
</svg>
