<!--
  - The MIT License (MIT)
  -
  - Copyright (c) 2015-2025 Elior "Mallowigi" Boukhobza
  -
  - Permission is hereby granted, free of charge, to any person obtaining a copy
  - of this software and associated documentation files (the "Software"), to deal
  - in the Software without restriction, including without limitation the rights
  - to use, copy, modify, merge, publish, distribute, sublicense, and/or sell
  - copies of the Software, and to permit persons to whom the Software is
  - furnished to do so, subject to the following conditions:
  -
  - The above copyright notice and this permission notice shall be included in all
  - copies or substantial portions of the Software.
  -
  - THE SOFTWARE IS PROVIDED "AS IS", WITHOUT WARRANTY OF ANY KIND, EXPRESS OR
  - IMPLIED, INCLUDING BUT NOT LIMITED TO THE WARRANTIES OF MERCHANTABILITY,
  - FITNESS FOR A PARTICULAR PURPOSE AND NONINFRINGEMENT. IN NO EVENT SHALL THE
  - AUTHORS OR COPYRIGHT HOLDERS BE LIABLE FOR ANY CLAIM, DAMAGES OR OTHER
  - LIABILITY, WHETHER IN AN ACTION OF CONTRACT, TORT OR OTHERWISE, ARISING FROM,
  - OUT OF OR IN CONNECTION WITH THE SOFTWARE OR THE USE OR OTHER DEALINGS IN THE
  - SOFTWARE.
  -
  -->

<svg xmlns="http://www.w3.org/2000/svg" height="16px" viewBox="0 -960 960 960" width="16px" fill="#78909C">
  <path
    d="M200-280q-17 0-28.5-11.5T160-320v-160q0-17 11.5-28.5T200-520q17 0 28.5 11.5T240-480v160q0 17-11.5 28.5T200-280Zm160 0q-33 0-56.5-23.5T280-360v-240q0-33 23.5-56.5T360-680h80q33 0 56.5 23.5T520-600v240q0 33-23.5 56.5T440-280h-80Zm0-80h80v-240h-80v240Zm240 80q-17 0-28.5-11.5T560-320q0-17 11.5-28.5T600-360h120v-80h-80q-33 0-56.5-23.5T560-520v-80q0-33 23.5-56.5T640-680h120q17 0 28.5 11.5T800-640q0 17-11.5 28.5T760-600H640v80h80q33 0 56.5 23.5T800-440v80q0 33-23.5 56.5T720-280H600ZM200-600q-17 0-28.5-11.5T160-640q0-17 11.5-28.5T200-680q17 0 28.5 11.5T240-640q0 17-11.5 28.5T200-600Z"/>
</svg>
