<!--
  - The MIT License (MIT)
  -
  - Copyright (c) 2015-2024 Elior "Mallowigi" Boukhobza
  -
  - Permission is hereby granted, free of charge, to any person obtaining a copy
  - of this software and associated documentation files (the "Software"), to deal
  - in the Software without restriction, including without limitation the rights
  - to use, copy, modify, merge, publish, distribute, sublicense, and/or sell
  - copies of the Software, and to permit persons to whom the Software is
  - furnished to do so, subject to the following conditions:
  -
  - The above copyright notice and this permission notice shall be included in all
  - copies or substantial portions of the Software.
  -
  - THE SOFTWARE IS PROVIDED "AS IS", WITHOUT WARRANTY OF ANY KIND, EXPRESS OR
  - IMPLIED, INCLUDING BUT NOT LIMITED TO THE WARRANTIES OF MERCHANTABILITY,
  - FITNESS FOR A PARTICULAR PURPOSE AND NONINFRINGEMENT. IN NO EVENT SHALL THE
  - AUTHORS OR COPYRIGHT HOLDERS BE LIABLE FOR ANY CLAIM, DAMAGES OR OTHER
  - LIABILITY, WHETHER IN AN ACTION OF CONTRACT, TORT OR OTHERWISE, ARISING FROM,
  - OUT OF OR IN CONNECTION WITH THE SOFTWARE OR THE USE OR OTHER DEALINGS IN THE
  - SOFTWARE.
  -->

<svg big="true" xmlns="http://www.w3.org/2000/svg" height="16px" viewBox="0 -960 960 960" width="16px">
  <path fill="#5C6BC0"
        d="M160-200q-33 0-56.5-23.5T80-280v-400q0-33 23.5-56.5T160-760h640q33 0 56.5 23.5T880-680v400q0 33-23.5 56.5T800-200H160Zm0-80h640v-400H160v400Zm200-40h240q17 0 28.5-11.5T640-360q0-17-11.5-28.5T600-400H360q-17 0-28.5 11.5T320-360q0 17 11.5 28.5T360-320Zm-200 40v-400 400Zm80-280q17 0 28.5-11.5T280-600q0-17-11.5-28.5T240-640q-17 0-28.5 11.5T200-600q0 17 11.5 28.5T240-560Zm120 0q17 0 28.5-11.5T400-600q0-17-11.5-28.5T360-640q-17 0-28.5 11.5T320-600q0 17 11.5 28.5T360-560Zm120 0q17 0 28.5-11.5T520-600q0-17-11.5-28.5T480-640q-17 0-28.5 11.5T440-600q0 17 11.5 28.5T480-560Zm120 0q17 0 28.5-11.5T640-600q0-17-11.5-28.5T600-640q-17 0-28.5 11.5T560-600q0 17 11.5 28.5T600-560Zm120 0q17 0 28.5-11.5T760-600q0-17-11.5-28.5T720-640q-17 0-28.5 11.5T680-600q0 17 11.5 28.5T720-560ZM240-440q17 0 28.5-11.5T280-480q0-17-11.5-28.5T240-520q-17 0-28.5 11.5T200-480q0 17 11.5 28.5T240-440Zm120 0q17 0 28.5-11.5T400-480q0-17-11.5-28.5T360-520q-17 0-28.5 11.5T320-480q0 17 11.5 28.5T360-440Zm120 0q17 0 28.5-11.5T520-480q0-17-11.5-28.5T480-520q-17 0-28.5 11.5T440-480q0 17 11.5 28.5T480-440Zm120 0q17 0 28.5-11.5T640-480q0-17-11.5-28.5T600-520q-17 0-28.5 11.5T560-480q0 17 11.5 28.5T600-440Zm120 0q17 0 28.5-11.5T760-480q0-17-11.5-28.5T720-520q-17 0-28.5 11.5T680-480q0 17 11.5 28.5T720-440Z"/>
</svg>
