<!--
  - The MIT License (MIT)
  -
  - Copyright (c) 2015-2025 Elior "Mallowigi" Boukhobza
  -
  - Permission is hereby granted, free of charge, to any person obtaining a copy
  - of this software and associated documentation files (the "Software"), to deal
  - in the Software without restriction, including without limitation the rights
  - to use, copy, modify, merge, publish, distribute, sublicense, and/or sell
  - copies of the Software, and to permit persons to whom the Software is
  - furnished to do so, subject to the following conditions:
  -
  - The above copyright notice and this permission notice shall be included in all
  - copies or substantial portions of the Software.
  -
  - THE SOFTWARE IS PROVIDED "AS IS", WITHOUT WARRANTY OF ANY KIND, EXPRESS OR
  - IMPLIED, INCLUDING BUT NOT LIMITED TO THE WARRANTIES OF MERCHANTABILITY,
  - FITNESS FOR A PARTICULAR PURPOSE AND NONINFRINGEMENT. IN NO EVENT SHALL THE
  - AUTHORS OR COPYRIGHT HOLDERS BE LIABLE FOR ANY CLAIM, DAMAGES OR OTHER
  - LIABILITY, WHETHER IN AN ACTION OF CONTRACT, TORT OR OTHERWISE, ARISING FROM,
  - OUT OF OR IN CONNECTION WITH THE SOFTWARE OR THE USE OR OTHER DEALINGS IN THE
  - SOFTWARE.
  -
  -->

<svg xmlns="http://www.w3.org/2000/svg" height="16px" viewBox="0 -960 960 960" width="16px" fill="#4FC3F7">
  <path
    d="M840-640q32 0 56 24t24 56v80q0 7-2 15t-4 15L794-168q-9 20-30 34t-44 14H280v-520l240-238q15-15 35.5-17.5T595-888q19 10 28 28t4 37l-45 183h258Zm-480 34v406h360l120-280v-80H480l54-220-174 174ZM160-120q-33 0-56.5-23.5T80-200v-360q0-33 23.5-56.5T160-640h120v80H160v360h120v80H160Zm200-80v-406 406Z"/>
</svg>
