<!--
  - The MIT License (MIT)
  -
  - Copyright (c) 2015-2024 Elior "Mallowigi" Boukhobza
  -
  - Permission is hereby granted, free of charge, to any person obtaining a copy
  - of this software and associated documentation files (the "Software"), to deal
  - in the Software without restriction, including without limitation the rights
  - to use, copy, modify, merge, publish, distribute, sublicense, and/or sell
  - copies of the Software, and to permit persons to whom the Software is
  - furnished to do so, subject to the following conditions:
  -
  - The above copyright notice and this permission notice shall be included in all
  - copies or substantial portions of the Software.
  -
  - THE SOFTWARE IS PROVIDED "AS IS", WITHOUT WARRANTY OF ANY KIND, EXPRESS OR
  - IMPLIED, INCLUDING BUT NOT LIMITED TO THE WARRANTIES OF MERCHANTABILITY,
  - FITNESS FOR A PARTICULAR PURPOSE AND NONINFRINGEMENT. IN NO EVENT SHALL THE
  - AUTHORS OR COPYRIGHT HOLDERS BE LIABLE FOR ANY CLAIM, DAMAGES OR OTHER
  - LIABILITY, WHETHER IN AN ACTION OF CONTRACT, TORT OR OTHERWISE, ARISING FROM,
  - OUT OF OR IN CONNECTION WITH THE SOFTWARE OR THE USE OR OTHER DEALINGS IN THE
  - SOFTWARE.
  -->

<svg xmlns="http://www.w3.org/2000/svg" height="16px" viewBox="40 -920 880 880" width="16px"  fill="#FFD54F">
  <path
    d="M792-670q11 11 11 28t-11 28l-29 29q-12 12-28.5 12T706-585q-12-12-11.5-28.5T707-642l29-29q12-11 28.5-10.5T792-670ZM120-160q-17 0-28.5-11.5T80-200q0-17 11.5-28.5T120-240h720q17 0 28.5 11.5T880-200q0 17-11.5 28.5T840-160H120Zm360-640q17 0 28.5 11.5T520-760v40q0 17-11.5 28.5T480-680q-17 0-28.5-11.5T440-720v-40q0-17 11.5-28.5T480-800ZM170-672q11-11 28-11t28 11l29 29q12 12 12 28.5T255-586q-12 11-29 11t-28-12l-29-29q-11-12-10.5-28.5T170-672Zm127 272h366q-23-54-72-87t-111-33q-62 0-111 33t-72 87Zm-97 80q0-117 81.5-198.5T480-600q117 0 198.5 81.5T760-320H200Zm280-80Z"/>
</svg>
