<!--
  - The MIT License (MIT)
  -
  - Copyright (c) 2015-2024 Elior "Mallowigi" Boukhobza
  -
  - Permission is hereby granted, free of charge, to any person obtaining a copy
  - of this software and associated documentation files (the "Software"), to deal
  - in the Software without restriction, including without limitation the rights
  - to use, copy, modify, merge, publish, distribute, sublicense, and/or sell
  - copies of the Software, and to permit persons to whom the Software is
  - furnished to do so, subject to the following conditions:
  -
  - The above copyright notice and this permission notice shall be included in all
  - copies or substantial portions of the Software.
  -
  - THE SOFTWARE IS PROVIDED "AS IS", WITHOUT WARRANTY OF ANY KIND, EXPRESS OR
  - IMPLIED, INCLUDING BUT NOT LIMITED TO THE WARRANTIES OF MERCHANTABILITY,
  - FITNESS FOR A PARTICULAR PURPOSE AND NONINFRINGEMENT. IN NO EVENT SHALL THE
  - AUTHORS OR COPYRIGHT HOLDERS BE LIABLE FOR ANY CLAIM, DAMAGES OR OTHER
  - LIABILITY, WHETHER IN AN ACTION OF CONTRACT, TORT OR OTHERWISE, ARISING FROM,
  - OUT OF OR IN CONNECTION WITH THE SOFTWARE OR THE USE OR OTHER DEALINGS IN THE
  - SOFTWARE.
  -->

<svg data-big="true" xmlns="http://www.w3.org/2000/svg" enable-background="new 0 0 24 24" height="16px" viewBox="0 0 24 24" width="16px"
     fill="#ff4081">
  <polygon points="20,7 20.94,4.94 23,4 20.94,3.06 20,1 19.06,3.06 17,4 19.06,4.94"/>
  <polygon points="8.5,7 9.44,4.94 11.5,4 9.44,3.06 8.5,1 7.56,3.06 5.5,4 7.56,4.94"/>
  <polygon points="20,12.5 19.06,14.56 17,15.5 19.06,16.44 20,18.5 20.94,16.44 23,15.5 20.94,14.56"/>
  <path
    d="M17.71,9.12l-2.83-2.83C14.68,6.1,14.43,6,14.17,6c-0.26,0-0.51,0.1-0.71,0.29L2.29,17.46c-0.39,0.39-0.39,1.02,0,1.41 l2.83,2.83C5.32,21.9,5.57,22,5.83,22s0.51-0.1,0.71-0.29l11.17-11.17C18.1,10.15,18.1,9.51,17.71,9.12z M14.17,8.42l1.41,1.41 L14.41,11L13,9.59L14.17,8.42z M5.83,19.59l-1.41-1.41L11.59,11L13,12.41L5.83,19.59z"/>
</svg>
