<!--
  - The MIT License (MIT)
  -
  - Copyright (c) 2015-2024 Elior "Mallowigi" Boukhobza
  -
  - Permission is hereby granted, free of charge, to any person obtaining a copy
  - of this software and associated documentation files (the "Software"), to deal
  - in the Software without restriction, including without limitation the rights
  - to use, copy, modify, merge, publish, distribute, sublicense, and/or sell
  - copies of the Software, and to permit persons to whom the Software is
  - furnished to do so, subject to the following conditions:
  -
  - The above copyright notice and this permission notice shall be included in all
  - copies or substantial portions of the Software.
  -
  - THE SOFTWARE IS PROVIDED "AS IS", WITHOUT WARRANTY OF ANY KIND, EXPRESS OR
  - IMPLIED, INCLUDING BUT NOT LIMITED TO THE WARRANTIES OF MERCHANTABILITY,
  - FITNESS FOR A PARTICULAR PURPOSE AND NONINFRINGEMENT. IN NO EVENT SHALL THE
  - AUTHORS OR COPYRIGHT HOLDERS BE LIABLE FOR ANY CLAIM, DAMAGES OR OTHER
  - LIABILITY, WHETHER IN AN ACTION OF CONTRACT, TORT OR OTHERWISE, ARISING FROM,
  - OUT OF OR IN CONNECTION WITH THE SOFTWARE OR THE USE OR OTHER DEALINGS IN THE
  - SOFTWARE.
  -->

<svg xmlns="http://www.w3.org/2000/svg" height="16px" viewBox="40 -920 880 880" width="16px" data-big="true" fill="#BA68C8">
  <path
    d="m578-151-218-65-169 56q-9 3-17 1.5t-15-6.5q-7-5-11-12.5t-4-16.5v-515q0-16 9.5-28.5T177-755l161-54q5-2 11-2.5t11-.5q5 0 11 .5t11 2.5l218 65 169-56q9-3 17-1.5t15 6.5q7 5 11 12.5t4 16.5v515q0 16-9 29t-24 17l-161 54q-5 2-11 2.5t-11 .5q-5 0-11-.5t-11-2.5Zm-14-79v-450l-168-50v450l168 50Zm72-2 108-36v-448l-108 36v448Zm-420-12 108-36v-448l-108 36v448Zm420-436v448-448Zm-312-48v448-448Z"/>
</svg>
