<!--
  - The MIT License (MIT)
  -
  - Copyright (c) 2015-2024 Elior "Mallowigi" Boukhobza
  -
  - Permission is hereby granted, free of charge, to any person obtaining a copy
  - of this software and associated documentation files (the "Software"), to deal
  - in the Software without restriction, including without limitation the rights
  - to use, copy, modify, merge, publish, distribute, sublicense, and/or sell
  - copies of the Software, and to permit persons to whom the Software is
  - furnished to do so, subject to the following conditions:
  -
  - The above copyright notice and this permission notice shall be included in all
  - copies or substantial portions of the Software.
  -
  - THE SOFTWARE IS PROVIDED "AS IS", WITHOUT WARRANTY OF ANY KIND, EXPRESS OR
  - IMPLIED, INCLUDING BUT NOT LIMITED TO THE WARRANTIES OF MERCHANTABILITY,
  - FITNESS FOR A PARTICULAR PURPOSE AND NONINFRINGEMENT. IN NO EVENT SHALL THE
  - AUTHORS OR COPYRIGHT HOLDERS BE LIABLE FOR ANY CLAIM, DAMAGES OR OTHER
  - LIABILITY, WHETHER IN AN ACTION OF CONTRACT, TORT OR OTHERWISE, ARISING FROM,
  - OUT OF OR IN CONNECTION WITH THE SOFTWARE OR THE USE OR OTHER DEALINGS IN THE
  - SOFTWARE.
  -->

<svg data-big="true" xmlns="http://www.w3.org/2000/svg" height="16px" viewBox="0 -960 960 960" width="16px">
  <path fill="#C792EA"
        d="M360-400v-160q0-17 11.5-28.5T400-600h160q17 0 28.5 11.5T600-560v160q0 17-11.5 28.5T560-360H400q-17 0-28.5-11.5T360-400Zm80-40h80v-80h-80v80Zm-80 280v-40h-80q-33 0-56.5-23.5T200-280v-80h-40q-17 0-28.5-11.5T120-400q0-17 11.5-28.5T160-440h40v-80h-40q-17 0-28.5-11.5T120-560q0-17 11.5-28.5T160-600h40v-80q0-33 23.5-56.5T280-760h80v-40q0-17 11.5-28.5T400-840q17 0 28.5 11.5T440-800v40h80v-40q0-17 11.5-28.5T560-840q17 0 28.5 11.5T600-800v40h80q33 0 56.5 23.5T760-680v80h40q17 0 28.5 11.5T840-560q0 17-11.5 28.5T800-520h-40v80h40q17 0 28.5 11.5T840-400q0 17-11.5 28.5T800-360h-40v80q0 33-23.5 56.5T680-200h-80v40q0 17-11.5 28.5T560-120q-17 0-28.5-11.5T520-160v-40h-80v40q0 17-11.5 28.5T400-120q-17 0-28.5-11.5T360-160Zm320-120v-400H280v400h400ZM480-480Z"/>
</svg>
