<!--
  - The MIT License (MIT)
  -
  - Copyright (c) 2015-2024 Elior "Mallowigi" Boukhobza
  -
  - Permission is hereby granted, free of charge, to any person obtaining a copy
  - of this software and associated documentation files (the "Software"), to deal
  - in the Software without restriction, including without limitation the rights
  - to use, copy, modify, merge, publish, distribute, sublicense, and/or sell
  - copies of the Software, and to permit persons to whom the Software is
  - furnished to do so, subject to the following conditions:
  -
  - The above copyright notice and this permission notice shall be included in all
  - copies or substantial portions of the Software.
  -
  - THE SOFTWARE IS PROVIDED "AS IS", WITHOUT WARRANTY OF ANY KIND, EXPRESS OR
  - IMPLIED, INCLUDING BUT NOT LIMITED TO THE WARRANTIES OF MERCHANTABILITY,
  - FITNESS FOR A PARTICULAR PURPOSE AND NONINFRINGEMENT. IN NO EVENT SHALL THE
  - AUTHORS OR COPYRIGHT HOLDERS BE LIABLE FOR ANY CLAIM, DAMAGES OR OTHER
  - LIABILITY, WHETHER IN AN ACTION OF CONTRACT, TORT OR OTHERWISE, ARISING FROM,
  - OUT OF OR IN CONNECTION WITH THE SOFTWARE OR THE USE OR OTHER DEALINGS IN THE
  - SOFTWARE.
  -->

<svg xmlns="http://www.w3.org/2000/svg" height="16px" viewBox="40 -920 880 880" width="16px" data-big="true" fill="#E57373">
  <path
    d="M672-377q-14-8-18-24.5t4-30.5q7-11 11.5-23.5T676-481q4-17 15.5-28t28.5-11q17 0 28 12t9 29q-3 23-10.5 45T727-392q-8 14-24.5 18.5T672-377ZM480-594Zm0-286q50 0 85 35t35 85v190q0 20-12.5 30T560-530q-15 0-27.5-10.5T520-571v-189q0-17-11.5-28.5T480-800q-17 0-28.5 11.5T440-760v30q0 20-12.5 30T400-690q-15 0-27.5-10.5T360-731v-29q0-50 35-85t85-35Zm-40 720v-83q-92-12-157.5-77.5T203-479q-2-17 9-29t28-12q17 0 29 11.5t15 28.5q14 71 69 115.5T480-320q34 0 64.5-10.5T600-360l57 57q-29 23-63.5 39T520-243v83q0 17-11.5 28.5T480-120q-17 0-28.5-11.5T440-160Zm324 76L84-764q-11-11-11-28t11-28q11-11 28-11t28 11l680 680q11 11 11 28t-11 28q-11 11-28 11t-28-11Z"/>
</svg>
