<!--
  - The MIT License (MIT)
  -
  - Copyright (c) 2015-2024 Elior "Mallowigi" Boukhobza
  -
  - Permission is hereby granted, free of charge, to any person obtaining a copy
  - of this software and associated documentation files (the "Software"), to deal
  - in the Software without restriction, including without limitation the rights
  - to use, copy, modify, merge, publish, distribute, sublicense, and/or sell
  - copies of the Software, and to permit persons to whom the Software is
  - furnished to do so, subject to the following conditions:
  -
  - The above copyright notice and this permission notice shall be included in all
  - copies or substantial portions of the Software.
  -
  - THE SOFTWARE IS PROVIDED "AS IS", WITHOUT WARRANTY OF ANY KIND, EXPRESS OR
  - IMPLIED, INCLUDING BUT NOT LIMITED TO THE WARRANTIES OF MERCHANTABILITY,
  - FITNESS FOR A PARTICULAR PURPOSE AND NONINFRINGEMENT. IN NO EVENT SHALL THE
  - AUTHORS OR COPYRIGHT HOLDERS BE LIABLE FOR ANY CLAIM, DAMAGES OR OTHER
  - LIABILITY, WHETHER IN AN ACTION OF CONTRACT, TORT OR OTHERWISE, ARISING FROM,
  - OUT OF OR IN CONNECTION WITH THE SOFTWARE OR THE USE OR OTHER DEALINGS IN THE
  - SOFTWARE.
  -->

<svg xmlns="http://www.w3.org/2000/svg" height="16px" viewBox="40 -920 880 880" width="16px"  fill="#26C6DA">
  <path
    d="M612-192q-15.3 0-25.65-10.29Q576-212.58 576-227.79t10.35-25.71Q596.7-264 612-264h48q15.3 0 25.65-10.35Q696-284.7 696-300v-72q0-41 27.5-70.5T792-477v-4q-41-8-68.5-37T696-588v-72q0-15.3-10.35-25.65Q675.3-696 660-696h-48q-15.3 0-25.65-10.29Q576-716.58 576-731.79t10.35-25.71Q596.7-768 612-768h48q45 0 76.5 31.5T768-660v72q0 17 14.5 26.5t34 9.5q19.5 0 33.5 15t14 35v44q0 20-13.8 35T816-408q-19 0-33.5 9.5T768-372v72q0 45-31.5 76.5T660-192h-48Zm-312 0q-45 0-76.5-31.5T192-300v-72q0-17-14.5-26.5t-34-9.5q-19.5 0-33.5-13.8T96-456v-48q0-20.4 13.8-34.2Q123.6-552 144-552q19 0 33.5-9.5T192-588v-72q0-45 31.5-76.5T300-768h48q15.3 0 25.65 10.29Q384-747.42 384-732.21t-10.35 25.71Q363.3-696 348-696h-48q-15.3 0-25.65 10.35Q264-675.3 264-660v72q0 42-27.5 71.5T168-482v4.15Q210-474 237-444t27 72v72q0 15.3 10.35 25.65Q284.7-264 300-264h48q15.3 0 25.65 10.29Q384-243.42 384-228.21t-10.35 25.71Q363.3-192 348-192h-48Z"/>
</svg>
