<!--
  - The MIT License (MIT)
  -
  - Copyright (c) 2015-2024 Elior "Mallowigi" Boukhobza
  -
  - Permission is hereby granted, free of charge, to any person obtaining a copy
  - of this software and associated documentation files (the "Software"), to deal
  - in the Software without restriction, including without limitation the rights
  - to use, copy, modify, merge, publish, distribute, sublicense, and/or sell
  - copies of the Software, and to permit persons to whom the Software is
  - furnished to do so, subject to the following conditions:
  -
  - The above copyright notice and this permission notice shall be included in all
  - copies or substantial portions of the Software.
  -
  - THE SOFTWARE IS PROVIDED "AS IS", WITHOUT WARRANTY OF ANY KIND, EXPRESS OR
  - IMPLIED, INCLUDING BUT NOT LIMITED TO THE WARRANTIES OF MERCHANTABILITY,
  - FITNESS FOR A PARTICULAR PURPOSE AND NONINFRINGEMENT. IN NO EVENT SHALL THE
  - AUTHORS OR COPYRIGHT HOLDERS BE LIABLE FOR ANY CLAIM, DAMAGES OR OTHER
  - LIABILITY, WHETHER IN AN ACTION OF CONTRACT, TORT OR OTHERWISE, ARISING FROM,
  - OUT OF OR IN CONNECTION WITH THE SOFTWARE OR THE USE OR OTHER DEALINGS IN THE
  - SOFTWARE.
  -->

<svg xmlns="http://www.w3.org/2000/svg" height="16px" viewBox="0 -960 960 960" width="16px" data-big="true" fill="#6078BB">
  <path
    d="M480-280q17 0 28.5-11.5T520-320q0-17-11.5-28.5T480-360q-17 0-28.5 11.5T440-320q0 17 11.5 28.5T480-280Zm0-160q17 0 28.5-11.5T520-480v-160q0-17-11.5-28.5T480-680q-17 0-28.5 11.5T440-640v160q0 17 11.5 28.5T480-440ZM363-120q-16 0-30.5-6T307-143L143-307q-11-11-17-25.5t-6-30.5v-234q0-16 6-30.5t17-25.5l164-164q11-11 25.5-17t30.5-6h234q16 0 30.5 6t25.5 17l164 164q11 11 17 25.5t6 30.5v234q0 16-6 30.5T817-307L653-143q-11 11-25.5 17t-30.5 6H363Zm1-80h232l164-164v-232L596-760H364L200-596v232l164 164Zm116-280Z"/>
</svg>
