<!--
  - The MIT License (MIT)
  -
  - Copyright (c) 2015-2024 Elior "Mallowigi" Boukhobza
  -
  - Permission is hereby granted, free of charge, to any person obtaining a copy
  - of this software and associated documentation files (the "Software"), to deal
  - in the Software without restriction, including without limitation the rights
  - to use, copy, modify, merge, publish, distribute, sublicense, and/or sell
  - copies of the Software, and to permit persons to whom the Software is
  - furnished to do so, subject to the following conditions:
  -
  - The above copyright notice and this permission notice shall be included in all
  - copies or substantial portions of the Software.
  -
  - THE SOFTWARE IS PROVIDED "AS IS", WITHOUT WARRANTY OF ANY KIND, EXPRESS OR
  - IMPLIED, INCLUDING BUT NOT LIMITED TO THE WARRANTIES OF MERCHANTABILITY,
  - FITNESS FOR A PARTICULAR PURPOSE AND NONINFRINGEMENT. IN NO EVENT SHALL THE
  - AUTHORS OR COPYRIGHT HOLDERS BE LIABLE FOR ANY CLAIM, DAMAGES OR OTHER
  - LIABILITY, WHETHER IN AN ACTION OF CONTRACT, TORT OR OTHERWISE, ARISING FROM,
  - OUT OF OR IN CONNECTION WITH THE SOFTWARE OR THE USE OR OTHER DEALINGS IN THE
  - SOFTWARE.
  -->

<svg xmlns="http://www.w3.org/2000/svg" height="16px" viewBox="40 -920 880 880" width="16px" data-big="true" fill="#FFCC80">
  <path
    d="M200-120q-33 0-56.5-23.5T120-200v-560q0-33 23.5-56.5T200-840h240q17 0 28.5 11.5T480-800q0 17-11.5 28.5T440-760H200v560h560v-240q0-17 11.5-28.5T800-480q17 0 28.5 11.5T840-440v240q0 33-23.5 56.5T760-120H200Zm560-584L416-360q-11 11-28 11t-28-11q-11-11-11-28t11-28l344-344H600q-17 0-28.5-11.5T560-800q0-17 11.5-28.5T600-840h200q17 0 28.5 11.5T840-800v200q0 17-11.5 28.5T800-560q-17 0-28.5-11.5T760-600v-104Z"/>
</svg>
