<!--
  - The MIT License (MIT)
  -
  - Copyright (c) 2015-2024 Elior "Mallowigi" Boukhobza
  -
  - Permission is hereby granted, free of charge, to any person obtaining a copy
  - of this software and associated documentation files (the "Software"), to deal
  - in the Software without restriction, including without limitation the rights
  - to use, copy, modify, merge, publish, distribute, sublicense, and/or sell
  - copies of the Software, and to permit persons to whom the Software is
  - furnished to do so, subject to the following conditions:
  -
  - The above copyright notice and this permission notice shall be included in all
  - copies or substantial portions of the Software.
  -
  - THE SOFTWARE IS PROVIDED "AS IS", WITHOUT WARRANTY OF ANY KIND, EXPRESS OR
  - IMPLIED, INCLUDING BUT NOT LIMITED TO THE WARRANTIES OF MERCHANTABILITY,
  - FITNESS FOR A PARTICULAR PURPOSE AND NONINFRINGEMENT. IN NO EVENT SHALL THE
  - AUTHORS OR COPYRIGHT HOLDERS BE LIABLE FOR ANY CLAIM, DAMAGES OR OTHER
  - LIABILITY, WHETHER IN AN ACTION OF CONTRACT, TORT OR OTHERWISE, ARISING FROM,
  - OUT OF OR IN CONNECTION WITH THE SOFTWARE OR THE USE OR OTHER DEALINGS IN THE
  - SOFTWARE.
  -->

<svg xmlns="http://www.w3.org/2000/svg" height="16px"  viewBox="40 -920 880 880" width="16px" fill="#E57373">
  <path
    d="M764-80 570-274q-89 72-193.5 113T162-120q-24 0-33-12t-9-30v-162q0-14 9-24.5t23-13.5l138-28q11-2 27.5 3t24.5 13l94 94q18-11 39-25t37-27L84-760q-11-11-11-28t11-28q11-11 28-11t28 11l680 680q11 11 11 28t-11 28q-11 11-28 11t-28-11ZM360-244l-66-66-94 20v88q41-3 81-14t79-28Zm322-144-56-56q15-17 30.5-39t24.5-41l-97-98q-8-8-11-22.5t-1-23.5l26-140q3-14 13.5-23t24.5-9h162q18 0 30 12t12 30q0 110-42 214.5T682-388Zm36-212q17-39 26-79t14-81h-88l-18 94 66 66Zm0 0ZM360-244Z"/>
</svg>
