<!--
  - The MIT License (MIT)
  -
  - Copyright (c) 2015-2025 Elior "Mallowigi" Boukhobza
  -
  - Permission is hereby granted, free of charge, to any person obtaining a copy
  - of this software and associated documentation files (the "Software"), to deal
  - in the Software without restriction, including without limitation the rights
  - to use, copy, modify, merge, publish, distribute, sublicense, and/or sell
  - copies of the Software, and to permit persons to whom the Software is
  - furnished to do so, subject to the following conditions:
  -
  - The above copyright notice and this permission notice shall be included in all
  - copies or substantial portions of the Software.
  -
  - THE SOFTWARE IS PROVIDED "AS IS", WITHOUT WARRANTY OF ANY KIND, EXPRESS OR
  - IMPLIED, INCLUDING BUT NOT LIMITED TO THE WARRANTIES OF MERCHANTABILITY,
  - FITNESS FOR A PARTICULAR PURPOSE AND NONINFRINGEMENT. IN NO EVENT SHALL THE
  - AUTHORS OR COPYRIGHT HOLDERS BE LIABLE FOR ANY CLAIM, DAMAGES OR OTHER
  - LIABILITY, WHETHER IN AN ACTION OF CONTRACT, TORT OR OTHERWISE, ARISING FROM,
  - OUT OF OR IN CONNECTION WITH THE SOFTWARE OR THE USE OR OTHER DEALINGS IN THE
  - SOFTWARE.
  -
  -->

<svg xmlns="http://www.w3.org/2000/svg" height="16px" viewBox="0 -960 960 960" width="16px" fill="#91B859">
  <path
    d="M160-320q-17 0-28.5-11.5T120-360q0-17 11.5-28.5T160-400h240q17 0 28.5 11.5T440-360q0 17-11.5 28.5T400-320H160Zm0-160q-17 0-28.5-11.5T120-520q0-17 11.5-28.5T160-560h400q17 0 28.5 11.5T600-520q0 17-11.5 28.5T560-480H160Zm0-160q-17 0-28.5-11.5T120-680q0-17 11.5-28.5T160-720h400q17 0 28.5 11.5T600-680q0 17-11.5 28.5T560-640H160Zm511 499q-5 3-10 3t-10-2q-5-2-8-6.5t-3-10.5v-246q0-6 3-10.5t8-6.5q5-2 10-2t10 3l184 122q5 3 7 7.5t2 9.5q0 5-2 9.5t-7 7.5L671-141Z"/>
</svg>
