<!--
  - The MIT License (MIT)
  -
  - Copyright (c) 2015-2024 Elior "Mallowigi" Boukhobza
  -
  - Permission is hereby granted, free of charge, to any person obtaining a copy
  - of this software and associated documentation files (the "Software"), to deal
  - in the Software without restriction, including without limitation the rights
  - to use, copy, modify, merge, publish, distribute, sublicense, and/or sell
  - copies of the Software, and to permit persons to whom the Software is
  - furnished to do so, subject to the following conditions:
  -
  - The above copyright notice and this permission notice shall be included in all
  - copies or substantial portions of the Software.
  -
  - THE SOFTWARE IS PROVIDED "AS IS", WITHOUT WARRANTY OF ANY KIND, EXPRESS OR
  - IMPLIED, INCLUDING BUT NOT LIMITED TO THE WARRANTIES OF MERCHANTABILITY,
  - FITNESS FOR A PARTICULAR PURPOSE AND NONINFRINGEMENT. IN NO EVENT SHALL THE
  - AUTHORS OR COPYRIGHT HOLDERS BE LIABLE FOR ANY CLAIM, DAMAGES OR OTHER
  - LIABILITY, WHETHER IN AN ACTION OF CONTRACT, TORT OR OTHERWISE, ARISING FROM,
  - OUT OF OR IN CONNECTION WITH THE SOFTWARE OR THE USE OR OTHER DEALINGS IN THE
  - SOFTWARE.
  -->

<svg xmlns="http://www.w3.org/2000/svg" height="16px" viewBox="40 -920 880 880" width="16px" data-big="true" fill="#4DD0E1">
  <path
    d="M320-120q-33 0-56.5-23.5T240-200v-80h-80q-33 0-56.5-23.5T80-360v-160q0-51 35-85.5t85-34.5h560q51 0 85.5 34.5T880-520v160q0 33-23.5 56.5T800-280h-80v80q0 33-23.5 56.5T640-120H320ZM160-360h80q0-33 23.5-56.5T320-440h320q33 0 56.5 23.5T720-360h80v-160q0-17-11.5-28.5T760-560H200q-17 0-28.5 11.5T160-520v160Zm480-280v-120H320v120h-80v-120q0-33 23.5-56.5T320-840h320q33 0 56.5 23.5T720-760v120h-80Zm80 180q17 0 28.5-11.5T760-500q0-17-11.5-28.5T720-540q-17 0-28.5 11.5T680-500q0 17 11.5 28.5T720-460Zm-80 260v-160H320v160h320ZM160-560h640-640Z"/>
</svg>
