<!--
  - The MIT License (MIT)
  -
  - Copyright (c) 2015-2024 Elior "Mallowigi" Boukhobza
  -
  - Permission is hereby granted, free of charge, to any person obtaining a copy
  - of this software and associated documentation files (the "Software"), to deal
  - in the Software without restriction, including without limitation the rights
  - to use, copy, modify, merge, publish, distribute, sublicense, and/or sell
  - copies of the Software, and to permit persons to whom the Software is
  - furnished to do so, subject to the following conditions:
  -
  - The above copyright notice and this permission notice shall be included in all
  - copies or substantial portions of the Software.
  -
  - THE SOFTWARE IS PROVIDED "AS IS", WITHOUT WARRANTY OF ANY KIND, EXPRESS OR
  - IMPLIED, INCLUDING BUT NOT LIMITED TO THE WARRANTIES OF MERCHANTABILITY,
  - FITNESS FOR A PARTICULAR PURPOSE AND NONINFRINGEMENT. IN NO EVENT SHALL THE
  - AUTHORS OR COPYRIGHT HOLDERS BE LIABLE FOR ANY CLAIM, DAMAGES OR OTHER
  - LIABILITY, WHETHER IN AN ACTION OF CONTRACT, TORT OR OTHERWISE, ARISING FROM,
  - OUT OF OR IN CONNECTION WITH THE SOFTWARE OR THE USE OR OTHER DEALINGS IN THE
  - SOFTWARE.
  -->

<svg xmlns="http://www.w3.org/2000/svg" height="16px" viewBox="40 -920 880 880" width="16px" fill="#81D4FA">
  <path
      d="M520-640v-160q0-17 11.5-28.5T560-840h240q17 0 28.5 11.5T840-800v160q0 17-11.5 28.5T800-600H560q-17 0-28.5-11.5T520-640ZM120-480v-320q0-17 11.5-28.5T160-840h240q17 0 28.5 11.5T440-800v320q0 17-11.5 28.5T400-440H160q-17 0-28.5-11.5T120-480Zm400 320v-320q0-17 11.5-28.5T560-520h240q17 0 28.5 11.5T840-480v320q0 17-11.5 28.5T800-120H560q-17 0-28.5-11.5T520-160Zm-400 0v-160q0-17 11.5-28.5T160-360h240q17 0 28.5 11.5T440-320v160q0 17-11.5 28.5T400-120H160q-17 0-28.5-11.5T120-160Zm80-360h160v-240H200v240Zm400 320h160v-240H600v240Zm0-480h160v-80H600v80ZM200-200h160v-80H200v80Zm160-320Zm240-160Zm0 240ZM360-280Z"/>
</svg>
