<!--
  - The MIT License (MIT)
  -
  - Copyright (c) 2015-2024 Elior "Mallowigi" Boukhobza
  -
  - Permission is hereby granted, free of charge, to any person obtaining a copy
  - of this software and associated documentation files (the "Software"), to deal
  - in the Software without restriction, including without limitation the rights
  - to use, copy, modify, merge, publish, distribute, sublicense, and/or sell
  - copies of the Software, and to permit persons to whom the Software is
  - furnished to do so, subject to the following conditions:
  -
  - The above copyright notice and this permission notice shall be included in all
  - copies or substantial portions of the Software.
  -
  - THE SOFTWARE IS PROVIDED "AS IS", WITHOUT WARRANTY OF ANY KIND, EXPRESS OR
  - IMPLIED, INCLUDING BUT NOT LIMITED TO THE WARRANTIES OF MERCHANTABILITY,
  - FITNESS FOR A PARTICULAR PURPOSE AND NONINFRINGEMENT. IN NO EVENT SHALL THE
  - AUTHORS OR COPYRIGHT HOLDERS BE LIABLE FOR ANY CLAIM, DAMAGES OR OTHER
  - LIABILITY, WHETHER IN AN ACTION OF CONTRACT, TORT OR OTHERWISE, ARISING FROM,
  - OUT OF OR IN CONNECTION WITH THE SOFTWARE OR THE USE OR OTHER DEALINGS IN THE
  - SOFTWARE.
  -->

<svg xmlns="http://www.w3.org/2000/svg" height="16px" viewBox="40 -920 880 880" width="16px" data-big="true" fill="#4DD0E1">
  <path
    d="M584-637q0-43-28.5-69T480-732q-29 0-52.5 12.5T387-683q-16 23-43.5 26.5T296-671q-14-13-15.5-32t9.5-36q32-48 81.5-74.5T480-840q97 0 157.5 55T698-641q0 45-19 81t-70 85q-37 35-50 54.5T542-376q-4 24-20.5 40T482-320q-23 0-39.5-15.5T426-374q0-39 17-71.5t57-68.5q51-45 67.5-69.5T584-637ZM480-80q-33 0-56.5-23.5T400-160q0-33 23.5-56.5T480-240q33 0 56.5 23.5T560-160q0 33-23.5 56.5T480-80Z"/>
</svg>
