<!--
  - The MIT License (MIT)
  -
  - Copyright (c) 2015-2024 Elior "Mallowigi" Boukhobza
  -
  - Permission is hereby granted, free of charge, to any person obtaining a copy
  - of this software and associated documentation files (the "Software"), to deal
  - in the Software without restriction, including without limitation the rights
  - to use, copy, modify, merge, publish, distribute, sublicense, and/or sell
  - copies of the Software, and to permit persons to whom the Software is
  - furnished to do so, subject to the following conditions:
  -
  - The above copyright notice and this permission notice shall be included in all
  - copies or substantial portions of the Software.
  -
  - THE SOFTWARE IS PROVIDED "AS IS", WITHOUT WARRANTY OF ANY KIND, EXPRESS OR
  - IMPLIED, INCLUDING BUT NOT LIMITED TO THE WARRANTIES OF MERCHANTABILITY,
  - FITNESS FOR A PARTICULAR PURPOSE AND NONINFRINGEMENT. IN NO EVENT SHALL THE
  - AUTHORS OR COPYRIGHT HOLDERS BE LIABLE FOR ANY CLAIM, DAMAGES OR OTHER
  - LIABILITY, WHETHER IN AN ACTION OF CONTRACT, TORT OR OTHERWISE, ARISING FROM,
  - OUT OF OR IN CONNECTION WITH THE SOFTWARE OR THE USE OR OTHER DEALINGS IN THE
  - SOFTWARE.
  -->

<svg xmlns="http://www.w3.org/2000/svg" height="16px" viewBox="0 -960 960 960" width="16px" fill="#EC407A">
  <path
    d="m643-222-36 36q-17 17-42.5 17T522-186q-17-17-17-42.5t17-42.5l36-36q-3-10-4.5-20t-1.5-21.29q0-54.57 38.66-93.14Q629.31-480 684-480q8.67 0 17.33 1 8.67 1 16.67 3 11 5 13 16.5t-5.69 19.19L684-399q-11 11-11 25.5t11 25.5q11 11 25.5 11t25.5-11l41.31-41.31Q784-397 795.5-395t16.5 13q2 8 3 16.58 1 8.57 1 17.15 0 55.27-38.66 93.77Q738.69-216 684-216q-11.34 0-21.37-1.5Q652.6-219 643-222ZM479-744q-109 0-186 77t-77 186q0 62 25.5 115t70.5 89v-23q0-15.3 10.29-25.65Q332.58-336 347.79-336t25.71 10.35Q384-315.3 384-300v120q0 15.3-10.35 25.65Q363.3-144 348-144H228q-15.3 0-25.65-10.29Q192-164.58 192-179.79t10.35-25.71Q212.7-216 228-216h44q-59-46-93.5-114.72Q144-399.43 144-480q0-69 26.7-130.36 26.7-61.37 72.14-106.8 45.43-45.44 106.8-72.14Q411-816 480-816q106 0 189.95 58.24Q753.9-699.52 791-608q6 14.26 0 27.63T771.03-561q-13.97 6-27.5 0T724-581q-29-72-94.84-117.5T479-744Z"/>
</svg>
