<!--
  - The MIT License (MIT)
  -
  - Copyright (c) 2015-2024 Elior "Mallowigi" Boukhobza
  -
  - Permission is hereby granted, free of charge, to any person obtaining a copy
  - of this software and associated documentation files (the "Software"), to deal
  - in the Software without restriction, including without limitation the rights
  - to use, copy, modify, merge, publish, distribute, sublicense, and/or sell
  - copies of the Software, and to permit persons to whom the Software is
  - furnished to do so, subject to the following conditions:
  -
  - The above copyright notice and this permission notice shall be included in all
  - copies or substantial portions of the Software.
  -
  - THE SOFTWARE IS PROVIDED "AS IS", WITHOUT WARRANTY OF ANY KIND, EXPRESS OR
  - IMPLIED, INCLUDING BUT NOT LIMITED TO THE WARRANTIES OF MERCHANTABILITY,
  - FITNESS FOR A PARTICULAR PURPOSE AND NONINFRINGEMENT. IN NO EVENT SHALL THE
  - AUTHORS OR COPYRIGHT HOLDERS BE LIABLE FOR ANY CLAIM, DAMAGES OR OTHER
  - LIABILITY, WHETHER IN AN ACTION OF CONTRACT, TORT OR OTHERWISE, ARISING FROM,
  - OUT OF OR IN CONNECTION WITH THE SOFTWARE OR THE USE OR OTHER DEALINGS IN THE
  - SOFTWARE.
  -->

<svg data-big="true" xmlns="http://www.w3.org/2000/svg" height="16px" viewBox="40 -920 880 880" width="16px">
  <path fill="#39ADB5"
        d="M240-478q0 16 2 31.5t7 30.5q5 17-1 32.5T227-361q-16 8-31.5 1.5T175-383q-8-23-11.5-47t-3.5-48q0-134 93-228t227-94h7l-36-36q-11-11-11-28t11-28q11-11 28-11t28 11l104 104q12 12 12 28t-12 28L507-628q-11 11-28 11t-28-11q-11-11-11-28t11-28l36-36h-7q-100 0-170 70.5T240-478Zm480-4q0-16-2-31.5t-7-30.5q-5-17 1-32.5t21-22.5q16-8 31.5-1.5T785-577q8 23 11.5 47t3.5 48q0 134-93 228t-227 94h-7l36 36q11 11 11 28t-11 28q-11 11-28 11t-28-11L349-172q-12-12-12-28t12-28l104-104q11-11 28-11t28 11q11 11 11 28t-11 28l-36 36h7q100 0 170-70.5T720-482Z"/>
</svg>
