<!--
  - The MIT License (MIT)
  -
  - Copyright (c) 2015-2024 Elior "Mallowigi" Boukhobza
  -
  - Permission is hereby granted, free of charge, to any person obtaining a copy
  - of this software and associated documentation files (the "Software"), to deal
  - in the Software without restriction, including without limitation the rights
  - to use, copy, modify, merge, publish, distribute, sublicense, and/or sell
  - copies of the Software, and to permit persons to whom the Software is
  - furnished to do so, subject to the following conditions:
  -
  - The above copyright notice and this permission notice shall be included in all
  - copies or substantial portions of the Software.
  -
  - THE SOFTWARE IS PROVIDED "AS IS", WITHOUT WARRANTY OF ANY KIND, EXPRESS OR
  - IMPLIED, INCLUDING BUT NOT LIMITED TO THE WARRANTIES OF MERCHANTABILITY,
  - FITNESS FOR A PARTICULAR PURPOSE AND NONINFRINGEMENT. IN NO EVENT SHALL THE
  - AUTHORS OR COPYRIGHT HOLDERS BE LIABLE FOR ANY CLAIM, DAMAGES OR OTHER
  - LIABILITY, WHETHER IN AN ACTION OF CONTRACT, TORT OR OTHERWISE, ARISING FROM,
  - OUT OF OR IN CONNECTION WITH THE SOFTWARE OR THE USE OR OTHER DEALINGS IN THE
  - SOFTWARE.
  -->

<svg  xmlns="http://www.w3.org/2000/svg" height="16px" viewBox="40 -920 880 880" width="16px">
  <path fill="#FF5370"
        d="M240-320v-320q0-33 23.5-56.5T320-720h320q33 0 56.5 23.5T720-640v320q0 33-23.5 56.5T640-240H320q-33 0-56.5-23.5T240-320Zm80 0h320v-320H320v320Zm160-160Z"/>
  <path fill="#66BB6A" transform="scale(0.7) translate(480 12)"
        d="M480-160q-134 0-227-93t-93-227q0-134 93-227t227-93q69 0 132 28.5T720-690v-70q0-17 11.5-28.5T760-800q17 0 28.5 11.5T800-760v200q0 17-11.5 28.5T760-520H560q-17 0-28.5-11.5T520-560q0-17 11.5-28.5T560-600h128q-32-56-87.5-88T480-720q-100 0-170 70t-70 170q0 100 70 170t170 70q68 0 124.5-34.5T692-367q8-14 22.5-19.5t29.5-.5q16 5 23 21t-1 30q-41 80-117 128t-169 48Z"/>
</svg>
