<!--
  - The MIT License (MIT)
  -
  - Copyright (c) 2015-2024 Elior "Mallowigi" Boukhobza
  -
  - Permission is hereby granted, free of charge, to any person obtaining a copy
  - of this software and associated documentation files (the "Software"), to deal
  - in the Software without restriction, including without limitation the rights
  - to use, copy, modify, merge, publish, distribute, sublicense, and/or sell
  - copies of the Software, and to permit persons to whom the Software is
  - furnished to do so, subject to the following conditions:
  -
  - The above copyright notice and this permission notice shall be included in all
  - copies or substantial portions of the Software.
  -
  - THE SOFTWARE IS PROVIDED "AS IS", WITHOUT WARRANTY OF ANY KIND, EXPRESS OR
  - IMPLIED, INCLUDING BUT NOT LIMITED TO THE WARRANTIES OF MERCHANTABILITY,
  - FITNESS FOR A PARTICULAR PURPOSE AND NONINFRINGEMENT. IN NO EVENT SHALL THE
  - AUTHORS OR COPYRIGHT HOLDERS BE LIABLE FOR ANY CLAIM, DAMAGES OR OTHER
  - LIABILITY, WHETHER IN AN ACTION OF CONTRACT, TORT OR OTHERWISE, ARISING FROM,
  - OUT OF OR IN CONNECTION WITH THE SOFTWARE OR THE USE OR OTHER DEALINGS IN THE
  - SOFTWARE.
  -->

<svg  xmlns="http://www.w3.org/2000/svg" height="16px" viewBox="40 -920 880 880" width="16px">
  <path fill="#91B859"
        d="M240-280v-400q0-17 11.5-28.5T280-720q17 0 28.5 11.5T320-680v400q0 17-11.5 28.5T280-240q-17 0-28.5-11.5T240-280Zm221 4 282-170q10-6 14.5-15t4.5-19q0-10-4.5-19T743-514L461-684q-5-3-10.5-4t-10.5-1q-16 0-28 11.5T400-649v338q0 17 12 28.5t28 11.5q5 0 10.5-1t10.5-4Zm19-105v-198l165 99-165 99Zm0-99Z"/>
</svg>
