<!--
  - The MIT License (MIT)
  -
  - Copyright (c) 2015-2024 Elior "Mallowigi" Boukhobza
  -
  - Permission is hereby granted, free of charge, to any person obtaining a copy
  - of this software and associated documentation files (the "Software"), to deal
  - in the Software without restriction, including without limitation the rights
  - to use, copy, modify, merge, publish, distribute, sublicense, and/or sell
  - copies of the Software, and to permit persons to whom the Software is
  - furnished to do so, subject to the following conditions:
  -
  - The above copyright notice and this permission notice shall be included in all
  - copies or substantial portions of the Software.
  -
  - THE SOFTWARE IS PROVIDED "AS IS", WITHOUT WARRANTY OF ANY KIND, EXPRESS OR
  - IMPLIED, INCLUDING BUT NOT LIMITED TO THE WARRANTIES OF MERCHANTABILITY,
  - FITNESS FOR A PARTICULAR PURPOSE AND NONINFRINGEMENT. IN NO EVENT SHALL THE
  - AUTHORS OR COPYRIGHT HOLDERS BE LIABLE FOR ANY CLAIM, DAMAGES OR OTHER
  - LIABILITY, WHETHER IN AN ACTION OF CONTRACT, TORT OR OTHERWISE, ARISING FROM,
  - OUT OF OR IN CONNECTION WITH THE SOFTWARE OR THE USE OR OTHER DEALINGS IN THE
  - SOFTWARE.
  -->

<svg xmlns="http://www.w3.org/2000/svg" height="16px" viewBox="40 -920 880 880" width="16px" fill="#4FC3F7">
  <path
      d="M160-120v-80q0-33 23.5-56.5T240-280h20v-80h-20q-33 0-56.5-23.5T160-440v-80q0-33 23.5-56.5T240-600h20v-80h-20q-33 0-56.5-23.5T160-760v-80q0-33 23.5-56.5T240-920h120q33 0 56.5 23.5T440-840v80q0 33-23.5 56.5T360-680h-20v80h20q33 0 56.5 23.5T440-520h120q0-33 23.5-56.5T640-600h120q33 0 56.5 23.5T840-520v80q0 33-23.5 56.5T760-360H640q-33 0-56.5-23.5T560-440H440q0 33-23.5 56.5T360-360h-20v80h20q33 0 56.5 23.5T440-200v80q0 33-23.5 56.5T360-40H240q-33 0-56.5-23.5T160-120Zm80 0h120v-80H240v80Zm0-320h120v-80H240v80Zm400 0h120v-80H640v80ZM240-760h120v-80H240v80Zm60-40Zm0 320Zm400 0ZM300-160Z"/>
</svg>
