<!--
  - The MIT License (MIT)
  -
  - Copyright (c) 2015-2024 Elior "Mallowigi" Boukhobza
  -
  - Permission is hereby granted, free of charge, to any person obtaining a copy
  - of this software and associated documentation files (the "Software"), to deal
  - in the Software without restriction, including without limitation the rights
  - to use, copy, modify, merge, publish, distribute, sublicense, and/or sell
  - copies of the Software, and to permit persons to whom the Software is
  - furnished to do so, subject to the following conditions:
  -
  - The above copyright notice and this permission notice shall be included in all
  - copies or substantial portions of the Software.
  -
  - THE SOFTWARE IS PROVIDED "AS IS", WITHOUT WARRANTY OF ANY KIND, EXPRESS OR
  - IMPLIED, INCLUDING BUT NOT LIMITED TO THE WARRANTIES OF MERCHANTABILITY,
  - FITNESS FOR A PARTICULAR PURPOSE AND NONINFRINGEMENT. IN NO EVENT SHALL THE
  - AUTHORS OR COPYRIGHT HOLDERS BE LIABLE FOR ANY CLAIM, DAMAGES OR OTHER
  - LIABILITY, WHETHER IN AN ACTION OF CONTRACT, TORT OR OTHERWISE, ARISING FROM,
  - OUT OF OR IN CONNECTION WITH THE SOFTWARE OR THE USE OR OTHER DEALINGS IN THE
  - SOFTWARE.
  -->

<svg data-big="true" xmlns="http://www.w3.org/2000/svg" height="16px" viewBox="0 -960 960 960" width="16px">
  <path fill="#4FC3F7"
        d="M440-320q-24 0-46.5-4T350-336q-16-6-22-22t2-32q8-15 23-19.5t32 .5q13 5 27 7t28 2q75 0 127.5-52.5T620-580q0-75-52.5-127.5T440-760q-69 0-119.5 46.5T262-598l22-22q11-11 28-11t28 11q11 11 11 28t-11 28l-92 92q-12 12-28 12t-28-12l-92-92q-11-11-11-28t12-29q11-11 27-11t28 11l26 25q6-103 80-173.5T440-840q109 0 184.5 75.5T700-580q0 42-13 82t-39 70l202 202q11 11 11 28t-11 28q-11 11-28 11t-28-11L592-372q-32 26-71 39t-81 13Z"/>
</svg>
