<!--
  - The MIT License (MIT)
  -
  - Copyright (c) 2015-2024 Elior "Mallowigi" Boukhobza
  -
  - Permission is hereby granted, free of charge, to any person obtaining a copy
  - of this software and associated documentation files (the "Software"), to deal
  - in the Software without restriction, including without limitation the rights
  - to use, copy, modify, merge, publish, distribute, sublicense, and/or sell
  - copies of the Software, and to permit persons to whom the Software is
  - furnished to do so, subject to the following conditions:
  -
  - The above copyright notice and this permission notice shall be included in all
  - copies or substantial portions of the Software.
  -
  - THE SOFTWARE IS PROVIDED "AS IS", WITHOUT WARRANTY OF ANY KIND, EXPRESS OR
  - IMPLIED, INCLUDING BUT NOT LIMITED TO THE WARRANTIES OF MERCHANTABILITY,
  - FITNESS FOR A PARTICULAR PURPOSE AND NONINFRINGEMENT. IN NO EVENT SHALL THE
  - AUTHORS OR COPYRIGHT HOLDERS BE LIABLE FOR ANY CLAIM, DAMAGES OR OTHER
  - LIABILITY, WHETHER IN AN ACTION OF CONTRACT, TORT OR OTHERWISE, ARISING FROM,
  - OUT OF OR IN CONNECTION WITH THE SOFTWARE OR THE USE OR OTHER DEALINGS IN THE
  - SOFTWARE.
  -->

<svg xmlns="http://www.w3.org/2000/svg" height="16px" viewBox="40 -920 880 880" width="16px"  fill="#4DB6AC">
  <path
    d="M160-80q-33 0-56.5-23.5T80-160v-560q0-33 23.5-56.5T160-800h162q17 0 28.5 11.5T362-760q0 17-11.5 28.5T322-720H160v560h560v-200q0-17 11.5-28.5T760-400q17 0 28.5 11.5T800-360v200q0 33-23.5 56.5T720-80H160Zm612-524 100 100q11 11 11 28t-11 28q-11 11-28 11t-28-11L716-548q-21 12-45 20t-51 8q-75 0-127.5-52.5T440-700q0-75 52.5-127.5T620-880q75 0 127.5 52.5T800-700q0 27-8 51t-20 45Zm-152 4q42 0 71-29t29-71q0-42-29-71t-71-29q-42 0-71 29t-29 71q0 42 29 71t71 29ZM160-430v270-560 280-12 22Z"/>
</svg>
