<!--
  - The MIT License (MIT)
  -
  - Copyright (c) 2015-2024 Elior "Mallowigi" Boukhobza
  -
  - Permission is hereby granted, free of charge, to any person obtaining a copy
  - of this software and associated documentation files (the "Software"), to deal
  - in the Software without restriction, including without limitation the rights
  - to use, copy, modify, merge, publish, distribute, sublicense, and/or sell
  - copies of the Software, and to permit persons to whom the Software is
  - furnished to do so, subject to the following conditions:
  -
  - The above copyright notice and this permission notice shall be included in all
  - copies or substantial portions of the Software.
  -
  - THE SOFTWARE IS PROVIDED "AS IS", WITHOUT WARRANTY OF ANY KIND, EXPRESS OR
  - IMPLIED, INCLUDING BUT NOT LIMITED TO THE WARRANTIES OF MERCHANTABILITY,
  - FITNESS FOR A PARTICULAR PURPOSE AND NONINFRINGEMENT. IN NO EVENT SHALL THE
  - AUTHORS OR COPYRIGHT HOLDERS BE LIABLE FOR ANY CLAIM, DAMAGES OR OTHER
  - LIABILITY, WHETHER IN AN ACTION OF CONTRACT, TORT OR OTHERWISE, ARISING FROM,
  - OUT OF OR IN CONNECTION WITH THE SOFTWARE OR THE USE OR OTHER DEALINGS IN THE
  - SOFTWARE.
  -->

<svg xmlns="http://www.w3.org/2000/svg" height="16px" viewBox="0 -960 960 960" width="16px" data-big="true" fill="#64B5F6">
  <path
    d="M300-720q-25 0-42.5 17.5T240-660q0 25 17.5 42.5T300-600q25 0 42.5-17.5T360-660q0-25-17.5-42.5T300-720Zm0 400q-25 0-42.5 17.5T240-260q0 25 17.5 42.5T300-200q25 0 42.5-17.5T360-260q0-25-17.5-42.5T300-320ZM160-840h640q17 0 28.5 11.5T840-800v280q0 17-11.5 28.5T800-480H160q-17 0-28.5-11.5T120-520v-280q0-17 11.5-28.5T160-840Zm40 80v200h560v-200H200Zm-40 320h640q17 0 28.5 11.5T840-400v280q0 17-11.5 28.5T800-80H160q-17 0-28.5-11.5T120-120v-280q0-17 11.5-28.5T160-440Zm40 80v200h560v-200H200Zm0-400v200-200Zm0 400v200-200Z"/>
</svg>
