<!--
  - The MIT License (MIT)
  -
  - Copyright (c) 2015-2024 Elior "Mallowigi" Boukhobza
  -
  - Permission is hereby granted, free of charge, to any person obtaining a copy
  - of this software and associated documentation files (the "Software"), to deal
  - in the Software without restriction, including without limitation the rights
  - to use, copy, modify, merge, publish, distribute, sublicense, and/or sell
  - copies of the Software, and to permit persons to whom the Software is
  - furnished to do so, subject to the following conditions:
  -
  - The above copyright notice and this permission notice shall be included in all
  - copies or substantial portions of the Software.
  -
  - THE SOFTWARE IS PROVIDED "AS IS", WITHOUT WARRANTY OF ANY KIND, EXPRESS OR
  - IMPLIED, INCLUDING BUT NOT LIMITED TO THE WARRANTIES OF MERCHANTABILITY,
  - FITNESS FOR A PARTICULAR PURPOSE AND NONINFRINGEMENT. IN NO EVENT SHALL THE
  - AUTHORS OR COPYRIGHT HOLDERS BE LIABLE FOR ANY CLAIM, DAMAGES OR OTHER
  - LIABILITY, WHETHER IN AN ACTION OF CONTRACT, TORT OR OTHERWISE, ARISING FROM,
  - OUT OF OR IN CONNECTION WITH THE SOFTWARE OR THE USE OR OTHER DEALINGS IN THE
  - SOFTWARE.
  -->

<svg xmlns="http://www.w3.org/2000/svg" height="16px" viewBox="0 -960 960 960" width="16px" data-big="true" fill="#9575CD">
  <path
    d="m231-318 145-145q11-11 25.5-11t25.5 11.12q11 11.12 11 25.94 0 14.82-11 25.94L257-241q-10.64 11-24.82 11T207-241l-86-86q-11-11-11-25t11-25q11-11 25.5-11t25.82 11.32L231-318Zm1-312 144-144q11-11 25.5-11.5t25.5 10.62q11 11.12 11 25.94 0 14.82-11 25.94L257-553q-10.64 11-24.82 11T207-553l-86-86q-11-11-10.5-25.5T122-690q11-11 25.5-11t25.5 11l59 60Zm332 342q-15.3 0-25.65-10.29Q528-308.58 528-323.79t10.35-25.71Q548.7-360 564-360h264q15.3 0 25.65 10.29Q864-339.42 864-324.21t-10.35 25.71Q843.3-288 828-288H564Zm0-312q-15.3 0-25.65-10.29Q528-620.58 528-635.79t10.35-25.71Q548.7-672 564-672h264q15.3 0 25.65 10.29Q864-651.42 864-636.21t-10.35 25.71Q843.3-600 828-600H564Z"/>
</svg>
