<!--
  - The MIT License (MIT)
  -
  - Copyright (c) 2015-2024 Elior "Mallowigi" Boukhobza
  -
  - Permission is hereby granted, free of charge, to any person obtaining a copy
  - of this software and associated documentation files (the "Software"), to deal
  - in the Software without restriction, including without limitation the rights
  - to use, copy, modify, merge, publish, distribute, sublicense, and/or sell
  - copies of the Software, and to permit persons to whom the Software is
  - furnished to do so, subject to the following conditions:
  -
  - The above copyright notice and this permission notice shall be included in all
  - copies or substantial portions of the Software.
  -
  - THE SOFTWARE IS PROVIDED "AS IS", WITHOUT WARRANTY OF ANY KIND, EXPRESS OR
  - IMPLIED, INCLUDING BUT NOT LIMITED TO THE WARRANTIES OF MERCHANTABILITY,
  - FITNESS FOR A PARTICULAR PURPOSE AND NONINFRINGEMENT. IN NO EVENT SHALL THE
  - AUTHORS OR COPYRIGHT HOLDERS BE LIABLE FOR ANY CLAIM, DAMAGES OR OTHER
  - LIABILITY, WHETHER IN AN ACTION OF CONTRACT, TORT OR OTHERWISE, ARISING FROM,
  - OUT OF OR IN CONNECTION WITH THE SOFTWARE OR THE USE OR OTHER DEALINGS IN THE
  - SOFTWARE.
  -->

<svg xmlns="http://www.w3.org/2000/svg" height="14px" viewBox="0 -960 960 960" width="14px" fill="#7986CB">
  <defs>
    <mask id="mask1">
      <rect x="0" y="-960" width="960" height="960" fill="white"/>
      <circle cx="720" cy="-240" r="200" fill="black"/>
    </mask>
  </defs>

  <path mask="url(#mask1)"
        d="M440-183v-274L200-596v274l240 139Zm80 0 240-139v-274L520-457v274Zm-40-343 237-137-237-137-237 137 237 137ZM160-252q-19-11-29.5-29T120-321v-318q0-22 10.5-40t29.5-29l280-161q19-11 40-11t40 11l280 161q19 11 29.5 29t10.5 40v318q0 22-10.5 40T800-252L520-91q-19 11-40 11t-40-11L160-252Zm320-228Z"/>
  <path fill="#E57373" transform="scale(0.5) translate(960 0)"
        d="M440-647 244-451q-12 12-28 11.5T188-452q-11-12-11.5-28t11.5-28l264-264q6-6 13-8.5t15-2.5q8 0 15 2.5t13 8.5l264 264q11 11 11 27.5T772-452q-12 12-28.5 12T715-452L520-647v447q0 17-11.5 28.5T480-160q-17 0-28.5-11.5T440-200v-447Z"/>

</svg>
