<!--
  - The MIT License (MIT)
  -
  - Copyright (c) 2015-2024 Elior "Mallowigi" Boukhobza
  -
  - Permission is hereby granted, free of charge, to any person obtaining a copy
  - of this software and associated documentation files (the "Software"), to deal
  - in the Software without restriction, including without limitation the rights
  - to use, copy, modify, merge, publish, distribute, sublicense, and/or sell
  - copies of the Software, and to permit persons to whom the Software is
  - furnished to do so, subject to the following conditions:
  -
  - The above copyright notice and this permission notice shall be included in all
  - copies or substantial portions of the Software.
  -
  - THE SOFTWARE IS PROVIDED "AS IS", WITHOUT WARRANTY OF ANY KIND, EXPRESS OR
  - IMPLIED, INCLUDING BUT NOT LIMITED TO THE WARRANTIES OF MERCHANTABILITY,
  - FITNESS FOR A PARTICULAR PURPOSE AND NONINFRINGEMENT. IN NO EVENT SHALL THE
  - AUTHORS OR COPYRIGHT HOLDERS BE LIABLE FOR ANY CLAIM, DAMAGES OR OTHER
  - LIABILITY, WHETHER IN AN ACTION OF CONTRACT, TORT OR OTHERWISE, ARISING FROM,
  - OUT OF OR IN CONNECTION WITH THE SOFTWARE OR THE USE OR OTHER DEALINGS IN THE
  - SOFTWARE.
  -->

<svg xmlns="http://www.w3.org/2000/svg" height="16px" viewBox="40 -920 880 880" width="16px" data-big="true" fill="#A1887F">
  <path
    d="M480-800 243-663l237 137 237-137-237-137ZM120-321v-318q0-22 10.5-40t29.5-29l280-161q10-5 19.5-8t20.5-3q11 0 21 3t19 8l280 161q19 11 29.5 29t10.5 40v119q0 17-11.5 28.5T800-480q-17 0-28.5-11.5T760-520v-76L519-457q-19 11-40 11t-40-11L200-596v274l220 128q9 5 14.5 14t5.5 20q0 23-20 34.5t-40 .5L160-252q-19-11-29.5-29T120-321ZM720 0q-83 0-141.5-58.5T520-200q0-83 58.5-141.5T720-400q83 0 141.5 58.5T920-200q0 83-58.5 141.5T720 0ZM480-491Zm220 335-58-58q-6-6-14-6t-14 6q-6 6-6 14t6 14l78 78q6 6 13 8.5t15 2.5q8 0 15-2.5t13-8.5l78-78q6-6 6-14t-6-14q-6-6-14-6t-14 6l-58 58v-144q0-8-6-14t-14-6q-8 0-14 6t-6 14v144Z"/>
</svg>
