<!--
  - The MIT License (MIT)
  -
  - Copyright (c) 2015-2024 Elior "Mallowigi" Boukhobza
  -
  - Permission is hereby granted, free of charge, to any person obtaining a copy
  - of this software and associated documentation files (the "Software"), to deal
  - in the Software without restriction, including without limitation the rights
  - to use, copy, modify, merge, publish, distribute, sublicense, and/or sell
  - copies of the Software, and to permit persons to whom the Software is
  - furnished to do so, subject to the following conditions:
  -
  - The above copyright notice and this permission notice shall be included in all
  - copies or substantial portions of the Software.
  -
  - THE SOFTWARE IS PROVIDED "AS IS", WITHOUT WARRANTY OF ANY KIND, EXPRESS OR
  - IMPLIED, INCLUDING BUT NOT LIMITED TO THE WARRANTIES OF MERCHANTABILITY,
  - FITNESS FOR A PARTICULAR PURPOSE AND NONINFRINGEMENT. IN NO EVENT SHALL THE
  - AUTHORS OR COPYRIGHT HOLDERS BE LIABLE FOR ANY CLAIM, DAMAGES OR OTHER
  - LIABILITY, WHETHER IN AN ACTION OF CONTRACT, TORT OR OTHERWISE, ARISING FROM,
  - OUT OF OR IN CONNECTION WITH THE SOFTWARE OR THE USE OR OTHER DEALINGS IN THE
  - SOFTWARE.
  -->

<svg xmlns="http://www.w3.org/2000/svg" height="16px" viewBox="40 -920 880 880" width="16px" data-big="true" fill="#E91E63">
  <path
    d="M264-531q0 46 18.5 87.5T336-372v-27q0-15 10.5-25.5T372-435q15 0 25.5 10.5T408-399v120q0 15-10.5 25.5T372-243H252q-15 0-25.5-10.5T216-279q0-15 10.5-25.5T252-315h38q-47-42-72.5-97.5T192-531q0-38 10-75.5t30-70.5L115-795q-11-11-11-25t11-25q11-11 25.5-11t25.5 11l628 628q11 11 11 25t-11 25q-11 11-25.5 11T743-167L625-284q-10 5-19 10t-19 10q-14 6-27.5-1T541-286q-5-14 2.5-27t21.5-19q10-4 19-9.5t17-10.5l-21 24-294-296q-11 22-16.5 45.5T264-531Zm464 146-54-54q10-22 16-45t6-47q0-46-18.5-87.5T624-691v28q0 15-10.5 25.5T588-627q-15 0-25.5-10.5T552-663v-120q0-15 10.5-25.5T588-819h120q15 0 25.5 10.5T744-783q0 15-10.5 25.5T708-747h-38q47 42 72.5 97.5T768-531q0 38-10 75.5T728-385ZM387-726l-52-53 18-10q9-5 19-9 14-6 27.5 1.5T416-774q3 15-5 28.5T389-726h-2Z"/>
</svg>
