<!--
  - The MIT License (MIT)
  -
  - Copyright (c) 2015-2024 Elior "Mallowigi" Boukhobza
  -
  - Permission is hereby granted, free of charge, to any person obtaining a copy
  - of this software and associated documentation files (the "Software"), to deal
  - in the Software without restriction, including without limitation the rights
  - to use, copy, modify, merge, publish, distribute, sublicense, and/or sell
  - copies of the Software, and to permit persons to whom the Software is
  - furnished to do so, subject to the following conditions:
  -
  - The above copyright notice and this permission notice shall be included in all
  - copies or substantial portions of the Software.
  -
  - THE SOFTWARE IS PROVIDED "AS IS", WITHOUT WARRANTY OF ANY KIND, EXPRESS OR
  - IMPLIED, INCLUDING BUT NOT LIMITED TO THE WARRANTIES OF MERCHANTABILITY,
  - FITNESS FOR A PARTICULAR PURPOSE AND NONINFRINGEMENT. IN NO EVENT SHALL THE
  - AUTHORS OR COPYRIGHT HOLDERS BE LIABLE FOR ANY CLAIM, DAMAGES OR OTHER
  - LIABILITY, WHETHER IN AN ACTION OF CONTRACT, TORT OR OTHERWISE, ARISING FROM,
  - OUT OF OR IN CONNECTION WITH THE SOFTWARE OR THE USE OR OTHER DEALINGS IN THE
  - SOFTWARE.
  -->

<svg  xmlns="http://www.w3.org/2000/svg" height="16px" viewBox="40 -920 880 880" width="16px">
  <path fill="#00BCD4"
        d="M367-320H120q-17 0-28.5-11.5T80-360q0-17 11.5-28.5T120-400h247l-75-75q-11-11-11-27.5t11-28.5q12-12 28.5-12t28.5 12l143 143q6 6 8.5 13t2.5 15q0 8-2.5 15t-8.5 13L348-188q-12 12-28 11.5T292-189q-11-12-11.5-28t11.5-28l75-75Zm226-240 75 75q11 11 11 27.5T668-429q-12 12-28.5 12T611-429L468-572q-6-6-8.5-13t-2.5-15q0-8 2.5-15t8.5-13l144-144q12-12 28-11.5t28 12.5q11 12 11.5 28T668-715l-75 75h247q17 0 28.5 11.5T880-600q0 17-11.5 28.5T840-560H593Z"/>
</svg>
