<!--
  - The MIT License (MIT)
  -
  - Copyright (c) 2015-2024 Elior "Mallowigi" Boukhobza
  -
  - Permission is hereby granted, free of charge, to any person obtaining a copy
  - of this software and associated documentation files (the "Software"), to deal
  - in the Software without restriction, including without limitation the rights
  - to use, copy, modify, merge, publish, distribute, sublicense, and/or sell
  - copies of the Software, and to permit persons to whom the Software is
  - furnished to do so, subject to the following conditions:
  -
  - The above copyright notice and this permission notice shall be included in all
  - copies or substantial portions of the Software.
  -
  - THE SOFTWARE IS PROVIDED "AS IS", WITHOUT WARRANTY OF ANY KIND, EXPRESS OR
  - IMPLIED, INCLUDING BUT NOT LIMITED TO THE WARRANTIES OF MERCHANTABILITY,
  - FITNESS FOR A PARTICULAR PURPOSE AND NONINFRINGEMENT. IN NO EVENT SHALL THE
  - AUTHORS OR COPYRIGHT HOLDERS BE LIABLE FOR ANY CLAIM, DAMAGES OR OTHER
  - LIABILITY, WHETHER IN AN ACTION OF CONTRACT, TORT OR OTHERWISE, ARISING FROM,
  - OUT OF OR IN CONNECTION WITH THE SOFTWARE OR THE USE OR OTHER DEALINGS IN THE
  - SOFTWARE.
  -->

<svg xmlns="http://www.w3.org/2000/svg" height="16px" viewBox="40 -920 880 880" width="16px" data-big="true" fill="#FFC107">
  <path
    d="m234-300 80 80q11 11 11 25.5t-11 25.98Q303-158 288.5-158T263-169L121-311q-5-5.4-7.5-11.7-2.5-6.3-2.5-13.5t2.5-13.5Q116-356 121-361l142.14-142.14Q274-514 288.67-514q14.66 0 25.33 11 11 10.67 11 25.33Q325-463 314-452l-80 80h546q15.3 0 25.65 10.29Q816-351.42 816-336.21t-10.35 25.71Q795.3-300 780-300H234Zm492-288H180q-15.3 0-25.65-10.29Q144-608.58 144-623.79t10.35-25.71Q164.7-660 180-660h546l-80-80q-11-11-11-25.5t11-25.98Q657-802 671.5-802t25.5 11l142 142q5 5.4 7.5 11.7 2.5 6.3 2.5 13.5t-2.5 13.5Q844-604 839-599L696.86-456.86Q686-446 672-446.5t-25-11.02q-11-11.48-11-26.15 0-14.66 11-25.33l79-79Z"/>
</svg>
