<!--
  - The MIT License (MIT)
  -
  - Copyright (c) 2015-2024 Elior "Mallowigi" Boukhobza
  -
  - Permission is hereby granted, free of charge, to any person obtaining a copy
  - of this software and associated documentation files (the "Software"), to deal
  - in the Software without restriction, including without limitation the rights
  - to use, copy, modify, merge, publish, distribute, sublicense, and/or sell
  - copies of the Software, and to permit persons to whom the Software is
  - furnished to do so, subject to the following conditions:
  -
  - The above copyright notice and this permission notice shall be included in all
  - copies or substantial portions of the Software.
  -
  - THE SOFTWARE IS PROVIDED "AS IS", WITHOUT WARRANTY OF ANY KIND, EXPRESS OR
  - IMPLIED, INCLUDING BUT NOT LIMITED TO THE WARRANTIES OF MERCHANTABILITY,
  - FITNESS FOR A PARTICULAR PURPOSE AND NONINFRINGEMENT. IN NO EVENT SHALL THE
  - AUTHORS OR COPYRIGHT HOLDERS BE LIABLE FOR ANY CLAIM, DAMAGES OR OTHER
  - LIABILITY, WHETHER IN AN ACTION OF CONTRACT, TORT OR OTHERWISE, ARISING FROM,
  - OUT OF OR IN CONNECTION WITH THE SOFTWARE OR THE USE OR OTHER DEALINGS IN THE
  - SOFTWARE.
  -->

<svg data-big="true" xmlns="http://www.w3.org/2000/svg" height="16px" viewBox="0 -960 960 960" width="16px">
  <path fill="#00E5FF"
        d="M240-478q0 45 17 87.5t53 78.5l10 10v-58q0-17 11.5-28.5T360-400q17 0 28.5 11.5T400-360v160q0 17-11.5 28.5T360-160H200q-17 0-28.5-11.5T160-200q0-17 11.5-28.5T200-240h70l-16-14q-52-46-73-105t-21-119q0-94 48-170.5T337-766q14-8 29.5-1t20.5 23q5 15-.5 30T367-691q-58 32-92.5 88.5T240-478Zm480-4q0-45-17-87.5T650-648l-10-10v58q0 17-11.5 28.5T600-560q-17 0-28.5-11.5T560-600v-160q0-17 11.5-28.5T600-800h160q17 0 28.5 11.5T800-760q0 17-11.5 28.5T760-720h-70l16 14q49 49 71.5 106.5T800-482q0 94-48 170.5T623-194q-14 8-29.5 1T573-216q-5-15 .5-30t19.5-23q58-32 92.5-88.5T720-482Z"/>
</svg>
