<!--
  - The MIT License (MIT)
  -
  - Copyright (c) 2015-2024 Elior "Mallowigi" Boukhobza
  -
  - Permission is hereby granted, free of charge, to any person obtaining a copy
  - of this software and associated documentation files (the "Software"), to deal
  - in the Software without restriction, including without limitation the rights
  - to use, copy, modify, merge, publish, distribute, sublicense, and/or sell
  - copies of the Software, and to permit persons to whom the Software is
  - furnished to do so, subject to the following conditions:
  -
  - The above copyright notice and this permission notice shall be included in all
  - copies or substantial portions of the Software.
  -
  - THE SOFTWARE IS PROVIDED "AS IS", WITHOUT WARRANTY OF ANY KIND, EXPRESS OR
  - IMPLIED, INCLUDING BUT NOT LIMITED TO THE WARRANTIES OF MERCHANTABILITY,
  - FITNESS FOR A PARTICULAR PURPOSE AND NONINFRINGEMENT. IN NO EVENT SHALL THE
  - AUTHORS OR COPYRIGHT HOLDERS BE LIABLE FOR ANY CLAIM, DAMAGES OR OTHER
  - LIABILITY, WHETHER IN AN ACTION OF CONTRACT, TORT OR OTHERWISE, ARISING FROM,
  - OUT OF OR IN CONNECTION WITH THE SOFTWARE OR THE USE OR OTHER DEALINGS IN THE
  - SOFTWARE.
  -->

<svg xmlns="http://www.w3.org/2000/svg" height="16px" viewBox="40 -920 880 880" width="16px" data-big="true" fill="#bc343c">
  <path
    d="M160-120q-33 0-56.5-23.5T80-200v-560q0-33 23.5-56.5T160-840h640q33 0 56.5 23.5T880-760v560q0 33-23.5 56.5T800-120H160Zm0-80h640v-560H160v560Zm200-80q17 0 28.5-11.5T400-320q0-17-11.5-28.5T360-360H240q-17 0-28.5 11.5T200-320q0 17 11.5 28.5T240-280h120Zm222-193-29-29q-12-12-28-11.5T497-501q-11 12-11.5 28t11.5 28l57 57q12 12 28 12t28-12l142-142q12-12 12-28t-12-28q-12-12-28.5-12T695-586L582-473Zm-222 33q17 0 28.5-11.5T400-480q0-17-11.5-28.5T360-520H240q-17 0-28.5 11.5T200-480q0 17 11.5 28.5T240-440h120Zm0-160q17 0 28.5-11.5T400-640q0-17-11.5-28.5T360-680H240q-17 0-28.5 11.5T200-640q0 17 11.5 28.5T240-600h120ZM160-200v-560 560Z"/>
</svg>
