<!--
  - The MIT License (MIT)
  -
  - Copyright (c) 2015-2024 Elior "Mallowigi" Boukhobza
  -
  - Permission is hereby granted, free of charge, to any person obtaining a copy
  - of this software and associated documentation files (the "Software"), to deal
  - in the Software without restriction, including without limitation the rights
  - to use, copy, modify, merge, publish, distribute, sublicense, and/or sell
  - copies of the Software, and to permit persons to whom the Software is
  - furnished to do so, subject to the following conditions:
  -
  - The above copyright notice and this permission notice shall be included in all
  - copies or substantial portions of the Software.
  -
  - THE SOFTWARE IS PROVIDED "AS IS", WITHOUT WARRANTY OF ANY KIND, EXPRESS OR
  - IMPLIED, INCLUDING BUT NOT LIMITED TO THE WARRANTIES OF MERCHANTABILITY,
  - FITNESS FOR A PARTICULAR PURPOSE AND NONINFRINGEMENT. IN NO EVENT SHALL THE
  - AUTHORS OR COPYRIGHT HOLDERS BE LIABLE FOR ANY CLAIM, DAMAGES OR OTHER
  - LIABILITY, WHETHER IN AN ACTION OF CONTRACT, TORT OR OTHERWISE, ARISING FROM,
  - OUT OF OR IN CONNECTION WITH THE SOFTWARE OR THE USE OR OTHER DEALINGS IN THE
  - SOFTWARE.
  -->

<svg xmlns="http://www.w3.org/2000/svg" height="16px" viewBox="40 -920 880 880" width="16px" data-big="true" fill="#7986cb">
  <path
    d="m603-202-34 97q-4 11-14 18t-22 7q-20 0-32.5-16.5T496-133l152-402q5-11 15-18t22-7h30q12 0 22 7t15 18l152 403q8 19-4 35.5T868-80q-13 0-22.5-7T831-106l-34-96H603ZM362-401 188-228q-11 11-27.5 11.5T132-228q-11-11-11-28t11-28l174-174q-35-35-63.5-80T190-640h84q20 39 40 68t48 58q33-33 68.5-92.5T484-720H80q-17 0-28.5-11.5T40-760q0-17 11.5-28.5T80-800h240v-40q0-17 11.5-28.5T360-880q17 0 28.5 11.5T400-840v40h240q17 0 28.5 11.5T680-760q0 17-11.5 28.5T640-720h-76q-21 72-63 148t-83 116l96 98-30 82-122-125Zm266 129h144l-72-204-72 204Z"/>
</svg>
