<!--
  - The MIT License (MIT)
  -
  - Copyright (c) 2015-2024 Elior "Mallowigi" Boukhobza
  -
  - Permission is hereby granted, free of charge, to any person obtaining a copy
  - of this software and associated documentation files (the "Software"), to deal
  - in the Software without restriction, including without limitation the rights
  - to use, copy, modify, merge, publish, distribute, sublicense, and/or sell
  - copies of the Software, and to permit persons to whom the Software is
  - furnished to do so, subject to the following conditions:
  -
  - The above copyright notice and this permission notice shall be included in all
  - copies or substantial portions of the Software.
  -
  - THE SOFTWARE IS PROVIDED "AS IS", WITHOUT WARRANTY OF ANY KIND, EXPRESS OR
  - IMPLIED, INCLUDING BUT NOT LIMITED TO THE WARRANTIES OF MERCHANTABILITY,
  - FITNESS FOR A PARTICULAR PURPOSE AND NONINFRINGEMENT. IN NO EVENT SHALL THE
  - AUTHORS OR COPYRIGHT HOLDERS BE LIABLE FOR ANY CLAIM, DAMAGES OR OTHER
  - LIABILITY, WHETHER IN AN ACTION OF CONTRACT, TORT OR OTHERWISE, ARISING FROM,
  - OUT OF OR IN CONNECTION WITH THE SOFTWARE OR THE USE OR OTHER DEALINGS IN THE
  - SOFTWARE.
  -->

<svg width="16px" height="16px" viewBox="0 0 48 48" xmlns="http://www.w3.org/2000/svg" fill="#FFB74D">
  <path
      d="M26,30H42a2,2,0,0,0,2-2V20a2,2,0,0,0-2-2H26a2,2,0,0,0-2,2v2H16V14h6a2,2,0,0,0,2-2V4a2,2,0,0,0-2-2H6A2,2,0,0,0,4,4v8a2,2,0,0,0,2,2h6V40a2,2,0,0,0,2,2H24v2a2,2,0,0,0,2,2H42a2,2,0,0,0,2-2V36a2,2,0,0,0-2-2H26a2,2,0,0,0-2,2v2H16V26h8v2A2,2,0,0,0,26,30Zm2-8H40v4H28ZM8,6H20v4H8ZM28,38H40v4H28Z"/>
</svg>
