<!--
  - The MIT License (MIT)
  -
  - Copyright (c) 2015-2024 Elior "Mallowigi" Boukhobza
  -
  - Permission is hereby granted, free of charge, to any person obtaining a copy
  - of this software and associated documentation files (the "Software"), to deal
  - in the Software without restriction, including without limitation the rights
  - to use, copy, modify, merge, publish, distribute, sublicense, and/or sell
  - copies of the Software, and to permit persons to whom the Software is
  - furnished to do so, subject to the following conditions:
  -
  - The above copyright notice and this permission notice shall be included in all
  - copies or substantial portions of the Software.
  -
  - THE SOFTWARE IS PROVIDED "AS IS", WITHOUT WARRANTY OF ANY KIND, EXPRESS OR
  - IMPLIED, INCLUDING BUT NOT LIMITED TO THE WARRANTIES OF MERCHANTABILITY,
  - FITNESS FOR A PARTICULAR PURPOSE AND NONINFRINGEMENT. IN NO EVENT SHALL THE
  - AUTHORS OR COPYRIGHT HOLDERS BE LIABLE FOR ANY CLAIM, DAMAGES OR OTHER
  - LIABILITY, WHETHER IN AN ACTION OF CONTRACT, TORT OR OTHERWISE, ARISING FROM,
  - OUT OF OR IN CONNECTION WITH THE SOFTWARE OR THE USE OR OTHER DEALINGS IN THE
  - SOFTWARE.
  -->

<svg big="true" xmlns="http://www.w3.org/2000/svg" height="16px" viewBox="0 -960 960 960" width="16px">
  <path fill="#F78C6C"
        d="M360-200q-20 0-37.5-9T294-234L153-434q-15-21-15-46t15-46l141-200q11-16 28.5-25t37.5-9h400q33 0 56.5 23.5T840-680v400q0 33-23.5 56.5T760-200H360Zm400-80v-400 400Zm-400 0h400v-400H360L218-480l142 200Zm200-144 76 76q11 11 28 11t28-11q11-11 11-28t-11-28l-76-76 76-76q11-11 11-28t-11-28q-11-11-28-11t-28 11l-76 76-76-76q-11-11-28-11t-28 11q-11 11-11 28t11 28l76 76-76 76q-11 11-11 28t11 28q11 11 28 11t28-11l76-76Z"/>
</svg>
