<!--
  - The MIT License (MIT)
  -
  - Copyright (c) 2015-2024 Elior "Mallowigi" Boukhobza
  -
  - Permission is hereby granted, free of charge, to any person obtaining a copy
  - of this software and associated documentation files (the "Software"), to deal
  - in the Software without restriction, including without limitation the rights
  - to use, copy, modify, merge, publish, distribute, sublicense, and/or sell
  - copies of the Software, and to permit persons to whom the Software is
  - furnished to do so, subject to the following conditions:
  -
  - The above copyright notice and this permission notice shall be included in all
  - copies or substantial portions of the Software.
  -
  - THE SOFTWARE IS PROVIDED "AS IS", WITHOUT WARRANTY OF ANY KIND, EXPRESS OR
  - IMPLIED, INCLUDING BUT NOT LIMITED TO THE WARRANTIES OF MERCHANTABILITY,
  - FITNESS FOR A PARTICULAR PURPOSE AND NONINFRINGEMENT. IN NO EVENT SHALL THE
  - AUTHORS OR COPYRIGHT HOLDERS BE LIABLE FOR ANY CLAIM, DAMAGES OR OTHER
  - LIABILITY, WHETHER IN AN ACTION OF CONTRACT, TORT OR OTHERWISE, ARISING FROM,
  - OUT OF OR IN CONNECTION WITH THE SOFTWARE OR THE USE OR OTHER DEALINGS IN THE
  - SOFTWARE.
  -->

<svg xmlns="http://www.w3.org/2000/svg" height="16px" viewBox="40 -920 880 880" width="16px" fill="#C792EA">
  <path
      d="M560-760H400v87L290-783q-5-5-7.5-11t-2.5-12q0-13 9-23.5t24-10.5h327q17 0 28.5 11.5T680-800q0 16-14.5 22.5T640-760v240q0 17-11.5 28.5T600-480q-17 0-28.5-11.5T560-520v-240ZM440-80v-240H296q-25 0-40-17.5T241-377q0-11 4.5-22t14.5-21l60-60v-46L84-764q-11-11-11.5-27.5T84-820q11-11 28-11t28 11l679 679q12 12 11.5 28.5T818-84q-12 11-28 11.5T762-84L526-320h-6v240q0 17-11.5 28.5T480-40q-17 0-28.5-11.5T440-80Zm-86-320h92l-44-44-2-2-46 46Zm126-193Zm-78 149Z"/>
</svg>
