<!--
  - The MIT License (MIT)
  -
  - Copyright (c) 2015-2024 Elior "Mallowigi" Boukhobza
  -
  - Permission is hereby granted, free of charge, to any person obtaining a copy
  - of this software and associated documentation files (the "Software"), to deal
  - in the Software without restriction, including without limitation the rights
  - to use, copy, modify, merge, publish, distribute, sublicense, and/or sell
  - copies of the Software, and to permit persons to whom the Software is
  - furnished to do so, subject to the following conditions:
  -
  - The above copyright notice and this permission notice shall be included in all
  - copies or substantial portions of the Software.
  -
  - THE SOFTWARE IS PROVIDED "AS IS", WITHOUT WARRANTY OF ANY KIND, EXPRESS OR
  - IMPLIED, INCLUDING BUT NOT LIMITED TO THE WARRANTIES OF MERCHANTABILITY,
  - FITNESS FOR A PARTICULAR PURPOSE AND NONINFRINGEMENT. IN NO EVENT SHALL THE
  - AUTHORS OR COPYRIGHT HOLDERS BE LIABLE FOR ANY CLAIM, DAMAGES OR OTHER
  - LIABILITY, WHETHER IN AN ACTION OF CONTRACT, TORT OR OTHERWISE, ARISING FROM,
  - OUT OF OR IN CONNECTION WITH THE SOFTWARE OR THE USE OR OTHER DEALINGS IN THE
  - SOFTWARE.
  -->

<svg xmlns="http://www.w3.org/2000/svg" width="16px" height="16px" data-big="true" viewBox="0 0 24 24">
  <path stroke="#9CCC65" fill="none" stroke-width="1.5" stroke-linejoin="round"
        d="M19 17v2H7v-2s0-4 6-4 6 4 6 4m-3-9a3 3 0 1 0-3 3 3 3 0 0 0 3-3m3.2 5.06A5.6 5.6 0 0 1 21 17v2h3v-2s0-3.45-4.8-3.94M18 5a2.9 2.9 0 0 0-.89.14 5 5 0 0 1 0 5.72A2.9 2.9 0 0 0 18 11a3 3 0 0 0 0-6M7.34 8.92l1.16 1.41-4.75 4.75-2.75-3 1.16-1.16 1.59 1.58z"/>
</svg>
