<!--
  - The MIT License (MIT)
  -
  - Copyright (c) 2015-2024 Elior "Mallowigi" Boukhobza
  -
  - Permission is hereby granted, free of charge, to any person obtaining a copy
  - of this software and associated documentation files (the "Software"), to deal
  - in the Software without restriction, including without limitation the rights
  - to use, copy, modify, merge, publish, distribute, sublicense, and/or sell
  - copies of the Software, and to permit persons to whom the Software is
  - furnished to do so, subject to the following conditions:
  -
  - The above copyright notice and this permission notice shall be included in all
  - copies or substantial portions of the Software.
  -
  - THE SOFTWARE IS PROVIDED "AS IS", WITHOUT WARRANTY OF ANY KIND, EXPRESS OR
  - IMPLIED, INCLUDING BUT NOT LIMITED TO THE WARRANTIES OF MERCHANTABILITY,
  - FITNESS FOR A PARTICULAR PURPOSE AND NONINFRINGEMENT. IN NO EVENT SHALL THE
  - AUTHORS OR COPYRIGHT HOLDERS BE LIABLE FOR ANY CLAIM, DAMAGES OR OTHER
  - LIABILITY, WHETHER IN AN ACTION OF CONTRACT, TORT OR OTHERWISE, ARISING FROM,
  - OUT OF OR IN CONNECTION WITH THE SOFTWARE OR THE USE OR OTHER DEALINGS IN THE
  - SOFTWARE.
  -->

<svg xmlns="http://www.w3.org/2000/svg" width="16px" height="16px" data-big="true" viewBox="0 0 24 24">
  <path stroke="#EF5350" fill="none" stroke-width="1.5" stroke-linejoin="round"
        d="M24 17v2h-3v-2c0-1.55-.7-2.94-1.82-3.94C24 13.55 24 17 24 17M18 5c1.66 0 3 1.34 3 3a2.996 2.996 0 0 1-3.9 2.86c.57-.81.9-1.79.9-2.86 0-1.06-.33-2.05-.9-2.86.28-.09.59-.14.9-.14m-5 0c1.66 0 3 1.34 3 3s-1.34 3-3 3-3-1.34-3-3 1.34-3 3-3m6 12v2H7v-2c0-2.21 2.69-4 6-4s6 1.79 6 4M.464 13.12 2.59 11 .464 8.88 1.88 7.46 4 9.59l2.12-2.13 1.42 1.42L5.41 11l2.13 2.12-1.42 1.42L4 12.41l-2.12 2.13Z"/>
</svg>
