<!--
  - The MIT License (MIT)
  -
  - Copyright (c) 2015-2024 Elior "Mallowigi" Boukhobza
  -
  - Permission is hereby granted, free of charge, to any person obtaining a copy
  - of this software and associated documentation files (the "Software"), to deal
  - in the Software without restriction, including without limitation the rights
  - to use, copy, modify, merge, publish, distribute, sublicense, and/or sell
  - copies of the Software, and to permit persons to whom the Software is
  - furnished to do so, subject to the following conditions:
  -
  - The above copyright notice and this permission notice shall be included in all
  - copies or substantial portions of the Software.
  -
  - THE SOFTWARE IS PROVIDED "AS IS", WITHOUT WARRANTY OF ANY KIND, EXPRESS OR
  - IMPLIED, INCLUDING BUT NOT LIMITED TO THE WARRANTIES OF MERCHANTABILITY,
  - FITNESS FOR A PARTICULAR PURPOSE AND NONINFRINGEMENT. IN NO EVENT SHALL THE
  - AUTHORS OR COPYRIGHT HOLDERS BE LIABLE FOR ANY CLAIM, DAMAGES OR OTHER
  - LIABILITY, WHETHER IN AN ACTION OF CONTRACT, TORT OR OTHERWISE, ARISING FROM,
  - OUT OF OR IN CONNECTION WITH THE SOFTWARE OR THE USE OR OTHER DEALINGS IN THE
  - SOFTWARE.
  -->

<svg xmlns="http://www.w3.org/2000/svg" width="16" height="16" data-big="true" viewBox="0 0 24 24">
  <path fill="#26A69A"
        d="M20.41 3c1.39 2.71 1.94 5.84 1.59 9-.2 3.16-1.3 6.29-3.17 9l-1.53-1c1.61-2.43 2.55-5.2 2.7-8 .34-2.8-.11-5.57-1.3-8zM5.17 3 6.7 4C5.09 6.43 4.15 9.2 4 12c-.34 2.8.12 5.57 1.3 8l-1.69 1c-1.4-2.71-1.96-5.83-1.61-9 .2-3.16 1.3-6.29 3.17-9m6.91 7.68 2.32-3.23h2.53l-3.78 5 2.2 4.92h-2.26L11.71 14l-2.43 3.33H6.76l3.9-5.12-2.13-4.76h2.27z"/>
</svg>
