<!--
  - The MIT License (MIT)
  -
  - Copyright (c) 2015-2024 Elior "Mallowigi" Boukhobza
  -
  - Permission is hereby granted, free of charge, to any person obtaining a copy
  - of this software and associated documentation files (the "Software"), to deal
  - in the Software without restriction, including without limitation the rights
  - to use, copy, modify, merge, publish, distribute, sublicense, and/or sell
  - copies of the Software, and to permit persons to whom the Software is
  - furnished to do so, subject to the following conditions:
  -
  - The above copyright notice and this permission notice shall be included in all
  - copies or substantial portions of the Software.
  -
  - THE SOFTWARE IS PROVIDED "AS IS", WITHOUT WARRANTY OF ANY KIND, EXPRESS OR
  - IMPLIED, INCLUDING BUT NOT LIMITED TO THE WARRANTIES OF MERCHANTABILITY,
  - FITNESS FOR A PARTICULAR PURPOSE AND NONINFRINGEMENT. IN NO EVENT SHALL THE
  - AUTHORS OR COPYRIGHT HOLDERS BE LIABLE FOR ANY CLAIM, DAMAGES OR OTHER
  - LIABILITY, WHETHER IN AN ACTION OF CONTRACT, TORT OR OTHERWISE, ARISING FROM,
  - OUT OF OR IN CONNECTION WITH THE SOFTWARE OR THE USE OR OTHER DEALINGS IN THE
  - SOFTWARE.
  -->

<svg xmlns="http://www.w3.org/2000/svg" height="16px" viewBox="40 -920 880 880" width="16px"  fill="#C3E88D">
  <path
    d="m429-438-60-59q-11-11-25-11t-25 11q-11 11-11 25.5t11 25.5l85 85q11 11 25 11t25-11l187-187q11-11 11-25.5T641-599q-11-11-25-11t-25 11L429-438ZM331-99l-59-97-110-25q-14-3-22-13.5t-6-24.5l10-113-75-84q-9-11-9-24t9-24l75-84-10-113q-2-14 6-24.5t22-13.5l110-25 59-97q7-11 19.5-15.5t25.5.5l104 45 104-45q13-5 25.5-.5T629-861l59 97 110 25q14 3 22 13.5t6 24.5l-10 113 75 84q9 11 9 24t-9 24l-75 84 10 113q2 14-6 24.5T798-221l-110 25-59 97q-7 11-19.5 15.5T584-84l-104-45-104 45q-13 5-25.5.5T331-99Zm45-64 104-44 104 44 58-97 110-25-10-111 74-84-74-84 10-111-110-25-58-97-104 44-104-44-58 97-110 24 10 112-74 84 75 84-11 112 110 25 58 96Zm104-317Z"/>
</svg>
