<!--
  - The MIT License (MIT)
  -
  - Copyright (c) 2015-2024 Elior "Mallowigi" Boukhobza
  -
  - Permission is hereby granted, free of charge, to any person obtaining a copy
  - of this software and associated documentation files (the "Software"), to deal
  - in the Software without restriction, including without limitation the rights
  - to use, copy, modify, merge, publish, distribute, sublicense, and/or sell
  - copies of the Software, and to permit persons to whom the Software is
  - furnished to do so, subject to the following conditions:
  -
  - The above copyright notice and this permission notice shall be included in all
  - copies or substantial portions of the Software.
  -
  - THE SOFTWARE IS PROVIDED "AS IS", WITHOUT WARRANTY OF ANY KIND, EXPRESS OR
  - IMPLIED, INCLUDING BUT NOT LIMITED TO THE WARRANTIES OF MERCHANTABILITY,
  - FITNESS FOR A PARTICULAR PURPOSE AND NONINFRINGEMENT. IN NO EVENT SHALL THE
  - AUTHORS OR COPYRIGHT HOLDERS BE LIABLE FOR ANY CLAIM, DAMAGES OR OTHER
  - LIABILITY, WHETHER IN AN ACTION OF CONTRACT, TORT OR OTHERWISE, ARISING FROM,
  - OUT OF OR IN CONNECTION WITH THE SOFTWARE OR THE USE OR OTHER DEALINGS IN THE
  - SOFTWARE.
  -->

<svg xmlns="http://www.w3.org/2000/svg" height="16px" viewBox="40 -920 880 880" width="16px" fill="#FF5370">
  <path
      d="M360-80q-116 0-198-82T80-360q0-116 82-198t198-82q116 0 198 82t82 198q0 116-82 198T360-80Zm0-80q83 0 141.5-58.5T560-360q0-83-58.5-141.5T360-560q-83 0-141.5 58.5T160-360q0 83 58.5 141.5T360-160Zm318-172q2-6 2-13v-15q0-133-93.5-226.5T360-680h-15q-7 0-13 2 26-88 98.5-145T600-880q116 0 198 82t82 198q0 97-57 169.5T678-332Z"/>
</svg>
