<svg xmlns="http://www.w3.org/2000/svg" width="16" height="16"  viewBox="0 -960 960 960"><path fill="#FC0" d="M92-120q-9 0-15.652-4.125T66-135q-4.167-6.6-4.583-14.3T66-165l388-670q5-8 11.5-11.5T480-850t14.5 3.5T506-835l388 670q5 8 4.583 15.7T894-135q-3.696 6.75-10.348 10.875T868-120zm52-60h672L480-760zm340.175-57q12.825 0 21.325-8.675t8.5-21.5-8.675-21.325-21.5-8.5-21.325 8.675-8.5 21.5 8.675 21.325 21.5 8.5m0-111q12.825 0 21.325-8.625T514-378v-164q0-12.75-8.675-21.375t-21.5-8.625-21.325 8.625T454-542v164q0 12.75 8.675 21.375t21.5 8.625M480-470"/></svg>