<!--
  - The MIT License (MIT)
  -
  - Copyright (c) 2015-2021 Elior "Mallowigi" Boukhobza
  -
  - Permission is hereby granted, free of charge, to any person obtaining a copy
  - of this software and associated documentation files (the "Software"), to deal
  - in the Software without restriction, including without limitation the rights
  - to use, copy, modify, merge, publish, distribute, sublicense, and/or sell
  - copies of the Software, and to permit persons to whom the Software is
  - furnished to do so, subject to the following conditions:
  -
  - The above copyright notice and this permission notice shall be included in all
  - copies or substantial portions of the Software.
  -
  - THE SOFTWARE IS PROVIDED "AS IS", WITHOUT WARRANTY OF ANY KIND, EXPRESS OR
  - IMPLIED, INCLUDING BUT NOT LIMITED TO THE WARRANTIES OF MERCHANTABILITY,
  - FITNESS FOR A PARTICULAR PURPOSE AND NONINFRINGEMENT. IN NO EVENT SHALL THE
  - AUTHORS OR COPYRIGHT HOLDERS BE LIABLE FOR ANY CLAIM, DAMAGES OR OTHER
  - LIABILITY, WHETHER IN AN ACTION OF CONTRACT, TORT OR OTHERWISE, ARISING FROM,
  - OUT OF OR IN CONNECTION WITH THE SOFTWARE OR THE USE OR OTHER DEALINGS IN THE
  - SOFTWARE.
  -
  -
  -->

<svg xmlns="http://www.w3.org/2000/svg" width="13px" height="13px" viewBox="0 0 16 16">
  <path fill="#f9bd3a" fill-rule="evenodd"
        d="M10.9783571,0.0186120116 C9.5845391,0.0132095391 8.03946218,0.44876513 7.20679443,0.962366925 C6.89555065,1.15434663 6.57617975,1.36929026 6.25612556,1.59614617 C6.25612556,1.59614617 3.3680801,3.81991097 2.47073498,4.93904361 C2.35054941,5.08893411 2.24112292,5.25051159 2.14577892,5.42071584 C2.13935319,5.43293418 2.13249749,5.4452731 2.12618938,5.45759027 C2.11727278,5.473978 2.10832741,5.49060542 2.09968589,5.50714028 C2.09763936,5.51128497 2.09595678,5.51566086 2.09392426,5.51981587 C1.95214245,5.80965478 1.84409447,6.12352291 1.79086255,6.44052426 C1.79041637,6.44319029 1.79015087,6.44592231 1.78971206,6.44859055 C1.78811909,6.45972625 1.78657036,6.47082509 1.78510276,6.482008 C1.73686511,6.84959701 1.75673121,7.24181925 1.90724931,7.57441295 C2.09022428,7.97872558 2.39479098,8.28049705 2.83602413,8.5285388 C3.26153144,8.7677399 4.0402047,8.97103194 4.0402047,8.97103194 L4.02752911,8.97679357 C4.67649767,9.09190005 5.34876866,9.05324533 6.00492036,8.98946916 C6.32665971,8.95819706 6.64852996,8.92278581 6.97056947,8.88230285 C6.97079071,8.88230801 6.97150239,8.88229769 6.97171995,8.88230285 C6.97391767,8.88233972 6.98090316,8.88226598 6.98324321,8.88230285 C6.96201976,8.77423091 6.92773982,8.56728424 6.9694153,8.55619462 C7.41052197,8.43881926 7.67313095,8.3680045 8.01687954,8.2485236 C8.34556898,8.13427704 8.58611453,8.03018126 8.85231582,7.88323629 C8.91883287,7.84651858 8.97149029,7.78532288 9.04129727,7.75532812 C9.26170052,7.66062463 9.50709985,7.6384336 9.74421607,7.60206877 C9.93366324,7.57301467 10.1252967,7.55397382 10.316922,7.55021411 C10.4412158,7.54777671 10.5670664,7.54504947 10.6891233,7.56865132 C10.782611,7.58672864 10.8771704,7.61291207 10.9587676,7.66198972 C11.0133461,7.69481681 11.0639526,7.73925566 11.0993513,7.79220255 C11.1182369,7.83244509 11.1338551,7.87480827 11.1489013,7.91665374 C11.8457871,7.65553301 12.5536364,7.3406866 13.0917228,6.83001042 C13.8876507,6.07462742 14.5200376,5.08739497 14.8328873,4.03562011 C15.0028408,3.46425083 15.0323506,2.82219659 14.870914,2.24836263 C14.7711086,1.89359928 14.6172437,1.66527909 14.2740092,1.3172833 C13.5718769,0.605411392 12.5489946,0.165167954 11.5556724,0.0508771369 C11.371777,0.0297182209 11.1774739,0.0193837934 10.9783571,0.0186120116 Z M6.25612556,1.59614617 C6.11353436,1.69721566 5.97048813,1.80071555 5.82861265,1.90612184 L6.25612556,1.59614617 Z M9.26254384,2.26795217 C9.71410146,2.26661732 9.96431032,2.3359394 9.96431032,2.3359394 C9.96431032,2.3359394 9.22140046,2.40527033 8.80852744,2.47882781 C8.48150214,2.53709052 7.95547624,2.63837351 7.54557825,2.77728022 C6.7463239,3.04813212 5.98600194,3.42682624 5.23516481,3.81206888 C4.6580553,4.1081746 4.10506977,4.45024946 3.552769,4.79039357 C3.17528916,5.02287099 2.43846985,5.51635889 2.43846985,5.51635889 C2.43846985,5.51635889 3.06638569,4.70495736 4.7362077,3.76712817 C5.2136578,3.49897585 5.70092683,3.24743398 6.20081392,3.02387796 C6.59143249,2.84918831 6.98749372,2.68268809 7.39692821,2.5583383 C7.70799868,2.46386269 8.02900496,2.39842201 8.34990173,2.34631033 C8.58370183,2.30834258 8.83224359,2.28443209 9.05627751,2.2737138 C9.12883163,2.27024392 9.19803572,2.26814281 9.26254384,2.26795217 Z M3.53433178,3.04231518 C3.38643656,3.04318542 3.25961323,3.21677621 3.18172006,3.34768154 C3.08190393,3.51542811 3.03755063,3.80329904 3.01693745,4.03331545 C3.33741164,3.75922008 3.6572195,3.50424521 3.87887723,3.33154898 C3.7932371,3.18767307 3.68595464,3.06328677 3.56429226,3.04461983 C3.55425467,3.04307848 3.54419164,3.04225618 3.53433178,3.04231518 Z M9.99081381,3.77519445 C9.99081381,3.77519445 8.59658465,4.30426655 7.9039516,4.58067026 C7.10605423,4.89908132 6.31067391,5.22544915 5.52094164,5.56360425 C4.96851771,5.80014634 4.41926166,6.04463413 3.8731156,6.2953312 C3.37101014,6.52581224 2.37509193,7.00516396 2.37509193,7.00516396 C2.37509193,7.00516396 3.22316065,6.30990471 4.79612865,5.62237287 C5.71407847,5.22114443 6.33305853,4.86962049 7.3208747,4.54725281 C7.78212402,4.39672696 8.23734622,4.22723218 8.70366578,4.0932364 C9.12833272,3.97120933 9.99081381,3.77519445 9.99081381,3.77519445 Z M10.4747907,5.19025066 C10.4747907,5.19025066 10.2790918,5.42328636 9.84216377,5.71225429 C9.62369864,5.85673863 9.43215257,6.00821989 9.21760313,6.14091953 C8.93990881,6.31267435 8.65486321,6.47247227 8.36142499,6.6156778 C7.99769562,6.79318725 7.62002956,6.94156921 7.24366886,7.09043607 C6.87474278,7.23636183 6.50367725,7.37828782 6.12591274,7.49951177 C5.65982401,7.64907851 5.18921264,7.78745423 4.71085653,7.89130257 C4.36376011,7.9666551 3.65878298,8.05838983 3.65878298,8.05838983 C3.65878298,8.05838983 4.52868026,7.76369788 4.96206358,7.61128738 C5.41964205,7.45036811 5.85355009,7.29851516 6.33102675,7.11809189 C6.8246013,6.93158583 7.17752388,6.79569544 7.59743291,6.62604873 C7.94077699,6.48733488 8.28648177,6.35324876 8.62185064,6.19623117 C8.87834917,6.07614038 9.12728733,5.93992218 9.37662411,5.80559269 C9.74609703,5.60654047 10.4747907,5.19025066 10.4747907,5.19025066 Z M11.4876852,6.1040451 C11.4876852,6.1040451 11.4760166,6.24859102 11.1085699,6.62489641 C10.9602142,6.77682864 10.698832,6.97289514 10.532407,7.07545584 C9.88741091,7.47293895 9.54371136,7.57441295 9.54371136,7.57441295 C9.54371136,7.57441295 10.1804701,7.15792881 10.4886186,6.93487208 C10.6700773,6.80352094 10.8489658,6.66697345 11.0209932,6.52349173 C11.1816392,6.38950333 11.4876852,6.1040451 11.4876852,6.1040451 Z M1.59496714,7.48107455 C1.37831955,7.57853072 1.11727293,7.69943091 0.94620766,7.79105022 C0.629024148,7.9609274 0.00490747677,8.25808957 0.0254992641,8.35453759 C0.0569752766,8.50196635 0.763554233,8.21680901 1.13173213,8.14366195 C1.36598026,8.0971231 1.59891308,8.04828624 1.83234628,7.99846888 C1.73816309,7.83376556 1.65629079,7.66034807 1.59496714,7.48107455 Z M10.2316499,7.71730136 C10.1378613,7.71790242 10.0376148,7.72339744 9.91591263,7.7368909 C9.54308302,7.77822714 9.44216029,7.81156088 9.14385427,7.90858746 C9.03757738,7.94315466 8.97486061,7.99873585 8.8914949,8.04456192 C8.74168737,8.126911 8.60058405,8.22628611 8.44439245,8.29576897 C8.21995403,8.39561201 7.98117625,8.45962344 7.74608296,8.53084345 C7.55223224,8.58956967 7.52541789,8.60105089 7.15954907,8.6887121 C7.09604209,8.70392833 7.15576944,8.80767454 7.21255606,8.88691215 C8.08055578,8.90450199 10.705941,8.94647579 10.740978,8.80048771 L10.9345687,7.99616423 C10.9518186,7.9900003 10.9691717,7.98399493 10.9864234,7.97772702 C10.9791518,7.9500841 10.9697455,7.92241943 10.9587676,7.90397816 C10.926765,7.85021782 10.8800617,7.8014289 10.8239454,7.77376533 C10.7296431,7.72727737 10.6177248,7.73463456 10.5128174,7.7276723 C10.4136935,7.7210939 10.3254386,7.71670215 10.2316499,7.71730136 Z M10.7064082,7.93393863 C10.8104464,7.93566804 10.894789,7.95150524 10.8942373,8.00307819 C10.89305,8.11409824 10.6544916,8.10864415 10.5450826,8.1194631 C9.83941441,8.18924243 9.59194312,8.17737292 9.11504613,8.17938405 C9.02342423,8.17977123 8.84079256,8.17016544 8.84079256,8.17016544 C8.84079256,8.17016544 9.29903588,8.06140395 9.70618931,8.01229679 C9.94292647,7.98374382 10.1738175,7.95422768 10.4010418,7.94661422 C10.4789866,7.94400351 10.6023699,7.9322107 10.7064082,7.93393863 Z M10.1659673,8.37643178 C10.250794,8.3748093 10.3356992,8.37746058 10.419479,8.38910736 C10.4857332,8.39831897 10.5604865,8.40164836 10.6119175,8.44441901 C10.6348766,8.46351148 10.6615173,8.50440006 10.6522489,8.52392949 C10.6334182,8.56360712 10.5624998,8.56549767 10.4114128,8.57578416 C10.2302553,8.58811792 10.0535896,8.60270507 9.8744289,8.60804929 C9.43021187,8.62129974 8.54118783,8.60574463 8.54118783,8.60574463 C8.54118783,8.60574463 8.81845145,8.53210271 8.95948213,8.50664461 C9.27408333,8.4498543 9.5922123,8.40859919 9.91130333,8.38910736 C9.99573176,8.38395011 10.0811407,8.37805462 10.1659673,8.37643178 Z"
        transform="translate(.5 3)" />
</svg>
