<!--
  - The MIT License (MIT)
  -
  - Copyright (c) 2015-2021 Elior "Mallowigi" Boukhobza
  -
  - Permission is hereby granted, free of charge, to any person obtaining a copy
  - of this software and associated documentation files (the "Software"), to deal
  - in the Software without restriction, including without limitation the rights
  - to use, copy, modify, merge, publish, distribute, sublicense, and/or sell
  - copies of the Software, and to permit persons to whom the Software is
  - furnished to do so, subject to the following conditions:
  -
  - The above copyright notice and this permission notice shall be included in all
  - copies or substantial portions of the Software.
  -
  - THE SOFTWARE IS PROVIDED "AS IS", WITHOUT WARRANTY OF ANY KIND, EXPRESS OR
  - IMPLIED, INCLUDING BUT NOT LIMITED TO THE WARRANTIES OF MERCHANTABILITY,
  - FITNESS FOR A PARTICULAR PURPOSE AND NONINFRINGEMENT. IN NO EVENT SHALL THE
  - AUTHORS OR COPYRIGHT HOLDERS BE LIABLE FOR ANY CLAIM, DAMAGES OR OTHER
  - LIABILITY, WHETHER IN AN ACTION OF CONTRACT, TORT OR OTHERWISE, ARISING FROM,
  - OUT OF OR IN CONNECTION WITH THE SOFTWARE OR THE USE OR OTHER DEALINGS IN THE
  - SOFTWARE.
  -
  -
  -->

<!DOCTYPE svg PUBLIC "-//W3C//DTD SVG 1.1//EN"
  "http://www.w3.org/Graphics/SVG/1.1/DTD/svg11.dtd">
<svg xmlns="http://www.w3.org/2000/svg" version="1.1" width="13px" height="13px" fill="#FFCB6B" viewBox="0 0 24 24">
  <path
    d="M2,5.69C8.92,1.07 11.1,7 11.28,10.27C11.46,13.53 8.29,17.64 4.31,14.92V20.3L2,18.77V5.69M4.22,7.4V12.78C7.84,14.95 9.08,13.17 9.08,10.09C9.08,5.74 6.57,5.59 4.22,7.4M15.08,4.15C15.08,4.15 14.9,7.64 15.08,11.07C15.44,14.5 19.69,11.84 19.69,11.84V4.92L22,5.2V14.44C22,20.6 15.85,20.3 15.85,20.3L15.08,18C20.46,18 19.78,14.43 19.78,14.43C13.27,16.97 12.77,12.61 12.77,12.61V5.69L15.08,4.15Z" />
</svg>
