<!--
  - The MIT License (MIT)
  -
  - Copyright (c) 2015-2021 Elior "Mallowigi" Boukhobza
  -
  - Permission is hereby granted, free of charge, to any person obtaining a copy
  - of this software and associated documentation files (the "Software"), to deal
  - in the Software without restriction, including without limitation the rights
  - to use, copy, modify, merge, publish, distribute, sublicense, and/or sell
  - copies of the Software, and to permit persons to whom the Software is
  - furnished to do so, subject to the following conditions:
  -
  - The above copyright notice and this permission notice shall be included in all
  - copies or substantial portions of the Software.
  -
  - THE SOFTWARE IS PROVIDED "AS IS", WITHOUT WARRANTY OF ANY KIND, EXPRESS OR
  - IMPLIED, INCLUDING BUT NOT LIMITED TO THE WARRANTIES OF MERCHANTABILITY,
  - FITNESS FOR A PARTICULAR PURPOSE AND NONINFRINGEMENT. IN NO EVENT SHALL THE
  - AUTHORS OR COPYRIGHT HOLDERS BE LIABLE FOR ANY CLAIM, DAMAGES OR OTHER
  - LIABILITY, WHETHER IN AN ACTION OF CONTRACT, TORT OR OTHERWISE, ARISING FROM,
  - OUT OF OR IN CONNECTION WITH THE SOFTWARE OR THE USE OR OTHER DEALINGS IN THE
  - SOFTWARE.
  -
  -
  -->


<svg xmlns="http://www.w3.org/2000/svg" version="1.1" width="16px" height="16px" fill="#e06c75" viewBox="2 2 20 20">
  <path
    d="M4.5,9C3.9,9 3.5,9.5 3.5,10V11.75C3.5,12.25 3.9,12.75 4.5,12.75H7V13.5H3.5V15H7.5C8.1,15 8.5,14.5 8.5,14V12.25C8.5,11.75 8.1,11.25 7.5,11.25H5V10.5H8.5V9H4.5M10.5,9C9.9,9 9.5,9.5 9.5,10V11.75C9.5,12.25 9.9,12.75 10.5,12.75H13V13.5H9.5V15H13.5C14.1,15 14.5,14.5 14.5,14V12.25C14.5,11.75 14.1,11.25 13.5,11.25H11V10.5H14.5V9H10.5M15.5,9V15H17V12.5H19V15H20.5V9H19V11H17V9H15.5Z" />
</svg>
