<!--
  - The MIT License (MIT)
  -
  - Copyright (c) 2015-2024 Elior "Mallowigi" Boukhobza
  -
  - Permission is hereby granted, free of charge, to any person obtaining a copy
  - of this software and associated documentation files (the "Software"), to deal
  - in the Software without restriction, including without limitation the rights
  - to use, copy, modify, merge, publish, distribute, sublicense, and/or sell
  - copies of the Software, and to permit persons to whom the Software is
  - furnished to do so, subject to the following conditions:
  -
  - The above copyright notice and this permission notice shall be included in all
  - copies or substantial portions of the Software.
  -
  - THE SOFTWARE IS PROVIDED "AS IS", WITHOUT WARRANTY OF ANY KIND, EXPRESS OR
  - IMPLIED, INCLUDING BUT NOT LIMITED TO THE WARRANTIES OF MERCHANTABILITY,
  - FITNESS FOR A PARTICULAR PURPOSE AND NONINFRINGEMENT. IN NO EVENT SHALL THE
  - AUTHORS OR COPYRIGHT HOLDERS BE LIABLE FOR ANY CLAIM, DAMAGES OR OTHER
  - LIABILITY, WHETHER IN AN ACTION OF CONTRACT, TORT OR OTHERWISE, ARISING FROM,
  - OUT OF OR IN CONNECTION WITH THE SOFTWARE OR THE USE OR OTHER DEALINGS IN THE
  - SOFTWARE.
  -->

<svg xmlns="http://www.w3.org/2000/svg" viewBox="0 0 24 24" data-big="true" width="16px" height="16px">
  <path fill="#4DB6AC"
        d="M19 13C16.83 13 14.93 14.16 13.88 15.89C13.28 15.96 12.65 16 12 16C7.58 16 4 14.21 4 12V9C4 11.21 7.58 13 12 13S20 11.21 20 9V12C20 12.36 19.9 12.71 19.72 13.05C19.5 13 19.24 13 19 13M12 11C16.42 11 20 9.21 20 7S16.42 3 12 3 4 4.79 4 7 7.58 11 12 11M13.1 17.96C12.74 18 12.37 18 12 18C7.58 18 4 16.21 4 14V17C4 19.21 7.58 21 12 21C12.46 21 12.9 21 13.33 20.94C13.12 20.33 13 19.68 13 19C13 18.64 13.04 18.3 13.1 17.96M20 20V16H18V20H16L19 23L22 20H20Z"/>
</svg>
