<svg xmlns="http://www.w3.org/2000/svg" xml:space="preserve" width="16" height="16"  viewBox="0 0 70 70"><path d="M66.9 47.5c-.2-.2-13.1-12.6-13.1-12.6s9.8-10.4 12.4-13c.8-.8 1.5-1.6 2-2.6 3.6-6.1 1.5-13.9-4.6-17.5-4.5-2.6-10.1-2.2-14.1.8-.7.5-1.3 1-1.9 1.6-.3.4-13.9 12.8-25.7 23.6l22.1 14-23.2 26.1c-1.4 1-2.8 1.6-4.3 1.9.3 0 .5 0 .8-.1 4.6-.7 43.9-7.3 45.8-7.7 2.3-.4 4.4-1.8 5.7-3.9C71 54.5 70 50 66.9 47.5" style="fill:#26a2c1;fill-rule:evenodd"/><path d="M45.9 30.5c-.4-2.7-1.8-4.9-3.8-6.5C40 22.4 23.8 5.6 22 3.7 19.2 1 15.2-.5 11.1.2 4.1 1.2-.8 7.8.3 14.8c.5 3.5 2.5 6.5 5.1 8.4 2.6 2 23 16 24.3 17 2.1 1.6 4.9 2.5 7.7 2 5.5-1 9.4-6.2 8.5-11.7" style="fill:#ff5370;fill-rule:evenodd"/><path d="M23 67.8c.1 0 23.3-26.1 23.3-26.1L22.9 26.9c-8.3 7.6-16 14.5-17.8 16.2-1.1 1-2.2 2.3-3 3.7-4.3 7.4-1.8 16.8 5.6 21.1 3 1.7 9.8 3.8 15.3-.1" style="fill:#7963e6;fill-rule:evenodd"/><path d="M13.4 13.4h43.2v43.2H13.4z" style="fill:#222;fill-rule:evenodd"/><path d="M17.4 48.5h16.2v2.7H17.4zM23.8 29.9 17 19.1h4.6l4.2 7.1 4.4-7.1h4.5l-6.9 10.7V37h-4zM41.6 22.7h-5.5v-3.6H51v3.6h-5.5V37h-3.9z" style="fill:#fff"/></svg>