<svg xmlns="http://www.w3.org/2000/svg" width="16" height="16" data-big="true" viewBox="0 0 512 512"><path fill="#7477ae" d="M128.611 183.201H38.815L0 379.745h46.103l9.71-50.946h43.68c41.238 2.421 87.364-31.55 87.364-89.785 0-33.972-19.43-53.39-58.246-55.813M94.628 292.405H65.499l12.132-72.787h31.55c16.974 0 29.128 7.287 29.128 21.84-2.421 41.26-21.84 48.525-43.681 50.947M291.17 183.213l-43.681-.012 9.71-50.946h-46.104l-38.815 196.544h46.103l21.84-109.181h36.394c16.998 0 16.998 7.288 14.553 19.419l-16.974 89.784h48.525l16.974-99.494c4.844-24.262-9.71-43.692-48.525-46.114m162.583-.012H363.96l-38.816 196.544h46.103l9.71-50.946h43.681c41.26 2.421 87.363-31.55 87.363-89.785 0-33.972-19.43-53.39-58.246-55.813m-33.983 109.204h-29.128l12.13-72.787h31.551c16.997 0 29.128 7.287 29.128 21.84-2.421 41.26-21.84 48.525-43.68 50.947"/></svg>