<svg xmlns="http://www.w3.org/2000/svg" width="16" height="16"  viewBox="-48 -48 608 608"><path fill="gray" d="m452.033 334.6-99.945 99.945V294.622h59.967zm59.967 0L352.088 494.512 192.176 334.6l79.956-79.956h159.912zM352.088 464.53 482.017 334.6l-59.967-59.967H282.127L222.16 334.6zM267.579 225.17h31.975l-23.864-37.418V61.975h26.075c19.505 0 19.505-27.595 0-27.595h-189.93c-19.504 0-19.504 27.595 0 27.595h26.075v125.778L5.765 406.897c-12.407 21.116-4.619 34.31 21.73 34.31h155.97v-27.595H33.914l131.958-218.809V61.975h81.854v132.828zM207.974 385.91l-50.154-51.73 84.415-89.754h-72.72L84.69 385.907z" class="i-color"/></svg>