<svg xmlns="http://www.w3.org/2000/svg" width="16" height="16" fill="#C792EA" viewBox="0 0 24 24">
  <path
      d="M5 9.5 7.5 14h-5zM3 4h4v4H3zm2 16a2 2 0 0 0 2-2 2 2 0 0 0-2-2 2 2 0 0 0-2 2 2 2 0 0 0 2 2M9 5v2h12V5zm0 14h12v-2H9zm0-6h12v-2H9z"/>
  <path fill="#4CAF50"
        d="M21.5 13 19 15.25v5.5l2.5-2.25zm-6.25 1.5c-.975 0-2.025.2-2.75.75v7.33c0 .125.125.25.25.25.05 0 .075-.035.125-.035.675-.325 1.65-.545 2.375-.545.975 0 2.025.2 2.75.75.675-.425 1.9-.75 2.75-.75.825 0 1.675.155 2.375.53.05.025.075.015.125.015.125 0 .25-.125.25-.25V15.25a3.4 3.4 0 0 0-1-.5v6.75a5.8 5.8 0 0 0-1.75-.25c-.85 0-2.075.325-2.75.75v-6.75c-.725-.55-1.775-.75-2.75-.75"/>
  <path fill="#FFCB6B"
        d="M14.84 9.87a5 5 0 0 0 2.66 1.105v-1.01a3.97 3.97 0 0 1-1.95-.81m2.95.81v1.01c1-.1 1.92-.5 2.66-1.105l-.715-.715c-.55.43-1.215.72-1.945.81m2.655-1.515.715.715A5 5 0 0 0 22.975 6.5h-1.01a3.97 3.97 0 0 1-.81 1.95M19.5 6A1.5 1.5 0 0 0 18 4.5 1.5 1.5 0 0 0 16.5 6 1.5 1.5 0 0 0 18 7.5 1.5 1.5 0 0 0 19.5 6m-5.465.5h-1.01c.1 1 .5 1.92 1.105 2.66l.715-.715a3.93 3.93 0 0 1-.81-1.945m.81-2.95-.715-.71a5 5 0 0 0-1.105 2.66h1.01c.09-.73.38-1.395.81-1.95m7.12 1.95h1.01c-.1-1-.5-1.92-1.105-2.66l-.715.71c.43.555.72 1.22.81 1.95m-.805-3.37a5 5 0 0 0-2.66-1.105v1.01c.73.09 1.395.38 1.95.81m-2.95-.81v-1.01c-1 .1-1.92.5-2.66 1.105l.71.715a3.97 3.97 0 0 1 1.95-.81"/>
</svg>