<svg xmlns="http://www.w3.org/2000/svg" width="13" height="9" fill="#C792EA" viewBox="0 0 24 24"><path fill="#4CAF50" d="m19 2-5 4.5v11l5-4.5zM6.5 5C4.55 5 2.45 5.4 1 6.5v14.66c0 .25.25.5.5.5.1 0 .15-.07.25-.07 1.35-.65 3.3-1.09 4.75-1.09 1.95 0 4.05.4 5.5 1.5 1.35-.85 3.8-1.5 5.5-1.5 1.65 0 3.35.31 4.75 1.06.1.05.15.03.25.03.25 0 .5-.25.5-.5V6.5c-.6-.45-1.25-.75-2-1V19c-1.1-.35-2.3-.5-3.5-.5-1.7 0-4.15.65-5.5 1.5V6.5C10.55 5.4 8.45 5 6.5 5"/><path fill="#F44336" d="M20.71 7.04c.39-.39.39-1.04 0-1.41l-2.34-2.34c-.37-.39-1.02-.39-1.41 0l-1.84 1.83 3.75 3.75M3 17.25V21h3.75L17.81 9.93l-3.75-3.75z"/></svg>