<!--
  - The MIT License (MIT)
  -
  - Copyright (c) 2015-2021 Elior "Mallowigi" Boukhobza
  -
  - Permission is hereby granted, free of charge, to any person obtaining a copy
  - of this software and associated documentation files (the "Software"), to deal
  - in the Software without restriction, including without limitation the rights
  - to use, copy, modify, merge, publish, distribute, sublicense, and/or sell
  - copies of the Software, and to permit persons to whom the Software is
  - furnished to do so, subject to the following conditions:
  -
  - The above copyright notice and this permission notice shall be included in all
  - copies or substantial portions of the Software.
  -
  - THE SOFTWARE IS PROVIDED "AS IS", WITHOUT WARRANTY OF ANY KIND, EXPRESS OR
  - IMPLIED, INCLUDING BUT NOT LIMITED TO THE WARRANTIES OF MERCHANTABILITY,
  - FITNESS FOR A PARTICULAR PURPOSE AND NONINFRINGEMENT. IN NO EVENT SHALL THE
  - AUTHORS OR COPYRIGHT HOLDERS BE LIABLE FOR ANY CLAIM, DAMAGES OR OTHER
  - LIABILITY, WHETHER IN AN ACTION OF CONTRACT, TORT OR OTHERWISE, ARISING FROM,
  - OUT OF OR IN CONNECTION WITH THE SOFTWARE OR THE USE OR OTHER DEALINGS IN THE
  - SOFTWARE.
  -
  -
  -->


<svg big="true" xmlns="http://www.w3.org/2000/svg" version="1.1" width="16px" height="16px" viewBox="0 0 24 24">
  <path fill="#F06292"
        d="M4,1H20A1,1 0 0,1 21,2V6A1,1 0 0,1 20,7H8.82L6.82,5H7V3H5V3.18L3.21,1.39C3.39,1.15 3.68,1 4,1M22,22.72L20.73,24L19.73,23H4A1,1 0 0,1 3,22V18A1,1 0 0,1 4,17H13.73L11.73,15H4A1,1 0 0,1 3,14V10A1,1 0 0,1 4,9H5.73L3.68,6.95C3.38,6.85 3.15,6.62 3.05,6.32L1,4.27L2.28,3L22,22.72M20,9A1,1 0 0,1 21,10V14A1,1 0 0,1 20,15H16.82L10.82,9H20M20,17A1,1 0 0,1 21,18V19.18L18.82,17H20M9,5H10V3H9V5M9,13H9.73L9,12.27V13M9,21H10V19H9V21M5,11V13H7V11H5M5,19V21H7V19H5Z" />
</svg>
