<svg xmlns="http://www.w3.org/2000/svg" width="16" height="16" data-big="true" viewBox="0 0 24 24"><path fill="#FFD54F" d="M6 17c0-2 4-3.1 6-3.1s6 1.1 6 3.1v1H6m9-9a3 3 0 0 1-3 3 3 3 0 0 1-3-3 3 3 0 0 1 3-3 3 3 0 0 1 3 3M3 5v14a2 2 0 0 0 2 2h14a2 2 0 0 0 2-2V5a2 2 0 0 0-2-2H5a2 2 0 0 0-2 2"/><path fill="#4DD0E1" d="M22.25 17.5h-.75v-2a1 1 0 0 0-1-1h-2v-.75a1.25 1.25 0 0 0-1.25-1.25A1.25 1.25 0 0 0 16 13.75v.75h-2a1 1 0 0 0-1 1v1.9h.75c.75 0 1.35.6 1.35 1.35s-.6 1.35-1.35 1.35H13V22a1 1 0 0 0 1 1h1.9v-.75c0-.75.6-1.35 1.35-1.35s1.35.6 1.35 1.35V23h1.9a1 1 0 0 0 1-1v-2h.75a1.25 1.25 0 0 0 1.25-1.25 1.25 1.25 0 0 0-1.25-1.25"/></svg>