<svg xmlns="http://www.w3.org/2000/svg" width="16" height="16">
  <g fill="gray" fill-rule="evenodd" data-themed="true">
    <g transform="translate(.4 5.6)">
      <path
          d="M14.85 2.439c-.039-.031-.4-.304-1.162-.304q-.304 0-.601.052C12.939 1.175 12.103.682 12.066.66L11.86.542l-.134.195a2.7 2.7 0 0 0-.364.85c-.137.578-.054 1.12.24 1.583-.355.198-.923.246-1.038.25H.6q-.075 2.072.412 3.176C1.5 7.7 2.042 8.409 2.945 8.84c.903.43 1.459.576 2.753.576a9.4 9.4 0 0 0 1.743-.158 7.3 7.3 0 0 0 2.274-.826 6.3 6.3 0 0 0 1.552-1.27c.745-.844 1.19-2.384 1.52-3.218h.13c.817 0 1.318-.327 1.595-.6a1.7 1.7 0 0 0 .42-.623l.059-.171z"/>
      <circle cx="4.75" cy="5.65" r="1.25" fill="#FFF"/>
      <circle cx="4.75" cy="5.65" r="1" fill-rule="nonzero"/>
    </g>
    <path fill-rule="nonzero" d="M3 5h3v3H3zM7 5h3v3H7zM5 1h3v3H5z"/>
  </g>
</svg>