<!--
  - The MIT License (MIT)
  -
  - Copyright (c) 2015-2021 Elior "Mallowigi" Boukhobza
  -
  - Permission is hereby granted, free of charge, to any person obtaining a copy
  - of this software and associated documentation files (the "Software"), to deal
  - in the Software without restriction, including without limitation the rights
  - to use, copy, modify, merge, publish, distribute, sublicense, and/or sell
  - copies of the Software, and to permit persons to whom the Software is
  - furnished to do so, subject to the following conditions:
  -
  - The above copyright notice and this permission notice shall be included in all
  - copies or substantial portions of the Software.
  -
  - THE SOFTWARE IS PROVIDED "AS IS", WITHOUT WARRANTY OF ANY KIND, EXPRESS OR
  - IMPLIED, INCLUDING BUT NOT LIMITED TO THE WARRANTIES OF MERCHANTABILITY,
  - FITNESS FOR A PARTICULAR PURPOSE AND NONINFRINGEMENT. IN NO EVENT SHALL THE
  - AUTHORS OR COPYRIGHT HOLDERS BE LIABLE FOR ANY CLAIM, DAMAGES OR OTHER
  - LIABILITY, WHETHER IN AN ACTION OF CONTRACT, TORT OR OTHERWISE, ARISING FROM,
  - OUT OF OR IN CONNECTION WITH THE SOFTWARE OR THE USE OR OTHER DEALINGS IN THE
  - SOFTWARE.
  -
  -
  -->

<svg xmlns="http://www.w3.org/2000/svg" width="16" height="16" viewBox="0 0 16 16">
    <path fill="#64B5F6" fill-rule="evenodd"
          d="M12,15 L11,15 L11,13 L5,13 L5,15 L4,15 L4,14 L3,14 L3,15 L2,15 L2,1 L5,1 L5,5 L11,5 L11,1 L14,1 L14,15 L13,15 L13,14 L12,14 L12,15 Z M5,6 L5,12 L11,12 L11,6 L5,6 Z M3,2 L3,3 L4,3 L4,2 L3,2 Z M3,4 L3,5 L4,5 L4,4 L3,4 Z M3,6 L3,7 L4,7 L4,6 L3,6 Z M3,8 L3,9 L4,9 L4,8 L3,8 Z M3,10 L3,11 L4,11 L4,10 L3,10 Z M3,12 L3,13 L4,13 L4,12 L3,12 Z M12,12 L12,13 L13,13 L13,12 L12,12 Z M12,10 L12,11 L13,11 L13,10 L12,10 Z M12,8 L12,9 L13,9 L13,8 L12,8 Z M12,6 L12,7 L13,7 L13,6 L12,6 Z M12,4 L12,5 L13,5 L13,4 L12,4 Z M12,2 L12,3 L13,3 L13,2 L12,2 Z"/>
</svg>
