<svg xmlns="http://www.w3.org/2000/svg" width="16" height="16" data-big="true"><g fill="#9575CD" fill-rule="evenodd"><path fill-rule="nonzero" d="M8 10.583V8H3.18c.26-1.156.856-2.291 2.146-2.756 0 0 .277.658.634 1.23.396.633 1.428 1.071 2.632-.741 0 0-1.616 1.794-2.354.565-.465-.774-.306-.487-.786-1.422-.353-.688.058-.985.95-1.281.893-.296 2.865-.783 4.893.685s3.648-.651 3.123-1.681c-.223-.438-.555-.596-.805-.625a1.15 1.15 0 0 0-.709.124c-.072.039-.278.171-.394-.001a4 4 0 0 1-.232-.462c-.108-.257.46-.649 1.153-.635.564.012 1.363.257 1.81 1.078.858 1.494.1 3.2-.7 4.594s-2.07 2.142-1.647 4.52h-1.507S9.132 8.156 8 10.583"/><path d="M2.174 15.246.759 13.83l3.536-3.535 1.414 1.414z"/><path d="M7 14 2 9h5z"/></g></svg>