<svg xmlns="http://www.w3.org/2000/svg" xml:space="preserve" width="16" height="16"  viewBox="0 0 285.2 285.2"><g fill="#AB47BC"><path d="M75.972 278.092c-17.5-3.8-30.7-14.1-35.3-27.5-3.2-9.4-2.7-24.6 1.4-45.2 2-9.9 3.6-21.7 3.6-26.2 0-15.1-6.9-23.2-20.7-24.4l-7.9-.7v-19.299999999999997l7.5-1c10.9-1.5 15.2-4.2 18.5-11.8 2.5-5.6 2.8-8.4 2-18.1-.5-6.3-2.2-17.6-3.7-25.1-4-19-3.8-34.4.5-43.6 6.4-13.6 22-23.7 40.2-25.8l7.8-.9v20.4h-5.3c-7.2 0-17.2 5.1-19.8 10.1-2.5 4.8-2.6 11.6-.6 23.5 3.2 18.8 4.2 36.8 2.7 46.3-1.7 10.8-8 23.5-14.9 30.2l-4.8 4.6 6.5 8c8.1 9.9 11.2 16.8 13.1 28.9 1.5 9.6.3 29.5-2.7 45.4-4.3 22.2.7 31 18.9 33.6l6.8 1v9.9c.1 11.3.8 10.9-13.8 7.7M194.372 270.292v-9.8l8.3-1.7c9.2-1.9 16.4-7.5 18.1-14.1.5-2.1-.5-12.8-2.2-23.9-5.6-36.2-2.5-54.8 11.6-70l6-6.5-4.5-5.1c-16.1-18.3-18.9-34.6-12.8-74.4 3.1-20 3.1-20.2.4-25-3.2-5.6-13.3-11.2-20.1-11.2h-4.7v-10c0-11.4-.2-11.2 13.1-8.4 16.1 3.4 27.6 11.6 33.5 23.7 3.4 7 3.9 9.7 3.8 20.3-.1 6.7-1.4 19-3.1 27.2-6.1 30.6-5.5 38.8 3.1 46.7 4 3.7 6.6 4.7 13.6 5.5l8.7 1v19.6h-6.8c-8.7 0-15.9 3.7-19.6 10-3.9 6.6-3.6 21.1.7 42.1 3.7 17.9 4.3 34.3 1.6 43.4-2.8 9.7-15.5 21.4-27.3 25.4-5.1 1.7-12 3.5-15.4 4l-6.1.9z"/><path d="M111.372 254.092c-4.1-5.3-3.5-14.3 1.5-23.2 3.8-6.6 19.5-28.1 30.8-42.3l4.6-5.7-7.3-21.2c-8.2-23.7-8.1-24.2 2.7-25.8l5.9-.9 6.6 13.6c3.7 7.5 7.2 13.6 7.8 13.6s7.2-7.1 14.6-15.8c12.8-15.1 13.6-15.8 17.9-15 2.6.5 4.9.2 5.5-.7 1.3-2.1 5 1 5 4.2 0 1.3-1.8 4.6-4.1 7.3-9.2 11.2-28.8 37.5-28.8 38.8 0 .7 3.9 9.9 8.8 20.5l8.8 19.2-2.7 4c-1.5 2.2-2.7 4.6-2.7 5.3s-1.1 2-2.5 2.8c-3.4 2.1-5.9-.5-16.2-16.8-4.7-7.5-9-13.6-9.6-13.6-1.3 0-15.4 20.8-26.2 38.8-9.6 15.9-7.9 13.9-13.2 15.4-3.7 1-4.7.7-7.2-2.5M112.372 154.592c-8.7-15.6-24.4-38.2-30.7-44.3-3.2-3.1-5.8-6.4-5.8-7.3 0-2.4 6.5-4.9 12.9-4.9 6.9 0 14.2 6 20.7 17 2.4 4 4.7 7.3 5.2 7.3s3.3-6.7 6.2-14.9c6.3-17.6 22.8-51.7 29.3-60.5 5.6-7.5 13.9-11.6 23.9-11.6 13.1-.1 13.1.5.8 13.3-18.8 19.6-27.4 35.7-45.6 85.2-5 13.8-9.7 26.2-10.3 27.7-1 2.2-2 1.1-6.6-7"/></g></svg>