<!--
  - The MIT License (MIT)
  -
  - Copyright (c) 2015-2024 Elior "Mallowigi" Boukhobza
  -
  - Permission is hereby granted, free of charge, to any person obtaining a copy
  - of this software and associated documentation files (the "Software"), to deal
  - in the Software without restriction, including without limitation the rights
  - to use, copy, modify, merge, publish, distribute, sublicense, and/or sell
  - copies of the Software, and to permit persons to whom the Software is
  - furnished to do so, subject to the following conditions:
  -
  - The above copyright notice and this permission notice shall be included in all
  - copies or substantial portions of the Software.
  -
  - THE SOFTWARE IS PROVIDED "AS IS", WITHOUT WARRANTY OF ANY KIND, EXPRESS OR
  - IMPLIED, INCLUDING BUT NOT LIMITED TO THE WARRANTIES OF MERCHANTABILITY,
  - FITNESS FOR A PARTICULAR PURPOSE AND NONINFRINGEMENT. IN NO EVENT SHALL THE
  - AUTHORS OR COPYRIGHT HOLDERS BE LIABLE FOR ANY CLAIM, DAMAGES OR OTHER
  - LIABILITY, WHETHER IN AN ACTION OF CONTRACT, TORT OR OTHERWISE, ARISING FROM,
  - OUT OF OR IN CONNECTION WITH THE SOFTWARE OR THE USE OR OTHER DEALINGS IN THE
  - SOFTWARE.
  -->

<svg xmlns="http://www.w3.org/2000/svg" width="16" height="16" data-big="true" viewBox="0 0 460 512">
  <defs>
    <mask id="Mask">
      <path fill="white"
            d="M196.13.078C85.395-3.478 0 114.556 0 256.046 0 394.334 81.124 506.96 182.58 511.983 233.375 275.016 127.574 313.355 196.13.078m43.388 511.906C353.587 513.56 436 397.527 436 256.037 436 117.49 354.686 4.7 253.066.077c-68.934 297.995 30.137 265.972-13.548 511.907"/>
      <path fill="black" transform="translate(80, 600) scale(0.5)" stroke="black" stroke-width="120"
            d="m382-354 339-339q12-12 28-12t28 12q12 12 12 28.5T777-636L410-268q-12 12-28 12t-28-12L182-440q-12-12-11.5-28.5T183-497q12-12 28.5-12t28.5 12l142 143Z"/>
      <path fill="white" transform="translate(80, 600) scale(0.5)"
            d="m382-354 339-339q12-12 28-12t28 12q12 12 12 28.5T777-636L410-268q-12 12-28 12t-28-12L182-440q-12-12-11.5-28.5T183-497q12-12 28.5-12t28.5 12l142 143Z"/>
    </mask>
  </defs>
  <g mask="url(#Mask)">
    <path fill="#AB7967"
          d="M196.13.078C85.395-3.478 0 114.556 0 256.046 0 394.334 81.124 506.96 182.58 511.983 233.375 275.016 127.574 313.355 196.13.078m43.388 511.906C353.587 513.56 436 397.527 436 256.037 436 117.49 354.686 4.7 253.066.077c-68.934 297.995 30.137 265.972-13.548 511.907"/>
    <path fill="#81C784" transform="translate(80, 600) scale(0.5)"
          d="m382-354 339-339q12-12 28-12t28 12q12 12 12 28.5T777-636L410-268q-12 12-28 12t-28-12L182-440q-12-12-11.5-28.5T183-497q12-12 28.5-12t28.5 12l142 143Z"/>
  </g>
</svg>
