<svg xmlns="http://www.w3.org/2000/svg" width="16" height="16" fill="#4DD0E1" viewBox="0 0 24 24">
  <path
      d="M4 1c-1.11 0-2 .89-2 2v4c0 1.11.89 2 2 2H1v2h12V9h-3c1.11 0 2-.89 2-2V3c0-1.11-.89-2-2-2zm0 2h6v4H4zM3 13v7h7v-2H5v-5zm11 0c-1.11 0-2 .89-2 2v4c0 1.11.89 2 2 2h-3v2h12v-2h-3c1.11 0 2-.89 2-2v-4c0-1.11-.89-2-2-2zm0 2h6v4h-6z"/>
  <path fill="#F48FB1"
        d="M19.262 15.092h-3.063v-1.531h3.063m0 4.594h-3.063v-1.531h3.063m4.594-4.595h-2.151a4.6 4.6 0 0 0-1.394-1.5l1.248-1.249-1.08-1.08-1.661 1.662a4.6 4.6 0 0 0-2.167 0l-1.67-1.661-1.08 1.08 1.241 1.247a4.64 4.64 0 0 0-1.386 1.501h-2.151v1.532h1.6a5 5 0 0 0-.069.765v.766h-1.531v1.531h1.531v.766c0 .26.03.513.069.766h-1.6v1.531h2.151c.797 1.37 2.275 2.297 3.975 2.297s3.177-.926 3.974-2.297h2.151v-1.531h-1.6c.038-.253.069-.506.069-.766v-.766h1.531v-1.531h-1.531v-.766c0-.26-.03-.513-.069-.765h1.6z"/>
</svg>