<svg xmlns="http://www.w3.org/2000/svg" width="16" height="16" fill="#FDD835" viewBox="0 0 24 24">
  <defs>
    <mask id="a">
      <path fill="#fff" d="M0 0h24v24H0z"/>
      <circle cx="18" cy="18" r="8" fill="#000"/>
    </mask>
  </defs>
  <path
      d="M17 3a2 2 0 0 1 2 2v10a2 2 0 0 1-2 2h-4v2h1a1 1 0 0 1 1 1h7v2h-7a1 1 0 0 1-1 1h-4a1 1 0 0 1-1-1H2v-2h7a1 1 0 0 1 1-1h1v-2H7a2 2 0 0 1-2-2V5a2 2 0 0 1 2-2z"
      mask="url(#a)"/>
  <path fill="#BB80B3"
        d="M17.11 22.494c-.072-.47-.27-.851-.75-1.036-.189-.072-.352-.203-.537-.286a4 4 0 0 0-.647-.243c-.169-.045-.325.03-.425.178-.095.139-.026.27.053.386.089.13.188.254.288.377.165.203.341.398.502.604.154.198.285.416.263.677-.05.573-.309 1.047-.726 1.433a.28.28 0 0 1-.187.066 1.18 1.18 0 0 1-.704-.316c-.224-.213-.19-.465.079-.62.064-.037.13-.071.189-.116a.41.41 0 0 0 .13-.517.8.8 0 0 0-.16-.247c-.344-.313-.68-.635-1.048-.92-.89-.69-1.347-1.605-1.417-2.712a5.7 5.7 0 0 1 .855-3.427c.246-.399.532-.779.971-.976.299-.134.626-.21.946-.293.88-.232 1.767-.405 2.682-.25.788.132 1.365.538 1.63 1.313.174.506.215 1.03.161 1.567-.106 1.054-.885 1.996-1.9 2.275-.44.12-.68.053-.945-.313-.19-.264-.347-.551-.517-.83-.026-.04-.044-.088-.065-.133q-.031-.065-.065-.13c.064.457.17.897.42 1.29.134.213.314.37.578.394.97.087 1.79-.231 2.37-1.012.651-.873.795-1.877.606-2.935-.037-.208-.099-.413-.143-.62-.03-.135.024-.234.156-.28q.093-.031.185-.051a7.7 7.7 0 0 1 2.406-.146c.918.092 1.787.344 2.563.854 1.216.8 1.97 1.939 2.38 3.316.058.2.067.419.073.63.003.14-.087.176-.194.088a3 3 0 0 1-.327-.32c-.095-.106-.17-.229-.262-.341-.071-.088-.133-.075-.168.035q-.031.099-.059.199c-.212.758-.547 1.449-1.09 2.031a.57.57 0 0 0-.152.311c-.023.3-.04.604-.012.902.06.64.152 1.277.224 1.916.041.361-.075.574-.414.699a2.8 2.8 0 0 1-.747.169c-.4.028-.806.008-1.21.008-.01-.45.029-.892-.394-1.133.082-.334.176-.65.233-.975.047-.269.007-.533-.182-.754-.177-.208-.4-.265-.603-.146-.613.358-1.25.36-1.899.125-.298-.108-.506-.046-.67.225a1.64 1.64 0 0 0-.233.954c.025.418.098.832.154 1.249.03.233.005.293-.227.353-.514.13-1.036.144-1.562.102-.028-.003-.056-.014-.074-.019-.026-.436.02-.89-.5-1.122.23-.489.199-.996.12-1.502zm-3.107-1.712a.6.6 0 0 0 .16-.288c.053-.26-.141-.607-.366-.703q-.18-.08-.309.062-.309.35-.612.705a.7.7 0 0 0-.09.136c-.08.156-.032.27.14.312.105.026.213.031.32.046.279-.027.549-.073.757-.27m.023-2.592a.346.346 0 0 0-.338-.34.35.35 0 0 0-.344.352.346.346 0 0 0 .348.332.34.34 0 0 0 .335-.343"/>
</svg>