<!--
  - The MIT License (MIT)
  -
  - Copyright (c) 2015-2022 Elior "Mallowigi" Boukhobza
  -
  - Permission is hereby granted, free of charge, to any person obtaining a copy
  - of this software and associated documentation files (the "Software"), to deal
  - in the Software without restriction, including without limitation the rights
  - to use, copy, modify, merge, publish, distribute, sublicense, and/or sell
  - copies of the Software, and to permit persons to whom the Software is
  - furnished to do so, subject to the following conditions:
  -
  - The above copyright notice and this permission notice shall be included in all
  - copies or substantial portions of the Software.
  -
  - THE SOFTWARE IS PROVIDED "AS IS", WITHOUT WARRANTY OF ANY KIND, EXPRESS OR
  - IMPLIED, INCLUDING BUT NOT LIMITED TO THE WARRANTIES OF MERCHANTABILITY,
  - FITNESS FOR A PARTICULAR PURPOSE AND NONINFRINGEMENT. IN NO EVENT SHALL THE
  - AUTHORS OR COPYRIGHT HOLDERS BE LIABLE FOR ANY CLAIM, DAMAGES OR OTHER
  - LIABILITY, WHETHER IN AN ACTION OF CONTRACT, TORT OR OTHERWISE, ARISING FROM,
  - OUT OF OR IN CONNECTION WITH THE SOFTWARE OR THE USE OR OTHER DEALINGS IN THE
  - SOFTWARE.
  -
  -
  -->


<svg xmlns="http://www.w3.org/2000/svg" version="1.1" width="16px" height="16px" viewBox="0 0 24 24"
     fill="#4DB6AC">
  <g big="true">
      <path
            d="M3,1C1.89,1 1,1.89 1,3V14C1,15.11 1.89,16 3,16H5V14H3V3H14V5H16V3C16,1.89 15.11,1 14,1H3M9,7C7.89,7 7,7.89 7,9V11H9V9H11V7H9M13,7V9H14V10H16V7H13M18,7V9H20V20H9V18H7V20C7,21.11 7.89,22 9,22H20C21.11,22 22,21.11 22,20V9C22,7.89 21.11,7 20,7H18M14,12V14H12V16H14C15.11,16 16,15.11 16,14V12H14M7,13V16H10V14H9V13H7Z" />
  </g>
</svg>
