<!--
  - The MIT License (MIT)
  -
  - Copyright (c) 2015-2024 Elior "Mallowigi" Boukhobza
  -
  - Permission is hereby granted, free of charge, to any person obtaining a copy
  - of this software and associated documentation files (the "Software"), to deal
  - in the Software without restriction, including without limitation the rights
  - to use, copy, modify, merge, publish, distribute, sublicense, and/or sell
  - copies of the Software, and to permit persons to whom the Software is
  - furnished to do so, subject to the following conditions:
  -
  - The above copyright notice and this permission notice shall be included in all
  - copies or substantial portions of the Software.
  -
  - THE SOFTWARE IS PROVIDED "AS IS", WITHOUT WARRANTY OF ANY KIND, EXPRESS OR
  - IMPLIED, INCLUDING BUT NOT LIMITED TO THE WARRANTIES OF MERCHANTABILITY,
  - FITNESS FOR A PARTICULAR PURPOSE AND NONINFRINGEMENT. IN NO EVENT SHALL THE
  - AUTHORS OR COPYRIGHT HOLDERS BE LIABLE FOR ANY CLAIM, DAMAGES OR OTHER
  - LIABILITY, WHETHER IN AN ACTION OF CONTRACT, TORT OR OTHERWISE, ARISING FROM,
  - OUT OF OR IN CONNECTION WITH THE SOFTWARE OR THE USE OR OTHER DEALINGS IN THE
  - SOFTWARE.
  -->


<svg data-big="true" xmlns="http://www.w3.org/2000/svg" version="1.1" width="16px" height="16px" viewBox="0 0 24 24"
     fill="#64B5F6">
  <path
    d="M3.14,1A2.14,2.14 0 0,0 1,3.14V5H3V3H5V1H3.14M7,1V3H10V1H7M12,1V3H14V5H16V3.14C16,1.96 15.04,1 13.86,1H12M1,7V10H3V7H1M9,7C7.89,7 7,7.89 7,9C7,11.33 7,16 7,16C7,16 11.57,16 13.86,16A2.14,2.14 0 0,0 16,13.86C16,11.57 16,7 16,7C16,7 11.33,7 9,7M18,7V9H20V11H22V9C22,7.89 21.11,7 20,7H18M9,9H14V14H9V9M1,12V13.86C1,15.04 1.96,16 3.14,16H5V14H3V12H1M20,13V16H22V13H20M7,18V20C7,21.11 7.89,22 9,22H11V20H9V18H7M20,18V20H18V22H20C21.11,22 22,21.11 22,20V18H20M13,20V22H16V20H13Z"/>
</svg>
