<!--
  - The MIT License (MIT)
  -
  - Copyright (c) 2015-2024 Elior "Mallowigi" Boukhobza
  -
  - Permission is hereby granted, free of charge, to any person obtaining a copy
  - of this software and associated documentation files (the "Software"), to deal
  - in the Software without restriction, including without limitation the rights
  - to use, copy, modify, merge, publish, distribute, sublicense, and/or sell
  - copies of the Software, and to permit persons to whom the Software is
  - furnished to do so, subject to the following conditions:
  -
  - The above copyright notice and this permission notice shall be included in all
  - copies or substantial portions of the Software.
  -
  - THE SOFTWARE IS PROVIDED "AS IS", WITHOUT WARRANTY OF ANY KIND, EXPRESS OR
  - IMPLIED, INCLUDING BUT NOT LIMITED TO THE WARRANTIES OF MERCHANTABILITY,
  - FITNESS FOR A PARTICULAR PURPOSE AND NONINFRINGEMENT. IN NO EVENT SHALL THE
  - AUTHORS OR COPYRIGHT HOLDERS BE LIABLE FOR ANY CLAIM, DAMAGES OR OTHER
  - LIABILITY, WHETHER IN AN ACTION OF CONTRACT, TORT OR OTHERWISE, ARISING FROM,
  - OUT OF OR IN CONNECTION WITH THE SOFTWARE OR THE USE OR OTHER DEALINGS IN THE
  - SOFTWARE.
  -->

<svg data-big="true" version="1.1" xmlns="http://www.w3.org/2000/svg" viewBox="3 3 20 20" width="16px" height="16px"
     xml:space="preserve">
  <g fill="#FF8A65">
        <path d="M8.32,9.33c0,0.86-0.7,1.56-1.56,1.56c-0.86,0-1.56-0.7-1.56-1.56s0.7-1.56,1.56-1.56C7.62,7.76,8.32,8.46,8.32,9.33"/>
    <path
      d="M11.45,16.37c-1.15,0-2.09-0.94-2.09-2.09s0.94-2.09,2.09-2.09h3.95c0.68,0,1.23-0.55,1.23-1.23c0-0.68-0.55-1.23-1.23-1.23H6.76c-0.24,0-0.43-0.19-0.43-0.43c0-0.24,0.19-0.43,0.43-0.43h8.64c1.15,0,2.09,0.94,2.09,2.09s-0.94,2.09-2.09,2.09h-3.95c-0.68,0-1.23,0.55-1.23,1.23c0,0.68,0.55,1.23,1.23,1.23h8.73c0.24,0,0.43,0.19,0.43,0.43c0,0.24-0.19,0.43-0.43,0.43L11.45,16.37L11.45,16.37z"/>
    <path d="M18.62,15.94c0-0.86,0.7-1.56,1.56-1.56c0.86,0,1.56,0.7,1.56,1.56c0,0.86-0.7,1.56-1.56,1.56C19.32,17.5,18.62,16.8,18.62,15.94"/>
    </g>
</svg>
