<svg xmlns="http://www.w3.org/2000/svg" width="16" height="16" fill="none">
  <path fill="#DCE775" fill-rule="evenodd"
        d="M2 7.175C2 3.762 4.712 1 8.063 1c3.352 0 6.164 2.808 5.925 6.658-.24 3.851-3.453 6.785-7.082 7.342v-1.768C4.115 12.677 2 10.18 2 7.175M8 11.5a4.5 4.5 0 1 0 0-9 4.5 4.5 0 0 0 0 9"
        clip-rule="evenodd"/>
  <path fill="#DCE775"
        d="M7.003 5v1.886h1.164q.48 0 .742-.246.267-.246.266-.695 0-.442-.277-.692-.274-.255-.754-.254zm0 2.687V9.8H5.995V4.163h2.29q.886 0 1.406.477.52.472.52 1.285 0 .563-.282.996-.282.43-.781.61l1.23 2.27H9.226L8.12 7.686z"/>
</svg>