<svg xmlns="http://www.w3.org/2000/svg" width="16" height="16" fill="none">
  <path fill="#7986CB" fill-rule="evenodd"
        d="M2 7.175C2 3.762 4.712 1 8.063 1c3.352 0 6.164 2.808 5.925 6.658-.24 3.851-3.453 6.785-7.082 7.342v-1.768C4.115 12.677 2 10.18 2 7.175M8 11.5a4.5 4.5 0 1 0 0-9 4.5 4.5 0 0 0 0 9"
        clip-rule="evenodd"/>
  <path fill="#7986CB"
        d="M5.738 8.269h.984a.82.82 0 0 0 .394.605q.349.223.883.223.5 0 .82-.227.325-.23.325-.586a.6.6 0 0 0-.246-.496q-.242-.191-.785-.316l-.73-.168q-.766-.171-1.138-.559-.367-.39-.367-1.02 0-.769.574-1.234.579-.468 1.524-.468.886 0 1.469.46.582.462.617 1.188h-.965a.84.84 0 0 0-.356-.59q-.305-.218-.77-.218-.487 0-.784.218a.68.68 0 0 0-.293.575q0 .285.23.464.23.177.754.297l.649.149q.855.19 1.238.57.387.38.387 1.023 0 .825-.598 1.305-.594.477-1.617.477-.969 0-1.567-.453a1.56 1.56 0 0 1-.632-1.22"/>
</svg>