<svg xmlns="http://www.w3.org/2000/svg" width="14" height="14" viewBox="0 0 12 12"><path fill="#b0bec5" fill-rule="evenodd" d="M5.535 4.451a1.4 1.4 0 0 0-.477.454 2 2 0 0 0-.26.628 3 3 0 0 0-.078.697c0 .503.091.86.276 1.093a.93.93 0 0 0 .76.358 1 1 0 0 0 .91-.53q.139-.24.21-.57c.048-.213.08-.455.09-.715l.087-1.492L7 4.36a3 3 0 0 0-.747-.083q-.42 0-.718.173m-4.532 1.55c0-5 4.581-5 5.392-5 .419 0 4.605.107 4.605 4.445C11 8.511 9.094 8.5 8.713 8.5q-.932-.056-1.347-.736-.769.735-1.505.736c-1.011 0-2.36-.099-2.36-2.5C3.5 3.9 5.32 3.5 6 3.5c.19 0 2.18.069 2.28.099l-.1 2.636q-.092 1.257.61 1.321c.904 0 1.034-1.827 1.034-2.122 0-3.3-2.94-3.503-3.43-3.503-.681 0-4.216.133-4.216 4.07 0 .729 0 4.057 3.682 4.057.252 0 2.32-.254 2.842-.523v.938c-.384.156-1.337.527-2.83.527-.928 0-4.87 0-4.87-5"/></svg>