<svg xmlns="http://www.w3.org/2000/svg" width="14" height="14" fill="#C792EA" viewBox="0 0 24 24"><path d="M15.6 5.29c-1.1-.1-2.07.71-2.17 1.82L13.18 10H16v2h-3l-.44 5.07a3.986 3.986 0 0 1-4.33 3.63 4 4 0 0 1-3.06-1.87l1.5-1.5c.24.74.9 1.31 1.73 1.38 1.1.1 2.07-.71 2.17-1.82L11 12H8v-2h3.17l.27-3.07c.19-2.2 2.13-3.83 4.33-3.63 1.31.11 2.41.84 3.06 1.87l-1.5 1.5c-.24-.74-.9-1.31-1.73-1.38"/><path fill="#E57373" d="M19.5 12h-3V5.25l-2.625 2.625L12.06 6.06 18 .12l5.94 5.94-1.815 1.815L19.5 5.25z"/></svg>