<svg xmlns="http://www.w3.org/2000/svg" width="16" height="16" ><path fill="#BE1E2D" fill-rule="evenodd" d="M9.103 6.946a.372.372 0 1 1-.003.744.372.372 0 0 1 .003-.744m1.274.695a.465.465 0 1 1-.523.768.465.465 0 0 1 .523-.768m.834 1.61a.58.58 0 1 1-1.078.43.58.58 0 0 1 1.078-.43m-.26 2.251a.726.726 0 1 1-1.42-.307.726.726 0 0 1 1.42.307m-1.844 2.151a.907.907 0 1 1-1.256-1.31.907.907 0 0 1 1.256 1.31m-3.415.94a1.134 1.134 0 1 1-.386-2.235 1.134 1.134 0 0 1 .386 2.236m-4.196-1.412a1.418 1.418 0 1 1 1.164-2.587 1.418 1.418 0 0 1-1.164 2.587m4.466-4.407a.372.372 0 1 1 .645-.37.372.372 0 0 1-.645.37m-.036-1.45a.465.465 0 1 1 .928.069.465.465 0 0 1-.928-.07m.977-1.527a.58.58 0 1 1 .913.719.58.58 0 0 1-.913-.719m2.08-.9a.726.726 0 1 1 .444 1.383.726.726 0 0 1-.443-1.383m2.784.521a.907.907 0 1 1-.506 1.743.907.907 0 0 1 .506-1.743m2.522 2.487a1.135 1.135 0 1 1-1.744 1.452 1.135 1.135 0 0 1 1.744-1.452m.875 4.34a1.418 1.418 0 1 1-2.822.286 1.418 1.418 0 0 1 2.822-.286m-6.049-1.664a.372.372 0 1 1-.642-.374.372.372 0 0 1 .642.374m-1.238.756a.464.464 0 1 1-.404-.836.464.464 0 0 1 .404.836m-1.811-.082a.581.581 0 1 1 .166-1.15.581.581 0 0 1-.166 1.15m-1.82-1.352a.726.726 0 1 1 .976-1.076.726.726 0 0 1-.976 1.076m-.941-2.672a.908.908 0 1 1 1.763-.433.908.908 0 0 1-1.763.433m.893-3.428a1.135 1.135 0 1 1 2.13.785 1.135 1.135 0 0 1-2.13-.785M7.519.876a1.418 1.418 0 1 1 1.66 2.3 1.418 1.418 0 0 1-1.66-2.3"/></svg>