<!--
  - The MIT License (MIT)
  -
  - Copyright (c) 2015-2022 Elior "Mallowigi" Boukhobza
  -
  - Permission is hereby granted, free of charge, to any person obtaining a copy
  - of this software and associated documentation files (the "Software"), to deal
  - in the Software without restriction, including without limitation the rights
  - to use, copy, modify, merge, publish, distribute, sublicense, and/or sell
  - copies of the Software, and to permit persons to whom the Software is
  - furnished to do so, subject to the following conditions:
  -
  - The above copyright notice and this permission notice shall be included in all
  - copies or substantial portions of the Software.
  -
  - THE SOFTWARE IS PROVIDED "AS IS", WITHOUT WARRANTY OF ANY KIND, EXPRESS OR
  - IMPLIED, INCLUDING BUT NOT LIMITED TO THE WARRANTIES OF MERCHANTABILITY,
  - FITNESS FOR A PARTICULAR PURPOSE AND NONINFRINGEMENT. IN NO EVENT SHALL THE
  - AUTHORS OR COPYRIGHT HOLDERS BE LIABLE FOR ANY CLAIM, DAMAGES OR OTHER
  - LIABILITY, WHETHER IN AN ACTION OF CONTRACT, TORT OR OTHERWISE, ARISING FROM,
  - OUT OF OR IN CONNECTION WITH THE SOFTWARE OR THE USE OR OTHER DEALINGS IN THE
  - SOFTWARE.
  -
  -
  -->

<svg big="true" xmlns="http://www.w3.org/2000/svg" version="1.1" x="0px" y="0px" viewBox="0 0 100 100" width="16px"
     height="16px"
     xml:space="preserve" fill="#64B5F6">
    <g> <g>   <path
            d="M5273.1,2400.1v-2c0-2.8-5-4-9.7-4s-9.7,1.3-9.7,4v2c0,1.8,0.7,3.6,2,4.9l5,4.9c0.3,0.3,0.4,0.6,0.4,1v6.4     c0,0.4,0.2,0.7,0.6,0.8l2.9,0.9c0.5,0.1,1-0.2,1-0.8v-7.2c0-0.4,0.2-0.7,0.4-1l5.1-5C5272.4,2403.7,5273.1,2401.9,5273.1,2400.1z      M5263.4,2400c-4.8,0-7.4-1.3-7.5-1.8v0c0.1-0.5,2.7-1.8,7.5-1.8c4.8,0,7.3,1.3,7.5,1.8C5270.7,2398.7,5268.2,2400,5263.4,2400z"/>
        <path d="M5268.4,2410.3c-0.6,0-1,0.4-1,1c0,0.6,0.4,1,1,1h4.3c0.6,0,1-0.4,1-1c0-0.6-0.4-1-1-1H5268.4z"/>
        <path
                d="M5272.7,2413.7h-4.3c-0.6,0-1,0.4-1,1c0,0.6,0.4,1,1,1h4.3c0.6,0,1-0.4,1-1C5273.7,2414.1,5273.3,2413.7,5272.7,2413.7z"/>
        <path
                d="M5272.7,2417h-4.3c-0.6,0-1,0.4-1,1c0,0.6,0.4,1,1,1h4.3c0.6,0,1-0.4,1-1C5273.7,2417.5,5273.3,2417,5272.7,2417z"/> </g>
        <g>   <path
                d="M27.5,43.2h42.8c8.3,0,15-6.7,15-15s-6.7-15-15-15c-1.1,0-2.2,0.1-3.3,0.4C63.7,7.1,56.8,2.5,48.8,2.5     c-9.6,0-17.6,6.6-19.8,15.5c-0.5-0.1-1.1-0.2-1.6-0.2c-7,0-12.7,5.7-12.7,12.7C14.8,37.5,20.5,43.2,27.5,43.2z"/>
            <path
                    d="M33,63.8c0,0.7-0.6,1.3-1.3,1.3H26c-3.8,0-6.8,3.1-6.8,6.8v10c-3.1,1.1-5.3,4.1-5.3,7.5c0,4.4,3.6,8.1,8.1,8.1     s8.1-3.6,8.1-8.1c0-3.5-2.2-6.4-5.3-7.5v-10c0-0.7,0.6-1.3,1.3-1.3h5.7c3.8,0,6.8-3.1,6.8-6.8V49.3H33V63.8z"/>
            <path
                    d="M52.8,81.9V49.3h-5.6v32.6c-3.1,1.1-5.3,4.1-5.3,7.5c0,4.4,3.6,8.1,8.1,8.1s8.1-3.6,8.1-8.1C58.1,86,55.9,83,52.8,81.9z"/>
            <path
                    d="M80.9,81.9v-10c0-3.8-3.1-6.8-6.8-6.8h-5.7c-0.7,0-1.3-0.6-1.3-1.3V49.3h-5.6v14.4c0,3.8,3.1,6.8,6.8,6.8H74     c0.7,0,1.3,0.6,1.3,1.3v10C72.2,83,70,86,70,89.4c0,4.4,3.6,8.1,8.1,8.1c4.4,0,8.1-3.6,8.1-8.1C86.1,86,83.9,83,80.9,81.9z"/> </g>
    </g>
</svg>
