<svg xmlns="http://www.w3.org/2000/svg" xml:space="preserve" width="20" height="20" fill="#64B5F6" viewBox="0 0 100 100"><path d="M5273.1 2400.1v-2c0-2.8-5-4-9.7-4s-9.7 1.3-9.7 4v2c0 1.8.7 3.6 2 4.9l5 4.9c.3.3.4.6.4 1v6.4c0 .4.2.7.6.8l2.9.9c.5.1 1-.2 1-.8v-7.2c0-.4.2-.7.4-1l5.1-5c1.3-1.3 2-3.1 2-4.9m-9.7-.1c-4.8 0-7.4-1.3-7.5-1.8.1-.5 2.7-1.8 7.5-1.8s7.3 1.3 7.5 1.8c-.2.5-2.7 1.8-7.5 1.8"/><path d="M5268.4 2410.3c-.6 0-1 .4-1 1s.4 1 1 1h4.3c.6 0 1-.4 1-1s-.4-1-1-1zM5272.7 2413.7h-4.3c-.6 0-1 .4-1 1s.4 1 1 1h4.3c.6 0 1-.4 1-1s-.4-1-1-1M5272.7 2417h-4.3c-.6 0-1 .4-1 1s.4 1 1 1h4.3c.6 0 1-.4 1-1 0-.5-.4-1-1-1M27.5 43.2h42.8c8.3 0 15-6.7 15-15s-6.7-15-15-15c-1.1 0-2.2.1-3.3.4C63.7 7.1 56.8 2.5 48.8 2.5 39.2 2.5 31.2 9.1 29 18c-.5-.1-1.1-.2-1.6-.2-7 0-12.7 5.7-12.7 12.7.1 7 5.8 12.7 12.8 12.7M33 63.8c0 .7-.6 1.3-1.3 1.3H26c-3.8 0-6.8 3.1-6.8 6.8v10c-3.1 1.1-5.3 4.1-5.3 7.5 0 4.4 3.6 8.1 8.1 8.1s8.1-3.6 8.1-8.1c0-3.5-2.2-6.4-5.3-7.5v-10c0-.7.6-1.3 1.3-1.3h5.7c3.8 0 6.8-3.1 6.8-6.8V49.3H33zM52.8 81.9V49.3h-5.6v32.6c-3.1 1.1-5.3 4.1-5.3 7.5 0 4.4 3.6 8.1 8.1 8.1s8.1-3.6 8.1-8.1c0-3.4-2.2-6.4-5.3-7.5M80.9 81.9v-10c0-3.8-3.1-6.8-6.8-6.8h-5.7c-.7 0-1.3-.6-1.3-1.3V49.3h-5.6v14.4c0 3.8 3.1 6.8 6.8 6.8H74c.7 0 1.3.6 1.3 1.3v10C72.2 83 70 86 70 89.4c0 4.4 3.6 8.1 8.1 8.1 4.4 0 8.1-3.6 8.1-8.1-.1-3.4-2.3-6.4-5.3-7.5"/></svg>