<svg xmlns="http://www.w3.org/2000/svg" width="16" height="16" viewBox="0 -960 960 960">
  <path fill="#82AAFF"
        d="M483.175-280q12.825 0 21.325-8.625T513-310v-180q0-12.75-8.675-21.375t-21.5-8.625-21.325 8.625T453-490v180q0 12.75 8.675 21.375t21.5 8.625m-3.193-314q14.018 0 23.518-9.2T513-626q0-14.45-9.482-24.225-9.483-9.775-23.5-9.775-14.018 0-23.518 9.775T447-626q0 13.6 9.482 22.8 9.483 9.2 23.5 9.2m.284 514q-82.734 0-155.5-31.5t-127.266-86-86-127.341T80-480.5t31.5-155.659T197.5-763t127.341-85.5T480.5-880t155.659 31.5T763-763t85.5 127T880-480.266t-31.5 155.5T763-197.684t-127 86T480.266-80m.234-60Q622-140 721-239.5t99-241T721.188-721 480-820q-141 0-240.5 98.812Q140-622.375 140-480q0 141 99.5 240.5t241 99.5m-.5-340"/>
</svg>