<svg xmlns="http://www.w3.org/2000/svg" width="16" height="16"  viewBox="0 0 34 32"><path fill="#26A2C1" d="M5.852 8.2v-.54q.022-.097.041-.194A2.84 2.84 0 0 1 8.71 5.124c3.763.01 7.526.003 11.289.003h.185v.189c0 3.524.003 7.049-.003 10.573a19 19 0 0 1-.078 1.52 9.4 9.4 0 0 1-.473 2.188 11 11 0 0 1-3.339 4.955 10.94 10.94 0 0 1-4.413 2.303c-.674.175-1.357.301-2.054.323-.507.016-1.019.048-1.521-.006-1.128-.119-2.048-.946-2.34-2.042-.047-.177-.074-.358-.111-.537v-.405q.032-.158.061-.315c.252-1.367 1.482-2.345 2.918-2.3a6 6 0 0 0 1.284-.093c1.301-.247 2.374-.897 3.208-1.927.777-.96 1.193-2.062 1.203-3.298.014-1.768.004-3.537.004-5.305 0-.19 0-.191-.191-.191q-2.714.002-5.426-.002a4 4 0 0 1-.71-.056c-1.128-.215-1.868-.882-2.229-1.967-.057-.172-.082-.356-.122-.534M25.352 4.797c.18.034.362.056.539.103.821.217 1.356.76 1.694 1.517.232.521.35 1.072.379 1.641q.026.525.025 1.052c.002 4.816.005 9.632-.003 14.449-.001.772-.137 1.529-.513 2.22-.485.893-1.233 1.36-2.258 1.378-.639.011-1.219-.149-1.714-.561-.463-.386-.741-.895-.92-1.461a5.3 5.3 0 0 1-.242-1.59c-.004-5.055-.007-10.11.003-15.164.002-.819.158-1.616.593-2.332.436-.718 1.068-1.135 1.911-1.217.044-.004.086-.021.129-.032h.378z" class="i-color"/><path fill="#E79627" d="M5.852 15.871c.021-.085.046-.169.061-.254a3.23 3.23 0 0 1 2.677-2.645c1.735-.272 3.398.933 3.673 2.662a3.227 3.227 0 0 1-2.656 3.686c-1.756.291-3.409-.922-3.693-2.624-.016-.095-.042-.189-.063-.284v-.54z" class="i-color3"/></svg>