<svg xmlns="http://www.w3.org/2000/svg" xml:space="preserve" width="16" height="16" fill-rule="evenodd" stroke-linejoin="round" stroke-miterlimit="1.414" clip-rule="evenodd"  viewBox="0 0 24 24"><path fill="#78909C" d="M23.093 8.196V5.494h-5.404a2.7 2.7 0 0 0-2.702 2.702v2.702a2.7 2.7 0 0 0 2.702 2.701h2.702v2.702h-5.404v2.702h5.404a2.7 2.7 0 0 0 2.701-2.702v-2.702a2.7 2.7 0 0 0-2.701-2.701h-2.702V8.196m-6.754 8.105H8.233V8.196h2.702m0-2.702H8.233a2.7 2.7 0 0 0-2.701 2.702v8.105a2.7 2.7 0 0 0 2.701 2.702h2.702a2.7 2.7 0 0 0 2.702-2.702V8.196a2.7 2.7 0 0 0-2.702-2.702M1.479 19.003h2.702v-8.105H1.479m0-2.702h2.702V5.494H1.479z"/></svg>