<svg xmlns="http://www.w3.org/2000/svg" width="16" height="16" viewBox="0 -2 16 16">
  <path fill="#C792EA"
        d="M6.23 9.717c-.3.083-.838.283-.692.683a1.9 1.9 0 0 0 1.346.6 6.2 6.2 0 0 0 3.524-.535c-.374-.119-.725-.342-1.07-.479a6.7 6.7 0 0 1-3.079.023c.051-.12.51-.4.127-.313l-.156.012Zm-.322-1.471a.88.88 0 0 0-.782.688 1.44 1.44 0 0 0 1.134.552 10.05 10.05 0 0 0 4.445-.423 2.15 2.15 0 0 1-.886-.489 9.7 9.7 0 0 1-3.871.11c-.178-.094.182-.271.202-.366.358-.308-.125-.045-.243-.072Zm5.037-6.182a4.88 4.88 0 0 0-2.824 1.723 1.824 1.824 0 0 0 .4 2.158.847.847 0 0 1-.151 1.242c-.389.343.06.283.286.118a1.585 1.585 0 0 0 .932-1.685C9.4 5.081 8.707 4.633 8.953 4c.477-.868 1.472-1.249 2.221-1.839.288-.194-.117-.073-.228-.1Zm-6.094 8.624a2.83 2.83 0 0 0-1.77.7c-.229.271.1.581.37.612a19.9 19.9 0 0 0 7.121.095 3.37 3.37 0 0 0 1.789-.73c.207-.353-.28-.612-.565-.634a1.5 1.5 0 0 0 .2.395 2.24 2.24 0 0 1-1.2.412 21.3 21.3 0 0 1-6.042.029 2.1 2.1 0 0 1-.656-.21 2.25 2.25 0 0 1 1.572-.313 1.13 1.13 0 0 0-.825-.35Zm1.492-3.974a4.37 4.37 0 0 0-2.192.663c-.226.215.056.495.29.523a13.1 13.1 0 0 0 4.159.159 5.4 5.4 0 0 0 1.885-.419 2.8 2.8 0 0 0 .656-.406c-.737-.044-1.458.2-2.191.226a14.3 14.3 0 0 1-3.592-.017c-.185-.043.142-.143.193-.176.425-.19.894-.233 1.3-.464a1.5 1.5 0 0 0-.51-.089Zm5.363-.127a.955.955 0 0 0-.917.56c-.181.248.3-.114.466-.11a.7.7 0 0 1 .9.885 3.5 3.5 0 0 1-1.461 1.333c-.431.355-.293.372.166.2a2.78 2.78 0 0 0 2.1-1.55 1.128 1.128 0 0 0-1.254-1.321ZM9.2-.536a2.2 2.2 0 0 1-.786 2.274c-.726.725-1.769 1.221-2.2 2.2-.283.836.373 1.6.9 2.17a9 9 0 0 0 1.148 1.046c-.192-.981-1.276-1.613-1.179-2.668.194-1.013 1.248-1.457 1.853-2.186a2.42 2.42 0 0 0 .686-2.632A3.3 3.3 0 0 0 9.1-1zm3.567 12.086a3.73 3.73 0 0 1-1.782.7 20.1 20.1 0 0 1-6.509.078 3.65 3.65 0 0 0 2.27.639 15.3 15.3 0 0 0 5.273-.442 1.13 1.13 0 0 0 .966-1.149c.04-.363-.142.115-.219.178Z"
        class="i-color"/>
</svg>