<svg xmlns="http://www.w3.org/2000/svg" width="16" height="16" fill="#4CAF50" data-big="true" viewBox="0 0 24 24"><path d="M8 11.5a1.25 1.25 0 0 0-1.25 1.25A1.25 1.25 0 0 0 8 14a1.25 1.25 0 0 0 1.25-1.25A1.25 1.25 0 0 0 8 11.5m8 0a1.25 1.25 0 0 0-1.25 1.25A1.25 1.25 0 0 0 16 14a1.25 1.25 0 0 0 1.25-1.25A1.25 1.25 0 0 0 16 11.5M12 7c1.5 0 2.9.33 4.18.91l2.16-2.16a.996.996 0 1 1 1.41 1.41l-1.8 1.8A10 10 0 0 1 22 17H2c0-3.29 1.59-6.21 4.05-8.04l-1.8-1.8a.996.996 0 1 1 1.41-1.41l2.16 2.16C9.1 7.33 10.5 7 12 7"/></svg>