<svg xmlns="http://www.w3.org/2000/svg" width="16" height="16" data-big="true" viewBox="0 0 24 24"><path fill="#8E24AA" d="M20.5 11H19V7a2 2 0 0 0-2-2h-4V3.5A2.5 2.5 0 0 0 10.5 1 2.5 2.5 0 0 0 8 3.5V5H4a2 2 0 0 0-2 2v3.8h1.5c1.5 0 2.7 1.2 2.7 2.7S5 16.2 3.5 16.2H2V20a2 2 0 0 0 2 2h3.8v-1.5c0-1.5 1.2-2.7 2.7-2.7s2.7 1.2 2.7 2.7V22H17a2 2 0 0 0 2-2v-4h1.5a2.5 2.5 0 0 0 2.5-2.5 2.5 2.5 0 0 0-2.5-2.5"/><path fill="#4DB6AC" d="M5.4 13.8c1.23 0 2.454.462 3.39 1.398a4.79 4.79 0 0 1-.006 6.786 4.75 4.75 0 0 1-4.038 1.368l.318-1.176a3.598 3.598 0 0 0 2.88-6.126A3.57 3.57 0 0 0 5.4 15v2.748l-2.976-2.97 2.976-2.97zm-3.396 8.19a4.79 4.79 0 0 1-.738-5.826l.888.882a3.57 3.57 0 0 0 .696 4.092c.312.312.672.558 1.05.732l-.3 1.17a4.7 4.7 0 0 1-1.596-1.05"/></svg>