<svg xmlns="http://www.w3.org/2000/svg" width="16" height="16" fill="#FF5370" data-big="true" viewBox="0 0 24 24"><path d="M2.84 21.87a5 5 0 0 0 2.66 1.105v-1.01a3.97 3.97 0 0 1-1.95-.81m2.95.81v1.01c1-.1 1.92-.5 2.66-1.105l-.715-.715c-.55.43-1.215.72-1.945.81m2.655-1.515.715.715a5 5 0 0 0 1.105-2.665h-1.01a3.97 3.97 0 0 1-.81 1.95M7.5 18A1.5 1.5 0 0 0 6 16.5 1.5 1.5 0 0 0 4.5 18 1.5 1.5 0 0 0 6 19.5 1.5 1.5 0 0 0 7.5 18m-5.465.5h-1.01c.1 1 .5 1.92 1.105 2.66l.715-.715a3.93 3.93 0 0 1-.81-1.945m.81-2.95-.715-.71a5 5 0 0 0-1.105 2.66h1.01c.09-.73.38-1.395.81-1.95m7.12 1.95h1.01c-.1-1-.5-1.92-1.105-2.66l-.715.71c.43.555.72 1.22.81 1.95m-.805-3.37a5 5 0 0 0-2.66-1.105v1.01c.73.09 1.395.38 1.95.81m-2.95-.81v-1.01c-1 .1-1.92.5-2.66 1.105l.71.715a3.97 3.97 0 0 1 1.95-.81"/></svg>