<svg xmlns="http://www.w3.org/2000/svg" xml:space="preserve" width="16" height="16" fill-rule="evenodd" stroke-linejoin="round" stroke-miterlimit="1.414" clip-rule="evenodd" data-big="true" viewBox="0 0 24 24"><path fill="#8D6E63" fill-rule="nonzero" d="M10 4H4c-1.11 0-2 .89-2 2v12c0 1.097.903 2 2 2h16c1.097 0 2-.903 2-2V8a2 2 0 0 0-2-2h-8z"/><path fill="#D7CCC8" stroke="#D7CCC8" stroke-miterlimit="4" stroke-width=".271" d="M17.651 19.894a4.76 4.76 0 0 0 4.761-4.761 4.76 4.76 0 0 0-4.761-4.761 4.76 4.76 0 0 0-4.761 4.76 4.76 4.76 0 0 0 4.761 4.762m0-10.713a5.95 5.95 0 0 1 5.952 5.952 5.95 5.95 0 0 1-5.952 5.951 5.957 5.957 0 0 1-5.951-5.951A5.95 5.95 0 0 1 17.65 9.18m.298 2.976v3.124l2.678 1.59-.447.731-3.124-1.874v-3.571z"/></svg>