<!--
  - The MIT License (MIT)
  -
  - Copyright (c) 2015-2021 Elior "Mallowigi" Boukhobza
  -
  - Permission is hereby granted, free of charge, to any person obtaining a copy
  - of this software and associated documentation files (the "Software"), to deal
  - in the Software without restriction, including without limitation the rights
  - to use, copy, modify, merge, publish, distribute, sublicense, and/or sell
  - copies of the Software, and to permit persons to whom the Software is
  - furnished to do so, subject to the following conditions:
  -
  - The above copyright notice and this permission notice shall be included in all
  - copies or substantial portions of the Software.
  -
  - THE SOFTWARE IS PROVIDED "AS IS", WITHOUT WARRANTY OF ANY KIND, EXPRESS OR
  - IMPLIED, INCLUDING BUT NOT LIMITED TO THE WARRANTIES OF MERCHANTABILITY,
  - FITNESS FOR A PARTICULAR PURPOSE AND NONINFRINGEMENT. IN NO EVENT SHALL THE
  - AUTHORS OR COPYRIGHT HOLDERS BE LIABLE FOR ANY CLAIM, DAMAGES OR OTHER
  - LIABILITY, WHETHER IN AN ACTION OF CONTRACT, TORT OR OTHERWISE, ARISING FROM,
  - OUT OF OR IN CONNECTION WITH THE SOFTWARE OR THE USE OR OTHER DEALINGS IN THE
  - SOFTWARE.
  -
  -
  -->

<svg big="true" xmlns="http://www.w3.org/2000/svg" width="16px" height="16px" viewBox="0 0 16 16" fill="#81C784">
  <g fill-rule="evenodd">
    <polygon points="1.868 2 1 2.868 3.818 5.692 1 8.517 1.868 9.385 5.56 5.692" />
    <polygon points="4.945 2 4.077 2.868 6.895 5.692 4.077 8.517 4.945 9.385 8.637 5.692" />
    <polygon points="11.308 6.62 10.44 7.488 13.258 10.312 10.44 13.137 11.308 14.005 15 10.312"
             transform="matrix(-1 0 0 1 25.44 0)" />
    <polygon points="8.231 6.62 7.363 7.488 10.182 10.312 7.363 13.137 8.231 14.005 11.923 10.312"
             transform="matrix(-1 0 0 1 19.286 0)" />
  </g>
</svg>
