<!--
  - The MIT License (MIT)
  -
  - Copyright (c) 2015-2021 Elior "Mallowigi" Boukhobza
  -
  - Permission is hereby granted, free of charge, to any person obtaining a copy
  - of this software and associated documentation files (the "Software"), to deal
  - in the Software without restriction, including without limitation the rights
  - to use, copy, modify, merge, publish, distribute, sublicense, and/or sell
  - copies of the Software, and to permit persons to whom the Software is
  - furnished to do so, subject to the following conditions:
  -
  - The above copyright notice and this permission notice shall be included in all
  - copies or substantial portions of the Software.
  -
  - THE SOFTWARE IS PROVIDED "AS IS", WITHOUT WARRANTY OF ANY KIND, EXPRESS OR
  - IMPLIED, INCLUDING BUT NOT LIMITED TO THE WARRANTIES OF MERCHANTABILITY,
  - FITNESS FOR A PARTICULAR PURPOSE AND NONINFRINGEMENT. IN NO EVENT SHALL THE
  - AUTHORS OR COPYRIGHT HOLDERS BE LIABLE FOR ANY CLAIM, DAMAGES OR OTHER
  - LIABILITY, WHETHER IN AN ACTION OF CONTRACT, TORT OR OTHERWISE, ARISING FROM,
  - OUT OF OR IN CONNECTION WITH THE SOFTWARE OR THE USE OR OTHER DEALINGS IN THE
  - SOFTWARE.
  -
  -
  -->

<svg clip-rule="evenodd" fill-rule="evenodd" stroke-linejoin="round" stroke-miterlimit="1.4142" version="1.1"
     viewBox="0 0 24 24" width="16px" height="16px" xml:space="preserve" xmlns="http://www.w3.org/2000/svg">
    <path d="m10 4h-6c-1.11 0-2 0.89-2 2v12c0 1.097 0.903 2 2 2h16c1.097 0 2-0.903 2-2v-10c0-1.11-0.9-2-2-2h-8l-2-2z"
          fill="#8D6E63" fill-rule="nonzero" />
  <path
    d="m17.651 19.894a4.7612 4.7612 0 0 0 4.7612 -4.7612 4.7612 4.7612 0 0 0 -4.7612 -4.7612 4.7612 4.7612 0 0 0 -4.7612 4.7612 4.7612 4.7612 0 0 0 4.7612 4.7612m0-10.713a5.9515 5.9515 0 0 1 5.9515 5.9515 5.9515 5.9515 0 0 1 -5.9515 5.9515c-3.2912 0-5.9515-2.6782-5.9515-5.9515a5.9515 5.9515 0 0 1 5.9515 -5.9515m0.29758 2.9758v3.1245l2.6782 1.5891-0.44636 0.73204-3.1245-1.8747v-3.5709z"
    fill="#D7CCC8" stroke="#D7CCC8" stroke-miterlimit="4" stroke-width=".271" />
</svg>
