<svg xmlns="http://www.w3.org/2000/svg" width="16" height="16" data-big="true" viewBox="0 0 24 24"><path fill="#FDD835" d="M5.25 10.5A1.5 1.5 0 0 1 3.75 9a1.5 1.5 0 0 1 1.5-1.5A1.5 1.5 0 0 1 6.75 9a1.5 1.5 0 0 1-1.5 1.5m4.238-3a4.49 4.49 0 0 0-4.238-3A4.5 4.5 0 0 0 .75 9a4.5 4.5 0 0 0 4.5 4.5 4.49 4.49 0 0 0 4.238-3h3.262v3h3v-3h1.5v-3z"/><path fill="#29B6F6" d="M11.25 16.5a1.5 1.5 0 0 1-1.5-1.5 1.5 1.5 0 0 1 1.5-1.5 1.5 1.5 0 0 1 1.5 1.5 1.5 1.5 0 0 1-1.5 1.5m4.238-3a4.49 4.49 0 0 0-4.238-3 4.5 4.5 0 0 0-4.5 4.5 4.5 4.5 0 0 0 4.5 4.5 4.49 4.49 0 0 0 4.238-3h3.262v3h3v-3h1.5v-3z"/><circle cx="20" cy="20" r="3" fill="#0F0" stroke="#000"/><path fill="#FDD835" stroke="#000" stroke-width=".5" d="M15.5 4.5a1 1 0 0 1-1-1 1 1 0 0 1 1-1 1 1 0 0 1 1 1 1 1 0 0 1-1 1m6.5-3h-8a.5.5 0 0 0-.5.5v3a.5.5 0 0 0 .5.5h8a.5.5 0 0 0 .5-.5V2a.5.5 0 0 0-.5-.5m-6.5 8a1 1 0 0 1-1-1 1 1 0 0 1 1-1 1 1 0 0 1 1 1 1 1 0 0 1-1 1m6.5-3h-8a.5.5 0 0 0-.5.5v3a.5.5 0 0 0 .5.5h8a.5.5 0 0 0 .5-.5V7a.5.5 0 0 0-.5-.5Z"/></svg>