<svg xmlns="http://www.w3.org/2000/svg" width="16" height="16" fill="#E57373"  viewBox="0 0 24 24"><path d="M8 2h8a2 2 0 0 1 2 2v16a2 2 0 0 1-2 2H8a2 2 0 0 1-2-2V4a2 2 0 0 1 2-2m0 8v4h8v-4zm0 6v4h8v-4zM8 4v4h8V4z"/><path fill="#FDD835" stroke="#000" stroke-width=".5" d="M15.5 4.5a1 1 0 0 1-1-1 1 1 0 0 1 1-1 1 1 0 0 1 1 1 1 1 0 0 1-1 1m6.5-3h-8a.5.5 0 0 0-.5.5v3a.5.5 0 0 0 .5.5h8a.5.5 0 0 0 .5-.5V2a.5.5 0 0 0-.5-.5m-6.5 8a1 1 0 0 1-1-1 1 1 0 0 1 1-1 1 1 0 0 1 1 1 1 1 0 0 1-1 1m6.5-3h-8a.5.5 0 0 0-.5.5v3a.5.5 0 0 0 .5.5h8a.5.5 0 0 0 .5-.5V7a.5.5 0 0 0-.5-.5Z"/></svg>