<!--
  - The MIT License (MIT)
  -
  - Copyright (c) 2015-2022 Elior "Mallowigi" Boukhobza
  -
  - Permission is hereby granted, free of charge, to any person obtaining a copy
  - of this software and associated documentation files (the "Software"), to deal
  - in the Software without restriction, including without limitation the rights
  - to use, copy, modify, merge, publish, distribute, sublicense, and/or sell
  - copies of the Software, and to permit persons to whom the Software is
  - furnished to do so, subject to the following conditions:
  -
  - The above copyright notice and this permission notice shall be included in all
  - copies or substantial portions of the Software.
  -
  - THE SOFTWARE IS PROVIDED "AS IS", WITHOUT WARRANTY OF ANY KIND, EXPRESS OR
  - IMPLIED, INCLUDING BUT NOT LIMITED TO THE WARRANTIES OF MERCHANTABILITY,
  - FITNESS FOR A PARTICULAR PURPOSE AND NONINFRINGEMENT. IN NO EVENT SHALL THE
  - AUTHORS OR COPYRIGHT HOLDERS BE LIABLE FOR ANY CLAIM, DAMAGES OR OTHER
  - LIABILITY, WHETHER IN AN ACTION OF CONTRACT, TORT OR OTHERWISE, ARISING FROM,
  - OUT OF OR IN CONNECTION WITH THE SOFTWARE OR THE USE OR OTHER DEALINGS IN THE
  - SOFTWARE.
  -
  -
  -->


<svg xmlns="http://www.w3.org/2000/svg" version="1.1" width="16px" height="16px" fill="#7986CB"
     viewBox="0 0 24 24">
  <g big="true">
    <path
    d="M9,13A3,3 0 0,0 12,16A3,3 0 0,0 15,13A3,3 0 0,0 12,10A3,3 0 0,0 9,13M20,19.59V8L14,2H6A2,2 0 0,0 4,4V20A2,2 0 0,0 6,22H18C18.45,22 18.85,21.85 19.19,21.6L14.76,17.17C13.96,17.69 13,18 12,18A5,5 0 0,1 7,13A5,5 0 0,1 12,8A5,5 0 0,1 17,13C17,14 16.69,14.96 16.17,15.75L20,19.59Z" />
  </g>
</svg>
