<!--
  - The MIT License (MIT)
  -
  - Copyright (c) 2015-2022 Elior "Mallowigi" Boukhobza
  -
  - Permission is hereby granted, free of charge, to any person obtaining a copy
  - of this software and associated documentation files (the "Software"), to deal
  - in the Software without restriction, including without limitation the rights
  - to use, copy, modify, merge, publish, distribute, sublicense, and/or sell
  - copies of the Software, and to permit persons to whom the Software is
  - furnished to do so, subject to the following conditions:
  -
  - The above copyright notice and this permission notice shall be included in all
  - copies or substantial portions of the Software.
  -
  - THE SOFTWARE IS PROVIDED "AS IS", WITHOUT WARRANTY OF ANY KIND, EXPRESS OR
  - IMPLIED, INCLUDING BUT NOT LIMITED TO THE WARRANTIES OF MERCHANTABILITY,
  - FITNESS FOR A PARTICULAR PURPOSE AND NONINFRINGEMENT. IN NO EVENT SHALL THE
  - AUTHORS OR COPYRIGHT HOLDERS BE LIABLE FOR ANY CLAIM, DAMAGES OR OTHER
  - LIABILITY, WHETHER IN AN ACTION OF CONTRACT, TORT OR OTHERWISE, ARISING FROM,
  - OUT OF OR IN CONNECTION WITH THE SOFTWARE OR THE USE OR OTHER DEALINGS IN THE
  - SOFTWARE.
  -
  -
  -->


<svg xmlns="http://www.w3.org/2000/svg" version="1.1" width="16px" height="16px" fill="#EF5350"
     viewBox="0 0 24 24">
  <g big="true">
      <path
            d="M11,10V12H10V14H8V12H5.83C5.42,13.17 4.31,14 3,14A3,3 0 0,1 0,11A3,3 0 0,1 3,8C4.31,8 5.42,8.83 5.83,10H11M3,10A1,1 0 0,0 2,11A1,1 0 0,0 3,12A1,1 0 0,0 4,11A1,1 0 0,0 3,10M16,14C18.67,14 24,15.34 24,18V20H8V18C8,15.34 13.33,14 16,14M16,12A4,4 0 0,1 12,8A4,4 0 0,1 16,4A4,4 0 0,1 20,8A4,4 0 0,1 16,12Z" />
  </g>
</svg>
