<!--
  - The MIT License (MIT)
  -
  - Copyright (c) 2015-2022 Elior "Mallowigi" Boukhobza
  -
  - Permission is hereby granted, free of charge, to any person obtaining a copy
  - of this software and associated documentation files (the "Software"), to deal
  - in the Software without restriction, including without limitation the rights
  - to use, copy, modify, merge, publish, distribute, sublicense, and/or sell
  - copies of the Software, and to permit persons to whom the Software is
  - furnished to do so, subject to the following conditions:
  -
  - The above copyright notice and this permission notice shall be included in all
  - copies or substantial portions of the Software.
  -
  - THE SOFTWARE IS PROVIDED "AS IS", WITHOUT WARRANTY OF ANY KIND, EXPRESS OR
  - IMPLIED, INCLUDING BUT NOT LIMITED TO THE WARRANTIES OF MERCHANTABILITY,
  - FITNESS FOR A PARTICULAR PURPOSE AND NONINFRINGEMENT. IN NO EVENT SHALL THE
  - AUTHORS OR COPYRIGHT HOLDERS BE LIABLE FOR ANY CLAIM, DAMAGES OR OTHER
  - LIABILITY, WHETHER IN AN ACTION OF CONTRACT, TORT OR OTHERWISE, ARISING FROM,
  - OUT OF OR IN CONNECTION WITH THE SOFTWARE OR THE USE OR OTHER DEALINGS IN THE
  - SOFTWARE.
  -
  -
  -->

<svg big="true" clip-rule="evenodd" fill-rule="evenodd" stroke-linejoin="round" stroke-miterlimit="1.4142" version="1.1"
     viewBox="0 0 24 24" xml:space="preserve" xmlns="http://www.w3.org/2000/svg" width="16px" height="16px">
    <path d="m10 4h-6c-1.11 0-2 .89-2 2v12c0 1.097.903 2 2 2h16c1.097 0 2-.903 2-2v-10c0-1.11-.9-2-2-2h-8l-2-2z"
          fill="#FF8F00" fill-rule="nonzero" />
    <path d="m13.424 8.5427h9.3703a.58564 .58564 0 0 1 .58564 .58564v2.3426a.58564 .58564 0 0 1 -.58564 .58564h-9.3703a.58564 .58564 0 0 1 -.58564 -.58564v-2.3426a.58564 .58564 0 0 1 .58564 -.58564m0 4.6852h9.3703a.58564 .58564 0 0 1 .58564 .58564v2.3426a.58564 .58564 0 0 1 -.58564 .58564h-9.3703a.58564 .58564 0 0 1 -.58564 -.58564v-2.3426a.58564 .58564 0 0 1 .58564 -.58564m0 4.6852h9.3703a.58564 .58564 0 0 1 .58564 .58565v2.3426a.58564 .58564 0 0 1 -.58564 .58564h-9.3703a.58564 .58564 0 0 1 -.58564 -.58564v-2.3426a.58564 .58564 0 0 1 .58564 -.58565m2.9282-7.0277h.58564v-1.1713h-.58564v1.1713m0 4.6852h.58564v-1.1713h-.58564v1.1713m0 4.6852h.58564v-1.1713h-.58564v1.1713m-2.3426-10.542v1.1713h1.1713v-1.1713h-1.1713m0 4.6852v1.1713h1.1713v-1.1713h-1.1713m0 4.6852v1.1713h1.1713v-1.1713z"
          fill="#FFECB3" />
</svg>
