<!--
  - The MIT License (MIT)
  -
  - Copyright (c) 2015-2022 Elior "Mallowigi" Boukhobza
  -
  - Permission is hereby granted, free of charge, to any person obtaining a copy
  - of this software and associated documentation files (the "Software"), to deal
  - in the Software without restriction, including without limitation the rights
  - to use, copy, modify, merge, publish, distribute, sublicense, and/or sell
  - copies of the Software, and to permit persons to whom the Software is
  - furnished to do so, subject to the following conditions:
  -
  - The above copyright notice and this permission notice shall be included in all
  - copies or substantial portions of the Software.
  -
  - THE SOFTWARE IS PROVIDED "AS IS", WITHOUT WARRANTY OF ANY KIND, EXPRESS OR
  - IMPLIED, INCLUDING BUT NOT LIMITED TO THE WARRANTIES OF MERCHANTABILITY,
  - FITNESS FOR A PARTICULAR PURPOSE AND NONINFRINGEMENT. IN NO EVENT SHALL THE
  - AUTHORS OR COPYRIGHT HOLDERS BE LIABLE FOR ANY CLAIM, DAMAGES OR OTHER
  - LIABILITY, WHETHER IN AN ACTION OF CONTRACT, TORT OR OTHERWISE, ARISING FROM,
  - OUT OF OR IN CONNECTION WITH THE SOFTWARE OR THE USE OR OTHER DEALINGS IN THE
  - SOFTWARE.
  -
  -
  -->


<svg xmlns="http://www.w3.org/2000/svg" version="1.1" width="13px" height="13px" fill="#9CCC65"
     viewBox="0 0 24 24">
  <path
    d="M9,3C4.58,3 1,4.79 1,7C1,9.21 4.58,11 9,11C13.42,11 17,9.21 17,7C17,4.79 13.42,3 9,3M1,9V12C1,14.21 4.58,16 9,16C13.42,16 17,14.21 17,12V9C17,11.21 13.42,13 9,13C4.58,13 1,11.21 1,9M1,14V17C1,19.21 4.58,21 9,21C10.41,21 11.79,20.81 13,20.46V17.46C11.79,17.81 10.41,18 9,18C4.58,18 1,16.21 1,14M18,14V17H15V19H18V22H20V19H23V17H20V14" />
</svg>
