<?xml version="1.0" encoding="UTF-8"?>
<!DOCTYPE svg PUBLIC "-//W3C//DTD SVG 1.1//EN" "http://www.w3.org/Graphics/SVG/1.1/DTD/svg11.dtd">
<svg xmlns="http://www.w3.org/2000/svg" xmlns:xlink="http://www.w3.org/1999/xlink" version="1.1" width="16px"
     height="16px" viewBox="0 0 24 24">
  <defs>
    <mask id="mask">
      <rect x="0" y="0" width="24" height="24" fill="white" />
      <circle cx="18" cy="18" r="6" fill="black" />
    </mask>
  </defs>
  <path fill="#64B5F6" mask="url(#mask)"
        d="M19 12V13.5C21.21 13.5 23 15.29 23 17.5C23 18.32 22.75 19.08 22.33 19.71L21.24 18.62C21.41 18.28 21.5 17.9 21.5 17.5C21.5 16.12 20.38 15 19 15V16.5L16.75 14.25L16.72 14.22C16.78 14.17 16.85 14.13 19 12M19 23V21.5C16.79 21.5 15 19.71 15 17.5C15 16.68 15.25 15.92 15.67 15.29L16.76 16.38C16.59 16.72 16.5 17.1 16.5 17.5C16.5 18.88 17.62 20 19 20V18.5L21.25 20.75L21.28 20.78C21.22 20.83 21.15 20.87 19 23M13 17.5C13 13.91 15.91 11 19.5 11C20.78 11 21.97 11.38 23 12C22.13 10.9 20.84 10.14 19.35 10.03C18.67 6.59 15.64 4 12 4C9.11 4 6.6 5.64 5.35 8.03C2.34 8.36 0 10.9 0 14C0 17.31 2.69 20 6 20H13.5C13.18 19.23 13 18.39 13 17.5Z" />

  <path fill="#64B5F6" transform="scale(0.5) translate(24 24) rotate(45 12 12)"
        d="M12,18A6,6 0 0,1 6,12C6,11 6.25,10.03 6.7,9.2L5.24,7.74C4.46,8.97 4,10.43 4,12A8,8 0 0,0 12,20V23L16,19L12,15M12,4V1L8,5L12,9V6A6,6 0 0,1 18,12C18,13 17.75,13.97 17.3,14.8L18.76,16.26C19.54,15.03 20,13.57 20,12A8,8 0 0,0 12,4Z" />
</svg>
