<?xml version="1.0" encoding="iso-8859-1"?>
<!--
  - The MIT License (MIT)
  -
  - Copyright (c) 2015-2022 Elior "Mallowigi" Boukhobza
  -
  - Permission is hereby granted, free of charge, to any person obtaining a copy
  - of this software and associated documentation files (the "Software"), to deal
  - in the Software without restriction, including without limitation the rights
  - to use, copy, modify, merge, publish, distribute, sublicense, and/or sell
  - copies of the Software, and to permit persons to whom the Software is
  - furnished to do so, subject to the following conditions:
  -
  - The above copyright notice and this permission notice shall be included in all
  - copies or substantial portions of the Software.
  -
  - THE SOFTWARE IS PROVIDED "AS IS", WITHOUT WARRANTY OF ANY KIND, EXPRESS OR
  - IMPLIED, INCLUDING BUT NOT LIMITED TO THE WARRANTIES OF MERCHANTABILITY,
  - FITNESS FOR A PARTICULAR PURPOSE AND NONINFRINGEMENT. IN NO EVENT SHALL THE
  - AUTHORS OR COPYRIGHT HOLDERS BE LIABLE FOR ANY CLAIM, DAMAGES OR OTHER
  - LIABILITY, WHETHER IN AN ACTION OF CONTRACT, TORT OR OTHERWISE, ARISING FROM,
  - OUT OF OR IN CONNECTION WITH THE SOFTWARE OR THE USE OR OTHER DEALINGS IN THE
  - SOFTWARE.
  -
  -
  -->

<svg version="1.1" id="Layer_1" xmlns="http://www.w3.org/2000/svg"
     x="0px" y="0px" viewBox="0 0 473.931 473.931"
     xml:space="preserve">
<circle style="fill:#344E5D;" cx="236.966" cy="236.966" r="236.966" />
  <path style="fill:#83CECA;" d="M288.104,155.47c-10.151-35.251-26.529-58.154-45.025-58.154c-19.584,0-36.804,25.687-46.757,64.519
	c13.702,3.244,28.422,8.041,43.584,14.327C256.659,167.167,273.014,160.192,288.104,155.47z" />
  <path style="fill:#039A88;" d="M240.116,180.297l-1.639-0.681c-14.78-6.125-29.253-10.885-43.015-14.144l-3.708-0.879l0.947-3.693
	c10.81-42.162,29.642-67.333,50.383-67.333c19.76,0,37.485,22.181,48.62,60.86l1.014,3.514l-3.491,1.093
	c-15.158,4.748-31.154,11.614-47.543,20.419L240.116,180.297z M200.914,159.107c12.509,3.173,25.526,7.51,38.783,12.924
	c15.012-7.962,29.71-14.342,43.775-19.001c-10.013-32.624-24.991-51.973-40.396-51.973
	C226.773,101.057,210.773,123.194,200.914,159.107z" />
  <path style="fill:#83CECA;" d="M198.048,322.936c10.151,35.244,26.537,58.147,45.032,58.147c19.577,0,36.796-25.683,46.742-64.512
	c-13.695-3.248-28.415-8.049-43.584-14.335C229.493,311.243,213.138,318.207,198.048,322.936z" />
  <path style="fill:#039A88;" d="M243.08,384.829c-19.764,0-37.492-22.181-48.628-60.852l-1.014-3.514l3.491-1.093
	c15.221-4.774,31.217-11.644,47.535-20.426l1.564-0.842l1.639,0.681c14.795,6.129,29.264,10.889,43.015,14.151l3.708,0.879
	l-0.947,3.689C282.649,359.658,263.82,384.829,243.08,384.829z M202.676,325.376c10.013,32.621,24.995,51.966,40.404,51.966
	c16.299,0,32.299-22.136,42.151-58.046c-12.497-3.173-25.515-7.51-38.783-12.928C231.491,314.315,216.79,320.695,202.676,325.376z"
  />
  <path style="fill:#83CECA;" d="M151.915,243.783c-26.323,29.384-37.893,57.488-27.206,73.66
	c10.196,15.424,38.338,16.464,73.338,5.497c-4.318-15.008-7.498-32.261-9.246-50.944
	C174.849,262.919,162.411,253.37,151.915,243.783z" />
  <path style="fill:#039A88;" d="M156.959,333.982C156.956,333.982,156.956,333.982,156.959,333.982
	c-16.883,0-29.111-5.006-35.371-14.477c-11.472-17.366-1.437-45.874,27.539-78.218l2.522-2.814l2.791,2.548
	c10.503,9.594,22.75,18.956,36.4,27.835l1.515,0.988l0.172,1.8c1.706,18.267,4.771,35.176,9.111,50.259l1.014,3.51l-3.491,1.093
	C183.346,331.468,169.143,333.982,156.959,333.982z M152.226,249.093c-23.925,27.648-33.272,52.86-24.4,66.285
	c6.077,9.19,19.191,11.121,29.126,11.121c10.383,0,22.944-2.095,36.505-6.08c-3.813-14.103-6.571-29.642-8.209-46.282
	C173.06,266.121,161.973,257.714,152.226,249.093z" />
  <path style="fill:#83CECA;" d="M334.24,234.623c26.316-29.384,37.885-57.488,27.203-73.66
	c-10.196-15.424-38.338-16.464-73.338-5.497c4.325,15.012,7.506,32.261,9.246,50.944C311.299,215.48,323.737,225.037,334.24,234.623
	z" />
  <path style="fill:#039A88;" d="M334.506,239.933l-2.788-2.544c-10.544-9.624-22.795-18.989-36.407-27.835l-1.519-0.988l-0.168-1.804
	c-1.699-18.26-4.763-35.169-9.115-50.256l-1.014-3.514l3.491-1.093c15.824-4.958,30.02-7.476,42.207-7.476
	c16.879,0,29.107,5.006,35.367,14.477c11.472,17.362,1.437,45.87-27.532,78.218L334.506,239.933z M300.901,204.266
	c12.161,7.996,23.251,16.404,33.029,25.047c23.921-27.648,33.264-52.86,24.393-66.285c-6.077-9.19-19.191-11.121-29.126-11.121
	c-10.383,0-22.944,2.095-36.501,6.08C296.508,172.095,299.266,187.634,300.901,204.266z" />
  <path style="fill:#83CECA;" d="M269.021,189.816c9.998,5.253,19.461,10.829,28.325,16.598c-1.74-18.683-4.917-35.936-9.246-50.944
	c-15.091,4.726-31.446,11.697-48.198,20.692C249.489,180.136,259.237,184.678,269.021,189.816z" />
  <path style="fill:#039A88;" d="M301.792,213.771l-6.484-4.221c-8.954-5.826-18.383-11.352-28.022-16.419
	c-9.388-4.928-19.083-9.474-28.808-13.512l-7.281-3.023l6.941-3.731c16.808-9.029,33.246-16.082,48.852-20.969l3.656-1.145
	l1.059,3.678c4.475,15.536,7.629,32.905,9.377,51.633L301.792,213.771z M248.632,175.829c7.476,3.3,14.888,6.877,22.129,10.679
	c7.521,3.951,14.911,8.176,22.061,12.602c-1.62-13.893-4.06-26.926-7.274-38.881C273.657,164.181,261.283,169.412,248.632,175.829z"
  />
  <path style="fill:#83CECA;" d="M217.127,288.587c-9.998-5.25-19.453-10.829-28.325-16.595c1.747,18.683,4.924,35.936,9.246,50.944
	c15.091-4.733,31.446-11.693,48.19-20.699C236.663,298.271,226.912,293.728,217.127,288.587z" />
  <path style="fill:#039A88;" d="M195.511,327.655l-1.059-3.682c-4.468-15.528-7.622-32.898-9.377-51.629l-0.718-7.701l6.484,4.213
	c9.033,5.871,18.466,11.394,28.026,16.419c9.392,4.935,19.083,9.478,28.8,13.508l7.281,3.02l-6.941,3.734
	c-16.737,9.003-33.167,16.06-48.845,20.973L195.511,327.655z M193.333,279.296c1.624,13.893,4.06,26.929,7.27,38.881
	c11.929-3.974,24.303-9.201,36.909-15.603c-7.472-3.296-14.888-6.874-22.125-10.679
	C207.915,287.973,200.525,283.749,193.333,279.296z" />
  <path style="fill:#83CECA;" d="M188.487,209.853c1.441-17.399,4.142-33.608,7.835-48.018c-39.004-9.257-69.743-5.961-78.854,11.379
	c-9.01,17.16,5.313,43.969,34.45,70.57C162.059,232.461,174.396,220.947,188.487,209.853z" />
  <path style="fill:#039A88;" d="M152.185,249.093l-2.788-2.548c-32.074-29.279-44.92-56.643-35.244-75.071
	c6.339-12.056,21.478-18.428,43.79-18.428c11.644,0,24.849,1.732,39.24,5.145l3.708,0.879l-0.947,3.689
	c-3.734,14.574-6.331,30.522-7.727,47.397l-0.135,1.624l-1.283,1.007c-13.732,10.814-25.878,22.08-36.093,33.489L152.185,249.093z
	 M157.943,160.529c-19.079,0-32.276,5.122-37.167,14.424c-7.48,14.249,4.34,38.402,30.918,63.516
	c9.624-10.41,20.771-20.666,33.201-30.548c1.336-15.278,3.648-29.814,6.877-43.288C179.38,161.91,168.016,160.529,157.943,160.529z"
  />
  <path style="fill:#83CECA;" d="M334.24,234.623c-10.151,11.33-22.488,22.84-36.576,33.93c-1.441,17.395-4.142,33.605-7.843,48.018
	c39.004,9.246,69.75,5.961,78.861-11.379C377.693,288.029,363.37,261.224,334.24,234.623z" />
  <path style="fill:#039A88;" d="M328.208,325.357C328.205,325.357,328.205,325.357,328.208,325.357
	c-11.648,0-24.857-1.732-39.247-5.145l-3.708-0.879l0.947-3.693c3.738-14.563,6.339-30.507,7.734-47.397l0.135-1.624l1.283-1.007
	c13.747-10.825,25.893-22.091,36.1-33.489l2.522-2.814l2.791,2.548c32.063,29.283,44.905,56.646,35.232,75.071
	C365.66,318.985,350.521,325.357,328.208,325.357z M294.372,313.773c12.396,2.72,23.76,4.097,33.833,4.101
	c19.083,0,32.28-5.122,37.171-14.421c7.48-14.249-4.34-38.402-30.911-63.516c-9.616,10.402-20.771,20.658-33.208,30.548
	C299.913,285.773,297.605,300.306,294.372,313.773z" />
  <path style="fill:#83CECA;" d="M273.837,285.74c-9.223,6.092-18.469,11.592-27.603,16.497c15.173,6.286,29.889,11.087,43.584,14.335
	c3.697-14.413,6.402-30.623,7.843-48.018C290.188,274.428,282.23,280.187,273.837,285.74z" />
  <path style="fill:#039A88;" d="M292.535,321.062l-3.573-0.849c-14.136-3.353-28.995-8.239-44.157-14.518l-7.289-3.02l6.948-3.734
	c9.231-4.958,18.417-10.447,27.315-16.325c8.123-5.381,16.056-11.102,23.573-17.006l6.75-5.298l-0.703,8.55
	c-1.433,17.306-4.108,33.672-7.948,48.639L292.535,321.062z M254.956,301.698c10.986,4.247,21.751,7.716,32.134,10.35
	c2.66-11.072,4.681-22.903,6.032-35.303c-5.586,4.172-11.352,8.232-17.22,12.112C269.051,293.384,262.032,297.687,254.956,301.698z"
  />
  <path style="fill:#83CECA;" d="M212.311,192.663c9.223-6.092,18.469-11.588,27.595-16.501
	c-15.165-6.286-29.882-11.083-43.584-14.327c-3.689,14.41-6.395,30.619-7.835,48.018
	C195.963,203.978,203.915,198.212,212.311,192.663z" />
  <path style="fill:#039A88;" d="M184.05,218.092l0.703-8.55c1.433-17.294,4.105-33.661,7.94-48.639l0.913-3.558l3.573,0.846
	c14.151,3.353,29.006,8.236,44.157,14.511l7.278,3.016l-6.933,3.738c-9.276,4.995-18.462,10.488-27.307,16.329
	c-8.037,5.313-15.974,11.038-23.573,17.01L184.05,218.092z M199.054,166.355c-2.657,11.079-4.673,22.907-6.024,35.304
	c5.631-4.209,11.397-8.266,17.22-12.116c6.821-4.505,13.841-8.808,20.95-12.842C220.214,172.458,209.445,168.989,199.054,166.355z"
  />
  <path style="fill:#83CECA;" d="M298.862,239.203c0,10.065-0.423,19.88-1.197,29.354c14.091-11.094,26.428-22.6,36.576-33.93
	c-10.503-9.586-22.941-19.143-36.89-28.209C298.327,216.94,298.862,227.911,298.862,239.203z" />
  <path style="fill:#039A88;" d="M293.234,276.804l0.7-8.554c0.79-9.624,1.186-19.397,1.186-29.047
	c0-10.851-0.505-21.766-1.497-32.441l-0.715-7.697l6.481,4.209c13.953,9.066,26.529,18.683,37.373,28.583l2.739,2.499l-2.473,2.761
	c-10.499,11.719-22.967,23.285-37.051,34.376L293.234,276.804z M301.709,213.815c0.595,8.411,0.894,16.916,0.894,25.388
	c0,6.986-0.206,14.032-0.61,21.044c9.972-8.273,19.001-16.771,26.944-25.354C320.762,227.667,311.64,220.607,301.709,213.815z" />
  <path style="fill:#83CECA;" d="M187.29,239.203c0-10.058,0.415-19.88,1.197-29.35c-14.091,11.094-26.428,22.608-36.568,33.93
	c10.496,9.586,22.933,19.135,36.883,28.209C187.821,261.467,187.29,250.488,187.29,239.203z" />
  <path style="fill:#039A88;" d="M193.243,279.345l-6.481-4.213c-13.99-9.1-26.566-18.716-37.369-28.583l-2.731-2.499l2.47-2.758
	c10.511-11.73,22.974-23.296,37.043-34.376l6.75-5.313l-0.703,8.565c-0.79,9.527-1.186,19.296-1.186,29.04
	c0,10.851,0.505,21.77,1.497,32.445L193.243,279.345z M157.218,243.517c8.15,7.203,17.272,14.267,27.221,21.07
	c-0.595-8.408-0.894-16.917-0.894-25.388c0-7.031,0.206-14.073,0.606-21.036C174.194,226.429,165.161,234.926,157.218,243.517z" />
  <path style="fill:#83CECA;" d="M297.35,206.414c-8.864-5.77-18.327-11.341-28.325-16.598c-9.785-5.137-19.536-9.68-29.115-13.654
	c-9.126,4.913-18.372,10.41-27.595,16.501c-8.396,5.549-16.348,11.315-23.824,17.19c-0.782,9.467-1.197,19.289-1.197,29.35
	c0,11.289,0.535,22.263,1.512,32.793c8.872,5.766,18.327,11.341,28.325,16.595c9.785,5.141,19.536,9.684,29.107,13.65
	c9.134-4.909,18.38-10.406,27.603-16.497c8.389-5.553,16.348-11.311,23.824-17.186c0.775-9.47,1.197-19.285,1.197-29.354
	C298.862,227.911,298.327,216.94,297.35,206.414z" />
  <g>
	<path style="fill:#039A88;" d="M246.444,306.375l-1.639-0.681c-9.927-4.116-19.828-8.756-29.414-13.796
		c-9.77-5.13-19.401-10.773-28.624-16.767l-1.519-0.988l-0.168-1.804c-1.014-10.907-1.527-22.058-1.527-33.137
		c0-9.949,0.408-19.925,1.209-29.657l0.135-1.628l1.283-1.01c7.764-6.095,15.861-11.94,24.074-17.366
		c9.033-5.964,18.413-11.577,27.887-16.677l1.564-0.846l1.639,0.681c9.938,4.123,19.839,8.767,29.421,13.8
		c9.848,5.175,19.48,10.821,28.628,16.774l1.515,0.988l0.168,1.8c1.014,10.907,1.527,22.054,1.527,33.133
		c0,9.856-0.408,19.835-1.209,29.657l-0.135,1.628l-1.283,1.01c-7.678,6.028-15.775,11.869-24.074,17.362
		c-9.085,6.002-18.473,11.611-27.895,16.673L246.444,306.375z M192.364,269.841c8.565,5.504,17.474,10.69,26.503,15.435
		c8.864,4.659,17.994,8.965,27.161,12.823c8.7-4.733,17.358-9.934,25.751-15.48c7.663-5.074,15.154-10.451,22.286-15.996
		c0.703-9.096,1.055-18.312,1.055-27.42c0-10.241-0.449-20.535-1.332-30.638c-8.498-5.467-17.407-10.657-26.503-15.435
		c-8.86-4.651-17.994-8.962-27.169-12.827c-8.744,4.767-17.395,9.972-25.743,15.483c-7.585,5.014-15.079,10.395-22.286,16.004
		c-0.703,9.01-1.055,18.222-1.055,27.412C191.032,249.441,191.481,259.742,192.364,269.841z" />
    <circle style="fill:#039A88;" cx="270.791" cy="118.629" r="16.976" />
    <circle style="fill:#039A88;" cx="152.312" cy="327.778" r="16.976" />
    <path style="fill:#039A88;" d="M300.022,250.833c-9.369,0-16.969,7.599-16.969,16.98c0,9.369,7.6,16.973,16.969,16.973
		c9.384,0,16.984-7.603,16.984-16.973C317.009,258.432,309.406,250.833,300.022,250.833z" />
</g>
</svg>
