<!--
  - The MIT License (MIT)
  -
  - Copyright (c) 2015-2024 Elior "Mallowigi" Boukhobza
  -
  - Permission is hereby granted, free of charge, to any person obtaining a copy
  - of this software and associated documentation files (the "Software"), to deal
  - in the Software without restriction, including without limitation the rights
  - to use, copy, modify, merge, publish, distribute, sublicense, and/or sell
  - copies of the Software, and to permit persons to whom the Software is
  - furnished to do so, subject to the following conditions:
  -
  - The above copyright notice and this permission notice shall be included in all
  - copies or substantial portions of the Software.
  -
  - THE SOFTWARE IS PROVIDED "AS IS", WITHOUT WARRANTY OF ANY KIND, EXPRESS OR
  - IMPLIED, INCLUDING BUT NOT LIMITED TO THE WARRANTIES OF MERCHANTABILITY,
  - FITNESS FOR A PARTICULAR PURPOSE AND NONINFRINGEMENT. IN NO EVENT SHALL THE
  - AUTHORS OR COPYRIGHT HOLDERS BE LIABLE FOR ANY CLAIM, DAMAGES OR OTHER
  - LIABILITY, WHETHER IN AN ACTION OF CONTRACT, TORT OR OTHERWISE, ARISING FROM,
  - OUT OF OR IN CONNECTION WITH THE SOFTWARE OR THE USE OR OTHER DEALINGS IN THE
  - SOFTWARE.
  -->

<svg data-big="true" width="16px" height="16px" viewBox="0 0 16 16" fill="none" xmlns="http://www.w3.org/2000/svg">
  <path
    d="M10.1569 14.002C10.1569 14.002 9.99892 14.002 9.99861 13.843C9.99861 13.5622 9.99788 13.2814 9.99644 13.0006L9.00947 12.9975L8.99522 10.0003H10.0017C10.0017 10.0003 9.99923 10.6915 10.0017 10.998C10.2873 10.998 10.5729 11.0005 10.8589 11.0011C11.2114 11.0011 11.5643 11.0011 11.9168 11.0011C11.9787 11.0011 11.9958 11.0194 11.9955 11.0802C11.993 11.3842 11.9955 11.688 11.9955 11.992L12.892 11.9954C12.9279 11.9954 12.9642 11.9954 13.0001 11.997C13.0001 12.0007 13.0001 12.0044 13.0001 12.0078V11.9957C13.2346 11.9957 13.4688 11.9957 13.703 11.9914C13.7959 11.9914 13.9161 12.0308 13.9716 11.9759C14.027 11.921 13.9883 11.7949 13.9895 11.7007C13.9923 11.4946 13.9895 11.2885 13.9911 11.0823C13.9911 11.0554 13.9796 11.025 14.0053 11.0024H14.9967L14.9948 9.99787H14.0066H13.9911H13.0013H12.01C11.9825 9.97617 11.9939 9.94518 11.9939 9.91852C11.9939 9.31228 11.9939 8.70635 11.9924 8.10011C11.9924 8.02386 12.0896 8 12.0896 8L10.9884 8.00155H9.01133C9.02496 8.00434 9.01318 8.01364 9.00389 8.03254C9.0928 8.03254 8.99491 8.03843 8.99522 8.14257V8.85543C8.99522 8.89232 9.0262 8.93013 8.99801 8.95988V8.96174C9.00075 8.96895 9.00273 8.97643 9.00389 8.98406C9.0046 8.98832 9.0041 8.9927 9.00246 8.99669C9.00082 9.00069 8.9981 9.00415 8.9946 9.00668H8.00329C8.00329 9.31073 7.99926 9.61447 8.00329 9.91852C8.00329 9.98237 7.98749 10.0003 7.92244 10.0003C7.28428 9.99787 6.64582 9.9988 6.00767 9.9988C6.00767 10.3047 6.00364 10.6106 6.00581 10.9162C6.00581 10.9816 5.9928 11.0049 5.92186 11.0036C5.61579 10.9987 5.30973 11.0005 5.00366 10.9999L4.01018 11.003C4.01018 11.6349 4.01018 12.2668 4.01018 12.8989C4.01018 13.0009 4.01018 13.0009 3.91136 13.0009C3.63535 13.0009 3.35964 12.9993 3.08362 13.0009C3.02383 13.0009 3.00401 12.9857 3.00463 12.9234C3.00773 12.6395 3.00463 12.3559 3.00742 12.0723C3.00742 12.0103 2.98821 11.9936 2.92811 11.9942C2.64724 11.9969 2.36627 11.9969 2.08519 11.9942C2.02107 11.9942 2.00031 12.0143 2.00093 12.0785C2.0031 12.3853 2.00093 12.9993 2.00093 12.9993L2 14.0017C2 14.0017 3.71059 14.0704 10.1569 14.002Z"
    fill="#F8416C"/>
  <path
    d="M11.9875 14.0014C11.6762 14.0014 11.3652 14.0014 11.0538 14.0051C11.0049 14.0051 10.9934 13.9865 10.9937 13.9416C10.9956 13.6276 10.9965 13 10.9965 13H9.99494C9.99494 13 9.99222 13.6013 9.99068 13.8942C9.99068 14.0222 10.0068 14.0054 9.88101 14.0054C6.9484 14.0054 6.92284 14.0054 3.99023 14.0054L3.99921 15.0106C3.99921 15.0106 6.25521 15.0077 8.83673 15.0087C10.1954 15.0087 11.5542 15.0093 12.9132 15.0106C12.9816 15.0106 12.9987 14.9941 12.9977 14.926C12.9937 14.6191 12.9959 14.3123 12.9959 14.0054L11.9912 14.0027L11.9875 14.0014Z"
    fill="#392A31"/>
  <path
    d="M14.0022 9.67018V10.3315L14.004 11C14.312 11 14.6178 10.9977 14.9249 10.9986C14.98 10.9986 15 10.9915 15 10.9511C14.9982 10.3162 14.9982 9.68138 15 9.04662C15 9.00537 14.9787 8.9998 14.9252 9.00001C14.6172 9.00166 14.3107 9.00001 14.0034 9.00001C14.0034 9.22305 14.0023 9.44589 14 9.66853L14.0022 9.67018Z"
    fill="#392A31"/>
  <path
    d="M13.0034 13.9991C13.316 13.9991 13.6289 13.9991 13.9417 14C13.9834 14 14.0003 13.9955 14 13.9724C13.9988 13.6579 13.9988 13.3434 14 13.0288C14 13.0073 13.9886 12.9998 13.9439 13C13.631 13.0011 13.3181 13.0009 13.0049 13.0012L13.0031 13.002C13.0031 13.1687 13.0021 13.3354 13 13.5022L13.0034 13.9991Z"
    fill="#392A31"/>
  <path
    d="M5.99686 3.9932C5.99686 3.82806 5.99871 3.6606 5.99964 3.49531C6.00056 3.33002 5.99964 3.16458 5.99779 3.00052C5.98292 2.99983 5.96796 2.99983 5.95309 3.00052H5.89946C5.63108 3.00052 5.3626 3.00052 5.09401 3.00052H5.00154C5.00154 3.00609 5.00154 2.99851 5 3.00052C5 3.32384 5 3.67715 5 4L5.90655 3.99722C5.93687 3.99929 5.96774 3.99792 5.99686 3.9932Z"
    fill="#392A31"/>
  <path
    d="M13.0895 11.9948C13.0198 11.9948 13.0028 11.9737 13.0037 11.9067C13.0071 11.6052 13.0053 11.3036 13.0053 11.002C12.9796 11.0246 12.991 11.055 12.991 11.082C12.991 11.2881 12.991 11.4942 12.9895 11.7003C12.9895 11.7933 13.031 11.9173 12.9715 11.9755C12.912 12.0338 12.7952 11.9898 12.7029 11.991C12.4687 11.9941 12.2345 11.9941 12 11.9954V12.0075C12.3064 12.0075 12.6128 12.0075 12.9188 12.005C12.9789 12.005 12.9923 12.0267 12.9916 12.0819C12.9895 12.3862 12.9901 12.6903 12.9901 12.9943V13.0018L13.9953 12.9983H13.9972L13.9925 11.9948C13.6924 11.9948 13.3909 11.9907 13.0895 11.9948Z"
    fill="#951B39"/>
  <path
    d="M6.00133 3.00185C6.00133 2.69191 6.00133 2.31285 6.00133 2.00415H4.99609C4.99609 2.31068 4.99609 2.69687 4.99794 3.00309H5.09088C5.3607 3.00309 5.63083 3.00309 5.90096 3.00309H5.95456C5.9695 3.00169 5.98453 3.00169 5.99947 3.00309C6.00071 2.99906 6.00133 3.00185 6.00133 3.00185Z"
    fill="#FEAB6C"/>
  <path
    d="M12 7.00267H13.0034C13.0034 6.69273 13.0015 6.38434 13.0049 6.07534C13.0049 6.01335 12.9864 5.9994 12.9275 6.00002C12.6208 6.0025 12.3144 6.00002 12.0077 6.00002C12.0059 6.03101 12.0019 6.06201 12.0019 6.093C12.001 6.39592 12.0004 6.69914 12 7.00267Z"
    fill="#392A31"/>
  <path
    d="M10 14.0027H11.0034C11.0034 13.6927 11.0015 13.3843 11.0049 13.0753C11.0049 13.0133 10.9864 12.9994 10.9275 13C10.6208 13.0025 10.3144 13 10.0077 13C10.0059 13.031 10.0019 13.062 10.0019 13.093C10.001 13.3959 10.0004 13.6991 10 14.0027Z"
    fill="#961B39"/>
  <path
    d="M2 14.0027H3.00339C3.00339 13.6927 3.00153 13.3843 3.00494 13.0753C3.00494 13.0133 2.98635 12.9994 2.92749 13C2.62081 13.0025 2.31443 13 2.00774 13C2.00589 13.031 2.00186 13.062 2.00186 13.093C2.00103 13.3959 2.00041 13.6991 2 14.0027Z"
    fill="#392A31"/>
  <path
    d="M3 15.0027H4.00339C4.00339 14.6927 4.00153 14.3843 4.00494 14.0753C4.00494 14.0133 3.98635 13.9994 3.92749 14C3.62081 14.0025 3.31443 14 3.00774 14C3.00589 14.031 3.00186 14.062 3.00186 14.093C3.00103 14.3959 3.00041 14.6991 3 15.0027Z"
    fill="#961B39"/>
  <path
    d="M8 12.0027H9.00339C9.00339 11.6927 9.00153 11.3843 9.00494 11.0753C9.00494 11.0133 8.98635 10.9994 8.92749 11C8.62081 11.0025 8.31443 11 8.00774 11C8.00589 11.031 8.00186 11.062 8.00186 11.093C8.00103 11.3959 8.00041 11.6991 8 12.0027Z"
    fill="#961B39"/>
  <path
    d="M4.99752 3.00183C4.99442 2.69561 4.99566 2.30942 4.99566 2.00289V2.00134C4.68588 2.00134 4.37795 2.00134 4.0691 2.00134C4.01613 2.00134 3.9994 2.01343 4.00002 2.0686C4.0028 2.35994 4.00002 2.71203 4.00002 3.00307C4.00002 3.02321 4.00559 2.98323 4.00869 3.00307H4.12083C4.38756 3.00307 4.65397 3.00121 4.92069 3.00307C4.92348 3.00291 4.92627 3.00291 4.92906 3.00307C4.943 3.00307 4.95446 2.99842 4.96344 3.00307C4.98296 3.01361 4.99225 3.01454 4.99442 3.00307C4.99442 2.99904 4.99597 3.01423 4.99597 3.00307L4.99752 3.00183Z"
    fill="#392A31"/>
  <path d="M11 7H11.9969V6H11.0028L11 7Z" fill="#F8416C"/>
  <path d="M10 7H10.9969V6H10.0028L10 7Z" fill="#392A31"/>
  <path d="M4 7H6V6H4.00559L4 7Z" fill="#F8416D"/>
  <path d="M5 8H6V7H5.0028L5 8Z" fill="#F8416D"/>
  <path d="M3 8H4V7H3.0028L3 8Z" fill="#F8416D"/>
  <path d="M6 7H7V6H6.0028L6 7Z" fill="#F57B7C"/>
  <path d="M6 8H7V7H6.0028L6 8Z" fill="#AE72B2"/>
  <path d="M4 8H5V7H4.0028L4 8Z" fill="#AE72B2"/>
  <path d="M3 7H4V6H3.0028L3 7Z" fill="#AE72B2"/>
  <path d="M11 6H11.9969V5H11.0028L11 6Z" fill="#392A31"/>
  <path d="M10 6H10.9969V5H10.0028L10 6Z" fill="#951B39"/>
  <path d="M10 4H10.9969V3H10.0028L10 4Z" fill="#392A31"/>
  <path d="M10 5H10.9969V4H10.0028L10 5Z" fill="#392A31"/>
  <path d="M5 2H9V1H5.01119L5 2Z" fill="#392A31"/>
  <path d="M8 5H8.99688V4H8.00279L8 5Z" fill="#FE9E52"/>
  <path d="M9 5H9.99688V4H9.00279L9 5Z" fill="#F57C7C"/>
  <path d="M8 6H8.99688V5H8.00279L8 6Z" fill="#F8416D"/>
  <path d="M9 6H9.99688V5H9.00279L9 6Z" fill="#C62E53"/>
  <path d="M8 7H8.99688V6H8.00279L8 7Z" fill="#F57C7B"/>
  <path d="M9 7H9.99688V6H9.00279L9 7Z" fill="#C54D5B"/>
  <path d="M12 10H12.9969V9H12.0028L12 10Z" fill="#392A31"/>
  <path d="M13 10H13.9969V9H13.0028L13 10Z" fill="#F8416C"/>
  <path d="M1 12H2V8H1.0028L1 12Z" fill="#392A31"/>
  <path d="M1 8H2V7H1.0028L1 8Z" fill="#951B39"/>
  <path d="M2 7H3V6H2.0028L2 7Z" fill="#392A31"/>
  <path d="M1 13H2V12H1.0028L1 13Z" fill="#951B39"/>
  <path d="M9 8H9.99688V7H9.00279L9 8Z" fill="#392A31"/>
  <path d="M11 8H11.9969V7H11.0028L11 8Z" fill="#F8416C"/>
  <path d="M10 8H10.9969V7H10.0028L10 8Z" fill="#F8416C"/>
  <path d="M11 8H11.9968V7H11.0028L11 8Z" fill="#F8416C"/>
  <path d="M12 8H12.9969V7H12.0028L12 8Z" fill="#B92D4E"/>
  <path d="M11 9H11.9968V8H11.0028L11 9Z" fill="#F8416C"/>
  <path d="M12 9H12.9969V8H12.0028L12 9Z" fill="#F8416C"/>
  <path d="M9 11H9.99688V10H9.00279L9 11Z" fill="#F8416C"/>
  <path d="M12 14H12.9969V13H12.0028L12 14Z" fill="#F8416C"/>
  <path d="M9 12H9.99688V11H9.00279L9 12Z" fill="#F8416C"/>
  <path d="M3 6H3.99688V5H3.00279L3 6Z" fill="#392A31"/>
  <path d="M10 13H10.9969V12H10.0028L10 13Z" fill="#392A31"/>
  <path d="M9 13H9.99688V12H9.00279L9 13Z" fill="#392A31"/>
  <path
    d="M13.9968 11.0001H13.0054C13.0054 11.3016 13.0073 11.6032 13.0039 11.9048C13.0039 11.9717 13.02 11.9937 13.0897 11.9928C13.3911 11.9891 13.6925 11.9928 13.994 11.9928C13.9952 11.6622 13.9963 11.3316 13.9974 11.001L13.9968 11.0001Z"
    fill="#392A31"/>
  <path
    d="M5.00058 4.00294C4.68378 4.0017 4.36708 4.00015 4.05048 3.99829C4.01733 3.99829 4.00556 4.00945 4.00587 4.04292C4.00793 4.35989 4.00938 4.67675 4.01021 4.99351H5.00151C5.00089 4.66352 5.00058 4.33333 5.00058 4.00294Z"
    fill="#392A31"/>
  <path
    d="M9.00391 2.09028V2.1095V3.00181C9.01382 3.00522 9.02559 3.00181 9.00825 3.00181H9.00391C9.25762 3.00181 9.75018 3.00181 10.0036 3.00181C10.0634 3.00181 9.94441 3.01731 10.0036 3.00181C10.0036 2.67389 9.998 2.33513 9.998 2.00691C9.68357 1.99544 9.31834 2.00102 9.00391 2.00412V2.09028Z"
    fill="#392A31"/>
  <path
    d="M1.99991 12.0762C2.00239 12.383 1.99991 12.997 1.99991 12.997L1.99805 8.98853C1.99805 8.98853 2.06218 9.00371 2.09532 9.00371L3.00237 9.00526C3.00237 9.31179 3.00454 9.61832 3.00237 9.92485C3.00206 9.97692 3.01538 9.99676 3.07114 9.99676C3.38308 9.99397 3.69502 9.99397 4.00696 9.99397C4.0084 10.3298 4.00917 10.6653 4.00917 11.0007V12.8966C4.00917 12.9986 4.00917 12.9986 3.91035 12.9986C3.63433 12.9986 3.35862 12.9958 3.0826 12.9986C3.02282 12.9992 3.00361 12.9831 3.00361 12.9211C3.0064 12.6372 3.0033 12.3536 3.0064 12.07C3.00702 12.0077 2.98719 11.9919 2.92709 11.9919C2.64602 11.9946 2.36504 11.9946 2.08417 11.9919C2.02005 11.9912 1.99991 12.012 1.99991 12.0762Z"
    fill="#A05AA5"/>
  <path
    d="M4.99983 10.0536C4.99983 9.9953 5.03081 9.99406 5.07263 9.99406C5.38397 9.99406 5.6953 9.99406 6.00632 9.99406V9.00226V8.98645C5.98615 8.99815 5.96299 9.00365 5.93972 9.00226C5.62663 9.00226 5.31344 9.00164 5.00015 9.0004L4.01163 9.00226L4.00977 9.99127C4.00977 10.3269 4.01049 10.6624 4.01194 10.998L5.00541 10.9949C5.00262 10.6822 5.00293 10.3679 4.99983 10.0536Z"
    fill="#9A3D70"/>
  <path
    d="M10.0024 11.9916H11.9962C11.9962 11.6875 11.994 11.3838 11.9962 11.0797C11.9962 11.0177 11.9792 11.0001 11.9175 11.0007C11.565 11.0032 11.2121 11.0022 10.8596 11.0007C10.5737 11.0007 10.288 10.9985 10.0024 10.9976L9.99805 11.0016C9.99929 11.3316 10.0008 11.6616 10.0024 11.9916Z"
    fill="#C62E53"/>
  <path
    d="M6.00586 9.00312V9.99492C6.64401 9.99492 7.28248 9.99492 7.92063 9.99647C7.98568 9.99647 8.0021 9.9785 8.00148 9.91465C7.999 9.6106 8.00148 9.30686 8.00148 9.00281L6.00586 9.00312Z"
    fill="#392A31"/>
  <path
    d="M8.9985 12.0663C8.9985 12.0185 9.01615 12.0043 9.062 12.0043C9.70635 12.0057 10.3508 12.0064 10.9953 12.0064H12.0003C12.0003 12.003 12.0003 11.9993 12.0003 11.9956C11.9643 11.9956 11.9281 11.994 11.8922 11.994L10.9956 11.9906H9.0019H8.00781C8.00781 12.3254 8.00833 12.66 8.00936 12.9945L8.99633 12.9976L9.00129 12.993C9.00098 12.6852 9.00067 12.3759 8.9985 12.0663Z"
    fill="#961B39"/>
  <path
    d="M8.99651 8.98825C8.69323 8.98825 8.38717 8.98825 8.08389 8.99011C8.01976 8.99011 8.00087 8.97213 8.00149 8.90797C8.00489 8.60454 8.00366 8.30111 8.00396 7.99768V7.99365L6.99841 7.99644C6.99841 8.30235 6.99841 8.60826 6.99841 8.91417C6.99841 8.97213 6.97982 8.98887 6.92313 8.98825C6.61738 8.98577 6.31162 8.9867 6.00586 8.98608V9.00188H8.99651C8.99651 8.99724 8.99651 8.9929 8.99651 8.98825Z"
    fill="#9A3D70"/>
  <path
    d="M6.00649 9.99426C5.69671 9.99426 5.38414 9.99426 5.07281 9.99426C5.03006 9.99426 4.99939 9.99426 5.00001 10.0538C5.0031 10.3681 5.0028 10.6824 5.00372 10.9966C5.30979 10.9966 5.61586 10.9966 5.92192 11.0004C5.99286 11.0004 6.00618 10.9784 6.00587 10.913C6.00371 10.6074 6.00587 10.3014 6.00773 9.9955L6.00649 9.99426Z"
    fill="#392A31"/>
  <path
    d="M8.07228 7.00464C8.01032 7.00464 8.00165 7.0316 8.00196 7.08398C8.00351 7.38741 8.00196 7.69084 8.00196 7.99428V7.9983C8.31174 7.9983 8.68534 7.99831 8.99327 7.99583C8.99327 7.97196 8.99327 7.9484 8.99327 7.92454V7.90346C8.99327 7.89479 8.99327 7.88611 8.99327 7.87774C8.98893 7.58887 9.00876 7.2997 8.99327 7.00991V7.00743C8.68751 7.00743 8.38052 7.00867 8.07228 7.00464Z"
    fill="#C62E53"/>
  <path
    d="M11.9988 9.00305C11.6949 9.00305 11.391 9.00491 11.0871 9.00305C11.0251 9.00305 11.0072 9.02072 11.0078 9.08178C11.0109 9.38583 11.0097 9.68988 11.0103 9.99393H12.0016C12.0001 9.66333 11.9992 9.33304 11.9988 9.00305Z"
    fill="#951B39"/>
  <path d="M12.0011 12.007H10.9961V12.9989H12.0014C12.0008 12.6678 12.0007 12.3372 12.0011 12.007Z" fill="#951B39"/>
  <path
    d="M7.23633 1.99949C7.31377 1.99949 7.39122 1.99949 7.46928 1.99949C7.59506 1.99949 7.72114 2.00135 7.84691 1.99949H7.79889C7.61116 1.99887 7.42364 1.99887 7.23633 1.99949Z"
    fill="#F9D88C"/>
  <path d="M6.00781 1.99939C6.04468 2.01148 6.08247 1.99939 6.1215 1.99939H6.00781Z" fill="#F9D88C"/>
  <path
    d="M8.00226 2.99213C8.00226 3.32686 8.00443 3.66532 8.00567 3.99974C8.30585 3.99974 8.69339 4.00315 8.99419 3.99974C8.97777 3.98332 8.98955 3.96255 8.99419 3.94209C8.99048 3.7834 8.99419 3.62441 8.99574 3.46572C8.99729 3.30703 8.99574 3.14586 8.99574 2.9912C8.988 2.98903 8.97932 2.9912 8.98924 2.9912C8.74915 2.9912 8.36626 2.9912 8.12897 2.9912L8.00226 2.99213ZM8.03324 2.99213C8.03324 2.99616 8.03324 2.99523 8.03324 2.99213Z"
    fill="#F9D88C"/>
  <path
    d="M6.99219 3.00185C6.99219 3.00649 6.99219 2.99131 6.99219 3.00185C6.99219 3.01238 6.99219 2.99379 6.99219 3.00185C6.99838 3.01176 7.01635 3.01207 7.0402 3.00185C7.04857 2.99844 7.05755 3.00185 7.06685 3.00185C7.06685 2.93986 7.08543 3.00185 7.14553 3.00185H7.84192C7.90202 3.00185 7.92123 2.93986 7.92061 3.00185H7.92587C7.92979 3.00154 7.93373 3.00154 7.93765 3.00185C7.95778 3.00649 7.97885 3.01734 7.99527 3.00185C7.99527 2.9879 7.99527 3.00587 7.99836 3.00185C7.99836 2.68478 7.99836 2.31998 7.99836 2.00415H6.99312C6.99281 2.30572 6.9925 2.69686 6.99219 3.00185Z"
    fill="#FE9E52"/>
  <path
    d="M7.99929 3.00184C8.00703 2.98696 8.03181 3.00184 8.08076 3.00184H8.99121C8.98605 3.00215 8.98088 3.00215 8.97572 3.00184C8.97386 3.00184 8.97262 3.00184 8.97108 3.00184C8.96953 3.00184 8.96643 3.00184 8.96488 3.00184C8.91841 2.98541 8.99121 2.91753 8.99121 3.00184V2.00476H7.99805C7.99836 2.31997 7.99898 2.68477 7.99929 3.00184Z"
    fill="#F9D88C"/>
  <path
    d="M6.00155 3.00191H6.14158C6.38093 3.00191 6.6205 3.00191 6.86027 3.00191H6.90984C6.96312 3.00191 6.98573 2.97928 6.99131 3.00191C6.99131 2.69693 6.99131 2.30579 6.99131 2.00391H6C6.00093 2.31292 6.00124 2.69321 6.00155 3.00191Z"
    fill="#F9D88C"/>
  <path
    d="M12.992 7.99646H12.9902C12.9902 8.30454 12.9902 8.61231 12.9902 8.92039C12.9902 8.97773 13.0051 9.00965 13.0676 9.00345L13.993 9.0019C13.9942 8.66717 13.9953 8.33233 13.9964 7.99739L12.992 7.99646Z"
    fill="#392A31"/>
  <path
    d="M4.00195 6.00007H4.00969H5.001C5.001 5.66534 5.001 5.33071 5.001 4.99618V4.99463H4.00969C4.00969 5.03306 4.00659 5.07149 4.00628 5.10962C4.00442 5.40613 4.00298 5.70295 4.00195 6.00007Z"
    fill="#FB5F81"/>
  <path
    d="M5.00248 4.99556L6.00648 4.99401C6.00648 4.66341 6.00721 4.33167 6.00865 3.99879L6.00745 3.99397L6.00432 3.99011C5.97512 3.99989 5.9441 4.00296 5.91355 3.9991L5 4.00282C5 4.33342 5 4.66402 5 4.99463L5.00248 4.99556Z"
    fill="#FB5F81"/>
  <path d="M7.02148 2.99216H7.02736C7.02736 2.97046 7.02705 2.98286 7.02148 2.99216Z" fill="#F9DD9D"/>
  <path
    d="M6.99573 3.99819L6.99914 4.00439C6.99752 4.00245 6.997 4.00038 6.99573 3.99819C6.99573 3.66439 6.9948 3.32594 6.9948 2.99182H6.88731C6.62957 2.99182 6.37141 2.99182 6.11285 2.99182H6.00473C6.00473 3.32315 6.00287 3.65881 6.00195 3.98983C6.00326 3.99087 6.00433 3.99218 6.00508 3.99368C6.00583 3.99518 6.00624 3.99683 6.00628 3.9985L6.99573 3.99819Z"
    fill="#F9DD9D"/>
  <path
    d="M3.00503 7.99646L2.00195 7.99956C2.00195 8.32809 2.00195 8.65663 2.00195 8.98517C2.03293 9.00593 2.06608 9.00035 2.09922 9.00035L3.00627 9.0019L3.00503 7.99646Z"
    fill="#F8416D"/>
  <path
    d="M9.00905 2.99209C9.00905 3.32249 9.00905 3.669 9.00905 3.99908C9.00945 4.00029 9.00945 4.0016 9.00905 4.0028H10.0075V3.99815C10.0075 3.69441 10.0044 3.29552 10.0075 2.99147C10.0341 2.97628 10.0075 2.94591 10.0075 2.99147C10.0322 2.99147 9.99416 2.99922 10.0075 2.99147C9.7262 2.9955 9.34919 2.99147 9.0676 2.99147H9.00781C9.03073 2.99209 9.01989 2.9893 9.00905 2.99209Z"
    fill="#F9D88C"/>
  <path
    d="M12 12.0072C12 12.3378 12 12.6684 12 12.999L12.9913 12.9946C12.9913 12.6906 12.9913 12.3865 12.9929 12.0822C12.9929 12.027 12.9802 12.0047 12.9201 12.0053C12.614 12.0084 12.3076 12.0075 12.0013 12.0078L12 12.0072Z"
    fill="#392A31"/>
  <path
    d="M4.00885 9.00378H3.00391C3.00391 9.31031 3.00391 9.61684 3.00391 9.92337C3.00391 9.97544 3.01692 9.9959 3.07268 9.99528C3.38464 9.99249 3.69659 9.99311 4.00854 9.99249L4.00885 9.00378Z"
    fill="#F8416D"/>
  <path
    d="M6.00751 7.99646H5.00195C5.00195 8.33078 5.00195 8.66531 5.00195 9.00004C5.31504 9.00004 5.62823 9.00066 5.94152 9.0019C5.96479 9.0033 5.98796 8.9978 6.00813 8.9861L6.00751 7.99646Z"
    fill="#A058A3"/>
  <path
    d="M4.99922 7.99646H4.00977C4.00977 8.3314 4.00977 8.66655 4.00977 9.0019L4.99829 9.00004C4.9987 8.66655 4.99901 8.33202 4.99922 7.99646Z"
    fill="#F8416D"/>
  <path
    d="M8.00391 6.991L6.99805 6.99317C6.99805 7.3279 6.99805 7.66264 6.99805 7.99737L8.0036 7.99458C8.0036 7.69115 8.0036 7.38772 8.0036 7.08429C8.0036 7.03191 8.01104 7.00432 8.07392 7.00494C8.38216 7.00835 8.68915 7.00711 8.9977 7.00773C8.99797 7.00721 8.99811 7.00662 8.99811 7.00603C8.99811 7.00544 8.99797 7.00485 8.9977 7.00432C8.9977 7.00154 8.99522 6.99875 8.99615 6.99627C8.99615 6.99659 8.99601 6.99598 8.99615 6.99627C8.99615 6.99594 8.99601 6.9947 8.99615 6.99441V6.99255C8.69225 6.98976 8.30812 6.991 8.00391 6.991Z"
    fill="#C54D5B"/>
  <path d="M9.00977 5.97623C9.01844 5.97035 9.03022 5.96973 9.00977 5.96973V5.97623Z" fill="#C62E53"/>
  <path
    d="M11.9926 11.0034C11.6828 11.0034 11.3745 11.0034 11.0654 11C11.0139 11 10.9997 11.0177 11 11.0673C11.0022 11.3772 11.0022 11.6856 11.0028 11.9946H11.9969C11.9952 11.663 11.9938 11.3326 11.9926 11.0034Z"
    fill="#392A31"/>
  <path
    d="M12.9926 11.0034C12.6828 11.0034 12.3745 11.0034 12.0654 11C12.0139 11 11.9997 11.0177 12 11.0673C12.0022 11.3772 12.0022 11.6856 12.0028 11.9946H12.9969C12.9952 11.663 12.9938 11.3326 12.9926 11.0034Z"
    fill="#951B39"/>
  <path
    d="M6.99716 7.99646H6.00586V8.9861C6.31161 8.9861 6.61737 8.9861 6.92313 8.98827C6.97982 8.98827 6.99902 8.97215 6.9984 8.91419C6.99592 8.60828 6.9984 8.30237 6.9984 7.99646H6.99716Z"
    fill="#C62E53"/>
  <path
    d="M8.99573 7.99642C8.68595 7.9989 8.31204 7.99828 8.00443 7.9989C8.00443 8.30233 8.00443 8.60576 8.00195 8.90919C8.00195 8.97335 8.02023 8.99195 8.08435 8.99133C8.38763 8.98823 8.69369 8.98978 8.99697 8.98947V8.86549C8.99697 8.60793 8.9948 8.35037 8.99697 8.09281C8.99697 8.08258 8.99697 8.07236 8.99697 8.06182C8.99707 8.04982 9.00005 8.03802 9.00565 8.02741C9.01494 8.00882 9.02671 7.99952 9.01308 7.99642C9.00773 7.99582 9.00232 7.99582 8.99697 7.99642H8.99573Z"
    fill="#392A31"/>
  <path
    d="M8.00267 4.00383L8.00639 3.9998C8.00639 3.66538 8.00422 3.32692 8.00298 2.99219C7.97727 2.99219 7.95156 2.99219 7.92616 2.99219H7.81711C7.60605 2.99219 7.39498 2.99219 7.18392 2.99219H6.99805C6.99805 3.3263 6.99805 3.66476 6.99805 3.99856C6.99931 4.00075 7.00076 4.00282 7.00238 4.00476L8.00267 4.00383Z"
    fill="#FE9F52"/>
  <path d="M8.99609 5.02473C9.01593 5.02473 9.00508 5.02473 8.99609 5.01978V5.02473Z" fill="#FE9E52"/>
  <path d="M8.99609 1.99946C9.06021 1.99946 8.99609 1.9353 8.99609 1.99946Z" fill="#FE9E52"/>
  <path d="M8.99609 2.99219C9.06239 2.99219 8.99609 3.05417 8.99609 2.99219Z" fill="#FE9E52"/>
  <path d="M6.00595 5.99977V4.99402L5.00195 4.99557C5.00195 5.3303 5.00195 5.66493 5.00195 5.99946L6.00595 5.99977Z"
        fill="#F57B7C"/>
  <path
    d="M6.99664 4.99436C6.99664 4.66376 6.99736 4.33409 6.99881 4.00534L6.9954 3.99915H6.00998C6.00998 4.32975 6.00925 4.66149 6.00781 4.99436H6.99664Z"
    fill="#F57C7C"/>
  <path d="M4.00885 9.00374C4.00885 8.66838 4.00885 8.33323 4.00885 7.99829H3.00391V9.00559H4.00978L4.00885 9.00374Z"
        fill="#A05AA5"/>
  <path d="M3 8.00003V7.00003C3 7.00003 2.30142 6.99072 2 6.99072V7.99648L3 8.00003Z" fill="#A05AA5"/>
  <path
    d="M8.00165 6.00049H6.99609C6.99609 6.33109 6.99609 6.66169 6.99609 6.99229L8.00196 6.99012C8.00175 6.66055 8.00165 6.33068 8.00165 6.00049Z"
    fill="#F8416D"/>
  <path d="M8.99609 5.97654C9.00477 5.97066 9.01655 5.96973 8.99609 5.96973V5.97654Z" fill="#F57C7B"/>
  <path
    d="M8.00206 4.99373C8.00206 4.66313 8.00206 4.33315 8.00206 4.00378H7.00022C7.00022 4.33315 6.9995 4.66282 6.99805 4.9928L8.00206 4.99373Z"
    fill="#F8416D"/>
  <path d="M6.00546 5.99984H6.99521V4.99438H6.00391L6.00546 5.99984Z" fill="#F8416D"/>
  <path d="M6.99671 6.00046H8.00258V4.99377H6.99609L6.99671 6.00046Z" fill="#F57B7C"/>
  <path
    d="M11.0028 12.9907C11.0028 13.3046 11.0028 13.6183 11 13.9323C11 13.9772 11.0112 13.9964 11.0601 13.9958C11.3714 13.9933 11.6825 13.993 11.9938 13.9921C11.9938 13.6615 11.9946 13.3309 11.9963 13.0003L11.9925 12.9885L11.0028 12.9907Z"
    fill="#C62E53"/>
  <path d="M11 11.9983V12.9901H11.9898V12.0023V11.9948L11 11.9983Z" fill="#CC5F00"/>
  <path
    d="M11.9902 12.0013V12.9891L11.9939 13.0009H12.9933C12.9945 12.6674 12.9956 12.3338 12.9964 12.0001V11.9985L11.9912 12.0019L11.9902 12.0013Z"
    fill="#FE9C00"/>
</svg>
