<svg xmlns="http://www.w3.org/2000/svg" width="16" height="16" fill="none">
  <path fill="#F8416C"
        d="M10.157 14.002s-.158 0-.158-.159q0-.421-.003-.842l-.987-.003L8.995 10h1.007s-.003.691 0 .998q.427.002.857.003h1.058c.062 0 .079.018.079.08-.003.303 0 .607 0 .911l.896.003q.054 0 .108.002v.01-.011q.352.001.703-.005c.093 0 .213.04.269-.015.055-.055.016-.181.018-.275q.001-.309.001-.619c0-.027-.011-.057.014-.08h.992l-.002-1.004H12.01c-.027-.022-.016-.053-.016-.08q0-.909-.002-1.818c0-.076.098-.1.098-.1l-1.102.002H9.011c.014.002.002.012-.007.03.089 0-.01.006-.009.11v.713c0 .037.031.075.003.105v.002l.006.022a.02.02 0 0 1-.01.023h-.99c0 .304-.005.607 0 .912 0 .063-.017.081-.082.081Q6.965 9.998 6.008 10c0 .306-.004.612-.002.917 0 .066-.013.089-.084.088-.306-.005-.612-.003-.918-.004l-.994.003v1.896c0 .102 0 .102-.099.102q-.413-.002-.827 0c-.06 0-.08-.015-.08-.078.004-.284 0-.567.003-.85 0-.063-.019-.08-.079-.079q-.42.005-.843 0c-.064 0-.085.02-.084.085.002.306 0 .92 0 .92L2 14.002s1.71.068 8.157 0"/>
  <path fill="#392A31"
        d="M11.988 14.001q-.468-.001-.934.004c-.05 0-.06-.019-.06-.063.002-.314.002-.942.002-.942H9.996l-.004.894c0 .128.016.111-.11.111h-5.89l.008 1.006s2.256-.003 4.838-.002q2.037 0 4.076.002c.069 0 .086-.017.085-.085-.004-.307-.002-.614-.002-.92l-1.005-.003zM14.002 9.67v.662l.002.668q.462-.001.92-.001c.056 0 .076-.008.076-.048q-.003-.953 0-1.904c0-.042-.021-.047-.075-.047q-.461.002-.922 0 0 .334-.003.669zM13.003 14h.939c.041 0 .058-.005.058-.028v-.943c0-.022-.011-.03-.056-.029l-.94.001v.001q0 .25-.004.5zM5.997 3.993 6 3.495q0-.248-.002-.494h-.996c0 .005 0-.002-.002 0V4l.907-.003a.4.4 0 0 0 .09-.004"/>
  <path fill="#951B39"
        d="M13.09 11.995c-.07 0-.087-.021-.086-.088q.003-.452.001-.905c-.025.023-.014.053-.014.08q0 .309-.002.618c0 .093.042.217-.018.276-.059.058-.176.014-.268.015q-.35.004-.703.004v.013q.46 0 .919-.003c.06 0 .073.022.073.077q-.003.456-.002.912v.008l1.005-.004h.002l-.005-1.003c-.3 0-.601-.004-.903 0"/>
  <path fill="#FEAB6C"
        d="M6.001 3.002v-.998H4.996c0 .307 0 .693.002 1h.957a.2.2 0 0 1 .044 0c.002-.005.002-.002.002-.002"/>
  <path fill="#392A31"
        d="M12 7.003h1.003c0-.31-.002-.619.002-.928 0-.062-.019-.076-.078-.075-.306.003-.613 0-.92 0q-.003.047-.005.093z"/>
  <path fill="#961B39"
        d="M10 14.003h1.003c0-.31-.002-.619.002-.928 0-.062-.019-.076-.078-.075q-.46.002-.92 0-.003.047-.005.093z"/>
  <path fill="#392A31"
        d="M2 14.003h1.003q-.001-.465.002-.928c0-.062-.019-.076-.078-.075q-.46.002-.92 0-.003.047-.005.093z"/>
  <path fill="#961B39"
        d="M3 15.003h1.003q-.001-.465.002-.928c0-.062-.019-.076-.078-.075q-.46.002-.92 0-.003.047-.005.093zM8 12.003h1.003q-.001-.465.002-.928c0-.062-.019-.076-.078-.075q-.46.002-.92 0-.003.047-.005.093z"/>
  <path fill="#392A31"
        d="M4.998 3.002c-.004-.306-.002-.693-.002-1h-.927c-.053 0-.07.011-.069.067.003.29 0 .643 0 .934 0 .02.006-.02.009 0h.112q.4-.002.8 0h.008c.014 0 .025-.005.034 0q.03.017.031 0c0-.004.002.011.002 0z"/>
  <path fill="#F8416C" d="M11 7h.997V6h-.994z"/>
  <path fill="#392A31" d="M10 7h.997V6h-.994z"/>
  <path fill="#F8416D" d="M4 7h2V6H4.006zM5 8h1V7h-.997zM3 8h1V7h-.997z"/>
  <path fill="#F57B7C" d="M6 7h1V6h-.997z"/>
  <path fill="#AE72B2" d="M6 8h1V7h-.997zM4 8h1V7h-.997zM3 7h1V6h-.997z"/>
  <path fill="#392A31" d="M11 6h.997V5h-.994z"/>
  <path fill="#951B39" d="M10 6h.997V5h-.994z"/>
  <path fill="#392A31" d="M10 4h.997V3h-.994zM10 5h.997V4h-.994zM5 2h4V1H5.011z"/>
  <path fill="#FE9E52" d="M8 5h.997V4h-.994z"/>
  <path fill="#F57C7C" d="M9 5h.997V4h-.994z"/>
  <path fill="#F8416D" d="M8 6h.997V5h-.994z"/>
  <path fill="#C62E53" d="M9 6h.997V5h-.994z"/>
  <path fill="#F57C7B" d="M8 7h.997V6h-.994z"/>
  <path fill="#C54D5B" d="M9 7h.997V6h-.994z"/>
  <path fill="#392A31" d="M12 10h.997V9h-.994z"/>
  <path fill="#F8416C" d="M13 10h.997V9h-.994z"/>
  <path fill="#392A31" d="M1 12h1V8h-.997z"/>
  <path fill="#951B39" d="M1 8h1V7h-.997z"/>
  <path fill="#392A31" d="M2 7h1V6h-.997z"/>
  <path fill="#951B39" d="M1 13h1v-1h-.997z"/>
  <path fill="#392A31" d="M9 8h.997V7h-.994z"/>
  <path fill="#F8416C" d="M11 8h.997V7h-.994zM10 8h.997V7h-.994z"/>
  <path fill="#F8416C" d="M11 8h.997V7h-.994z"/>
  <path fill="#B92D4E" d="M12 8h.997V7h-.994z"/>
  <path fill="#F8416C"
        d="M11 9h.997V8h-.994zM12 9h.997V8h-.994zM9 11h.997v-1h-.994zM12 14h.997v-1h-.994zM9 12h.997v-1h-.994z"/>
  <path fill="#392A31"
        d="M3 6h.997V5h-.994zM10 13h.997v-1h-.994zM9 13h.997v-1h-.994zM13.997 11h-.992q.002.453-.001.905c0 .067.016.089.086.088.301-.004.603 0 .904 0zM5 4.003l-.95-.005c-.033 0-.044.011-.044.045l.004.95h.992zM9.004 2.09v.912c.01.003.022 0 .004 0h-.004 1c.06 0-.06.015 0 0 0-.328-.006-.667-.006-.995-.314-.012-.68-.006-.994-.003z"/>
  <path fill="#A05AA5"
        d="M2 12.076c.002.307 0 .921 0 .921l-.002-4.008s.064.015.097.015l.907.001c0 .307.003.613 0 .92 0 .052.013.072.07.072q.467-.004.935-.003l.002 1.007v1.896c0 .102 0 .102-.099.102-.276 0-.551-.003-.827 0-.06 0-.08-.016-.08-.078.003-.284 0-.567.003-.851.001-.062-.019-.078-.079-.078a44 44 0 0 1-.843 0c-.064 0-.084.02-.084.084"/>
  <path fill="#9A3D70"
        d="M5 10.054c0-.059.03-.06.073-.06h.933V8.986a.1.1 0 0 1-.066.016Q5.47 9.002 5 9l-.988.002-.002.99q0 .502.002 1.006l.993-.003q-.002-.47-.005-.941"/>
  <path fill="#C62E53"
        d="M10.002 11.992h1.994q-.002-.457 0-.912c0-.062-.017-.08-.079-.08q-.529.004-1.057 0l-.858-.002-.004.004z"/>
  <path fill="#392A31" d="M6.006 9.003v.992l1.915.001c.065 0 .081-.018.08-.081q-.002-.456 0-.912z"/>
  <path fill="#961B39"
        d="M8.999 12.066c0-.048.017-.062.063-.062q.966.002 1.933.002H12v-.01l-.108-.002-.896-.003H8.008l.001 1.004.987.003.005-.005q0-.462-.002-.927"/>
  <path fill="#9A3D70"
        d="M8.997 8.988q-.457 0-.913.002C8.02 8.99 8 8.972 8 8.908q.005-.455.003-.91v-.004l-1.006.002v.918c0 .058-.018.075-.075.074q-.458-.002-.917-.002v.016h2.99z"/>
  <path fill="#392A31"
        d="M6.006 9.994h-.933c-.043 0-.074 0-.073.06q.004.47.004.943.459 0 .918.003c.07 0 .084-.022.084-.087q-.002-.459.002-.918z"/>
  <path fill="#C62E53"
        d="M8.072 7.005c-.062 0-.07.027-.07.079q.002.455 0 .91v.004c.31 0 .683 0 .991-.002v-.118c-.004-.29.016-.578 0-.868v-.003q-.458.002-.92-.002"/>
  <path fill="#951B39"
        d="M11.999 9.003q-.456.002-.912 0c-.062 0-.08.018-.08.079q.004.456.003.912h.992zM12.001 12.007h-1.005v.992h1.005z"/>
  <path fill="#F9D88C"
        d="M7.236 2h.611-.611M6.008 2c.037.011.074 0 .114 0zM8.002 2.992q0 .504.004 1.008c.3 0 .687.003.988 0-.016-.017-.004-.037 0-.058-.004-.159 0-.318.002-.476V2.99c-.008-.002-.017 0-.007 0h-.86zm.031 0q0 .005 0 0"/>
  <path fill="#FE9E52"
        d="M6.992 3.002c0 .004 0-.01 0 0s0-.008 0 0q.01.015.048 0c.009-.004.018 0 .027 0 0-.062.018 0 .079 0h.696c.06 0 .08-.062.079 0h.017c.02.004.04.015.057 0 0-.014 0 .004.003 0v-.998H6.993z"/>
  <path fill="#F9D88C"
        d="M8 3.002c.007-.015.032 0 .08 0h.911-.026000000000000002c-.047-.017.026-.084.026 0v-.997h-.993zM6.002 3.002h.908c.053 0 .076-.023.081 0v-.998H6z"/>
  <path fill="#392A31" d="M12.992 7.996h-.002v.924c0 .058.015.09.078.083l.925-.001.003-1.005z"/>
  <path fill="#FB5F81"
        d="M4.002 6H5V4.995H4.01q-.001.057-.004.115zM5.002 4.996l1.004-.002.003-.995-.002-.005-.003-.004a.2.2 0 0 1-.09.01L5 4.002v.992z"/>
  <path fill="#F9DD9D"
        d="M7.021 2.992h.006c0-.022 0-.01-.006 0M6.996 3.998l.003.006zl-.001-1.006h-.99l-.003.998.004.008z"/>
  <path fill="#F8416D" d="M3.005 7.996 2.002 8v.985c.03.02.064.015.097.015l.907.002z"/>
  <path fill="#F9D88C"
        d="M9.01 2.992v1.011h.998v-.005c0-.304-.004-.702 0-1.007.026-.015 0-.045 0 0 .024 0-.014.008 0 0-.282.004-.659 0-.94 0h-.06c.023.001.012-.002.001.001"/>
  <path fill="#392A31" d="M12 12.007V13l.991-.004q0-.456.002-.913c0-.055-.013-.077-.073-.077q-.459.003-.919.003z"/>
  <path fill="#F8416D" d="M4.009 9.004H3.004v.92c0 .051.013.072.069.071q.468-.003.936-.003z"/>
  <path fill="#A058A3" d="M6.008 7.996H5.002V9q.47 0 .94.002a.1.1 0 0 0 .066-.016z"/>
  <path fill="#F8416D" d="M5 7.996h-.99v1.006L4.998 9z"/>
  <path fill="#C54D5B"
        d="m8.004 6.991-1.006.002v1.004l1.006-.002v-.91c0-.053.007-.08.07-.08q.461.003.924.003v-.004q-.002-.003-.002-.008v-.003c-.304-.003-.688-.002-.992-.002"/>
  <path fill="#C62E53" d="M9.01 5.976c.008-.006.02-.006 0-.006z"/>
  <path fill="#392A31" d="M11.993 11.003q-.465 0-.928-.003c-.051 0-.065.018-.065.067l.003.928h.994z"/>
  <path fill="#951B39" d="M12.993 11.003q-.465 0-.928-.003c-.051 0-.065.018-.065.067l.003.928h.994z"/>
  <path fill="#C62E53" d="M6.997 7.996h-.991v.99q.459 0 .917.002c.057 0 .076-.016.075-.074q-.002-.459 0-.918"/>
  <path fill="#392A31"
        d="M8.996 7.996c-.31.003-.684.002-.992.003q0 .455-.002.91c0 .064.018.083.082.082q.457-.002.913-.002v-.124q-.002-.386 0-.772v-.031q0-.018.009-.035c.009-.018.02-.027.007-.03z"/>
  <path fill="#FE9F52" d="M8.003 4.004 8.006 4l-.003-1.008H6.998V4l.004.006z"/>
  <path fill="#FE9E52" d="M8.996 5.025c.02 0 .01 0 0-.005zM8.996 2c.064 0 0-.065 0 0M8.996 2.992c.066 0 0 .062 0 0"/>
  <path fill="#F57B7C" d="M6.006 6V4.994l-1.004.002v1.003z"/>
  <path fill="#F57C7C" d="M6.997 4.994q0-.495.002-.989L6.995 4H6.01q0 .495-.002.995z"/>
  <path fill="#A05AA5" d="M4.009 9.004V7.998H3.004v1.008H4.01zM3 8V7s-.699-.01-1-.01v1.006z"/>
  <path fill="#F8416D" d="M8.002 6H6.996v.992l1.006-.002z"/>
  <path fill="#F57C7B" d="M8.996 5.977c.009-.006.02-.007 0-.007z"/>
  <path fill="#F8416D" d="M8.002 4.994v-.99H7q0 .494-.002.989zM6.005 6h.99V4.994h-.991z"/>
  <path fill="#F57B7C" d="M6.997 6h1.006V4.994H6.996z"/>
  <path fill="#C62E53"
        d="M11.003 12.99q0 .472-.003.942c0 .045.011.064.06.064q.466-.004.934-.004 0-.495.002-.992l-.004-.011z"/>
  <path fill="#CC5F00" d="M11 11.998v.992h.99v-.995z"/>
  <path fill="#FE9C00" d="M11.99 12.001v.988l.004.012h1l.002-1v-.002l-1.005.003"/>
</svg>