<svg xmlns="http://www.w3.org/2000/svg" width="13" height="13" fill="#FFB74D" viewBox="0 0 16 16"><path fill="none" d="M11.54 10.582a4.1 4.1 0 0 1-.86-.849l-.004.017c-.024.115-.056.273.072.472.102.158.539.553.539.553zM10.049 5.665c-.097-.07-.19-.213-.29-.366-.148-.228-.312-.48-.53-.557-.108-.009-.193-.024-.274-.039a1.5 1.5 0 0 0-.633-.002q.077-.037.152-.076c.108-.055.216-.11.332-.145a.7.7 0 0 1 .267.007l.07.01c.026-.012.044-.027.038-.05-.284-.161-.756-.222-1.222-.282a8 8 0 0 1-.763-.122q.25.006.506.01c.566.006 1.133.012 1.549.135.31.254.47.669.618 1.049.06.152.116.299.18.428"/><path fill="none" d="M10.751 7.796s.327-.044.32-.016a.8.8 0 0 0 .045.327l-.18.135c.297-.138.607-.148.922-.158q.138-.003.278-.012s-.346-.088-.325-.09c.078-.01-.02-.334-.047-.34q.098-.03.197-.052c-.495-.12-.78-.05-1.21.206m.368.308-.003.003q.002.001.003-.003" clip-rule="evenodd"/><path fill="none" d="M3.753 1.558a5 5 0 0 0-.317.335c-.15.169-.282.317-.493.46-.069.055-.26.14-.501.152l-.077.005c-.08.007-.16.013-.319-.005-.184-.092-.44.038-.61.227-.116.154-.15.393-.182.624-.02.141-.038.279-.076.392-.081.303-.073.599.018.874.135.412.313.78.61 1.067.44.398.695.694.876 1.059.08.138.125.256.17.376.032.085.064.172.11.267.04.072.1.157.207.179.156.03.353.04.552.051q.144.007.284.018c.123.001.292-.008.452-.023L4.54 7.6c.2-.034.424-.072.615-.133l.143-.03a.7.7 0 0 0 .158-.047c-.012.038-.088.12-.162.198-.058.061-.114.121-.139.16-.427.664-.456 1.272-.367 2.222.057.475.165.87.344 1.321.081.207.323.65.49.867.495.646 1.632 1.46 3.175 1.779.269.034.545-.013.833-.083.76-.213 2.815-.884 2.815-.884s-1.88.127-2.51.07l-.147-.017c-.08-.008-.14-.014-.158-.03l-.007-.007c-.043-.047-.295-.32-.468-.656a3 3 0 0 1-.233-.705c-.067-.17.095-.81.095-.81q.028-.051.04-.08c.025-.056.027-.059.098-.06l.022.003c.271.027.35.035.521-.003l.051.1c.096.191.189.376.42.516.888.244 1.093-.023 1.307-.301l.012-.015c.432.293 1.082.439 1.685.316a2.1 2.1 0 0 0 .841-.405c.935-.998 1.204-2.727 1.12-2.817-.051-.082-.325-.136-.61-.136-.167 0-.338.014-.47.025-.148.013-.248.021-.246.002a.9.9 0 0 0-.089-.51c-.102-.2-.219-.398-.304-.543l-.078-.133a18 18 0 0 1-.297-.547c-.032-.045-.225-.456-.218-.513.071-.404.193-.71.33-1.052l.06-.153.027-.057c.034-.07.058-.119.056-.181.002-.14-.221-.647-.572-1.113l-.048-.063c-.33-.44-.612-.815-1.135-1.033-.516-.214-.818-.16-1.025-.123l-.038.007c-.253.048-.605.163-.779.266-.138.081-.227.163-.313.243-.084.077-.166.152-.29.224a7 7 0 0 1-.874-.467l-.094-.048c-.3-.153-1.065-.543-1.876-.812A8 8 0 0 0 4.371 1c-.137.083-.222.167-.378.322-.065.065-.142.142-.24.236m9.287 4.67q.003.005.004.003zm-.565-.572c-.032.22.217.634.217.634.017.064.057.143.1.23q.053.098.099.205c.157.379.42.803.446.831.093.14.09.297.088.442-.002.125-.004.24.058.326l.018.02c-.042.099-.077.231-.108.346-.027.097-.05.181-.07.222-.026.058-.277.534-.537.629-.208.075-.584.352-.536.36.274.047 1.104-.349 1.239-.494l.151-.321v-.001c.107-.223.236-.494.317-.677l.119-.02c.33-.066.709 0 .706.025-.035.367-.178.838-.363 1.228-.198.353-.407.66-.61.89-.192.215-.372.364-.733.422-.626.101-1-.093-1.342-.271q-.098-.052-.194-.098l-.251.19a.88.88 0 0 1-.666.251c-.234-.007-.43-.1-.568-.441a1 1 0 0 0-.048-.08q-.04-.078-.081-.163a2 2 0 0 0-.178-.326c-.767-.56-.443-1.071-.232-1.404l.018-.028c-.439-.102-1.02-.32-1.1-.605-.128-.925-.063-1.218.066-1.693l-.059.011c-.558.109-1.124.219-1.722.4a.1.1 0 0 0-.032.001c-.168.036-.796.186-.956.266-.19.051-.364.08-.553.111a9 9 0 0 0-.576.11c-.151.016-1.28-.056-1.317-.087-.077-.1-.095-.19-.118-.302a1.6 1.6 0 0 0-.157-.457c-.09-.172-.441-.51-.592-.65-.494-.452-.587-.718-.705-1.182q-.009-.04-.022-.083a1.4 1.4 0 0 1-.045-.601 1.1 1.1 0 0 0 .045-.36c0-.167-.001-.302.203-.495q.195.001.373-.01c.195-.01.375-.019.539.01q.043.006.103.013c.134.014.329.036.528.104l.284.101c.429.154 1.168.419 1.23.422.209.012-.829-.494-1.224-.687l-.084-.041c-.165-.081-.274-.126-.341-.154-.059-.024-.085-.034-.09-.045.431-.233.557-.395.7-.58.087-.112.18-.232.353-.382a.9.9 0 0 0 .223-.139c.076-.06.145-.113.242-.123q.235.033.43.057c.38.048.668.084.997.205a20 20 0 0 1 1.918.846q.203.103.388.19c.174.085.339.164.506.253.252.076 1.086.604 1.308.89.225.439.406.914.557 1.372l.011.054c.02.096.051.242.128.438.058.148.247.53.247.53s-.174-1.054-.193-1.113c-.092-.298-.18-.684-.249-.987-.061-.27-.108-.474-.13-.496-.133-.154-.64-.546-.98-.728l-.086-.044c-.085-.044-.144-.074-.148-.097l.052-.05c.072-.067.113-.106.212-.176q.046-.033.092-.07c.084-.066.172-.136.29-.176l.084-.037c.103-.045.206-.09.307-.104.47-.07.909.023 1.11.187.409.332.964 1.013 1.213 1.453.097.176.142.292.097.503-.043.2-.084.316-.13.448l-.008.022c-.01.031-.03.083-.053.148-.085.23-.226.614-.225.682M6.782 7.115c-.308.065-.613.15-.877.315-.056.02-.235.25-.283.319a2.2 2.2 0 0 0-.33.734c.341.866 1.149 2.062 3.26 2.508a.7.7 0 0 1 .012-.154q.054-.121.09-.207c.038-.09.067-.16.105-.232l.023-.013c-.243-.124-.331-.23-.48-.409l-.094-.112c-.556-.865-1.115-1.807-1.426-2.75m2.083 5.42c-.932.014-1.88-.113-2.64-.405l.026.029c.397.373.725.587 1.233.882.024.014.973.414 1.438.482.18.029.59-.076.471-.22l-.18-.242-.244-.329a1 1 0 0 1-.104-.197" clip-rule="evenodd"/><path fill="#FDEE21" d="m11.119 8.104-.003.003q.002.001.003-.003"/><path fill-rule="evenodd" d="M12.692 6.29s-.249-.415-.217-.634c-.001-.068.14-.451.225-.682v-.002c.024-.063.043-.115.053-.146l.008-.022c.046-.132.087-.247.13-.448.045-.211 0-.327-.097-.503-.25-.44-.804-1.12-1.213-1.453-.201-.164-.64-.256-1.11-.187-.101.014-.204.06-.307.104l-.084.037c-.118.04-.206.11-.29.176q-.045.037-.092.07c-.099.07-.14.109-.212.177l-.052.049c.004.023.063.053.148.097l.085.044c.34.182.848.574.981.728.022.022.069.226.13.496.069.303.157.69.25.987.018.06.192 1.112.192 1.112s-.19-.381-.247-.529c-.077-.196-.107-.342-.128-.438l-.011-.054a9.5 9.5 0 0 0-.558-1.373c-.222-.285-1.055-.813-1.307-.89-.168-.088-.332-.167-.506-.251q-.185-.089-.388-.19c-.507-.25-1.19-.578-1.918-.847-.33-.121-.617-.157-.998-.205q-.193-.023-.429-.057c-.097.01-.166.063-.242.123-.063.049-.13.102-.223.14-.172.149-.266.27-.353.381-.143.185-.269.347-.7.58.005.01.031.021.09.045.067.028.176.073.34.154l.085.041c.395.193 1.433.699 1.224.687-.062-.003-.801-.268-1.23-.422l-.284-.1c-.2-.07-.394-.09-.528-.105q-.06-.006-.103-.013c-.164-.029-.344-.02-.54-.01a6 6 0 0 1-.372.01c-.204.193-.204.328-.203.495 0 .102 0 .215-.045.36-.033.326.011.482.045.601q.013.044.022.083c.118.464.21.73.705 1.183.15.138.502.477.592.65.104.198.133.339.157.456.023.112.041.202.118.302.037.03 1.166.103 1.317.086a9 9 0 0 1 .576-.109 6 6 0 0 0 .553-.11c.16-.08.788-.231.956-.267a.1.1 0 0 1 .032 0c.598-.182 1.164-.292 1.722-.4l.059-.012c-.13.475-.194.768-.066 1.693.08.286.661.503 1.1.605l-.018.028c-.21.333-.535.844.232 1.404.066.091.123.21.178.326l.08.164a1 1 0 0 1 .049.079c.137.34.334.434.568.441a.88.88 0 0 0 .666-.25l.25-.191q.098.046.195.098c.343.178.716.372 1.342.271.36-.058.541-.207.732-.422.204-.23.413-.537.611-.89.185-.39.328-.86.363-1.228.003-.025-.377-.091-.706-.026l-.12.021c-.08.183-.21.454-.316.677-.064.134-.12.251-.152.322-.134.145-.964.54-1.238.494-.048-.008.328-.285.536-.36.26-.095.511-.57.538-.629.02-.04.043-.125.069-.222.03-.115.066-.247.108-.347l-.018-.02c-.062-.084-.06-.2-.058-.325.003-.145.005-.302-.088-.442a5.6 5.6 0 0 1-.447-.83 3 3 0 0 0-.097-.206c-.044-.087-.084-.166-.101-.23M9.76 5.3c.1.152.192.294.289.365a5 5 0 0 1-.18-.428c-.147-.38-.308-.795-.618-1.049-.416-.123-.983-.13-1.55-.136q-.256-.002-.505-.009c.227.053.494.088.763.122.466.06.938.12 1.222.283.006.022-.012.037-.039.049l-.069-.01a.7.7 0 0 0-.267-.007c-.116.035-.224.09-.332.145q-.075.04-.152.076c.304-.057.458-.03.633.002.08.015.166.03.273.039.219.077.383.33.532.557m.92 4.433c.19.262.517.602.86.85l-.253.192s-.437-.395-.539-.553a.56.56 0 0 1-.072-.472zm.071-1.937s.327-.044.32-.016a.8.8 0 0 0 .045.327l-.18.135c.297-.138.607-.148.922-.158q.138-.003.278-.012s-.346-.088-.325-.09c.078-.01-.02-.334-.047-.34q.098-.03.197-.052c-.495-.12-.781-.05-1.21.206" clip-rule="evenodd"/><path d="M5.905 7.43c.264-.165.57-.25.877-.315.31.942.87 1.884 1.426 2.749l.095.112c.148.18.236.285.48.409l-.024.013a3 3 0 0 0-.105.232q-.036.085-.09.207a.7.7 0 0 0-.013.154c-2.11-.446-2.918-1.642-3.259-2.508.062-.251.165-.5.33-.734.048-.07.227-.298.283-.32M6.225 12.13c.76.292 1.708.42 2.64.405.038.085.074.155.104.197.04.056.148.2.245.33l.179.241c.12.144-.292.248-.471.22-.465-.068-1.414-.468-1.439-.482-.507-.295-.835-.509-1.232-.882z"/></svg>