<svg xmlns="http://www.w3.org/2000/svg" width="16" height="16" fill="none">
  <g clip-path="url(#a)">
    <path fill="#E05555"
          d="m8.28 17.46-.505-.54-.004-2.342-.004-3.54-.033-.006c-.032-.005-.94.474-3.491 1.841-.652.35-1.188.63-1.193.626a1 1 0 0 1 .028-.183c.343-1.646 1.218-3.477 2.305-4.828a11.6 11.6 0 0 1 3.283-2.804l.125-.072V9.23l.04.01c.105.028.532-.253.776-.51.256-.27.424-.557.54-.924a2.45 2.45 0 0 0-.253-2.016c-.13-.207-.279-.378-1.384-1.585C7.303 2.886 7.174 2.739 7.03 2.52a1.7 1.7 0 0 1-.23-.506c-.05-.187-.05-.58.003-.772.101-.376.339-.723.637-.931.193-.135.51-.262.672-.269L8.17.04 8.106.029c-.113-.02.192-.04.314-.022.092.015.097.017.04.02-.058.005-.055.006.033.02.455.068.9.375 1.233.853.153.219 1.504 2.526 2.185 3.73.103.183.116.233.04.159-.095-.095-2.155-2.36-2.646-2.912-.564-.632-.628-.696-.772-.769-.094-.048-.12-.053-.25-.053-.18 0-.265.039-.398.18a.51.51 0 0 0-.155.431.6.6 0 0 0 .147.379c.031.04.553.615 1.16 1.28l1.27 1.397a3.46 3.46 0 0 1 .85 1.68c.056.28.072.836.032 1.13a3.5 3.5 0 0 1-.687 1.655c-.139.178-.425.46-.598.589-.205.153-.295.208-.732.446l-.373.204-.008 4.387L8.783 18zm-2.588-6.486c1.094-.59 1.823-.987 1.932-1.051.154-.091.142.006.147-1.22.003-.593.001-1.095-.004-1.116-.016-.068-.08-.048-.215.067-1.144.974-2.006 2.088-2.72 3.513-.124.25-.137.321-.053.293.018-.006.429-.225.913-.486M3 13.548q.001-.03.01-.01c.004.012.004.027-.001.033q-.01.006-.009-.023"/>
  </g>
  <defs>
    <clipPath id="a">
      <path fill="#fff" d="M0 0h16v16H0z"/>
    </clipPath>
  </defs>
</svg>