<svg xmlns="http://www.w3.org/2000/svg" width="16" height="16" data-big="true"><path fill="#62D05D" fill-rule="evenodd" d="M7.677 13.637c-.473-.526-1.751-2.165-1.98-2.537-.109-.176-.197-.402-.197-.503 0-.227.415-.913.818-1.35.427-.465 1.178-1.075 1.453-1.183.214-.083.257-.084.44-.011.55.217 1.657 1.228 2.047 1.869.305.501.318.762.06 1.178-.331.53-2.204 2.9-2.293 2.9-.013 0-.17-.163-.348-.363m.247-12.62c.035-.022.065-.023.1-.001.214.103.412.24.613.371.546.37 1.075.765 1.612 1.15.573.025 1.146.042 1.719.067.04.007.088-.004.125.012.016.167.024.334.035.501.024.328.03.657.077.982.032.24.144.458.28.65.237.339.497.658.74.994.323.445.653.887.92 1.374.277.507.528 1.032.731 1.577.056.166.128.336.124.515-.112.099-.242.17-.366.247-.673.398-1.362.766-2.055 1.122-.271.133-.54.278-.823.38-.038.027-.062-.024-.08-.052-.127-.26-.176-.55-.262-.826a6.3 6.3 0 0 0-.599-1.288 10.3 10.3 0 0 0-1.672-2.106c-.353-.345-.745-.638-1.132-.937-.114.068-.22.149-.33.225-.3.206-.575.452-.836.71A13.5 13.5 0 0 0 5.47 8.272c-.312.42-.544.9-.744 1.39-.166.4-.258.828-.423 1.228-.022.038-.033.1-.08.111-.073-.01-.138-.053-.206-.08a31 31 0 0 1-1.522-.824c-.452-.263-.907-.523-1.341-.817-.056-.047-.14-.08-.153-.163-.012-.133.031-.263.069-.388.15-.44.364-.851.583-1.256.362-.653.762-1.282 1.205-1.875.216-.296.46-.568.666-.873.116-.167.174-.372.196-.577.044-.45.06-.904.09-1.356.008-.06 0-.126.016-.183.624-.038 1.248-.071 1.872-.112.047-.01.102.008.143-.022.503-.354.985-.74 1.49-1.09.193-.13.384-.267.592-.368"/></svg>