<!--
  - The MIT License (MIT)
  -
  - Copyright (c) 2015-2024 Elior "Mallowigi" Boukhobza
  -
  - Permission is hereby granted, free of charge, to any person obtaining a copy
  - of this software and associated documentation files (the "Software"), to deal
  - in the Software without restriction, including without limitation the rights
  - to use, copy, modify, merge, publish, distribute, sublicense, and/or sell
  - copies of the Software, and to permit persons to whom the Software is
  - furnished to do so, subject to the following conditions:
  -
  - The above copyright notice and this permission notice shall be included in all
  - copies or substantial portions of the Software.
  -
  - THE SOFTWARE IS PROVIDED "AS IS", WITHOUT WARRANTY OF ANY KIND, EXPRESS OR
  - IMPLIED, INCLUDING BUT NOT LIMITED TO THE WARRANTIES OF MERCHANTABILITY,
  - FITNESS FOR A PARTICULAR PURPOSE AND NONINFRINGEMENT. IN NO EVENT SHALL THE
  - AUTHORS OR COPYRIGHT HOLDERS BE LIABLE FOR ANY CLAIM, DAMAGES OR OTHER
  - LIABILITY, WHETHER IN AN ACTION OF CONTRACT, TORT OR OTHERWISE, ARISING FROM,
  - OUT OF OR IN CONNECTION WITH THE SOFTWARE OR THE USE OR OTHER DEALINGS IN THE
  - SOFTWARE.
  -->

<svg data-big="true" xmlns="http://www.w3.org/2000/svg" width="16px" height="16px" viewBox="0 0 16 16">
  <path fill="#FFCB6B" data-iconColor="Python"
        d="M7.949,1C4.395,1,4.617,2.549,4.617,2.549l0,1.605H8.013V4.636H3.274S1,4.377,1,7.982s1.985,3.477,1.985,3.477H4.169V9.786a1.89,1.89,0,0,1,1.953-2H9.487a1.81,1.81,0,0,0,1.89-1.836V2.868S11.664,1,7.949,1h0ZM6.079,2.079a0.613,0.613,0,1,1-.61.613A0.611,0.611,0,0,1,6.079,2.079ZM8.052,15c3.554,0,3.332-1.549,3.332-1.549l0-1.605H7.988V11.364h4.739S15,11.623,15,8.018s-1.985-3.477-1.985-3.477H11.832V6.214a1.89,1.89,0,0,1-1.953,2H6.514a1.81,1.81,0,0,0-1.89,1.836v3.087S4.337,15,8.052,15h0Zm1.87-1.079a0.613,0.613,0,1,1,.61-0.613A0.611,0.611,0,0,1,9.922,13.921Z"
  />
</svg>
