<svg xmlns="http://www.w3.org/2000/svg" width="16" height="16" fill="#62B543" data-big="true"><defs><mask id="a"><g fill="#fff" transform="translate(-2 -2)"><path fill-rule="evenodd" d="m12.009 3.945-.002.006zM11.97 4l-.05-.052c-.13-.123-.373-.28-.756-.434C10.404 3.21 9.286 3 8 3s-2.404.21-3.164.514c-.383.153-.625.31-.756.434L4.03 4l.05.052c.13.123.373.28.756.434C5.596 4.79 6.714 5 8 5s2.404-.21 3.164-.514c.383-.153.625-.31.756-.434zm-7.979-.055.002.006zm0 .11.002-.006zm8.016-.006.002.006zM8 6c2.761 0 5-.895 5-2s-2.239-2-5-2-5 .895-5 2 2.239 2 5 2" clip-rule="evenodd"/><path d="M4.095 4.796C3.27 4.406 3 4 3 4l1 9s.5 1 4 1 4-1 4-1l1-9s-.27.406-1.095.796L11.78 5.93l-.731 6.586a2 2 0 0 1-.142.07C10.514 12.761 9.665 13 8 13s-2.514-.24-2.906-.414a2 2 0 0 1-.142-.07L4.221 5.93z"/><circle cx="8" cy="8.25" r="1.25"/><path d="M8 8.061a7.2 7.2 0 0 0 1.804.743C11.672 9.304 13.5 10 14 9s-1-1.439-2-1.5"/></g><g fill="#000" stroke="#000" stroke-width="3" transform="translate(2 2)"><path fill-rule="evenodd" d="m12.009 3.945-.002.006zM11.97 4l-.05-.052c-.13-.123-.373-.28-.756-.434C10.404 3.21 9.286 3 8 3s-2.404.21-3.164.514c-.383.153-.625.31-.756.434L4.03 4l.05.052c.13.123.373.28.756.434C5.596 4.79 6.714 5 8 5s2.404-.21 3.164-.514c.383-.153.625-.31.756-.434zm-7.979-.055.002.006zm0 .11.002-.006zm8.016-.006.002.006zM8 6c2.761 0 5-.895 5-2s-2.239-2-5-2-5 .895-5 2 2.239 2 5 2Z" clip-rule="evenodd"/><path d="M4.095 4.796C3.27 4.406 3 4 3 4l1 9s.5 1 4 1 4-1 4-1l1-9s-.27.406-1.095.796L11.78 5.93l-.731 6.586a2 2 0 0 1-.142.07C10.514 12.761 9.665 13 8 13s-2.514-.24-2.906-.414a2 2 0 0 1-.142-.07L4.221 5.93z"/><circle cx="8" cy="8.25" r="1.25"/><path d="M8 8.061a7.2 7.2 0 0 0 1.804.743C11.672 9.304 13.5 10 14 9s-1-1.439-2-1.5"/></g><g fill="#fff" transform="translate(2 2)"><path fill-rule="evenodd" d="m12.009 3.945-.002.006zM11.97 4l-.05-.052c-.13-.123-.373-.28-.756-.434C10.404 3.21 9.286 3 8 3s-2.404.21-3.164.514c-.383.153-.625.31-.756.434L4.03 4l.05.052c.13.123.373.28.756.434C5.596 4.79 6.714 5 8 5s2.404-.21 3.164-.514c.383-.153.625-.31.756-.434zm-7.979-.055.002.006zm0 .11.002-.006zm8.016-.006.002.006zM8 6c2.761 0 5-.895 5-2s-2.239-2-5-2-5 .895-5 2 2.239 2 5 2" clip-rule="evenodd"/><path d="M4.095 4.796C3.27 4.406 3 4 3 4l1 9s.5 1 4 1 4-1 4-1l1-9s-.27.406-1.095.796L11.78 5.93l-.731 6.586a2 2 0 0 1-.142.07C10.514 12.761 9.665 13 8 13s-2.514-.24-2.906-.414a2 2 0 0 1-.142-.07L4.221 5.93z"/><circle cx="8" cy="8.25" r="1.25"/><path d="M8 8.061a7.2 7.2 0 0 0 1.804.743C11.672 9.304 13.5 10 14 9s-1-1.439-2-1.5"/></g></mask></defs><g mask="url(#a)"><g transform="translate(-2 -2)"><path fill-rule="evenodd" d="m12.009 3.945-.002.006zM11.97 4l-.05-.052c-.13-.123-.373-.28-.756-.434C10.404 3.21 9.286 3 8 3s-2.404.21-3.164.514c-.383.153-.625.31-.756.434L4.03 4l.05.052c.13.123.373.28.756.434C5.596 4.79 6.714 5 8 5s2.404-.21 3.164-.514c.383-.153.625-.31.756-.434zm-7.979-.055.002.006zm0 .11.002-.006zm8.016-.006.002.006zM8 6c2.761 0 5-.895 5-2s-2.239-2-5-2-5 .895-5 2 2.239 2 5 2" clip-rule="evenodd"/><path d="M4.095 4.796C3.27 4.406 3 4 3 4l1 9s.5 1 4 1 4-1 4-1l1-9s-.27.406-1.095.796L11.78 5.93l-.731 6.586a2 2 0 0 1-.142.07C10.514 12.761 9.665 13 8 13s-2.514-.24-2.906-.414a2 2 0 0 1-.142-.07L4.221 5.93z"/><circle cx="8" cy="8.25" r="1.25"/><path d="M8 8.061a7.2 7.2 0 0 0 1.804.743C11.672 9.304 13.5 10 14 9s-1-1.439-2-1.5"/></g><g transform="translate(2 2)"><path fill-rule="evenodd" d="m12.009 3.945-.002.006zM11.97 4l-.05-.052c-.13-.123-.373-.28-.756-.434C10.404 3.21 9.286 3 8 3s-2.404.21-3.164.514c-.383.153-.625.31-.756.434L4.03 4l.05.052c.13.123.373.28.756.434C5.596 4.79 6.714 5 8 5s2.404-.21 3.164-.514c.383-.153.625-.31.756-.434zm-7.979-.055.002.006zm0 .11.002-.006zm8.016-.006.002.006zM8 6c2.761 0 5-.895 5-2s-2.239-2-5-2-5 .895-5 2 2.239 2 5 2" clip-rule="evenodd"/><path d="M4.095 4.796C3.27 4.406 3 4 3 4l1 9s.5 1 4 1 4-1 4-1l1-9s-.27.406-1.095.796L11.78 5.93l-.731 6.586a2 2 0 0 1-.142.07C10.514 12.761 9.665 13 8 13s-2.514-.24-2.906-.414a2 2 0 0 1-.142-.07L4.221 5.93z"/><circle cx="8" cy="8.25" r="1.25"/><path d="M8 8.061a7.2 7.2 0 0 0 1.804.743C11.672 9.304 13.5 10 14 9s-1-1.439-2-1.5"/></g></g></svg>