<!--
  - The MIT License (MIT)
  -
  - Copyright (c) 2015-2023 Elior "Mallowigi" Boukhobza
  -
  - Permission is hereby granted, free of charge, to any person obtaining a copy
  - of this software and associated documentation files (the "Software"), to deal
  - in the Software without restriction, including without limitation the rights
  - to use, copy, modify, merge, publish, distribute, sublicense, and/or sell
  - copies of the Software, and to permit persons to whom the Software is
  - furnished to do so, subject to the following conditions:
  -
  - The above copyright notice and this permission notice shall be included in all
  - copies or substantial portions of the Software.
  -
  - THE SOFTWARE IS PROVIDED "AS IS", WITHOUT WARRANTY OF ANY KIND, EXPRESS OR
  - IMPLIED, INCLUDING BUT NOT LIMITED TO THE WARRANTIES OF MERCHANTABILITY,
  - FITNESS FOR A PARTICULAR PURPOSE AND NONINFRINGEMENT. IN NO EVENT SHALL THE
  - AUTHORS OR COPYRIGHT HOLDERS BE LIABLE FOR ANY CLAIM, DAMAGES OR OTHER
  - LIABILITY, WHETHER IN AN ACTION OF CONTRACT, TORT OR OTHERWISE, ARISING FROM,
  - OUT OF OR IN CONNECTION WITH THE SOFTWARE OR THE USE OR OTHER DEALINGS IN THE
  - SOFTWARE.
  -
  -->

<svg width="13px" height="13px" viewBox="0 0 13 13" fill="#FFB74D" xmlns="http://www.w3.org/2000/svg">
  <path fill-rule="evenodd" clip-rule="evenodd"
        d="M6.49928 12.2943V11.7488V11.6669L6.99928 11.5192V11.5308L11.5 9.56833V6.99662H6.99928V7H6.49928V6.99662V6.49662H6.99928H11.5H12V6.99662V9.89577L6.99928 12.0763L6.49928 12.2943ZM1.54258 6.5V10.1407L1 9.90012V6.5H1.54258ZM2.89713 10.698V6.49678H2.23198V10.4031L2.89713 10.698ZM4.47513 6.49678V11.3971L3.63982 11.0271V6.49678H4.47513ZM5.42046 6.49678V11.8161L6.49909 12.2943V6.49678H5.42046Z"
  />
  <path fill-rule="evenodd" clip-rule="evenodd"
        d="M1 3.05463V5.28125L6.49983 5.67223L12 5.28125L12 4.77635L12 3.10422L7 1.02084L6.5 0.8125L1 3.05463ZM6.5 1.25V4L11.5 5L11.4934 4.70525L11.5 4.70618L11.5 3.43755L11.4646 3.42281L11.4641 3.4L6.5 1.25ZM6.5 4.50628L6.49989 4.5063L6.5 4.50631V4.50628Z"
  />
</svg>
