<svg xmlns="http://www.w3.org/2000/svg" width="16" height="16" data-big="true"><path fill="#FFB74D" fill-rule="evenodd" d="M9.048 10.471c.019.072.067.367.07.504l.01.436c.04.08.046.098.04.191-.015.19-.068.202-.209.2-.063-.002-.317-.004-.382-.01-.09-.01-.179-.09-.207-.115.143-.124.34-.464.424-.65.085-.185.213-.383.254-.556m-7.305.579v.007a.5.5 0 0 1-.066.182c-.164.242-.582-.114-.703-.25a.95.95 0 0 1-.242-.492c-.015-.12 0-.123.076-.209l.309-.345.067-.199c.122.465.33.922.56 1.306m4.78-.309c.042-.232.169-.464.084-.65-.038.145-.254.372-.339.465-.085.092-.085.092-.254.185-.563.126-1.047.11-1.61 0-.264-.046-.895-.479-.931-.65-.011.192 0 .372.17.65.169.278.169.557.169.742 0 .186-.113.342-.254.65.011.194.047.28 0 .464-.079.306-.385.155-.593.092-.257-.077-.642-.088-.509-.464.118-.33.112-.836.17-1.298-.47-.743-.848-1.603-.932-2.505-.065-.7.031-1.149.17-1.577.219-.679.44-1.104.931-1.577.664-.638.977-.766 1.948-.928-.233.286-.238.319-.49.644-.255.328-.407.66-.569 1.02-.223.497-.219.686.078 1.122.255.376.393.545.505.913-.092.208-.126.384-.157.668.313.374.546.631.85.71.298.078.547.063.813-.087.592-.331 1.267-.798 1.935-.815.309-.833.151-1.49.003-2.295-.102-.55-.226-1.134-.257-1.695-.243.447-.432 1.374-.339 1.949.112.693.085.927 0 1.298-.423.093-.472.248-1.016.557-.22.124-.763.278-1.017.186s-.129-.372 0-.65c.207-.447.766-2.483 1.017-2.922-.307.406-1.283 1.958-1.525 2.366-.092-.289-.17-.464-.339-.65-.17-.185.33-1.115.603-1.438.473-.559.575-.888 1.091-1.438.28-.299.424-.37.763-.556.338-.186.843-.099 1.185-.186-.169-.186-.338-.278-.593-.278.255-.464.416-.497.932-.743.644-.306.785-.337 1.186-.324.39.012.61.104 1.101.556.259.239.5.352.763.557-.096.009.088.098-.02.145.131-.028.137.013.274.04.038.028.073.027.17.093.18.125.297.18.423.371.132.202.189.515.149.51a.33.33 0 0 0-.22.057q-.005 0-.009.004a1.5 1.5 0 0 1-.367.135.4.4 0 0 0 .254-.004.41.41 0 0 0-.01.375q.016.04.038.065-.072.03-.149.066c.237-.04.337-.035.568-.001.015.08.144.153.158.239l-.086.007h-.007c-.109-.095-.23-.079-.397-.037-.506.126-.387.437-.62.905.242-.323.224-.662.618-.764.091-.024.154-.053.216-.043a.52.52 0 0 0-.247.282c-.108.334-.04.616-.16.928.148-.279.156-.551.288-.845.047-.105.223-.274.33-.277l.089-.002c.026.186-.003.474-.013.627-.018.28-.13.584-.17.742.17.047.424-.139.594-.603s.138-.8.084-1.113c-.073-.43.105-.122.34-.325.171-.149.35-.388.507-.556.157-.167.288.208.35.37.267.709.23 1.282.159 1.995-.08.801-.362 1.508-1.007 1.902-.822.503-1.724.209-2.54-.093-.175-.064-.44-.172-.594-.278.042.206.006.624 0 .835-.01.371.037.536.14.64.104.102.162.102.274.102.169 0 .423-.093.508-.278s.085-.232.085-.325c.062.021.188.075.254.093 0 0-.058.114-.096.247-.096.344-.413.634-.751.634-.34 0-.552-.235-.763-.441l-.425-.413c-.381-.131-.491-.39-.845-.677-.085.557 0 .743.339 1.021-.052.57-.18.835-.34 1.206-.101.238-.609 1.11-.762 1.206-.109.069-.633.66-.762.742-.096.14-.195.38-.339.464-.438.254-.567.056-.762-.371-.085-.186-.17-.371 0-.464s.349-.371.423-.464.043-.51.085-.742m2.975-5.637a.6.6 0 0 0 .252.286q-.116.166-.186.373a3.26 3.26 0 0 1 1.554-1.096 1.5 1.5 0 0 0-.527.096.7.7 0 0 0-.052-.2.6.6 0 0 0-.323-.32A1.7 1.7 0 0 0 10.558 4c-.28.14-.604.106-.843.283-.21.155-.501.647-.715.856.155-.066.304-.18.442-.3q0 .136.056.265"/></svg>