<?xml version="1.0" encoding="UTF-8"?><!--
  - The MIT License (MIT)
  -
  - Copyright (c) 2015-2021 Elior "Mallowigi" Boukhobza
  -
  - Permission is hereby granted, free of charge, to any person obtaining a copy
  - of this software and associated documentation files (the "Software"), to deal
  - in the Software without restriction, including without limitation the rights
  - to use, copy, modify, merge, publish, distribute, sublicense, and/or sell
  - copies of the Software, and to permit persons to whom the Software is
  - furnished to do so, subject to the following conditions:
  -
  - The above copyright notice and this permission notice shall be included in all
  - copies or substantial portions of the Software.
  -
  - THE SOFTWARE IS PROVIDED "AS IS", WITHOUT WARRANTY OF ANY KIND, EXPRESS OR
  - IMPLIED, INCLUDING BUT NOT LIMITED TO THE WARRANTIES OF MERCHANTABILITY,
  - FITNESS FOR A PARTICULAR PURPOSE AND NONINFRINGEMENT. IN NO EVENT SHALL THE
  - AUTHORS OR COPYRIGHT HOLDERS BE LIABLE FOR ANY CLAIM, DAMAGES OR OTHER
  - LIABILITY, WHETHER IN AN ACTION OF CONTRACT, TORT OR OTHERWISE, ARISING FROM,
  - OUT OF OR IN CONNECTION WITH THE SOFTWARE OR THE USE OR OTHER DEALINGS IN THE
  - SOFTWARE.
  -
  -
  -->

<!DOCTYPE svg PUBLIC "-//W3C//DTD SVG 1.1//EN"
        "http://www.w3.org/Graphics/SVG/1.1/DTD/svg11.dtd">
<svg xmlns="http://www.w3.org/2000/svg" fill="#BA68C8"
     version="1.1" width="16px" height="16px" viewBox="0 0 24 24">
    <path d="M16,7.41L11.41,12L16,16.59L14.59,18L10,13.41L5.41,18L4,16.59L8.59,12L4,7.41L5.41,6L10,10.59L14.59,6L16,7.41M21.85,9H16.97V8L17.86,7.18C18.62,6.54 19.18,6 19.56,5.55C19.93,5.11 20.12,4.7 20.13,4.32C20.14,4.04 20.05,3.8 19.86,3.62C19.68,3.43 19.39,3.34 19,3.33C18.69,3.34 18.42,3.4 18.16,3.5L17.5,3.89L17.05,2.72C17.32,2.5 17.64,2.33 18.03,2.19C18.42,2.05 18.85,2 19.32,2C20.1,2 20.7,2.2 21.1,2.61C21.5,3 21.72,3.54 21.72,4.18C21.71,4.74 21.53,5.26 21.18,5.73C20.84,6.21 20.42,6.66 19.91,7.09L19.27,7.61V7.63H21.85V9Z"/>
</svg>
