<!--
  - The MIT License (MIT)
  -
  - Copyright (c) 2015-2024 Elior "Mallowigi" Boukhobza
  -
  - Permission is hereby granted, free of charge, to any person obtaining a copy
  - of this software and associated documentation files (the "Software"), to deal
  - in the Software without restriction, including without limitation the rights
  - to use, copy, modify, merge, publish, distribute, sublicense, and/or sell
  - copies of the Software, and to permit persons to whom the Software is
  - furnished to do so, subject to the following conditions:
  -
  - The above copyright notice and this permission notice shall be included in all
  - copies or substantial portions of the Software.
  -
  - THE SOFTWARE IS PROVIDED "AS IS", WITHOUT WARRANTY OF ANY KIND, EXPRESS OR
  - IMPLIED, INCLUDING BUT NOT LIMITED TO THE WARRANTIES OF MERCHANTABILITY,
  - FITNESS FOR A PARTICULAR PURPOSE AND NONINFRINGEMENT. IN NO EVENT SHALL THE
  - AUTHORS OR COPYRIGHT HOLDERS BE LIABLE FOR ANY CLAIM, DAMAGES OR OTHER
  - LIABILITY, WHETHER IN AN ACTION OF CONTRACT, TORT OR OTHERWISE, ARISING FROM,
  - OUT OF OR IN CONNECTION WITH THE SOFTWARE OR THE USE OR OTHER DEALINGS IN THE
  - SOFTWARE.
  -
  -->

<svg version="1.1" xmlns="http://www.w3.org/2000/svg" x="0px" y="0px"
     viewBox="0 0 16 16" xml:space="preserve" width="16px" height="16px">
	<g>
		<g fill="#FFB74D">
			<path d="M9.7,13.7H7.9c0.6,0.5,0.7,1.2,1,2C8.9,15.8,9.1,16,9.4,16h0.4c0.1,0,0.2-0.1,0.2-0.2c0,0,0-0.1,0-0.1
				L9.7,13.7z"/>
      <path d="M3.7,7.1c-1.6-1-1.8-2.4-1.6-3.6c0,0,0,0,0-0.1c-0.1,0-0.2,0-0.3,0.1C1.2,4.9,1.1,6.6,2.9,8
				C3,7.6,3.3,7.3,3.7,7.1z"/>
      <path d="M11.1,13.7h-0.7l0.3,2.3h0.4c0.1,0,0.2-0.1,0.2-0.2c0,0,0,0,0,0c0,0,0-0.1,0-0.1L11.1,13.7z"/>
      <path d="M3.5,13.7L3,15.7c0,0.1,0,0.2,0.1,0.3c0,0,0,0,0,0c0,0,0.1,0,0.1,0h0.7c0.2,0,0.4-0.2,0.5-0.4
				c0.2-0.8,0.4-1.5,1-2L3.5,13.7z"/>
      <path d="M5,15.6C4.9,15.8,4.8,16,4.5,16h0.9c0.2,0,0.4-0.2,0.4-0.4c0.2-0.8,0.4-1.5,1-2H6C5.4,14.2,5.2,14.9,5,15.6z
				"/>
      <path d="M11.4,7.9c-0.1-0.1-0.2-0.1-0.3-0.1C11,7.9,11,7.9,11,8c0,0,0,0,0,0c0,0,0.4,0.7,0.4,2.3S11,12.5,11,12.5
				c0,0.1,0,0.1,0.1,0.2c0.1,0,0.2,0,0.3-0.1c0,0,0.4-0.7,0.4-2.3S11.4,8,11.4,7.9z"/>
      <path d="M10.7,7.5c0.1-0.1,0.2-0.1,0.3-0.1H9c0,0-0.1,0-0.1,0c-0.6,0.2-1,1.3-1,2.7v0l0,0v0.3l0,0v0
				c0,1.3,0.5,2.4,1,2.7c0,0,0.1,0,0.1,0h2c-0.1,0-0.2,0-0.3-0.1c-0.3-0.2-0.5-0.6-0.6-1.1l0,0c-0.3-1.1-0.3-2.3,0-3.5l0,0
				C10.2,8.1,10.4,7.7,10.7,7.5z M9.4,8.7H8.7c-0.1,0-0.2-0.1-0.2-0.2s0.1-0.2,0.2-0.2h0.7c0.1,0,0.2,0.1,0.2,0.2S9.5,8.7,9.4,8.7z"
      />
      <path d="M7.6,12L7.6,12c-0.3-1.1-0.3-2.3,0-3.5l0,0c0.1-0.5,0.3-0.9,0.6-1.1c0.1-0.1,0.2-0.1,0.3-0.1h-2
				c0,0-0.1,0-0.1,0c-0.6,0.2-1,1.3-1,2.7v0l0,0v0.3l0,0v0c0,1.3,0.5,2.4,1,2.7c0,0,0.1,0,0.1,0h2c-0.1,0-0.2,0-0.3-0.1
				C7.9,12.9,7.7,12.5,7.6,12z M6.9,8.7H6.2C6.1,8.7,6,8.6,6,8.5s0.1-0.2,0.2-0.2h0.7c0.1,0,0.2,0.1,0.2,0.2S7,8.7,6.9,8.7z"/>
      <path d="M5.1,12L5.1,12c-0.3-1.1-0.3-2.3,0-3.5l0,0c0.1-0.5,0.3-0.9,0.6-1.1C5.8,7.4,5.9,7.4,6,7.4H4
				c0,0-0.1,0-0.1,0c-0.6,0.2-1,1.3-1,2.7v0l0,0v0.3l0,0v0c0,1.3,0.5,2.4,1,2.7c0,0,0.1,0,0.1,0h2c-0.1,0-0.2,0-0.3-0.1
				C5.4,12.9,5.2,12.5,5.1,12z M4.4,8.7H3.8c-0.1,0-0.2-0.1-0.2-0.2s0.1-0.2,0.2-0.2h0.7c0.1,0,0.2,0.1,0.2,0.2S4.6,8.7,4.4,8.7z"/>
      <path d="M14.6,3.6c0-0.6-0.5-1-1.1-1.1c-0.3-0.1-1.7-0.6-2.8-0.7c-0.4,0-1.4-0.1-2.2,0.2l0,0C8.3,2,8.2,2.1,8.2,2.1
				C7.4,1.7,6.8,1.2,6.3,0.6c0-0.1-0.1-0.1-0.2,0c0,0,0,0.1,0,0.1v0.4c0,1,0.2,2,0.7,3l0,0.2c0,0.7,0.2,1.4,0.8,1.9l0,0
				C8,6.6,8.7,6.9,9.4,6.9h1.9c0.7,0,1.4-0.3,1.9-0.7c0.3-0.3,0.6-0.6,0.8-1c0.2-0.4,0.4-0.8,0.4-1.2C14.6,3.9,14.6,3.8,14.6,3.6
				L14.6,3.6L14.6,3.6z M13.8,4.2c0,0-0.1,0.1-0.2,0.1h-0.1c-0.3,0-0.5-0.1-0.7-0.2c-0.1-0.1-0.2-0.2-0.1-0.3c0,0,0,0,0,0
				c0.3-0.4,0.7-0.6,1.2-0.6c0.1,0,0.2,0.1,0.2,0.2c0,0,0,0,0,0v0C14.1,3.7,14,4,13.8,4.2z"/>
      <path d="M8.9,0.1C8.9,0,8.8,0,8.8,0c0,0,0,0,0,0c0,0-0.1,0-0.1,0.1C8.6,0.6,8.5,1,8.4,1.5c0.4-0.1,0.9-0.2,1.4-0.2
				C9.5,0.9,9.2,0.5,8.9,0.1z"/>
		</g>
	</g>
</svg>
