<svg xmlns="http://www.w3.org/2000/svg" xml:space="preserve" width="16" height="16" data-big="true" viewBox="450 -60 600 600"><g fill="#2962ff" data-iconColor="Liquibase"><ellipse cx="750.3" cy="72.6" class="st0" rx="180.9" ry="72.6"/><path d="M754.4 391.3C696.6 405.1 637 419.4 599 444.6c-19-11.8-29.7-25.4-29.7-38.4 0-57.4 95.9-79.1 188.6-100.1 66.8-15.1 135-30.6 173.2-61.7V295c.1 53.9-89.8 75.5-176.7 96.3M751.2 276.1c-70.4 15.9-142.3 32.2-181.9 66.2v-11.2c0-100 109.7-125.6 215.8-150.5 77.1-18 114.6-27.5 146.1-52.8v56c0 51.6-91.5 72.3-180 92.3M931.2 357.8c-37.6 31.7-104.3 47.8-169.6 63.4-46.8 11.2-94.7 22.7-128.6 39.4 30.7 11 70.9 18.2 117.3 18.2 105.5 0 180.9-37.8 180.9-72.6z"/></g></svg>