<!--
  - The MIT License (MIT)
  -
  - Copyright (c) 2015-2023 Elior "Mallowigi" Boukhobza
  -
  - Permission is hereby granted, free of charge, to any person obtaining a copy
  - of this software and associated documentation files (the "Software"), to deal
  - in the Software without restriction, including without limitation the rights
  - to use, copy, modify, merge, publish, distribute, sublicense, and/or sell
  - copies of the Software, and to permit persons to whom the Software is
  - furnished to do so, subject to the following conditions:
  -
  - The above copyright notice and this permission notice shall be included in all
  - copies or substantial portions of the Software.
  -
  - THE SOFTWARE IS PROVIDED "AS IS", WITHOUT WARRANTY OF ANY KIND, EXPRESS OR
  - IMPLIED, INCLUDING BUT NOT LIMITED TO THE WARRANTIES OF MERCHANTABILITY,
  - FITNESS FOR A PARTICULAR PURPOSE AND NONINFRINGEMENT. IN NO EVENT SHALL THE
  - AUTHORS OR COPYRIGHT HOLDERS BE LIABLE FOR ANY CLAIM, DAMAGES OR OTHER
  - LIABILITY, WHETHER IN AN ACTION OF CONTRACT, TORT OR OTHERWISE, ARISING FROM,
  - OUT OF OR IN CONNECTION WITH THE SOFTWARE OR THE USE OR OTHER DEALINGS IN THE
  - SOFTWARE.
  -
  -->

<svg width="12px" height="12px" viewBox="0 0 23 24" version="1.1" xmlns="http://www.w3.org/2000/svg"
     xmlns:xlink="http://www.w3.org/1999/xlink">
  <defs>
    <polygon id="path-1" points="0.0454 0.4384 5.9147 0.4384 5.9147 6.3074 0.0454 6.3074"/>
  </defs>
  <g id="Logo/TestRail-glyph" stroke="none" stroke-width="1" fill="none" fill-rule="evenodd">
    <g id="TestRail-Logo" transform="translate(1.000000, 1.000000)">
      <g id="Group-31" fill="#3CB850">
        <path
          d="M4.9665,21.4144 L0.9035,21.4144 C0.4045,21.4144 0,21.0099 0,20.5109 L0,16.4479 C0,15.9489 0.4045,15.5454 0.9035,15.5454 L4.9665,15.5454 C5.4655,15.5454 5.8695,15.9489 5.8695,16.4479 L5.8695,20.5109 C5.8695,21.0099 5.4655,21.4144 4.9665,21.4144"
          id="Fill-18"/>
        <path
          d="M12.73945,21.4144 L8.67595,21.4144 C8.17745,21.4144 7.77295,21.0099 7.77295,20.5109 L7.77295,16.4479 C7.77295,15.9489 8.17745,15.5454 8.67595,15.5454 L12.73945,15.5454 C13.23795,15.5454 13.64245,15.9489 13.64245,16.4479 L13.64245,20.5109 C13.64245,21.0099 13.23795,21.4144 12.73945,21.4144"
          id="Fill-20"/>
        <path
          d="M4.9665,13.64145 L0.9035,13.64145 C0.4045,13.64145 0,13.23695 0,12.73845 L0,8.67495 C0,8.17645 0.4045,7.77245 0.9035,7.77245 L4.9665,7.77245 C5.4655,7.77245 5.8695,8.17645 5.8695,8.67495 L5.8695,12.73845 C5.8695,13.23695 5.4655,13.64145 4.9665,13.64145"
          id="Fill-22"/>
        <path
          d="M4.9665,5.869 L0.9035,5.869 C0.4045,5.869 0,5.4645 0,4.966 L0,0.9025 C0,0.404 0.4045,0 0.9035,0 L4.9665,0 C5.4655,0 5.8695,0.404 5.8695,0.9025 L5.8695,4.966 C5.8695,5.4645 5.4655,5.869 4.9665,5.869"
          id="Fill-24"/>
        <path
          d="M12.73945,13.64145 L8.67595,13.64145 C8.17745,13.64145 7.77295,13.23695 7.77295,12.73845 L7.77295,8.67495 C7.77295,8.17645 8.17745,7.77245 8.67595,7.77245 L12.73945,7.77245 C13.23795,7.77245 13.64245,8.17645 13.64245,8.67495 L13.64245,12.73845 C13.64245,13.23695 13.23795,13.64145 12.73945,13.64145"
          id="Fill-26"/>
        <g id="Group-30" transform="translate(15.500000, 15.107000)">
          <mask id="mask-2" fill="white">
            <use xlink:href="#path-1"/>
          </mask>
          <g id="Clip-29"/>
          <path
            d="M5.0119,6.3074 L0.9484,6.3074 C0.4499,6.3074 0.0454,5.9029 0.0454,5.4039 L0.0454,1.3409 C0.0454,0.8419 0.4499,0.4384 0.9484,0.4384 L5.0119,0.4384 C5.5104,0.4384 5.9149,0.8419 5.9149,1.3409 L5.9149,5.4039 C5.9149,5.9029 5.5104,6.3074 5.0119,6.3074"
            id="Fill-28" mask="url(#mask-2)"/>
        </g>
      </g>
    </g>
  </g>
</svg>
