<svg xmlns="http://www.w3.org/2000/svg" xmlns:xlink="http://www.w3.org/1999/xlink" width="12" height="12" viewBox="0 0 23 24"><defs><path id="a" d="M.045.438h5.87v5.87H.045z"/></defs><g fill="#3CB850" fill-rule="evenodd"><path d="M5.967 22.414H1.904A.903.903 0 0 1 1 21.511v-4.063c0-.5.405-.903.904-.903h4.063c.498 0 .903.404.903.903v4.063a.903.903 0 0 1-.904.903M13.74 22.414H9.675a.903.903 0 0 1-.903-.903v-4.063c0-.5.404-.903.903-.903h4.063c.499 0 .903.404.903.903v4.063a.903.903 0 0 1-.903.903M5.967 14.641H1.904A.903.903 0 0 1 1 13.738V9.675c0-.499.405-.903.904-.903h4.063c.498 0 .903.404.903.903v4.063a.903.903 0 0 1-.904.903M5.967 6.869H1.904A.903.903 0 0 1 1 5.966V1.902C1 1.404 1.405 1 1.904 1h4.063c.498 0 .903.404.903.902v4.064a.903.903 0 0 1-.904.903M13.74 14.641H9.675a.903.903 0 0 1-.903-.903V9.675c0-.499.404-.903.903-.903h4.063c.499 0 .903.404.903.903v4.063a.903.903 0 0 1-.903.903"/><g transform="translate(16.5 16.107)"><mask id="b" fill="#fff"><use xlink:href="#a"/></mask><path d="M5.012 6.307H.948a.903.903 0 0 1-.903-.903V1.34c0-.5.405-.903.903-.903h4.064c.498 0 .903.404.903.903v4.063a.903.903 0 0 1-.903.903" mask="url(#b)"/></g></g></svg>