<!--
  - The MIT License (MIT)
  -
  - Copyright (c) 2015-2022 Elior "Mallowigi" Boukhobza
  -
  - Permission is hereby granted, free of charge, to any person obtaining a copy
  - of this software and associated documentation files (the "Software"), to deal
  - in the Software without restriction, including without limitation the rights
  - to use, copy, modify, merge, publish, distribute, sublicense, and/or sell
  - copies of the Software, and to permit persons to whom the Software is
  - furnished to do so, subject to the following conditions:
  -
  - The above copyright notice and this permission notice shall be included in all
  - copies or substantial portions of the Software.
  -
  - THE SOFTWARE IS PROVIDED "AS IS", WITHOUT WARRANTY OF ANY KIND, EXPRESS OR
  - IMPLIED, INCLUDING BUT NOT LIMITED TO THE WARRANTIES OF MERCHANTABILITY,
  - FITNESS FOR A PARTICULAR PURPOSE AND NONINFRINGEMENT. IN NO EVENT SHALL THE
  - AUTHORS OR COPYRIGHT HOLDERS BE LIABLE FOR ANY CLAIM, DAMAGES OR OTHER
  - LIABILITY, WHETHER IN AN ACTION OF CONTRACT, TORT OR OTHERWISE, ARISING FROM,
  - OUT OF OR IN CONNECTION WITH THE SOFTWARE OR THE USE OR OTHER DEALINGS IN THE
  - SOFTWARE.
  -
  -
  -->

<svg big="true" version="1.1" xmlns="http://www.w3.org/2000/svg" x="0px" y="0px" width="16px" height="16px"
     viewBox="-4 -4 40 40"
     fill="#EA7130">
  <g>
    <path
      d="M14.861 0h5.232v24.22c-2.684 0.509-4.655 0.713-6.795 0.713-6.388 0-9.717-2.888-9.717-8.427 0-5.335 3.533-8.8 9.004-8.8 0.849 0 1.495 0.068 2.276 0.272v-7.979zM14.861 12.191c-0.496-0.173-1.067-0.273-1.662-0.273-0.037 0-0.074 0-0.111 0.001l0.005-0c-2.651 0-4.179 1.631-4.179 4.485 0 2.787 1.461 4.315 4.145 4.315 0.577 0 1.053-0.033 1.8-0.136v-8.393z"></path>
    <path
      d="M28.419 8.080v12.129c0 4.179-0.305 6.184-1.223 7.916-0.849 1.665-1.971 2.719-4.281 3.873l-4.859-2.311c2.311-1.087 3.432-2.039 4.145-3.5 0.748-1.495 0.985-3.228 0.985-7.78v-10.329h5.232zM23.187 0.028h5.232v5.368h-5.232v-5.368z"></path>
  </g>
</svg>
