<svg xmlns="http://www.w3.org/2000/svg" width="16" height="16" fill="#EA7130" data-big="true" viewBox="-4 -4 40 40"><path d="M14.861 0h5.232v24.22c-2.684.509-4.655.713-6.795.713-6.388 0-9.717-2.888-9.717-8.427 0-5.335 3.533-8.8 9.004-8.8.849 0 1.495.068 2.276.272V-.001zm0 12.191a5.1 5.1 0 0 0-1.662-.273l-.111.001h.005c-2.651 0-4.179 1.631-4.179 4.485 0 2.787 1.461 4.315 4.145 4.315.577 0 1.053-.033 1.8-.136V12.19z"/><path d="M28.419 8.08v12.129c0 4.179-.305 6.184-1.223 7.916-.849 1.665-1.971 2.719-4.281 3.873l-4.859-2.311c2.311-1.087 3.432-2.039 4.145-3.5.748-1.495.985-3.228.985-7.78V8.078h5.232zM23.187.028h5.232v5.368h-5.232z"/></svg>