<!--
  - The MIT License (MIT)
  -
  - Copyright (c) 2015-2024 Elior "Mallowigi" Boukhobza
  -
  - Permission is hereby granted, free of charge, to any person obtaining a copy
  - of this software and associated documentation files (the "Software"), to deal
  - in the Software without restriction, including without limitation the rights
  - to use, copy, modify, merge, publish, distribute, sublicense, and/or sell
  - copies of the Software, and to permit persons to whom the Software is
  - furnished to do so, subject to the following conditions:
  -
  - The above copyright notice and this permission notice shall be included in all
  - copies or substantial portions of the Software.
  -
  - THE SOFTWARE IS PROVIDED "AS IS", WITHOUT WARRANTY OF ANY KIND, EXPRESS OR
  - IMPLIED, INCLUDING BUT NOT LIMITED TO THE WARRANTIES OF MERCHANTABILITY,
  - FITNESS FOR A PARTICULAR PURPOSE AND NONINFRINGEMENT. IN NO EVENT SHALL THE
  - AUTHORS OR COPYRIGHT HOLDERS BE LIABLE FOR ANY CLAIM, DAMAGES OR OTHER
  - LIABILITY, WHETHER IN AN ACTION OF CONTRACT, TORT OR OTHERWISE, ARISING FROM,
  - OUT OF OR IN CONNECTION WITH THE SOFTWARE OR THE USE OR OTHER DEALINGS IN THE
  - SOFTWARE.
  -->

<svg data-big="true" xmlns="http://www.w3.org/2000/svg" width="16px" height="16px" viewBox="0 0 32 32">
  <g fill="#e24329" data-iconColor="GitLab CI">
    <polygon points="16 28.896 16 28.896 21.156 13.029 10.844 13.029 16 28.896"/>
    <polygon points="16 28.896 10.844 13.029 3.619 13.029 16 28.896"/>
    <path d="M3.619,13.029h0L2.052,17.851a1.067,1.067,0,0,0,.388,1.193L16,28.9,3.619,13.029Z"/>
    <path d="M3.619,13.029h7.225L7.739,3.473a.534.534,0,0,0-1.015,0L3.619,13.029Z"/>
    <polygon points="16 28.896 21.156 13.029 28.381 13.029 16 28.896"/>
    <path d="M28.381,13.029h0l1.567,4.822a1.067,1.067,0,0,1-.388,1.193L16,28.9,28.381,13.029Z"/>
    <path d="M28.381,13.029H21.156l3.105-9.557a.534.534,0,0,1,1.015,0l3.105,9.557Z"/>
  </g>
</svg>
