<svg xmlns="http://www.w3.org/2000/svg" width="16" height="16" data-big="true" viewBox="0 0 512 512"><path fill="#64b5f6" d="M51.2 358.4h34.133v68.267H153.6V460.8H51.2zm22.755-170.667h104.74l84.237-121.366A34.17 34.17 0 0 1 291.321 51.2h152.412c9.428 0 17.067 7.667 17.067 17.067v152.4c0 11.4-5.693 22.066-15.18 28.4L324.268 333.3v104.733c0 12.568-10.188 22.767-22.756 22.767h-79.644l-34.134-34.133L230.4 384l-34.133-34.133-42.668 42.666-34.133-34.133 42.667-42.667L128 281.6l-42.667 42.667L51.2 290.133V210.5c0-12.567 10.188-22.767 22.755-22.767M409.6 153.6c0-39.268-42.802-63.943-76.858-44.31s-34.056 68.986 0 88.62 76.858-5.042 76.858-44.31"/></svg>