<!--
  - The MIT License (MIT)
  -
  -  Copyright (c) 2015-2022 Elior "Mallowigi" Boukhobza
  -
  -  Permission is hereby granted, free of charge, to any person obtaining a copy
  -  of this software and associated documentation files (the "Software"), to deal
  -  in the Software without restriction, including without limitation the rights
  -  to use, copy, modify, merge, publish, distribute, sublicense, and/or sell
  -  copies of the Software, and to permit persons to whom the Software is
  -  furnished to do so, subject to the following conditions:
  -
  -  The above copyright notice and this permission notice shall be included in all
  -  copies or substantial portions of the Software.
  -
  -  THE SOFTWARE IS PROVIDED "AS IS", WITHOUT WARRANTY OF ANY KIND, EXPRESS OR
  -  IMPLIED, INCLUDING BUT NOT LIMITED TO THE WARRANTIES OF MERCHANTABILITY,
  -  FITNESS FOR A PARTICULAR PURPOSE AND NONINFRINGEMENT. IN NO EVENT SHALL THE
  -  AUTHORS OR COPYRIGHT HOLDERS BE LIABLE FOR ANY CLAIM, DAMAGES OR OTHER
  -  LIABILITY, WHETHER IN AN ACTION OF CONTRACT, TORT OR OTHERWISE, ARISING FROM,
  -  OUT OF OR IN CONNECTION WITH THE SOFTWARE OR THE USE OR OTHER DEALINGS IN THE
  -  SOFTWARE.
  -->

<svg big="true" fill="#EF5350" width="16px" height="16px" viewBox="0 0 24 24" xmlns="http://www.w3.org/2000/svg">
    <path d="M20.111 14.104a1.467 1.458 0 0 1-1.235 1.503c-1.422.244-4.385.398-6.875.398s-5.454-.15-6.877-.398c-.814-.14-1.235-.787-1.235-1.503V9.417a1.57 1.56 0 0 1 1.235-1.505 15.72 15.619 0 0 1 2.156-.14.537.533 0 0 1 .523.543v3.303c1.463 0 2.727-.086 4.201-.086 1.474 0 2.727.086 4.196.086V8.342a.535.532 0 0 1 .494-.569h.027a15.995 15.891 0 0 1 2.156.14 1.57 1.56 0 0 1 1.234 1.504zM12.001 0C5.373 0 0 5.374 0 12c0 6.628 5.373 12 12 12 6.628 0 12-5.372 12-12 0-6.626-5.373-12-12-12z"/>
</svg>
