<svg xmlns="http://www.w3.org/2000/svg" width="16" height="16" fill="#FF7043">
  <path fill-rule="evenodd"
        d="M8.353 1.27q4.595 1.32 5.052 4.604.093 4.521-3.75 4.712c-.825-.109-1.09-.786-.58-1.422q1.217-1.375 1.08-2.513-.1-.677-1.55-1.397.195-.24 1.005-.114.702.072.445-.654c.137.586-.774.5-2.736-.248l-.2-.077q-.98-.23-.756.756-.539-.022-.817.083-1.423.857.089 1.53.077-.474.968-.448.39.118.51.237.136.116.206.226a.42.42 0 0 1 0 .506q-.163.253-.662.496-2.196.708-2.336 2.456v.491l.001.013.002.013c.151 1.45.562 2.456 1.168 3.084.342.34 1.045.828 1.827 1.07.337.106.683.166 1.028.15 3.658-.166 6.474-3.056 6.474-6.794a6.77 6.77 0 0 0-6.468-6.76m-.66 3.653h-.728q-.095-.427.354-.217.158.07.374.217"
        clip-rule="evenodd"/>
  <path
      d="M5.692 14.404c-.848-.754-1.402-1.522-1.53-2.542-4.533-5.103-.652-9.78 3.397-10.58A6.768 6.768 0 0 0 5.386 14.25z"/>
</svg>