<svg xmlns="http://www.w3.org/2000/svg" width="16" height="16" fill="#8AC831" data-big="true"><path fill-rule="evenodd" d="M12.267 5.392a5 5 0 1 0-6.534 7.066c.156.079.75.114 1.267-.458.273-.302.543-.739.836-1.212.374-.605.785-1.27 1.286-1.788.524-.543 1.184-1.078 1.773-1.556.435-.353.83-.674 1.105-.944.494-.485.302-1.051.267-1.108M9.89 6.46a2.43 2.43 0 0 0-1.843-.845 2.45 2.45 0 0 0-2.442 2.458 2.46 2.46 0 0 0 1.02 2c.425.305.737-.145 1.158-.75.193-.278.408-.588.667-.872.233-.256.491-.488.729-.702.573-.515 1.027-.923.71-1.289" clip-rule="evenodd"/><path fill-rule="evenodd" d="M8 15A7 7 0 1 0 8 1a7 7 0 0 0 0 14m0-1A6 6 0 1 0 8 2a6 6 0 0 0 0 12" clip-rule="evenodd"/></svg>