<svg xmlns="http://www.w3.org/2000/svg" width="16" height="16" fill="none" ><path fill="#9CC4E8" fill-rule="evenodd" d="m11.41 11.354 1.233 1.233.003-.004c2.721-2.724 2.805-7.053.187-9.671s-6.946-2.534-9.67.186C.791 5.468.716 9.237 2.995 11.516c1.85 1.85 4.681 2.15 6.95.929a6.3 6.3 0 0 0 1.465-1.09m.137-7.22c1.956 1.956 1.892 5.19-.142 7.224l-1.046-1.045c1.393-1.393 1.437-3.608.098-4.947s-3.55-1.295-4.943.093l-.005.005c-1.052 1.054-1.084 2.729-.071 3.741 1.012 1.013 2.688.982 3.742-.07l1.18 1.178c-1.735 1.728-4.488 1.78-6.153.115C2.54 8.761 2.595 6.004 4.33 4.27c2.034-2.028 5.264-2.09 7.218-.136M9.141 6.959c.585.585.594 1.535.04 2.175v-.002L6.968 6.918c.64-.553 1.588-.543 2.173.041" clip-rule="evenodd"/><path fill="#509CD1" fill-rule="evenodd" d="M11.405 11.358c2.034-2.034 2.098-5.268.142-7.224C9.593 2.18 6.363 2.242 4.33 4.27c-1.734 1.734-1.789 4.491-.122 6.158 1.665 1.665 4.418 1.613 6.152-.115zM9.18 9.134c.555-.64.546-1.59-.039-2.175s-1.533-.594-2.173-.04L9.18 9.131zc-1.055 1.053-2.73 1.084-3.743.071-1.013-1.012-.98-2.687.071-3.741l.005-.005c1.394-1.388 3.605-1.43 4.943-.093 1.34 1.34 1.295 3.554-.098 4.947z" clip-rule="evenodd"/><path fill="#509CD1" d="m12.646 12.583-.003.003-1.232-1.232c-.446.445-.94.809-1.465 1.091L12.5 15l1.281-1.281z"/></svg>