<svg xmlns="http://www.w3.org/2000/svg" width="16" height="16" fill="#BA68C8" ><path fill-rule="evenodd" d="M13.654 3.109c.26-.007.51-.014.717-.068.238-.06.34-.103.407-.13A.5.5 0 0 1 15 2.862c.207-.007.336.12.34.346.01.704-.12 1.003-.447 1.311-.091.086-.2.175-.316.27-.3.246-.653.534-.898.927-.148.237-.23.635-.32 1.082-.047.236-.098.486-.163.732-.057.219-.114.452-.171.685-.116.474-.232.945-.348 1.281-.183.53-.033 1.732.509 1.892-.617.468-1.611.33-1.977-.256-.368.1-.555.407-.742.713-.148.24-.295.481-.53.624-.435.264-.85.384-1.428.533-.32.063-.502.052-.409-.053l.096-.147c.264-.403.503-.768.67-1.29l-.522-.08c-1.086-.17-2.152-.338-3.094-.207-.63.088-1.03.383-1.417.67a7 7 0 0 1-.401.281c-1.164.733-2.445.547-2.554.272-.065-.163.117-.283.285-.393.101-.066.197-.13.23-.196-.247.035-.666-.04-.747-.216-.06-.131.175-.375.232-.418.111-.083.35-.146.513-.188l.09-.024c.27-.076.53-.098.769-.117.378-.032.699-.059.912-.288.227-.245.33-.435.425-.61.104-.191.199-.366.435-.578.585-.526 1.214-.986 2.196-1.307.287-.093.583-.172.886-.253.734-.195 1.505-.4 2.271-.852.579-.34.906-.896 1.252-1.484q.11-.191.23-.384l.02-.034c.465-.752.92-1.489 1.727-1.842.31-.135.69-.146 1.05-.156m1.41.602c.112-.228.112-.428 0-.541s-.29-.062-.492.113V3.28a1.07 1.07 0 0 1-.548.138q-.074.002-.152.003a4 4 0 0 0-.42.019c-1.198.128-1.719 1.065-2.259 2.036-.294.529-.594 1.068-1.011 1.493q-.13.131-.279.246c-.415.323-.924.553-1.392.74-.403.16-.794.241-1.18.321-.34.071-.677.14-1.01.263a6.5 6.5 0 0 0-1.482.775 4 4 0 0 0-.3.234c-.253.215-.418.453-.577.698l-.05.078c-.149.228-.3.46-.517.683-.201.206-.685.231-1.178.257-.47.024-.948.049-1.2.23l-.011.008c-.032.02-.084.053.037.093a1 1 0 0 0 .127 0c.077-.002.178-.005.277 0h.017c.085.004.354.014.343.112-.01.092-.096.225-.175.344a1 1 0 0 1-.128.142c-.063.062-.118.115-.1.141.83.124 1.382-.237 1.382-.237s1.083-.866 1.752-1.09a5.1 5.1 0 0 1 1.877-.237c.22.011.44.044.66.076.204.03.408.06.61.073.128.008.291.046.456.084.215.05.432.101.575.085.187-.12.294-.384.396-.637.112-.276.218-.539.417-.584-.01 1.316-.149 1.822-.69 2.586.569-.105 1.143-.804 1.143-.804s1.02-1.309 1.126-1.623c.103.083.13.27.157.451.015.108.03.213.061.293.672-.39.888-1.207 1.122-2.094q.059-.227.124-.457l.197-.705c.265-.96.503-1.818.682-2.109.173-.281.456-.476.72-.658q.1-.069.193-.136c.323-.236.614-.482.7-.901" clip-rule="evenodd"/><path fill-rule="evenodd" d="M12.836 4.238c.262.237.811.047.713-.425-.406-.035-.642.11-.713.425" clip-rule="evenodd"/></svg>