<svg xmlns="http://www.w3.org/2000/svg" width="16" height="16" fill="#1EDCFF">
  <path
      d="M5.213 3.28a.572.572 0 1 0 0-1.143.572.572 0 0 0 0 1.143M6.98 5.118a.643.643 0 1 0 0-1.286.643.643 0 0 0 0 1.286M9.46 6.242a.714.714 0 1 1-1.428 0 .714.714 0 0 1 1.428 0M10.513 8.794a.786.786 0 1 0 0-1.57.786.786 0 0 0 0 1.57M13.136 9.775a.857.857 0 1 1-1.714 0 .857.857 0 0 1 1.714 0M2.18 2.708a.5.5 0 1 1-1.001 0 .5.5 0 0 1 1 0M4.017 4.475a.572.572 0 1 1-1.143 0 .572.572 0 0 1 1.143 0M5.213 6.885a.643.643 0 1 0 0-1.286.643.643 0 0 0 0 1.286M7.694 8.009a.714.714 0 1 1-1.429 0 .714.714 0 0 1 1.429 0M8.746 10.56a.786.786 0 1 0 0-1.57.786.786 0 0 0 0 1.57M11.37 11.542a.857.857 0 1 1-1.714 0 .857.857 0 0 1 1.714 0M9.389 2.709a.643.643 0 1 1-1.286 0 .643.643 0 0 1 1.286 0M11.227 4.475a.714.714 0 1 1-1.429 0 .714.714 0 0 1 1.429 0M12.28 7.028a.786.786 0 1 0 0-1.572.786.786 0 0 0 0 1.572M14.903 8.009a.857.857 0 1 1-1.714 0 .857.857 0 0 1 1.714 0M5.213 10.347a.572.572 0 1 0 0-1.143.572.572 0 0 0 0 1.143M4.018 11.542a.572.572 0 1 1-1.144 0 .572.572 0 0 1 1.144 0M1.68 13.88a.572.572 0 1 0 0-1.143.572.572 0 0 0 0 1.143M5.784 13.309a.572.572 0 1 1-1.143 0 .572.572 0 0 1 1.143 0M8.746 13.88a.572.572 0 1 0 0-1.143.572.572 0 0 0 0 1.143M7.55 11.542a.572.572 0 1 1-1.142 0 .572.572 0 0 1 1.143 0"/>
</svg>