<svg xmlns="http://www.w3.org/2000/svg" width="16" height="16" fill="#A000F0" data-big="true"><path d="M8.317 1c1.5.417 2.866 1.468 3.433 2.753.867 2.086.667 4.722-.283 6.291-.8 1.285-2.033 1.969-3.45 1.952-2.2-.016-3.983-1.769-4-3.971 0-2.203 1.733-4.021 4-4.021.367 0 .895.05 1.495.3 0 0-.431-.255-1.539-.426-3.183-.418-6.939 1.994-6.072 7.55C3.1 13.566 5.4 15.018 8.017 15c3.85-.017 7-3.17 6.983-7.042C15 4.254 11.983 1.1 8.317 1"/><path d="M10.933 3.953C10.4 2.835 9.3 1.951 7.95 1.601a4.4 4.4 0 0 0-.966-.134c-.517 0-1.017.067-1.534.2a6.06 6.06 0 0 0-2.716 1.72c-.683.783-1.133 1.601-1.4 2.419 0 .016-.017.033-.017.066-.016.067-.083.267-.083.317-.017.034-.017.084-.033.117l-.05.2c0 .017 0 .034-.017.05-.433 2.153.287 4.085.72 4.802.108.18.197.33.287.467-.984-5.34 1.843-7.888 5.06-7.955 1.683-.033 3.366.65 4.182 2.02-.05-.752-.1-1.169-.45-1.937"/></svg>