<svg xmlns="http://www.w3.org/2000/svg" width="16" height="16" fill="none" ><defs><mask id="a"><path fill="#fff" d="M1.5 4.5 8 .5l6.5 4v7l-6.5 4-6.5-4z"/><path fill="#000" d="M8.002 3 3.678 5.49v2.528L5.84 6.76l.02 5.002L8.001 13V5.504l2.137-1.242zM12.324 5.48l-2.12 1.301v4.989l2.12-1.247z"/></mask></defs><g mask="url(#a)"><path fill="#E30C34" d="M1.5 4.5 8 .5l6.5 4v7l-6.5 4-6.5-4z"/><path fill="#fff" d="M8.002 3 3.678 5.49v2.528L5.84 6.76l.02 5.002L8.001 13V5.504l2.137-1.242zM12.324 5.48l-2.12 1.301v4.989l2.12-1.247z"/></g></svg>