<svg xmlns="http://www.w3.org/2000/svg" width="16px" height="16px" viewBox="0 0 16 16">
  <path transform="scale(0.5)"
        d="m9.9614 17h-2.61l-4.91-5 4.91-5h2.61l1.31-2.26 6.79-1.74 1.87 6.74-1.31 2.26 1.31 2.26-1.87 6.74-6.79-1.74-1.31-2.26m.14-.25 5.13 1.38-2.96-5.13h-5.92l3.75 3.75m6.87.38 1.38-5.13-1.38-5.13-2.97 5.13 2.97 5.13m-6.87-9.88-3.75 3.75h5.92l2.96-5.13z"
        fill="#1976d2" />
  <path fill="#4DD0E1" transform="scale(0.45) translate(10 10)"
        d="M4 2V8H2V2H4M2 22V16H4V22H2M5 12C5 13.11 4.11 14 3 14C1.9 14 1 13.11 1 12C1 10.9 1.9 10 3 10C4.11 10 5 10.9 5 12M16 4C20.42 4 24 7.58 24 12C24 16.42 20.42 20 16 20C12.4 20 9.36 17.62 8.35 14.35L6 12L8.35 9.65C9.36 6.38 12.4 4 16 4M15 13L19.53 15.79L20.33 14.5L16.5 12.2V7H15V13Z" />

</svg>
