<svg xmlns="http://www.w3.org/2000/svg" xml:space="preserve" width="16" height="16" fill-rule="evenodd" stroke-linejoin="round" stroke-miterlimit="1.414" clip-rule="evenodd" data-big="true" viewBox="0 0 24 24"><path fill="#BB80B3" d="M10 4H4c-1.11 0-2 .89-2 2v12c0 1.097.903 2 2 2h16c1.097 0 2-.903 2-2V8a2 2 0 0 0-2-2h-8z"/><path fill="#F0E4EF" d="M15.508 21.639c-4.692 0-8.491-1.925-8.491-4.302s3.8-4.303 8.491-4.303S24 14.96 24 17.337s-3.8 4.302-8.492 4.302m-3.673-5.626c.383 0 .644.071.772.22.127.141.155.396.092.729-.071.375-.206.615-.41.77q-.298.235-.914.234h-.615l.375-1.953zM9.36 19.941h1.019l.24-1.239h.87c.383 0 .694-.042.942-.12q.37-.126.68-.41.252-.232.41-.517c.106-.184.184-.396.219-.623q.17-.83-.234-1.287c-.276-.312-.7-.46-1.288-.46h-1.953zm5.13-5.895-.906 4.656h1.005l.524-2.667h.806q.384 0 .503.127c.078.085.092.24.05.467l-.404 2.073h1.026l.417-2.172c.092-.439.022-.757-.19-.962q-.32-.285-1.168-.283h-.899l.255-1.239zm5.266 1.967q.582-.002.77.22c.128.141.157.396.093.729-.07.375-.205.615-.403.771q-.307.234-.92.234h-.602l.354-1.953zm-2.477 3.927h1.019l.24-1.238h.864c.389 0 .707-.043.955-.12.248-.086.46-.22.672-.411.17-.156.312-.326.41-.517.107-.184.185-.396.227-.622.106-.552.028-.984-.24-1.288-.255-.312-.701-.46-1.288-.46H18.19z"/></svg>