<svg xmlns="http://www.w3.org/2000/svg" width="16" height="16" data-big="true" viewBox="0 0 512 512"><defs><mask id="a"><path fill="#fff" d="M0 0h512v512H0z"/><circle cx="368" cy="368" r="150"/></mask></defs><g fill="#C792EA"><path d="m169.242 244.408-84.89 141.594h132.332c-12.837-60.894 4.146-106.644 48.12-111.124l-18.582-30.47zM302.005 61.813H275.91v125.878l23.883 37.448h-32l-19.868-30.392V61.813h-81.92v132.934L33.942 413.729h182.743v27.617H27.516c-26.369 0-34.163-13.204-21.746-34.336l132.25-219.32V61.814h-26.096c-19.52 0-19.52-27.617 0-27.617h190.081c19.52 0 19.52 27.617 0 27.617m-6.837 329.95v29.946h-22.539c-19.046 0-30.176-13.825-34.829-33.234-6.284-26.068-6.018-41.645 0-66.613 5.22-21.79 21.898-33.234 40.944-33.234h90.143v-11.273H303.35v-25.782c0-18.913 5.039-25.425 32.774-30.32 21.41-3.584 43.237-3.545 65.465 0 17.79 2.961 32.775 16.303 32.775 34.068v62.408c0 18.309-14.55 33.306-32.775 33.306l-65.47.006c-22.225 0-40.951 19.089-40.951 40.721m58.375-142.479c0-11.673-12.533-19.008-22.505-13.172-9.973 5.837-9.973 20.507 0 26.344 9.972 5.836 22.505-1.499 22.505-13.172m96.475 74.901v-29.947h22.539c19.046 0 30.176 13.825 34.829 33.234 6.284 26.068 6.018 41.645 0 66.613-5.22 21.79-21.898 33.234-40.944 33.234h-90.143v10.2h65.537v26.855c0 18.913-5.04 25.425-32.774 30.32-21.41 3.584-43.237 3.545-65.465 0-17.79-2.961-32.775-16.303-32.775-34.068v-62.408c0-18.309 14.55-33.306 32.775-33.306l65.47-.006c22.225 0 40.951-19.089 40.951-40.721m-58.375 142.478c0 11.673 12.533 19.008 22.505 13.172 9.973-5.837 9.973-20.507 0-26.344-9.972-5.837-22.505 1.499-22.505 13.172" mask="url(#a)"/><path d="M341.161 430.904c-1.2-7.83-4.5-14.19-12.51-17.265-3.135-1.2-5.85-3.39-8.94-4.77-3.51-1.575-7.08-3.075-10.785-4.05-2.805-.75-5.415.51-7.08 2.97-1.575 2.31-.435 4.485.885 6.42 1.485 2.175 3.135 4.245 4.8 6.285 2.76 3.39 5.685 6.645 8.37 10.08 2.565 3.285 4.755 6.93 4.38 11.28-.825 9.54-5.145 17.446-12.105 23.88-.765.69-2.115 1.185-3.105 1.095-4.44-.48-8.475-2.16-11.73-5.265-3.735-3.555-3.165-7.74 1.305-10.335 1.065-.615 2.175-1.185 3.15-1.935 2.73-2.055 3.645-5.565 2.16-8.61-.705-1.47-1.5-3.06-2.67-4.125-5.715-5.205-11.326-10.575-17.446-15.315-14.835-11.52-22.455-26.76-23.625-45.21-1.32-20.491 3.435-39.616 14.25-57.121 4.095-6.645 8.865-12.976 16.185-16.26 4.98-2.235 10.44-3.495 15.766-4.89 14.655-3.855 29.444-6.75 44.7-4.17 13.14 2.205 22.755 8.97 27.165 21.885 2.895 8.445 3.585 17.175 2.685 26.115-1.77 17.566-14.745 33.27-31.665 37.92-7.335 2.01-11.34.886-15.75-5.22-3.165-4.394-5.79-9.18-8.625-13.815-.42-.69-.72-1.485-1.08-2.22-.345-.735-.72-1.44-1.08-2.175 1.065 7.62 2.835 14.956 6.99 21.495 2.25 3.555 5.25 6.18 9.645 6.57 16.17 1.455 29.82-3.855 39.51-16.86 10.845-14.551 13.231-31.291 10.095-48.916-.615-3.48-1.65-6.885-2.385-10.35-.495-2.235.39-3.885 2.595-4.665a26 26 0 0 1 3.09-.84c13.231-2.85 26.611-3.795 40.096-2.43 15.3 1.53 29.776 5.73 42.72 14.236 20.266 13.335 32.821 32.31 39.646 55.26.99 3.33 1.14 6.975 1.23 10.486.06 2.34-1.44 2.955-3.225 1.485-1.965-1.605-3.765-3.435-5.46-5.325-1.575-1.785-2.835-3.825-4.365-5.7-1.185-1.47-2.22-1.245-2.79.585a93 93 0 0 0-.99 3.315c-3.54 12.63-9.12 24.15-18.165 33.856-1.26 1.365-2.385 3.39-2.535 5.19-.39 4.98-.675 10.065-.195 15.03.99 10.665 2.535 21.285 3.735 31.935.675 6.015-1.26 9.555-6.915 11.64-3.975 1.455-8.235 2.52-12.435 2.82-6.69.465-13.44.135-20.16.135-.18-7.5.465-14.865-6.585-18.885 1.365-5.565 2.94-10.845 3.885-16.245.78-4.485.12-8.895-3.03-12.57-2.955-3.465-6.66-4.41-10.05-2.43-10.216 5.955-20.836 5.985-31.651 2.085-4.965-1.8-8.43-.78-11.176 3.75-2.955 4.875-4.2 10.35-3.87 15.885.42 6.975 1.635 13.875 2.565 20.82.51 3.885.075 4.89-3.78 5.88-8.565 2.175-17.28 2.415-26.04 1.71-.465-.045-.93-.24-1.23-.315-.435-7.275.33-14.835-8.34-18.705 3.84-8.145 3.315-16.59 1.995-25.035zm-51.78-28.545c1.275-1.2 2.295-3.075 2.655-4.8.9-4.32-2.34-10.11-6.09-11.715-1.996-.87-3.736-.555-5.146 1.035a955 955 0 0 0-10.2 11.76c-.57.676-1.08 1.47-1.485 2.266-1.35 2.595-.555 4.485 2.325 5.19 1.74.435 3.54.525 5.325.78 4.65-.45 9.15-1.23 12.615-4.5zm.39-43.185c-.016-3.09-2.596-5.67-5.64-5.685-3.135-.015-5.835 2.79-5.73 5.88.134 3.104 2.714 5.594 5.804 5.534a5.656 5.656 0 0 0 5.58-5.715z"/></g></svg>