<!--
  - The MIT License (MIT)
  -
  - Copyright (c) 2015-2021 Elior "Mallowigi" Boukhobza
  -
  - Permission is hereby granted, free of charge, to any person obtaining a copy
  - of this software and associated documentation files (the "Software"), to deal
  - in the Software without restriction, including without limitation the rights
  - to use, copy, modify, merge, publish, distribute, sublicense, and/or sell
  - copies of the Software, and to permit persons to whom the Software is
  - furnished to do so, subject to the following conditions:
  -
  - The above copyright notice and this permission notice shall be included in all
  - copies or substantial portions of the Software.
  -
  - THE SOFTWARE IS PROVIDED "AS IS", WITHOUT WARRANTY OF ANY KIND, EXPRESS OR
  - IMPLIED, INCLUDING BUT NOT LIMITED TO THE WARRANTIES OF MERCHANTABILITY,
  - FITNESS FOR A PARTICULAR PURPOSE AND NONINFRINGEMENT. IN NO EVENT SHALL THE
  - AUTHORS OR COPYRIGHT HOLDERS BE LIABLE FOR ANY CLAIM, DAMAGES OR OTHER
  - LIABILITY, WHETHER IN AN ACTION OF CONTRACT, TORT OR OTHERWISE, ARISING FROM,
  - OUT OF OR IN CONNECTION WITH THE SOFTWARE OR THE USE OR OTHER DEALINGS IN THE
  - SOFTWARE.
  -
  -
  -->

<svg version="1.1" class="has-solid " viewBox="0 0 36 36" preserveAspectRatio="xMidYMid meet"
     xmlns="http://www.w3.org/2000/svg" focusable="false" role="img" width="16px" height="16px" fill="#66BB6A">
  <path d="M33,2H22.1a1,1,0,0,0,0,2h8.53l-8.82,9a1,1,0,1,0,1.43,1.4L32,5.46V13.9a1,1,0,0,0,2,0V3A1,1,0,0,0,33,2Z"/>
  <path
    d="M11.54,10.73l-9,5.17a1,1,0,0,0-.5.87v11a1,1,0,0,0,.5.87l9,5.15a1,1,0,0,0,1,0l9-5.15a1,1,0,0,0,.5-.87v-11a1,1,0,0,0-.5-.87l-9-5.17A1,1,0,0,0,11.54,10.73ZM11,31.08l-7-4V18.44l7,4ZM12,21,4.81,16.87,12,12.78l7.21,4.12Zm8,6.09-7,4V22.44l7-4Z"/>
  <path d="M33,2H22.1a1,1,0,0,0,0,2h8.53l-8.82,9a1,1,0,1,0,1.43,1.4L32,5.46V13.9a1,1,0,0,0,2,0V3A1,1,0,0,0,33,2Z"
        style="display:none"/>
  <path d="M12.46,10.73a1,1,0,0,0-1,0l-8.68,5L12,21l9.19-5.26Z"
        style="display:none"/>
  <path d="M2,27.73a1,1,0,0,0,.5.87L11,33.46v-11L2,17.28Z"/>
  <path d="M13,33.46l8.5-4.86a1,1,0,0,0,.5-.87V17.29l-9,5.15Z"/>
</svg>
