<!--
  - The MIT License (MIT)
  -
  - Copyright (c) 2015-2021 Elior "Mallowigi" Boukhobza
  -
  - Permission is hereby granted, free of charge, to any person obtaining a copy
  - of this software and associated documentation files (the "Software"), to deal
  - in the Software without restriction, including without limitation the rights
  - to use, copy, modify, merge, publish, distribute, sublicense, and/or sell
  - copies of the Software, and to permit persons to whom the Software is
  - furnished to do so, subject to the following conditions:
  -
  - The above copyright notice and this permission notice shall be included in all
  - copies or substantial portions of the Software.
  -
  - THE SOFTWARE IS PROVIDED "AS IS", WITHOUT WARRANTY OF ANY KIND, EXPRESS OR
  - IMPLIED, INCLUDING BUT NOT LIMITED TO THE WARRANTIES OF MERCHANTABILITY,
  - FITNESS FOR A PARTICULAR PURPOSE AND NONINFRINGEMENT. IN NO EVENT SHALL THE
  - AUTHORS OR COPYRIGHT HOLDERS BE LIABLE FOR ANY CLAIM, DAMAGES OR OTHER
  - LIABILITY, WHETHER IN AN ACTION OF CONTRACT, TORT OR OTHERWISE, ARISING FROM,
  - OUT OF OR IN CONNECTION WITH THE SOFTWARE OR THE USE OR OTHER DEALINGS IN THE
  - SOFTWARE.
  -
  -
  -->


<svg xmlns="http://www.w3.org/2000/svg" version="1.1" width="16px" height="16px" fill="#4CAF50" viewBox="0 0 24 24">
  <path
    d="M8,11.5A1.25,1.25 0 0,0 6.75,12.75A1.25,1.25 0 0,0 8,14A1.25,1.25 0 0,0 9.25,12.75A1.25,1.25 0 0,0 8,11.5M16,11.5A1.25,1.25 0 0,0 14.75,12.75A1.25,1.25 0 0,0 16,14A1.25,1.25 0 0,0 17.25,12.75A1.25,1.25 0 0,0 16,11.5M12,7C13.5,7 14.9,7.33 16.18,7.91L18.34,5.75C18.73,5.36 19.36,5.36 19.75,5.75C20.14,6.14 20.14,6.77 19.75,7.16L17.95,8.96C20.41,10.79 22,13.71 22,17H2C2,13.71 3.59,10.79 6.05,8.96L4.25,7.16C3.86,6.77 3.86,6.14 4.25,5.75C4.64,5.36 5.27,5.36 5.66,5.75L7.82,7.91C9.1,7.33 10.5,7 12,7Z" />
</svg>
