<svg xmlns="http://www.w3.org/2000/svg" width="16" height="16" fill="#4DB6AC"  viewBox="0 0 24 24"><path d="M12 19a1 1 0 0 1-1-1 1 1 0 0 1 1-1 1 1 0 0 1 1 1 1 1 0 0 1-1 1M4 5h16v11H4m16 2a2 2 0 0 0 2-2V5a2 2 0 0 0-2-2H4c-1.11 0-2 .89-2 2v11a2 2 0 0 0 2 2H0a2 2 0 0 0 2 2h20a2 2 0 0 0 2-2z"/><path fill="#FF8A65" d="M12.691 7.106v1.06a3.6 3.6 0 0 0-1.085-.706 3.2 3.2 0 0 0-1.22-.234 2.44 2.44 0 0 0-1.95.78 3.32 3.32 0 0 0-.676 2.244 3.33 3.33 0 0 0 .677 2.246 2.45 2.45 0 0 0 1.95.776 3.2 3.2 0 0 0 1.22-.234 3.6 3.6 0 0 0 1.085-.706v1.05a4.1 4.1 0 0 1-1.12.537 4.3 4.3 0 0 1-1.245.181 3.48 3.48 0 0 1-2.66-1.029A3.95 3.95 0 0 1 6.7 10.25a3.94 3.94 0 0 1 .97-2.815A3.47 3.47 0 0 1 10.327 6.4a4.3 4.3 0 0 1 1.255.18 4 4 0 0 1 1.11.526M11.6 8.5v1.4H13v.7h-1.4V12h-.7v-1.4H9.5v-.7h1.4V8.5zm4.2 0v1.4h1.4v.7h-1.4V12h-.7v-1.4h-1.4v-.7h1.4V8.5z" class="i-color"/></svg>