<svg xmlns="http://www.w3.org/2000/svg" width="16" height="16" fill="#4DB6AC"  viewBox="0 0 24 24"><path d="M12 19a1 1 0 0 1-1-1 1 1 0 0 1 1-1 1 1 0 0 1 1 1 1 1 0 0 1-1 1M4 5h16v11H4m16 2a2 2 0 0 0 2-2V5a2 2 0 0 0-2-2H4c-1.11 0-2 .89-2 2v11a2 2 0 0 0 2 2H0a2 2 0 0 0 2 2h20a2 2 0 0 0 2-2z"/><path fill="#FF8A65" d="m11.7 12.582.246 1.464c-.156.084-.408.162-.744.234q-.513.118-1.206.12c-1.326-.024-2.322-.42-2.988-1.176Q6 12.081 6 10.326q.047-2.078 1.2-3.192C7.992 6.384 8.976 6 10.164 6c.45 0 .84.042 1.164.114s.564.15.72.24L11.7 7.848l-.636-.204q-.358-.09-.834-.09-1.045-.008-1.722.66c-.456.438-.69 1.11-.708 2.004 0 .816.222 1.452.648 1.92.426.462 1.026.702 1.794.708l.798-.072c.258-.048.474-.114.66-.192m1.434 1.818L13.5 12h-.9l.204-1.2h.9l.192-1.2h-.9l.204-1.2h.9l.366-2.4h1.2L15.3 8.4h.6l.366-2.4h1.2L17.1 8.4h.9l-.204 1.2h-.9l-.192 1.2h.9L17.4 12h-.9l-.366 2.4h-1.2L15.3 12h-.6l-.366 2.4zm1.77-3.6h.6l.192-1.2h-.6z"/></svg>