<svg xmlns="http://www.w3.org/2000/svg" width="16" height="16" fill="#4DB6AC"  viewBox="0 0 24 24"><path d="M12 19a1 1 0 0 1-1-1 1 1 0 0 1 1-1 1 1 0 0 1 1 1 1 1 0 0 1-1 1M4 5h16v11H4m16 2a2 2 0 0 0 2-2V5a2 2 0 0 0-2-2H4c-1.11 0-2 .89-2 2v11a2 2 0 0 0 2 2H0a2 2 0 0 0 2 2h20a2 2 0 0 0 2-2z"/><path fill="#FFCA28" d="m8.792 8.234.054-.022ZM6.16 12.8h.694A1.725 1.725 0 0 0 8.6 11.533c.186-.56.339-1.031.473-1.427l.005-.015a10.4 10.4 0 0 1 .96-1.094h.007c.461 1.326.64 3.693 1.988 3.693q.084.001.167-.004-.082.01-.16.012h1.068a1 1 0 0 1-.217-.024 1 1 0 0 1-.128-.034 1 1 0 0 0 .128.031 1 1 0 0 0 .217.02 1.7 1.7 0 0 0 .51-.059 1.7 1.7 0 0 1-.51.066h1.471a.5.5 0 0 1-.143-.023.5.5 0 0 0 .14.015c1.04 0 2.091-1.76 3.827-4.677h-.68v.018H17.6c-.64 1.069-1.088 1.983-1.467 2.712.378-.73.827-1.643 1.467-2.712h-1.04c-.034 0-.068-.005-.102 0a1.7 1.7 0 0 0-1.716 1.249c-.413 1.24-.662 2.047-.902 2.56a4 4 0 0 1-.338.28q-.088.065-.177.124a2 2 0 0 0 .153.156 1.2 1.2 0 0 0 .261.183 1.2 1.2 0 0 1-.267-.183 2 2 0 0 1-.154-.156q.09-.059.177-.125c-.325-.676-.513-1.824-.862-2.72.35.894.538 2.043.862 2.72q.169-.126.339-.279c-.47-1.32-.634-3.72-1.994-3.72a2 2 0 0 0-.289.025 2 2 0 0 1 .289-.026l-.535-.006c.085 0 .165.022.24.022-.08 0-.16-.022-.24-.022h-.023.023H9.12c-1.172-.006-2.787 2.055-3.514 4.687zm10.247-4.68a1.55 1.55 0 0 0-.8.52 1.55 1.55 0 0 1 .8-.52m-1.642 4.426-.01.004-.014.008.025-.012Zm-.143.059h.008-.007l-.014.005Zm-.124.041.023-.007h.012l.013-.005.013-.004.011-.004.028-.008-.027.008h-.011l-.014.004-.013.005h-.012l-.023.007Zm-5.652-4.43a.2.2 0 0 0-.068.023l.014-.005-.054.024-.03.013Zm.211-.071-.008.008-.057.014h-.006l-.016.005.016-.006h.006l.058-.014s.004-.007.008-.007l.016-.009c-.006 0-.012.009-.016.01Zm.025 0-.008.004.008-.006.016-.005-.016.004Zm.21-.009h-.03zm.027-.013q-.038.002-.075.007l.01.004q-.009-.002-.019-.004h.009-.092.166Zm.069.029-.06-.012h-.004.005c.02 0 .04.007.059.012m.424.32a1 1 0 0 0-.202-.24 1 1 0 0 1 .2.24Zm1.182-.328a2 2 0 0 1 .234-.026 2 2 0 0 0-.234.026m.236.087a2.5 2.5 0 0 0-.37.166 2.5 2.5 0 0 1 .37-.167 2 2 0 0 1 .252-.07 2 2 0 0 0-.252.07Zm1.258 4.406a2 2 0 0 0 .153-.045l-.156.042Zm1.314-.08-.01.005zm.27.131a1 1 0 0 1-.334-.1 1 1 0 0 0 .335.1l.054.005Zm-.008-.346a.9.9 0 0 0 .228.26.9.9 0 0 1-.229-.257Zm.193.35h-.01zh.02l-.023-.002Zm.08-.008h-.051.05Z" class="i-color"/></svg>