<svg xmlns="http://www.w3.org/2000/svg" xml:space="preserve" width="16" height="16" fill-rule="evenodd" stroke-linejoin="round" stroke-miterlimit="1.414" clip-rule="evenodd" data-big="true" viewBox="0 0 24 24"><path fill="#C792EA" d="M20 18H4V8h16m0-2h-8l-2-2H4c-1.11 0-2 .89-2 2v12a2 2 0 0 0 2 2h16a2 2 0 0 0 2-2V8a2 2 0 0 0-2-2"/><path fill="#80CBC4" d="M11.185 9.613h5.346v2.9l3.782-3.775 3.775 3.775-3.775 3.782h2.9v5.346h-5.346v-5.346h2.446l-3.782-3.782v2.446h-5.346zm0 6.682h5.346v5.346h-5.346z"/></svg>