<svg xmlns="http://www.w3.org/2000/svg" width="16" height="16" fill="#4DB6AC" data-big="true" viewBox="0 0 24 24"><path d="M12 19a1 1 0 0 1-1-1 1 1 0 0 1 1-1 1 1 0 0 1 1 1 1 1 0 0 1-1 1M4 5h16v11H4m16 2a2 2 0 0 0 2-2V5a2 2 0 0 0-2-2H4c-1.11 0-2 .89-2 2v11a2 2 0 0 0 2 2H0a2 2 0 0 0 2 2h20a2 2 0 0 0 2-2z"/><path fill="#FFCA28" d="M9.116 8.06 6.67 10.51l4.905 4.905V12.96L9.122 10.51l2.453-2.453-.005-1.221-.006-1.22zm1.576 1.58-.87.869 1.752 1.751v-1.747c0-.959-.002-1.745-.006-1.745-.002 0-.396.392-.876.872m3.78 3.328 2.445-2.448-4.905-4.905v2.452l2.452 2.453-2.452 2.452.004 1.222.007 1.22 2.448-2.446z" class="i-color"/></svg>