<svg xmlns="http://www.w3.org/2000/svg" width="16" height="16" fill="#BA68C8" data-big="true" viewBox="0 0 24 24"><path d="M12 6a3 3 0 0 0-3 3 3 3 0 0 0 3 3 3 3 0 0 0 3-3 3 3 0 0 0-3-3M6 8.17a2.5 2.5 0 0 0-2.5 2.5 2.5 2.5 0 0 0 2.5 2.5c.88 0 1.65-.46 2.09-1.14C7.42 11.18 7 10.15 7 9c0-.2 0-.4.04-.6-.32-.15-.67-.23-1.04-.23m12 0c-.37 0-.72.08-1.04.23.04.2.04.4.04.6 0 1.15-.42 2.18-1.09 3.03A2.49 2.49 0 0 0 18 13.17a2.5 2.5 0 0 0 2.5-2.5 2.5 2.5 0 0 0-2.5-2.5M12 14c-2 0-6 1-6 3v2h12v-2c0-2-4-3-6-3m-7.33.97C3 15.26 1 16.04 1 17.33V19h3v-2c0-.78.29-1.47.67-2.03m14.66 0c.38.56.67 1.25.67 2.03v2h3v-1.67c0-1.29-2-2.07-3.67-2.36"/></svg>