<svg xmlns="http://www.w3.org/2000/svg" width="16" height="16" fill="#4DB6AC" data-big="true" viewBox="0 0 24 24"><path d="M12 19a1 1 0 0 1-1-1 1 1 0 0 1 1-1 1 1 0 0 1 1 1 1 1 0 0 1-1 1M4 5h16v11H4m16 2a2 2 0 0 0 2-2V5a2 2 0 0 0-2-2H4c-1.11 0-2 .89-2 2v11a2 2 0 0 0 2 2H0a2 2 0 0 0 2 2h20a2 2 0 0 0 2-2z"/><path fill="#FFCA28" d="m12 6-2.591 9h-1.82l-2.66-9h1.914s1.3 4.755 1.753 7.161h.341C9.429 10.765 10.715 6 10.715 6Zm4.5 4.367v-.025a2.11 2.11 0 0 0 1.222-2.133A2.184 2.184 0 0 0 15.239 6H12.4v9h2.984A2.457 2.457 0 0 0 18 12.314a1.813 1.813 0 0 0-1.5-1.947m-2.316-3.2h1.287q1.151 0 1.151 1.219c0 .919-.428 1.405-1.048 1.405h-1.39Zm1.427 6.623h-1.432v-2.82h1.437c.666 0 1.184.426 1.184 1.371 0 .974-.513 1.446-1.194 1.446Z"/></svg>