<?xml version="1.0" encoding="UTF-8"?>
<!--
  - The MIT License (MIT)
  -
  - Copyright (c) 2015-2021 Elior "Mallowigi" Boukhobza
  -
  - Permission is hereby granted, free of charge, to any person obtaining a copy
  - of this software and associated documentation files (the "Software"), to deal
  - in the Software without restriction, including without limitation the rights
  - to use, copy, modify, merge, publish, distribute, sublicense, and/or sell
  - copies of the Software, and to permit persons to whom the Software is
  - furnished to do so, subject to the following conditions:
  -
  - The above copyright notice and this permission notice shall be included in all
  - copies or substantial portions of the Software.
  -
  - THE SOFTWARE IS PROVIDED "AS IS", WITHOUT WARRANTY OF ANY KIND, EXPRESS OR
  - IMPLIED, INCLUDING BUT NOT LIMITED TO THE WARRANTIES OF MERCHANTABILITY,
  - FITNESS FOR A PARTICULAR PURPOSE AND NONINFRINGEMENT. IN NO EVENT SHALL THE
  - AUTHORS OR COPYRIGHT HOLDERS BE LIABLE FOR ANY CLAIM, DAMAGES OR OTHER
  - LIABILITY, WHETHER IN AN ACTION OF CONTRACT, TORT OR OTHERWISE, ARISING FROM,
  - OUT OF OR IN CONNECTION WITH THE SOFTWARE OR THE USE OR OTHER DEALINGS IN THE
  - SOFTWARE.
  -
  -
  -->

<!DOCTYPE svg PUBLIC "-//W3C//DTD SVG 1.1//EN" "http://www.w3.org/Graphics/SVG/1.1/DTD/svg11.dtd">
<svg xmlns="http://www.w3.org/2000/svg" version="1.1" width="16px"
     height="16px" viewBox="0 0 24 24">
  <path fill="#FFB74D"
        d="M7.97,16L5,19C4.67,19.3 4.23,19.5 3.75,19.5A1.75,1.75 0 0,1 2,17.75V17.5L3,10.12C3.21,7.81 5.14,6 7.5,6H16.5C18.86,6 20.79,7.81 21,10.12L22,17.5V17.75A1.75,1.75 0 0,1 20.25,19.5C19.77,19.5 19.33,19.3 19,19L16.03,16H7.97M7,8V10H5V11H7V13H8V11H10V10H8V8H7M16.5,8A0.75,0.75 0 0,0 15.75,8.75A0.75,0.75 0 0,0 16.5,9.5A0.75,0.75 0 0,0 17.25,8.75A0.75,0.75 0 0,0 16.5,8M14.75,9.75A0.75,0.75 0 0,0 14,10.5A0.75,0.75 0 0,0 14.75,11.25A0.75,0.75 0 0,0 15.5,10.5A0.75,0.75 0 0,0 14.75,9.75M18.25,9.75A0.75,0.75 0 0,0 17.5,10.5A0.75,0.75 0 0,0 18.25,11.25A0.75,0.75 0 0,0 19,10.5A0.75,0.75 0 0,0 18.25,9.75M16.5,11.5A0.75,0.75 0 0,0 15.75,12.25A0.75,0.75 0 0,0 16.5,13A0.75,0.75 0 0,0 17.25,12.25A0.75,0.75 0 0,0 16.5,11.5Z" />
</svg>
