<svg xmlns="http://www.w3.org/2000/svg" width="16" height="16" data-big="true"><path fill="#323232" d="M.75.75h10.5v10.5H.75z"/><path fill="#ebebeb" d="M4.5 7.9s3.635 1.54 3.906 1.632c.166.057.201.048.225.018a3.8 3.8 0 0 0 .442-1.035C8 7.929 7.067 7.078 7.067 6.287a.3.3 0 0 1 .09-.135c.282.38 2.22 1.8 2.29 1.379a3.68 3.68 0 0 0-.182-2.352c-.307-.064-1.67-.616-1.778-1.106a.48.48 0 0 1 .048-.294 8 8 0 0 0 2.226.607c.26-.008.243-.11.264-.312a4.5 4.5 0 0 0-.403-1.755 1.3 1.3 0 0 0-.43-.476c-.71-.525-3.175-1.31-4.675-.45a6 6 0 0 0 1.458.654.3.3 0 0 1-.05.128c-.688.19-2.475-.494-2.665-.4a.74.74 0 0 0-.432.475c-.195.875 1.314 1.506 2.064 1.965 0 .018-.013.088-.036.106a7 7 0 0 1-1.887-.29 12.5 12.5 0 0 1-2.219.75v6.469h.786C2.406 10.461 4.5 7.9 4.5 7.9"/><path fill="#4DD0E1" d="M6.3 5.4v2.7h-.9V5.4zm-.9 9v-2.7h.9v2.7zm1.35-4.5a.9.9 0 1 1-1.8 0 .9.9 0 0 1 1.8 0m4.95-3.6c1.989 0 3.6 1.611 3.6 3.6s-1.611 3.6-3.6 3.6a3.61 3.61 0 0 1-3.442-2.543L7.2 9.9l1.058-1.057A3.61 3.61 0 0 1 11.7 6.3m-.45 4.05 2.039 1.255.36-.58-1.724-1.035V7.65h-.675z"/></svg>