<svg xmlns="http://www.w3.org/2000/svg" width="16" height="16"  viewBox="0 0 24 24"><path fill="#90A4AE" d="M9 1.5A7.5 7.5 0 0 0 1.5 9 7.5 7.5 0 0 0 9 16.5 7.5 7.5 0 0 0 16.5 9 7.5 7.5 0 0 0 9 1.5M9 3a6 6 0 0 1 6 6c0 1.8-.75 3.375-2.025 4.5C11.925 12.525 10.5 12 9 12s-2.85.525-3.975 1.5A5.9 5.9 0 0 1 3 9a6 6 0 0 1 6-6m1.5 1.417a.77.77 0 0 0-.675.488l-.967 2.422-.075.173c-.533.098-.975.45-1.178.945a1.5 1.5 0 0 0 .84 1.95 1.5 1.5 0 0 0 1.95-.84 1.53 1.53 0 0 0-.217-1.485l.074-.195.968-2.407.008-.023a.76.76 0 0 0-.42-.975.8.8 0 0 0-.308-.053m-3 .083a.75.75 0 0 0-.75.75.75.75 0 0 0 .75.75.75.75 0 0 0 .75-.75.75.75 0 0 0-.75-.75M5.25 6.75a.75.75 0 0 0-.75.75.75.75 0 0 0 .75.75A.75.75 0 0 0 6 7.5a.75.75 0 0 0-.75-.75m7.5 0a.75.75 0 0 0-.75.75.75.75 0 0 0 .75.75.75.75 0 0 0 .75-.75.75.75 0 0 0-.75-.75"/><path fill="#4DD0E1" d="M9 7.5V12H7.5V7.5zm-1.5 15V18H9v4.5zM9.75 15a1.5 1.5 0 1 1-3 0 1.5 1.5 0 0 1 3 0M18 9c3.315 0 6 2.685 6 6s-2.685 6-6 6a6.01 6.01 0 0 1-5.738-4.238L10.5 15l1.762-1.762A6.01 6.01 0 0 1 18 9m-.75 6.75 3.398 2.093.6-.968-2.873-1.725v-3.9H17.25z"/></svg>