<svg xmlns="http://www.w3.org/2000/svg" width="16" height="16" viewBox="0 0 24 24">
  <path fill="#90A4AE"
        d="M9 1.5A7.5 7.5 0 0 0 1.5 9 7.5 7.5 0 0 0 9 16.5 7.5 7.5 0 0 0 16.5 9 7.5 7.5 0 0 0 9 1.5M9 3a6 6 0 0 1 6 6c0 1.8-.75 3.375-2.025 4.5C11.925 12.525 10.5 12 9 12s-2.85.525-3.975 1.5A5.9 5.9 0 0 1 3 9a6 6 0 0 1 6-6m1.5 1.417a.77.77 0 0 0-.675.488l-.967 2.422-.075.173c-.533.098-.975.45-1.178.945a1.5 1.5 0 0 0 .84 1.95 1.5 1.5 0 0 0 1.95-.84 1.53 1.53 0 0 0-.217-1.485l.074-.195.968-2.407.008-.023a.76.76 0 0 0-.42-.975.8.8 0 0 0-.308-.053m-3 .083a.75.75 0 0 0-.75.75.75.75 0 0 0 .75.75.75.75 0 0 0 .75-.75.75.75 0 0 0-.75-.75M5.25 6.75a.75.75 0 0 0-.75.75.75.75 0 0 0 .75.75A.75.75 0 0 0 6 7.5a.75.75 0 0 0-.75-.75m7.5 0a.75.75 0 0 0-.75.75.75.75 0 0 0 .75.75.75.75 0 0 0 .75-.75.75.75 0 0 0-.75-.75"/>
  <path fill="#81C784"
        d="m11.19 20.25-1.44-1.44 6.045-6.06 1.455 1.455m4.282-3.982-1.755-1.755c-.277-.293-.764-.293-1.057 0l-2.34 2.34-1.447-1.433-1.058 1.058 1.065 1.065-6.69 6.69v3.562h3.563l6.69-6.69 1.064 1.065 1.058-1.058-1.44-1.44 2.34-2.34c.3-.3.3-.787.008-1.065"/>
</svg>