<svg xmlns="http://www.w3.org/2000/svg" width="16" height="16"  data-name="Layer 1" viewBox="0 0 120.801 130.898"><defs><radialGradient id="a" cx="113.692" cy="68.825" r="98.86" gradientUnits="userSpaceOnUse"><stop offset=".045" stop-color="#f4793b"/><stop offset="1" stop-color="#fff33e"/></radialGradient><radialGradient id="b" cx="9.363" cy="41.049" r="49.677" gradientUnits="userSpaceOnUse"><stop offset=".258" stop-color="#ee3d85"/><stop offset="1" stop-color="#7b5aa6"/></radialGradient><radialGradient id="d" cx="50.068" cy="9.716" r="88.22" gradientUnits="userSpaceOnUse"><stop offset=".134" stop-color="#f05872"/><stop offset="1" stop-color="#f4793b"/></radialGradient><linearGradient id="c" x1="11.424" x2="39.916" y1="37.792" y2="13.745" gradientUnits="userSpaceOnUse"><stop offset="0" stop-color="#ee3d85"/><stop offset="1" stop-color="#f05872"/></linearGradient></defs><path fill="url(#a)" d="M118.696 72.624a4.671 4.671 0 0 0-4.747-8.026l-86.247 47.29a10.198 10.198 0 1 0 11.161 17.039Z" opacity=".997"/><path fill="url(#b)" d="M18.272 29.016A11.24 11.24 0 1 0 6.776 48.101L52.98 67.184a4.326 4.326 0 0 0 4.6-7.212Z"/><path fill="url(#c)" d="M52.202.405a8.87 8.87 0 0 0-7.407.983L4.7 28.6a11.241 11.241 0 1 0 13.904 17.64l36.552-30.444A8.888 8.888 0 0 0 52.202.405" opacity=".999"/><path fill="url(#d)" d="M55.81 2.573A8.887 8.887 0 1 0 43.665 15.54l69.602 56.903a4.664 4.664 0 0 0 6.362-6.768Z" opacity=".997"/><path d="M36.905 36.212h51.253v51.253H36.905z"/><path fill="#fff" d="M41.326 77.855h19.22v3.203h-19.22z"/><g fill="#fff"><path d="M44.046 51.115a3.15 3.15 0 0 0 2.291-.847 3.1 3.1 0 0 0 .824-2.351v-5.299h-2.304v5.287a.974.974 0 0 1-.942 1.17 1.69 1.69 0 0 1-1.313-.776l-1.492 1.408a3.41 3.41 0 0 0 2.936 1.408M54.476 49.003h-4.487v-1.325h4.009v-1.826h-4.009v-1.277h4.427v-1.957h-6.719v8.354h6.779zM57.443 50.972h2.315v-6.325h2.506v-2.029h-7.316v2.029h2.495zM47.137 56.91a1.93 1.93 0 0 0 1.289-1.861v-.024a1.88 1.88 0 0 0-.537-1.36 3.13 3.13 0 0 0-2.28-.74h-4.284v8.353h4.308c1.993 0 3.162-.871 3.162-2.303v-.024a2.03 2.03 0 0 0-1.658-2.04m-3.557-2.124h1.516c.68 0 1.05.25 1.05.716v.024c0 .49-.406.728-1.11.728H43.58zm2.9 3.866c0 .49-.394.764-1.11.764h-1.79v-1.54h1.767c.775 0 1.133.3 1.133.753zM59.26 52.865l-3.12 7.409-1.306-1.908a2.65 2.65 0 0 0 1.718-2.578v-.023a2.6 2.6 0 0 0-.74-1.946 3.7 3.7 0 0 0-2.72-.895h-3.95v8.354h2.314v-2.53h1.027l1.682 2.53h3.974l.597-1.504h3.234l.597 1.504h2.482l-3.557-8.413zm-5.023 3.079a1.05 1.05 0 0 1-1.241.99h-1.54v-2.017h1.528a1.043 1.043 0 0 1 1.253 1.003zm5.18 2.028.942-2.363.93 2.363h-1.873M65.323 52.924h2.315v8.354h-2.315zM73.808 57.34l-3.437-4.416h-2.16v8.354h2.291v-4.583l3.58 4.583h2.017v-8.354h-2.291zM80.433 56.075c-1.17-.263-1.456-.43-1.456-.812v-.024c0-.31.274-.537.835-.537a4.1 4.1 0 0 1 2.34.824l1.157-1.635a5.26 5.26 0 0 0-3.437-1.11c-2.005 0-3.234 1.122-3.234 2.673v.024c0 1.707 1.372 2.208 3.15 2.614 1.146.274 1.42.453 1.42.811v.024c0 .358-.334.573-.966.573a4.33 4.33 0 0 1-2.71-1.003l-1.288 1.54a5.86 5.86 0 0 0 3.914 1.384c2.029 0 3.378-1.014 3.378-2.72v-.025c0-1.563-1.194-2.184-3.103-2.601"/></g></svg>