<svg xmlns="http://www.w3.org/2000/svg" width="16" height="16" fill="#F06292" viewBox="0 0 24 24">
  <path
      d="M7 5h14v2H7zm0 8v-2h14v2zM4 4.5A1.5 1.5 0 0 1 5.5 6 1.5 1.5 0 0 1 4 7.5 1.5 1.5 0 0 1 2.5 6 1.5 1.5 0 0 1 4 4.5m0 6A1.5 1.5 0 0 1 5.5 12 1.5 1.5 0 0 1 4 13.5 1.5 1.5 0 0 1 2.5 12 1.5 1.5 0 0 1 4 10.5M7 19v-2h14v2zm-3-2.5A1.5 1.5 0 0 1 5.5 18 1.5 1.5 0 0 1 4 19.5 1.5 1.5 0 0 1 2.5 18 1.5 1.5 0 0 1 4 16.5"/>
  <path fill="#FDD835"
        d="M14.25 19.5a1.5 1.5 0 0 1-1.5-1.5 1.5 1.5 0 0 1 1.5-1.5 1.5 1.5 0 0 1 1.5 1.5 1.5 1.5 0 0 1-1.5 1.5m4.238-3a4.49 4.49 0 0 0-4.238-3 4.5 4.5 0 0 0-4.5 4.5 4.5 4.5 0 0 0 4.5 4.5 4.49 4.49 0 0 0 4.238-3h3.262v3h3v-3h1.5v-3z"/>
</svg>