<svg xmlns="http://www.w3.org/2000/svg" width="16" height="16"  viewBox="0 0 24 24"><path fill="#4DD0E1" d="M20 12h2v2h-2c-1.38 0-2.74-.35-4-1-2.5 1.3-5.5 1.3-8 0-1.26.65-2.63 1-4 1H2v-2h2c1.39 0 2.78-.47 4-1.33 2.44 1.71 5.56 1.71 8 0 1.22.86 2.61 1.33 4 1.33m0-6h2v2h-2c-1.38 0-2.74-.35-4-1-2.5 1.3-5.5 1.3-8 0-1.26.65-2.63 1-4 1H2V6h2c1.39 0 2.78-.47 4-1.33 2.44 1.71 5.56 1.71 8 0C17.22 5.53 18.61 6 20 6m0 12h2v2h-2c-1.38 0-2.74-.35-4-1-2.5 1.3-5.5 1.3-8 0-1.26.65-2.63 1-4 1H2v-2h2c1.39 0 2.78-.47 4-1.33 2.44 1.71 5.56 1.71 8 0 1.22.86 2.61 1.33 4 1.33"/><path fill="#FDD835" d="M14.25 19.5a1.5 1.5 0 0 1-1.5-1.5 1.5 1.5 0 0 1 1.5-1.5 1.5 1.5 0 0 1 1.5 1.5 1.5 1.5 0 0 1-1.5 1.5m4.238-3a4.49 4.49 0 0 0-4.238-3 4.5 4.5 0 0 0-4.5 4.5 4.5 4.5 0 0 0 4.5 4.5 4.49 4.49 0 0 0 4.238-3h3.262v3h3v-3h1.5v-3z"/></svg>