<svg xmlns="http://www.w3.org/2000/svg" width="16" height="16" fill="#AB7967" data-big="true" viewBox="0 0 24 24"><path d="M6 11a2 2 0 0 1 2 2v4H4a2 2 0 0 1-2-2v-2a2 2 0 0 1 2-2zm-2 2v2h2v-2zm16 0v2h2v2h-2a2 2 0 0 1-2-2v-2a2 2 0 0 1 2-2h2v2zm-8-6v4h2a2 2 0 0 1 2 2v2a2 2 0 0 1-2 2h-2a2 2 0 0 1-2-2V7zm0 8h2v-2h-2z"/><path fill="#FDD835" d="M14.25 19.5a1.5 1.5 0 0 1-1.5-1.5 1.5 1.5 0 0 1 1.5-1.5 1.5 1.5 0 0 1 1.5 1.5 1.5 1.5 0 0 1-1.5 1.5m4.238-3a4.49 4.49 0 0 0-4.238-3 4.5 4.5 0 0 0-4.5 4.5 4.5 4.5 0 0 0 4.5 4.5 4.49 4.49 0 0 0 4.238-3h3.262v3h3v-3h1.5v-3z"/></svg>