<!--
  - The MIT License (MIT)
  -
  - Copyright (c) 2015-2021 Elior "Mallowigi" Boukhobza
  -
  - Permission is hereby granted, free of charge, to any person obtaining a copy
  - of this software and associated documentation files (the "Software"), to deal
  - in the Software without restriction, including without limitation the rights
  - to use, copy, modify, merge, publish, distribute, sublicense, and/or sell
  - copies of the Software, and to permit persons to whom the Software is
  - furnished to do so, subject to the following conditions:
  -
  - The above copyright notice and this permission notice shall be included in all
  - copies or substantial portions of the Software.
  -
  - THE SOFTWARE IS PROVIDED "AS IS", WITHOUT WARRANTY OF ANY KIND, EXPRESS OR
  - IMPLIED, INCLUDING BUT NOT LIMITED TO THE WARRANTIES OF MERCHANTABILITY,
  - FITNESS FOR A PARTICULAR PURPOSE AND NONINFRINGEMENT. IN NO EVENT SHALL THE
  - AUTHORS OR COPYRIGHT HOLDERS BE LIABLE FOR ANY CLAIM, DAMAGES OR OTHER
  - LIABILITY, WHETHER IN AN ACTION OF CONTRACT, TORT OR OTHERWISE, ARISING FROM,
  - OUT OF OR IN CONNECTION WITH THE SOFTWARE OR THE USE OR OTHER DEALINGS IN THE
  - SOFTWARE.
  -
  -
  -->

<svg xmlns="http://www.w3.org/2000/svg" width="16px" height="16px" viewBox="0 -1 16 16">
  <path id="file_type_todo.svg" class="i-color" fill="#6AAB20"
        d="M16,7.766l-6,6.207-3-3.1L8.5,9.318,10,10.87l4.5-4.655ZM5.7,11.594l0.8,0.828H2a1.021,1.021,0,0,1-1-1.034V2.077A1.021,1.021,0,0,1,2,1.042H9a1.021,1.021,0,0,1,1,1.034V8.8L9.2,7.973a0.984,0.984,0,0,0-1.42,0L5.7,10.146a1.056,1.056,0,0,0,0,1.457V11.594ZM4,3.111H9V2.077H4V3.111ZM4,5.18H9V4.146H4V5.18ZM4,7.249H7V6.215H4V7.249ZM3,8.284H2V9.318H3V8.284ZM3,6.215H2V7.249H3V6.215ZM3,4.146H2V5.18H3V4.146ZM3,2.077H2V3.111H3V2.077Z"
        transform="translate(0 0)" />
</svg>
