<svg xmlns="http://www.w3.org/2000/svg" width="16" height="16"  viewBox="0 0 512 512"><path fill="#81D4FA" d="M7.416 297.89c-9.888-5.7-9.888-20.03 0-25.73s22.316 1.463 22.316 12.865S17.304 303.59 7.416 297.89m84.676-60.372c0-10.767-11.736-17.532-21.073-12.149s-9.338 18.915 0 24.298 21.073-1.382 21.073-12.149m60.98-35.38c0-10.133-11.043-16.5-19.83-11.433-8.788 5.065-8.788 17.799 0 22.865s19.83-1.301 19.83-11.433m11.794 37.487c0-10.45-11.39-17.016-20.452-11.791s-9.062 18.357 0 23.581 20.452-1.341 20.452-11.79m10.997 38.296c0-10.555-11.505-17.188-20.659-11.91s-9.154 18.543 0 23.82 20.66-1.355 20.66-11.91m10.484 39.218c0-10.45-11.39-17.015-20.452-11.79-9.063 5.224-9.063 18.356 0 23.58 9.062 5.225 20.452-1.34 20.452-11.79m43.142-24.459c0-10.132-11.043-16.498-19.83-11.432-8.788 5.065-8.788 17.799 0 22.865s19.83-1.3 19.83-11.433m-5.022-39.8c0-10.133-11.043-16.5-19.83-11.433-8.788 5.065-8.788 17.799 0 22.865s19.83-1.301 19.83-11.433m-5.191-39.05c0-9.92-10.813-16.154-19.417-11.193-8.604 4.96-8.604 17.427 0 22.387s19.417-1.273 19.417-11.194m-5.634-38.465c0-9.495-10.349-15.461-18.583-10.714-8.235 4.747-8.235 16.68 0 21.428 8.234 4.747 18.583-1.22 18.583-10.714m59.79-19.844c0-8.86-9.657-14.428-17.342-9.998s-7.684 15.565 0 19.995 17.342-1.137 17.342-9.997m55.858 24.201c0-8.86-9.657-14.427-17.341-9.997s-7.684 15.565 0 19.995 17.341-1.138 17.341-9.998m-3.865 38.585c0-9.285-10.122-15.12-18.175-10.478-8.053 4.643-8.053 16.313 0 20.956s18.175-1.192 18.175-10.478m-4.117 39.224c0-9.494-10.349-15.46-18.583-10.713-8.235 4.747-8.235 16.68 0 21.427s18.583-1.219 18.583-10.714m-4.244 39.996c0-9.495-10.35-15.461-18.584-10.714s-8.235 16.68 0 21.428c8.235 4.747 18.584-1.22 18.584-10.714m44.284-12.245c0-9.283-10.119-15.117-18.17-10.475-8.05 4.641-8.05 16.308 0 20.95s18.17-1.192 18.17-10.475m-8.42 39.976c0-9.177-10.004-14.944-17.963-10.355-7.96 4.588-7.96 16.122 0 20.711s17.962-1.178 17.962-10.356m16.492-78.93c0-9.18-10.006-14.949-17.967-10.36s-7.961 16.128 0 20.717c7.961 4.59 17.967-1.178 17.967-10.358M377.173 208c0-8.86-9.657-14.428-17.341-9.998s-7.685 15.565 0 19.995 17.34-1.138 17.34-9.997m30.14 69.2c0-9.072-9.889-14.772-17.756-10.236s-7.868 15.936 0 20.472c7.867 4.536 17.755-1.165 17.755-10.236m-11.782 38.61c0-9.072-9.888-14.772-17.755-10.236-7.868 4.535-7.868 15.936 0 20.472 7.867 4.536 17.755-1.165 17.755-10.236m23.086-76.417c0-8.86-9.658-14.428-17.342-9.998s-7.684 15.565 0 19.995 17.342-1.137 17.342-9.997m35.838 33.732c0-8.86-9.657-14.428-17.341-9.998s-7.684 15.565 0 19.995 17.341-1.138 17.341-9.997m-14.759 37.086c0-8.966-9.773-14.6-17.548-10.117-7.776 4.483-7.776 15.75 0 20.234 7.775 4.483 17.548-1.151 17.548-10.117m27.681 34.816c0-8.86-9.657-14.427-17.341-9.997s-7.684 15.565 0 19.995 17.341-1.138 17.341-9.998m18.045-36.202c0-8.86-9.657-14.427-17.341-9.997s-7.684 15.565 0 19.995 17.341-1.138 17.341-9.998M512 346.357c0-8.86-9.657-14.428-17.341-9.998s-7.684 15.565 0 19.995S512 355.216 512 346.357M274.125 194.105c0-9.39-10.237-15.292-18.382-10.597s-8.145 16.499 0 21.195c8.145 4.695 18.382-1.206 18.382-10.598m.329 39.08c0-9.706-10.58-15.805-18.998-10.952s-8.418 17.052 0 21.905 18.998-1.246 18.998-10.952m.229 39.764c0-9.814-10.698-15.982-19.21-11.075s-8.512 17.242 0 22.15 19.21-1.26 19.21-11.075m-.15 40.666c0-9.704-10.578-15.801-18.994-10.95s-8.416 17.048 0 21.9 18.993-1.246 18.993-10.95m-.465 42.171c0-9.39-10.236-15.292-18.381-10.597s-8.145 16.499 0 21.194 18.381-1.205 18.381-10.597m38.243-17.072c0-9.284-10.118-15.117-18.17-10.475-8.05 4.641-8.05 16.308 0 20.95 8.052 4.641 18.17-1.192 18.17-10.475m-78.075-5.085c0-9.92-10.813-16.154-19.417-11.194s-8.604 17.428 0 22.388 19.417-1.274 19.417-11.194m-123.473-60.85c0-10.977-11.966-17.876-21.487-12.387s-9.521 19.286 0 24.775 21.487-1.41 21.487-12.387m17.763 36.19c0-10.978-11.966-17.876-21.487-12.387s-9.522 19.286 0 24.775 21.487-1.41 21.487-12.388m-71.194 6.408c0-11.507-12.543-18.738-22.523-12.984s-9.98 20.215 0 25.969c9.98 5.753 22.523-1.478 22.523-12.985"/></svg>