<!--
  - The MIT License (MIT)
  -
  - Copyright (c) 2015-2021 Elior "Mallowigi" Boukhobza
  -
  - Permission is hereby granted, free of charge, to any person obtaining a copy
  - of this software and associated documentation files (the "Software"), to deal
  - in the Software without restriction, including without limitation the rights
  - to use, copy, modify, merge, publish, distribute, sublicense, and/or sell
  - copies of the Software, and to permit persons to whom the Software is
  - furnished to do so, subject to the following conditions:
  -
  - The above copyright notice and this permission notice shall be included in all
  - copies or substantial portions of the Software.
  -
  - THE SOFTWARE IS PROVIDED "AS IS", WITHOUT WARRANTY OF ANY KIND, EXPRESS OR
  - IMPLIED, INCLUDING BUT NOT LIMITED TO THE WARRANTIES OF MERCHANTABILITY,
  - FITNESS FOR A PARTICULAR PURPOSE AND NONINFRINGEMENT. IN NO EVENT SHALL THE
  - AUTHORS OR COPYRIGHT HOLDERS BE LIABLE FOR ANY CLAIM, DAMAGES OR OTHER
  - LIABILITY, WHETHER IN AN ACTION OF CONTRACT, TORT OR OTHERWISE, ARISING FROM,
  - OUT OF OR IN CONNECTION WITH THE SOFTWARE OR THE USE OR OTHER DEALINGS IN THE
  - SOFTWARE.
  -
  -
  -->


<svg xmlns="http://www.w3.org/2000/svg" fill="#EF5350" version="1.1" width="16px" height="16px" viewBox="0 0 24 24">
  <path
    d="M22,2C22,2 14.36,1.63 8.34,9.88C3.72,16.21 2,22 2,22L3.94,21C5.38,18.5 6.13,17.47 7.54,16C10.07,16.74 12.71,16.65 15,14C13,13.44 11.4,13.57 9.04,13.81C11.69,12 13.5,11.6 16,12L17,10C15.2,9.66 14,9.63 12.22,10.04C14.19,8.65 15.56,7.87 18,8L19.21,6.07C17.65,5.96 16.71,6.13 14.92,6.57C16.53,5.11 18,4.45 20.14,4.32C20.14,4.32 21.19,2.43 22,2Z" />
</svg>
