<svg xmlns="http://www.w3.org/2000/svg" width="16" height="16" ><path fill="#26A2C1" d="m3.99 5.292.068-.027ZM.7 11h.867a2.156 2.156 0 0 0 2.184-1.584c.233-.7.424-1.289.592-1.784l.006-.018a13 13 0 0 1 1.2-1.368h.008c.577 1.658.8 4.617 2.486 4.617q.103.001.208-.005c-.069.007-.135.015-.2.015h1.335a1.4 1.4 0 0 1-.271-.03 1 1 0 0 1-.16-.043 1 1 0 0 0 .16.039 1.4 1.4 0 0 0 .271.024 2.2 2.2 0 0 0 .637-.073 2.2 2.2 0 0 1-.637.082h1.839a.6.6 0 0 1-.179-.028.6.6 0 0 0 .176.019c1.3 0 2.613-2.2 4.783-5.847h-.849v.023H15c-.8 1.336-1.36 2.478-1.834 3.39.473-.913 1.034-2.054 1.834-3.39h-1.3c-.043 0-.085-.006-.127 0A2.125 2.125 0 0 0 11.428 6.6c-.517 1.551-.828 2.559-1.128 3.2a6 6 0 0 1-.423.349q-.11.082-.221.156a2 2 0 0 0 .192.195 1.5 1.5 0 0 0 .326.229 1.5 1.5 0 0 1-.334-.229 2 2 0 0 1-.192-.195q.11-.073.221-.156c-.406-.845-.641-2.28-1.078-3.4.437 1.117.673 2.553 1.078 3.4q.211-.158.423-.349C9.706 8.151 9.5 5.15 7.8 5.15a2 2 0 0 0-.361.031 2 2 0 0 1 .361-.032l-.669-.008c.106 0 .206.028.3.028-.1 0-.2-.028-.3-.028h-.028.028H4.4C2.935 5.134.916 7.71.007 11zm12.809-5.851a1.94 1.94 0 0 0-1 .65 1.94 1.94 0 0 1 1-.65m-2.053 5.533-.012.006-.018.009.032-.015Zm-.178.074h.009zl-.018.006Zm-.156.051.029-.008h.015l.016-.006.017-.005.014-.005.035-.011-.034.011H11.2l-.017.005-.017.006h-.015l-.029.008ZM4.058 5.269a.3.3 0 0 0-.085.03l.017-.006-.068.029-.036.017Zm.263-.088-.01.01-.071.018h-.008l-.02.006.02-.007h.008l.072-.018s.006-.009.01-.009l.02-.011c-.007 0-.014.011-.02.012Zm.031 0-.01.005.01-.007.021-.007-.02.006Zm.263-.011h-.038zm.034-.016c-.031 0-.062.006-.094.008l.013.006c-.008 0-.016-.006-.024-.006h.011-.115.1-.001.109Zm.086.036-.074-.015h-.006.006c.025 0 .05.009.074.015m.53.4a1.2 1.2 0 0 0-.253-.3 1.2 1.2 0 0 1 .25.3Zm1.478-.41a2 2 0 0 1 .292-.033 2 2 0 0 0-.292.033m.295.108a3 3 0 0 0-.462.208 3 3 0 0 1 .462-.208 3 3 0 0 1 .314-.088 3 3 0 0 0-.314.087Zm1.572 5.508q.095-.024.191-.056-.102.027-.195.052Zm1.642-.1-.011.006.012-.006Zm.339.164a1.2 1.2 0 0 1-.418-.124 1.2 1.2 0 0 0 .418.124l.068.006Zm-.011-.432a1.2 1.2 0 0 0 .285.325 1.1 1.1 0 0 1-.286-.322Zm.241.438h-.012zh.025a.1.1 0 0 1-.029-.004Zm.1-.011h-.064.063Z"/></svg>