<svg xmlns="http://www.w3.org/2000/svg" width="16" height="16" data-big="true"><path fill="#323232" d="M1 1h14v14H1z"/><path fill="#ebebeb" d="M6 10.533s4.847 2.054 5.208 2.177c.221.075.268.063.3.024a5 5 0 0 0 .589-1.381c-1.43-.781-2.674-1.915-2.674-2.97a.4.4 0 0 1 .12-.18c.375.507 2.96 2.4 3.054 1.838a4.9 4.9 0 0 0-.244-3.136c-.409-.085-2.227-.821-2.371-1.474a.64.64 0 0 1 .065-.392 10.8 10.8 0 0 0 2.967.809c.348-.011.325-.147.353-.416a6 6 0 0 0-.537-2.34 1.75 1.75 0 0 0-.574-.634c-.947-.7-4.234-1.748-6.233-.6a8 8 0 0 0 1.944.871.4.4 0 0 1-.067.171c-.917.254-3.3-.659-3.553-.533A1 1 0 0 0 3.771 3C3.51 4.166 5.522 5.008 6.522 5.62c0 .024-.017.117-.047.141a9.3 9.3 0 0 1-2.517-.386 16.7 16.7 0 0 1-2.958 1V15h1.048C3.208 13.948 6 10.533 6 10.533"/></svg>