<!--
  - The MIT License (MIT)
  -
  - Copyright (c) 2015-2022 Elior "Mallowigi" Boukhobza
  -
  - Permission is hereby granted, free of charge, to any person obtaining a copy
  - of this software and associated documentation files (the "Software"), to deal
  - in the Software without restriction, including without limitation the rights
  - to use, copy, modify, merge, publish, distribute, sublicense, and/or sell
  - copies of the Software, and to permit persons to whom the Software is
  - furnished to do so, subject to the following conditions:
  -
  - The above copyright notice and this permission notice shall be included in all
  - copies or substantial portions of the Software.
  -
  - THE SOFTWARE IS PROVIDED "AS IS", WITHOUT WARRANTY OF ANY KIND, EXPRESS OR
  - IMPLIED, INCLUDING BUT NOT LIMITED TO THE WARRANTIES OF MERCHANTABILITY,
  - FITNESS FOR A PARTICULAR PURPOSE AND NONINFRINGEMENT. IN NO EVENT SHALL THE
  - AUTHORS OR COPYRIGHT HOLDERS BE LIABLE FOR ANY CLAIM, DAMAGES OR OTHER
  - LIABILITY, WHETHER IN AN ACTION OF CONTRACT, TORT OR OTHERWISE, ARISING FROM,
  - OUT OF OR IN CONNECTION WITH THE SOFTWARE OR THE USE OR OTHER DEALINGS IN THE
  - SOFTWARE.
  -
  -
  -->

<svg big="true" xmlns="http://www.w3.org/2000/svg" width="16px" height="16px" viewBox="0 0 16 16">
    <path fill="#E84140" iconColor="C"
          d="M9.8,6.6a1.9,1.9,0,0,0-1.818-1.7C6.344,4.86,5.5,6.143,5.5,7.977s0.931,3.3,2.528,3.3S9.8,9.445,9.8,9.445l3.06,0.183a3.838,3.838,0,0,1-1.1,2.92,5.389,5.389,0,0,1-3.95,1.461,5.084,5.084,0,0,1-4.092-1.487A5.74,5.74,0,0,1,2,8.121a5.841,5.841,0,0,1,2.029-4.78A5.479,5.479,0,0,1,7.63,2,5.1,5.1,0,0,1,13,6.634L9.8,6.6h0Z"
    />
</svg>
