<svg xmlns="http://www.w3.org/2000/svg" width="16" height="16" viewBox="0 0 400 400">
  <path fill="#90A4AE" fill-rule="evenodd"
        d="M279.357 107.5c.125.825.601 4.29 1.057 7.7 1.574 11.763 2.397 17.018 3.522 22.5.62 3.025 1.095 5.5 1.055 5.5s-2.575-1.469-5.632-3.264c-3.058-1.796-8.079-4.418-11.159-5.827-3.08-1.41-6.95-3.199-8.6-3.976-4.925-2.319-8.031-3.464-8.374-3.086-.177.194-1.146 2.783-2.154 5.753a4128 4128 0 0 1-4.853 14.159c-3.503 10.164-3.236 9.041-2.151 9.041.804 0 13.358 1.983 21.732 3.433 1.98.343 5.94.976 8.8 1.407s5.351.829 5.537.884-.805.987-2.2 2.071c-5.017 3.897-24.777 23.875-24.247 24.513.263.317 1.548 1.303 2.856 2.191s2.665 1.851 3.016 2.139c.984.807 8.396 6.227 10.638 7.778 1.1.761 2.09 1.488 2.2 1.616.433.501 6.145 4.368 6.453 4.368.181 0 .66-.675 1.066-1.5.405-.825 1.912-3.57 3.348-6.1s3.152-5.59 3.814-6.8 1.848-3.37 2.635-4.8c.788-1.43 2.543-5.12 3.9-8.2 1.358-3.08 2.512-5.648 2.566-5.707.054-.058.867 1.652 1.808 3.8 3.431 7.837 14.83 29.307 15.56 29.307.268 0 3.198-2.026 4.327-2.992.262-.224 4.979-3.738 10.482-7.808 5.504-4.07 10.012-7.49 10.017-7.6.052-.955-17.986-19.689-22.609-23.483l-3.311-2.717 3.872-.281c7.918-.575 11.85-1.16 22.33-3.326 5.908-1.221 10.963-2.296 11.232-2.39.351-.122.049-1.457-1.059-4.687-.852-2.484-2.943-8.836-4.646-14.116s-3.258-9.807-3.457-10.06c-.367-.47-17.028 7.207-25.728 11.855-4.963 2.652-8.368 4.343-8.502 4.224-.057-.05.339-2.054.879-4.455 1.28-5.689 1.571-7.599 3.005-19.764.661-5.61 1.285-10.785 1.385-11.5l.183-1.3h-30.82zM142.4 128.6v19h56.4v-38h-56.4zm0 109.2v73h56.4v-146h-56.4zm-95.6 45v28h60v-56h-60z"/>
</svg>