<svg xmlns="http://www.w3.org/2000/svg" width="16" height="16" fill="none">
  <path fill="#00A3FF"
        d="M13.122 11.167c-.226.222-.676.555-1.464.555h-4.84c1.463-1.388 2.702-2.555 2.814-2.666s.394-.39.675-.611c.563-.5 1.014-.556 1.408-.556.562 0 1.012.222 1.406.555.789.723.789 2 0 2.722m.956-3.611a3.15 3.15 0 0 0-2.307-1c-.788 0-1.464.278-2.083.722-.225.222-.562.444-.844.778-.225.222-5.065 4.889-5.065 4.889.281.055.62.055.9.055h6.135c.45 0 .788 0 1.125-.056a3.48 3.48 0 0 0 2.083-.889 3.14 3.14 0 0 0 .056-4.5"/>
  <path fill="#00A3FF"
        d="M6.199 7.222c-.62-.444-1.238-.666-1.97-.666a3.17 3.17 0 0 0-2.307 1A3.21 3.21 0 0 0 1 9.845c.01.854.362 1.668.978 2.266.563.5 1.125.778 1.801.833l1.294-1.222h-.731c-.732-.055-1.182-.277-1.464-.555a1.983 1.983 0 0 1-.056-2.778c.394-.389.844-.555 1.407-.555.338 0 .844.055 1.35.555.226.222.845.667 1.07.889h.056l.845-.833v-.056C7.156 8 6.537 7.5 6.199 7.222"/>
  <path fill="#00A3FF"
        d="M12.108 5.834a4.36 4.36 0 0 0-1.607-2.054A4.4 4.4 0 0 0 8 3C5.805 3 4.06 4.611 3.723 6.611c.169 0 .338-.055.563-.055s.506.055.732.055C5.298 5.222 6.538 4.222 8 4.222c1.238 0 2.308.723 2.814 1.778 0 0 .056.056.056 0 .394-.056.845-.167 1.238-.167q0 .082 0 0"/>
</svg>