<svg xmlns="http://www.w3.org/2000/svg" width="13" height="13" fill="none"><path fill="#FF8A65" fill-rule="evenodd" d="M12 6.25c0 2.347-1.894 4.25-4.23 4.25a4.2 4.2 0 0 1-1.725-.368l.032-.024c.293-.251.879-.975.879-1.864.173 0 .48.01.731.02a.198.198 0 0 0 .19-.274l-.925-2.222a.195.195 0 0 0-.332-.048L4.985 7.747a.196.196 0 0 0 .143.32l.981.046c-.075.506-.386 1.376-1.082 1.896-.409.27-.898.426-1.423.426A2.61 2.61 0 0 1 1 7.819a2.61 2.61 0 0 1 2.667-2.614A4.236 4.236 0 0 1 7.77 2C10.106 2 12 3.903 12 6.25" clip-rule="evenodd"/></svg>