<svg xmlns="http://www.w3.org/2000/svg" width="13" height="13" viewBox="0 0 16 16"><path fill="#f9bd3a" fill-rule="evenodd" d="M11.478 3.019c-1.393-.006-2.939.43-3.771.943-.311.192-.63.407-.95.634 0 0-2.889 2.224-3.786 3.343q-.181.226-.325.482l-.02.037-.026.05-.006.012a3.4 3.4 0 0 0-.303.92l-.001.009-.005.033c-.048.368-.028.76.122 1.092.183.405.488.706.929.955.426.239 1.204.442 1.204.442l-.012.006c.648.115 1.32.076 1.977.012q.483-.045.966-.107h.012c-.021-.108-.055-.315-.014-.326.442-.117.704-.188 1.048-.307.329-.115.57-.219.835-.366.067-.036.12-.098.19-.128.22-.094.465-.117.702-.153q.285-.045.573-.052c.124-.002.25-.005.372.019a.8.8 0 0 1 .27.093.45.45 0 0 1 .14.13q.029.061.05.125c.697-.261 1.405-.576 1.943-1.087.796-.755 1.428-1.743 1.74-2.794.17-.572.2-1.214.039-1.788-.1-.354-.254-.583-.597-.93-.702-.713-1.725-1.153-2.718-1.267a5 5 0 0 0-.578-.032M6.756 4.596q-.214.152-.427.31zm3.007.672c.451-.001.701.068.701.068s-.743.07-1.155.143c-.327.058-.854.16-1.263.298-.8.271-1.56.65-2.31 1.035-.578.296-1.13.638-1.683.978-.378.233-1.115.726-1.115.726s.628-.811 2.298-1.749c.478-.268.965-.52 1.465-.743.39-.175.786-.341 1.196-.466a7.3 7.3 0 0 1 1.66-.284q.108-.006.206-.006m-5.729.774c-.148.001-.274.175-.352.306-.1.167-.144.455-.165.685.32-.274.64-.529.862-.701-.086-.144-.193-.269-.315-.287zm6.457.733s-1.394.53-2.087.806q-1.197.476-2.383.983a70 70 0 0 0-1.648.731c-.502.23-1.498.71-1.498.71s.848-.695 2.421-1.383c.918-.4 1.537-.752 2.525-1.075.461-.15.916-.32 1.383-.454a33 33 0 0 1 1.287-.318m.484 1.415s-.196.233-.633.522c-.218.145-.41.296-.624.429a10 10 0 0 1-.857.475c-.363.177-.741.326-1.117.474-.37.146-.74.288-1.118.41-.466.15-.937.287-1.415.391-.347.076-1.052.167-1.052.167s.87-.294 1.303-.447a56.027 56.027 0 0 0 2.635-.985c.344-.139.69-.273 1.025-.43.256-.12.505-.256.755-.39.37-.2 1.098-.616 1.098-.616m1.013.914s-.012.145-.38.52c-.148.153-.41.349-.576.451-.645.398-.988.5-.988.5s.636-.417.945-.64q.273-.196.532-.412c.16-.133.467-.419.467-.419m-9.893 1.377c-.217.098-.478.218-.649.31-.317.17-.941.467-.92.564.031.147.738-.138 1.106-.211q.35-.07.7-.146a3 3 0 0 1-.237-.517m8.637.236c-.094 0-.194.006-.316.02-.373.041-.474.075-.772.172-.106.034-.17.09-.253.136-.15.082-.29.181-.447.25-.224.1-.463.165-.698.236-.194.059-.22.07-.586.158-.064.015-.004.119.053.198.868.018 3.493.06 3.528-.087l.194-.804.051-.018a.3.3 0 0 0-.027-.074.34.34 0 0 0-.135-.13c-.094-.047-.206-.04-.311-.046a4 4 0 0 0-.281-.01m.474.217c.104.002.189.018.188.07 0 .11-.24.105-.349.115-.706.07-.953.058-1.43.06-.092 0-.274-.009-.274-.009s.458-.109.865-.158c.237-.028.468-.058.695-.065.078-.003.201-.015.305-.013m-.54.442q.128-.003.253.013c.067.01.141.013.193.055.023.02.05.06.04.08-.019.04-.09.041-.24.052-.182.012-.358.027-.538.032-.444.013-1.333-.002-1.333-.002s.277-.074.418-.1q.473-.085.952-.117.127-.008.255-.013"/></svg>