<!--
  - The MIT License (MIT)
  -
  - Copyright (c) 2015-2021 Elior "Mallowigi" Boukhobza
  -
  - Permission is hereby granted, free of charge, to any person obtaining a copy
  - of this software and associated documentation files (the "Software"), to deal
  - in the Software without restriction, including without limitation the rights
  - to use, copy, modify, merge, publish, distribute, sublicense, and/or sell
  - copies of the Software, and to permit persons to whom the Software is
  - furnished to do so, subject to the following conditions:
  -
  - The above copyright notice and this permission notice shall be included in all
  - copies or substantial portions of the Software.
  -
  - THE SOFTWARE IS PROVIDED "AS IS", WITHOUT WARRANTY OF ANY KIND, EXPRESS OR
  - IMPLIED, INCLUDING BUT NOT LIMITED TO THE WARRANTIES OF MERCHANTABILITY,
  - FITNESS FOR A PARTICULAR PURPOSE AND NONINFRINGEMENT. IN NO EVENT SHALL THE
  - AUTHORS OR COPYRIGHT HOLDERS BE LIABLE FOR ANY CLAIM, DAMAGES OR OTHER
  - LIABILITY, WHETHER IN AN ACTION OF CONTRACT, TORT OR OTHERWISE, ARISING FROM,
  - OUT OF OR IN CONNECTION WITH THE SOFTWARE OR THE USE OR OTHER DEALINGS IN THE
  - SOFTWARE.
  -
  -
  -->


<svg big="true" xmlns="http://www.w3.org/2000/svg" version="1.1" width="16px" height="16px" viewBox="0 0 24 24">
  <path fill="#E57373"
        d="M7,3A4,4 0 0,1 11,7C11,8.86 9.73,10.43 8,10.87V13.13C8.37,13.22 8.72,13.37 9.04,13.56L13.56,9.04C13.2,8.44 13,7.75 13,7A4,4 0 0,1 17,3A4,4 0 0,1 21,7A4,4 0 0,1 17,11C16.26,11 15.57,10.8 15,10.45L10.45,15C10.8,15.57 11,16.26 11,17A4,4 0 0,1 7,21A4,4 0 0,1 3,17C3,15.14 4.27,13.57 6,13.13V10.87C4.27,10.43 3,8.86 3,7A4,4 0 0,1 7,3M17,13A4,4 0 0,1 21,17A4,4 0 0,1 17,21A4,4 0 0,1 13,17A4,4 0 0,1 17,13M17,15A2,2 0 0,0 15,17A2,2 0 0,0 17,19A2,2 0 0,0 19,17A2,2 0 0,0 17,15Z" />
</svg>
