<svg xmlns="http://www.w3.org/2000/svg" width="16" height="16" fill="#91B859" data-big="true" viewBox="0 0 24 24"><path d="M6 9V4h7v5h10v7h-5v5h-7v-5H1V9zm10 7h-3v3h3zM8 9h3V6H8zm-2 5v-3H3v3zm12-3v3h3v-3zm-5 0v3h3v-3zm-5 0v3h3v-3z"/><path fill="#D81B60" d="M22.25 17.5h-.75v-2a1 1 0 0 0-1-1h-2v-.75a1.25 1.25 0 0 0-1.25-1.25A1.25 1.25 0 0 0 16 13.75v.75h-2a1 1 0 0 0-1 1v1.9h.75c.75 0 1.35.6 1.35 1.35s-.6 1.35-1.35 1.35H13V22a1 1 0 0 0 1 1h1.9v-.75c0-.75.6-1.35 1.35-1.35s1.35.6 1.35 1.35V23h1.9a1 1 0 0 0 1-1v-2h.75a1.25 1.25 0 0 0 1.25-1.25 1.25 1.25 0 0 0-1.25-1.25"/></svg>