<svg clip-rule="evenodd" fill-rule="evenodd" stroke-linejoin="round"
     stroke-miterlimit="1.4142" version="1.1" viewBox="0 0 24 24" width="16px" height="16px"
     xml:space="preserve" xmlns="http://www.w3.org/2000/svg">
    <path fill="#ef5350"
          d="M20,18H4V8H20M20,6H12L10,4H4C2.89,4 2,4.89 2,6V18A2,2 0 0,0 4,20H20A2,2 0 0,0 22,18V8C22,6.89 21.1,6 20,6Z"/>
    <path fill="#ffcdd2" transform="scale(0.02) translate(680 512)"
          d="M242.2801361,99.7152863L367.7326355,396.881134L178.7697449,254.1788025L242.2801361,99.7152863z M464.9584351,465.8799133L272.0751038,19.7394505c-10.9573669-26.1266441-49.0272217-26.5111885-60.3739777,0L0,508.2203369h72.1351776l83.896347-201.5082092l250.1209106,194.4512939C434.5034485,527.9057007,480.6419373,500.9562683,464.9584351,465.8799133z"/>
</svg>
