<svg clip-rule="evenodd" fill-rule="evenodd" stroke-linejoin="round"
     stroke-miterlimit="1.4142" version="1.1" width="16px" height="16px"
     viewBox="0 0 24 24" xml:space="preserve" xmlns="http://www.w3.org/2000/svg">

    <path fill="#b3e5fc"
          d="M20,18H4V8H20M20,6H12L10,4H4C2.89,4 2,4.89 2,6V18A2,2 0 0,0 4,20H20A2,2 0 0,0 22,18V8C22,6.89 21.1,6 20,6Z"/>
    <path d="M23.6 11.2v7.792l-3.2 2.624-4.96-1.808V21.6L12.632 17.928l8.184.64V11.552Zm-2.728.392L16.28 8.8V10.632L12.064 11.872 10.8 13.496v3.688l1.808.8V13.256Z"
          fill="#0077db" stroke="#98c6ff" stroke-width=".20"/>
</svg>
