<?xml version="1.0" encoding="utf-8"?>
<!-- Generator: Adobe Illustrator 23.0.4, SVG Export Plug-In . SVG Version: 6.00 Build 0)  -->
<svg version="1.1" id="Camada_1" xmlns="http://www.w3.org/2000/svg" x="0px" y="0px"
     viewBox="0 0 24 24" width="16px" height="16px" xml:space="preserve">
    <path fill="#66BB6A"
          d="M20,18H4V8H20M20,6H12L10,4H4C2.89,4 2,4.89 2,6V18A2,2 0 0,0 4,20H20A2,2 0 0,0 22,18V8C22,6.89 21.1,6 20,6Z"/>

    <g>
	<path fill="#C8E6C9" class="st1" d="M22,20.5v0.6H10.5v-0.6l1.3-1.3v-3.8c0-2,1.3-3.7,3.2-4.3c0-0.1,0-0.1,0-0.2c0-0.7,0.6-1.3,1.3-1.3
		s1.3,0.6,1.3,1.3c0,0.1,0,0.1,0,0.2c1.9,0.6,3.2,2.3,3.2,4.3v3.8L22,20.5 M17.5,21.8c0,0.7-0.6,1.3-1.3,1.3s-1.3-0.6-1.3-1.3"/>
</g>
</svg>