<!--
  - The MIT License (MIT)
  -
  - Copyright (c) 2015-2024 Elior "Mallowigi" Boukhobza
  -
  - Permission is hereby granted, free of charge, to any person obtaining a copy
  - of this software and associated documentation files (the "Software"), to deal
  - in the Software without restriction, including without limitation the rights
  - to use, copy, modify, merge, publish, distribute, sublicense, and/or sell
  - copies of the Software, and to permit persons to whom the Software is
  - furnished to do so, subject to the following conditions:
  -
  - The above copyright notice and this permission notice shall be included in all
  - copies or substantial portions of the Software.
  -
  - THE SOFTWARE IS PROVIDED "AS IS", WITHOUT WARRANTY OF ANY KIND, EXPRESS OR
  - IMPLIED, INCLUDING BUT NOT LIMITED TO THE WARRANTIES OF MERCHANTABILITY,
  - FITNESS FOR A PARTICULAR PURPOSE AND NONINFRINGEMENT. IN NO EVENT SHALL THE
  - AUTHORS OR COPYRIGHT HOLDERS BE LIABLE FOR ANY CLAIM, DAMAGES OR OTHER
  - LIABILITY, WHETHER IN AN ACTION OF CONTRACT, TORT OR OTHERWISE, ARISING FROM,
  - OUT OF OR IN CONNECTION WITH THE SOFTWARE OR THE USE OR OTHER DEALINGS IN THE
  - SOFTWARE.
  -->


<svg data-big="true" xmlns="http://www.w3.org/2000/svg" version="1.1" width="16px" height="16px" fill="#29B6F6"
     viewBox="0 0 24 24">
  <path
    d="M12,2A10,10 0 0,1 22,12A10,10 0 0,1 12,22A10,10 0 0,1 2,12A10,10 0 0,1 12,2M12,4A8,8 0 0,0 4,12C4,14.09 4.8,16 6.11,17.41L9.88,9.88L17.41,6.11C16,4.8 14.09,4 12,4M12,20A8,8 0 0,0 20,12C20,9.91 19.2,8 17.89,6.59L14.12,14.12L6.59,17.89C8,19.2 9.91,20 12,20M12,12L11.23,11.23L9.7,14.3L12.77,12.77L12,12M12,17.5H13V19H12V17.5M15.88,15.89L16.59,15.18L17.65,16.24L16.94,16.95L15.88,15.89M17.5,12V11H19V12H17.5M12,6.5H11V5H12V6.5M8.12,8.11L7.41,8.82L6.35,7.76L7.06,7.05L8.12,8.11M6.5,12V13H5V12H6.5Z"/>
</svg>
