<svg xmlns="http://www.w3.org/2000/svg" width="16" height="16" fill="#89DDFF" data-big="true" viewBox="0 0 24 24"><path d="M13 12h7v1.5h-7m0-4h7V11h-7m0 3.5h7V16h-7m8-12H3a2 2 0 0 0-2 2v13a2 2 0 0 0 2 2h18a2 2 0 0 0 2-2V6a2 2 0 0 0-2-2m0 15h-9V6h9"/><path fill="#FDD835" d="M14.25 19.5a1.5 1.5 0 0 1-1.5-1.5 1.5 1.5 0 0 1 1.5-1.5 1.5 1.5 0 0 1 1.5 1.5 1.5 1.5 0 0 1-1.5 1.5m4.238-3a4.49 4.49 0 0 0-4.238-3 4.5 4.5 0 0 0-4.5 4.5 4.5 4.5 0 0 0 4.5 4.5 4.49 4.49 0 0 0 4.238-3h3.262v3h3v-3h1.5v-3z"/></svg>