<svg xmlns="http://www.w3.org/2000/svg" width="16" height="16"  viewBox="0 0 24 24"><path fill="#80CBC4" d="M4.125 5.25A1.125 1.125 0 0 1 3 4.125 1.125 1.125 0 0 1 4.125 3 1.125 1.125 0 0 1 5.25 4.125 1.125 1.125 0 0 1 4.125 5.25m11.933 3.435-6.75-6.75A1.5 1.5 0 0 0 8.25 1.5H3c-.832 0-1.5.668-1.5 1.5v5.25c0 .413.165.788.442 1.058l6.743 6.75c.277.27.652.442 1.065.442s.788-.172 1.058-.442l5.25-5.25c.277-.27.442-.645.442-1.058 0-.42-.172-.795-.442-1.065"/><path fill="#FDD835" d="M11.25 16.5a1.5 1.5 0 0 1-1.5-1.5 1.5 1.5 0 0 1 1.5-1.5 1.5 1.5 0 0 1 1.5 1.5 1.5 1.5 0 0 1-1.5 1.5m4.238-3a4.49 4.49 0 0 0-4.238-3 4.5 4.5 0 0 0-4.5 4.5 4.5 4.5 0 0 0 4.5 4.5 4.49 4.49 0 0 0 4.238-3h3.262v3h3v-3h1.5v-3z"/></svg>