<svg xmlns="http://www.w3.org/2000/svg" width="16" height="16" fill="#82AAFF" data-big="true" viewBox="0 0 24 24"><path d="M1.5 3H3v18H1.5zM3 3h3v1.5H3zM3 19.5h3V21H3zM21 3h1.5v18H21z"/><path d="M18 3h4.5v1.5H18zM18 19.5h3V21h-3zM14.25 5.25 9 8.28v5.94l5.25 3.03 5.25-3.03V8.28m-5.25-1.297 2.85 1.642-2.85 1.643-2.842-1.643M2.25 7.5V9H7.5V7.5m3 2.332 3 1.733v3.518l-3-1.726M18 9.834v3.524l-3 1.726v-3.518M3.75 10.5V12H7.5v-1.5m-2.25 3V15H7.5v-1.5"/><path d="M19.65 13.95a.6.6 0 0 1-.318.528l-4.74 2.664a.57.57 0 0 1-.342.108.57.57 0 0 1-.342-.108l-4.74-2.664a.6.6 0 0 1-.318-.528v-5.4c0-.228.126-.426.318-.528l4.74-2.664a.57.57 0 0 1 .342-.108c.126 0 .246.036.342.108l4.74 2.664c.192.102.318.3.318.528zm-5.4-7.41-3.576 2.01 3.576 2.01 3.576-2.01z"/></svg>