<svg width="16" height="16" viewBox="0 0 16 16" fill="none" xmlns="http://www.w3.org/2000/svg">
    <g transform="scale(0.9) translate(1 1)">
        <path d="M10.0278 13C10.1527 13.1806 10.2291 13.1667 10.3263 13.125C10.4235 13.0833 15.4236 11.3958 15.5763 11.3403C15.7291 11.2848 15.6805 11.2361 15.6319 11.1597C15.5833 11.0833 13.9166 8.81947 13.8333 8.68752C13.75 8.55558 13.7083 8.58334 13.5763 8.62502L8.276 10.0042C8.276 10.0042 9.90276 12.8194 10.0278 13ZM15.9999 10.6947V8.04482C15.4036 8.20369 14.6494 8.40457 14.3516 8.48376C14.8008 9.08477 15.5031 10.0253 15.9999 10.6947ZM14.3465 5.22007C14.2648 5.23863 12.4561 5.56552 12.3446 5.58032C12.2332 5.59519 12.2704 5.65832 12.3149 5.72145L13.9066 7.9054C13.9066 7.9054 15.8528 7.42259 15.9717 7.39658C15.9813 7.39446 15.9907 7.39223 15.9999 7.38992V7.10072C15.6462 6.65217 14.6824 5.43085 14.5991 5.31671C14.4989 5.17926 14.4283 5.20156 14.3465 5.22007Z"
              fill="#F35045"/>
        <path d="M2.96589 1.78962C3.35759 1.77181 3.39334 1.86093 3.56539 2.11612L7.88854 9.34374L13.3244 8.04154C13.0232 7.6146 11.656 5.67616 11.5238 5.49116C11.3753 5.28317 11.5275 5.18659 11.769 5.14579C12.0103 5.10492 14.0902 4.7558 14.2684 4.7298C14.4468 4.70379 14.588 4.64067 14.8776 4.9898C15.0258 5.16843 15.5283 5.79416 15.9999 6.38074V3C15.9999 2.17362 15.7064 1.46699 15.1197 0.880195C14.5329 0.29344 13.8263 0 12.9999 0H2.9999C2.17352 0 1.46687 0.29344 0.880091 0.880195C0.543549 1.21688 0.30398 1.59295 0.160522 2.00838C1.14042 1.92789 2.69183 1.80214 2.96596 1.78962H2.96589Z"
              fill="#F35045"/>
        <path d="M10.5181 13.9728C10.0597 14.1116 9.85411 14.1806 9.55553 13.7639C9.33192 13.4518 8.1226 11.2737 7.52968 10.1999C6.4075 10.4938 4.35379 11.0298 3.76156 11.1721C3.18355 11.311 2.93668 10.9645 2.84175 10.7509C2.77519 10.601 1.08057 6.9474 0 4.60315V13C0 13.8265 0.29344 14.533 0.880195 15.1198C1.46699 15.7066 2.17362 16 3 16H13C13.8264 16 14.533 15.7066 15.1198 15.1198C15.7066 14.5329 16 13.8265 16 13V12.0137C14.7725 12.4627 10.8269 13.8792 10.5181 13.9728Z"
              fill="#F35045"/>
        <path d="M3.77574 10.3306C3.93826 10.2934 6.98281 9.56478 7.04783 9.55084C7.11283 9.5369 7.15458 9.49978 7.08495 9.37915C7.0153 9.25853 3.02657 2.37353 3.02657 2.37353C2.98975 2.31034 3.00024 2.28928 2.90019 2.29454C2.811 2.29928 0.554065 2.50066 0.0315466 2.54429C0.0161448 2.65476 0.0065031 2.76599 0.00274658 2.87748C0.533181 3.96342 3.57769 10.2423 3.59475 10.2934C3.61331 10.3492 3.61331 10.3677 3.77574 10.3306Z"
              fill="#F35045"/>
    </g>
</svg>
