<!--
  - The MIT License (MIT)
  -
  - Copyright (c) 2015-2024 Elior "Mallowigi" Boukhobza
  -
  - Permission is hereby granted, free of charge, to any person obtaining a copy
  - of this software and associated documentation files (the "Software"), to deal
  - in the Software without restriction, including without limitation the rights
  - to use, copy, modify, merge, publish, distribute, sublicense, and/or sell
  - copies of the Software, and to permit persons to whom the Software is
  - furnished to do so, subject to the following conditions:
  -
  - The above copyright notice and this permission notice shall be included in all
  - copies or substantial portions of the Software.
  -
  - THE SOFTWARE IS PROVIDED "AS IS", WITHOUT WARRANTY OF ANY KIND, EXPRESS OR
  - IMPLIED, INCLUDING BUT NOT LIMITED TO THE WARRANTIES OF MERCHANTABILITY,
  - FITNESS FOR A PARTICULAR PURPOSE AND NONINFRINGEMENT. IN NO EVENT SHALL THE
  - AUTHORS OR COPYRIGHT HOLDERS BE LIABLE FOR ANY CLAIM, DAMAGES OR OTHER
  - LIABILITY, WHETHER IN AN ACTION OF CONTRACT, TORT OR OTHERWISE, ARISING FROM,
  - OUT OF OR IN CONNECTION WITH THE SOFTWARE OR THE USE OR OTHER DEALINGS IN THE
  - SOFTWARE.
  -->

<svg data-big="true" version="1.1" xmlns="http://www.w3.org/2000/svg" x="0px" y="0px" width="16px" viewBox="0 0 512 512"
     height="16px">
  <defs>
    <mask id="Mask">
      <rect x="0" y="0" width="512" height="512" fill="white"/>
      <circle cx="368" cy="368" r="150" fill="black"/>
    </mask>
  </defs>

  <g fill="#C792EA">
    <path mask="url(#Mask)"
          d="M169.242157,244.4075623l-84.8909149,141.594696h132.3332062c-12.8378296-60.8940125,4.1453247-106.6446838,48.1190186-111.1238708l-18.5814667-30.4708252H169.242157z M302.0054626,61.8131256h-26.0964966v125.877594l23.8834534,37.4481049h-32.0005493l-19.8681488-30.3919525V61.8131256h-81.9191895v132.9337463L33.9414711,413.7294312h182.7425385v27.6168823H27.5162563c-26.3689232,0-34.1636963-13.2047119-21.7465363-34.3366394l132.2495575-219.3189545V61.8131256h-26.0957031c-19.5195465,0-19.5195465-27.6168633,0.0004883-27.6168633h190.0809174C321.5250244,34.1962624,321.5250244,61.8131256,302.0054626,61.8131256z M295.1679382,391.7620544v29.9468689h-22.5387268c-19.0460815,0-30.1764679-13.8253479-34.8292236-33.2340393c-6.284256-26.0675354-6.0183868-41.6452637,0-66.6130676c5.2207489-21.7894592,21.8981934-33.2340393,40.9443054-33.2340393h90.1427307v-11.2724304h-65.5374756V251.572998c0-18.9131927,5.0394897-25.4251862,32.7747803-30.3196411c21.4101868-3.5843353,43.2362366-3.5457764,65.4649658,0c17.7892456,2.9608459,32.7747803,16.3027954,32.7747803,34.0678864v62.4074554c0,18.3089294-14.5504761,33.3065491-32.7747803,33.3065491l-65.4710083,0.0060425C313.8937683,351.0412903,295.1679382,370.1296997,295.1679382,391.7620544z M353.542511,249.2840118c0-11.6731415-12.5328674-19.0084686-22.5050049-13.1718903c-9.972168,5.8365631-9.972168,20.5072021,0,26.3437805C341.0096436,268.2924805,353.542511,260.9571533,353.542511,249.2840118z M450.0180359,324.184967v-29.9468994l22.5386963,0.0000305c19.0461121,0,30.1764832,13.8253479,34.8292542,33.2340088c6.2842407,26.0675659,6.0183716,41.6452637-0.0000305,66.6130676c-5.2207642,21.7894287-21.8981934,33.2340088-40.9443054,33.2340088l-90.1427612-0.0000305l-0.0000305,10.2007751h65.5375366l-0.0000305,26.8540344c0,18.9131775-5.0394897,25.4251709-32.7747803,30.3196411c-21.4102173,3.5843201-43.2362671,3.5457458-65.4649963-0.0000305c-17.7892761-2.9608459-32.7747803-16.3027954-32.7747803-34.0679016v-62.4074402c0.0000305-18.3089294,14.5504761-33.3065186,32.7748108-33.3065186l65.4710388-0.0060425C431.2921448,364.9057007,450.0180054,345.8172913,450.0180359,324.184967z M391.6433716,466.6629333c0,11.6731262,12.5328674,19.0084534,22.5050354,13.1719055c9.972168-5.8365784,9.972168-20.5072327,0-26.3437805C404.1762695,447.65448,391.6433716,454.9898071,391.6433716,466.6629333z"/>
    <path transform="scale(0.5) translate(512 512)"
          d="M170.322 349.808c-2.4-15.66-9-28.38-25.020-34.531-6.27-2.4-11.7-6.78-17.88-9.54-7.020-3.15-14.16-6.15-21.57-8.1-5.61-1.5-10.83 1.020-14.16 5.94-3.15 4.62-0.87 8.97 1.77 12.84 2.97 4.35 6.27 8.49 9.6 12.57 5.52 6.78 11.37 13.29 16.74 20.161 5.13 6.57 9.51 13.86 8.76 22.56-1.65 19.080-10.29 34.891-24.21 47.76-1.53 1.38-4.23 2.37-6.21 2.19-8.88-0.96-16.95-4.32-23.46-10.53-7.47-7.11-6.33-15.48 2.61-20.67 2.13-1.23 4.35-2.37 6.3-3.87 5.46-4.11 7.29-11.13 4.32-17.22-1.41-2.94-3-6.12-5.34-8.25-11.43-10.41-22.651-21.151-34.891-30.63-29.671-23.041-44.91-53.52-47.251-90.421-2.64-40.981 6.87-79.231 28.5-114.242 8.19-13.29 17.73-25.951 32.37-32.52 9.96-4.47 20.88-6.99 31.531-9.78 29.311-7.71 58.89-13.5 89.401-8.34 26.28 4.41 45.511 17.94 54.331 43.77 5.79 16.89 7.17 34.35 5.37 52.231-3.54 35.131-29.49 66.541-63.331 75.841-14.67 4.020-22.68 1.77-31.5-10.44-6.33-8.79-11.58-18.36-17.25-27.631-0.84-1.38-1.44-2.97-2.16-4.44-0.69-1.47-1.44-2.88-2.16-4.35 2.13 15.24 5.67 29.911 13.98 42.99 4.5 7.11 10.5 12.36 19.29 13.14 32.34 2.91 59.641-7.71 79.021-33.721 21.69-29.101 26.461-62.581 20.19-97.831-1.23-6.96-3.3-13.77-4.77-20.7-0.99-4.47 0.78-7.77 5.19-9.33 2.040-0.69 4.14-1.26 6.18-1.68 26.461-5.7 53.221-7.59 80.191-4.86 30.601 3.060 59.551 11.46 85.441 28.471 40.531 26.67 65.641 64.621 79.291 110.522 1.98 6.66 2.28 13.95 2.46 20.971 0.12 4.68-2.88 5.91-6.45 2.97-3.93-3.21-7.53-6.87-10.92-10.65-3.15-3.57-5.67-7.65-8.73-11.4-2.37-2.94-4.44-2.49-5.58 1.17-0.72 2.22-1.35 4.41-1.98 6.63-7.080 25.26-18.24 48.3-36.33 67.711-2.52 2.73-4.77 6.78-5.070 10.38-0.78 9.96-1.35 20.13-0.39 30.060 1.98 21.331 5.070 42.57 7.47 63.871 1.35 12.030-2.52 19.11-13.83 23.281-7.95 2.91-16.47 5.040-24.87 5.64-13.38 0.93-26.88 0.27-40.32 0.27-0.36-15 0.93-29.731-13.17-37.771 2.73-11.13 5.88-21.69 7.77-32.49 1.56-8.97 0.24-17.79-6.060-25.14-5.91-6.93-13.32-8.82-20.101-4.86-20.43 11.91-41.671 11.97-63.301 4.17-9.93-3.6-16.86-1.56-22.351 7.5-5.91 9.75-8.4 20.7-7.74 31.771 0.84 13.95 3.27 27.75 5.13 41.64 1.020 7.77 0.15 9.78-7.56 11.76-17.13 4.35-34.56 4.83-52.081 3.42-0.93-0.090-1.86-0.48-2.46-0.63-0.87-14.55 0.66-29.671-16.68-37.411 7.68-16.29 6.63-33.18 3.99-50.070l-0.060-0.15zM66.761 292.718c2.55-2.4 4.59-6.15 5.31-9.6 1.8-8.64-4.68-20.22-12.18-23.43-3.99-1.74-7.47-1.11-10.29 2.070-6.87 7.77-13.65 15.63-20.401 23.521-1.14 1.35-2.16 2.94-2.97 4.53-2.7 5.19-1.11 8.97 4.65 10.38 3.48 0.87 7.080 1.050 10.65 1.56 9.3-0.9 18.3-2.46 25.23-9v-0.030zM67.541 206.347c-0.030-6.18-5.19-11.34-11.28-11.37-6.27-0.030-11.67 5.58-11.46 11.76 0.27 6.21 5.43 11.19 11.61 11.070 6.24-0.090 11.22-5.19 11.16-11.43l-0.030-0.030z"/>
  </g>
</svg>
