<svg xmlns="http://www.w3.org/2000/svg" width="16" height="16"  viewBox="0 -1 16 16"><path fill="#FF8A65" d="M9.559 2.009v1.513a5.1 5.1 0 0 0-1.55-1.008 4.6 4.6 0 0 0-1.742-.334 3.49 3.49 0 0 0-2.786 1.115A4.74 4.74 0 0 0 2.514 6.5a4.76 4.76 0 0 0 .967 3.209 3.5 3.5 0 0 0 2.787 1.108 4.6 4.6 0 0 0 1.742-.334 5.1 5.1 0 0 0 1.55-1.008v1.5a5.9 5.9 0 0 1-1.6.767A6 6 0 0 1 6.182 12a4.97 4.97 0 0 1-3.8-1.47A5.65 5.65 0 0 1 1 6.5a5.63 5.63 0 0 1 1.386-4.022A4.95 4.95 0 0 1 6.182 1a6.1 6.1 0 0 1 1.792.256 5.6 5.6 0 0 1 1.585.753M8 4v2h2v1H8v2H7V7H5V6h2V4zm6 0v2h2v1h-2v2h-1V7h-2V6h2V4z" class="i-color"/></svg>