<!--
  - The MIT License (MIT)
  -
  - Copyright (c) 2015-2022 Elior "Mallowigi" Boukhobza
  -
  - Permission is hereby granted, free of charge, to any person obtaining a copy
  - of this software and associated documentation files (the "Software"), to deal
  - in the Software without restriction, including without limitation the rights
  - to use, copy, modify, merge, publish, distribute, sublicense, and/or sell
  - copies of the Software, and to permit persons to whom the Software is
  - furnished to do so, subject to the following conditions:
  -
  - The above copyright notice and this permission notice shall be included in all
  - copies or substantial portions of the Software.
  -
  - THE SOFTWARE IS PROVIDED "AS IS", WITHOUT WARRANTY OF ANY KIND, EXPRESS OR
  - IMPLIED, INCLUDING BUT NOT LIMITED TO THE WARRANTIES OF MERCHANTABILITY,
  - FITNESS FOR A PARTICULAR PURPOSE AND NONINFRINGEMENT. IN NO EVENT SHALL THE
  - AUTHORS OR COPYRIGHT HOLDERS BE LIABLE FOR ANY CLAIM, DAMAGES OR OTHER
  - LIABILITY, WHETHER IN AN ACTION OF CONTRACT, TORT OR OTHERWISE, ARISING FROM,
  - OUT OF OR IN CONNECTION WITH THE SOFTWARE OR THE USE OR OTHER DEALINGS IN THE
  - SOFTWARE.
  -
  -
  -->

<svg xmlns="http://www.w3.org/2000/svg" version="1.1" width="16px" height="16px" viewBox="0 0 24 24">
    <g big="true">
        <path fill="#26C6DA"
              d="M13.75,10.19L14.38,10.32L18.55,12.4C19.25,12.63 19.71,13.32 19.65,14.06V14.19L19.65,14.32L18.75,20.44C18.69,20.87 18.5,21.27 18.15,21.55C17.84,21.85 17.43,22 17,22H10.12C9.63,22 9.18,21.82 8.85,21.47L2.86,15.5L3.76,14.5C4,14.25 4.38,14.11 4.74,14.13H5.03L9,15V4.5A2,2 0 0,1 11,2.5A2,2 0 0,1 13,4.5V10.19H13.75Z"/>
    </g>
</svg>
