<svg xmlns="http://www.w3.org/2000/svg" width="16" height="16" data-big="true"><defs><mask id="a"><circle cx="8" cy="8" r="7" fill="#fff"/><circle cx="8" cy="8" r="6"/></mask></defs><g fill="#AED581"><path d="M8 14.85a6.86 6.86 0 0 1-6.85-6.332A6.86 6.86 0 0 1 6.947 1.21a6.86 6.86 0 0 1 7.725 5.227 6.86 6.86 0 0 1-.726 4.957A6.77 6.77 0 0 1 8 14.85m0 0" mask="url(#a)"/><path d="M6.625 5.589v.2c.246-.343.566-.626.936-.829a2.5 2.5 0 0 1 1.176-.269 2.34 2.34 0 0 1 1.152.281c.33.178.595.456.758.793.21.48.297 1.004.253 1.525v3.031c.02.266-.061.53-.227.74a.74.74 0 0 1-.579.251.75.75 0 0 1-.59-.257 1.07 1.07 0 0 1-.227-.734V7.606a2.66 2.66 0 0 0-.227-1.229.9.9 0 0 0-.889-.43 1.3 1.3 0 0 0-.794.263 1.5 1.5 0 0 0-.525.71c-.1.446-.14.904-.119 1.361v2.04c.02.27-.063.536-.233.746a.77.77 0 0 1-.591.245.74.74 0 0 1-.578-.257 1.07 1.07 0 0 1-.227-.734V5.613a1 1 0 0 1 .2-.692.7.7 0 0 1 .555-.233.72.72 0 0 1 .518.2.96.96 0 0 1 .251.7ZM9 1.5a1 1 0 1 1-2 0 1 1 0 0 1 2 0M3.352 11.22a1 1 0 1 1-2 0 1 1 0 0 1 2 0M14.643 11.22a1 1 0 1 1-2 0 1 1 0 0 1 2 0"/></g></svg>