<!--
  - The MIT License (MIT)
  -
  - Copyright (c) 2015-2023 Elior "Mallowigi" Boukhobza
  -
  - Permission is hereby granted, free of charge, to any person obtaining a copy
  - of this software and associated documentation files (the "Software"), to deal
  - in the Software without restriction, including without limitation the rights
  - to use, copy, modify, merge, publish, distribute, sublicense, and/or sell
  - copies of the Software, and to permit persons to whom the Software is
  - furnished to do so, subject to the following conditions:
  -
  - The above copyright notice and this permission notice shall be included in all
  - copies or substantial portions of the Software.
  -
  - THE SOFTWARE IS PROVIDED "AS IS", WITHOUT WARRANTY OF ANY KIND, EXPRESS OR
  - IMPLIED, INCLUDING BUT NOT LIMITED TO THE WARRANTIES OF MERCHANTABILITY,
  - FITNESS FOR A PARTICULAR PURPOSE AND NONINFRINGEMENT. IN NO EVENT SHALL THE
  - AUTHORS OR COPYRIGHT HOLDERS BE LIABLE FOR ANY CLAIM, DAMAGES OR OTHER
  - LIABILITY, WHETHER IN AN ACTION OF CONTRACT, TORT OR OTHERWISE, ARISING FROM,
  - OUT OF OR IN CONNECTION WITH THE SOFTWARE OR THE USE OR OTHER DEALINGS IN THE
  - SOFTWARE.
  -
  -->

<svg big="true" xmlns="http://www.w3.org/2000/svg" width="16px" height="16px" viewBox="0 0 576 512">
  <path fill="#EC407A"
        d="M304 240V16.6c0-9 7-16.6 16-16.6C443.7 0 544 100.3 544 224c0 9-7.6 16-16.6 16H304zM32 272C32 150.7 122.1 50.3 239 34.3c9.2-1.3 17 6.1 17 15.4V288L412.5 444.5c6.7 6.7 6.2 17.7-1.5 23.1C371.8 495.6 323.8 512 272 512C139.5 512 32 404.6 32 272zm526.4 16c9.3 0 16.6 7.8 15.4 17c-7.7 55.9-34.6 105.6-73.9 142.3c-6 5.6-15.4 5.2-21.2-.7L320 288H558.4z"/>
</svg>
