<svg xmlns="http://www.w3.org/2000/svg" width="16" height="16" fill="none" data-big="true"><defs><mask id="a"><path fill="#000" d="M2 2h12v12H2z"/><path fill="#fff" d="M9.596 13.006c.784 0 1.288-.312 1.704-.776l-.384-.344c-.336.352-.736.584-1.304.584-.736 0-1.368-.504-1.456-1.4h3.28c.008-.072.008-.12.008-.2 0-1.208-.704-2.184-1.928-2.184-1.144 0-1.984.96-1.984 2.152v.016c0 1.28.928 2.152 2.064 2.152m-1.44-2.392c.08-.808.624-1.408 1.344-1.408.824 0 1.256.656 1.32 1.408zM5.062 12.99c1.112 0 1.912-.624 1.912-1.584v-.016c0-.856-.576-1.312-1.824-1.584-1.232-.264-1.52-.56-1.52-1.088v-.016c0-.504.464-.904 1.192-.904.576 0 1.096.184 1.616.608l.368-.488c-.568-.456-1.152-.688-1.968-.688-1.064 0-1.84.648-1.84 1.528v.016c0 .92.592 1.336 1.88 1.616 1.176.248 1.456.544 1.456 1.064v.016c0 .552-.496.952-1.248.952-.776 0-1.336-.264-1.92-.792l-.392.464c.672.6 1.4.896 2.288.896M6.65 4.35l.71-.71L9.5 5.8 13.3 2h.7v.7L9.5 7.2z"/></mask></defs><g mask="url(#a)"><path fill="#00B400" d="M2 2h12v12H2z"/><path fill="00B400" d="M9.596 13.006c.784 0 1.288-.312 1.704-.776l-.384-.344c-.336.352-.736.584-1.304.584-.736 0-1.368-.504-1.456-1.4h3.28c.008-.072.008-.12.008-.2 0-1.208-.704-2.184-1.928-2.184-1.144 0-1.984.96-1.984 2.152v.016c0 1.28.928 2.152 2.064 2.152m-1.44-2.392c.08-.808.624-1.408 1.344-1.408.824 0 1.256.656 1.32 1.408zM5.062 12.99c1.112 0 1.912-.624 1.912-1.584v-.016c0-.856-.576-1.312-1.824-1.584-1.232-.264-1.52-.56-1.52-1.088v-.016c0-.504.464-.904 1.192-.904.576 0 1.096.184 1.616.608l.368-.488c-.568-.456-1.152-.688-1.968-.688-1.064 0-1.84.648-1.84 1.528v.016c0 .92.592 1.336 1.88 1.616 1.176.248 1.456.544 1.456 1.064v.016c0 .552-.496.952-1.248.952-.776 0-1.336-.264-1.92-.792l-.392.464c.672.6 1.4.896 2.288.896M6.65 4.35l.71-.71L9.5 5.8 13.3 2h.7v.7L9.5 7.2z"/></g></svg>