<svg xmlns="http://www.w3.org/2000/svg" width="16" height="16" fill="#ED1C24" data-big="true"><path d="M11.583 12.09s1.983-1.941.735-4.104c-.435-.753-.883-1.229-1.324-1.698-.52-.552-1.032-1.096-1.504-2.072C8.672 2.525 9.573 1 9.573 1S6.29 2.192 6.385 4.52c.076 1.811 1.568 2.92 2.86 3.88.41.306.8.596 1.119.89 1.22 1.122 1.22 2.8 1.22 2.8"/><path d="M10.28 10.301c1.36 1.927-.166 4.255-.166 4.255s-.166-1.247-1.927-2.495c-.64-.453-1.26-.823-1.835-1.165-1.637-.975-2.887-1.72-3.071-3.506-.206-1.99 2.606-3.7 2.606-3.7s-.821 1.193.11 2.647c.928 1.447 1.87 2.06 2.698 2.6.607.394 1.153.75 1.586 1.364"/><path d="M8.062 12.727C9.65 13.635 9.795 15 9.795 15s-.626-.597-1.78-.88a12.6 12.6 0 0 0-1.804-.297c-.753-.08-1.292-.139-1.967-.604-1.718-1.185-.285-3.098-.285-3.098s.095.682.777 1.15c.787.541 1.32.7 1.861.86.437.13.88.26 1.465.596"/></svg>