<svg xmlns="http://www.w3.org/2000/svg" width="16" height="16" fill="#A1887F" data-big="true"><path d="M7.318 9.203c5.754-4.583 7.654-2.42 7.654-2.42.04.107-.028.23-.028.23l-.003-.001c-.112.357-.985.837-2.34.891-1.16.046-2.164.166-2.81.26-.871.54-1.695 1.14-2.366 1.64-.045.033-.142.119-.28.24-.68.593-2.347 2.05-3.607 2.472-.978.327-1.8.39-2.229-.17a1.1 1.1 0 0 1-.255-.576c-.272-1.73 2.115-2.768 2.115-2.768s.168.975.286 1.13c1.39-.095 3.174-.685 3.863-.928"/><path d="M3.174 8.856S2.248 5.435 4.52 4.133c.76-.435 2.235-.91 2.969-1.007s2.463-.405 3.351 1.061c.325.536.748 1.484.837 1.827-.929 1.013-7.475 2.777-8.504 2.842"/></svg>