<svg xmlns="http://www.w3.org/2000/svg" width="16" height="16" fill="#FB8835" ><path d="M8 11.7v3.4l-7-3.5v-2zM8 11.7v3.4l7-3.5v-2z"/><path fill="none" d="M1.008 6.656v1.98l.893.175V6.656z"/><path d="M2.441 6.656v2.098l-.54.057V6.656z"/><path fill="none" d="m2.436 8.915 1.123.22V4.137l-1.123.234z"/><path d="m4.69 8.994-1.13.14V4.138l1.13.137z"/><path fill="none" d="m4.273 9.273 1.613.315v-4.44l-1.613.168z"/><path d="m6.914 9.41-1.028.178v-4.44l1.028.086zM15.008 1.676v6.96l-.89.174V1.24z"/><path fill="none" d="M13.129 1.469v7.195l.989.146V1.24z"/><path d="m13.629 8.905-1.206.235V1.646l1.206.476z"/><path fill="none" d="m11.328 9.005 1.095.135V1.646l-1.095.268z"/><path d="m11.743 9.272-1.648.32V3.68l1.648.338z"/><path fill="none" d="m9.094 9.421 1.001.171V3.68l-1 .142zM8 1.545V10l-1.088-.212V1.91z"/><path d="M8 1.542V10l1.108-.216V1.891z"/></svg>