<svg xmlns="http://www.w3.org/2000/svg" width="16" height="16" viewBox="0 0 512 512">
  <path fill="#FBC02D"
        d="m259.715 244.253-81.988 35.215 75.935 32.465 88.04-32.465zm-124.667 43.641.037 158.845 118.575 52.823v-164.52zm247.92.38L274.57 329.54V484.71l108.4-44.02zM124.63 18.293 42.647 53.508l75.93 32.464 88.041-32.464zM0 220.784l118.575 52.823v-164.52L0 62.316zm247.884-158.47-108.4 41.266v155.168l108.4-44.019zm140.862-49.876-81.988 35.215 75.936 32.462 88.035-32.462zm-124.63 44.02v158.466l118.572 52.823v-164.52zM512 56.458 403.601 97.725v155.169L512 208.874z"
        data-iconColor="aws"/>
</svg>