<svg xmlns="http://www.w3.org/2000/svg" width="16" height="16" fill="#4485F9" data-big="true"><defs><mask id="a"><path fill="#fff" d="M3.897 2.037.737 7.454a1.08 1.08 0 0 0 0 1.092l3.16 5.417c.194.332.55.537.936.537h6.339c.385 0 .742-.205.936-.537l3.16-5.417a1.08 1.08 0 0 0 0-1.092l-3.16-5.417a1.08 1.08 0 0 0-.936-.537H4.833c-.385 0-.742.205-.936.537"/><path fill="#fff" d="M14.203 10.37 9.918 6.085a2.708 2.708 0 1 0-3.83 3.83l4.584 4.585h.5c.385 0 .742-.205.936-.537z"/><path fill="#000" d="M8.328 9.593a1.6 1.6 0 0 1-.65 0v-2.41h.65zM7.241 9.436V7.86h-.65v.946c.153.266.378.486.65.63M8.76 9.438c.272-.144.498-.362.65-.627v-.667h-.65z"/><path fill="#000" fill-rule="evenodd" d="M10.134 9.672a2.708 2.708 0 1 0-.46.46l.963.962a.217.217 0 0 0 .306 0l.153-.153a.217.217 0 0 0 0-.307zm-2.131.386a2.058 2.058 0 1 0 0-4.116 2.058 2.058 0 0 0 0 4.116" clip-rule="evenodd"/></mask></defs><g mask="url(#a)"><path d="M3.897 2.037.737 7.454a1.08 1.08 0 0 0 0 1.092l3.16 5.417c.194.332.55.537.936.537h6.339c.385 0 .742-.205.936-.537l3.16-5.417a1.08 1.08 0 0 0 0-1.092l-3.16-5.417a1.08 1.08 0 0 0-.936-.537H4.833c-.385 0-.742.205-.936.537"/><path d="M14.203 10.37 9.918 6.085a2.708 2.708 0 1 0-3.83 3.83l4.584 4.585h.5c.385 0 .742-.205.936-.537z"/><path fill="#FFFEFF" d="M8.328 9.593a1.6 1.6 0 0 1-.65 0v-2.41h.65zM7.241 9.436V7.86h-.65v.946c.153.266.378.486.65.63M8.76 9.438c.272-.144.498-.362.65-.627v-.667h-.65z"/><path fill="#FFFEFF" fill-rule="evenodd" d="M10.134 9.672a2.708 2.708 0 1 0-.46.46l.963.962a.217.217 0 0 0 .306 0l.153-.153a.217.217 0 0 0 0-.307zm-2.131.386a2.058 2.058 0 1 0 0-4.116 2.058 2.058 0 0 0 0 4.116" clip-rule="evenodd"/></g></svg>