<!--
  - The MIT License (MIT)
  -
  - Copyright (c) 2015-2024 Elior "Mallowigi" Boukhobza
  -
  - Permission is hereby granted, free of charge, to any person obtaining a copy
  - of this software and associated documentation files (the "Software"), to deal
  - in the Software without restriction, including without limitation the rights
  - to use, copy, modify, merge, publish, distribute, sublicense, and/or sell
  - copies of the Software, and to permit persons to whom the Software is
  - furnished to do so, subject to the following conditions:
  -
  - The above copyright notice and this permission notice shall be included in all
  - copies or substantial portions of the Software.
  -
  - THE SOFTWARE IS PROVIDED "AS IS", WITHOUT WARRANTY OF ANY KIND, EXPRESS OR
  - IMPLIED, INCLUDING BUT NOT LIMITED TO THE WARRANTIES OF MERCHANTABILITY,
  - FITNESS FOR A PARTICULAR PURPOSE AND NONINFRINGEMENT. IN NO EVENT SHALL THE
  - AUTHORS OR COPYRIGHT HOLDERS BE LIABLE FOR ANY CLAIM, DAMAGES OR OTHER
  - LIABILITY, WHETHER IN AN ACTION OF CONTRACT, TORT OR OTHERWISE, ARISING FROM,
  - OUT OF OR IN CONNECTION WITH THE SOFTWARE OR THE USE OR OTHER DEALINGS IN THE
  - SOFTWARE.
  -->
<svg data-big="true" width="16px" height="16px" viewBox="0 0 16 16" fill="#F05049" xmlns="http://www.w3.org/2000/svg">
  <path d="M9.49992 1H6.49992V4H9.49992V1Z"/>
  <path d="M9.49992 12H6.49992V15H9.49992V12Z"/>
  <path d="M14.8121 5.79904L13.3121 3.20096L10.714 4.70096L12.214 7.29904L14.8121 5.79904Z"/>
  <path d="M5.28582 11.299L3.78582 8.70096L1.18774 10.201L2.68774 12.799L5.28582 11.299Z"/>
  <path d="M2.68774 3.20096L1.18774 5.79904L3.78582 7.29904L5.28582 4.70096L2.68774 3.20096Z"/>
  <path d="M12.214 8.70096L10.714 11.299L13.3121 12.799L14.8121 10.201L12.214 8.70096Z"/>
  <path d="M6.5 6.5H9.5V9.5H6.5V6.5Z"/>
</svg>
