<svg xmlns="http://www.w3.org/2000/svg" width="16" height="16" fill="none" ><g fill="#548AF7"><path d="M2.34 2.352c-.266.235-.34.428-.34.566 0 .143.078.348.35.6.27.25.687.503 1.24.729C4.695 4.697 6.252 5 7.993 5s3.298-.303 4.402-.753c.554-.226.97-.479 1.24-.729.272-.252.35-.457.35-.6 0-.138-.073-.33-.34-.566s-.681-.469-1.236-.675C11.303 1.265 9.742 1 7.993 1s-3.31.265-4.417.677c-.555.206-.969.44-1.235.675"/><path d="M13.985 4.521c-.34.246-.752.464-1.212.652C11.527 5.68 9.838 6 7.993 6s-3.535-.32-4.78-.827A5.8 5.8 0 0 1 2 4.52v1.866c0 .138.074.33.34.566.267.234.681.468 1.236.675 1.106.412 2.667.677 4.417.677q.157 0 .312-.003A2.5 2.5 0 0 1 10.5 7h2.583q.226 0 .443.05.063-.05.119-.097c.267-.235.34-.428.34-.566zM8.008 9.305h-.015c-1.837 0-3.522-.277-4.766-.74A5.7 5.7 0 0 1 2 7.951v1.897c0 .138.074.33.34.566.267.234.681.468 1.236.675.787.293 1.803.511 2.954.613a1.5 1.5 0 0 1 .996-1.125L8 10.419V9.5q0-.098.008-.195M3.227 12.026c.941.35 2.135.594 3.456.692.177.325.474.582.843.705l.474.158v.919q0 .252.048.491h-.055c-1.75 0-3.31-.265-4.417-.676-.555-.207-.969-.441-1.235-.676S2 13.211 2 13.073v-1.66c.345.236.762.44 1.227.613M11 15.5a.5.5 0 0 1-.5.5A1.5 1.5 0 0 1 9 14.5v-1.64l-1.158-.386a.5.5 0 0 1 0-.948L9 11.14V9.5A1.5 1.5 0 0 1 10.5 8a.5.5 0 0 1 0 1 .5.5 0 0 0-.5.5v1.64a1 1 0 0 1-.49.86 1 1 0 0 1 .49.86v1.64a.5.5 0 0 0 .5.5.5.5 0 0 1 .5.5M12 8.5a.5.5 0 0 1 .5-.5A1.5 1.5 0 0 1 14 9.5v1.64l1.158.386a.5.5 0 0 1 0 .948L14 12.86v1.64a1.5 1.5 0 0 1-1.5 1.5.5.5 0 0 1 0-1 .5.5 0 0 0 .5-.5v-1.64a1 1 0 0 1 .49-.86 1 1 0 0 1-.49-.86V9.5a.5.5 0 0 0-.5-.5.5.5 0 0 1-.5-.5"/></g></svg>