<!--
  - The MIT License (MIT)
  -
  - Copyright (c) 2015-2023 Elior "Mallowigi" Boukhobza
  -
  - Permission is hereby granted, free of charge, to any person obtaining a copy
  - of this software and associated documentation files (the "Software"), to deal
  - in the Software without restriction, including without limitation the rights
  - to use, copy, modify, merge, publish, distribute, sublicense, and/or sell
  - copies of the Software, and to permit persons to whom the Software is
  - furnished to do so, subject to the following conditions:
  -
  - The above copyright notice and this permission notice shall be included in all
  - copies or substantial portions of the Software.
  -
  - THE SOFTWARE IS PROVIDED "AS IS", WITHOUT WARRANTY OF ANY KIND, EXPRESS OR
  - IMPLIED, INCLUDING BUT NOT LIMITED TO THE WARRANTIES OF MERCHANTABILITY,
  - FITNESS FOR A PARTICULAR PURPOSE AND NONINFRINGEMENT. IN NO EVENT SHALL THE
  - AUTHORS OR COPYRIGHT HOLDERS BE LIABLE FOR ANY CLAIM, DAMAGES OR OTHER
  - LIABILITY, WHETHER IN AN ACTION OF CONTRACT, TORT OR OTHERWISE, ARISING FROM,
  - OUT OF OR IN CONNECTION WITH THE SOFTWARE OR THE USE OR OTHER DEALINGS IN THE
  - SOFTWARE.
  -
  -->

<svg width="16px" height="16px" fill="#FFEE58" viewBox="0 0 24 24" xmlns="http://www.w3.org/2000/svg">
  <g big="true">
    <path
      d="M12 0C5.363 0 0 5.363 0 12s5.363 12 12 12 12-5.363 12-12S18.637 0 12 0zM9.502 7.03a4.974 4.974 0 0 1 4.97 4.97 4.974 4.974 0 0 1-4.97 4.97A4.974 4.974 0 0 1 4.532 12a4.974 4.974 0 0 1 4.97-4.97zm6.563 3.183h2.351c.98 0 1.787.782 1.787 1.762s-.807 1.789-1.787 1.789h-2.351v-3.551z"/>
  </g>
</svg>
