<svg xmlns="http://www.w3.org/2000/svg" width="16" height="16" fill="#4387FB" data-big="true"><defs><mask id="a"><path fill="#fff" d="M3.897 2.037.737 7.454a1.08 1.08 0 0 0 0 1.092l3.16 5.417c.194.332.55.537.936.537h6.339c.385 0 .742-.205.936-.537l3.16-5.417a1.08 1.08 0 0 0 0-1.092l-3.16-5.417a1.08 1.08 0 0 0-.936-.537H4.833c-.385 0-.742.205-.936.537"/><path fill="#fff" d="M14.275 10.247 9.164 5.135l-.8-.385v.73l-.73-.73-.798.385v1.188l.686.365v1.16l-1.006.582-.66-.412-1.029.594.066.884.535.535-.17.098L9.63 14.5h1.542c.385 0 .742-.205.936-.537z"/><path fill="#000" d="M7.522 6.688v1.16l-1.006.582-.66-.412-1.029.594.066.884.848-.49.347.222.018.411-.848.49.733.499 1.03-.594-.028-.778L8 8.676l1.007.58-.027.778 1.029.594.733-.5-.848-.489.018-.411.347-.221.848.489.066-.884-1.03-.594-.659.412-1.007-.582v-1.16l.687-.365V5.135l-.8-.385v.979L8 5.919l-.366-.19V4.75l-.798.385v1.188z"/></mask></defs><g mask="url(#a)"><path d="M3.897 2.037.737 7.454a1.08 1.08 0 0 0 0 1.092l3.16 5.417c.194.332.55.537.936.537h6.339c.385 0 .742-.205.936-.537l3.16-5.417a1.08 1.08 0 0 0 0-1.092l-3.16-5.417a1.08 1.08 0 0 0-.936-.537H4.833c-.385 0-.742.205-.936.537"/><path d="M14.275 10.247 9.164 5.135l-.8-.385v.73l-.73-.73-.798.385v1.188l.686.365v1.16l-1.006.582-.66-.412-1.029.594.066.884.535.535-.17.098L9.63 14.5h1.542c.385 0 .742-.205.936-.537z"/><path fill="#fff" d="M7.522 6.688v1.16l-1.006.582-.66-.412-1.029.594.066.884.848-.49.347.222.018.411-.848.49.733.499 1.03-.594-.028-.778L8 8.676l1.007.58-.027.778 1.029.594.733-.5-.848-.489.018-.411.347-.221.848.489.066-.884-1.03-.594-.659.412-1.007-.582v-1.16l.687-.365V5.135l-.8-.385v.979L8 5.919l-.366-.19V4.75l-.798.385v1.188z"/></g></svg>