<svg xmlns="http://www.w3.org/2000/svg" width="16" height="16" fill="#3F51B5">
  <defs>
    <mask id="a">
      <path fill="#fff" d="M1 3h14v10H1z"/>
      <path fill="#000" fill-rule="evenodd"
            d="M14.002 11.065v.947h-3.273s1.61-3.187 1.786-3.539q.264-.526.264-.822 0-.227-.08-.338c-.053-.075-.134-.093-.242-.093-.11 0-.19.022-.243.105q-.08.123-.08.49v.53h-1.283v-.203q0-.467.05-.737t.244-.53a1.2 1.2 0 0 1 .507-.395q.312-.135.748-.134.855 0 1.292.41t.437 1.04q0 .476-.246 1.009t-1.451 2.26z"
            clip-rule="evenodd"/>
      <path fill="#000" d="M6.009 6.617h1.2v2.192H8.8V6.617H10v5.4H8.8v-2.008H7.209v2.008h-1.2z"/>
    </mask>
  </defs>
  <g mask="url(#a)">
    <path d="M1 3h14v10H1z"/>
    <path fill="#fff" fill-rule="evenodd"
          d="M14.002 11.065v.947h-3.273s1.61-3.187 1.786-3.539q.264-.526.264-.822 0-.227-.08-.338c-.053-.075-.134-.093-.242-.093-.11 0-.19.022-.243.105q-.08.123-.08.49v.53h-1.283v-.203q0-.467.05-.737t.244-.53a1.2 1.2 0 0 1 .507-.395q.312-.135.748-.134.855 0 1.292.41t.437 1.04q0 .476-.246 1.009t-1.451 2.26z"
          clip-rule="evenodd"/>
    <path fill="#fff" d="M6.009 6.617h1.2v2.192H8.8V6.617H10v5.4H8.8v-2.008H7.209v2.008h-1.2z"/>
  </g>
</svg>