<!--
  - The MIT License (MIT)
  -
  -  Copyright (c) 2015-2022 Elior "Mallowigi" Boukhobza
  -
  -  Permission is hereby granted, free of charge, to any person obtaining a copy
  -  of this software and associated documentation files (the "Software"), to deal
  -  in the Software without restriction, including without limitation the rights
  -  to use, copy, modify, merge, publish, distribute, sublicense, and/or sell
  -  copies of the Software, and to permit persons to whom the Software is
  -  furnished to do so, subject to the following conditions:
  -
  -  The above copyright notice and this permission notice shall be included in all
  -  copies or substantial portions of the Software.
  -
  -  THE SOFTWARE IS PROVIDED "AS IS", WITHOUT WARRANTY OF ANY KIND, EXPRESS OR
  -  IMPLIED, INCLUDING BUT NOT LIMITED TO THE WARRANTIES OF MERCHANTABILITY,
  -  FITNESS FOR A PARTICULAR PURPOSE AND NONINFRINGEMENT. IN NO EVENT SHALL THE
  -  AUTHORS OR COPYRIGHT HOLDERS BE LIABLE FOR ANY CLAIM, DAMAGES OR OTHER
  -  LIABILITY, WHETHER IN AN ACTION OF CONTRACT, TORT OR OTHERWISE, ARISING FROM,
  -  OUT OF OR IN CONNECTION WITH THE SOFTWARE OR THE USE OR OTHER DEALINGS IN THE
  -  SOFTWARE.
  -->
<svg big="true" width="16px" height="16px" viewBox="0 0 16 16" fill="#FDEE21" xmlns="http://www.w3.org/2000/svg">
    <path d="M11.5396 10.5824C11.1969 10.3352 10.8696 9.99513 10.6794 9.73303L10.676 9.74983C10.6523 9.86549 10.62 10.0229 10.7483 10.222C10.85 10.38 11.2868 10.7746 11.2868 10.7746L11.5396 10.5824Z"
          fill="none"/>
    <path d="M10.049 5.66469C9.9522 5.59434 9.85961 5.4523 9.75979 5.29918C9.61117 5.07119 9.44654 4.81863 9.22807 4.74161C9.12125 4.73336 9.0358 4.71791 8.95487 4.70328C8.7797 4.67161 8.62565 4.64376 8.32164 4.70094C8.37319 4.6771 8.42382 4.65112 8.47445 4.62515C8.58215 4.56989 8.68985 4.51464 8.80642 4.4799C8.89846 4.45984 8.98598 4.47331 9.07349 4.48678C9.09634 4.49029 9.11919 4.49381 9.14212 4.49673C9.16947 4.4848 9.18739 4.46996 9.1807 4.44753C8.89717 4.28579 8.42474 4.22509 7.95901 4.16524C7.68978 4.13065 7.42279 4.09634 7.19582 4.04297C7.36173 4.04809 7.53171 4.05008 7.70169 4.05207C8.26847 4.05868 8.83525 4.0653 9.251 4.18837C9.56114 4.44243 9.72184 4.85662 9.86924 5.23652C9.92836 5.38892 9.98539 5.53588 10.049 5.66469Z"
          fill="none"/>
    <path fill-rule="evenodd" clip-rule="evenodd"
          d="M10.7514 7.79551C10.7514 7.79551 11.0783 7.75152 11.0719 7.77969C11.0505 7.87434 11.1005 8.09194 11.1155 8.10656L10.9352 8.24236C11.2329 8.10419 11.5428 8.09437 11.858 8.08438C11.9503 8.08145 12.0431 8.07851 12.1362 8.07233C12.1362 8.07233 11.7902 7.98415 11.8114 7.98138C11.8885 7.97127 11.7908 7.64829 11.7643 7.6413C11.8302 7.62073 11.8945 7.60523 11.961 7.58989C11.4662 7.47037 11.1801 7.54079 10.7514 7.79551ZM11.119 8.10396L11.1155 8.10656C11.1171 8.10811 11.1183 8.10737 11.119 8.10396Z"
          fill="none"/>
    <path fill-rule="evenodd" clip-rule="evenodd"
          d="M3.75271 1.55776C3.62536 1.67945 3.52712 1.79009 3.43556 1.89322C3.28604 2.06162 3.15432 2.20998 2.94264 2.35368C2.87438 2.40802 2.68281 2.49211 2.44198 2.50508C2.41493 2.50633 2.39012 2.50836 2.3652 2.51039C2.28563 2.51689 2.20491 2.52348 2.04616 2.50508C1.86232 2.41319 1.60601 2.54346 1.43555 2.73167C1.31964 2.88553 1.28636 3.12513 1.25433 3.3557C1.23471 3.49698 1.21555 3.63487 1.17815 3.74756C1.09669 4.05127 1.10487 4.34661 1.19583 4.62242C1.3314 5.03356 1.50863 5.40132 1.80549 5.68879C2.24676 6.08671 2.50117 6.38284 2.68234 6.74763C2.76239 6.88568 2.80672 7.00403 2.85162 7.12389C2.88367 7.20945 2.91601 7.29578 2.96184 7.39061C3.00151 7.46279 3.0626 7.54807 3.16938 7.56982C3.32524 7.60053 3.52189 7.61084 3.72091 7.62128C3.81632 7.62628 3.9123 7.63131 4.00457 7.63863C4.12777 7.64022 4.29696 7.63112 4.45727 7.61569L4.53968 7.60149C4.74085 7.56699 4.96422 7.52868 5.15521 7.4677C5.23348 7.44991 5.2718 7.44312 5.2975 7.43857C5.34158 7.43076 5.34855 7.42952 5.4564 7.39061C5.44401 7.42942 5.36792 7.51033 5.29377 7.58919C5.23616 7.65046 5.1797 7.7105 5.15521 7.74857C4.72775 8.41302 4.69916 9.02144 4.78822 9.9706C4.84521 10.4464 4.95308 10.8409 5.13158 11.2922C5.21327 11.4987 5.45511 11.9416 5.62168 12.1589C6.11702 12.8049 7.25403 13.6184 8.79663 13.9378C9.06576 13.9717 9.34232 13.9254 9.62958 13.8548C10.3909 13.6417 12.4447 12.9708 12.4447 12.9708C12.4447 12.9708 10.5652 13.0981 9.93444 13.0406C9.88236 13.0331 9.83224 13.0282 9.78803 13.0239C9.70827 13.0163 9.64773 13.0104 9.62958 12.994L9.62335 12.9872C9.57999 12.9401 9.32839 12.6669 9.15453 12.3306C9.0275 12.0849 8.95795 11.782 8.93217 11.6697C8.92671 11.6459 8.92322 11.6307 8.92155 11.6263C8.85453 11.4555 9.01747 10.8156 9.01747 10.8156C9.03621 10.7811 9.04801 10.7552 9.05688 10.7358C9.08221 10.6802 9.08358 10.6772 9.15453 10.6763L9.17719 10.6786C9.44847 10.7064 9.52677 10.7145 9.69838 10.6763C9.71585 10.7095 9.73249 10.7426 9.74901 10.7755C9.84521 10.9672 9.93775 11.1517 10.1692 11.2922C11.057 11.5355 11.262 11.2693 11.4765 10.9908L11.4879 10.976C11.9203 11.2689 12.57 11.4149 13.1729 11.2922C13.4766 11.2304 13.7684 11.0776 14.0145 10.8872C14.949 9.8891 15.2177 8.16022 15.1349 8.07037C15.0826 7.98845 14.8086 7.93361 14.5231 7.93371C14.3567 7.93377 14.1863 7.94814 14.0537 7.95932C13.9063 7.97175 13.8055 7.98026 13.8083 7.96085C13.8227 7.81527 13.813 7.63213 13.7193 7.45039C13.6166 7.25088 13.5 7.05305 13.4147 6.90842C13.384 6.85633 13.3574 6.81112 13.3369 6.77525C13.3037 6.72831 13.0437 6.23102 13.0437 6.23102C13.0438 6.22953 13.0424 6.2285 13.0395 6.22789C13.0083 6.18342 12.8146 5.7718 12.8223 5.71531C12.8931 5.31064 13.015 5.0048 13.1512 4.66312C13.1713 4.61292 13.1916 4.56194 13.2121 4.50975C13.2216 4.48921 13.2307 4.47049 13.2392 4.45305C13.2733 4.38327 13.2973 4.33416 13.2947 4.27155C13.2973 4.13267 13.0736 3.62487 12.7225 3.15894L12.6749 3.09559C12.3451 2.65672 12.0627 2.28095 11.5397 2.0632C11.0241 1.84852 10.7221 1.9027 10.5146 1.9399L10.4767 1.94663C10.2239 1.99524 9.87164 2.11008 9.69838 2.21251C9.55987 2.29439 9.47124 2.37589 9.38462 2.45554C9.30072 2.53269 9.21871 2.60811 9.09507 2.68046C8.64128 2.47099 8.37911 2.30936 8.27086 2.24262C8.24648 2.22759 8.22991 2.21738 8.22072 2.21251C8.19838 2.20146 8.1668 2.18536 8.12695 2.16505C7.82753 2.01238 7.06184 1.62196 6.25137 1.35337C5.5741 1.12893 4.86555 1.03567 4.37165 1C4.23369 1.08307 4.14911 1.16723 3.99315 1.32241C3.92833 1.38691 3.85116 1.4637 3.75271 1.55776ZM13.0395 6.22789C13.042 6.23137 13.0435 6.23268 13.0437 6.23102L13.0395 6.22789ZM12.4748 5.65572C12.4433 5.87516 12.692 6.29028 12.692 6.29028C12.7089 6.35387 12.7487 6.43261 12.7927 6.5195C12.8257 6.58454 12.8609 6.65416 12.8906 6.72539C13.0481 7.10374 13.3118 7.52778 13.3369 7.55644C13.4304 7.69569 13.4277 7.85322 13.4252 7.99752C13.423 8.12321 13.421 8.23886 13.4829 8.32363C13.4846 8.3268 13.4908 8.33406 13.501 8.34327C13.4592 8.44258 13.4235 8.57541 13.3926 8.69037C13.3665 8.78715 13.3439 8.87128 13.3239 8.91209C13.2971 8.97048 13.0457 9.44596 12.7857 9.54056C12.5778 9.61617 12.2018 9.89294 12.25 9.9011C12.5244 9.94758 13.354 9.55222 13.4886 9.4066C13.5207 9.33623 13.5763 9.21963 13.6401 9.08588L13.6406 9.08497C13.7469 8.86194 13.876 8.5913 13.9569 8.40822C13.9952 8.40246 14.0349 8.39539 14.0758 8.38726C14.4052 8.32187 14.7849 8.38765 14.7824 8.41343C14.7466 8.78028 14.6043 9.25131 14.4193 9.64084C14.2206 9.99413 14.0124 10.3004 13.8083 10.5306C13.6172 10.7461 13.4367 10.8949 13.0763 10.9531C12.4502 11.054 12.0768 10.86 11.7339 10.6818C11.6686 10.6479 11.6043 10.6145 11.5397 10.5839L11.2888 10.7747C11.0476 10.9964 10.8213 11.0312 10.6225 11.0251C10.3885 11.0179 10.1924 10.9248 10.0546 10.5839C10.0404 10.5565 10.0243 10.5301 10.0068 10.5046C9.97958 10.453 9.9529 10.3972 9.9259 10.3408C9.87057 10.225 9.81384 10.1064 9.74841 10.0149C8.98124 9.45489 9.30534 8.94362 9.51636 8.61074L9.53374 8.58329C9.09526 8.48102 8.51427 8.26364 8.43424 7.97773C8.30555 7.05301 8.37089 6.75966 8.49969 6.28468L8.44127 6.29605C7.88289 6.40464 7.3167 6.51476 6.71855 6.6964C6.7087 6.69486 6.6982 6.69513 6.68703 6.69747C6.51893 6.73273 5.89138 6.88345 5.73134 6.96343C5.54062 7.01447 5.36694 7.04299 5.17806 7.074C5.00652 7.10217 4.82244 7.1324 4.60168 7.18342C4.4509 7.20045 3.32173 7.12776 3.28545 7.09665C3.20836 6.99741 3.18977 6.90714 3.16658 6.79454C3.14258 6.67797 3.11365 6.53747 3.00977 6.33832C2.91994 6.16608 2.56853 5.82721 2.4176 5.68879C1.92358 5.23571 1.83139 4.9704 1.71304 4.50619C1.70722 4.47938 1.69954 4.45239 1.69126 4.42328C1.65719 4.30352 1.61292 4.14785 1.64568 3.8216C1.69113 3.67699 1.69088 3.56389 1.69065 3.46246C1.69028 3.29535 1.68997 3.15988 1.89418 2.96727C2.02343 2.9692 2.14774 2.96302 2.26661 2.9571C2.46179 2.9474 2.6423 2.93842 2.80595 2.96727C2.8338 2.97157 2.86858 2.97537 2.9088 2.97976C3.04302 2.99441 3.23778 3.01567 3.43742 3.08432C3.47941 3.09876 3.58435 3.13635 3.7206 3.18515C4.14955 3.33879 4.88874 3.60355 4.95074 3.60701C5.15963 3.61867 4.1221 3.11263 3.7272 2.92002L3.6429 2.87885C3.47783 2.79796 3.36868 2.75304 3.30156 2.72541C3.24343 2.70149 3.21684 2.69054 3.21276 2.68046C3.64328 2.44696 3.76915 2.28481 3.91251 2.10015C3.99949 1.9881 4.09291 1.86775 4.26473 1.71815C4.3578 1.68076 4.42546 1.62784 4.48764 1.5792C4.5644 1.51916 4.63282 1.46564 4.73042 1.45585C4.88782 1.47883 5.02901 1.49654 5.15935 1.51289C5.53965 1.5606 5.82759 1.59673 6.1566 1.71815C6.88536 1.9871 7.56793 2.31435 8.07453 2.56445C8.21145 2.63318 8.33936 2.69497 8.46263 2.75451C8.63667 2.83858 8.8015 2.9182 8.96935 3.00658C9.22071 3.0829 10.0545 3.61148 10.2765 3.89647C10.5019 4.33595 10.6834 4.81068 10.8336 5.26877C10.8372 5.28461 10.841 5.30264 10.8453 5.32284C10.8656 5.41924 10.8963 5.56529 10.9729 5.761C11.0307 5.90903 11.2196 6.29028 11.2196 6.29028C11.2196 6.29028 11.0457 5.23722 11.0273 5.17795C10.9347 4.88009 10.847 4.49433 10.778 4.19072C10.7168 3.92148 10.6702 3.71681 10.648 3.69537C10.5149 3.54077 10.0079 3.14865 9.66743 2.96727C9.63721 2.95118 9.60862 2.93651 9.58247 2.92311C9.4972 2.87939 9.43797 2.84902 9.43381 2.82593C9.45322 2.80783 9.47029 2.79169 9.48593 2.77692C9.55791 2.70891 9.59943 2.66967 9.69838 2.59963C9.7291 2.57789 9.75908 2.55422 9.78958 2.53013C9.87372 2.46369 9.96177 2.39416 10.0799 2.35368C10.108 2.34201 10.1361 2.32966 10.1644 2.3173C10.2667 2.27249 10.3697 2.22739 10.4713 2.21251C10.9407 2.14375 11.3798 2.23602 11.5816 2.4003C11.9896 2.73249 12.5446 3.41302 12.7936 3.8531C12.8911 4.02893 12.9358 4.1447 12.8906 4.35641C12.8476 4.55694 12.8073 4.67205 12.7612 4.80375L12.7533 4.82637C12.7425 4.8571 12.7233 4.90948 12.6997 4.97354C12.6148 5.20457 12.474 5.58759 12.4748 5.65572ZM6.78224 7.11456C6.4745 7.17999 6.16886 7.26499 5.90528 7.42956C5.84878 7.45094 5.66971 7.67971 5.62168 7.74857C5.45752 7.98393 5.35419 8.23152 5.29199 8.48331C5.63309 9.34939 6.4409 10.5451 8.55118 10.9914C8.55274 10.9119 8.55655 10.8534 8.56384 10.8371C8.60059 10.7551 8.62897 10.688 8.65368 10.6295C8.69175 10.5394 8.72115 10.4699 8.75906 10.3981L8.78245 10.3847C8.53861 10.2609 8.451 10.1552 8.30254 9.97612C8.27392 9.94159 8.24291 9.90417 8.20821 9.86353C7.65199 8.99897 7.0928 8.05696 6.78224 7.11456ZM8.86537 12.535C7.93274 12.5491 6.98452 12.4225 6.22462 12.1305C6.23374 12.1403 6.24266 12.1497 6.25137 12.1589C6.64846 12.5322 6.97593 12.7456 7.48351 13.0406C7.5081 13.0549 8.45701 13.4552 8.92155 13.5235C9.10113 13.5515 9.51265 13.4474 9.393 13.3034C9.39096 13.2994 9.30737 13.1872 9.21355 13.0612C9.11721 12.9318 9.00993 12.7878 8.96935 12.732C8.93877 12.6899 8.9029 12.6196 8.86537 12.535Z"
          fill="none"/>
    <path d="M11.1189 8.10396L11.1155 8.10656C11.1171 8.10812 11.1183 8.10738 11.1189 8.10396Z" fill="#FDEE21"/>
    <path fill-rule="evenodd" clip-rule="evenodd"
          d="M12.6919 6.29028C12.6919 6.29028 12.4433 5.87517 12.4747 5.65572C12.474 5.5876 12.6147 5.20464 12.6997 4.97361L12.7002 4.97211C12.7235 4.9087 12.7426 4.85687 12.7532 4.82638L12.7612 4.80376C12.8073 4.67205 12.8476 4.55694 12.8905 4.35642C12.9358 4.1447 12.8911 4.02893 12.7936 3.85311C12.5445 3.41303 11.9896 2.73249 11.5815 2.4003C11.3797 2.23603 10.9406 2.14375 10.4713 2.21252C10.3697 2.2274 10.2667 2.2725 10.1644 2.3173C10.1361 2.32967 10.1079 2.34201 10.0798 2.35369C9.96174 2.39417 9.87369 2.4637 9.78955 2.53014C9.75906 2.55422 9.72907 2.5779 9.69836 2.59964C9.59941 2.66968 9.55788 2.70891 9.48591 2.77692C9.47027 2.7917 9.45319 2.80783 9.43378 2.82594C9.43794 2.84902 9.49717 2.87939 9.58244 2.92311C9.60858 2.93651 9.63719 2.95118 9.6674 2.96728C10.0079 3.14865 10.5149 3.54077 10.648 3.69537C10.6702 3.71681 10.7167 3.92142 10.7779 4.1906C10.8469 4.49421 10.9347 4.88009 11.0272 5.17795C11.0456 5.23722 11.2196 6.29028 11.2196 6.29028C11.2196 6.29028 11.0307 5.90903 10.9728 5.76101C10.8963 5.5653 10.8656 5.41924 10.8453 5.32284C10.841 5.30264 10.8372 5.28462 10.8336 5.26878C10.6834 4.81068 10.5019 4.33596 10.2764 3.89647C10.0544 3.61148 9.22068 3.0829 8.96933 3.00658C8.80149 2.91821 8.63669 2.83861 8.46266 2.75454C8.3394 2.695 8.21143 2.63319 8.07451 2.56445C7.5679 2.31436 6.88533 1.9871 6.15657 1.71815C5.82756 1.59673 5.53962 1.56061 5.15932 1.5129C5.02898 1.49654 4.8878 1.47883 4.73039 1.45586C4.6328 1.46565 4.56437 1.51917 4.48762 1.5792C4.42543 1.62784 4.35777 1.68076 4.26471 1.71815C4.09289 1.86776 3.99947 1.9881 3.91248 2.10015C3.76913 2.28482 3.64325 2.44697 3.21274 2.68046C3.21681 2.69055 3.24341 2.70149 3.30153 2.72542C3.36865 2.75304 3.47781 2.79797 3.64288 2.87885L3.72717 2.92002C4.12208 3.11263 5.1596 3.61867 4.95071 3.60702C4.88872 3.60356 4.14952 3.33879 3.72058 3.18516C3.58433 3.13635 3.47938 3.09877 3.43739 3.08433C3.23775 3.01568 3.043 2.99442 2.90878 2.97976C2.86856 2.97537 2.83378 2.97158 2.80592 2.96728C2.64228 2.93842 2.46177 2.9474 2.26658 2.95711C2.14772 2.96302 2.02341 2.9692 1.89415 2.96728C1.68994 3.15988 1.69025 3.29535 1.69062 3.46246C1.69085 3.5639 1.69111 3.677 1.64566 3.82161C1.61289 4.14785 1.65717 4.30352 1.69123 4.42328C1.69951 4.4524 1.70719 4.47939 1.71301 4.50619C1.83137 4.9704 1.92355 5.23572 2.41757 5.68879C2.5685 5.82722 2.91991 6.16608 3.00975 6.33832C3.11362 6.53747 3.14255 6.67797 3.16656 6.79454C3.18975 6.90714 3.20833 6.99742 3.28543 7.09666C3.3217 7.12777 4.45087 7.20045 4.60165 7.18342C4.82241 7.1324 5.00649 7.10217 5.17803 7.074C5.36691 7.04299 5.54059 7.01447 5.73132 6.96344C5.89135 6.88345 6.5189 6.73273 6.687 6.69748C6.69818 6.69513 6.70867 6.69486 6.71852 6.69641C7.31668 6.51476 7.88287 6.40465 8.44125 6.29605L8.49966 6.28469C8.37087 6.75966 8.30552 7.05301 8.43421 7.97774C8.51425 8.26364 9.09523 8.48102 9.53371 8.58329L9.51633 8.61074C9.30531 8.94363 8.98122 9.45489 9.74838 10.0149C9.81382 10.1064 9.87055 10.2251 9.92588 10.3408C9.95288 10.3972 9.97956 10.453 10.0068 10.5046C10.0243 10.5301 10.0404 10.5565 10.0546 10.5839C10.1924 10.9248 10.3885 11.0179 10.6225 11.0251C10.8213 11.0312 11.0476 10.9964 11.2888 10.7747L11.5397 10.5839C11.6043 10.6145 11.6685 10.6479 11.7338 10.6818C12.0768 10.86 12.4502 11.054 13.0762 10.9531C13.4366 10.8949 13.6172 10.7461 13.8083 10.5306C14.0123 10.3004 14.2206 9.99413 14.4192 9.64084C14.6043 9.25131 14.7466 8.78028 14.7823 8.41343C14.7849 8.38765 14.4052 8.32187 14.0758 8.38726C14.0349 8.39539 13.9951 8.40246 13.9569 8.40823C13.876 8.59131 13.7469 8.86194 13.6405 9.08497L13.6401 9.08589C13.5764 9.21946 13.5207 9.33631 13.4885 9.4066C13.354 9.55223 12.5244 9.94758 12.2499 9.9011C12.2018 9.89295 12.5778 9.61618 12.7857 9.54056C13.0457 9.44597 13.2971 8.97048 13.3239 8.91209C13.3439 8.87128 13.3665 8.78716 13.3925 8.69037C13.4235 8.57541 13.4592 8.44258 13.501 8.34327C13.4908 8.33406 13.4846 8.3268 13.4828 8.32364C13.4209 8.23887 13.423 8.12322 13.4251 7.99752C13.4276 7.85323 13.4304 7.69569 13.3369 7.55644C13.3118 7.52779 13.0481 7.10375 12.8905 6.7254C12.8609 6.65421 12.8257 6.58463 12.7928 6.51961C12.7488 6.43273 12.7088 6.35387 12.6919 6.29028ZM9.75977 5.29919C9.85958 5.45231 9.95217 5.59435 10.049 5.66469C9.98536 5.53588 9.92834 5.38892 9.86921 5.23652C9.72182 4.85663 9.56111 4.44243 9.25098 4.18837C8.83522 4.06531 8.26844 4.05869 7.70167 4.05207C7.53169 4.05008 7.3617 4.0481 7.1958 4.04297C7.42277 4.09634 7.68976 4.13065 7.95898 4.16525C8.42472 4.22509 8.89715 4.2858 9.18068 4.44753C9.18736 4.46996 9.16944 4.4848 9.14209 4.49673C9.11916 4.49381 9.09632 4.4903 9.07347 4.48678C8.98596 4.47331 8.89844 4.45985 8.80639 4.4799C8.68983 4.51464 8.58212 4.5699 8.47442 4.62515C8.4238 4.65112 8.37316 4.6771 8.32161 4.70094C8.62562 4.64377 8.77968 4.67162 8.95484 4.70328C9.03578 4.71792 9.12122 4.73336 9.22805 4.74161C9.44651 4.81863 9.61115 5.07119 9.75977 5.29919ZM10.6794 9.73303C10.8695 9.99514 11.1969 10.3352 11.5396 10.5824L11.2868 10.7746C11.2868 10.7746 10.85 10.38 10.7483 10.222C10.62 10.0229 10.6522 9.86549 10.6759 9.74983L10.6794 9.73303ZM10.7514 7.79551C10.7514 7.79551 11.0783 7.75152 11.0719 7.7797C11.0505 7.87434 11.1005 8.09195 11.1155 8.10656L10.9351 8.24236C11.2329 8.1042 11.5427 8.09437 11.858 8.08438C11.9503 8.08145 12.0431 8.07851 12.1362 8.07233C12.1362 8.07233 11.7902 7.98415 11.8113 7.98138C11.8885 7.97128 11.7908 7.64829 11.7643 7.6413C11.8301 7.62074 11.8944 7.60524 11.9609 7.58989C11.4661 7.47038 11.18 7.54079 10.7514 7.79551Z"
    />
    <path d="M5.90525 7.42956C6.16884 7.265 6.47447 7.17999 6.78222 7.11456C7.09277 8.05696 7.65196 8.99897 8.20818 9.86353C8.24288 9.90417 8.2739 9.94159 8.30252 9.97612C8.45097 10.1552 8.53858 10.2609 8.78242 10.3847L8.75904 10.3981C8.72112 10.4699 8.69172 10.5394 8.65365 10.6295C8.62895 10.6879 8.60055 10.7551 8.56382 10.8371C8.55652 10.8534 8.55272 10.9119 8.55115 10.9914C6.44087 10.5451 5.63307 9.34939 5.29196 8.48331C5.35417 8.23152 5.4575 7.98393 5.62166 7.74857C5.66969 7.67971 5.84875 7.45095 5.90525 7.42956Z"
    />
    <path d="M6.22459 12.1305C6.98449 12.4225 7.93272 12.5491 8.86534 12.535C8.90288 12.6196 8.93875 12.6899 8.96933 12.732C9.00991 12.7878 9.11719 12.9318 9.21352 13.0612C9.30734 13.1872 9.39093 13.2994 9.39298 13.3034C9.51262 13.4474 9.1011 13.5515 8.92153 13.5235C8.45698 13.4552 7.50808 13.0549 7.48348 13.0406C6.9759 12.7456 6.64844 12.5322 6.25135 12.1589L6.22459 12.1305Z"
    />
</svg>

