<svg xmlns="http://www.w3.org/2000/svg" width="16" height="16" fill="#DB5860">
  <path
      d="M8.783 1.393a1.5 1.5 0 0 0-1.566 0L2.746 4.128a1.5 1.5 0 0 0-.717 1.28v5.102a1.5 1.5 0 0 0 .797 1.325l4.472 2.371a1.5 1.5 0 0 0 1.346.03l4.493-2.133a.5.5 0 0 0-.429-.904l-4.493 2.134a.5.5 0 0 1-.449-.01l-4.472-2.371a.5.5 0 0 1-.265-.442V5.407a.5.5 0 0 1 .239-.426l4.47-2.735a.5.5 0 0 1 .523 0l4.528 2.772a.5.5 0 0 1 .239.427V7.24h-.181a.2.2 0 0 0-.18.29l.677 1.352a.2.2 0 0 0 .358 0l.676-1.352a.2.2 0 0 0-.179-.29h-.171V5.445a1.5 1.5 0 0 0-.717-1.28z"/>
  <path
      d="M8.77 3.87a1.5 1.5 0 0 0-1.544.021l-1.317.816a.5.5 0 1 0 .526.85l1.318-.816a.5.5 0 0 1 .514-.007l2.498 1.455a.5.5 0 0 1 .248.434l-.011 2.829a.5.5 0 0 1-.275.444l-2.505 1.262a.5.5 0 0 1-.454-.002L5.274 9.87a.5.5 0 0 1-.27-.447l.018-3.317a.5.5 0 0 0-1-.005l-.019 3.317a1.5 1.5 0 0 0 .813 1.341l2.494 1.286a1.5 1.5 0 0 0 1.362.006l2.505-1.262a1.5 1.5 0 0 0 .825-1.333l.011-2.83a1.5 1.5 0 0 0-.745-1.301z"/>
  <path
      d="M7.76 5.877a.5.5 0 0 1 .253-.066l-.015 2.195.253-.165-.242.163 2.002.789v.177a.5.5 0 0 1-.28.446l-1.501.739a.5.5 0 0 1-.442 0l-1.5-.738a.5.5 0 0 1-.279-.449V7.172a.5.5 0 0 1 .251-.433z"/>
  <path fill="none" d="M9.823 6.785a.5.5 0 0 1 .195.399l-.007 1.609-2.002-.79z"/>
  <path fill="none" d="m8.013 5.81-.015 2.196L9.841 6.8a.5.5 0 0 0-.073-.052l-1.51-.87a.5.5 0 0 0-.245-.067"/>
</svg>