<!--
  - The MIT License (MIT)
  -
  - Copyright (c) 2015-2023 Elior "Mallowigi" Boukhobza
  -
  - Permission is hereby granted, free of charge, to any person obtaining a copy
  - of this software and associated documentation files (the "Software"), to deal
  - in the Software without restriction, including without limitation the rights
  - to use, copy, modify, merge, publish, distribute, sublicense, and/or sell
  - copies of the Software, and to permit persons to whom the Software is
  - furnished to do so, subject to the following conditions:
  -
  - The above copyright notice and this permission notice shall be included in all
  - copies or substantial portions of the Software.
  -
  - THE SOFTWARE IS PROVIDED "AS IS", WITHOUT WARRANTY OF ANY KIND, EXPRESS OR
  - IMPLIED, INCLUDING BUT NOT LIMITED TO THE WARRANTIES OF MERCHANTABILITY,
  - FITNESS FOR A PARTICULAR PURPOSE AND NONINFRINGEMENT. IN NO EVENT SHALL THE
  - AUTHORS OR COPYRIGHT HOLDERS BE LIABLE FOR ANY CLAIM, DAMAGES OR OTHER
  - LIABILITY, WHETHER IN AN ACTION OF CONTRACT, TORT OR OTHERWISE, ARISING FROM,
  - OUT OF OR IN CONNECTION WITH THE SOFTWARE OR THE USE OR OTHER DEALINGS IN THE
  - SOFTWARE.
  -
  -->

<svg big="true" xmlns="http://www.w3.org/2000/svg" version="1.1"
     viewBox="450 -60 600 600" width="16px" height="16px"
     xml:space="preserve">
    <g fill="#2962ff" iconColor="Liquibase">
        <ellipse class="st0" cx="750.3" cy="72.6" rx="180.9" ry="72.6"></ellipse>
        <path d="M754.4,391.3C696.6,405.1,637,419.4,599,444.6c-19-11.8-29.7-25.4-29.7-38.4c0-57.4,95.9-79.1,188.6-100.1 c66.8-15.1,135-30.6,173.2-61.7v50.6C931.2,348.9,841.3,370.5,754.4,391.3z"></path>
        <path d="M751.2,276.1c-70.4,15.9-142.3,32.2-181.9,66.2v-11.2c0-100,109.7-125.6,215.8-150.5 c77.1-18,114.6-27.5,146.1-52.8v56C931.2,235.4,839.7,256.1,751.2,276.1z"></path>
        <path d="M931.2,357.8c-37.6,31.7-104.3,47.8-169.6,63.4c-46.8,11.2-94.7,22.7-128.6,39.4 c30.7,11,70.9,18.2,117.3,18.2c105.5,0,180.9-37.8,180.9-72.6V357.8z"></path>
    </g>
</svg>
