<svg xmlns="http://www.w3.org/2000/svg" width="16" height="16" fill="#FF7800"  viewBox="0 0 16 17"><path d="M9.4 4.827s-.062-.34.066-.482c.129-.141.49-.127.49-.127s-.245-.25-.12-.355c.154-.127.954.246 1.47.568q.146.091.257.158c.27.164.44.267.823.582.136.113.221.289.31.474.112.233.232.482.471.64q.144.097.28.192c.385.268.699.486.842.324.235-.267-.134-.545-.531-.845a7 7 0 0 1-.352-.276c-.338-.293-.403-.503-.46-.686-.043-.14-.08-.263-.231-.395-.125-.109-.225-.141-.33-.175-.09-.03-.185-.06-.302-.142-.144-.102-.209-.21-.264-.301-.05-.085-.094-.157-.185-.2a8 8 0 0 0-.99-.419c-.454-.154-.93-.289-1.245-.183-.43.144-.483.43-.456.87.022.352.456.778.456.778M3.941 9.874c-.191.324-.269 1.151.15 1.256.642.16.764-1.38.808-1.939l.003-.039c.015-.186.009-.37.003-.544-.012-.348-.022-.65.143-.835.118-.133.253-.144.415-.158q.066-.004.138-.014c.22-.03.385.023.555.078.143.047.29.094.477.094.083 0 .153-.03.217-.059.098-.042.181-.079.273.007.094.088.088.238.081.387-.004.086-.007.171.008.244.03.138.11.245.184.345.08.106.153.205.153.325 0 .389.195.735.613.669.587-.094.336-.916.018-1.178-.223-.184-.401-.528-.183-.718.257-.223.51.045.712.257q.054.058.103.106c.156.15.181.292.213.473.026.144.056.314.161.533.097.204.116.419.135.636.012.137.024.274.056.41.036.157.092.267.15.38.048.095.097.193.137.323.089.287.107.479.13.705q.01.119.027.26c.073.576.258 1.15.767 1.027.359-.085.417-.739.243-1.222-.057-.158-.124-.267-.192-.379a2.2 2.2 0 0 1-.298-.697l-.056-.246a4.6 4.6 0 0 0-.206-.719c-.077-.206-.154-.343-.228-.476a2.5 2.5 0 0 1-.25-.563 3 3 0 0 1-.106-.563c-.02-.186-.04-.368-.14-.656a.75.75 0 0 0-.207-.287c-.114-.113-.228-.226-.239-.464-.007-.158.051-.277.11-.4.086-.179.176-.365.081-.688-.066-.224-.179-.319-.298-.42a1 1 0 0 1-.27-.305c-.068-.121-.055-.22-.043-.312.015-.111.028-.212-.107-.331-.381-.337-1.27-.264-1.667 0-.374.248-.46.526-.533.756-.053.17-.098.315-.244.403-.183.11-.326.15-.47.19-.214.06-.43.12-.779.415-.486.412-.486.652-.486.894v.011c0 .18.047.279.092.372.041.085.08.166.08.3 0 .197-.029.373-.06.557a4 4 0 0 0-.067.67c0 .419-.135.837-.307 1.129"/><path d="M9.433 6.726c.01.187.18.412.18.412s.068-.22.186-.348a.6.6 0 0 1 .242-.163c.058-.024.122-.051.203-.11.109-.079.116-.178.123-.266.006-.075.011-.143.079-.183.181-.106.418.104.662.32.098.088.197.176.295.245.292.207.512.374.731.542.218.166.436.332.727.538.264.188.423.355.57.51.161.17.308.324.562.473q.08.047.157.096c.308.19.604.374.793.144.183-.223-.109-.73-.363-.913a2 2 0 0 0-.342-.196c-.149-.072-.303-.146-.559-.36a11 11 0 0 1-.762-.7c-.135-.134-.248-.195-.358-.253-.076-.04-.15-.08-.23-.143a1.6 1.6 0 0 1-.233-.236 1.6 1.6 0 0 0-.237-.239 3 3 0 0 0-.335-.222c-.152-.093-.314-.191-.488-.342-.332-.288-.886-.729-1.315-.355-.225.195-.14.444-.056.69.047.138.093.275.085.401-.008.133-.086.227-.162.32-.082.098-.163.196-.155.338M3.59 6.704c-.027.23.172.568.172.568s-.388-.086-.535.131c-.124.184-.143.353-.163.544a2 2 0 0 1-.102.499c-.084.235-.196.397-.307.56-.11.16-.221.322-.306.554-.096.262-.112.44-.13.643-.017.19-.036.4-.124.718a4.5 4.5 0 0 0-.116.759c-.038.394-.07.728-.258.8-.211.08-.5 0-.576-.09-.129-.154-.055-.453.015-.736.033-.137.066-.27.075-.382.009-.117.014-.216.019-.308.013-.242.023-.428.09-.731.048-.222.13-.437.217-.67.085-.225.176-.467.25-.747.025-.095.098-.197.181-.312.105-.146.225-.312.278-.51.157-.587.318-.926.666-1.361.385-.482.9-.4.9-.4s-.222.265-.246.47"/><path d="M4.005 6.016s-.11-.39-.052-.662c.053-.255.216-.55.216-.55s-.306.16-.672.266q-.132.037-.259.07c-.237.062-.444.115-.504.185-.117.134-.122.325-.127.485-.003.104-.005.194-.038.247-.046.075-.128.143-.221.219-.073.059-.152.123-.223.2-.065.07-.107.14-.147.209-.06.104-.117.2-.246.27-.242.128-.605.123-.703.026-.078-.079.014-.185.112-.298a1 1 0 0 0 .128-.166l.054-.096c.155-.272.246-.43.387-.63.05-.07.08-.136.11-.206.035-.08.072-.163.144-.26a.9.9 0 0 0 .157-.334.56.56 0 0 1 .157-.287c.153-.15.312-.174.503-.202q.093-.013.196-.033c.12-.026.208-.065.297-.105.083-.037.167-.074.279-.101.083-.02.145-.024.205-.027.107-.005.208-.01.411-.111.36-.178.65-.266.856-.154.106.058.067.226.023.417-.027.116-.056.24-.056.353 0 .232.12.513.12.513s-.407.11-.625.257c-.225.154-.482.505-.482.505"/></svg>