<!--
  - The MIT License (MIT)
  -
  -  Copyright (c) 2015-2022 Elior "Mallowigi" Boukhobza
  -
  -  Permission is hereby granted, free of charge, to any person obtaining a copy
  -  of this software and associated documentation files (the "Software"), to deal
  -  in the Software without restriction, including without limitation the rights
  -  to use, copy, modify, merge, publish, distribute, sublicense, and/or sell
  -  copies of the Software, and to permit persons to whom the Software is
  -  furnished to do so, subject to the following conditions:
  -
  -  The above copyright notice and this permission notice shall be included in all
  -  copies or substantial portions of the Software.
  -
  -  THE SOFTWARE IS PROVIDED "AS IS", WITHOUT WARRANTY OF ANY KIND, EXPRESS OR
  -  IMPLIED, INCLUDING BUT NOT LIMITED TO THE WARRANTIES OF MERCHANTABILITY,
  -  FITNESS FOR A PARTICULAR PURPOSE AND NONINFRINGEMENT. IN NO EVENT SHALL THE
  -  AUTHORS OR COPYRIGHT HOLDERS BE LIABLE FOR ANY CLAIM, DAMAGES OR OTHER
  -  LIABILITY, WHETHER IN AN ACTION OF CONTRACT, TORT OR OTHERWISE, ARISING FROM,
  -  OUT OF OR IN CONNECTION WITH THE SOFTWARE OR THE USE OR OTHER DEALINGS IN THE
  -  SOFTWARE.
  -->
<svg width="16px" height="16px" viewBox="0 0 16 16" fill="#B7C003" xmlns="http://www.w3.org/2000/svg">
  <g big="true">
    <path fill-rule="evenodd" clip-rule="evenodd"
          d="M8 14.2135C11.4316 14.2135 14.2135 11.4316 14.2135 8C14.2135 4.56839 11.4316 1.78652 8 1.78652C4.56839 1.78652 1.78652 4.56839 1.78652 8C1.78652 11.4316 4.56839 14.2135 8 14.2135ZM8 15C11.866 15 15 11.866 15 8C15 4.13401 11.866 1 8 1C4.13401 1 1 4.13401 1 8C1 11.866 4.13401 15 8 15Z"
    />
    <path
      d="M7.04861 4.45901H4.81511V11.5346H6.86914V7.69149L9.07453 11.5346H11.1849V4.45901H9.14545V8.27278L7.04861 4.45901Z"
    />
  </g>
</svg>

