<!--
  - The MIT License (MIT)
  -
  -  Copyright (c) 2015-2022 Elior "Mallowigi" Boukhobza
  -
  -  Permission is hereby granted, free of charge, to any person obtaining a copy
  -  of this software and associated documentation files (the "Software"), to deal
  -  in the Software without restriction, including without limitation the rights
  -  to use, copy, modify, merge, publish, distribute, sublicense, and/or sell
  -  copies of the Software, and to permit persons to whom the Software is
  -  furnished to do so, subject to the following conditions:
  -
  -  The above copyright notice and this permission notice shall be included in all
  -  copies or substantial portions of the Software.
  -
  -  THE SOFTWARE IS PROVIDED "AS IS", WITHOUT WARRANTY OF ANY KIND, EXPRESS OR
  -  IMPLIED, INCLUDING BUT NOT LIMITED TO THE WARRANTIES OF MERCHANTABILITY,
  -  FITNESS FOR A PARTICULAR PURPOSE AND NONINFRINGEMENT. IN NO EVENT SHALL THE
  -  AUTHORS OR COPYRIGHT HOLDERS BE LIABLE FOR ANY CLAIM, DAMAGES OR OTHER
  -  LIABILITY, WHETHER IN AN ACTION OF CONTRACT, TORT OR OTHERWISE, ARISING FROM,
  -  OUT OF OR IN CONNECTION WITH THE SOFTWARE OR THE USE OR OTHER DEALINGS IN THE
  -  SOFTWARE.
  -->
<svg width="16px" height="16px" viewBox="0 0 16 16" fill="#1EDCFF" xmlns="http://www.w3.org/2000/svg">
  <g big="true">
      <path d="M5.21261 3.28014C5.52828 3.28014 5.78418 3.02424 5.78418 2.70857C5.78418 2.3929 5.52828 2.137 5.21261 2.137C4.89694 2.137 4.64104 2.3929 4.64104 2.70857C4.64104 3.02424 4.89694 3.28014 5.21261 3.28014Z"
    />
    <path d="M6.97911 5.11814C7.33422 5.11814 7.62211 4.83026 7.62211 4.47514C7.62211 4.12002 7.33422 3.83214 6.97911 3.83214C6.62399 3.83214 6.33611 4.12002 6.33611 4.47514C6.33611 4.83026 6.62399 5.11814 6.97911 5.11814Z"
    />
    <path d="M9.46036 6.242C9.46036 6.63649 9.14056 6.95629 8.74607 6.95629C8.35158 6.95629 8.03178 6.63649 8.03178 6.242C8.03178 5.84751 8.35158 5.52772 8.74607 5.52772C9.14056 5.52772 9.46036 5.84751 9.46036 6.242Z"
    />
    <path d="M10.5125 8.79429C10.9464 8.79429 11.2981 8.44257 11.2981 8.00871C11.2981 7.57485 10.9464 7.22314 10.5125 7.22314C10.0787 7.22314 9.72697 7.57485 9.72697 8.00871C9.72697 8.44257 10.0787 8.79429 10.5125 8.79429Z"
    />
    <path d="M13.1361 9.77543C13.1361 10.2487 12.7525 10.6323 12.2793 10.6323C11.806 10.6323 11.4224 10.2487 11.4224 9.77543C11.4224 9.3022 11.806 8.91857 12.2793 8.91857C12.7525 8.91857 13.1361 9.3022 13.1361 9.77543Z"
    />
    <path d="M2.17945 2.70843C2.17945 2.98473 1.95546 3.20871 1.67916 3.20871C1.40286 3.20871 1.17888 2.98473 1.17888 2.70843C1.17888 2.43213 1.40286 2.20814 1.67916 2.20814C1.95546 2.20814 2.17945 2.43213 2.17945 2.70843Z"
    />
    <path d="M4.01746 4.47514C4.01746 4.79081 3.76155 5.04671 3.44588 5.04671C3.13021 5.04671 2.87431 4.79081 2.87431 4.47514C2.87431 4.15947 3.13021 3.90357 3.44588 3.90357C3.76155 3.90357 4.01746 4.15947 4.01746 4.47514Z"
    />
    <path d="M5.21263 6.88486C5.56775 6.88486 5.85563 6.59698 5.85563 6.24186C5.85563 5.88674 5.56775 5.59886 5.21263 5.59886C4.85751 5.59886 4.56963 5.88674 4.56963 6.24186C4.56963 6.59698 4.85751 6.88486 5.21263 6.88486Z"
    />
    <path d="M7.69363 8.00857C7.69363 8.40306 7.37384 8.72286 6.97935 8.72286C6.58486 8.72286 6.26506 8.40306 6.26506 8.00857C6.26506 7.61408 6.58486 7.29429 6.97935 7.29429C7.37384 7.29429 7.69363 7.61408 7.69363 8.00857Z"
    />
    <path d="M8.74582 10.5609C9.17968 10.5609 9.53139 10.2091 9.53139 9.77528C9.53139 9.34143 9.17968 8.98971 8.74582 8.98971C8.31196 8.98971 7.96025 9.34143 7.96025 9.77528C7.96025 10.2091 8.31196 10.5609 8.74582 10.5609Z"
    />
    <path d="M11.3696 11.542C11.3696 12.0152 10.986 12.3989 10.5128 12.3989C10.0396 12.3989 9.65593 12.0152 9.65593 11.542C9.65593 11.0688 10.0396 10.6851 10.5128 10.6851C10.986 10.6851 11.3696 11.0688 11.3696 11.542Z"
    />
    <path d="M9.38884 2.70856C9.38884 3.06368 9.10096 3.35156 8.74584 3.35156C8.39072 3.35156 8.10284 3.06368 8.10284 2.70856C8.10284 2.35344 8.39072 2.06556 8.74584 2.06556C9.10096 2.06556 9.38884 2.35344 9.38884 2.70856Z"
    />
    <path d="M11.2268 4.47528C11.2268 4.86977 10.907 5.18956 10.5126 5.18956C10.1181 5.18956 9.79827 4.86977 9.79827 4.47528C9.79827 4.08079 10.1181 3.76099 10.5126 3.76099C10.907 3.76099 11.2268 4.08079 11.2268 4.47528Z"
    />
    <path d="M12.2793 7.02756C12.7131 7.02756 13.0648 6.67585 13.0648 6.24199C13.0648 5.80813 12.7131 5.45642 12.2793 5.45642C11.8454 5.45642 11.4937 5.80813 11.4937 6.24199C11.4937 6.67585 11.8454 7.02756 12.2793 7.02756Z"
    />
    <path d="M14.9029 8.00871C14.9029 8.48194 14.5192 8.86557 14.046 8.86557C13.5728 8.86557 13.1891 8.48194 13.1891 8.00871C13.1891 7.53548 13.5728 7.15185 14.046 7.15185C14.5192 7.15185 14.9029 7.53548 14.9029 8.00871Z"
    />
    <path d="M5.21274 10.3469C5.52841 10.3469 5.78431 10.091 5.78431 9.77528C5.78431 9.45961 5.52841 9.20371 5.21274 9.20371C4.89707 9.20371 4.64117 9.45961 4.64117 9.77528C4.64117 10.091 4.89707 10.3469 5.21274 10.3469Z"
    />
    <path d="M4.01759 11.542C4.01759 11.8577 3.76168 12.1136 3.44601 12.1136C3.13034 12.1136 2.87444 11.8577 2.87444 11.542C2.87444 11.2263 3.13034 10.9704 3.44601 10.9704C3.76168 10.9704 4.01759 11.2263 4.01759 11.542Z"
    />
    <path d="M1.67931 13.8803C1.99506 13.8803 2.25103 13.6243 2.25103 13.3086C2.25103 12.9928 1.99506 12.7369 1.67931 12.7369C1.36356 12.7369 1.1076 12.9928 1.1076 13.3086C1.1076 13.6243 1.36356 13.8803 1.67931 13.8803Z"
    />
    <path d="M5.78431 13.3087C5.78431 13.6244 5.52841 13.8803 5.21274 13.8803C4.89707 13.8803 4.64117 13.6244 4.64117 13.3087C4.64117 12.993 4.89707 12.7371 5.21274 12.7371C5.52841 12.7371 5.78431 12.993 5.78431 13.3087Z"
    />
    <path d="M8.74594 13.8804C9.06161 13.8804 9.31751 13.6245 9.31751 13.3088C9.31751 12.9932 9.06161 12.7373 8.74594 12.7373C8.43027 12.7373 8.17437 12.9932 8.17437 13.3088C8.17437 13.6245 8.43027 13.8804 8.74594 13.8804Z"
    />
    <path d="M7.55091 11.542C7.55091 11.8577 7.29501 12.1136 6.97934 12.1136C6.66367 12.1136 6.40777 11.8577 6.40777 11.542C6.40777 11.2263 6.66367 10.9704 6.97934 10.9704C7.29501 10.9704 7.55091 11.2263 7.55091 11.542Z"
    />
  </g>
</svg>
