<svg xmlns="http://www.w3.org/2000/svg" width="16" height="16" fill="none" data-big="true"><path fill="#F60" d="M13.392 6.449H9.644a.61.61 0 0 1-.528-.61V1.904a.605.605 0 0 0-.605-.605H7.2a.605.605 0 0 0-.605.605V5.88a.62.62 0 0 1-.561.57h-.982a.61.61 0 0 1-.53-.57V1.905a.605.605 0 0 0-.605-.605H2.605A.605.605 0 0 0 2 1.905v11.477c0 .336.272.605.605.605h10.79a.605.605 0 0 0 .605-.605V7.054a.607.607 0 0 0-.608-.605m-1.727 4.34a.605.605 0 0 1-.604.605H9.749a.605.605 0 0 1-.605-.605V9.55c0-.336.272-.605.605-.605h1.311c.336 0 .605.272.605.605z"/></svg>