<svg xmlns="http://www.w3.org/2000/svg" width="16" height="16" fill="#40B6E0" data-big="true"><path d="M6 1a1 1 0 0 0-1 1v1.075l-.879-.616a1 1 0 1 0-1.147 1.639l2.386 1.67a1 1 0 0 0 .792.22A.997.997 0 0 0 7 4.899V2a1 1 0 0 0-1-1M10 1a1 1 0 0 0-1 1v3a1 1 0 0 0 1.612.79l2.421-1.695a1 1 0 1 0-1.147-1.638l-.886.62V2a1 1 0 0 0-1-1M1.28 7.488a1 1 0 0 1 .94-1.766l2.558 1.361a.996.996 0 0 1 .565 1.26 1 1 0 0 1-.566.597L2.18 10.262a1 1 0 1 1-.908-1.782l.956-.487zM15.133 6.136a1 1 0 0 1-.413 1.352l-.95.505.957.487a1 1 0 1 1-.908 1.782L11.223 8.94a1 1 0 0 1-.566-.598.997.997 0 0 1 .565-1.259l2.559-1.36a1 1 0 0 1 1.352.413M4.116 13.542l.884-.62V14a1 1 0 1 0 2 0v-3a1 1 0 0 0-1.615-.788l-2.417 1.692a1 1 0 1 0 1.148 1.638M10 10a1 1 0 0 0-1 1v3a1 1 0 1 0 2 0v-1.083l.89.624a1 1 0 0 0 1.148-1.639l-2.457-1.72A1 1 0 0 0 10 10M8.354 6.354a.5.5 0 0 0-.708 0L6.354 7.646a.5.5 0 0 0 0 .708l1.292 1.292a.5.5 0 0 0 .708 0l1.292-1.292a.5.5 0 0 0 0-.708z"/></svg>