<svg xmlns="http://www.w3.org/2000/svg" width="16" height="16" fill="#F26522" ><path fill-rule="evenodd" d="M4.137 2.658c.027.068.133.15.224.235 0 0 .94.917 1.055 1.048.52.601.746 1.193.768 2.01.012.524-.087.984-.334 1.52-.44.96-1.369 2.019-2.8 3.194l.21-.07c.135-.101.319-.209.75-.446.996-.545 2.117-1.046 3.49-1.562 1.98-.744 7.279-1.929 7.279-1.929s-.315-.471-.455-.644a5.1 5.1 0 0 0-1.501-1.25c-.829-.463-1.901-.825-3.258-1.093-.256-.05-.819-.148-1.275-.218-.969-.15-1.595-.254-2.284-.372a24 24 0 0 1-.863-.159 6 6 0 0 1-.56-.15c-.152-.059-.372-.118-.419-.298 0 0-.072.074-.027.184m1.474.679c.014.015.343.878.343.878s-.1-.15-.402-.49c-.3-.34-.552-.6-.552-.572 0 0 .596.169.61.184m1.557.272-.932.749s-.249-.945-.249-.949zm.572 1.436s-1.345-.397-1.345-.402c0-.012 1.167-1.01 1.186-1.004zM8.998 3.88c.294.057.72.146.746.157.013.004-.031.03-.173.093a9 9 0 0 0-1.385.752 7 7 0 0 1-.2.131c-.003 0-.005-.06-.005-.135 0-.402-.08-.808-.229-1.15a.3.3 0 0 1-.025-.068c.006-.006.875.144 1.27.22m.93.503c-.076.315-.281.783-.533 1.223a1.4 1.4 0 0 1-.088.143 1 1 0 0 1-.127-.067 7 7 0 0 0-.83-.406c-.084-.036-.158-.066-.16-.07-.015-.013.666-.463 1.026-.679.285-.173.75-.431.759-.423.006.007-.021.178-.047.28m2.07.438.077.035.077.035-.108.025c-.91.21-1.378.37-2.128.675a2 2 0 0 1-.12.046.6.6 0 0 1 .043-.108c.227-.48.517-1.287.517-1.287s1.27.41 1.641.58M7.44 5.37c0 .002-.963.947-.963.947s-.085-1.305-.083-1.307c0 0 1.046.347 1.046.36m4.816-.005c-.127.182-1.444 1.616-1.444 1.616s-.58-.52-.916-.8a5 5 0 0 0-.156-.126.2.2 0 0 1-.042-.036c0-.007.36-.115.632-.225.478-.194 1.129-.404 1.617-.554.256-.08.53-.186.533-.181 0 0-.135.182-.224.306m.508-.196s.642.465 1.04.854c.111.11.373.402.369.404-.192 0-2.902.622-2.902.622s-.023-.032.08-.132c.643-.62 1.413-1.748 1.413-1.748m-4.318.61c.19.096.476.248.49.26.003.003-.099.056-.224.117-.397.199-1.279.715-1.28.715-.01 0 .562-1.33.568-1.33 0 0 .239.135.446.239M7.01 7.029l-.51-.28S7.648 5.584 7.654 5.59 7.01 7.028 7.01 7.028m3.047-.14c.12.1.394.322.394.322l-2.48.87S8.9 6.949 9.267 6.397l.074-.114zm-1.685.147c-.207.275-.958 1.237-.962 1.24-.006.002-.245-.853-.235-.863.04-.036.656-.468 1.045-.677.262-.14.672-.347.679-.343.004.004-.353.412-.527.643m-1.988.013c.007 0 .316.187.316.187s-.863.882-.842.85c.14-.213.522-1.037.526-1.037m.628 1.332s-1.038.418-1.361.566c-.091.042-.613.288-.533.229.632-.46 1.609-1.517 1.713-1.57z" clip-rule="evenodd"/><path fill-rule="evenodd" d="M5.909 1.478c.484-.196 1.235-.467 1.281-.46.023.001.028.01.064.154.065.236.184.566.308.852.161.368.436.913.685 1.353l.043.076-.454-.07a8 8 0 0 1-.17-.306c-.062-.115-.116-.216-.12-.216.009.01-.356.241-.593.38l-.546-.092c.064-.03.487-.264.678-.387.21-.134.391-.288.391-.288h-.04c-.132.003-.478.01-.956-.079a9 9 0 0 1-1.135-.297L6.3 3.125v.006l-.543-.093-.05-.062-.012-.016a81 81 0 0 0-.661-.711s-.571.316-.606.464c-.116-.048-.23-.114-.263-.236.046-.068.17-.187.27-.259.313-.22.82-.473 1.474-.74m-.362.435s1.484.368 1.772.29c.037-.01-.303-.865-.307-.867-.06.01-1.474.568-1.465.577M3.073 10.658l-.033.026c-.172.136-.425.39-.554.55-.193.241-.345.497-.41.694-.117.355-.06.714.164 1.046.288.423.861.854 1.53 1.148.34.15.913.343 1.344.45.717.183 2.104.38 2.867.409.154.006.362.006.37 0 .017-.01.135-.237.273-.518.47-.958.807-1.857.991-2.624.11-.465.197-1.085.254-1.819.015-.205.021-.892.009-1.124a8 8 0 0 0-.109-1.006l-.347.096c.074.25.14 1.051.14 1.051s-1.129-.618-1.281-.715q-.202.063-.384.125c.23.14 1.334.815 1.561.914.079.034-1.72.84-1.72.84s.095-1.473.114-1.74a12 12 0 0 0-.406.147c.003.193-.028.592-.052.913a6 6 0 0 0-.028.477A37 37 0 0 1 6.67 8.91l-.36.146c.11.163.858 1.303.858 1.303s-1.753.602-1.872.641c-.018.006.854-1.679.985-1.931q-.295.123-.574.246c-.043.084-.11.212-.189.36-.25.473-.607 1.152-.644 1.253a.95.95 0 0 1-.217-.385 2 2 0 0 1 .01-.63l.003-.011c.014-.068.02-.097.034-.115q-.24.12-.47.241 0 .02-.005.052a3 3 0 0 0-.023.226c-.014.237.06.375.165.568a5 5 0 0 1 .174.354l-2.004.547c-.015.004.328-.596.658-.939.152-.158.577-.5.832-.698l-.02.011c-.432.237-.616.345-.751.447zm1.801.27q-.01.024.008.002-.002.002-.008-.002m2.492-.93q0 .003.002.002zm2.06 1.023.132-1.22s-1.544.683-1.558.696zm-1.699-.383a1 1 0 0 0-.114-.062l-.007.018q-.008.024-.023.06a10.4 10.4 0 0 1-.666 1.517c-.048.09-.086.165-.086.167s.023-.004.048-.015l.299-.112c.945-.353 1.869-.738 2.15-.895l.068-.038-.05-.01a6.4 6.4 0 0 1-1.619-.63m-.486.146a1 1 0 0 0 .036-.098l-.152.062c-.582.25-1.168.452-1.857.64l-.192.053.038.047c.26.328.657.666 1.106.94l.141.085c.002 0 .068-.112.146-.251.309-.546.55-1.032.734-1.478m1.635 2.245s.191-.446.265-.71c.09-.315.205-.635.205-.635l-.06.027c-.191.085-.805.357-1.36.572-.516.201-1.017.347-1.174.393l-.05.015c.012.01 2.174.338 2.174.338m-5.825.164.053.04s1.443-1.648 1.439-1.652l-.636.21-1.47.488q-.032.008.002.158c.022.096.147.303.291.465.14.159.25.239.321.29m1.855-1.291-.067-.076s-1.193 1.28-1.391 1.567l-.062.089.038.027c.022.015.04.028.043.028s.279-.096.615-.214a35 35 0 0 0 1.722-.677.6.6 0 0 0-.114-.074c-.377-.22-.48-.33-.784-.67m3.775 1.512c-.307-.025-2.127-.369-2.117-.379 0 .002-.934 1.17-1.012 1.242l-.005.004q0 .001.005-.004c.1-.043 1.62-.438 2.526-.674.387-.1.662-.172.666-.174.009-.007-.017-.01-.063-.015m-3.656.729s1.106-1.239 1.104-1.24c-.001-.002-.7.285-1.312.536-.48.197-.904.372-.895.367-.042.01 1.103.337 1.103.337m3.079.534c.014.003.46-.849.45-.87-.06.008-2.43.646-2.43.646s1.944.222 1.98.225" clip-rule="evenodd"/></svg>