<svg xmlns="http://www.w3.org/2000/svg" width="16" height="16" fill="#389FD6" data-big="true"><path d="M7.169 1.445a1.19 1.19 0 0 0 0 1.683l2.756 2.753.736-.734-2.774-2.775.208-.21 2.776 2.775.737-.736-2.755-2.756a1.19 1.19 0 0 0-1.684 0M8.882 5.273a1.19 1.19 0 1 1-1.684 1.684L4.444 4.2l.737-.739 2.774 2.775.21-.207-2.776-2.774.737-.739zM10.742 8.846A1.19 1.19 0 0 1 9.06 7.163l2.756-2.756.737.737-2.775 2.775.209.208 2.774-2.774.738.737zM1.481 8.846a1.187 1.187 0 0 0 1.683 0L5.92 6.092l-.74-.739L2.408 8.13l-.207-.21 2.773-2.774-.737-.737-2.755 2.756a1.187 1.187 0 0 0 0 1.682M6.992 7.135a1.19 1.19 0 0 0-1.683 0L2.553 9.889l.74.738 2.772-2.775.21.21L3.5 10.836l.737.736 2.756-2.755a1.19 1.19 0 0 0 0-1.682M8.882 12.853a1.19 1.19 0 0 1-1.684 1.68l-2.754-2.756.737-.735 2.774 2.774.21-.209-2.776-2.775.737-.737zM7.169 9.024a1.19 1.19 0 0 0 0 1.683l2.756 2.753.736-.737L7.887 9.95l.208-.208 2.776 2.774.737-.737-2.755-2.754a1.186 1.186 0 0 0-1.684 0M14.57 7.133a1.187 1.187 0 0 0-1.681 0L10.133 9.89l.738.735 2.774-2.772.208.206-2.775 2.775.738.737 2.754-2.753a1.19 1.19 0 0 0 0-1.684"/></svg>