<!--
  - The MIT License (MIT)
  -
  -  Copyright (c) 2015-2022 Elior "Mallowigi" Boukhobza
  -
  -  Permission is hereby granted, free of charge, to any person obtaining a copy
  -  of this software and associated documentation files (the "Software"), to deal
  -  in the Software without restriction, including without limitation the rights
  -  to use, copy, modify, merge, publish, distribute, sublicense, and/or sell
  -  copies of the Software, and to permit persons to whom the Software is
  -  furnished to do so, subject to the following conditions:
  -
  -  The above copyright notice and this permission notice shall be included in all
  -  copies or substantial portions of the Software.
  -
  -  THE SOFTWARE IS PROVIDED "AS IS", WITHOUT WARRANTY OF ANY KIND, EXPRESS OR
  -  IMPLIED, INCLUDING BUT NOT LIMITED TO THE WARRANTIES OF MERCHANTABILITY,
  -  FITNESS FOR A PARTICULAR PURPOSE AND NONINFRINGEMENT. IN NO EVENT SHALL THE
  -  AUTHORS OR COPYRIGHT HOLDERS BE LIABLE FOR ANY CLAIM, DAMAGES OR OTHER
  -  LIABILITY, WHETHER IN AN ACTION OF CONTRACT, TORT OR OTHERWISE, ARISING FROM,
  -  OUT OF OR IN CONNECTION WITH THE SOFTWARE OR THE USE OR OTHER DEALINGS IN THE
  -  SOFTWARE.
  -->
<svg big="true" width="16px" height="16px" viewBox="0 0 16 16" xmlns="http://www.w3.org/2000/svg">
    <path d="M7.5826 9.82407C6.58461 8.82608 6.58461 7.20801 7.5826 6.21002L9.11003 4.68259C10.108 3.6846 11.7261 3.6846 12.7241 4.68259L14.2515 6.21002C15.2495 7.20801 15.2495 8.82608 14.2515 9.82407L12.7241 11.3515C11.7261 12.3495 10.108 12.3495 9.11003 11.3515L7.5826 9.82407Z"
          fill="url(#paint0_linear_1228_29899)"/>
    <path d="M1.92225 10.224C0.692583 8.99433 0.692582 7.00064 1.92225 5.77097L3.90096 3.79226C5.13063 2.56259 7.12432 2.56259 8.35399 3.79226L10.3327 5.77097C11.5624 7.00064 11.5624 8.99433 10.3327 10.224L8.35399 12.2027C7.12432 13.4324 5.13063 13.4324 3.90096 12.2027L1.92225 10.224Z"
          fill="url(#paint1_linear_1228_29899)"/>
    <path d="M9.17827 4.61919L10.3326 5.77349C11.5622 7.00316 11.5622 8.99685 10.3326 10.2265L9.15811 11.401C9.14189 11.3856 9.12582 11.3699 9.10991 11.354L7.58248 9.82658C6.58449 8.82859 6.58448 7.21052 7.58248 6.21253L9.1099 4.6851C9.13238 4.66262 9.15517 4.64065 9.17827 4.61919Z"
          fill="#FF0D2A"/>
    <defs>
        <linearGradient id="paint0_linear_1228_29899" x1="15" y1="7.87001" x2="1" y2="7.87001"
                        gradientUnits="userSpaceOnUse">
            <stop stop-color="#FF0D2A"/>
            <stop offset="0.416667" stop-color="#FF0D2A" stop-opacity="0.55"/>
            <stop offset="1" stop-color="#FF0D2A"/>
        </linearGradient>
        <linearGradient id="paint1_linear_1228_29899" x1="15" y1="7.87001" x2="1" y2="7.87001"
                        gradientUnits="userSpaceOnUse">
            <stop stop-color="#FF0D2A"/>
            <stop offset="0.416667" stop-color="#FF0D2A" stop-opacity="0.55"/>
            <stop offset="1" stop-color="#FF0D2A"/>
        </linearGradient>
    </defs>
</svg>
