<!--
  - The MIT License (MIT)
  -
  -  Copyright (c) 2015-2022 Elior "Mallowigi" Boukhobza
  -
  -  Permission is hereby granted, free of charge, to any person obtaining a copy
  -  of this software and associated documentation files (the "Software"), to deal
  -  in the Software without restriction, including without limitation the rights
  -  to use, copy, modify, merge, publish, distribute, sublicense, and/or sell
  -  copies of the Software, and to permit persons to whom the Software is
  -  furnished to do so, subject to the following conditions:
  -
  -  The above copyright notice and this permission notice shall be included in all
  -  copies or substantial portions of the Software.
  -
  -  THE SOFTWARE IS PROVIDED "AS IS", WITHOUT WARRANTY OF ANY KIND, EXPRESS OR
  -  IMPLIED, INCLUDING BUT NOT LIMITED TO THE WARRANTIES OF MERCHANTABILITY,
  -  FITNESS FOR A PARTICULAR PURPOSE AND NONINFRINGEMENT. IN NO EVENT SHALL THE
  -  AUTHORS OR COPYRIGHT HOLDERS BE LIABLE FOR ANY CLAIM, DAMAGES OR OTHER
  -  LIABILITY, WHETHER IN AN ACTION OF CONTRACT, TORT OR OTHERWISE, ARISING FROM,
  -  OUT OF OR IN CONNECTION WITH THE SOFTWARE OR THE USE OR OTHER DEALINGS IN THE
  -  SOFTWARE.
  -->
<svg big="true" width="16px" height="16px" viewBox="0 0 16 16" fill="none" xmlns="http://www.w3.org/2000/svg">
    <defs>
        <mask id='Mask'>
            <path d="M1.5 4.5L8 0.5L14.5 4.5V11.5L8 15.5L1.5 11.5V4.5Z" fill="white"/>
            <path d="M8.00213 3.00031L3.67847 5.48865V8.01657L5.8403 6.76019L5.85933 11.7617L8.00213 13V5.50381L10.1392 4.26181L8.00213 3.00031Z"
                  fill="black"/>
            <path d="M12.3242 5.48047L10.2031 6.78125V11.7695L12.3242 10.5231V5.48047Z" fill="black"/>

        </mask>
    </defs>
    <g mask="url(#Mask)">
        <path d="M1.5 4.5L8 0.5L14.5 4.5V11.5L8 15.5L1.5 11.5V4.5Z" fill="#E30C34"/>
        <path d="M8.00213 3.00031L3.67847 5.48865V8.01657L5.8403 6.76019L5.85933 11.7617L8.00213 13V5.50381L10.1392 4.26181L8.00213 3.00031Z"
              fill="white"/>
        <path d="M12.3242 5.48047L10.2031 6.78125V11.7695L12.3242 10.5231V5.48047Z" fill="white"/>
    </g>
</svg>

