<svg xmlns="http://www.w3.org/2000/svg" width="16" height="16" ><g clip-path="url(#a)"><path fill="none" d="M6.255 14.184c.236-.157-.381-.098-.433-.203a4 4 0 0 1-.722-.13c-.443-.113-1.494-.823-1.604-1.49-.11-.665 0-1.96.469-2.717.3-.465.684-.869 1.135-1.19 0 0-.915-2.174-.994-3.817C4.026 2.995 4.144.054 5.23 0s.895 2.685.723 4.466c-.11 1.183-.074 3.54 0 4.726 1.94-.566 2.9-.092 2.9-.092s.03-1.532.443-1.444l-.65-.217c.155-.805.559-2.476 1.39-3.632 1.133-1.573 2.307-3.192 3.075-2.733.769.458-.207 2.098-.886 2.951-.68.853-1.858 2.134-2.25 2.818q-.385.684-.679 1.412c.7.36 1.272.924 1.64 1.62.53 1.096.582 2.456.295 3.03a2.08 2.08 0 0 1-1.438 1.025c-.338.026-1.77.379-1.77.379z"/><path fill="#DD00A1" d="M8.756 7.927s.853-2.229 1.619-3.484c.766-1.256 1.793-2.201 2.116-2.009s-.66 1.37-1.516 2.516a29 29 0 0 0-1.907 3.17zM5.333 8.311l.243-.192s-.033-2.229 0-3.587c.034-1.358.105-3.051-.348-3.033-.454.018-.769 1.32-.592 3.172.13 1.23.364 2.448.697 3.64"/><path fill="none" d="M7.567 14.12c1.995 0 3.613-1.166 3.613-2.604 0-1.437-1.618-2.603-3.613-2.603s-3.612 1.166-3.612 2.603 1.617 2.604 3.612 2.604"/><path fill="#DD00A1" d="M4.567 13.095a.497.497 0 1 0 0-.994.497.497 0 0 0 0 .994M10.44 13.095a.497.497 0 1 0 0-.994.497.497 0 0 0 0 .994M8.328 12.554a.05.05 0 0 0-.064 0s-.146.256-.361.272a.54.54 0 0 1-.385-.18v-.348c.139-.075.362-.305.362-.384a.36.36 0 0 0-.385-.28c-.256 0-.435.167-.435.305 0 .139.282.315.361.37v.37a.45.45 0 0 1-.333.18c-.205 0-.359-.277-.359-.28a.05.05 0 0 0-.064-.02.046.046 0 0 0-.02.06c0 .014.182.33.443.33a.53.53 0 0 0 .384-.185.63.63 0 0 0 .408.187h.035a.63.63 0 0 0 .439-.32.046.046 0 0 0 0-.064.1.1 0 0 0-.026-.013M5.579 10.978a.39.39 0 1 0 .005 0zm.102.362a.108.108 0 1 1 .108-.108.107.107 0 0 1-.105.11zM9.409 10.978a.39.39 0 1 0-.005.779.39.39 0 0 0 .005-.779m.115.362a.1.1 0 0 1-.077-.03.1.1 0 0 1-.033-.075.11.11 0 0 1 .105-.11.11.11 0 0 1 .101.063.1.1 0 0 1 .002.082.11.11 0 0 1-.095.067z"/><path fill="#DD00A1" fill-rule="evenodd" d="M11.94 8.347v1.722a.66.66 0 0 1 .49.617v1.315a.7.7 0 0 1-.735.666h-.257a3.3 3.3 0 0 1-.92 1.301l.334.305a.2.2 0 0 1 .023.285c-.751.922-1.98 1.434-3.367 1.434-1.386 0-2.613-.53-3.364-1.434a.2.2 0 0 1 .023-.282l.33-.3a3.3 3.3 0 0 1-.919-1.31h-.233a.704.704 0 0 1-.738-.663v-1.317a.707.707 0 0 1 .738-.66h.171c.503-1.789 2.024-2.89 4.002-2.89s3.493 1.111 4.005 2.89h.051V8.346a.636.636 0 0 1-.494-.587.679.679 0 0 1 1.35 0 .63.63 0 0 1-.49.587m-1.106 3.38c0-1.479-1.486-2.683-3.316-2.683v-.013c-1.837 0-3.315 1.217-3.315 2.683 0 1.609 1.668 2.318 3.315 2.318s3.316-.704 3.316-2.306M7.518 8.81a4.5 4.5 0 0 0-1.227.177v-1.34c.4-.112.813-.168 1.227-.164.416-.004.83.052 1.23.164v1.347a4 4 0 0 0-1.23-.184m4.545 2.76h-.489v-.257a4.8 4.8 0 0 0-.1-.971h.21a.346.346 0 0 1 .37.32zm-.625.773h.256v-.003h.016a.34.34 0 0 0 .348-.338v-.218h-.512a4 4 0 0 1-.108.559m-3.92 3.31c-1.227 0-2.32-.44-3.007-1.224l.333-.31a4.58 4.58 0 0 0 2.664.768 4.54 4.54 0 0 0 2.665-.768l.345.31c-.678.784-1.762 1.224-3 1.224m-4.053-4.327q0-.49.098-.971h-.257a.325.325 0 0 0-.317.33v.897h.476a2 2 0 0 1 0-.256m.023.458q.038.28.11.554h-.256a.346.346 0 0 1-.369-.32v-.234zm8.575-4.025c0 .153-.137.277-.307.277s-.307-.124-.307-.277c0-.152.137-.276.307-.276s.307.124.307.276" clip-rule="evenodd"/></g><defs><clipPath id="a"><path fill="#fff" d="M0 0h16v16H0z"/></clipPath></defs></svg>