<svg xmlns="http://www.w3.org/2000/svg" width="16" height="16" fill="#7E57C2" data-big="true"><path fill-rule="evenodd" d="M11.647 3.802a5.5 5.5 0 0 0-3.602-1.329 5.5 5.5 0 0 0-3.914 1.62A5.49 5.49 0 0 0 2.511 8a5.5 5.5 0 0 0 .367 1.983q-.54.534-1.021 1.12-.295.36-.541.754a3 3 0 0 0-.223.434q-.051.125-.077.26a.7.7 0 0 0 .007.33.4.4 0 0 0 .03.078l.007.017.01.017a.5.5 0 0 0 .234.211.8.8 0 0 0 .325.062q.262-.008.512-.085.453-.138.879-.344.68-.33 1.324-.73a5.52 5.52 0 0 0 3.702 1.42 5.5 5.5 0 0 0 3.914-1.619A5.49 5.49 0 0 0 13.581 8a5.5 5.5 0 0 0-.154-1.304c-.048.141-.105.254-.171.312l-.289.25q.056.368.054.743a4.93 4.93 0 0 1-1.457 3.514 4.95 4.95 0 0 1-3.519 1.455 4.97 4.97 0 0 1-3.21-1.172 33 33 0 0 0 2.72-1.995c.45-.365.914-.76 1.38-1.178l.06-.055c.413-.387.84-.786 1.253-1.189a.12.12 0 0 0 .006-.162.12.12 0 0 0-.163-.016 75 75 0 0 0-1.34 1.066l-.072.057c-.406.322-.846.66-1.423 1.094l-.052.04-.037.026c-.445.33-.903.669-1.363.988-.533.374-.976.671-1.385.93a4.94 4.94 0 0 1-1.35-3.402 4.93 4.93 0 0 1 1.458-3.514 4.95 4.95 0 0 1 3.518-1.455 4.95 4.95 0 0 1 2.792.853c.217-.059.529-.08.81-.084m-7.71 7.902a5.5 5.5 0 0 1-.941-1.437c-.31.382-.575.72-.824 1.074a7 7 0 0 0-.468.738 3 3 0 0 0-.171.375 1 1 0 0 0-.046.175.3.3 0 0 0 0 .108l.004.005.003.002.009.004q.055.015.113.01.192-.013.374-.075.409-.136.79-.333a15 15 0 0 0 1.157-.646" clip-rule="evenodd"/><path d="M15 2.843s-1.326-.212-1.768.172l-.812.704-.075.065-.038.033s-1.384-.092-1.684.168l-.308.268-.115.097-.123.108-.033.027.642.737c-.198.171-.056.658.317 1.087s.836.636 1.034.464l.641.737.02-.017.25-.217.308-.268c.3-.26.4-1.641.4-1.641l.078-.067.062-.054.786-.683c.441-.38.418-1.72.418-1.72"/></svg>