<!--
  - The MIT License (MIT)
  -
  - Copyright (c) 2015-2024 Elior "Mallowigi" Boukhobza
  -
  - Permission is hereby granted, free of charge, to any person obtaining a copy
  - of this software and associated documentation files (the "Software"), to deal
  - in the Software without restriction, including without limitation the rights
  - to use, copy, modify, merge, publish, distribute, sublicense, and/or sell
  - copies of the Software, and to permit persons to whom the Software is
  - furnished to do so, subject to the following conditions:
  -
  - The above copyright notice and this permission notice shall be included in all
  - copies or substantial portions of the Software.
  -
  - THE SOFTWARE IS PROVIDED "AS IS", WITHOUT WARRANTY OF ANY KIND, EXPRESS OR
  - IMPLIED, INCLUDING BUT NOT LIMITED TO THE WARRANTIES OF MERCHANTABILITY,
  - FITNESS FOR A PARTICULAR PURPOSE AND NONINFRINGEMENT. IN NO EVENT SHALL THE
  - AUTHORS OR COPYRIGHT HOLDERS BE LIABLE FOR ANY CLAIM, DAMAGES OR OTHER
  - LIABILITY, WHETHER IN AN ACTION OF CONTRACT, TORT OR OTHERWISE, ARISING FROM,
  - OUT OF OR IN CONNECTION WITH THE SOFTWARE OR THE USE OR OTHER DEALINGS IN THE
  - SOFTWARE.
  -->

<svg data-big="true" width="16px" height="16px" viewBox="0 0 16 16" fill="#BA68C8" xmlns="http://www.w3.org/2000/svg">
  <rect x="1" y="2" width="1" height="12"/>
  <rect x="2" y="2" width="2" height="1"/>
  <rect x="2" y="13" width="2" height="1"/>
  <rect x="14" y="2" width="1" height="12"/>
  <rect x="12" y="2" width="3" height="1"/>
  <rect x="12" y="13" width="2" height="1"/>
  <rect x="9.5" y="7" width="1.5" height="1.5" rx="0.75"/>
  <rect x="9.5" y="9.5" width="1.5" height="1.5" rx="0.75"/>
  <rect x="11.5" y="7" width="1.5" height="1.5" rx="0.75"/>
  <rect x="11.5" y="9.5" width="1.5" height="1.5" rx="0.75"/>
  <path d="M8.0082 9.14857L4.93443 5H4V11H4.9918V6.73143L8.15574 11H9V5H8.0082V9.14857Z"/>
</svg>
