<svg xmlns="http://www.w3.org/2000/svg" width="16" height="16" fill="#4FC3F7"  viewBox="0 0 24 24"><path d="M9 2H4a2 2 0 0 0-2 2v5a2 2 0 0 0 2 2h5a2 2 0 0 0 2-2V4a2 2 0 0 0-2-2m0 5H4V6h5zm11 6h-5a2 2 0 0 0-2 2v5a2 2 0 0 0 2 2h5a2 2 0 0 0 2-2v-5a2 2 0 0 0-2-2m0 6h-5v-1h5zm0-2h-5v-1h5zm0-15h-5a2 2 0 0 0-2 2v5a2 2 0 0 0 2 2h5a2 2 0 0 0 2-2V4a2 2 0 0 0-2-2m0 5h-2v2h-1V7h-2V6h2V4h1v2h2zM9 13H4a2 2 0 0 0-2 2v5a2 2 0 0 0 2 2h5a2 2 0 0 0 2-2v-5a2 2 0 0 0-2-2m-.38 5.91-.71.71-1.41-1.41-1.41 1.41-.71-.71 1.41-1.41-1.41-1.41.71-.71 1.41 1.41 1.41-1.41.71.71-1.41 1.41z"/></svg>