<svg xmlns="http://www.w3.org/2000/svg" width="16" height="16" data-big="true" viewBox="0 0 24 24"><defs><mask id="a"><path fill="#fff" d="M9 3.12 7.29 1.41 8.71 0 10 1.29 11.29 0l1.42 1.41L11 3.12v2.26l2.45 1.44 2-1.13.62-2.33 1.93.52-.46 1.77 1.77.47-.52 1.93-2.33-.62-2 1.13v2.7L12.5 9.3v-.74l-1.76-1.02-2.01-2.01.27-.15zm7.46 9.45-1.59-.9 2.68 2.68 1.75-.47-.51-1.93zM11 14.62v2.26l1.7 1.71L11.29 20 10 18.71 8.71 20l-1.42-1.41L9 16.88v-2.26l-2.45-1.44-2 1.13-.62 2.33L2 16.12l.47-1.76-1.77-.47.52-1.93 2.33.62 2-1.13V8.56l-2-1.13-2.33.62L.7 6.12l1.77-.47L2 3.89-.89 1 .39-.27l19.72 19.73-1.27 1.27L12.1 14zm-1-1.73.63-.39L7.5 9.39v2.05z"/><path stroke="#000" stroke-width="3" d="m13 7.12-1.71-1.71L12.71 4 14 5.29 15.29 4l1.42 1.41L15 7.12v2.26l2.45 1.44 2-1.13.62-2.33 1.93.52-.46 1.77 1.77.47-.52 1.93-2.33-.62-2 1.13v2.7L16.5 13.3v-.74l-1.76-1.02-2.01-2.01.27-.15V7.12m7.46 9.45-1.59-.9 2.68 2.68 1.75-.47-.51-1.93-2.33.62M15 18.62v2.26l1.7 1.71L15.29 24 14 22.71 12.71 24l-1.42-1.41L13 20.88v-2.26l-2.45-1.44-2 1.13-.62 2.33L6 20.12l.47-1.76-1.77-.47.52-1.93 2.33.62 2-1.13v-2.89l-2-1.13-2.33.62-.52-1.93 1.77-.47L6 7.89 3.11 5l1.28-1.27 19.72 19.73-1.27 1.27L16.1 18l-1.1.62m-1-1.73.63-.39-3.13-3.11v2.05z"/><path fill="#fff" d="m13 7.12-1.71-1.71L12.71 4 14 5.29 15.29 4l1.42 1.41L15 7.12v2.26l2.45 1.44 2-1.13.62-2.33 1.93.52-.46 1.77 1.77.47-.52 1.93-2.33-.62-2 1.13v2.7L16.5 13.3v-.74l-1.76-1.02-2.01-2.01.27-.15zm7.46 9.45-1.59-.9 2.68 2.68 1.75-.47-.51-1.93zM15 18.62v2.26l1.7 1.71L15.29 24 14 22.71 12.71 24l-1.42-1.41L13 20.88v-2.26l-2.45-1.44-2 1.13-.62 2.33L6 20.12l.47-1.76-1.77-.47.52-1.93 2.33.62 2-1.13v-2.89l-2-1.13-2.33.62-.52-1.93 1.77-.47L6 7.89 3.11 5l1.28-1.27 19.72 19.73-1.27 1.27L16.1 18zm-1-1.73.63-.39-3.13-3.11v2.05z"/></mask></defs><g mask="url(#a)"><path fill="#64B5F6" d="M9 3.12 7.29 1.41 8.71 0 10 1.29 11.29 0l1.42 1.41L11 3.12v2.26l2.45 1.44 2-1.13.62-2.33 1.93.52-.46 1.77 1.77.47-.52 1.93-2.33-.62-2 1.13v2.7L12.5 9.3v-.74l-1.76-1.02-2.01-2.01.27-.15zm7.46 9.45-1.59-.9 2.68 2.68 1.75-.47-.51-1.93zM11 14.62v2.26l1.7 1.71L11.29 20 10 18.71 8.71 20l-1.42-1.41L9 16.88v-2.26l-2.45-1.44-2 1.13-.62 2.33L2 16.12l.47-1.76-1.77-.47.52-1.93 2.33.62 2-1.13V8.56l-2-1.13-2.33.62L.7 6.12l1.77-.47L2 3.89-.89 1 .39-.27l19.72 19.73-1.27 1.27L12.1 14zm-1-1.73.63-.39L7.5 9.39v2.05z"/><path fill="#64B5F6" d="m13 7.12-1.71-1.71L12.71 4 14 5.29 15.29 4l1.42 1.41L15 7.12v2.26l2.45 1.44 2-1.13.62-2.33 1.93.52-.46 1.77 1.77.47-.52 1.93-2.33-.62-2 1.13v2.7L16.5 13.3v-.74l-1.76-1.02-2.01-2.01.27-.15zm7.46 9.45-1.59-.9 2.68 2.68 1.75-.47-.51-1.93zM15 18.62v2.26l1.7 1.71L15.29 24 14 22.71 12.71 24l-1.42-1.41L13 20.88v-2.26l-2.45-1.44-2 1.13-.62 2.33L6 20.12l.47-1.76-1.77-.47.52-1.93 2.33.62 2-1.13v-2.89l-2-1.13-2.33.62-.52-1.93 1.77-.47L6 7.89 3.11 5l1.28-1.27 19.72 19.73-1.27 1.27L16.1 18zm-1-1.73.63-.39-3.13-3.11v2.05z"/></g></svg>