<svg xmlns="http://www.w3.org/2000/svg" width="16" height="16" fill="#81D4FA"  viewBox="0 0 24 24"><path d="M7 14a2 2 0 0 1-2-2 2 2 0 0 1 2-2 2 2 0 0 1 2 2 2 2 0 0 1-2 2m5.65-4A5.99 5.99 0 0 0 7 6a6 6 0 0 0-6 6 6 6 0 0 0 6 6 5.99 5.99 0 0 0 5.65-4H17v4h4v-4h2v-4z"/><circle cx="20" cy="20" r="3" fill="#0F0" stroke="#000"/><path fill="#FDD835" stroke="#000" stroke-width=".5" d="M15.5 4.5a1 1 0 0 1-1-1 1 1 0 0 1 1-1 1 1 0 0 1 1 1 1 1 0 0 1-1 1m6.5-3h-8a.5.5 0 0 0-.5.5v3a.5.5 0 0 0 .5.5h8a.5.5 0 0 0 .5-.5V2a.5.5 0 0 0-.5-.5m-6.5 8a1 1 0 0 1-1-1 1 1 0 0 1 1-1 1 1 0 0 1 1 1 1 1 0 0 1-1 1m6.5-3h-8a.5.5 0 0 0-.5.5v3a.5.5 0 0 0 .5.5h8a.5.5 0 0 0 .5-.5V7a.5.5 0 0 0-.5-.5Z"/></svg>