<!--
  - The MIT License (MIT)
  -
  - Copyright (c) 2015-2024 Elior "Mallowigi" Boukhobza
  -
  - Permission is hereby granted, free of charge, to any person obtaining a copy
  - of this software and associated documentation files (the "Software"), to deal
  - in the Software without restriction, including without limitation the rights
  - to use, copy, modify, merge, publish, distribute, sublicense, and/or sell
  - copies of the Software, and to permit persons to whom the Software is
  - furnished to do so, subject to the following conditions:
  -
  - The above copyright notice and this permission notice shall be included in all
  - copies or substantial portions of the Software.
  -
  - THE SOFTWARE IS PROVIDED "AS IS", WITHOUT WARRANTY OF ANY KIND, EXPRESS OR
  - IMPLIED, INCLUDING BUT NOT LIMITED TO THE WARRANTIES OF MERCHANTABILITY,
  - FITNESS FOR A PARTICULAR PURPOSE AND NONINFRINGEMENT. IN NO EVENT SHALL THE
  - AUTHORS OR COPYRIGHT HOLDERS BE LIABLE FOR ANY CLAIM, DAMAGES OR OTHER
  - LIABILITY, WHETHER IN AN ACTION OF CONTRACT, TORT OR OTHERWISE, ARISING FROM,
  - OUT OF OR IN CONNECTION WITH THE SOFTWARE OR THE USE OR OTHER DEALINGS IN THE
  - SOFTWARE.
  -->
<svg width="16" height="16"  viewBox="0 0 16 16" fill="none" xmlns="http://www.w3.org/2000/svg">
  <path d="M0 10C0 9.44772 0.447715 9 1 9H15C15.5523 9 16 9.44772 16 10V15C16 15.5523 15.5523 16 15 16H1C0.447715 16 0 15.5523 0 15V10Z"
        fill="#9575CD"/>
  <path d="M2.5 10.5V14.5H4C4.82843 14.5 5.5 13.8284 5.5 13V12C5.5 11.1716 4.82843 10.5 4 10.5H2.5Z" stroke="#F7F8FA"/>
  <path d="M7.5 10.5V14.5H9C9.82843 14.5 10.5 13.8284 10.5 13V12C10.5 11.1716 9.82843 10.5 9 10.5H7.5Z" stroke="#F7F8FA"/>
  <path d="M12.5 10V14.5H15" stroke="#F7F8FA"/>
</svg>
