<svg xmlns="http://www.w3.org/2000/svg" width="16" height="16" viewBox="0 0 24 24">
  <path fill="#FDD835"
        d="M5.25 10.5A1.5 1.5 0 0 1 3.75 9a1.5 1.5 0 0 1 1.5-1.5A1.5 1.5 0 0 1 6.75 9a1.5 1.5 0 0 1-1.5 1.5m4.238-3a4.49 4.49 0 0 0-4.238-3A4.5 4.5 0 0 0 .75 9a4.5 4.5 0 0 0 4.5 4.5 4.49 4.49 0 0 0 4.238-3h3.262v3h3v-3h1.5v-3z"/>
  <path fill="#29B6F6"
        d="M11.25 16.5a1.5 1.5 0 0 1-1.5-1.5 1.5 1.5 0 0 1 1.5-1.5 1.5 1.5 0 0 1 1.5 1.5 1.5 1.5 0 0 1-1.5 1.5m4.238-3a4.49 4.49 0 0 0-4.238-3 4.5 4.5 0 0 0-4.5 4.5 4.5 4.5 0 0 0 4.5 4.5 4.49 4.49 0 0 0 4.238-3h3.262v3h3v-3h1.5v-3z"/>
</svg>