<!--
  - The MIT License (MIT)
  -
  - Copyright (c) 2015-2022 Elior "Mallowigi" Boukhobza
  -
  - Permission is hereby granted, free of charge, to any person obtaining a copy
  - of this software and associated documentation files (the "Software"), to deal
  - in the Software without restriction, including without limitation the rights
  - to use, copy, modify, merge, publish, distribute, sublicense, and/or sell
  - copies of the Software, and to permit persons to whom the Software is
  - furnished to do so, subject to the following conditions:
  -
  - The above copyright notice and this permission notice shall be included in all
  - copies or substantial portions of the Software.
  -
  - THE SOFTWARE IS PROVIDED "AS IS", WITHOUT WARRANTY OF ANY KIND, EXPRESS OR
  - IMPLIED, INCLUDING BUT NOT LIMITED TO THE WARRANTIES OF MERCHANTABILITY,
  - FITNESS FOR A PARTICULAR PURPOSE AND NONINFRINGEMENT. IN NO EVENT SHALL THE
  - AUTHORS OR COPYRIGHT HOLDERS BE LIABLE FOR ANY CLAIM, DAMAGES OR OTHER
  - LIABILITY, WHETHER IN AN ACTION OF CONTRACT, TORT OR OTHERWISE, ARISING FROM,
  - OUT OF OR IN CONNECTION WITH THE SOFTWARE OR THE USE OR OTHER DEALINGS IN THE
  - SOFTWARE.
  -
  -
  -->


<svg big="true" xmlns="http://www.w3.org/2000/svg" ersion="1.1" width="16px" height="16px" fill="#F06292"
     viewBox="0 0 24 24">
    <path
            d="M1.39,18.36L3.16,16.6L4.58,18L5.64,16.95L4.22,15.54L5.64,14.12L8.11,16.6L9.17,15.54L6.7,13.06L8.11,11.65L9.53,13.06L10.59,12L9.17,10.59L10.59,9.17L13.06,11.65L14.12,10.59L11.65,8.11L13.06,6.7L14.47,8.11L15.54,7.05L14.12,5.64L15.54,4.22L18,6.7L19.07,5.64L16.6,3.16L18.36,1.39L22.61,5.64L5.64,22.61L1.39,18.36Z" />
</svg>
