<!--
  - The MIT License (MIT)
  -
  - Copyright (c) 2015-2022 Elior "Mallowigi" Boukhobza
  -
  - Permission is hereby granted, free of charge, to any person obtaining a copy
  - of this software and associated documentation files (the "Software"), to deal
  - in the Software without restriction, including without limitation the rights
  - to use, copy, modify, merge, publish, distribute, sublicense, and/or sell
  - copies of the Software, and to permit persons to whom the Software is
  - furnished to do so, subject to the following conditions:
  -
  - The above copyright notice and this permission notice shall be included in all
  - copies or substantial portions of the Software.
  -
  - THE SOFTWARE IS PROVIDED "AS IS", WITHOUT WARRANTY OF ANY KIND, EXPRESS OR
  - IMPLIED, INCLUDING BUT NOT LIMITED TO THE WARRANTIES OF MERCHANTABILITY,
  - FITNESS FOR A PARTICULAR PURPOSE AND NONINFRINGEMENT. IN NO EVENT SHALL THE
  - AUTHORS OR COPYRIGHT HOLDERS BE LIABLE FOR ANY CLAIM, DAMAGES OR OTHER
  - LIABILITY, WHETHER IN AN ACTION OF CONTRACT, TORT OR OTHERWISE, ARISING FROM,
  - OUT OF OR IN CONNECTION WITH THE SOFTWARE OR THE USE OR OTHER DEALINGS IN THE
  - SOFTWARE.
  -
  -
  -->

<svg big="true" version="1.1" viewBox="0 0 24 24" xmlns="http://www.w3.org/2000/svg" width="16px" height="16px">
    <path transform="scale(.5) translate(0 24)"
          d="m12.002 15.5a3.5 3.5 0 0 1 -3.5 -3.5 3.5 3.5 0 0 1 3.5 -3.5 3.5 3.5 0 0 1 3.5 3.5 3.5 3.5 0 0 1 -3.5 3.5m7.43-2.53c.04-.32.07-.64.07-.97s-.03-.66-.07-1l2.11-1.63c.19-.15.24-.42.12-.64l-2-3.46c-.12-.22-.39-.31-.61-.22l-2.49 1c-.52-.39-1.06-.73-1.69-.98l-.37-2.65c-.04-.24-.25-.42-.5-.42h-4c-.25 0-.46.18-.5.42l-.37 2.65c-.63.25-1.17.59-1.69.98l-2.49-1c-.22-.09-.49 0-.61.22l-2 3.46c-.13.22-.07.49.12.64l2.11 1.63c-.04.34-.07.67-.07 1s.03.65.07.97l-2.11 1.66c-.19.15-.25.42-.12.64l2 3.46c.12.22.39.3.61.22l2.49-1.01c.52.4 1.06.74 1.69.99l.37 2.65c.04.24.25.42.5.42h4c.25 0 .46-.18.5-.42l.37-2.65c.63-.26 1.17-.59 1.69-.99l2.49 1.01c.22.08.49 0 .61-.22l2-3.46c.12-.22.07-.49-.12-.64z"
          fill="#81CBC4" />
</svg>
