<svg xmlns="http://www.w3.org/2000/svg" width="16" height="16" data-big="true" viewBox="0 0 24 24"><path fill="#81CBC4" d="M6.001 19.75A1.75 1.75 0 0 1 4.251 18a1.75 1.75 0 0 1 1.75-1.75A1.75 1.75 0 0 1 7.751 18a1.75 1.75 0 0 1-1.75 1.75m3.715-1.265c.02-.16.035-.32.035-.485s-.015-.33-.035-.5l1.055-.815a.25.25 0 0 0 .06-.32l-1-1.73c-.06-.11-.195-.155-.305-.11l-1.245.5a3.6 3.6 0 0 0-.845-.49l-.185-1.325a.25.25 0 0 0-.25-.21h-2c-.125 0-.23.09-.25.21l-.185 1.325a3.6 3.6 0 0 0-.845.49l-1.245-.5a.246.246 0 0 0-.305.11l-1 1.73a.25.25 0 0 0 .06.32l1.055.815c-.02.17-.035.335-.035.5s.015.325.035.485l-1.055.83a.25.25 0 0 0-.06.32l1 1.73c.06.11.195.15.305.11l1.245-.505c.26.2.53.37.845.495l.185 1.325c.02.12.125.21.25.21h2c.125 0 .23-.09.25-.21l.185-1.325a3.6 3.6 0 0 0 .845-.495l1.245.505c.11.04.245 0 .305-.11l1-1.73a.25.25 0 0 0-.06-.32z"/></svg>