<svg xmlns="http://www.w3.org/2000/svg" width="16" height="16" fill="#C792EA" viewBox="0 0 24 24">
  <path
      d="M5 9.5 7.5 14h-5zM3 4h4v4H3zm2 16a2 2 0 0 0 2-2 2 2 0 0 0-2-2 2 2 0 0 0-2 2 2 2 0 0 0 2 2M9 5v2h12V5zm0 14h12v-2H9zm0-6h12v-2H9z"/>
  <path fill="#F44336"
        d="M10.355 15.52a.5.5 0 0 0 0-.705l-1.17-1.17a.5.5 0 0 0-.705 0l-.92.915 1.875 1.875M1.5 20.625V22.5h1.875l5.53-5.535L7.03 15.09z"/>
  <path fill="#FFCB6B"
        d="M14.84 9.87a5 5 0 0 0 2.66 1.105v-1.01a3.97 3.97 0 0 1-1.95-.81m2.95.81v1.01c1-.1 1.92-.5 2.66-1.105l-.715-.715c-.55.43-1.215.72-1.945.81m2.655-1.515.715.715A5 5 0 0 0 22.975 6.5h-1.01a3.97 3.97 0 0 1-.81 1.95M19.5 6A1.5 1.5 0 0 0 18 4.5 1.5 1.5 0 0 0 16.5 6 1.5 1.5 0 0 0 18 7.5 1.5 1.5 0 0 0 19.5 6m-5.465.5h-1.01c.1 1 .5 1.92 1.105 2.66l.715-.715a3.93 3.93 0 0 1-.81-1.945m.81-2.95-.715-.71a5 5 0 0 0-1.105 2.66h1.01c.09-.73.38-1.395.81-1.95m7.12 1.95h1.01c-.1-1-.5-1.92-1.105-2.66l-.715.71c.43.555.72 1.22.81 1.95m-.805-3.37a5 5 0 0 0-2.66-1.105v1.01c.73.09 1.395.38 1.95.81m-2.95-.81v-1.01c-1 .1-1.92.5-2.66 1.105l.71.715a3.97 3.97 0 0 1 1.95-.81"/>
</svg>