<svg xmlns="http://www.w3.org/2000/svg" width="16" height="16" fill="#FFC107" data-big="true" viewBox="0 0 24 24"><path d="M21 16.5c0 .38-.21.71-.53.88l-7.9 4.44c-.16.12-.36.18-.57.18s-.41-.06-.57-.18l-7.9-4.44A.99.99 0 0 1 3 16.5v-9c0-.38.21-.71.53-.88l7.9-4.44c.16-.12.36-.18.57-.18s.41.06.57.18l7.9 4.44c.32.17.53.5.53.88zM12 4.15 6.04 7.5 12 10.85l5.96-3.35z"/><path fill="#4DB6AC" d="M22.25 17.5h-.75v-2a1 1 0 0 0-1-1h-2v-.75a1.25 1.25 0 0 0-1.25-1.25A1.25 1.25 0 0 0 16 13.75v.75h-2a1 1 0 0 0-1 1v1.9h.75c.75 0 1.35.6 1.35 1.35s-.6 1.35-1.35 1.35H13V22a1 1 0 0 0 1 1h1.9v-.75c0-.75.6-1.35 1.35-1.35s1.35.6 1.35 1.35V23h1.9a1 1 0 0 0 1-1v-2h.75a1.25 1.25 0 0 0 1.25-1.25 1.25 1.25 0 0 0-1.25-1.25"/></svg>