<svg xmlns="http://www.w3.org/2000/svg" width="16" height="16" data-big="true" viewBox="0 -1 16 16"><path fill="#D14748" d="M6.554 1.492a.21.21 0 0 1-.154.218 1.64 1.64 0 0 0-.817-.122c-.319.026-.583.135-.548.367s.357.367.906.313c1.34-.122 1.328-1.089 3.294-1.279 1.532-.15 2.387.354 2.5.966.089.476-.281.939-1.392 1.034-.983.1-1.557-.191-1.609-.476-.026-.15.051-.367.523-.422a.76.76 0 0 0 .957.408c.46-.041.843-.218.792-.49s-.536-.449-1.3-.381c-1.556.15-1.939 1.062-3.267 1.184A1.55 1.55 0 0 1 4.626 2c-.038-.2-.038-.68.957-.776a.92.92 0 0 1 .97.272ZM1.575 7.181a2.95 2.95 0 0 0-.587 1.933 2.3 2.3 0 0 0 .83 1.633 1.91 1.91 0 0 0 1.685.422 5.5 5.5 0 0 0 .753-.259 2.05 2.05 0 0 1-1.379-.544 2.23 2.23 0 0 1-.868-1.511 2.13 2.13 0 0 1 .306-1.606 1.97 1.97 0 0 1 1.379-.8 2.3 2.3 0 0 1 1.609.5 3.6 3.6 0 0 0-.434-.463 1.96 1.96 0 0 0-1.736-.367 2.6 2.6 0 0 0-1.558 1.062m6.843-3.144a19.3 19.3 0 0 1-4.175-.422c-1.136-.3-1.736-.626-1.736-1.048a.62.62 0 0 1 .306-.5c-.715.3-1.1.544-1.1.925.038.422.677.844 1.979 1.17a18.6 18.6 0 0 0 4.685.5 18.4 18.4 0 0 0 4.685-.5c1.3-.327 1.928-.762 1.928-1.17a1.05 1.05 0 0 0-.791-.8.47.47 0 0 1 .2.367c0 .422-.587.762-1.775 1.048a18.5 18.5 0 0 1-4.213.436Zm4.7 1.17a20 20 0 0 1-4.685.5 20.8 20.8 0 0 1-4.724-.5 3.23 3.23 0 0 1-1.889-.966 13 13 0 0 0 1.3 4.083c.472.762.945 1.429 1.417 2.15a5.5 5.5 0 0 1 .434 1.266 2.3 2.3 0 0 0 1.3.925 5 5 0 0 0 2.094.327h.078a5.6 5.6 0 0 0 2.157-.327 2.44 2.44 0 0 0 1.264-.925h.036a5.4 5.4 0 0 1 .4-1.266c.472-.721.945-1.388 1.417-2.15a13.8 13.8 0 0 0 1.3-4.083 3.13 3.13 0 0 1-1.9.966Z" class="i-color"/></svg>