<svg xmlns="http://www.w3.org/2000/svg" width="16" height="16">
  <g fill="#A0D64D" fill-rule="evenodd">
    <path
        d="m5.723 12.895.073.038a3.1 3.1 0 0 0 1.954.667q.961-.001 1.817-.542c3.051-.561 5.233-2.696 5.233-5.158 0-2.915-3.035-5.3-6.8-5.3S1.2 4.985 1.2 7.9c0 2.252 1.828 4.248 4.523 4.995m-.557-3.084C4.066 9.291 3.4 8.489 3.4 7.6c0-1.574 2.074-2.8 4.6-2.8s4.6 1.226 4.6 2.8c0 .995-.835 1.877-2.16 2.378l-.147.056-.089-.13C9.695 9.166 8.771 8.7 7.75 8.7c-.948 0-1.814.4-2.343 1.056l-.1.122z"/>
    <path
        d="M8.05 10.2c2.407-.016 4.35-1.174 4.35-2.6C12.4 6.164 10.43 5 8 5S3.6 6.164 3.6 7.6c0 .742.525 1.41 1.368 1.884C3.888 8.916 3.2 8.06 3.2 7.1 3.2 5.388 5.394 4 8.1 4S13 5.388 13 7.1s-2.194 3.1-4.9 3.1z"/>
    <path
        d="m10.22 12.721 1.301-.504c.479-.217.954-.79.858-1.31l-.002-.012c-.102-.51-.637-.847-1.197-.755l-.96.076zm0-2.885.871-.144c.831-.136 1.627.366 1.778 1.122l.003.017c.142.767-.42 1.395-1.262 1.733l-1.39.43"/>
    <path
        d="M1.57 7.757Q1.402 8.26 1.4 8.8c0 2.54 2.955 4.6 6.6 4.6s6.6-2.06 6.6-4.6q0-.305-.055-.598c-.193 2.238-3.023 4.014-6.486 4.014-3.587 0-6.496-1.906-6.496-4.258q0-.1.007-.201"/>
    <circle cx="7.5" cy="10" r="1" fill="#1D1D1D" fill-rule="nonzero"/>
    <circle cx="7.5" cy="12" r="1" fill="#1D1D1D" fill-rule="nonzero"/>
  </g>
</svg>