<svg xmlns="http://www.w3.org/2000/svg" width="16" height="16" data-big="true"><path fill="#2979FF" d="M7.949 1C4.395 1 4.617 2.549 4.617 2.549v1.605h3.396v.482H3.274S1 4.377 1 7.982s1.985 3.477 1.985 3.477h1.184V9.786a1.89 1.89 0 0 1 1.953-2h3.365a1.81 1.81 0 0 0 1.89-1.836V2.868S11.664 1 7.949 1m-1.87 1.079a.613.613 0 1 1-.61.613.61.61 0 0 1 .61-.613M8.052 15c3.554 0 3.332-1.549 3.332-1.549v-1.605H7.988v-.482h4.739S15 11.623 15 8.018s-1.985-3.477-1.985-3.477h-1.183v1.673a1.89 1.89 0 0 1-1.953 2H6.514a1.81 1.81 0 0 0-1.89 1.836v3.087S4.337 15 8.052 15m1.87-1.079a.613.613 0 1 1 .61-.613.61.61 0 0 1-.61.613"/></svg>