<svg xmlns="http://www.w3.org/2000/svg" width="16" height="16" fill="#7986CB" data-big="true" viewBox="0 0 24 24"><path d="M16 4 9 8.04v7.92L16 20l7-4.04V8.04m-7-1.73 3.8 2.19-3.8 2.19-3.79-2.19M0 7v2h7V7m4 3.11 4 2.31v4.69l-4-2.3m10-4.7v4.7l-4 2.3v-4.69M2 11v2h5v-2m-3 4v2h3v-2"/><path d="M23.2 15.6a.79.79 0 0 1-.424.704l-6.32 3.552A.76.76 0 0 1 16 20a.76.76 0 0 1-.456-.144l-6.32-3.552A.79.79 0 0 1 8.8 15.6V8.4c0-.304.168-.568.424-.704l6.32-3.552A.76.76 0 0 1 16 4c.168 0 .328.048.456.144l6.32 3.552c.256.136.424.4.424.704zM16 5.72 11.232 8.4 16 11.08l4.768-2.68z"/><path fill="#64B5F6" d="M16.5 0h3v6.75l2.625-2.625L23.94 5.94 18 11.88l-5.94-5.94 1.815-1.815L16.5 6.75z"/></svg>