<!--
  - The MIT License (MIT)
  -
  - Copyright (c) 2015-2022 Elior "Mallowigi" Boukhobza
  -
  - Permission is hereby granted, free of charge, to any person obtaining a copy
  - of this software and associated documentation files (the "Software"), to deal
  - in the Software without restriction, including without limitation the rights
  - to use, copy, modify, merge, publish, distribute, sublicense, and/or sell
  - copies of the Software, and to permit persons to whom the Software is
  - furnished to do so, subject to the following conditions:
  -
  - The above copyright notice and this permission notice shall be included in all
  - copies or substantial portions of the Software.
  -
  - THE SOFTWARE IS PROVIDED "AS IS", WITHOUT WARRANTY OF ANY KIND, EXPRESS OR
  - IMPLIED, INCLUDING BUT NOT LIMITED TO THE WARRANTIES OF MERCHANTABILITY,
  - FITNESS FOR A PARTICULAR PURPOSE AND NONINFRINGEMENT. IN NO EVENT SHALL THE
  - AUTHORS OR COPYRIGHT HOLDERS BE LIABLE FOR ANY CLAIM, DAMAGES OR OTHER
  - LIABILITY, WHETHER IN AN ACTION OF CONTRACT, TORT OR OTHERWISE, ARISING FROM,
  - OUT OF OR IN CONNECTION WITH THE SOFTWARE OR THE USE OR OTHER DEALINGS IN THE
  - SOFTWARE.
  -
  -
  -->

<svg big="true" xmlns="http://www.w3.org/2000/svg" width="16px" height="16px" viewBox="0 0 16 16">
  <path fill="#EA3D3C"
        d="M11.174,9.341A2.586,2.586,0,1,1,9.345,6.176,2.586,2.586,0,0,1,11.174,9.341Zm1.389-1.713A6.757,6.757,0,0,1,12.6,4.2,2.639,2.639,0,0,0,7.5,2.879,6.749,6.749,0,0,1,5.958,5.7a6.41,6.41,0,0,1-3,1.766,2.641,2.641,0,1,0,1.368,5.1,6.349,6.349,0,0,1,3.309-.016,6.782,6.782,0,0,1,2.985,1.776,2.611,2.611,0,0,0,3.609-.108,2.639,2.639,0,0,0,.09-3.631A6.786,6.786,0,0,1,12.562,7.628Z"
  />
</svg>
