<svg xmlns="http://www.w3.org/2000/svg" width="16" height="16" data-big="true" viewBox="0 0 24 24"><g fill="#ff6e40"><path d="M1.7 1.547V22.45h3.382v-2.088H3.391V3.636h1.691v-2.09zm17.218 0v2.09h1.694v16.727h-1.694v2.09h3.383V1.548zM15.165 4.008q-.75 0-1.29.225-.54.223-.877.67-.339.455-.494 1.11a6.7 6.7 0 0 0-.156 1.54q0 .858.15 1.526.152.663.49 1.11.334.449.873.677.54.229 1.304.23.777 0 1.308-.225.53-.228.868-.67.33-.436.485-1.113.156-.68.156-1.54c0-.86-.052-1.078-.152-1.514a2.9 2.9 0 0 0-.485-1.106 2.1 2.1 0 0 0-.869-.686q-.53-.234-1.311-.234m-6.814.12a.94.94 0 0 1-.138.458.85.85 0 0 1-.356.296 1.7 1.7 0 0 1-.503.137 5 5 0 0 1-.631.037v1.11h1.435v3.6H6.723v1.188h4.545V9.765H9.863V4.128zm6.814 1.138q.562 0 .805.527.241.52.241 1.756 0 1.22-.247 1.755-.246.535-.799.534c-.553 0-.636-.177-.801-.534s-.247-.94-.247-1.748q0-1.244.243-1.763.243-.526.805-.527zm-6.33 7.64q-.75-.001-1.29.223-.539.224-.877.673-.339.452-.494 1.106c-.155.654-.155.949-.155 1.54q0 .86.15 1.527.15.663.49 1.112.334.448.874.677c.54.229.793.228 1.302.228q.777 0 1.308-.225.53-.228.869-.67.328-.436.484-1.113.156-.68.156-1.54c0-.86-.05-1.078-.15-1.514a2.9 2.9 0 0 0-.487-1.106 2.1 2.1 0 0 0-.867-.686q-.53-.233-1.313-.233m5.845.118a.94.94 0 0 1-.137.458.85.85 0 0 1-.357.296q-.2.096-.502.137a5 5 0 0 1-.631.037v1.112h1.435v3.597h-1.435v1.189h4.544V18.66h-1.404v-5.637zm-5.845 1.138q.562 0 .805.527.241.52.241 1.755.001 1.221-.245 1.756-.247.535-.8.534c-.554 0-.637-.177-.802-.534s-.245-.939-.245-1.746q0-1.245.241-1.765.243-.526.805-.527"/></g></svg>