<svg xmlns="http://www.w3.org/2000/svg" width="16" height="16" fill-rule="evenodd" stroke-linejoin="round" stroke-miterlimit="1.414" clip-rule="evenodd" data-big="true" viewBox="0 0 500 500"><path fill="#E84140" d="M249.813 25.002a35 35 0 0 0-4.9.402q-2.45.375-4.895 1.096a42 42 0 0 0-4.885 1.787 49 49 0 0 0-4.871 2.469c-53.424 30.82-106.83 61.677-160.254 92.498a49 49 0 0 0-4.514 2.941 42 42 0 0 0-3.943 3.287 37 37 0 0 0-3.367 3.63 35 35 0 0 0-2.786 3.97 34.4 34.4 0 0 0-2.253 4.441 36 36 0 0 0-1.622 4.803 39.5 39.5 0 0 0-.984 5.166 46 46 0 0 0-.334 5.531c-.025 18.251.068 57.92.137 96.096s.114 74.861-.002 87.149q-.029 3.1.265 5.996.293 2.896.914 5.593.622 2.697 1.577 5.196a35.954 35.954 0 0 0 5.17 9.225 38 38 0 0 0 3.613 4.034 43 43 0 0 0 4.312 3.66 52 52 0 0 0 5.022 3.29c53.175 30.698 106.275 61.522 159.433 92.258q2.476 1.425 4.957 2.476a39.5 39.5 0 0 0 4.965 1.73 36 36 0 0 0 4.971.999 34.5 34.5 0 0 0 9.8-.159q2.416-.383 4.829-1.101a42 42 0 0 0 4.818-1.774 49 49 0 0 0 4.805-2.437s106.8-61.66 160.205-92.518a49 49 0 0 0 4.61-3.013 42 42 0 0 0 4.011-3.371 37 37 0 0 0 3.412-3.73 34.7 34.7 0 0 0 4.957-8.458 36 36 0 0 0 1.553-4.717q.624-2.445.94-5.064a46 46 0 0 0 .32-5.41c-.035-61.398-.175-122.796-.174-184.194q-.001-3.102-.34-5.988a43 43 0 0 0-1.014-5.564 38 38 0 0 0-1.687-5.147 36 36 0 0 0-5.402-9.088 39 39 0 0 0-3.711-3.96 45 45 0 0 0-4.385-3.589 54 54 0 0 0-5.059-3.224c-10.698-6.047-42.444-24.427-75.47-43.573-33.027-19.145-67.333-39.055-83.15-48.158a46 46 0 0 0-4.891-2.449 40 40 0 0 0-4.899-1.727 36 36 0 0 0-4.9-1.01 34 34 0 0 0-4.905-.3m1.24 76.49h.002q5.151.001 10.215.346a149 149 0 0 1 19.851 2.7 147 147 0 0 1 18.928 5.228 147.5 147.5 0 0 1 17.826 7.574 148 148 0 0 1 16.545 9.746 149 149 0 0 1 22.023 18.289 149.4 149.4 0 0 1 18.131 22.16 149 149 0 0 1 4.815 7.72l-64.63 37.212a74 74 0 0 0-8.236-11.34 74.5 74.5 0 0 0-13.97-12.328 74 74 0 0 0-12.354-6.778 73.4 73.4 0 0 0-23.322-5.746 75 75 0 0 0-4.98-.222l-.844-.004q-3.831.002-7.56.383a73.407 73.407 0 0 0-21.223 5.43 73.6 73.6 0 0 0-12.563 6.818 74.2 74.2 0 0 0-19.975 19.974 74 74 0 0 0-6.818 12.56 73.4 73.4 0 0 0-4.308 13.882 74 74 0 0 0-1.122 7.341 75 75 0 0 0-.38 7.561 73.7 73.7 0 0 0 1.095 12.736 73.6 73.6 0 0 0 3.285 12.354 73.6 73.6 0 0 0 5.372 11.6 74 74 0 0 0 8.302 11.703 74.5 74.5 0 0 0 6.7 6.798 74.4 74.4 0 0 0 11.57 8.473 73.8 73.8 0 0 0 13.123 6.127 73 73 0 0 0 9.463 2.627 73.7 73.7 0 0 0 15.039 1.533q2.593 0 5.142-.176a74 74 0 0 0 9.99-1.375 73.4 73.4 0 0 0 18.47-6.515 73.7 73.7 0 0 0 12.17-7.815 74 74 0 0 0 7.138-6.431 74 74 0 0 0 6.254-7.301 74 74 0 0 0 5.275-8.076l-.308.539 64.543 37.388a149 149 0 0 1-10.528 15.795 149.3 149.3 0 0 1-19.256 20.807 149 149 0 0 1-14.894 11.695 149 149 0 0 1-16.336 9.746 148 148 0 0 1-26.824 10.592 147 147 0 0 1-19.176 4.117q-4.906.718-9.91 1.11t-10.096.449l-1.654.012a151 151 0 0 1-20.307-1.377 148 148 0 0 1-19.47-4.012 147.3 147.3 0 0 1-27.237-10.557 148 148 0 0 1-16.58-9.8 149 149 0 0 1-15.107-11.801 149.4 149.4 0 0 1-19.506-21.053 149 149 0 0 1-10.633-16.006 148 148 0 0 1-8.352-16.945 147.5 147.5 0 0 1-8.392-27.49 148 148 0 0 1-2.592-19.461 151 151 0 0 1-.139-17.65q.194-3.798.573-7.542a149 149 0 0 1 2.25-14.746 147.6 147.6 0 0 1 5.996-21.133 147.5 147.5 0 0 1 12.488-25.943 148.6 148.6 0 0 1 17.078-22.848 149 149 0 0 1 10.076-10.074 149.193 149.193 0 0 1 29.064-20.656 148 148 0 0 1 26.628-11.248q3.487-1.085 7.047-2 3.559-.917 7.185-1.66a148.578 148.578 0 0 1 22.287-2.822q3.798-.194 7.643-.194z" data-iconColor="C"/></svg>