<svg xmlns="http://www.w3.org/2000/svg" xml:space="preserve" width="16" height="16" fill-rule="evenodd" stroke-linejoin="round" stroke-miterlimit="1.414" clip-rule="evenodd" data-big="true" viewBox="0 0 24 24"><path fill="#7963E6" fill-rule="nonzero" d="M10 4H4c-1.11 0-2 .89-2 2v12c0 1.097.903 2 2 2h16c1.097 0 2-.903 2-2V8a2 2 0 0 0-2-2h-8z"/><path fill="#bbdefb" d="m20.811 8.52-5.988 5.506-3.346-2.522-1.383.805 3.298 3.03-3.298 3.032 1.383.807 3.346-2.522 5.988 5.503 2.921-1.419V9.94zm0 3.622v6.396l-4.244-3.198z"/></svg>