<svg xmlns="http://www.w3.org/2000/svg" width="12" height="12"><g fill="none" fill-rule="evenodd"><path fill="#F13C6F" d="M3.817 2.063c-.3-.328-.339-.768-.532-1.147-.188-.23-.314-.587-.62-.676-.382.315-.236.852-.244 1.275-.01.308.394.604.163.7-.027.44.088.867.115 1.303-.015.154.106.292.241.398-.141-.09-.243-.112-.188.187.165.415.256.766.311 1.23-.02.2.257.402.026.44.026.378.17 1.07.096 1.237.061.4.159.793.207 1.203-.063.182.185.359.274.397-.387.104.58.394.083.339-.399.045.259.24-.147.271-.289.178.663-.174.185.142-.241.222.491-.157.173.117-.194.258-.823.672-.755.81.38-.112.78-.711 1.07-.676.019.255-.15.801-.001.867.098-.2.152-.853.268-.756.03.277.245.416.132.056-.01-.238-.01-.562.035-.132-.015.12.125.397.125.105.39.342-.155-.502.265-.194.352.036-.554-.542-.107-.298.264.218-.01-.142.245.002.398-.015.592-.32.813-.543-.247.003.362-.173.392-.38.056-.198.564-.487.41-.59.14-.085.447-.55.555-.842a1 1 0 0 1-.112.045c.173-.096.444-.466.393-.558l-.14.059c.094-.05.337-.202.302-.383.297-.433.321-.65.584-1.06.042-.13.162-.326.117-.358.133-.115.263-.311.227-.428.156-.272.441-.89.35-1.051-.275.212.306-.235.26-.433.116-.237-.028-.205-.061-.19.167-.22.244-.59.292-.659.18-.297.285-.668.295-1.021-.243.449.366-.667-.21-.524-.335.194-.665.436-.865.777-.192.155-.23.365-.218.586-.029-.145-.077-.188-.181.083a.5.5 0 0 0-.019.202c-.024-.096-.072-.123-.155.083-.421.264-.565.778-.905 1.12-.103.117-.126.286-.113.454-.017-.088-.036-.153-.07-.166-.217.229-.37.54-.44.808-.053-.084-.267.438-.394.587-.121.117-.234.365-.275.55-.04-.104-.147-.066-.249.137-.144.147-.266.325-.272.522-.033-.108-.076-.131-.183.116-.216.354-.221-.3-.319-.268.067-.255-.113-.66-.145-.465.033-.402-.154-.772-.264-1.181-.275-1.21-.657-1.73-.82-2.229"/><path fill="#4DD0E1" d="M9.6 6.4H8V2.8L6.6 4.2l-.968-.968L8.8.064l3.168 3.168L11 4.2 9.6 2.8z"/></g></svg>