<svg xmlns="http://www.w3.org/2000/svg" width="16" height="16" data-big="true" viewBox="0 0 24 24"><mask id="a"><path fill="#fff" d="M0 0h24v24H0z"/><path stroke="#000" stroke-width="2" d="m0-2 24 24"/></mask><path stroke="#CE93D8" stroke-width="2" d="m0 0 24 24" mask="url(#a)"/><path fill="#CE93D8" d="m11.15 15.18-1.42-1.41 1.42-1.42 1.41 1.42 1.41-1.42-1.41-1.41 1.41-1.41 1.42 1.41 1.41-1.41-2.83-2.83-7.07 7.07 2.83 2.83zM3.08 19l3.12-3.11-2.12-2.12 9.89-9.9L16.1 6l1.4-1.42-1.4-1.42 1.4-1.41L21.75 6l-1.41 1.4L18.92 6 17.5 7.4l2.13 2.13-9.9 9.89-2.12-2.12-4.53 4.54z" mask="url(#a)"/></svg>