<svg xmlns="http://www.w3.org/2000/svg" xml:space="preserve" width="16" height="16" fill="#F06292"  viewBox="0 0 531.921 531.921"><path d="M13.01 253.731 158.187 6.44c2.32-3.972 6.797-6.44 11.694-6.44 4.885 0 9.363 2.468 11.683 6.434l98.629 167.989-13.645 7.105L188.42 43.737a13.76 13.76 0 0 0-13.781-6.659 13.77 13.77 0 0 0-11.423 10.181L109.24 265.813a13.74 13.74 0 0 0 1.339 10.775 13.82 13.82 0 0 0 8.745 6.466 234.5 234.5 0 0 0 53.347 6.136c1.848 0 3.674-.035 5.485-.071l.083 17.579a321 321 0 0 1-11.76.236h-.023c-52.278 0-102.188-12.282-148.325-36.517-3.147-1.655-5.382-4.339-6.301-7.589-.877-3.074-.449-6.307 1.18-9.097m187.557-2.322a6.68 6.68 0 0 1 3.662-5.926l152.438-79.467a6.68 6.68 0 0 1 5.586-.186l154.218 74.688c.13.062.236.153.372.225.148.074.319.109.455.201.154.083.272.21.414.319.225.151.426.31.627.497.248.225.461.461.674.721.165.198.319.399.461.63.189.283.331.594.461.896.106.236.213.461.283.694.106.357.154.709.213 1.079.024.189.095.37.106.556 0 .05-.023.098-.012.142 0 .059.012.118.012.174v197.443a6.68 6.68 0 0 1-3.487 5.863l-149.654 81.161a6.61 6.61 0 0 1-6.567-.141 6.7 6.7 0 0 1-1.572-1.359h-.018a6.7 6.7 0 0 1-3.15-.793L204.51 449.449c-2.143-1.141-3.488-3.398-3.5-5.828l-.89-189.768c0-.816.186-1.599.473-2.344.001-.036-.026-.065-.026-.1m170.328 262.698 136.332-73.985V257.81l-136.332 76.195zm-6.733-191.592 134.346-75.126-138.59-68.092-138.022 72.206zM121.558 468.262a157 157 0 0 0 11.065 5.532l-6.218 1.797c-2.329.674-4.256 2.211-5.423 4.339s-1.439 4.581-.769 6.916c1.351 4.651 6.585 7.542 11.239 6.188l30.142-8.73a9 9 0 0 0 5.435-4.338 9.07 9.07 0 0 0 .757-6.904l-8.722-30.156c-1.348-4.658-6.584-7.543-11.239-6.195a9.02 9.02 0 0 0-5.423 4.345 9.07 9.07 0 0 0-.769 6.91l3.298 11.396a140 140 0 0 1-14.611-6.939C58.732 412.985 64.735 328.16 64.809 327.302a9.09 9.09 0 0 0-8.299-9.8c-4.962-.413-9.375 3.304-9.788 8.287-.089.97-6.874 97.457 74.836 142.473"/></svg>