<!--
  - The MIT License (MIT)
  -
  - Copyright (c) 2015-2022 Elior "Mallowigi" Boukhobza
  -
  - Permission is hereby granted, free of charge, to any person obtaining a copy
  - of this software and associated documentation files (the "Software"), to deal
  - in the Software without restriction, including without limitation the rights
  - to use, copy, modify, merge, publish, distribute, sublicense, and/or sell
  - copies of the Software, and to permit persons to whom the Software is
  - furnished to do so, subject to the following conditions:
  -
  - The above copyright notice and this permission notice shall be included in all
  - copies or substantial portions of the Software.
  -
  - THE SOFTWARE IS PROVIDED "AS IS", WITHOUT WARRANTY OF ANY KIND, EXPRESS OR
  - IMPLIED, INCLUDING BUT NOT LIMITED TO THE WARRANTIES OF MERCHANTABILITY,
  - FITNESS FOR A PARTICULAR PURPOSE AND NONINFRINGEMENT. IN NO EVENT SHALL THE
  - AUTHORS OR COPYRIGHT HOLDERS BE LIABLE FOR ANY CLAIM, DAMAGES OR OTHER
  - LIABILITY, WHETHER IN AN ACTION OF CONTRACT, TORT OR OTHERWISE, ARISING FROM,
  - OUT OF OR IN CONNECTION WITH THE SOFTWARE OR THE USE OR OTHER DEALINGS IN THE
  - SOFTWARE.
  -
  -
  -->

<svg version="1.1" xmlns="http://www.w3.org/2000/svg" x="0px" y="0px" viewBox="0 0 1000 1000"
     width="12px" height="12px">
  <g transform="translate(0.000000,512.000000) scale(0.100000,-0.100000)" fill="#AB7967">
    <path
      d="M4778.2,5000.6c-739.4-90-1507.5-385-2034.3-781.5c-180.1-136-448.2-409.9-547.8-561.3c-105.4-160.9-218.4-406.1-264.3-580.4c-59.4-218.4-65.1-674.3-9.6-735.6c46-49.8,91.9-46,471.2,47.9c454,111.1,875.4,250.9,2049.6,687.7c1296.8,480.8,1787.2,618.7,2463.3,697.2c367.8,40.2,375.4,53.6,214.5,321.8c-268.2,442.5-737.5,745.1-1356.2,869.6C5550.1,5010.2,5011.9,5029.4,4778.2,5000.6z" />
    <path
      d="M7028.9,3470.2c-588.1-111.1-1279.6-346.7-2298.6-785.4c-863.9-369.7-1543.9-551.7-2398.2-639.8c-143.7-13.4-270.1-32.6-281.6-38.3c-34.5-21.1-24.9-82.4,28.7-189.6c260.5-513.4,703-839,1338.9-980.7c185.8-42.1,771.9-59.4,1026.7-30.6c519.1,61.3,1088,231.8,1528.6,463.6c852.4,446.3,1354.3,1111,1394.5,1848.5c11.5,216.5,0,318-44.1,362C7287.5,3514.2,7260.7,3514.2,7028.9,3470.2z" />
    <path
      d="M7785.5,1112.2c-816-111.1-1497.9-814.1-1865.7-1923.2c-318-959.7-306.5-1890.6,32.5-2566.8c185.8-371.6,475-666.6,802.6-821.8c111.1-51.7,120.7-53.6,164.7-24.9c32.6,21.1,69,91.9,126.4,247.1c206.9,567,358.2,1277.6,490.4,2304.4C7664.9-671.2,7852.6,6.9,8224.2,796.1c59.4,124.5,107.3,239.4,107.3,252.9c0,13.4-15.3,34.5-34.5,44.1C8243.4,1121.7,7936.9,1133.2,7785.5,1112.2z" />
    <path
      d="M8639.9,962.8c-21.1-21.1-70.9-143.7-113-273.9c-153.2-467.4-272-1003.7-492.3-2218.2c-245.2-1350.4-388.8-1884.9-676.2-2524.6c-141.7-316.1-124.5-341,235.6-321.8c906,49.8,1687.6,793,2076.4,1974.9c193.5,588.1,268.2,1195.3,210.7,1708.6C9798.7,51,9457.8,606.5,8902.3,901.5C8712.7,1003,8685.8,1008.7,8639.9,962.8z" />
    <path
      d="M1569.7,319.1c-166.7-34.5-287.3-76.6-455.9-157.1C933.8,74,920.4,47.1,987.4-69.7c199.2-342.9,664.7-900.3,1517.1-1819.7C3489.1-2952.6,3908.5-3488.9,4194-4046.3c147.5-285.4,183.9-287.3,373.5-21.1c143.7,203,241.4,432.9,298.8,708.7c36.4,166.7,30.6,597.6-7.7,804.5c-139.8,726-559.3,1450-1204.9,2068.7C2989.1,152.5,2219.1,451.3,1569.7,319.1z" />
    <path
      d="M625.4-190.4c-69-40.2-266.3-312.2-348.6-482.7c-113-233.7-162.8-432.9-174.3-703c-30.6-626.4,229.9-1329.4,749-2020.9c544-726,1212.5-1193.4,1934.7-1352.3c65.1-15.3,231.8-24.9,383.1-24.9c310.3-1.9,496.1,38.3,737.5,157.1c191.5,93.9,195.4,122.6,49.8,356.3c-289.2,457.8-645.5,873.5-1448.1,1687.6c-342.9,348.6-689.6,710.7-768.1,804.5c-354.4,425.2-628.3,831.3-888.8,1321.7C744.1-244,694.3-169.3,671.3-169.3C665.6-169.3,644.5-178.9,625.4-190.4z" />
  </g>
</svg>
