<svg xmlns="http://www.w3.org/2000/svg" width="16" height="16" fill="#5C6BC0" viewBox="0 0 24 24">
  <path d="M1.5 3H3v18H1.5zM3 3h3v1.5H3zM3 19.5h3V21H3zM21 3h1.5v18H21z"/>
  <path
      d="M18 3h4.5v1.5H18zM18 19.5h3V21h-3zM7.26 5.97l4.298 5.768a.405.405 0 0 1 0 .48L7.238 18l-.113.135a1.517 1.517 0 0 1-2.145.097c-.593-.54-.638-1.454-.158-2.107l3.098-4.147-3.075-4.125c-.472-.638-.435-1.56.157-2.1l.113-.098a1.533 1.533 0 0 1 2.145.315m9.48 0a1.533 1.533 0 0 1 2.145-.315l.112.097c.593.54.63 1.456.158 2.1l-3.075 4.126 3.098 4.147c.48.645.434 1.567-.158 2.107-.622.57-1.59.518-2.145-.097L16.763 18l-4.32-5.783a.405.405 0 0 1 0-.48z"/>
</svg>