<svg xmlns="http://www.w3.org/2000/svg" width="16" height="16" fill="#E57373" data-big="true" viewBox="0 0 24 24"><path d="M1.5 3H3v18H1.5zM3 3h3v1.5H3zM3 19.5h3V21H3zM21 3h1.5v18H21z"/><path d="M18 3h4.5v1.5H18zM18 19.5h3V21h-3zM17.25 4.5 13.5 7.875v8.25l3.75-3.375zM7.875 6.75c-1.463 0-3.037.3-4.125 1.125V18.87c0 .188.188.375.375.375.075 0 .112-.053.188-.053 1.012-.487 2.475-.817 3.562-.817 1.462 0 3.038.3 4.125 1.125 1.012-.638 2.85-1.125 4.125-1.125 1.237 0 2.513.232 3.563.795.075.037.112.022.187.022a.4.4 0 0 0 .375-.375V7.875c-.45-.338-.937-.562-1.5-.75V17.25c-.825-.263-1.725-.375-2.625-.375-1.275 0-3.113.487-4.125 1.125V7.875C10.913 7.05 9.337 6.75 7.875 6.75"/></svg>