<svg xmlns="http://www.w3.org/2000/svg" width="16" height="16"  viewBox="0 0 1000 1000"><g fill="#AB7967"><path d="M477.82 11.94c-73.94 9-150.75 38.5-203.43 78.15-18.01 13.6-44.82 40.99-54.78 56.13-10.54 16.09-21.84 40.61-26.43 58.04-5.94 21.84-6.51 67.43-.96 73.56 4.6 4.98 9.19 4.6 47.12-4.79 45.4-11.11 87.54-25.09 204.96-68.77 129.68-48.08 178.72-61.87 246.33-69.72 36.78-4.02 37.54-5.36 21.45-32.18-26.82-44.25-73.75-74.51-135.62-86.96-21.45-4.42-75.27-6.34-98.64-3.46M702.89 164.98c-58.81 11.11-127.96 34.67-229.86 78.54-86.39 36.97-154.39 55.17-239.82 63.98-14.37 1.34-27.01 3.26-28.16 3.83-3.45 2.11-2.49 8.24 2.87 18.96 26.05 51.34 70.3 83.9 133.89 98.07 18.58 4.21 77.19 5.94 102.67 3.06 51.91-6.13 108.8-23.18 152.86-46.36 85.24-44.63 135.43-111.1 139.45-184.85 1.15-21.65 0-31.8-4.41-36.2-3.63-3.43-6.31-3.43-29.49.97M778.55 400.78c-81.6 11.11-149.79 81.41-186.57 192.32-31.8 95.97-30.65 189.06 3.25 256.68 18.58 37.16 47.5 66.66 80.26 82.18 11.11 5.17 12.07 5.36 16.47 2.49 3.26-2.11 6.9-9.19 12.64-24.71 20.69-56.7 35.82-127.76 49.04-230.44 12.85-100.18 31.62-167.99 68.78-246.91 5.94-12.45 10.73-23.94 10.73-25.29 0-1.34-1.53-3.45-3.45-4.41-5.36-2.86-36.01-4.01-51.15-1.91M863.99 415.72c-2.11 2.11-7.09 14.37-11.3 27.39-15.32 46.74-27.2 100.37-49.23 221.82-24.52 135.04-38.88 188.49-67.62 252.46-14.17 31.61-12.45 34.1 23.56 32.18 90.6-4.98 168.76-79.3 207.64-197.49 19.35-58.81 26.82-119.53 21.07-170.86-8.24-74.32-42.33-129.87-97.88-159.37-18.96-10.15-21.65-10.72-26.24-6.13M156.97 480.09c-16.67 3.45-28.73 7.66-45.59 15.71-18 8.8-19.34 11.49-12.64 23.17 19.92 34.29 66.47 90.03 151.71 181.97 98.46 106.32 140.4 159.95 168.95 215.69 14.75 28.54 18.39 28.73 37.35 2.11 14.37-20.3 24.14-43.29 29.88-70.87 3.64-16.67 3.06-59.76-.77-80.45-13.98-72.6-55.93-145-120.49-206.87-66.46-63.8-143.46-93.68-208.4-80.46M62.54 531.04c-6.9 4.02-26.63 31.22-34.86 48.27-11.3 23.37-16.28 43.29-17.43 70.3-3.06 62.64 22.99 132.94 74.9 202.09 54.4 72.6 121.25 119.34 193.47 135.23 6.51 1.53 23.18 2.49 38.31 2.49 31.03.19 49.61-3.83 73.75-15.71 19.15-9.39 19.54-12.26 4.98-35.63-28.92-45.78-64.55-87.35-144.81-168.76-34.29-34.86-68.96-71.07-76.81-80.45-35.44-42.52-62.83-83.13-88.88-132.17-10.75-20.3-15.73-27.77-18.03-27.77-.57 0-2.68.96-4.59 2.11"/></g></svg>