<!--
  - The MIT License (MIT)
  -
  - Copyright (c) 2015-2024 Elior "Mallowigi" Boukhobza
  -
  - Permission is hereby granted, free of charge, to any person obtaining a copy
  - of this software and associated documentation files (the "Software"), to deal
  - in the Software without restriction, including without limitation the rights
  - to use, copy, modify, merge, publish, distribute, sublicense, and/or sell
  - copies of the Software, and to permit persons to whom the Software is
  - furnished to do so, subject to the following conditions:
  -
  - The above copyright notice and this permission notice shall be included in all
  - copies or substantial portions of the Software.
  -
  - THE SOFTWARE IS PROVIDED "AS IS", WITHOUT WARRANTY OF ANY KIND, EXPRESS OR
  - IMPLIED, INCLUDING BUT NOT LIMITED TO THE WARRANTIES OF MERCHANTABILITY,
  - FITNESS FOR A PARTICULAR PURPOSE AND NONINFRINGEMENT. IN NO EVENT SHALL THE
  - AUTHORS OR COPYRIGHT HOLDERS BE LIABLE FOR ANY CLAIM, DAMAGES OR OTHER
  - LIABILITY, WHETHER IN AN ACTION OF CONTRACT, TORT OR OTHERWISE, ARISING FROM,
  - OUT OF OR IN CONNECTION WITH THE SOFTWARE OR THE USE OR OTHER DEALINGS IN THE
  - SOFTWARE.
  -->

<svg xmlns="http://www.w3.org/2000/svg" width="16" height="16" fill="#9575CD" data-big="true" viewBox="0 0 24 24">
  <defs>
    <mask id="Mask">
      <path fill="white"
            d="M15 13h1.5v2.82l2.44 1.41-.75 1.3L15 16.69zm4-5H5v11h4.67c-.43-.91-.67-1.93-.67-3a7 7 0 0 1 7-7c1.07 0 2.09.24 3 .67zM5 21a2 2 0 0 1-2-2V5c0-1.11.89-2 2-2h1V1h2v2h8V1h2v2h1a2 2 0 0 1 2 2v6.1c1.24 1.26 2 2.99 2 4.9a7 7 0 0 1-7 7c-1.91 0-3.64-.76-4.9-2zm11-9.85A4.85 4.85 0 0 0 11.15 16c0 2.68 2.17 4.85 4.85 4.85A4.85 4.85 0 0 0 20.85 16c0-2.68-2.17-4.85-4.85-4.85"/>
      <circle fill="black" cx="16" cy="16" r="6"/>
      <path fill="white" d="M8 5.14v14l11-7z" transform="translate(4 4)"/>
    </mask>
  </defs>
  <g mask="url(#Mask)">
    <path
      d="M15 13h1.5v2.82l2.44 1.41-.75 1.3L15 16.69zm4-5H5v11h4.67c-.43-.91-.67-1.93-.67-3a7 7 0 0 1 7-7c1.07 0 2.09.24 3 .67zM5 21a2 2 0 0 1-2-2V5c0-1.11.89-2 2-2h1V1h2v2h8V1h2v2h1a2 2 0 0 1 2 2v6.1c1.24 1.26 2 2.99 2 4.9a7 7 0 0 1-7 7c-1.91 0-3.64-.76-4.9-2zm11-9.85A4.85 4.85 0 0 0 11.15 16c0 2.68 2.17 4.85 4.85 4.85A4.85 4.85 0 0 0 20.85 16c0-2.68-2.17-4.85-4.85-4.85"/>
    <path fill="#91B859" d="M8 5.14v14l11-7z" transform="translate(4 4)"/>
  </g>
</svg>
