<svg xmlns="http://www.w3.org/2000/svg" width="16" height="16" fill="none" data-big="true" viewBox="0 0 1280 1280"><g fill="#FF5D01" fill-rule="evenodd" clip-rule="evenodd" data-iconColor="Astro"><path d="M815.039 94.644c9.719 12.065 14.675 28.346 24.587 60.909l216.544 711.348c-80.063-41.533-167.098-71.488-258.889-87.649L656.29 302.798a18.351 18.351 0 0 0-35.21.055L481.795 779.011c-92.216 16.089-179.649 46.098-260.054 87.782l217.606-711.405h.001c9.943-32.506 14.914-48.759 24.634-60.803A80 80 0 0 1 496.4 70.6c14.36-5.772 31.356-5.772 65.349-5.772h155.425c34.038 0 51.056 0 65.429 5.784a80 80 0 0 1 32.436 24.032M840.951 900.754c-35.698 30.525-106.949 51.343-189.022 51.343-100.732 0-185.162-31.36-207.566-73.536-8.009 24.171-9.805 51.835-9.805 69.507 0 0-5.277 86.772 55.078 147.132 0-31.34 25.406-56.74 56.745-56.74 53.716 0 53.655 46.86 53.606 84.88l-.003 3.39c0 57.71 35.271 107.18 85.432 128.04-7.492-15.41-11.695-32.72-11.695-51 0-55.04 32.313-75.54 69.867-99.36 29.881-18.95 63.08-40 85.96-82.24 11.938-22.04 18.717-47.277 18.717-74.102 0-16.495-2.563-32.392-7.314-47.314"/><path d="M840.951 900.754c-35.698 30.525-106.949 51.343-189.022 51.343-100.732 0-185.162-31.36-207.566-73.536-8.009 24.171-9.805 51.835-9.805 69.507 0 0-5.277 86.772 55.078 147.132 0-31.34 25.406-56.74 56.745-56.74 53.716 0 53.655 46.86 53.606 84.88l-.003 3.39c0 57.71 35.271 107.18 85.432 128.04-7.492-15.41-11.695-32.72-11.695-51 0-55.04 32.313-75.54 69.867-99.36 29.881-18.95 63.08-40 85.96-82.24 11.938-22.04 18.717-47.277 18.717-74.102 0-16.495-2.563-32.392-7.314-47.314"/></g></svg>