<!--
  - The MIT License (MIT)
  -
  - Copyright (c) 2015-2024 Elior "Mallowigi" Boukhobza
  -
  - Permission is hereby granted, free of charge, to any person obtaining a copy
  - of this software and associated documentation files (the "Software"), to deal
  - in the Software without restriction, including without limitation the rights
  - to use, copy, modify, merge, publish, distribute, sublicense, and/or sell
  - copies of the Software, and to permit persons to whom the Software is
  - furnished to do so, subject to the following conditions:
  -
  - The above copyright notice and this permission notice shall be included in all
  - copies or substantial portions of the Software.
  -
  - THE SOFTWARE IS PROVIDED "AS IS", WITHOUT WARRANTY OF ANY KIND, EXPRESS OR
  - IMPLIED, INCLUDING BUT NOT LIMITED TO THE WARRANTIES OF MERCHANTABILITY,
  - FITNESS FOR A PARTICULAR PURPOSE AND NONINFRINGEMENT. IN NO EVENT SHALL THE
  - AUTHORS OR COPYRIGHT HOLDERS BE LIABLE FOR ANY CLAIM, DAMAGES OR OTHER
  - LIABILITY, WHETHER IN AN ACTION OF CONTRACT, TORT OR OTHERWISE, ARISING FROM,
  - OUT OF OR IN CONNECTION WITH THE SOFTWARE OR THE USE OR OTHER DEALINGS IN THE
  - SOFTWARE.
  -->

<svg data-big="true" xmlns="http://www.w3.org/2000/svg" viewBox="0 0 80 70" width="16px" height="16px">
  <g fill="#ccbea7" data-iconColor="Bun">
    <path
        d="M73 35.7c0 15.21-15.67 27.54-35 27.54S3 50.91 3 35.7C3 26.27 9 17.94 18.22 13S33.18 3 38 3s8.94 4.13 19.78 10C67 17.94 73 26.27 73 35.7Z"/>
    <path
        d="M35.12 5.53A16.41 16.41 0 0 1 29.49 18c-.28.25-.06.73.3.59 3.37-1.31 7.92-5.23 6-13.14-.08-.45-.67-.33-.67.08Zm2.27 0A16.24 16.24 0 0 1 39 19c-.12.35.31.65.55.36 2.19-2.8 4.1-8.36-1.62-14.36-.29-.26-.74.14-.54.49Zm2.76-.17A16.42 16.42 0 0 1 47 17.12a.33.33 0 0 0 .65.11c.92-3.49.4-9.44-7.17-12.53-.4-.16-.66.38-.33.62Zm-18.46 10.4a16.94 16.94 0 0 0 10.47-9c.18-.36.75-.22.66.18-1.73 8-7.52 9.67-11.12 9.45-.38.01-.37-.52-.01-.63Z"
        fill="#fbf0df"/>
    <g>
      <path
          d="M45.05 43a8.93 8.93 0 0 1-2.92 4.71 6.81 6.81 0 0 1-4 1.88A6.84 6.84 0 0 1 34 47.71 8.93 8.93 0 0 1 31.12 43a.72.72 0 0 1 .8-.81h12.34a.72.72 0 0 1 .79.81Z"
          fill="#b71422"/>
      <path
          d="M34 47.79a6.91 6.91 0 0 0 4.12 1.9 6.91 6.91 0 0 0 4.11-1.9 10.63 10.63 0 0 0 1-1.07 6.83 6.83 0 0 0-4.9-2.31 6.15 6.15 0 0 0-5 2.78c.23.21.43.41.67.6Z"
          fill="#ff6164"/>
      <path fill="#000"
            d="M34.16 47a5.36 5.36 0 0 1 4.19-2.08 6 6 0 0 1 4 1.69c.23-.25.45-.51.66-.77a7 7 0 0 0-4.71-1.93 6.36 6.36 0 0 0-4.89 2.36 9.53 9.53 0 0 0 .75.73Z"/>
      <path fill="#000"
            d="M38.09 50.19a7.42 7.42 0 0 1-4.45-2 9.52 9.52 0 0 1-3.11-5.05 1.2 1.2 0 0 1 .26-1 1.41 1.41 0 0 1 1.13-.51h12.34a1.44 1.44 0 0 1 1.13.51 1.19 1.19 0 0 1 .25 1 9.52 9.52 0 0 1-3.11 5.05 7.42 7.42 0 0 1-4.44 2Zm-6.17-7.4c-.16 0-.2.07-.21.09a8.29 8.29 0 0 0 2.73 4.37A6.23 6.23 0 0 0 38.09 49a6.28 6.28 0 0 0 3.65-1.73 8.3 8.3 0 0 0 2.72-4.37.21.21 0 0 0-.2-.09Z"/>
      <ellipse cx="53.22" cy="40.18" rx="5.85" ry="3.44" fill="#febbd0"/>
      <ellipse cx="22.95" cy="40.18" rx="5.85" ry="3.44" fill="#febbd0"/>
      <path d="M25.7 38.8a5.51 5.51 0 1 0-5.5-5.51 5.51 5.51 0 0 0 5.5 5.51Zm24.77 0A5.51 5.51 0 1 0 45 33.29a5.5 5.5 0 0 0 5.47 5.51Z"
            fill="#000"/>
      <path d="M24 33.64a2.07 2.07 0 1 0-2.06-2.07A2.07 2.07 0 0 0 24 33.64Zm24.77 0a2.07 2.07 0 1 0-2.06-2.07 2.07 2.07 0 0 0 2.04 2.07Z"
            fill="#fff"/>
    </g>
  </g>
</svg>
