<svg xmlns="http://www.w3.org/2000/svg" width="16" height="16" data-big="true"><path fill="#26A2C1" d="M3.927 14H6.35a5.05 5.05 0 0 0 4.133-1.968 11.3 11.3 0 0 0 1.5-2.839h2.8V6.8h-1.834a5.2 5.2 0 0 1 1.19-1.774A2.74 2.74 0 0 1 16 4.4V2a5.1 5.1 0 0 0-4.165 1.957 8.3 8.3 0 0 0-1.028 1.72c-.195.4-.454 1.043-.79 1.892a12.4 12.4 0 0 1-1.439 2.968A2.72 2.72 0 0 1 6.339 11.6H3.927a1.58 1.58 0 0 1-1.158-.387 1.14 1.14 0 0 1 0-1.634 1.58 1.58 0 0 1 1.158-.387h2.412V6.8H3.927a3.93 3.93 0 0 0-2.888 1.1A3.4 3.4 0 0 0 0 10.4a3.4 3.4 0 0 0 1.039 2.495A3.88 3.88 0 0 0 3.927 14"/></svg>