<!--
  - The MIT License (MIT)
  -
  - Copyright (c) 2015-2022 Elior "Mallowigi" Boukhobza
  -
  - Permission is hereby granted, free of charge, to any person obtaining a copy
  - of this software and associated documentation files (the "Software"), to deal
  - in the Software without restriction, including without limitation the rights
  - to use, copy, modify, merge, publish, distribute, sublicense, and/or sell
  - copies of the Software, and to permit persons to whom the Software is
  - furnished to do so, subject to the following conditions:
  -
  - The above copyright notice and this permission notice shall be included in all
  - copies or substantial portions of the Software.
  -
  - THE SOFTWARE IS PROVIDED "AS IS", WITHOUT WARRANTY OF ANY KIND, EXPRESS OR
  - IMPLIED, INCLUDING BUT NOT LIMITED TO THE WARRANTIES OF MERCHANTABILITY,
  - FITNESS FOR A PARTICULAR PURPOSE AND NONINFRINGEMENT. IN NO EVENT SHALL THE
  - AUTHORS OR COPYRIGHT HOLDERS BE LIABLE FOR ANY CLAIM, DAMAGES OR OTHER
  - LIABILITY, WHETHER IN AN ACTION OF CONTRACT, TORT OR OTHERWISE, ARISING FROM,
  - OUT OF OR IN CONNECTION WITH THE SOFTWARE OR THE USE OR OTHER DEALINGS IN THE
  - SOFTWARE.
  -
  -
  -->

<svg big="true" xmlns="http://www.w3.org/2000/svg" viewBox="0 0 32 32" width="16px" height="16px">
    <g fill="#fdb940">
        <path d="M29.192,2.5,22.275,9.992a24.849,24.849,0,0,1-5.091,14.754l6.021,1.49C33.243,16.882,29.192,2.5,29.192,2.5Z" />
        <path d="M22.275,9.992a21.939,21.939,0,0,0-.288-4.337L6.726,22.194l10.436,2.585c.011-.011.011-.022.022-.033l-6.939-1.719Z" />
        <path d="M10.256,23.027,17.2,24.746A24.826,24.826,0,0,0,22.286,9.992Z" />
        <path d="M19.907,26.466c.608,0,1.2.033,1.782.077L2,21.745s3.663,1.2,8.09,7.755A15.944,15.944,0,0,1,19.907,26.466Z" />
    </g>
</svg>
