<svg xmlns="http://www.w3.org/2000/svg" width="16" height="16" data-big="true"><path fill="#E79627" d="M13.313 3.771A10.7 10.7 0 0 1 16 6.433c-.063.139-.975.908-1.249 1.211-.6 1.383-1.135 2.373-1.328 1.27-.22 1.326-.69 1.21-.874 1.858a2.01 2.01 0 0 1-1.39 1.628 3.3 3.3 0 0 1-1.136.321 7.05 7.05 0 0 1-3.883.013 3.93 3.93 0 0 1-1.969-.779 2.92 2.92 0 0 1-.729-1.463 2.74 2.74 0 0 1-.832-1.76c-.092 1.228-.749.568-1.355-1.096 0 0-1.191-1.066-1.253-1.2a10.7 10.7 0 0 1 2.686-2.665c2.374-1.088 8.012-1.059 10.625 0M9.255 7.434c1.283.439 2.495 1.832 2.295 3.111a4.9 4.9 0 0 1-.15 1.415c1.1-.726.615-.959 1.051-1.657a2.9 2.9 0 0 0 .706-1.408c-.127-.96-.25-2.662-.4-3.17a9.5 9.5 0 0 0-1.189-1.9A12.96 12.96 0 0 0 4.516 3.8 9.7 9.7 0 0 0 3.3 5.734c-.147.482-.277 2.136-.4 3.115.1.931.8 1.343.9 1.836a1.57 1.57 0 0 0 .967 1.335 4.6 4.6 0 0 1-.176-1.493c-.208-1.48 1.216-2.739 2.369-3.1a1.377 1.377 0 0 1 2.295.007M9.479 11A1.74 1.74 0 0 0 8.2 9.3l.028-1.33c1.062-.07.938-.853-.134-.908-.824.007-1.4.773-.138.907v1.326a1.66 1.66 0 0 0-1.273 1.687A1.44 1.44 0 0 1 8.132 9.6 1.48 1.48 0 0 1 9.479 11M5.2 6.544a.288.288 0 0 0-.431-.251.29.29 0 0 0 0 .5.288.288 0 0 0 .431-.249M4.07 8a1.115 1.115 0 0 1 0-1.921A1.1 1.1 0 1 1 4.07 8m6.881 0a1.115 1.115 0 0 1 0-1.921A1.1 1.1 0 1 1 10.952 8Zm.549-1.456a.288.288 0 0 0-.431-.251.29.29 0 0 0 0 .5.288.288 0 0 0 .431-.249"/></svg>