<svg xmlns="http://www.w3.org/2000/svg" width="16" height="16" data-big="true"><path fill="#C00000" fill-rule="evenodd" d="M6.786 1.05h1.488l-1.99 2.907L8.359 7h-1.53L5.495 4.96 4.151 7H2.664l2.073-3.026L2.749 1.05h1.53L5.52 2.98zm4.412 6.035c-.902 0-1.811-.314-2.525-.952l.774-.926c.535.442 1.096.722 1.776.722.535 0 .858-.213.858-.561v-.017c0-.332-.203-.502-1.198-.756-1.198-.306-1.972-.638-1.972-1.82V2.76c0-1.08.867-1.794 2.082-1.794.867 0 1.607.272 2.21.757l-.68.986c-.527-.366-1.045-.587-1.546-.587s-.766.23-.766.519v.016c0 .391.255.519 1.284.782 1.207.315 1.887.748 1.887 1.785v.018c0 1.181-.901 1.844-2.184 1.844M4.013 15V9.05h1.309v4.76H8.29V15zm5.797 0v-4.743h-1.81V9.05h4.93v1.207H11.12V15z"/></svg>