<svg xmlns="http://www.w3.org/2000/svg" width="16" height="16"  viewBox="0 0 32 32"><path fill="#F78C6C" d="m16.83 15.028-.069-.189-.05.026zm.506-.404-.132-.151q-.019.022-.038.042zm.326-.561-.178-.093-.019.053zm.101-.64-.201-.023.003.057zm-.136-.634-.195.051.022.052zm-2.65 2.119.138-.145-.045-.034zm1.234.315.004-.201q-.028.006-.056.008zm-.647-.042.077-.186-.055-.014zm-.449-.418q.214.147.472.218l.088-.806zm1.628-2.891-.11.169.051.025.058-.193zm-2.267.713.157.124q.014-.025.029-.048zm-.218.61.191.059.009-.056zm.018.648.199-.014-.013-.055zm2.995-1.595-.163.118.038.042zm-2.745 2.193.181-.085-.03-.048zm1.115.554a1.6 1.6 0 0 0 .519.035l-.21-.784zm.474-3.283-.041.198.057.003-.015-.2zm-.644.077.033.198.054-.017zm-.572.305.102.172.045-.034zm1.862 2.746q.23-.13.405-.325l-.681-.437zm-.285-1.297a.476.476 0 1 1-.952 0 .476.476 0 0 1 .952 0m-2 .286q.062.26.201.479l.608-.536zm-.026-.575q-.016.107-.017.218 0 .155.03.302l.762-.281zm.619 1.475.372-.719-.734.346q.15.216.362.373m.931.913c1.197 0 2.17-.973 2.17-2.169s-.974-2.171-2.17-2.171-2.17.974-2.17 2.171.974 2.169 2.17 2.169m0-3.972c.994 0 1.802.809 1.802 1.802s-.809 1.802-1.802 1.802-1.802-.808-1.802-1.802.809-1.802 1.802-1.802m-1.367 1.039q-.127.226-.175.49l.811.013zm7.256 9.828C17.759 21.509 16 23.604 16 23.604c-.02 2.095 2.846 5.85 6.363 6.304s5.77-1.225 5.77-1.225-2.114-5.118-6.244-6.146m-11.778 0c-4.13 1.027-6.244 6.146-6.244 6.146s2.253 1.68 5.77 1.225S16.02 25.699 16 23.604c0 0-1.759-2.095-5.889-1.067m6.105-7.515a1.5 1.5 0 0 0 .495-.156l-.478-.654-.018.81zM4.499 18.209h23.002l.711-2.134h-3.378l.662-3.826.881-5.095S24.05 2.586 16.051 2.586c-9.723 0-10.428 4.568-10.428 4.568l1.543 8.921H3.787l.711 2.134zM16 10.976a2.5 2.5 0 0 1 2.497 2.497c0 1.376-1.12 2.495-2.497 2.495s-2.497-1.12-2.497-2.495A2.5 2.5 0 0 1 16 10.976m1.563 2.424a1.6 1.6 0 0 0-.109-.508l-.695.415.804.092zm-.079.57q.08-.236.082-.498l-.001-.015-.799.137zm-.28.503q.166-.201.261-.449l-.794-.161.533.611zm.228-1.633a1.6 1.6 0 0 0-.286-.433l-.497.637zm-.324-.474a1.5 1.5 0 0 0-.423-.3l-.234.775zm-2.107-.099a1.6 1.6 0 0 0-.338.394l.751.305zm1.072-.358q-.037-.003-.073-.004-.232.001-.442.065l.35.732zm-.569.078a1.6 1.6 0 0 0-.458.245l.59.555zm1.129.053a1.5 1.5 0 0 0-.503-.128l.062.807z"/></svg>