<svg xmlns="http://www.w3.org/2000/svg" width="16" height="16" data-big="true" viewBox="0 0 512 512"><path fill="#78909C" d="M288.714 51.2v216.649l38.871 104.718h26.023c8.852-13.679 24.233-22.739 41.739-22.739 27.444 0 49.693 22.249 49.693 49.693s-22.249 49.694-49.693 49.694c-16.598 0-31.285-8.145-40.31-20.648h-66.323V460.8H460.8V51.2zm148.166 99.943h-50.123v50.123h-24v-50.123h-50.123v-24h50.123V77.02h24v50.123h50.123zM116.249 67.2c17.338 0 32.593 8.885 41.485 22.343h54.374V51.2H51.2v409.6h160.908V222.397l-28.528-76.854h-26.74c-9 12.726-23.82 21.044-40.591 21.044-27.445 0-49.694-22.249-49.694-49.694S88.804 67.2 116.25 67.2M78.033 388.567h107.243v24H78.033zm346.65 10.954c0 16.202-13.135 29.336-29.336 29.336-11.514 0-21.473-6.636-26.276-16.29h-69.305L194.708 129.543h-51.985c-4.725 9.87-14.803 16.686-26.474 16.686-16.202 0-29.336-13.134-29.336-29.336s13.134-29.335 29.336-29.335c12.177 0 22.62 7.42 27.057 17.985H211.4l105.058 283.024h51.676c4.341-10.773 14.886-18.381 27.214-18.381 16.201 0 29.335 13.134 29.335 29.335"/></svg>