<svg xmlns="http://www.w3.org/2000/svg" xml:space="preserve" width="16" height="16" fill-rule="evenodd" stroke-linejoin="round" stroke-miterlimit="1.414" clip-rule="evenodd" data-big="true" viewBox="0 0 24 24"><path fill="#BDBDBD" d="M12 15.5A3.5 3.5 0 0 1 8.5 12 3.5 3.5 0 0 1 12 8.5a3.5 3.5 0 0 1 3.5 3.5 3.5 3.5 0 0 1-3.5 3.5m7.43-2.53c.04-.32.07-.64.07-.97s-.03-.66-.07-1l2.11-1.63c.19-.15.24-.42.12-.64l-2-3.46c-.12-.22-.39-.31-.61-.22l-2.49 1c-.52-.39-1.06-.73-1.69-.98l-.37-2.65A.506.506 0 0 0 14 2h-4c-.25 0-.46.18-.5.42l-.37 2.65c-.63.25-1.17.59-1.69.98l-2.49-1c-.22-.09-.49 0-.61.22l-2 3.46c-.13.22-.07.49.12.64L4.57 11c-.04.34-.07.67-.07 1s.03.65.07.97l-2.11 1.66c-.19.15-.25.42-.12.64l2 3.46c.12.22.39.3.61.22l2.49-1.01c.52.4 1.06.74 1.69.99l.37 2.65c.04.24.25.42.5.42h4c.25 0 .46-.18.5-.42l.37-2.65c.63-.26 1.17-.59 1.69-.99l2.49 1.01c.22.08.49 0 .61-.22l2-3.46c.12-.22.07-.49-.12-.64z"/><path fill="#4CAF50" d="M9.5 13 7 15.25v5.5l2.5-2.25zm-6.25 1.5c-.975 0-2.025.2-2.75.75v7.33c0 .125.125.25.25.25.05 0 .075-.035.125-.035.675-.325 1.65-.545 2.375-.545.975 0 2.025.2 2.75.75.675-.425 1.9-.75 2.75-.75.825 0 1.675.155 2.375.53.05.025.075.015.125.015.125 0 .25-.125.25-.25V15.25a3.4 3.4 0 0 0-1-.5v6.75a5.8 5.8 0 0 0-1.75-.25c-.85 0-2.075.325-2.75.75v-6.75c-.725-.55-1.775-.75-2.75-.75"/><path fill="#F44336" d="M22.355 15.52a.5.5 0 0 0 0-.705l-1.17-1.17a.5.5 0 0 0-.705 0l-.92.915 1.875 1.875m-7.935 4.19V22.5h1.875l5.53-5.535-1.875-1.875z"/></svg>