<svg xmlns="http://www.w3.org/2000/svg" width="16" height="16"  viewBox="0 0 512 512"><path fill="#7963E6" d="M305.336 507.294s-55.43-125.89-41.347-241.443S369.206 97.69 420.866 92.048c51.66-5.643 79.85 26.315 79.85 26.315L512 101.459s-74.207-75.155-168.162-66.691-158.772 70.46-199.148 145.615c-40.399 75.154-63.893 127.763-79.85 206.686s-9.388 120.248-9.388 120.248zM5.665 381.404l48.84 3.77-8.464 48.839L0 428.37zm77.028-103.343 13.157-36.63-43.22-16.903-14.082 39.45zm61.071-125.89 25.368-30.062-32.883-21.598-26.293 29.114zm66.692-116.478 22.546 27.24 31.01-17.851-22.546-25.368zm109.91-31.01 5.643 27.24 38.525-.947-3.769-24.42zm129.637 46.018 26.315 14.083 5.643-8.463-30.988-22.547zm-4.694 55.452v14.083l25.367 2.821v-11.284zm-80.775 12.21 12.21 22.546 17.852-14.083-3.746-15.03zm-38.525 29.114 18.777 28.189-11.262 19.725-27.24-30.062zm-37.577 77.976-12.21 24.42 31.935 27.24 7.515-31.01zM273.4 343.827l39.45 16.904-1.873-31.01-35.704-18.8zm22.569 117.427 49.787 2.82-17.852-36.629h-41.347z" data-iconColor="ERB"/></svg>