<svg xmlns="http://www.w3.org/2000/svg" width="16" height="16" fill="#4DB6AC" viewBox="0 0 1000 1000">
  <path
      d="m990 388.8-338.6-49.7-1.7-3.5c5.3-23.3 8.6-47.2 9.4-70.8 1.5-42.2-.6-84.8-25.8-110.9-9.4-9.8-26.4-21.4-53.4-21.4-8.5 0-17.7 1.2-27.7 3.5L500 29 364.8 306c-7.4 9.7-16 21.4-25.1 34.4L10 388.8l245 241.4L197.2 971l205.1-109c7.1 3.9 13.8 5.5 21.3 5.5 6.6 0 28.1-3 97.4-22.9 9.8-2.8 18.9-5.6 27.9-8.5L802.8 971 745 630.2zM509.7 805.6c-40.7 11.7-79.4 21.3-86.1 21.3-11.8-.2-86.8-105.5-79.4-111.5 2-1.6 36.2-13.4 75.8-26.2 159.4-51.3 209.9-92.1 209.8-169.5l-.1-53.5-.1.1v-.1l-24.4 39.4c-47.5 76.5-111 117.6-179 117.6-3.8 0-7.6-.1-11.4-.4-11.5-.8-23.1-2.7-34.7-5.8-49.9-13.4-78.3-53.2-78.3-109.6 0-72.2 187.2-313.7 256.7-331.1 3.5-.9 6.8-1.5 10-2 .7-.1 1.3-.2 2-.3 3.3-.5 6.5-.7 9.4-.7 30.9 0 40.9 25.9 38.6 90.3-.1 2.6-.3 5.1-.4 7.7l-.1-.2c-7.3 125-84.4 234.9-155.4 234.9-10.9 0-21.7-2.6-32-8.1-22.6-12.1-25.9-23.6-20.6-70.9 6-53.5 51.7-137.6 74.8-137.6 19.9.1 23.4 48.3 5.9 80-20.7 37.3-23.5 85.8-5.8 96.8 2.5 1.6 5.2 2.3 8 2.3h.1c37.6 0 97.4-134.2 97.4-227.4 0-29.1-8.4-43.6-24.5-43.6h-.1c-19.5 0-50.2 21.2-91.2 63.3-101.9 104.8-141.9 211.9-105.2 281.6 19.2 36.4 34.6 46.6 77.3 48 2.9.1 5.9.1 9 .2h.3c57 0 124.7-68.4 147.2-148.9 10.8-38.4 23.8-60.9 31.9-61 4.7.1 7.8 7.7 7.8 24.4 0 13.3 11.9 58.8 26.4 101 62.7 182.1 29 245.3-159.6 299.5"/>
</svg>