<svg xmlns="http://www.w3.org/2000/svg" xml:space="preserve" width="16" height="16" fill-rule="evenodd"
     stroke-linejoin="round" stroke-miterlimit="1.414" clip-rule="evenodd" viewBox="0 0 24 24"><path fill="#F26522" fill-rule="nonzero" d="M10 4H4c-1.11 0-2 .89-2 2v12c0 1.097.903 2 2 2h16c1.097 0 2-.903 2-2V8a2 2 0 0 0-2-2h-8z"/>
  <path fill="#FFE082"
        d="M22 18.623v-2.305l-.253-.14L16 19.444l-5.457-3.102v-1.336L16 18.074 22 14.697v-2.27l-.253-.14L16 15.553l-5.233-2.975L16 9.622l4.226 2.387.317-.178v-.266L15.999 9 10 12.389v.334l6 3.387 5.457-3.083v1.352L16 17.48l-5.746-3.267-.253.141v2.304l6 3.377 5.457-3.072v1.343L16 21.409l-5.746-3.267-.253.14v.34L16 22z"/></svg>