<svg xmlns="http://www.w3.org/2000/svg" xml:space="preserve" width="16" height="16" viewBox="0 0 122.88 95.07"><path fill="#0089D6" d="m56.8 90.01 28.96-5.12.27-.06-14.9-17.71c-4.94-5.83-10.17-11.99-14.79-17.83 0-.09 15.38-42.43 15.46-42.58.03-.05 10.5 18.02 25.37 43.79l25.51 44.23.19.34-47.33-.01-47.33-.01 28.68-5.06zM0 84.62c0-.02 7.02-12.21 15.59-27.07l15.59-27.03 18.17-15.25C59.35 6.89 67.56.01 67.59 0c-.07.26-.17.5-.29.74L47.56 43.06 28.18 84.62l-14.09.02c-7.75.02-14.09 0-14.09-.02"/></svg>