<!--
  - The MIT License (MIT)
  -
  - Copyright (c) 2015-2024 Elior "Mallowigi" Boukhobza
  -
  - Permission is hereby granted, free of charge, to any person obtaining a copy
  - of this software and associated documentation files (the "Software"), to deal
  - in the Software without restriction, including without limitation the rights
  - to use, copy, modify, merge, publish, distribute, sublicense, and/or sell
  - copies of the Software, and to permit persons to whom the Software is
  - furnished to do so, subject to the following conditions:
  -
  - The above copyright notice and this permission notice shall be included in all
  - copies or substantial portions of the Software.
  -
  - THE SOFTWARE IS PROVIDED "AS IS", WITHOUT WARRANTY OF ANY KIND, EXPRESS OR
  - IMPLIED, INCLUDING BUT NOT LIMITED TO THE WARRANTIES OF MERCHANTABILITY,
  - FITNESS FOR A PARTICULAR PURPOSE AND NONINFRINGEMENT. IN NO EVENT SHALL THE
  - AUTHORS OR COPYRIGHT HOLDERS BE LIABLE FOR ANY CLAIM, DAMAGES OR OTHER
  - LIABILITY, WHETHER IN AN ACTION OF CONTRACT, TORT OR OTHERWISE, ARISING FROM,
  - OUT OF OR IN CONNECTION WITH THE SOFTWARE OR THE USE OR OTHER DEALINGS IN THE
  - SOFTWARE.
  -->

<svg data-big="true" xmlns="http://www.w3.org/2000/svg" width="16px" height="16px" viewBox="0 0 13 13">
  <rect id="frame" width="13" height="13" fill="none"/>
  <g fill="#AED581" fill-rule="evenodd">
    <path
      d="M6.542 12.351c-2.94 0-5.314-2.511-5.314-5.6 0-3.088 2.375-5.6 5.314-5.6 2.94 0 5.314 2.512 5.314 5.6 0 3.089-2.375 5.6-5.314 5.6zm5.242-5.597c0-3.061-2.354-5.544-5.258-5.544-2.903 0-5.258 2.483-5.258 5.544 0 3.063 2.355 5.545 5.258 5.545 2.905 0 5.258-2.482 5.258-5.545z"/>
    <path
      d="M6.409 1.794c.031.155.065.309.105.46l.157.932c-.056.162-.78.217-.86.227-.082.01-.205.196-.216.228a.345.345 0 0 0 .04.206c.036.094.416.226.547.228-.017.717-.508 1.256-.645 1.84-.078-.021-.286-.395-.313-.413-.027-.019-.212-.08-.293-.02-.074.007-.095.008-.118.04-.022.033-.045.936 0 1.014-.008.313-.001.446.176.558-.016.107-.03.297.137.248.069-.02.177-.171.196-.248.006-.007.006-.02 0-.02-.03-.077-.128-.114-.196-.145-.033-.082-.074-.381-.032-.456.023-.043.013-.123.013-.165.17.064.47.7.527.91.043.155.018.241.079.372.11.24.336.529.547.662.08.05.153.059.215.124.079.106.067.303.118.434.08.21.326.46.351.683-.296-.001-.643-.033-.86.104-.056.035-.1.105-.156.144.003.096.006.106.059.145-.105.163-.306.227-.372.434-.093.137-.062.457.059.517.02.017.005.008.039.02.113-.13.291-.185.41-.31.089-.092.139-.225.274-.268.535-.171 1.282.202 1.505-.352.046-.065.045-.187.04-.248.214.093.369.117.49.022.102-.08.195-.271.294-.678a.996.996 0 0 0 .017-.42c-.07-.282-.198-.536-.312-.765-.026-.052-.01-.16-.04-.207.006-.25.136-.154.254-.269.027-.025.031-.077.059-.103-.012-.08-.01-.112-.059-.145-.048-.033-.195 0-.293 0 .034-.45.174-.863-.254-1.013a.649.649 0 0 0-.293-.02.783.783 0 0 0-.176.082.432.432 0 0 0-.156.228c-.02.084.057.223.117.33.133-.029.11-.138.215-.186.007-.006.02-.006.02 0 .02.007.04-.004.058.021.019.025.034.595 0 .724-.011.044-.067.118-.039.207.047.146.216.287.293.413.113.185.233.422.294.641 0 .055.019.11.019.165.026.2-.04.514-.098.621-.058.107-.107.11-.137.124-.03.015-.084-.002-.11-.02-.044-.015-.031-.022-.066-.042.054-.176.184-.314.235-.517.083-.333-.08-.7-.176-.868-.128-.22-.25-.46-.43-.62-.147-.132-.34-.268-.45-.435-.052-.078-.05-.16-.098-.248-.045-.084-.144-.162-.176-.269-.297-1.007.573-1.709.333-2.688-.046-.184-.171-.32-.235-.476-.066-.16-.066-.308-.117-.475-.102-.33-.186-.66-.285-.998 2.48.08 4.466 2.24 4.466 4.892 0 2.704-2.063 4.895-4.608 4.895-2.545 0-4.608-2.191-4.608-4.895 0-2.67 2.015-4.843 4.519-4.893zM5.303 4.426c.023.049.036.073.078.103-.002.394-.045.973.088 1.184.021.016.036.031.062.036.06-.233.214-.493.267-.609.059-.126-.167-.669-.222-.756-.052-.083-.156-.081-.195-.186-.236-.005-.243.01-.372.103.012.066.018.06.04.104.068.015.159.022.254.02z"/>
  </g>
</svg>
