<!--
  - The MIT License (MIT)
  -
  - Copyright (c) 2015-2022 Elior "Mallowigi" Boukhobza
  -
  - Permission is hereby granted, free of charge, to any person obtaining a copy
  - of this software and associated documentation files (the "Software"), to deal
  - in the Software without restriction, including without limitation the rights
  - to use, copy, modify, merge, publish, distribute, sublicense, and/or sell
  - copies of the Software, and to permit persons to whom the Software is
  - furnished to do so, subject to the following conditions:
  -
  - The above copyright notice and this permission notice shall be included in all
  - copies or substantial portions of the Software.
  -
  - THE SOFTWARE IS PROVIDED "AS IS", WITHOUT WARRANTY OF ANY KIND, EXPRESS OR
  - IMPLIED, INCLUDING BUT NOT LIMITED TO THE WARRANTIES OF MERCHANTABILITY,
  - FITNESS FOR A PARTICULAR PURPOSE AND NONINFRINGEMENT. IN NO EVENT SHALL THE
  - AUTHORS OR COPYRIGHT HOLDERS BE LIABLE FOR ANY CLAIM, DAMAGES OR OTHER
  - LIABILITY, WHETHER IN AN ACTION OF CONTRACT, TORT OR OTHERWISE, ARISING FROM,
  - OUT OF OR IN CONNECTION WITH THE SOFTWARE OR THE USE OR OTHER DEALINGS IN THE
  - SOFTWARE.
  -
  -
  -->


<svg big="true" xmlns="http://www.w3.org/2000/svg" version="1.1" width="16px" height="16px" viewBox="0 0 24 24">
    <path fill="#F9A825"
          d="M13.07 10.41A5 5 0 0 0 13.07 4.59A3.39 3.39 0 0 1 15 4A3.5 3.5 0 0 1 15 11A3.39 3.39 0 0 1 13.07 10.41M5.5 7.5A3.5 3.5 0 1 1 9 11A3.5 3.5 0 0 1 5.5 7.5M7.5 7.5A1.5 1.5 0 1 0 9 6A1.5 1.5 0 0 0 7.5 7.5M16 17V19H2V17S2 13 9 13 16 17 16 17M14 17C13.86 16.22 12.67 15 9 15S4.07 16.31 4 17M15.95 13A5.32 5.32 0 0 1 18 17V19H22V17S22 13.37 15.94 13Z"/>
</svg>
