<!--
  - The MIT License (MIT)
  -
  - Copyright (c) 2015-2022 Elior "Mallowigi" Boukhobza
  -
  - Permission is hereby granted, free of charge, to any person obtaining a copy
  - of this software and associated documentation files (the "Software"), to deal
  - in the Software without restriction, including without limitation the rights
  - to use, copy, modify, merge, publish, distribute, sublicense, and/or sell
  - copies of the Software, and to permit persons to whom the Software is
  - furnished to do so, subject to the following conditions:
  -
  - The above copyright notice and this permission notice shall be included in all
  - copies or substantial portions of the Software.
  -
  - THE SOFTWARE IS PROVIDED "AS IS", WITHOUT WARRANTY OF ANY KIND, EXPRESS OR
  - IMPLIED, INCLUDING BUT NOT LIMITED TO THE WARRANTIES OF MERCHANTABILITY,
  - FITNESS FOR A PARTICULAR PURPOSE AND NONINFRINGEMENT. IN NO EVENT SHALL THE
  - AUTHORS OR COPYRIGHT HOLDERS BE LIABLE FOR ANY CLAIM, DAMAGES OR OTHER
  - LIABILITY, WHETHER IN AN ACTION OF CONTRACT, TORT OR OTHERWISE, ARISING FROM,
  - OUT OF OR IN CONNECTION WITH THE SOFTWARE OR THE USE OR OTHER DEALINGS IN THE
  - SOFTWARE.
  -
  -
  -->


<svg big="true" xmlns="http://www.w3.org/2000/svg" version="1.1" width="16px" height="16px" viewBox="0 0 24 24">
    <path fill="#9CCC65"
          d="M13 11A3 3 0 1 0 10 8A3 3 0 0 0 13 11M13 7A1 1 0 1 1 12 8A1 1 0 0 1 13 7M17.11 10.86A5 5 0 0 0 17.11 5.14A2.91 2.91 0 0 1 18 5A3 3 0 0 1 18 11A2.91 2.91 0 0 1 17.11 10.86M13 13C7 13 7 17 7 17V19H19V17S19 13 13 13M9 17C9 16.71 9.32 15 13 15C16.5 15 16.94 16.56 17 17M24 17V19H21V17A5.6 5.6 0 0 0 19.2 13.06C24 13.55 24 17 24 17M7.34 8.92L8.5 10.33L3.75 15.08L1 12.08L2.16 10.92L3.75 12.5L7.34 8.92"/>
</svg>
