<!--
  - The MIT License (MIT)
  -
  - Copyright (c) 2015-2022 Elior "Mallowigi" Boukhobza
  -
  - Permission is hereby granted, free of charge, to any person obtaining a copy
  - of this software and associated documentation files (the "Software"), to deal
  - in the Software without restriction, including without limitation the rights
  - to use, copy, modify, merge, publish, distribute, sublicense, and/or sell
  - copies of the Software, and to permit persons to whom the Software is
  - furnished to do so, subject to the following conditions:
  -
  - The above copyright notice and this permission notice shall be included in all
  - copies or substantial portions of the Software.
  -
  - THE SOFTWARE IS PROVIDED "AS IS", WITHOUT WARRANTY OF ANY KIND, EXPRESS OR
  - IMPLIED, INCLUDING BUT NOT LIMITED TO THE WARRANTIES OF MERCHANTABILITY,
  - FITNESS FOR A PARTICULAR PURPOSE AND NONINFRINGEMENT. IN NO EVENT SHALL THE
  - AUTHORS OR COPYRIGHT HOLDERS BE LIABLE FOR ANY CLAIM, DAMAGES OR OTHER
  - LIABILITY, WHETHER IN AN ACTION OF CONTRACT, TORT OR OTHERWISE, ARISING FROM,
  - OUT OF OR IN CONNECTION WITH THE SOFTWARE OR THE USE OR OTHER DEALINGS IN THE
  - SOFTWARE.
  -
  -
  -->


<svg big="true" xmlns="http://www.w3.org/2000/svg" version="1.1" width="16px" height="16px" viewBox="0 0 24 24">
    <path fill="#FFD54F"
          d="M12,9C10.4,9 8.85,9.25 7.4,9.72V12.82C7.4,13.22 7.17,13.56 6.84,13.72C5.86,14.21 4.97,14.84 4.17,15.57C4,15.75 3.75,15.86 3.5,15.86C3.2,15.86 2.95,15.74 2.77,15.56L0.29,13.08C0.11,12.9 0,12.65 0,12.38C0,12.1 0.11,11.85 0.29,11.67C3.34,8.77 7.46,7 12,7C16.54,7 20.66,8.77 23.71,11.67C23.89,11.85 24,12.1 24,12.38C24,12.65 23.89,12.9 23.71,13.08L21.23,15.56C21.05,15.74 20.8,15.86 20.5,15.86C20.25,15.86 20,15.75 19.82,15.57C19.03,14.84 18.14,14.21 17.16,13.72C16.83,13.56 16.6,13.22 16.6,12.82V9.72C15.15,9.25 13.6,9 12,9Z" />
</svg>
