<!--
  - The MIT License (MIT)
  -
  - Copyright (c) 2015-2022 Elior "Mallowigi" Boukhobza
  -
  - Permission is hereby granted, free of charge, to any person obtaining a copy
  - of this software and associated documentation files (the "Software"), to deal
  - in the Software without restriction, including without limitation the rights
  - to use, copy, modify, merge, publish, distribute, sublicense, and/or sell
  - copies of the Software, and to permit persons to whom the Software is
  - furnished to do so, subject to the following conditions:
  -
  - The above copyright notice and this permission notice shall be included in all
  - copies or substantial portions of the Software.
  -
  - THE SOFTWARE IS PROVIDED "AS IS", WITHOUT WARRANTY OF ANY KIND, EXPRESS OR
  - IMPLIED, INCLUDING BUT NOT LIMITED TO THE WARRANTIES OF MERCHANTABILITY,
  - FITNESS FOR A PARTICULAR PURPOSE AND NONINFRINGEMENT. IN NO EVENT SHALL THE
  - AUTHORS OR COPYRIGHT HOLDERS BE LIABLE FOR ANY CLAIM, DAMAGES OR OTHER
  - LIABILITY, WHETHER IN AN ACTION OF CONTRACT, TORT OR OTHERWISE, ARISING FROM,
  - OUT OF OR IN CONNECTION WITH THE SOFTWARE OR THE USE OR OTHER DEALINGS IN THE
  - SOFTWARE.
  -
  -
  -->


<svg big="true" xmlns="http://www.w3.org/2000/svg" version="1.1" width="16px" height="16px" viewBox="0 0 24 24">
    <mask id="mask">
        <rect width="24" height="24" fill="#ffffff"></rect>
        <line x1="0" y1="-2" x2="24" y2="22" stroke="#000000" stroke-width="2"></line>
    </mask>
    <line x1="0" y1="0" x2="24" y2="24" stroke="#E57373" stroke-width="2" mask="url(#mask)"></line>

    <path fill="#E57373" mask="url(#mask)"
          d="M17.3,11C17.3,14 14.76,16.1 12,16.1C9.24,16.1 6.7,14 6.7,11H5C5,14.41 7.72,17.23 11,17.72V21H13V17.72C16.28,17.23 19,14.41 19,11M10.8,4.9C10.8,4.24 11.34,3.7 12,3.7C12.66,3.7 13.2,4.24 13.2,4.9L13.19,11.1C13.19,11.76 12.66,12.3 12,12.3C11.34,12.3 10.8,11.76 10.8,11.1M12,14A3,3 0 0,0 15,11V5A3,3 0 0,0 12,2A3,3 0 0,0 9,5V11A3,3 0 0,0 12,14Z"/>
</svg>
