<!--
  - The MIT License (MIT)
  -
  - Copyright (c) 2015-2022 Elior "Mallowigi" Boukhobza
  -
  - Permission is hereby granted, free of charge, to any person obtaining a copy
  - of this software and associated documentation files (the "Software"), to deal
  - in the Software without restriction, including without limitation the rights
  - to use, copy, modify, merge, publish, distribute, sublicense, and/or sell
  - copies of the Software, and to permit persons to whom the Software is
  - furnished to do so, subject to the following conditions:
  -
  - The above copyright notice and this permission notice shall be included in all
  - copies or substantial portions of the Software.
  -
  - THE SOFTWARE IS PROVIDED "AS IS", WITHOUT WARRANTY OF ANY KIND, EXPRESS OR
  - IMPLIED, INCLUDING BUT NOT LIMITED TO THE WARRANTIES OF MERCHANTABILITY,
  - FITNESS FOR A PARTICULAR PURPOSE AND NONINFRINGEMENT. IN NO EVENT SHALL THE
  - AUTHORS OR COPYRIGHT HOLDERS BE LIABLE FOR ANY CLAIM, DAMAGES OR OTHER
  - LIABILITY, WHETHER IN AN ACTION OF CONTRACT, TORT OR OTHERWISE, ARISING FROM,
  - OUT OF OR IN CONNECTION WITH THE SOFTWARE OR THE USE OR OTHER DEALINGS IN THE
  - SOFTWARE.
  -
  -
  -->


<svg big="true" xmlns="http://www.w3.org/2000/svg" version="1.1" width="16px" height="16px" fill="#4DD0E1"
     viewBox="0 0 24 24">
    <path
            d="M21 18H15V15H13.3C12.2 17.4 9.7 19 7 19C3.1 19 0 15.9 0 12S3.1 5 7 5C9.7 5 12.2 6.6 13.3 9H24V15H21V18M17 16H19V13H22V11H11.9L11.7 10.3C11 8.3 9.1 7 7 7C4.2 7 2 9.2 2 12S4.2 17 7 17C9.1 17 11 15.7 11.7 13.7L11.9 13H17V16M7 15C5.3 15 4 13.7 4 12S5.3 9 7 9 10 10.3 10 12 8.7 15 7 15M7 11C6.4 11 6 11.4 6 12S6.4 13 7 13 8 12.6 8 12 7.6 11 7 11Z"/>
</svg>
