<!--
  - The MIT License (MIT)
  -
  - Copyright (c) 2015-2022 Elior "Mallowigi" Boukhobza
  -
  - Permission is hereby granted, free of charge, to any person obtaining a copy
  - of this software and associated documentation files (the "Software"), to deal
  - in the Software without restriction, including without limitation the rights
  - to use, copy, modify, merge, publish, distribute, sublicense, and/or sell
  - copies of the Software, and to permit persons to whom the Software is
  - furnished to do so, subject to the following conditions:
  -
  - The above copyright notice and this permission notice shall be included in all
  - copies or substantial portions of the Software.
  -
  - THE SOFTWARE IS PROVIDED "AS IS", WITHOUT WARRANTY OF ANY KIND, EXPRESS OR
  - IMPLIED, INCLUDING BUT NOT LIMITED TO THE WARRANTIES OF MERCHANTABILITY,
  - FITNESS FOR A PARTICULAR PURPOSE AND NONINFRINGEMENT. IN NO EVENT SHALL THE
  - AUTHORS OR COPYRIGHT HOLDERS BE LIABLE FOR ANY CLAIM, DAMAGES OR OTHER
  - LIABILITY, WHETHER IN AN ACTION OF CONTRACT, TORT OR OTHERWISE, ARISING FROM,
  - OUT OF OR IN CONNECTION WITH THE SOFTWARE OR THE USE OR OTHER DEALINGS IN THE
  - SOFTWARE.
  -
  -
  -->


<svg big="true" xmlns="http://www.w3.org/2000/svg" version="1.1" width="16px" height="16px" viewBox="0 0 24 24">
    <path fill="#4DB6AC"
          d="M12,5.5A3.5,3.5 0 0,1 15.5,9A3.5,3.5 0 0,1 12,12.5A3.5,3.5 0 0,1 8.5,9A3.5,3.5 0 0,1 12,5.5M5,8C5.56,8 6.08,8.15 6.53,8.42C6.38,9.85 6.8,11.27 7.66,12.38C7.16,13.34 6.16,14 5,14A3,3 0 0,1 2,11A3,3 0 0,1 5,8M19,8A3,3 0 0,1 22,11A3,3 0 0,1 19,14C17.84,14 16.84,13.34 16.34,12.38C17.2,11.27 17.62,9.85 17.47,8.42C17.92,8.15 18.44,8 19,8M5.5,18.25C5.5,16.18 8.41,14.5 12,14.5C15.59,14.5 18.5,16.18 18.5,18.25V20H5.5V18.25M0,20V18.5C0,17.11 1.89,15.94 4.45,15.6C3.86,16.28 3.5,17.22 3.5,18.25V20H0M24,20H20.5V18.25C20.5,17.22 20.14,16.28 19.55,15.6C22.11,15.94 24,17.11 24,18.5V20Z" />
</svg>
