<svg xmlns="http://www.w3.org/2000/svg" xml:space="preserve" width="16" height="16" fill-rule="evenodd" stroke-linejoin="round" stroke-miterlimit="1.414" clip-rule="evenodd"  viewBox="0 0 24 24"><path fill="#009688" fill-rule="nonzero" d="M10 4H4c-1.11 0-2 .89-2 2v12c0 1.097.903 2 2 2h16c1.097 0 2-.903 2-2V8a2 2 0 0 0-2-2h-8z"/><path fill="#b2dfdb" fill-rule="nonzero" d="M18.575 12.859h3.713l-3.713-3.713zM13.85 8.134h5.4l4.05 4.05v8.1c0 .74-.61 1.35-1.35 1.35h-8.1a1.35 1.35 0 0 1-1.35-1.35v-10.8c0-.75.6-1.35 1.35-1.35m0 12.15h8.1v-5.4l-2.7 2.7-1.35-1.35zm1.35-7.425c-.74 0-1.35.61-1.35 1.35s.61 1.35 1.35 1.35 1.35-.61 1.35-1.35-.61-1.35-1.35-1.35"/></svg>