<!--
  - The MIT License (MIT)
  -
  - Copyright (c) 2015-2021 Elior "Mallowigi" Boukhobza
  -
  - Permission is hereby granted, free of charge, to any person obtaining a copy
  - of this software and associated documentation files (the "Software"), to deal
  - in the Software without restriction, including without limitation the rights
  - to use, copy, modify, merge, publish, distribute, sublicense, and/or sell
  - copies of the Software, and to permit persons to whom the Software is
  - furnished to do so, subject to the following conditions:
  -
  - The above copyright notice and this permission notice shall be included in all
  - copies or substantial portions of the Software.
  -
  - THE SOFTWARE IS PROVIDED "AS IS", WITHOUT WARRANTY OF ANY KIND, EXPRESS OR
  - IMPLIED, INCLUDING BUT NOT LIMITED TO THE WARRANTIES OF MERCHANTABILITY,
  - FITNESS FOR A PARTICULAR PURPOSE AND NONINFRINGEMENT. IN NO EVENT SHALL THE
  - AUTHORS OR COPYRIGHT HOLDERS BE LIABLE FOR ANY CLAIM, DAMAGES OR OTHER
  - LIABILITY, WHETHER IN AN ACTION OF CONTRACT, TORT OR OTHERWISE, ARISING FROM,
  - OUT OF OR IN CONNECTION WITH THE SOFTWARE OR THE USE OR OTHER DEALINGS IN THE
  - SOFTWARE.
  -
  -
  -->

<svg big="true" clip-rule="evenodd" fill-rule="evenodd" stroke-linejoin="round" stroke-miterlimit="1.4142" version="1.1"
     viewBox="0 0 24 24" width="16px" height="16px" xml:space="preserve" xmlns="http://www.w3.org/2000/svg">
    <path d="m10 4h-6c-1.11 0-2 0.89-2 2v12c0 1.097 0.903 2 2 2h16c1.097 0 2-0.903 2-2v-10c0-1.11-0.9-2-2-2h-8l-2-2z"
          fill="#009688" fill-rule="nonzero" />
    <g transform="matrix(.675 0 0 .675 9.8 6.784)" fill="#b2dfdb">   <path
            d="m13 9h5.5l-5.5-5.5v5.5m-7-7h8l6 6v12c0 1.097-0.903 2-2 2h-12c-1.11 0-2-0.9-2-2v-16c0-1.11 0.89-2 2-2m0 18h12v-8l-4 4-2-2-6 6m2-11c-1.097 0-2 0.903-2 2s0.903 2 2 2 2-0.903 2-2-0.903-2-2-2z"
            fill="#b2dfdb" fill-rule="nonzero" />
    </g>
</svg>
