<svg xmlns="http://www.w3.org/2000/svg" xml:space="preserve" width="16" height="16" fill-rule="evenodd" stroke-linejoin="round" stroke-miterlimit="1.414" clip-rule="evenodd" data-big="true" viewBox="0 0 24 24"><path fill="#8E24AA" d="M20 18H4V8h16m0-2h-8l-2-2H4c-1.11 0-2 .89-2 2v12a2 2 0 0 0 2 2h16a2 2 0 0 0 2-2V8a2 2 0 0 0-2-2"/><path fill="#CE93D8" d="M21.598 12.059h-6.084v-1.217h6.084m-2.434 6.085h-3.65V15.71h3.65m2.434-1.217h-6.084v-1.217h6.084m.608-4.26h-7.301a1.217 1.217 0 0 0-1.217 1.218v7.301a1.217 1.217 0 0 0 1.217 1.217h7.301a1.217 1.217 0 0 0 1.217-1.217v-7.301a1.217 1.217 0 0 0-1.217-1.217m-9.735 2.434h-1.217v8.518a1.217 1.217 0 0 0 1.217 1.217h8.519v-1.217H12.47z"/></svg>