<svg xmlns="http://www.w3.org/2000/svg" xml:space="preserve" width="16" height="16" fill-rule="evenodd"
     stroke-linejoin="round" stroke-miterlimit="1.414" clip-rule="evenodd" viewBox="0 0 24 24"><path fill="#795548" fill-rule="nonzero" d="M10 4H4c-1.11 0-2 .89-2 2v12c0 1.097.903 2 2 2h16c1.097 0 2-.903 2-2V8a2 2 0 0 0-2-2h-8z"/>
  <path
      d="M17.338 9.322a6.187 6.187 0 0 1 6.187 6.187 6.187 6.187 0 0 1-6.187 6.186 6.187 6.187 0 0 1-6.186-6.187 6.187 6.187 0 0 1 6.186-6.186m0 5.259a.93.93 0 0 0-.928.927.93.93 0 0 0 .928.928.93.93 0 0 0 .928-.928.93.93 0 0 0-.928-.927m-3.403 0a.93.93 0 0 0-.928.927.93.93 0 0 0 .928.928.93.93 0 0 0 .928-.928.93.93 0 0 0-.928-.927m6.806 0a.93.93 0 0 0-.928.927.93.93 0 0 0 .928.928.93.93 0 0 0 .928-.928.93.93 0 0 0-.928-.927"
      style="fill:#bcaaa4;stroke-width:.61865"/></svg>