<svg xmlns="http://www.w3.org/2000/svg" width="16" height="16" fill-rule="evenodd" stroke-linejoin="round" stroke-miterlimit="1.414" clip-rule="evenodd" data-big="true" viewBox="0 0 24 24"><path fill="#BCAAA4" d="M20 18H4V8h16m0-2h-8l-2-2H4c-1.11 0-2 .89-2 2v12a2 2 0 0 0 2 2h16a2 2 0 0 0 2-2V8a2 2 0 0 0-2-2"/><path fill="#A1887F" d="M18.046 11.194a4.93 4.93 0 0 0-4.929 4.928h-1.642l2.13 2.13.038.077 2.213-2.207h-1.643a3.83 3.83 0 0 1 3.833-3.833 3.83 3.83 0 0 1 3.833 3.833 3.83 3.83 0 0 1-3.833 3.834 3.8 3.8 0 0 1-2.705-1.128l-.778.777a4.9 4.9 0 0 0 3.483 1.446 4.929 4.929 0 0 0 0-9.857m-.548 2.738v2.738l2.344 1.39.394-.662-1.916-1.139v-2.327z"/></svg>