<!--
  - The MIT License (MIT)
  -
  - Copyright (c) 2015-2024 Elior "Mallowigi" Boukhobza
  -
  - Permission is hereby granted, free of charge, to any person obtaining a copy
  - of this software and associated documentation files (the "Software"), to deal
  - in the Software without restriction, including without limitation the rights
  - to use, copy, modify, merge, publish, distribute, sublicense, and/or sell
  - copies of the Software, and to permit persons to whom the Software is
  - furnished to do so, subject to the following conditions:
  -
  - The above copyright notice and this permission notice shall be included in all
  - copies or substantial portions of the Software.
  -
  - THE SOFTWARE IS PROVIDED "AS IS", WITHOUT WARRANTY OF ANY KIND, EXPRESS OR
  - IMPLIED, INCLUDING BUT NOT LIMITED TO THE WARRANTIES OF MERCHANTABILITY,
  - FITNESS FOR A PARTICULAR PURPOSE AND NONINFRINGEMENT. IN NO EVENT SHALL THE
  - AUTHORS OR COPYRIGHT HOLDERS BE LIABLE FOR ANY CLAIM, DAMAGES OR OTHER
  - LIABILITY, WHETHER IN AN ACTION OF CONTRACT, TORT OR OTHERWISE, ARISING FROM,
  - OUT OF OR IN CONNECTION WITH THE SOFTWARE OR THE USE OR OTHER DEALINGS IN THE
  - SOFTWARE.
  -->


<svg data-big="true" width="16px" height="16px" xmlns="http://www.w3.org/2000/svg" viewBox="0 0 24 24" fill="#FFCB6B">
  <g transform="scale(1.5)">
    <rect width="1" height="12" x="1" y="2"/>
    <rect width="2" height="1" x="2" y="2"/>
    <rect width="2" height="1" x="2" y="13"/>
    <rect width="1" height="12" x="14" y="2"/>
    <rect width="3" height="1" x="12" y="2"/>
    <rect width="2" height="1" x="12" y="13"/>
  </g>
  <g transform="scale(0.75) translate(4 4)">
    <path id="svg_1"
          d="m20,18l-16,0l0,-10l16,0m0,-2l-8,0l-2,-2l-6,0c-1.11,0 -2,0.89 -2,2l0,12a2,2 0 0 0 2,2l16,0a2,2 0 0 0 2,-2l0,-10c0,-1.11 -0.9,-2 -2,-2z"
    />
    <ellipse stroke="#0f0f00" ry="2.4" rx="2.4" id="svg_5" cy="13.08624" cx="7.687954" stroke-width="0"
             fill="#80CBC4"/>
  </g>
</svg>
