<svg xmlns="http://www.w3.org/2000/svg" xml:space="preserve" width="16" height="16" fill="#C792EA" fill-rule="evenodd" stroke-linejoin="round" stroke-miterlimit="1.414" clip-rule="evenodd"  viewBox="0 0 24 24"><path d="M1.5 3H3v18H1.5zM3 3h3v1.5H3zM3 19.5h3V21H3zM21 3h1.5v18H21z"/><path d="M18 3h4.5v1.5H18zM18 19.5h3V21h-3z"/><path fill-rule="nonzero" d="M10.5 6H6c-.832 0-1.5.668-1.5 1.5v9c0 .823.677 1.5 1.5 1.5h12c.823 0 1.5-.677 1.5-1.5V9A1.5 1.5 0 0 0 18 7.5h-6z"/><path fill="#80cbc4" stroke="#000" stroke-linecap="round" stroke-linejoin="bevel" stroke-width=".75" d="M13.5 13.5h6v6h-6z"/></svg>