<svg xmlns="http://www.w3.org/2000/svg" width="16" height="16" fill="#80CBC4" data-big="true" viewBox="0 0 24 24"><path d="M1.5 3H3v18H1.5zM3 3h3v1.5H3zM3 19.5h3V21H3zM21 3h1.5v18H21z"/><path d="M18 3h4.5v1.5H18zM18 19.5h3V21h-3zM7.125 8.25A1.125 1.125 0 0 1 6 7.125 1.125 1.125 0 0 1 7.125 6 1.125 1.125 0 0 1 8.25 7.125 1.125 1.125 0 0 1 7.125 8.25m11.933 3.435-6.75-6.75A1.5 1.5 0 0 0 11.25 4.5H6c-.832 0-1.5.668-1.5 1.5v5.25c0 .413.165.788.442 1.058l6.743 6.75c.277.27.652.442 1.065.442s.788-.172 1.058-.442l5.25-5.25c.277-.27.442-.645.442-1.058 0-.42-.172-.795-.442-1.065"/></svg>