<!--
  - The MIT License (MIT)
  -
  - Copyright (c) 2015-2022 Elior "Mallowigi" Boukhobza
  -
  - Permission is hereby granted, free of charge, to any person obtaining a copy
  - of this software and associated documentation files (the "Software"), to deal
  - in the Software without restriction, including without limitation the rights
  - to use, copy, modify, merge, publish, distribute, sublicense, and/or sell
  - copies of the Software, and to permit persons to whom the Software is
  - furnished to do so, subject to the following conditions:
  -
  - The above copyright notice and this permission notice shall be included in all
  - copies or substantial portions of the Software.
  -
  - THE SOFTWARE IS PROVIDED "AS IS", WITHOUT WARRANTY OF ANY KIND, EXPRESS OR
  - IMPLIED, INCLUDING BUT NOT LIMITED TO THE WARRANTIES OF MERCHANTABILITY,
  - FITNESS FOR A PARTICULAR PURPOSE AND NONINFRINGEMENT. IN NO EVENT SHALL THE
  - AUTHORS OR COPYRIGHT HOLDERS BE LIABLE FOR ANY CLAIM, DAMAGES OR OTHER
  - LIABILITY, WHETHER IN AN ACTION OF CONTRACT, TORT OR OTHERWISE, ARISING FROM,
  - OUT OF OR IN CONNECTION WITH THE SOFTWARE OR THE USE OR OTHER DEALINGS IN THE
  - SOFTWARE.
  -
  -
  -->

<svg big="true" xmlns="http://www.w3.org/2000/svg" width="16px" height="16px" viewBox="0 0 16 16">
    <path fill="#80CBC4" fill-rule="evenodd"
          d="M13 11.2675644C13.5978014 11.6133738 14 12.2597176 14 13 14 14.1045695 13.1045695 15 12 15 10.8954305 15 10 14.1045695 10 13 10 12.2597176 10.4021986 11.6133738 11 11.2675644L11 5.8C11 5.24771525 10.5522847 4.8 10 4.8L9 4.8 9 6.75 6 3.75 9 .75 9 2.8 10 2.8C11.6568542 2.8 13 4.14314575 13 5.8L13 11.2675644zM5 11.2675644C5.59780137 11.6133738 6 12.2597176 6 13 6 14.1045695 5.1045695 15 4 15 2.8954305 15 2 14.1045695 2 13 2 12.2597176 2.40219863 11.6133738 3 11.2675644L3 5.73243561C2.40219863 5.38662619 2 4.74028236 2 4 2 2.8954305 2.8954305 2 4 2 5.1045695 2 6 2.8954305 6 4 6 4.74028236 5.59780137 5.38662619 5 5.73243561L5 11.2675644z" />
</svg>
