<!--
  - The MIT License (MIT)
  -
  - Copyright (c) 2015-2024 Elior "Mallowigi" Boukhobza
  -
  - Permission is hereby granted, free of charge, to any person obtaining a copy
  - of this software and associated documentation files (the "Software"), to deal
  - in the Software without restriction, including without limitation the rights
  - to use, copy, modify, merge, publish, distribute, sublicense, and/or sell
  - copies of the Software, and to permit persons to whom the Software is
  - furnished to do so, subject to the following conditions:
  -
  - The above copyright notice and this permission notice shall be included in all
  - copies or substantial portions of the Software.
  -
  - THE SOFTWARE IS PROVIDED "AS IS", WITHOUT WARRANTY OF ANY KIND, EXPRESS OR
  - IMPLIED, INCLUDING BUT NOT LIMITED TO THE WARRANTIES OF MERCHANTABILITY,
  - FITNESS FOR A PARTICULAR PURPOSE AND NONINFRINGEMENT. IN NO EVENT SHALL THE
  - AUTHORS OR COPYRIGHT HOLDERS BE LIABLE FOR ANY CLAIM, DAMAGES OR OTHER
  - LIABILITY, WHETHER IN AN ACTION OF CONTRACT, TORT OR OTHERWISE, ARISING FROM,
  - OUT OF OR IN CONNECTION WITH THE SOFTWARE OR THE USE OR OTHER DEALINGS IN THE
  - SOFTWARE.
  -->

<svg xmlns="http://www.w3.org/2000/svg" width="16" height="16" data-big="true" viewBox="0 0 24 24">
  <path fill="#4DD0E1"
        d="M13.5 4A1.5 1.5 0 0 0 12 5.5 1.5 1.5 0 0 0 13.5 7 1.5 1.5 0 0 0 15 5.5 1.5 1.5 0 0 0 13.5 4m-.36 4.77c-1.19.1-4.44 2.69-4.44 2.69-.2.15-.14.14.02.42.16.27.14.29.33.16.2-.13.53-.34 1.08-.68 2.12-1.36.34 1.78-.57 7.07-.36 2.62 2 1.27 2.61.87.6-.39 2.21-1.5 2.37-1.61.22-.15.06-.27-.11-.52-.12-.17-.24-.05-.24-.05-.65.43-1.84 1.33-2 .76-.19-.57 1.03-4.48 1.7-7.17.11-.64.41-2.04-.75-1.94"/>
</svg>
