<!--
  - The MIT License (MIT)
  -
  - Copyright (c) 2015-2024 Elior "Mallowigi" Boukhobza
  -
  - Permission is hereby granted, free of charge, to any person obtaining a copy
  - of this software and associated documentation files (the "Software"), to deal
  - in the Software without restriction, including without limitation the rights
  - to use, copy, modify, merge, publish, distribute, sublicense, and/or sell
  - copies of the Software, and to permit persons to whom the Software is
  - furnished to do so, subject to the following conditions:
  -
  - The above copyright notice and this permission notice shall be included in all
  - copies or substantial portions of the Software.
  -
  - THE SOFTWARE IS PROVIDED "AS IS", WITHOUT WARRANTY OF ANY KIND, EXPRESS OR
  - IMPLIED, INCLUDING BUT NOT LIMITED TO THE WARRANTIES OF MERCHANTABILITY,
  - FITNESS FOR A PARTICULAR PURPOSE AND NONINFRINGEMENT. IN NO EVENT SHALL THE
  - AUTHORS OR COPYRIGHT HOLDERS BE LIABLE FOR ANY CLAIM, DAMAGES OR OTHER
  - LIABILITY, WHETHER IN AN ACTION OF CONTRACT, TORT OR OTHERWISE, ARISING FROM,
  - OUT OF OR IN CONNECTION WITH THE SOFTWARE OR THE USE OR OTHER DEALINGS IN THE
  - SOFTWARE.
  -->
<svg xmlns="http://www.w3.org/2000/svg" width="16px" height="16px" viewBox="0 0 16 16" version="1.1" data-big="true">
  <g fill="#EC407A">
    <path
      d="M 2.558594 2.089844 C 3.519531 1.398438 5.589844 0.917969 7.960938 0.917969 C 10.328125 0.917969 12.398438 1.398438 13.359375 2.089844 L 13.359375 14.148438 C 12.398438 14.839844 10.328125 15.320312 7.960938 15.320312 C 5.589844 15.320312 3.519531 14.839844 2.558594 14.148438 L 2.558594 13.535156 L 5.03125 13.03125 C 5.726562 12.882812 6.347656 12.496094 6.78125 11.933594 C 7.214844 11.371094 7.433594 10.671875 7.394531 9.960938 L 7.535156 9.929688 C 8.304688 9.773438 8.988281 9.332031 9.425781 8.683594 C 9.792969 8.148438 9.972656 7.507812 9.933594 6.859375 L 10.082031 6.832031 C 10.867188 6.667969 11.535156 6.15625 11.964844 5.378906 C 12.359375 4.667969 12.496094 3.820312 12.339844 3.058594 L 12.277344 2.753906 C 12.257812 2.660156 12.199219 2.578125 12.121094 2.527344 C 12.039062 2.472656 11.941406 2.453125 11.847656 2.472656 L 2.558594 4.378906 Z M 2.558594 2.089844 "/>
    <path
      d="M 6.046875 10.238281 C 6.027344 10.511719 5.941406 10.773438 5.789062 11.003906 C 5.546875 11.367188 5.167969 11.625 4.738281 11.710938 L 2.5625 12.15625 L 2.5625 5.757812 L 11.03125 4.019531 C 10.992188 4.265625 10.910156 4.503906 10.789062 4.726562 C 10.652344 4.972656 10.34375 5.402344 9.820312 5.507812 L 7.128906 6.0625 C 6.761719 6.136719 6.515625 6.488281 6.585938 6.855469 C 6.617188 7.007812 6.699219 7.148438 6.820312 7.246094 C 6.941406 7.34375 7.09375 7.398438 7.25 7.398438 C 7.292969 7.398438 7.339844 7.394531 7.382812 7.386719 L 8.589844 7.136719 C 8.566406 7.414062 8.476562 7.679688 8.324219 7.910156 C 8.089844 8.269531 7.71875 8.519531 7.300781 8.605469 L 4.574219 9.164062 C 4.414062 9.199219 4.273438 9.292969 4.175781 9.429688 C 4.078125 9.5625 4.035156 9.726562 4.050781 9.890625 C 4.066406 10.054688 4.144531 10.207031 4.265625 10.320312 C 4.386719 10.433594 4.546875 10.496094 4.710938 10.5 C 4.757812 10.5 4.800781 10.496094 4.84375 10.484375 Z M 6.046875 10.238281 "/>
  </g>
</svg>
