<!--
  - The MIT License (MIT)
  -
  - Copyright (c) 2015-2024 Elior "Mallowigi" Boukhobza
  -
  - Permission is hereby granted, free of charge, to any person obtaining a copy
  - of this software and associated documentation files (the "Software"), to deal
  - in the Software without restriction, including without limitation the rights
  - to use, copy, modify, merge, publish, distribute, sublicense, and/or sell
  - copies of the Software, and to permit persons to whom the Software is
  - furnished to do so, subject to the following conditions:
  -
  - The above copyright notice and this permission notice shall be included in all
  - copies or substantial portions of the Software.
  -
  - THE SOFTWARE IS PROVIDED "AS IS", WITHOUT WARRANTY OF ANY KIND, EXPRESS OR
  - IMPLIED, INCLUDING BUT NOT LIMITED TO THE WARRANTIES OF MERCHANTABILITY,
  - FITNESS FOR A PARTICULAR PURPOSE AND NONINFRINGEMENT. IN NO EVENT SHALL THE
  - AUTHORS OR COPYRIGHT HOLDERS BE LIABLE FOR ANY CLAIM, DAMAGES OR OTHER
  - LIABILITY, WHETHER IN AN ACTION OF CONTRACT, TORT OR OTHERWISE, ARISING FROM,
  - OUT OF OR IN CONNECTION WITH THE SOFTWARE OR THE USE OR OTHER DEALINGS IN THE
  - SOFTWARE.
  -
  -->

<svg xmlns="http://www.w3.org/2000/svg" enable-background="new 0 0 24 24" height="16px" viewBox="0 0 24 24" width="16px"
     fill="#BA68C8" data-big="true">
  <path
    d="M7.06 8.94 5 8l2.06-.94L8 5l.94 2.06L11 8l-2.06.94L8 11l-.94-2.06zM8 21l.94-2.06L11 18l-2.06-.94L8 15l-.94 2.06L5 18l2.06.94L8 21zm-3.63-8.63L3 13l1.37.63L5 15l.63-1.37L7 13l-1.37-.63L5 11l-.63 1.37zM12 12c0-2.73 1.08-5.27 2.75-7.25L12 2h7v7l-2.82-2.82C14.84 7.82 14 9.88 14 12c0 3.32 2.1 6.36 5 7.82V22c-4.09-1.59-7-5.65-7-10z"/>
</svg>
