<!--
  - The MIT License (MIT)
  -
  - Copyright (c) 2015-2022 Elior "Mallowigi" Boukhobza
  -
  - Permission is hereby granted, free of charge, to any person obtaining a copy
  - of this software and associated documentation files (the "Software"), to deal
  - in the Software without restriction, including without limitation the rights
  - to use, copy, modify, merge, publish, distribute, sublicense, and/or sell
  - copies of the Software, and to permit persons to whom the Software is
  - furnished to do so, subject to the following conditions:
  -
  - The above copyright notice and this permission notice shall be included in all
  - copies or substantial portions of the Software.
  -
  - THE SOFTWARE IS PROVIDED "AS IS", WITHOUT WARRANTY OF ANY KIND, EXPRESS OR
  - IMPLIED, INCLUDING BUT NOT LIMITED TO THE WARRANTIES OF MERCHANTABILITY,
  - FITNESS FOR A PARTICULAR PURPOSE AND NONINFRINGEMENT. IN NO EVENT SHALL THE
  - AUTHORS OR COPYRIGHT HOLDERS BE LIABLE FOR ANY CLAIM, DAMAGES OR OTHER
  - LIABILITY, WHETHER IN AN ACTION OF CONTRACT, TORT OR OTHERWISE, ARISING FROM,
  - OUT OF OR IN CONNECTION WITH THE SOFTWARE OR THE USE OR OTHER DEALINGS IN THE
  - SOFTWARE.
  -
  -
  -->


<svg big="true" xmlns="http://www.w3.org/2000/svg" version="1.1" width="16px" height="16px" viewBox="0 0 24 24">
  <path fill="#90A4AE"
        d="M12,4L9.91,6.09L12,8.18M4.27,3L3,4.27L7.73,9H3V15H7L12,20V13.27L16.25,17.53C15.58,18.04 14.83,18.46 14,18.7V20.77C15.38,20.45 16.63,19.82 17.68,18.96L19.73,21L21,19.73L12,10.73M19,12C19,12.94 18.8,13.82 18.46,14.64L19.97,16.15C20.62,14.91 21,13.5 21,12C21,7.72 18,4.14 14,3.23V5.29C16.89,6.15 19,8.83 19,12M16.5,12C16.5,10.23 15.5,8.71 14,7.97V10.18L16.45,12.63C16.5,12.43 16.5,12.21 16.5,12Z" />
</svg>
