<!--
  - The MIT License (MIT)
  -
  - Copyright (c) 2015-2023 Elior "Mallowigi" Boukhobza
  -
  - Permission is hereby granted, free of charge, to any person obtaining a copy
  - of this software and associated documentation files (the "Software"), to deal
  - in the Software without restriction, including without limitation the rights
  - to use, copy, modify, merge, publish, distribute, sublicense, and/or sell
  - copies of the Software, and to permit persons to whom the Software is
  - furnished to do so, subject to the following conditions:
  -
  - The above copyright notice and this permission notice shall be included in all
  - copies or substantial portions of the Software.
  -
  - THE SOFTWARE IS PROVIDED "AS IS", WITHOUT WARRANTY OF ANY KIND, EXPRESS OR
  - IMPLIED, INCLUDING BUT NOT LIMITED TO THE WARRANTIES OF MERCHANTABILITY,
  - FITNESS FOR A PARTICULAR PURPOSE AND NONINFRINGEMENT. IN NO EVENT SHALL THE
  - AUTHORS OR COPYRIGHT HOLDERS BE LIABLE FOR ANY CLAIM, DAMAGES OR OTHER
  - LIABILITY, WHETHER IN AN ACTION OF CONTRACT, TORT OR OTHERWISE, ARISING FROM,
  - OUT OF OR IN CONNECTION WITH THE SOFTWARE OR THE USE OR OTHER DEALINGS IN THE
  - SOFTWARE.
  -
  -->

<svg width="20px" height="20px" viewBox="0 0 16 16" fill="none" xmlns="http://www.w3.org/2000/svg">
  <g fill="#FF8A65">
    <path d="M8.00488 6.60585V1L9.75074 1.84819V6.76184L8.00488 6.60585Z"/>
    <path d="M2 4.6561L3.28027 4.27595L5 4.52935V7.15192L3.2804 7.05443L2 7.15192V4.6561Z"/>
    <path d="M11 5.39703V7.11291L12.7096 7.01542V5.14355L11 5.39703Z"/>
    <path d="M12.7096 5.14355V7.01542L14 7.10316V5.51403L12.7096 5.14355Z"/>
    <path d="M8.00488 1L6.24902 1.86769V6.77159L8.00488 6.60585V1Z"/>
    <path fill-rule="evenodd" clip-rule="evenodd" d="M2 8V10L8 11.5L14 10V8H2ZM9 9V10.2192L13 9.21922V9H9Z"
    />
    <path d="M8.00488 13.0988L10 12.5V14.2159L8.00488 14.9999V13.0988Z"/>
    <path d="M6 12.5V14.2159L8.00488 14.9999V13.0988L6 12.5Z"/>
  </g>
</svg>
