<!--
  - The MIT License (MIT)
  -
  - Copyright (c) 2015-2022 Elior "Mallowigi" Boukhobza
  -
  - Permission is hereby granted, free of charge, to any person obtaining a copy
  - of this software and associated documentation files (the "Software"), to deal
  - in the Software without restriction, including without limitation the rights
  - to use, copy, modify, merge, publish, distribute, sublicense, and/or sell
  - copies of the Software, and to permit persons to whom the Software is
  - furnished to do so, subject to the following conditions:
  -
  - The above copyright notice and this permission notice shall be included in all
  - copies or substantial portions of the Software.
  -
  - THE SOFTWARE IS PROVIDED "AS IS", WITHOUT WARRANTY OF ANY KIND, EXPRESS OR
  - IMPLIED, INCLUDING BUT NOT LIMITED TO THE WARRANTIES OF MERCHANTABILITY,
  - FITNESS FOR A PARTICULAR PURPOSE AND NONINFRINGEMENT. IN NO EVENT SHALL THE
  - AUTHORS OR COPYRIGHT HOLDERS BE LIABLE FOR ANY CLAIM, DAMAGES OR OTHER
  - LIABILITY, WHETHER IN AN ACTION OF CONTRACT, TORT OR OTHERWISE, ARISING FROM,
  - OUT OF OR IN CONNECTION WITH THE SOFTWARE OR THE USE OR OTHER DEALINGS IN THE
  - SOFTWARE.
  -
  -
  -->


<svg big="true" xmlns="http://www.w3.org/2000/svg" version="1.1" width="16px" height="16px" fill="#64B5F6"
     viewBox="0 0 24 24">
    <path
            d="M2,5.27L3.28,4L20,20.72L18.73,22L15.65,18.92C14.5,19.3 13.28,19.5 12,19.5C7,19.5 2.73,16.39 1,12C1.69,10.24 2.79,8.69 4.19,7.46L2,5.27M12,9A3,3 0 0,1 15,12C15,12.35 14.94,12.69 14.83,13L11,9.17C11.31,9.06 11.65,9 12,9M12,4.5C17,4.5 21.27,7.61 23,12C22.18,14.08 20.79,15.88 19,17.19L17.58,15.76C18.94,14.82 20.06,13.54 20.82,12C19.17,8.64 15.76,6.5 12,6.5C10.91,6.5 9.84,6.68 8.84,7L7.3,5.47C8.74,4.85 10.33,4.5 12,4.5M3.18,12C4.83,15.36 8.24,17.5 12,17.5C12.69,17.5 13.37,17.43 14,17.29L11.72,15C10.29,14.85 9.15,13.71 9,12.28L5.6,8.87C4.61,9.72 3.78,10.78 3.18,12Z" />
</svg>
