<!--
  - The MIT License (MIT)
  -
  - Copyright (c) 2015-2024 Elior "Mallowigi" Boukhobza
  -
  - Permission is hereby granted, free of charge, to any person obtaining a copy
  - of this software and associated documentation files (the "Software"), to deal
  - in the Software without restriction, including without limitation the rights
  - to use, copy, modify, merge, publish, distribute, sublicense, and/or sell
  - copies of the Software, and to permit persons to whom the Software is
  - furnished to do so, subject to the following conditions:
  -
  - The above copyright notice and this permission notice shall be included in all
  - copies or substantial portions of the Software.
  -
  - THE SOFTWARE IS PROVIDED "AS IS", WITHOUT WARRANTY OF ANY KIND, EXPRESS OR
  - IMPLIED, INCLUDING BUT NOT LIMITED TO THE WARRANTIES OF MERCHANTABILITY,
  - FITNESS FOR A PARTICULAR PURPOSE AND NONINFRINGEMENT. IN NO EVENT SHALL THE
  - AUTHORS OR COPYRIGHT HOLDERS BE LIABLE FOR ANY CLAIM, DAMAGES OR OTHER
  - LIABILITY, WHETHER IN AN ACTION OF CONTRACT, TORT OR OTHERWISE, ARISING FROM,
  - OUT OF OR IN CONNECTION WITH THE SOFTWARE OR THE USE OR OTHER DEALINGS IN THE
  - SOFTWARE.
  -->

<svg width="16px" height="16px" viewBox="0 0 40 40" fill="#EF5350" xmlns="http://www.w3.org/2000/svg" data-big="true">
  <path
    d="M31.3138 8.68631C25.0654 2.43792 14.9348 2.43788 8.68634 8.68628C2.43793 14.9347 2.43788 25.0653 8.68623 31.3137C14.9346 37.5621 25.0652 37.5621 31.3136 31.3137C37.5621 25.0653 37.5621 14.9347 31.3138 8.68631ZM17.2515 28.3843C14.1774 25.3101 14.1774 20.3258 17.2516 17.2516C20.3258 14.1774 25.3101 14.1774 28.3843 17.2516C31.4585 20.3258 31.4585 25.3101 28.3842 28.3843C25.31 31.4585 20.3257 31.4585 17.2515 28.3843ZM27.1763 27.1763L17.0491 25.6005L25.6005 17.0492L27.1763 27.1763Z"
  />
</svg>
