<svg xmlns="http://www.w3.org/2000/svg" width="16" height="16"  viewBox="60 -880 840 840"><path fill="#FF5370" d="M480-120q-65 0-121-31t-83-89h-87q-12 0-20.5-9t-8.5-21q0-13 8.5-21.5T190-300h62q-7-26-7-52.5V-406h-57q-12 0-20.5-9t-8.5-21q0-13 8.5-21.5T189-466h56q0-29 .5-57.5T254-580h-65q-12 0-20.5-9t-8.5-21q0-13 8.5-21.5T190-640h90q14-28 37-49t51-35l-58-57q-8-8-7.5-19.5T311-820t20-8 20 8l74 74q28-10 56.5-10t56.5 10l75-75q8-8 19.5-7.5T652-820t8 20-8 20l-56 56q28 14 49.5 35.5T683-640h89q12 0 20.5 9t8.5 21q0 13-8.5 21.5T771-580h-65q9 28 8.5 56.5T714-466h58q12 0 20.5 9t8.5 21q0 13-8.5 21.5T771-406h-57q0 27 .5 53.5T708-300h64q12 0 20.5 9t8.5 21q0 13-8.5 21.5T771-240h-86q-26 59-82.5 89.5T480-120m0-60q72 0 123-50.5T654-353v-167q0-72-51-122.5T480-693t-123 50.5T306-520v167q0 72 51 122.5T480-180m-50-140h101q12 0 20.5-8.5T560-350t-8.5-21.5T530-380H429q-12 0-20.5 8.5T400-350t8.5 21.5T430-320m0-173h101q12 0 20.5-8.5T560-523t-8.5-21.5T530-553H429q-12 0-20.5 8.5T400-523t8.5 21.5T430-493m50 57h.5zh.5zh.5zh.5z"/></svg>