<!--
  - The MIT License (MIT)
  -
  - Copyright (c) 2015-2024 Elior "Mallowigi" Boukhobza
  -
  - Permission is hereby granted, free of charge, to any person obtaining a copy
  - of this software and associated documentation files (the "Software"), to deal
  - in the Software without restriction, including without limitation the rights
  - to use, copy, modify, merge, publish, distribute, sublicense, and/or sell
  - copies of the Software, and to permit persons to whom the Software is
  - furnished to do so, subject to the following conditions:
  -
  - The above copyright notice and this permission notice shall be included in all
  - copies or substantial portions of the Software.
  -
  - THE SOFTWARE IS PROVIDED "AS IS", WITHOUT WARRANTY OF ANY KIND, EXPRESS OR
  - IMPLIED, INCLUDING BUT NOT LIMITED TO THE WARRANTIES OF MERCHANTABILITY,
  - FITNESS FOR A PARTICULAR PURPOSE AND NONINFRINGEMENT. IN NO EVENT SHALL THE
  - AUTHORS OR COPYRIGHT HOLDERS BE LIABLE FOR ANY CLAIM, DAMAGES OR OTHER
  - LIABILITY, WHETHER IN AN ACTION OF CONTRACT, TORT OR OTHERWISE, ARISING FROM,
  - OUT OF OR IN CONNECTION WITH THE SOFTWARE OR THE USE OR OTHER DEALINGS IN THE
  - SOFTWARE.
  -->


<svg data-big="true" xmlns="http://www.w3.org/2000/svg" viewBox="60 -880 840 840" width="16px" height="16px">
  <path fill="#FF5370"
        d="M480-120q-65 0-121-31t-83-89h-87q-12 0-20.5-9t-8.5-21q0-13 8.5-21.5T190-300h62q-7-26-7-52.5V-406h-57q-12 0-20.5-9t-8.5-21q0-13 8.5-21.5T189-466h56q0-29 .5-57.5T254-580h-65q-12 0-20.5-9t-8.5-21q0-13 8.5-21.5T190-640h90q14-28 37-49t51-35l-58-57q-8-8-7.5-19.5T311-820q8-8 20-8t20 8l74 74q28-10 56.5-10t56.5 10l75-75q8-8 19.5-7.5T652-820q8 8 8 20t-8 20l-56 56q28 14 49.5 35.5T683-640h89q12 0 20.5 9t8.5 21q0 13-8.5 21.5T771-580h-65q9 28 8.5 56.5T714-466h58q12 0 20.5 9t8.5 21q0 13-8.5 21.5T771-406h-57q0 27 .5 53.5T708-300h64q12 0 20.5 9t8.5 21q0 13-8.5 21.5T771-240h-86q-26 59-82.5 89.5T480-120Zm0-60q72 0 123-50.5T654-353v-167q0-72-51-122.5T480-693q-72 0-123 50.5T306-520v167q0 72 51 122.5T480-180Zm-50-140h101q12 0 20.5-8.5T560-350q0-13-8.5-21.5T530-380H429q-12 0-20.5 8.5T400-350q0 13 8.5 21.5T430-320Zm0-173h101q12 0 20.5-8.5T560-523q0-13-8.5-21.5T530-553H429q-12 0-20.5 8.5T400-523q0 13 8.5 21.5T430-493Zm50 57h.5-.5.5-.5.5-.5.5-.5Z"/>
</svg>
