<svg xmlns="http://www.w3.org/2000/svg" width="16" height="16" data-big="true" viewBox="0 0 24 24"><path fill="#F06292" d="M22 16a2 2 0 0 1-2 2H8a2 2 0 0 1-2-2V4c0-1.11.89-2 2-2h12a2 2 0 0 1 2 2zm-6 4v2H4a2 2 0 0 1-2-2V7h2v13z"/><path fill="#4DB6AC" d="M16.1 11.2c1.435 0 2.863.539 3.955 1.631a5.59 5.59 0 0 1-.007 7.917c-1.281 1.302-3.038 1.82-4.711 1.596l.371-1.372a4.198 4.198 0 0 0 3.36-7.147A4.17 4.17 0 0 0 16.1 12.6v3.206l-3.472-3.465L16.1 8.876zm-3.962 9.555a5.59 5.59 0 0 1-.861-6.797l1.036 1.029a4.17 4.17 0 0 0 .812 4.774c.364.364.784.651 1.225.854L14 21.98a5.5 5.5 0 0 1-1.862-1.225"/></svg>