<svg xmlns="http://www.w3.org/2000/svg" xml:space="preserve" width="16" height="16" viewBox="-48 -48 620 620"><g fill="#FF8A65"><path d="M392.538 163.392v-30.515L217.621 236.233l37.701 10.214zM194.617 230.004l197.922-116.949V96.713c0-6.656-2.398-12.706-6.246-17.553l-235.29 139.034zM359.834 292.434l-240.367-65.1v34.85l197.137 54.425zM370.063 68.926a28 28 0 0 0-5.965-.657h-39.825V28.452c0-15.684-12.757-28.45-28.442-28.45h-79.65c-15.684 0-28.442 12.766-28.442 28.45v39.817h-39.825c-15.684 0-28.442 12.766-28.442 28.45V158.5l130.654-73.165h34.918l-165.572 92.723v31.59l8.525 2.313zM202.104 400.634l-.478-.162-69.12 38.665c4.446 2.884 9.719 4.599 15.403 4.599h39.825v39.825c0 15.684 12.766 28.442 28.442 28.442h79.65c15.684 0 28.442-12.757 28.442-28.442v-39.825h39.825c15.684 0 28.442-12.757 28.442-28.442V354.75l-122.266 71.919h-33.655l155.921-91.716v-41.259l-190.26 106.419zM236 361.693l-116.531-32.119v25.523l80.41 26.803zM381.137 280.519l11.401-6.374v-37.717l-53.743 32.622zM119.471 373.09v42.206c0 3.686.759 7.194 2.048 10.436l58.206-32.555z"/><path
    d="M477.871 85.338c-18.825 0-34.133 15.309-34.133 34.133 0 6.118 1.749 11.785 4.574 16.751l-55.774 49.579v-2.458l-114.449 69.265 37.973 10.283 76.476-46.43v-7.825l67.635-60.117c5.18 3.166 11.196 5.086 17.698 5.086 18.825 0 34.133-15.309 34.133-34.133s-15.309-34.134-34.133-34.134M131.78 315.264l125.423 34.577 38.212-21.376-175.949-48.58v23.492l-67.635 60.117c-5.171-3.166-11.196-5.094-17.698-5.094C15.309 358.4 0 373.718 0 392.534c0 18.825 15.309 34.133 34.133 34.133 18.833 0 34.133-15.309 34.133-34.133 0-6.11-1.741-11.776-4.574-16.751z"/></g></svg>