<svg xmlns="http://www.w3.org/2000/svg" width="16" height="16" data-big="true" viewBox="0 0 300 300"><g fill="#7c4dff"><path d="m208.281 180.368-6.955 31.288h21.65l-7.985-31.288z"/><path d="M177.552 29.65a13 13 0 0 1 0 1.297 27.6 27.6 0 0 1-27.598 27.599A27.576 27.576 0 0 1 122.4 30.947a13 13 0 0 1 0-1.297H29.652v240.692h240.692V29.65zm-33.033 214.928-11.742-57.993h-.201l-12.659 57.993H103.77l-18.295-85.211h15.946l10.915 58.015h.2l13.152-58.015h14.917l11.809 58.73h.223l12.435-58.73h15.656l-20.33 85.21zm87.805 0-5.435-18.966h-28.694l-4.182 18.966h-15.947l20.62-85.211h25.161l25.072 85.21z"/></g></svg>