<svg xmlns="http://www.w3.org/2000/svg" width="16" height="16" fill="#F9C438">
  <path
      d="M7.364 5.421c-2.91-1.03-4.99.282-6.195 1.794-.046.055-.134.02-.123-.053.07-.4.235-1.184.559-1.9 1.314-2.915 4.81-4.332 6.89-4.26 2.08.074 4.572 1.435 3.708 3.357-.763 1.7-1.796 2.142-4.84 1.062"/>
  <path
      d="M5.182 5.373c0-.038-.028-.073-.07-.073-.967.025-3.022.665-4.087 2.601a.1.1 0 0 0-.007.025c-.33 2.315 4.006 3.826 4.164-2.553M8.649 10.579c2.91 1.03 4.99-.283 6.195-1.794.045-.055.133-.02.123.053-.07.4-.236 1.183-.56 1.9-1.31 2.915-4.806 4.332-6.886 4.26-2.08-.074-4.572-1.435-3.708-3.357.76-1.696 1.796-2.138 4.836-1.062"/>
  <path
      d="M10.811 10.686c0 .039.028.073.07.073.967-.024 3.03-.696 4.094-2.635q.006-.01.007-.025c.33-2.312-4.013-3.792-4.171 2.587"/>
</svg>