<svg xmlns="http://www.w3.org/2000/svg" width="16" height="16" ><path fill="#E99727" d="m7.241 14.793.945-5.357A4 4 0 0 0 9 10a5.5 5.5 0 0 0 1.23.443c.19.047.374.1.556.149a1.03 1.03 0 0 0-.091.543.06.06 0 0 0 .037.052 2.03 2.03 0 0 0 2.035-.01 1.54 1.54 0 0 0 .425-.6l.032-.3a1.57 1.57 0 0 0 .649-.577.94.94 0 0 0-.016-.972 2.65 2.65 0 0 0-1.025-1.011 2.7 2.7 0 0 0-.836-.392 2 2 0 0 1-.421-.158.68.68 0 0 1-.284-.838 2 2 0 0 0 .149-.689l1.042-.856a1 1 0 0 1 .117.073.55.55 0 0 0 .51-.459l-.1-.063s.594-.563.712-.73a.13.13 0 0 0 .021-.158 3.1 3.1 0 0 0-.771-.6 1.53 1.53 0 0 0-.993-.409 6 6 0 0 0-.89.562l-.106-.073s-.446.042-.3.324l.045.049-3.253 2.752-1.785-3.789h.127a.37.37 0 0 0-.216-.407 1 1 0 0 0-.106.01c-.1-.188-.319-.72-.319-.72a.135.135 0 0 0-.117-.115 1 1 0 0 0-.489-.01 5.4 5.4 0 0 0-1.069.234 2.6 2.6 0 0 0-.4.189.087.087 0 0 0-.047.108l.213.5a1.3 1.3 0 0 0-.255.063.9.9 0 0 0 .319.71l.234-.063 2.176 4.78c-.032.1-1.7 6.484-1.7 6.484a.07.07 0 0 0 .011.042 3.38 3.38 0 0 0 3.125.814.12.12 0 0 0 .065-.089m3.616-4.562-.211-.078-.279-.1c-.259-.104-.527-.21-.767-.333a4 4 0 0 1-.7-.4 4.3 4.3 0 0 1-.549-.6 6 6 0 0 0 .056-.755A54 54 0 0 0 10.67 6.3a1.5 1.5 0 0 0 .006.537 1.08 1.08 0 0 0 .637.807 3.2 3.2 0 0 0 .672.208 2.4 2.4 0 0 1 .586.247 3 3 0 0 1 .653.478 1.05 1.05 0 0 1 .335.613.8.8 0 0 1-.267.639.63.63 0 0 0-.2-.451l-.012-.008h-.042a.11.11 0 0 0-.1.066.76.76 0 0 1-.624.478h-.034a3.5 3.5 0 0 1-.894-.214.2.2 0 0 0-.06-.01.2.2 0 0 0-.132.051c-.08.092-.253.351-.338.49Z"/></svg>