<svg width="16px" height="16px" viewBox="0 0 32 32" xmlns="http://www.w3.org/2000/svg" fill="#6BADF6">
    <rect id="frame" width="32" height="32" fill="none" />
    <g fill-rule="evenodd">
        <path d="M21.166 11.896c-2.043.262-5.145-.323-7.6-.494-3.066-.212-7.117.291-9.068 2.12C5.924 8.819 9.426 4 16.48 4c6.045 0 8.994 4.019 9 5.4 0 .958-2.27 2.234-4.314 2.496zm-4.608 5.192c-3.642 3.858-6.011 7.39-6.56 9.619-.863-.424-4.412-2.632-5.437-7.428-.441-2.279 1.22-4.054 3.117-4.957 4-1.903 8.354.034 12.65-.984-1.539 1.397-2.933 2.861-3.77 3.75zm9.96-10.364C25.09 5.211 21.552 2 16.626 2 7.621 2 2 8.523 2 16.539c0 7.806 7.491 13.665 11.968 13.429 1.667-.088 2.516-1.581 2.193-3.903-.102-.743.356-4.141 2.407-7.489 1.575-2.568 4.147-3.872 5.529-4.254 1.776-.489 3.274-1.66 3.774-3.645.305-1.211-.216-2.746-1.353-3.953z"
        />
        <path d="M29.968 16.932c-.59.779-2.935.752-4.513 1.613-4.47 2.442-3.49 6.285-7.381 7.453-.271.082.16-3.808 1.617-6.084.655-1.023 2.494-2.55 3.655-3.023 2.545-1.036 7.058-.537 6.622.041z"
        />
        <path d="M12.273 20.439c-.107.757-.973 1.893-1.568 2.434-.432-1.353-.699-2.425-1.643-3.921-.605-.315-1.846-.456-2.885-.787.48-1.507 1.717-2.695 3.082-2.398 1.96 2.728 2.778 3.885 3.014 4.672z"
        />
    </g>
</svg>