<svg xmlns="http://www.w3.org/2000/svg" width="16" height="16" fill="none">
  <g fill="#231f20">
    <path
        d="M4.727 12.5c1.415 0 2.325-.578 3.076-1.437l-.693-.637c-.607.652-1.329 1.081-2.354 1.081-1.33 0-2.47-.933-2.63-2.592H8.05c.014-.134.014-.222.014-.37 0-2.238-1.27-4.045-3.48-4.045C2.516 4.5 1 6.278 1 8.485v.03c0 2.37 1.676 3.985 3.727 3.985m-2.6-4.43c.144-1.496 1.126-2.607 2.426-2.607 1.488 0 2.268 1.215 2.384 2.607z"/>
    <path
        d="m7.841 11.096.032-.037-.036-.033-.693-.637-.037-.034-.034.037c-.6.644-1.309 1.065-2.317 1.065-1.288 0-2.398-.892-2.574-2.492h5.912l.005-.045c.014-.136.014-.227.014-.375 0-1.128-.32-2.151-.923-2.893-.603-.743-1.488-1.202-2.608-1.202C2.483 4.45.95 6.256.95 8.485v.03c0 2.396 1.696 4.035 3.777 4.035 1.433 0 2.355-.586 3.114-1.454M6.882 8.02h-4.7c.161-1.45 1.12-2.507 2.371-2.507.729 0 1.282.297 1.668.763.377.456.597 1.076.661 1.744"/>
    <path
        d="M10.918 8.423 8.116 4.66h1.27l2.196 2.993 2.225-2.993h1.242l-2.831 3.748 2.946 3.911H13.88l-2.311-3.155-2.326 3.155H8z"/>
    <path
        d="M8.116 4.61h-.1l.06.08 2.78 3.733-2.896 3.866-.06.08h1.367l.015-.02 2.286-3.1 2.27 3.1.016.02h1.41l-.06-.08-2.924-3.88L15.09 4.69l.06-.08h-1.368l-.014.02-2.184 2.938L9.426 4.63l-.015-.02H8.116"/>
  </g>
</svg>