<!--
  - The MIT License (MIT)
  -
  - Copyright (c) 2015-2022 Elior "Mallowigi" Boukhobza
  -
  - Permission is hereby granted, free of charge, to any person obtaining a copy
  - of this software and associated documentation files (the "Software"), to deal
  - in the Software without restriction, including without limitation the rights
  - to use, copy, modify, merge, publish, distribute, sublicense, and/or sell
  - copies of the Software, and to permit persons to whom the Software is
  - furnished to do so, subject to the following conditions:
  -
  - The above copyright notice and this permission notice shall be included in all
  - copies or substantial portions of the Software.
  -
  - THE SOFTWARE IS PROVIDED "AS IS", WITHOUT WARRANTY OF ANY KIND, EXPRESS OR
  - IMPLIED, INCLUDING BUT NOT LIMITED TO THE WARRANTIES OF MERCHANTABILITY,
  - FITNESS FOR A PARTICULAR PURPOSE AND NONINFRINGEMENT. IN NO EVENT SHALL THE
  - AUTHORS OR COPYRIGHT HOLDERS BE LIABLE FOR ANY CLAIM, DAMAGES OR OTHER
  - LIABILITY, WHETHER IN AN ACTION OF CONTRACT, TORT OR OTHERWISE, ARISING FROM,
  - OUT OF OR IN CONNECTION WITH THE SOFTWARE OR THE USE OR OTHER DEALINGS IN THE
  - SOFTWARE.
  -
  -
  -->

<svg big="true" version="1.1" viewBox="0 0 24 24" xmlns="http://www.w3.org/2000/svg" width="16px" height="16px">
    <path
            d="m11 7.5v5.11l4.71 2.79.79-1.28-4-2.37v-4.25m0-5c-3.53 0-6.59 1.92-8.23 4.77l-2.27-2.27v6.5h6.5l-2.75-2.75c1.21-2.52 3.75-4.25 6.75-4.25a7.5 7.5 0 0 1 7.5 7.5 7.5 7.5 0 0 1 -7.5 7.5c-3.27 0-6.03-2.09-7.06-5h-2.1c1.1 4.03 4.77 7 9.16 7 5.24 0 9.5-4.25 9.5-9.5a9.5 9.5 0 0 0 -9.5 -9.5z"
            fill="#8bc34a" />
</svg>
