<svg xmlns="http://www.w3.org/2000/svg" width="16" height="16" data-big="true"><path fill="#F06292" d="m9 4-2.591 9h-1.82l-2.66-9h1.914s1.3 4.755 1.753 7.161h.341C6.429 8.765 7.715 4 7.715 4Zm4.5 4.367v-.025a2.11 2.11 0 0 0 1.222-2.133A2.184 2.184 0 0 0 12.239 4H9.4v9h2.984A2.457 2.457 0 0 0 15 10.314a1.813 1.813 0 0 0-1.5-1.947m-2.316-3.2h1.287q1.151 0 1.151 1.219c0 .919-.428 1.405-1.048 1.405h-1.39Zm1.427 6.623h-1.432V8.97h1.437c.666 0 1.184.426 1.184 1.371 0 .974-.513 1.446-1.194 1.446Z"/></svg>