<!--
  - The MIT License (MIT)
  -
  - Copyright (c) 2015-2021 Elior "Mallowigi" Boukhobza
  -
  - Permission is hereby granted, free of charge, to any person obtaining a copy
  - of this software and associated documentation files (the "Software"), to deal
  - in the Software without restriction, including without limitation the rights
  - to use, copy, modify, merge, publish, distribute, sublicense, and/or sell
  - copies of the Software, and to permit persons to whom the Software is
  - furnished to do so, subject to the following conditions:
  -
  - The above copyright notice and this permission notice shall be included in all
  - copies or substantial portions of the Software.
  -
  - THE SOFTWARE IS PROVIDED "AS IS", WITHOUT WARRANTY OF ANY KIND, EXPRESS OR
  - IMPLIED, INCLUDING BUT NOT LIMITED TO THE WARRANTIES OF MERCHANTABILITY,
  - FITNESS FOR A PARTICULAR PURPOSE AND NONINFRINGEMENT. IN NO EVENT SHALL THE
  - AUTHORS OR COPYRIGHT HOLDERS BE LIABLE FOR ANY CLAIM, DAMAGES OR OTHER
  - LIABILITY, WHETHER IN AN ACTION OF CONTRACT, TORT OR OTHERWISE, ARISING FROM,
  - OUT OF OR IN CONNECTION WITH THE SOFTWARE OR THE USE OR OTHER DEALINGS IN THE
  - SOFTWARE.
  -
  -
  -->

<svg big="true" xmlns="http://www.w3.org/2000/svg" width="16px" height="16px" viewBox="0 -1 16 16">
  <path id="file_type_eslint.svg" class="i-color" fill="#7963E6"
        d="M10.9,9.595L8.027,11.212,5.156,9.595V6.36L8.027,4.742,10.9,6.36V9.595Zm4.015-1.244-3.177,5.358a0.628,0.628,0,0,1-.559.292H4.823a0.631,0.631,0,0,1-.559-0.295L1.086,8.356a0.628,0.628,0,0,1,0-.636L4.263,2.339A0.672,0.672,0,0,1,4.823,2h6.354a0.672,0.672,0,0,1,.559.339l3.177,5.393A0.6,0.6,0,0,1,14.913,8.351Zm-2.631,2.1V5.644L8,3.234l-4.28,2.41V10.45L8,12.86Z"
        transform="translate(0 -1)" />
</svg>
