<svg xmlns="http://www.w3.org/2000/svg" width="16" height="16" fill="#4FC3F7" data-big="true" viewBox="0 0 24 24"><path d="M1.5 3H3v18H1.5zM3 3h3v1.5H3zM3 19.5h3V21H3zM21 3h1.5v18H21z"/><path d="M18 3h4.5v1.5H18zM18 19.5h3V21h-3zM18.75 15.375a.74.74 0 0 1-.398.66l-5.924 3.33A.7.7 0 0 1 12 19.5a.7.7 0 0 1-.428-.135l-5.924-3.33a.74.74 0 0 1-.398-.66v-6.75c0-.285.157-.532.397-.66l5.926-3.33c.12-.09.27-.135.427-.135.158 0 .308.045.428.135l5.924 3.33c.24.128.398.375.398.66zM12 6.113 7.53 8.625 12 11.137l4.47-2.512z"/></svg>