<!--
  - The MIT License (MIT)
  -
  - Copyright (c) 2015-2021 Elior "Mallowigi" Boukhobza
  -
  - Permission is hereby granted, free of charge, to any person obtaining a copy
  - of this software and associated documentation files (the "Software"), to deal
  - in the Software without restriction, including without limitation the rights
  - to use, copy, modify, merge, publish, distribute, sublicense, and/or sell
  - copies of the Software, and to permit persons to whom the Software is
  - furnished to do so, subject to the following conditions:
  -
  - The above copyright notice and this permission notice shall be included in all
  - copies or substantial portions of the Software.
  -
  - THE SOFTWARE IS PROVIDED "AS IS", WITHOUT WARRANTY OF ANY KIND, EXPRESS OR
  - IMPLIED, INCLUDING BUT NOT LIMITED TO THE WARRANTIES OF MERCHANTABILITY,
  - FITNESS FOR A PARTICULAR PURPOSE AND NONINFRINGEMENT. IN NO EVENT SHALL THE
  - AUTHORS OR COPYRIGHT HOLDERS BE LIABLE FOR ANY CLAIM, DAMAGES OR OTHER
  - LIABILITY, WHETHER IN AN ACTION OF CONTRACT, TORT OR OTHERWISE, ARISING FROM,
  - OUT OF OR IN CONNECTION WITH THE SOFTWARE OR THE USE OR OTHER DEALINGS IN THE
  - SOFTWARE.
  -
  -
  -->

<svg xmlns="http://www.w3.org/2000/svg" width="48px" height="48px" viewBox="0 0 20 20">
  <path
    d="M2,16H4V12h.607l2.952,4h2.486L6.991,11.861A3.963,3.963,0,0,0,10,8,4,4,0,0,0,6,4H2ZM4,6H6a2,2,0,0,1,0,4H4ZM16.294,4,15.76,7.15H14.484L15.017,4H13.294L12.76,7.15H11v1.7h1.473l-.39,2.3H10v1.7h1.8L11.262,16h1.724l.533-3.15H14.8L14.262,16h1.724l.533-3.15H18v-1.7H16.807l.389-2.3H19V7.15H17.484L18.017,4Zm-1.211,7.15H13.807l.389-2.3h1.277Z"
    fill="#BA68C8"/>
</svg>
