<!--
  - The MIT License (MIT)
  -
  - Copyright (c) 2015-2021 Elior "Mallowigi" Boukhobza
  -
  - Permission is hereby granted, free of charge, to any person obtaining a copy
  - of this software and associated documentation files (the "Software"), to deal
  - in the Software without restriction, including without limitation the rights
  - to use, copy, modify, merge, publish, distribute, sublicense, and/or sell
  - copies of the Software, and to permit persons to whom the Software is
  - furnished to do so, subject to the following conditions:
  -
  - The above copyright notice and this permission notice shall be included in all
  - copies or substantial portions of the Software.
  -
  - THE SOFTWARE IS PROVIDED "AS IS", WITHOUT WARRANTY OF ANY KIND, EXPRESS OR
  - IMPLIED, INCLUDING BUT NOT LIMITED TO THE WARRANTIES OF MERCHANTABILITY,
  - FITNESS FOR A PARTICULAR PURPOSE AND NONINFRINGEMENT. IN NO EVENT SHALL THE
  - AUTHORS OR COPYRIGHT HOLDERS BE LIABLE FOR ANY CLAIM, DAMAGES OR OTHER
  - LIABILITY, WHETHER IN AN ACTION OF CONTRACT, TORT OR OTHERWISE, ARISING FROM,
  - OUT OF OR IN CONNECTION WITH THE SOFTWARE OR THE USE OR OTHER DEALINGS IN THE
  - SOFTWARE.
  -
  -
  -->


<svg xmlns="http://www.w3.org/2000/svg" version="1.1" width="16px" height="16px" viewBox="0 0 24 24">
  <path fill="#4FC3F7"
        d="M17,16.47V7.39L11,11.93M2.22,9.19C1.92,8.87 1.91,8.37 2.2,8.04L3.4,6.93C3.6,6.75 4.09,6.67 4.45,6.93L7.87,9.54L15.8,2.29C16.12,1.97 16.67,1.84 17.3,2.17L21.3,4.08C21.66,4.29 22,4.62 22,5.23V18.73C22,19.13 21.71,19.56 21.4,19.73L17,21.83C16.68,21.96 16.08,21.84 15.87,21.63L7.85,14.33L4.45,16.93C4.07,17.19 3.6,17.12 3.4,16.93L2.2,15.83C1.88,15.5 1.92,14.96 2.25,14.63L5.25,11.93" />
</svg>
