<svg xmlns="http://www.w3.org/2000/svg" width="16" height="16" fill="#26C6DA" viewBox="0 0 24 24">
  <circle cx="12" cy="12" r="12" fill="#64B5F6"/>
  <path fill="#FFF"
        d="M8.8 4.8a1.6 1.6 0 0 0-1.6 1.6v3.2a1.6 1.6 0 0 1-1.6 1.6h-.8v1.6h.8a1.6 1.6 0 0 1 1.6 1.6v3.2a1.6 1.6 0 0 0 1.6 1.6h1.6v-1.6H8.8v-4A1.6 1.6 0 0 0 7.2 12a1.6 1.6 0 0 0 1.6-1.6v-4h1.6V4.8m4.8 0a1.6 1.6 0 0 1 1.6 1.6v3.2a1.6 1.6 0 0 0 1.6 1.6h.8v1.6h-.8a1.6 1.6 0 0 0-1.6 1.6v3.2a1.6 1.6 0 0 1-1.6 1.6h-1.6v-1.6h1.6v-4a1.6 1.6 0 0 1 1.6-1.6 1.6 1.6 0 0 1-1.6-1.6v-4h-1.6V4.8z"/>
</svg>