<svg xmlns="http://www.w3.org/2000/svg" width="16" height="16" fill="#64B5F6"  viewBox="0 0 24 24"><path d="M17.295 18.705a.487.487 0 0 1 0 .71.504.504 0 0 1-.71 0 2.5 2.5 0 0 1 0-3.535l1.77-1.77a2.5 2.5 0 0 1 3.535 0c.975.975.975 2.56 0 3.535l-.745.745c.005-.41-.06-.82-.2-1.21l.235-.24a1.49 1.49 0 0 0 0-2.12 1.49 1.49 0 0 0-2.12 0l-1.765 1.765a1.49 1.49 0 0 0 0 2.12m1.41-2.12a.504.504 0 0 1 .71 0c.975.975.975 2.56 0 3.535l-1.77 1.77a2.5 2.5 0 0 1-3.535 0 2.5 2.5 0 0 1 0-3.535l.745-.745c-.005.41.06.82.2 1.215l-.235.235a1.49 1.49 0 0 0 0 2.12 1.49 1.49 0 0 0 2.12 0l1.765-1.765a1.49 1.49 0 0 0 0-2.12.487.487 0 0 1 0-.71"/></svg>