<!--
  - The MIT License (MIT)
  -
  - Copyright (c) 2015-2021 Elior "Mallowigi" Boukhobza
  -
  - Permission is hereby granted, free of charge, to any person obtaining a copy
  - of this software and associated documentation files (the "Software"), to deal
  - in the Software without restriction, including without limitation the rights
  - to use, copy, modify, merge, publish, distribute, sublicense, and/or sell
  - copies of the Software, and to permit persons to whom the Software is
  - furnished to do so, subject to the following conditions:
  -
  - The above copyright notice and this permission notice shall be included in all
  - copies or substantial portions of the Software.
  -
  - THE SOFTWARE IS PROVIDED "AS IS", WITHOUT WARRANTY OF ANY KIND, EXPRESS OR
  - IMPLIED, INCLUDING BUT NOT LIMITED TO THE WARRANTIES OF MERCHANTABILITY,
  - FITNESS FOR A PARTICULAR PURPOSE AND NONINFRINGEMENT. IN NO EVENT SHALL THE
  - AUTHORS OR COPYRIGHT HOLDERS BE LIABLE FOR ANY CLAIM, DAMAGES OR OTHER
  - LIABILITY, WHETHER IN AN ACTION OF CONTRACT, TORT OR OTHERWISE, ARISING FROM,
  - OUT OF OR IN CONNECTION WITH THE SOFTWARE OR THE USE OR OTHER DEALINGS IN THE
  - SOFTWARE.
  -
  -
  -->


<svg xmlns="http://www.w3.org/2000/svg" version="1.1" width="12px" height="12px" viewBox="0 0 24 24">
  <path fill="#64B5F6"
        d="M18,6C18,7.82 16.76,9.41 15,9.86V17A5,5 0 0,1 10,22A5,5 0 0,1 5,17V12L10,17H7A3,3 0 0,0 10,20A3,3 0 0,0 13,17V9.86C11.23,9.4 10,7.8 10,5.97C10,3.76 11.8,2 14,2C16.22,2 18,3.79 18,6M14,8A2,2 0 0,0 16,6A2,2 0 0,0 14,4A2,2 0 0,0 12,6A2,2 0 0,0 14,8Z" />
  <path fill="#E57373" transform="scale(0.75) translate(12 -4)"
        d="M14,20H10V11L6.5,14.5L4.08,12.08L12,4.16L19.92,12.08L17.5,14.5L14,11V20Z" />
</svg>
