<?xml version="1.0" encoding="UTF-8"?>
<!--
  - The MIT License (MIT)
  -
  - Copyright (c) 2015-2021 Elior "Mallowigi" Boukhobza
  -
  - Permission is hereby granted, free of charge, to any person obtaining a copy
  - of this software and associated documentation files (the "Software"), to deal
  - in the Software without restriction, including without limitation the rights
  - to use, copy, modify, merge, publish, distribute, sublicense, and/or sell
  - copies of the Software, and to permit persons to whom the Software is
  - furnished to do so, subject to the following conditions:
  -
  - The above copyright notice and this permission notice shall be included in all
  - copies or substantial portions of the Software.
  -
  - THE SOFTWARE IS PROVIDED "AS IS", WITHOUT WARRANTY OF ANY KIND, EXPRESS OR
  - IMPLIED, INCLUDING BUT NOT LIMITED TO THE WARRANTIES OF MERCHANTABILITY,
  - FITNESS FOR A PARTICULAR PURPOSE AND NONINFRINGEMENT. IN NO EVENT SHALL THE
  - AUTHORS OR COPYRIGHT HOLDERS BE LIABLE FOR ANY CLAIM, DAMAGES OR OTHER
  - LIABILITY, WHETHER IN AN ACTION OF CONTRACT, TORT OR OTHERWISE, ARISING FROM,
  - OUT OF OR IN CONNECTION WITH THE SOFTWARE OR THE USE OR OTHER DEALINGS IN THE
  - SOFTWARE.
  -
  -
  -->

<!DOCTYPE svg PUBLIC "-//W3C//DTD SVG 1.1//EN" "http://www.w3.org/Graphics/SVG/1.1/DTD/svg11.dtd">
<svg big="true" xmlns="http://www.w3.org/2000/svg" xmlns:xlink="http://www.w3.org/1999/xlink" version="1.1" width="16px"
     height="16px" viewBox="0 0 24 24">
  <path fill="#F06292"
        d="M7.5,4A5.5,5.5 0 0,0 2,9.5C2,10 2.09,10.5 2.22,11H6.3L7.57,7.63C7.87,6.83 9.05,6.75 9.43,7.63L11.5,13L12.09,11.58C12.22,11.25 12.57,11 13,11H21.78C21.91,10.5 22,10 22,9.5A5.5,5.5 0 0,0 16.5,4C14.64,4 13,4.93 12,6.34C11,4.93 9.36,4 7.5,4V4M3,12.5A1,1 0 0,0 2,13.5A1,1 0 0,0 3,14.5H5.44L11,20C12,20.9 12,20.9 13,20L18.56,14.5H21A1,1 0 0,0 22,13.5A1,1 0 0,0 21,12.5H13.4L12.47,14.8C12.07,15.81 10.92,15.67 10.55,14.83L8.5,9.5L7.54,11.83C7.39,12.21 7.05,12.5 6.6,12.5H3Z" />
</svg>
