<svg xmlns="http://www.w3.org/2000/svg" width="16" height="16" data-big="true" viewBox="0 -1 16 16"><path fill="#7A8387" d="M8.1 14.954C9.628 9.226 9.581 9.2 10.688 5.116l.266.161a.161.161 0 0 0 .262-.158V3.17c.295-1.076.525-1.907.592-2.156h1.2L15 2.944l-1.308 1.182.989 1.119-6.519 9.709c-.032.055-.077.043-.066 0Zm.708-12.346a.1.1 0 0 1 .107.077v1a.1.1 0 0 1-.107.075H7.2a.1.1 0 0 1-.11-.079v-1a.1.1 0 0 1 .11-.074zM10.8 1.5 9.024 2.574a.2.2 0 0 1 .033.111v1a.2.2 0 0 1-.057.13L10.795 4.9a.136.136 0 0 0 .222-.134V1.637a.136.136 0 0 0-.222-.137ZM6.947 3.683v-1a.2.2 0 0 1 .033-.111L5.209 1.5a.136.136 0 0 0-.222.134v3.131a.137.137 0 0 0 .223.135L7 3.819a.22.22 0 0 1-.05-.137Zm.892 11.271H7.9C6.376 9.226 6.42 9.2 5.314 5.116l-.266.161a.161.161 0 0 1-.263-.158V3.17c-.295-1.076-.525-1.908-.592-2.157h-1.2L1 2.944l1.308 1.182-.989 1.121 6.519 9.707Zm.112-10.123a.507.507 0 1 1-.484.506.5.5 0 0 1 .484-.506m0 3.008a.507.507 0 1 1-.484.506.5.5 0 0 1 .484-.506m0 3.009a.507.507 0 1 1-.484.506.5.5 0 0 1 .484-.506" class="i-color" data-iconColor="Stylelint"/></svg>