<svg xmlns="http://www.w3.org/2000/svg" width="16" height="16"  viewBox="0 0 32 32"><path fill="#2196F3" d="m13.951 15.861 1.917-3.34a.527.527 0 0 0-.193-.716l-1.364-.78a.524.524 0 0 0-.714.192l-6.316 11a.52.52 0 0 0 .193.713l1.363.784c.25.143.572.056.716-.192zm12.855-1.002h-4.602c.541 1.015 1.044 1.97 1.397 2.646.244.467.438.836.507.96q.106.197.157.405h2.541a.474.474 0 0 0 .474-.473v-3.064a.474.474 0 0 0-.474-.473zm-11.187 0-2.303 4.011h6.249c-.453-.895-1.054-2.176-1.862-4.011zm-5.204 0H5.117a.473.473 0 0 0-.473.473v3.064c0 .261.212.473.473.473h2.995zm-2.023 9.456-1.363-.782c-.25-.143-.481-.026-.514.26l-.236 2.053c-.033.286.135.388.373.226l1.761-1.201c.239-.161.228-.412-.021-.556m14.886-5.394-.028-.051c-.127-.234-.444-.844-.861-1.635l-.015-.03-.097-.185-.073-.137-.062-.119-.112-.212-.035-.067-.166-.315c-.96-1.816-2.166-4.052-2.91-5.227-1.303-2.06-3.043-5.493-3.529-5.249-.68.339 1.426 4.697 2.122 6.335s3.417 7.913 3.962 8.187c.547.273.757.121 1.121-.029.365-.152 1.017-.656.684-1.264zm1.554 3.233-.649-1.246a.58.58 0 0 0-.769-.256l-.783.403a.515.515 0 0 0-.193.746l.822 1.298a.59.59 0 0 0 .794.195l.559-.336a.62.62 0 0 0 .22-.804zm-.2 1.805c-.205.196-.691.621-.102 1.447.586.828 1.897.865 2.07 1.414 0 0 .411-4.204-1.968-2.862z" class="i-color"/></svg>