<svg xmlns="http://www.w3.org/2000/svg" width="16" height="16" fill="#E6452A"  viewBox="0 0 512 512"><path d="M473.3 29.7H37.9c-6.985 0-12.7 5.715-12.7 12.7v426.4c0 6.985 5.715 12.7 12.7 12.7h435.4c6.985 0 12.7-5.715 12.7-12.7V42.4c0-6.985-5.715-12.7-12.7-12.7M190.2 388.8c-59.066-3.845-121.59-45.379-126.3-126C53.592 86.337 306.393 71.975 327.075 225.9H265.5c-15.538-78.413-140.947-68.916-141.287 30.6-.283 82.897 112.825 109.1 141.287 33.3h63c-12.234 64.785-73.154 103.241-138.3 99m201.6-7.8-38.7-16.2 47.484-109.706L353.7 144.3l38.533-16.549 54.167 128.15z"/></svg>