<svg xmlns="http://www.w3.org/2000/svg" width="16" height="16"  viewBox="100 -860 720 720"><path fill="#9575CD" d="M244-360q-10.4 0-17.2-6.8T220-384v-168h-36q-10.4 0-17.2-6.8T160-576t6.8-17.2T184-600h54q12.75 0 21.375 8.625T268-570v186q0 10.4-6.8 17.2T244-360m138 0q-12.75 0-21.375-8.625T352-390v-80q0-15 9.5-24.5T386-504h98v-48H376q-10.4 0-17.2-6.8T352-576t6.8-17.2T376-600h122q15 0 24.5 9.5T532-566v76q0 15-9.5 24.5T498-456h-98v48h108q10.4 0 17.2 6.8T532-384t-6.8 17.2T508-360zm242 0q-10.4 0-17.2-6.8T600-384t6.8-17.2T624-408h108v-48h-68q-9.6 0-16.8-7.2T640-480t7.2-16.8T664-504h68v-48H624q-10.4 0-17.2-6.8T600-576t6.8-17.2T624-600h122q15 0 24.5 9.5T780-566v172q0 15-9.5 24.5T746-360z"/></svg>