<svg xmlns="http://www.w3.org/2000/svg" width="24" height="24" viewBox="0 0 79.375 79.375"><path fill="#ea2845" d="M45.792 5.45c-.497 0-.958.106-1.385.248.906.604 1.403 1.403 1.651 2.308.018.124.053.213.071.337.018.107.036.213.036.32.07 1.562-.409 1.757-.746 2.68-.515 1.19-.373 2.467.249 3.497.053.124.124.266.213.39-.675-4.49 3.07-5.165 3.763-6.567.053-1.225-.959-2.041-1.758-2.61-.763-.46-1.455-.603-2.094-.603m5.644 1.012c-.07.408-.017.302-.035.515-.018.142-.018.319-.035.461a4 4 0 0 1-.125.426c-.035.142-.088.284-.142.426-.07.142-.124.266-.195.408-.053.071-.089.142-.142.213l-.106.16a6 6 0 0 1-.267.355c-.106.106-.195.23-.32.32v.017c-.106.089-.212.196-.336.284-.373.284-.8.497-1.19.764-.124.088-.248.16-.355.266-.124.088-.23.177-.337.284-.124.106-.213.213-.32.337-.088.106-.195.23-.266.355a5 5 0 0 0-.248.373c-.071.142-.125.266-.196.408-.053.142-.106.266-.142.408-.053.16-.088.302-.124.444-.018.071-.018.16-.035.23-.018.072-.018.143-.036.214 0 .142-.017.302-.017.443 0 .107 0 .214.017.32 0 .142.018.284.054.444.017.142.053.284.088.426.054.142.09.284.142.426.036.089.089.177.125.248l-4.083-1.58a44 44 0 0 0-2.059-.532l-1.118-.266a33 33 0 0 0-3.23-.48c-.036 0-.054-.017-.09-.017a32 32 0 0 0-3.177-.16c-.78 0-1.562.036-2.325.089a34 34 0 0 0-3.248.39 13 13 0 0 0-.799.142c-.55.107-1.083.231-1.597.355l-.8.213c-.265.107-.514.231-.762.337l-.586.267c-.036.018-.071.018-.089.035-.177.089-.337.16-.497.249-.053.017-.089.035-.124.053a8 8 0 0 0-.55.284c-.125.053-.249.124-.355.177a2 2 0 0 1-.16.09c-.16.088-.32.177-.462.265q-.24.134-.426.267c-.124.088-.248.16-.355.248-.017.018-.035.018-.053.036-.106.07-.23.16-.337.248l-.036.036-.266.213c-.035.017-.07.053-.106.07-.089.072-.178.16-.267.231-.017.036-.053.054-.07.071-.107.107-.214.196-.32.302-.018 0-.018.018-.036.036-.106.088-.213.195-.32.301-.017.018-.017.036-.035.036a4 4 0 0 0-.266.284c-.035.035-.089.071-.124.106a5 5 0 0 1-.302.32c-.018.035-.053.053-.07.089-.143.142-.267.284-.409.426l-.053.053c-.284.302-.586.603-.906.87-.319.284-.656.55-.994.78-.355.249-.692.462-1.065.675q-.532.293-1.118.533c-.372.16-.763.301-1.153.426-.746.16-1.51.461-2.166.514-.142 0-.302.036-.444.053-.16.036-.301.072-.443.107l-.426.16c-.142.053-.284.124-.426.195-.125.089-.267.16-.39.248a3 3 0 0 0-.356.302c-.124.089-.248.213-.355.32-.106.124-.213.23-.302.355-.088.142-.195.266-.266.408a3 3 0 0 0-.248.408c-.071.16-.142.302-.196.462-.053.142-.106.301-.16.461-.035.142-.07.284-.088.426 0 .018-.018.036-.018.053-.035.16-.035.373-.053.48-.018.124-.036.23-.036.355 0 .07 0 .16.018.23.018.125.036.231.071.338.036.106.071.213.124.32v.017c.054.106.125.213.196.32.07.106.142.212.23.319.09.089.196.195.302.284a2.6 2.6 0 0 0 .337.284c.426.373.533.497 1.083.78.089.054.178.09.284.143.018 0 .036.018.053.018 0 .035 0 .053.018.088.018.142.053.284.089.426.035.16.089.302.142.426.053.107.089.213.142.32.018.035.035.07.053.089.071.142.142.266.213.39l.266.373c.09.106.196.23.302.337.107.106.213.195.337.302 0 0 .018.017.036.017.106.09.213.178.32.249.124.089.248.16.39.23.124.072.266.143.408.196.107.053.23.089.355.124.018.018.036.018.071.036.071.017.16.035.23.053-.052.958-.07 1.864.072 2.183.16.355.94-.728 1.722-1.97-.107 1.225-.178 2.662 0 3.088.195.444 1.26-.94 2.183-2.467 12.585-2.91 24.069 5.787 25.276 18.07-.23-1.918-2.592-2.983-3.674-2.716-.533 1.313-1.438 3-2.894 4.047a11.4 11.4 0 0 0-.177-3.55 11.5 11.5 0 0 1-2.201 4.473c-1.686.124-3.373-.693-4.26-1.917-.071-.054-.089-.16-.142-.231-.053-.124-.107-.249-.142-.373a1.5 1.5 0 0 1-.107-.373c-.017-.124-.017-.248-.017-.39v-.266c.017-.125.053-.249.088-.373.036-.124.071-.249.125-.373.07-.124.124-.248.213-.373.301-.852.301-1.544-.249-1.952a2 2 0 0 0-.337-.178c-.071-.018-.16-.053-.23-.07-.054-.018-.09-.036-.143-.054-.124-.035-.248-.071-.373-.089a1.4 1.4 0 0 0-.372-.053 3 3 0 0 0-.39-.035c-.09 0-.178.017-.267.017-.142 0-.266.018-.39.054a3 3 0 0 0-.373.07 3 3 0 0 0-.373.125c-.124.053-.23.106-.355.16-.107.053-.213.124-.337.177-4.136 2.698-1.669 9.017 1.153 10.845-1.065.195-2.147.426-2.45.657l-.035.035a17 17 0 0 0 2.397 1.19c1.136.372 2.343.71 2.875.852v.017q2.21.453 4.473.32c7.863-.55 14.306-6.532 15.478-14.413.035.16.071.301.107.461.053.32.124.657.16.994v.018c.035.16.053.32.07.461v.072c.018.16.036.319.036.461.018.195.035.39.035.586v.284c0 .088.018.195.018.284 0 .106-.018.213-.018.32v.248c0 .124-.018.23-.018.355 0 .07 0 .142-.017.23 0 .125-.018.249-.018.391-.018.053-.018.106-.018.16l-.053.408c0 .053 0 .106-.018.16-.018.177-.053.337-.07.515v.035c-.036.16-.072.337-.107.497v.053l-.107.48c0 .017-.018.053-.018.07-.035.16-.07.32-.124.48v.053c-.053.177-.106.337-.142.497-.018.018-.018.035-.018.035l-.16.533c-.07.177-.124.337-.195.515-.07.177-.124.355-.195.514-.071.178-.142.338-.213.515h-.018c-.07.16-.142.337-.23.497a1 1 0 0 1-.054.124c-.017.018-.017.036-.035.054a16.8 16.8 0 0 1-4.988 5.964c-.142.088-.284.195-.426.301-.035.036-.089.053-.124.089-.124.089-.249.177-.39.266l.053.107h.017l.746-.107h.018c.461-.07.923-.16 1.384-.248.124-.018.266-.053.39-.089.09-.018.16-.035.25-.053.123-.018.248-.053.372-.071.106-.036.213-.053.32-.089a33.7 33.7 0 0 0 5.147-1.704 28.4 28.4 0 0 1-11.023 9 29.2 29.2 0 0 0 6.053-1.048 28.36 28.36 0 0 0 16.774-13.4 28.3 28.3 0 0 1-4.775 11.412 28 28 0 0 0 4.74-3.94 28.14 28.14 0 0 0 7.472-15.087c.603 2.804.78 5.697.515 8.555 12.816-17.874 1.065-36.405-3.852-41.286-.018-.035-.036-.053-.036-.089-.017.018-.017.018-.017.036 0-.018 0-.018-.018-.036 0 .213-.018.426-.036.64a24 24 0 0 1-.177 1.189c-.089.39-.195.78-.302 1.171-.124.373-.266.763-.426 1.136-.16.355-.337.728-.532 1.083-.196.337-.409.692-.64 1.012-.23.337-.479.656-.727.958-.266.32-.55.604-.834.888-.178.16-.338.301-.515.443-.142.125-.266.231-.408.355-.32.249-.64.48-.994.693-.338.213-.693.426-1.048.603-.372.178-.745.337-1.118.497-.373.142-.763.266-1.154.373s-.798.195-1.189.266c-.408.071-.816.107-1.207.142-.284.018-.568.036-.852.036-.408 0-.816-.036-1.207-.071a9 9 0 0 1-1.207-.178 9 9 0 0 1-1.19-.302h-.017c.39-.035.781-.07 1.172-.142.408-.07.798-.16 1.189-.266.39-.106.78-.23 1.154-.373.39-.142.763-.32 1.118-.497.373-.177.71-.372 1.065-.585.337-.231.674-.462.994-.71q.48-.373.905-.8c.302-.265.568-.567.834-.869q.4-.48.746-.958c.035-.054.07-.125.106-.178.178-.284.355-.568.515-.852a12.2 12.2 0 0 0 .959-2.219c.124-.372.213-.763.301-1.153.071-.409.142-.8.178-1.19.035-.408.07-.816.07-1.207 0-.284-.017-.568-.035-.852-.035-.408-.088-.798-.142-1.189-.07-.408-.16-.799-.266-1.19-.124-.372-.248-.762-.39-1.135s-.32-.746-.497-1.1c-.196-.356-.39-.71-.604-1.048-.23-.337-.461-.657-.71-.976a38 38 0 0 0-.816-.905c-.142-.142-.302-.302-.462-.444a33 33 0 0 0-2.467-1.74 3 3 0 0 0-.355-.177c-.586-.373-1.136-.568-1.686-.746z"/></svg>