<!--
  - The MIT License (MIT)
  -
  - Copyright (c) 2015-2021 Elior "Mallowigi" Boukhobza
  -
  - Permission is hereby granted, free of charge, to any person obtaining a copy
  - of this software and associated documentation files (the "Software"), to deal
  - in the Software without restriction, including without limitation the rights
  - to use, copy, modify, merge, publish, distribute, sublicense, and/or sell
  - copies of the Software, and to permit persons to whom the Software is
  - furnished to do so, subject to the following conditions:
  -
  - The above copyright notice and this permission notice shall be included in all
  - copies or substantial portions of the Software.
  -
  - THE SOFTWARE IS PROVIDED "AS IS", WITHOUT WARRANTY OF ANY KIND, EXPRESS OR
  - IMPLIED, INCLUDING BUT NOT LIMITED TO THE WARRANTIES OF MERCHANTABILITY,
  - FITNESS FOR A PARTICULAR PURPOSE AND NONINFRINGEMENT. IN NO EVENT SHALL THE
  - AUTHORS OR COPYRIGHT HOLDERS BE LIABLE FOR ANY CLAIM, DAMAGES OR OTHER
  - LIABILITY, WHETHER IN AN ACTION OF CONTRACT, TORT OR OTHERWISE, ARISING FROM,
  - OUT OF OR IN CONNECTION WITH THE SOFTWARE OR THE USE OR OTHER DEALINGS IN THE
  - SOFTWARE.
  -
  -
  -->


<svg big="true" xmlns="http://www.w3.org/2000/svg" fill="#4DB6AC" version="1.1" width="16px" height="16px"
     viewBox="0 0 24 24">
  <path
    d="M21.7,13.35L20.7,14.35L18.65,12.3L19.65,11.3C19.86,11.08 20.21,11.08 20.42,11.3L21.7,12.58C21.92,12.79 21.92,13.14 21.7,13.35M12,18.94L18.07,12.88L20.12,14.93L14.06,21H12V18.94M4,2H18A2,2 0 0,1 20,4V8.17L16.17,12H12V16.17L10.17,18H4A2,2 0 0,1 2,16V4A2,2 0 0,1 4,2M4,6V10H10V6H4M12,6V10H18V6H12M4,12V16H10V12H4Z" />
</svg>
