<!--
  - The MIT License (MIT)
  -
  - Copyright (c) 2015-2021 Elior "Mallowigi" Boukhobza
  -
  - Permission is hereby granted, free of charge, to any person obtaining a copy
  - of this software and associated documentation files (the "Software"), to deal
  - in the Software without restriction, including without limitation the rights
  - to use, copy, modify, merge, publish, distribute, sublicense, and/or sell
  - copies of the Software, and to permit persons to whom the Software is
  - furnished to do so, subject to the following conditions:
  -
  - The above copyright notice and this permission notice shall be included in all
  - copies or substantial portions of the Software.
  -
  - THE SOFTWARE IS PROVIDED "AS IS", WITHOUT WARRANTY OF ANY KIND, EXPRESS OR
  - IMPLIED, INCLUDING BUT NOT LIMITED TO THE WARRANTIES OF MERCHANTABILITY,
  - FITNESS FOR A PARTICULAR PURPOSE AND NONINFRINGEMENT. IN NO EVENT SHALL THE
  - AUTHORS OR COPYRIGHT HOLDERS BE LIABLE FOR ANY CLAIM, DAMAGES OR OTHER
  - LIABILITY, WHETHER IN AN ACTION OF CONTRACT, TORT OR OTHERWISE, ARISING FROM,
  - OUT OF OR IN CONNECTION WITH THE SOFTWARE OR THE USE OR OTHER DEALINGS IN THE
  - SOFTWARE.
  -
  -
  -->


<svg big="true" xmlns="http://www.w3.org/2000/svg" fill="#EF5350" version="1.1" width="16px" height="16px"
     viewBox="0 0 24 24">
    <path
            d="M9.41,13L12,15.59L14.59,13L16,14.41L13.41,17L16,19.59L14.59,21L12,18.41L9.41,21L8,19.59L10.59,17L8,14.41L9.41,13M22,9A2,2 0 0,1 20,11H4A2,2 0 0,1 2,9V6A2,2 0 0,1 4,4H20A2,2 0 0,1 22,6V9M4,9H8V6H4V9M10,9H14V6H10V9M16,9H20V6H16V9Z" />
</svg>
