<!--
  - The MIT License (MIT)
  -
  - Copyright (c) 2015-2022 Elior "Mallowigi" Boukhobza
  -
  - Permission is hereby granted, free of charge, to any person obtaining a copy
  - of this software and associated documentation files (the "Software"), to deal
  - in the Software without restriction, including without limitation the rights
  - to use, copy, modify, merge, publish, distribute, sublicense, and/or sell
  - copies of the Software, and to permit persons to whom the Software is
  - furnished to do so, subject to the following conditions:
  -
  - The above copyright notice and this permission notice shall be included in all
  - copies or substantial portions of the Software.
  -
  - THE SOFTWARE IS PROVIDED "AS IS", WITHOUT WARRANTY OF ANY KIND, EXPRESS OR
  - IMPLIED, INCLUDING BUT NOT LIMITED TO THE WARRANTIES OF MERCHANTABILITY,
  - FITNESS FOR A PARTICULAR PURPOSE AND NONINFRINGEMENT. IN NO EVENT SHALL THE
  - AUTHORS OR COPYRIGHT HOLDERS BE LIABLE FOR ANY CLAIM, DAMAGES OR OTHER
  - LIABILITY, WHETHER IN AN ACTION OF CONTRACT, TORT OR OTHERWISE, ARISING FROM,
  - OUT OF OR IN CONNECTION WITH THE SOFTWARE OR THE USE OR OTHER DEALINGS IN THE
  - SOFTWARE.
  -
  -
  -->


<svg big="true" xmlns="http://www.w3.org/2000/svg" fill="#4FC3F7" version="1.1" width="16px" height="16px"
     viewBox="0 0 24 24">
  <path
    d="M16,7.41L11.41,12L16,16.59L14.59,18L10,13.41L5.41,18L4,16.59L8.59,12L4,7.41L5.41,6L10,10.59L14.59,6L16,7.41M21.85,21.03H16.97V20.03L17.86,19.23C18.62,18.58 19.18,18.04 19.56,17.6C19.93,17.16 20.12,16.75 20.13,16.36C20.14,16.08 20.05,15.85 19.86,15.66C19.68,15.5 19.39,15.38 19,15.38C18.69,15.38 18.42,15.44 18.16,15.56L17.5,15.94L17.05,14.77C17.32,14.56 17.64,14.38 18.03,14.24C18.42,14.1 18.85,14 19.32,14C20.1,14.04 20.7,14.25 21.1,14.66C21.5,15.07 21.72,15.59 21.72,16.23C21.71,16.79 21.53,17.31 21.18,17.78C20.84,18.25 20.42,18.7 19.91,19.14L19.27,19.66V19.68H21.85V21.03Z" />
</svg>
