<svg xmlns="http://www.w3.org/2000/svg" width="16" height="16" data-big="true" viewBox="0 0 512 512"><defs><mask id="a"><path fill="#fff" d="M0 0h512v512H0z"/><circle cx="368" cy="368" r="150"/></mask></defs><path fill="#26A2C1" d="m169.242 244.408-84.89 141.594h132.332c-12.837-60.894 4.146-106.644 48.12-111.124l-18.582-30.47zM302.005 61.813H275.91v125.878l23.883 37.448h-32l-19.868-30.392V61.813h-81.92v132.934L33.942 413.729h182.743v27.617H27.516c-26.369 0-34.163-13.204-21.746-34.336l132.25-219.32V61.814h-26.096c-19.52 0-19.52-27.617 0-27.617h190.081c19.52 0 19.52 27.617 0 27.617m-6.837 329.95v29.946h-22.539c-19.046 0-30.176-13.825-34.829-33.234-6.284-26.068-6.018-41.645 0-66.613 5.22-21.79 21.898-33.234 40.944-33.234h90.143v-11.273H303.35v-25.782c0-18.913 5.039-25.425 32.774-30.32 21.41-3.584 43.237-3.545 65.465 0 17.79 2.961 32.775 16.303 32.775 34.068v62.408c0 18.309-14.55 33.306-32.775 33.306l-65.47.006c-22.225 0-40.951 19.089-40.951 40.721m58.375-142.479c0-11.673-12.533-19.008-22.505-13.172-9.973 5.837-9.973 20.507 0 26.344 9.972 5.836 22.505-1.499 22.505-13.172m96.475 74.901v-29.947h22.539c19.046 0 30.176 13.825 34.829 33.234 6.284 26.068 6.018 41.645 0 66.613-5.22 21.79-21.898 33.234-40.944 33.234h-90.143v10.2h65.537v26.855c0 18.913-5.04 25.425-32.774 30.32-21.41 3.584-43.237 3.545-65.465 0-17.79-2.961-32.775-16.303-32.775-34.068v-62.408c0-18.309 14.55-33.306 32.775-33.306l65.47-.006c22.225 0 40.951-19.089 40.951-40.721m-58.375 142.478c0 11.673 12.533 19.008 22.505 13.172 9.973-5.837 9.973-20.507 0-26.344-9.972-5.837-22.505 1.499-22.505 13.172" mask="url(#a)"/><path fill="#26A2C1" fill-rule="evenodd" d="m445.52 458.12-9.2 27.64-83.18 2.24L312 443.12V324.6zm10.66-11.96L322.02 312h121.1L488 353.14l-2.24 83.16zM296 309.62V417.2l-10.28-3.38-33.72-38.2zM417.2 296H309.62l66-44 38.2 33.72z"/></svg>