<svg xmlns="http://www.w3.org/2000/svg" width="16" height="16" viewBox="0 0 24 24">
  <defs>
    <mask id="a">
      <path fill="#fff"
            d="M20.5 11H19V7a2 2 0 0 0-2-2h-4V3.5A2.5 2.5 0 0 0 10.5 1 2.5 2.5 0 0 0 8 3.5V5H4a2 2 0 0 0-2 2v3.8h1.5c1.5 0 2.7 1.2 2.7 2.7S5 16.2 3.5 16.2H2V20a2 2 0 0 0 2 2h3.8v-1.5c0-1.5 1.2-2.7 2.7-2.7s2.7 1.2 2.7 2.7V22H17a2 2 0 0 0 2-2v-4h1.5a2.5 2.5 0 0 0 2.5-2.5 2.5 2.5 0 0 0-2.5-2.5"/>
      <path stroke="#000" stroke-width="2.5"
            d="M19 22h-2v-4.5l-1.75 1.75-1.21-1.21L18 14.08l3.96 3.96-1.21 1.21L19 17.5z"/>
      <path fill="#fff" d="M19 22h-2v-4.5l-1.75 1.75-1.21-1.21L18 14.08l3.96 3.96-1.21 1.21L19 17.5z"/>
    </mask>
  </defs>
  <g mask="url(#a)">
    <path fill="#66BB6A"
          d="M20.5 11H19V7a2 2 0 0 0-2-2h-4V3.5A2.5 2.5 0 0 0 10.5 1 2.5 2.5 0 0 0 8 3.5V5H4a2 2 0 0 0-2 2v3.8h1.5c1.5 0 2.7 1.2 2.7 2.7S5 16.2 3.5 16.2H2V20a2 2 0 0 0 2 2h3.8v-1.5c0-1.5 1.2-2.7 2.7-2.7s2.7 1.2 2.7 2.7V22H17a2 2 0 0 0 2-2v-4h1.5a2.5 2.5 0 0 0 2.5-2.5 2.5 2.5 0 0 0-2.5-2.5"/>
    <path fill="#FFF176" d="M19 22h-2v-4.5l-1.75 1.75-1.21-1.21L18 14.08l3.96 3.96-1.21 1.21L19 17.5z"/>
  </g>
</svg>