<!--
  - The MIT License (MIT)
  -
  - Copyright (c) 2015-2024 Elior "Mallowigi" Boukhobza
  -
  - Permission is hereby granted, free of charge, to any person obtaining a copy
  - of this software and associated documentation files (the "Software"), to deal
  - in the Software without restriction, including without limitation the rights
  - to use, copy, modify, merge, publish, distribute, sublicense, and/or sell
  - copies of the Software, and to permit persons to whom the Software is
  - furnished to do so, subject to the following conditions:
  -
  - The above copyright notice and this permission notice shall be included in all
  - copies or substantial portions of the Software.
  -
  - THE SOFTWARE IS PROVIDED "AS IS", WITHOUT WARRANTY OF ANY KIND, EXPRESS OR
  - IMPLIED, INCLUDING BUT NOT LIMITED TO THE WARRANTIES OF MERCHANTABILITY,
  - FITNESS FOR A PARTICULAR PURPOSE AND NONINFRINGEMENT. IN NO EVENT SHALL THE
  - AUTHORS OR COPYRIGHT HOLDERS BE LIABLE FOR ANY CLAIM, DAMAGES OR OTHER
  - LIABILITY, WHETHER IN AN ACTION OF CONTRACT, TORT OR OTHERWISE, ARISING FROM,
  - OUT OF OR IN CONNECTION WITH THE SOFTWARE OR THE USE OR OTHER DEALINGS IN THE
  - SOFTWARE.
  -->


<svg data-big="true" xmlns="http://www.w3.org/2000/svg" version="1.1" width="16px" height="16px" fill="#66BB6A"
     viewBox="0 0 24 24">
  <path
    d="M16,5C15.44,5 15,5.44 15,6C15,6.56 15.44,7 16,7C16.56,7 17,6.56 17,6C17,5.44 16.56,5 16,5M16,2C13.27,2 10.94,3.66 10,6C10.94,8.34 13.27,10 16,10C18.73,10 21.06,8.34 22,6C21.06,3.66 18.73,2 16,2M16,3.5A2.5,2.5 0 0,1 18.5,6A2.5,2.5 0 0,1 16,8.5A2.5,2.5 0 0,1 13.5,6A2.5,2.5 0 0,1 16,3.5M3,2V14H6V23L13,11H9L10.12,8.5C9.44,7.76 8.88,6.93 8.5,6C9.19,4.29 10.5,2.88 12.11,2H3Z"/>
</svg>
