<svg xmlns="http://www.w3.org/2000/svg" width="16" height="16"  viewBox="0 0 13 13"><g fill="#FDD835" fill-rule="evenodd" transform="translate(1 .6)"><path d="M1.5 11.3h-1V8.5c0-.614 1.214-1.585 4.22-3.614l.56.828Q3.294 7.055 2.312 7.84a7.5 7.5 0 0 0-.7.617c-.08.084-.112.134-.112.043zM9.28 11.3h1V8.5c0-.614-1.214-1.585-4.22-3.614l-.56.828Q7.486 7.055 8.468 7.84q.476.382.7.617c.08.084.112.134.112.043z"/><circle cx="5.5" cy="2" r="2"/><ellipse cx="5.5" cy="5.25" rx="1.5" ry="1.65"/><path d="M5.5 11.3c1.38 0 2.5-.42 2.5-1.8 0-.466-.355-1.449-1-2.2-.488-.569-1.258-1-1.5-1-.328 0-1.022.397-1.5 1-.62.781-1 1.846-1 2.2 0 1.38 1.12 1.8 2.5 1.8M4.613 3.913l-.226.974a5.1 5.1 0 0 1-2.168-1.066C1.565 3.27 1.023 2.54.555 1.628l.89-.456c.783 1.526 1.747 2.41 3.168 2.741M6.055 3.913l.226.974c1.74-.404 2.926-1.492 3.832-3.259l-.89-.456c-.783 1.526-1.747 2.41-3.168 2.741"/><path d="M.7 4.7h9.6v1H.7z"/></g></svg>