<svg xmlns="http://www.w3.org/2000/svg" width="16" height="16"  viewBox="0 0 24 24"><path fill="#4DD0E1" d="M18.9 11.55a.69.69 0 0 1-.371.616l-5.53 3.108a.66.66 0 0 1-.399.126.66.66 0 0 1-.399-.126l-5.53-3.108a.69.69 0 0 1-.371-.616v-6.3c0-.266.147-.497.371-.616l5.53-3.108A.66.66 0 0 1 12.6 1.4a.66.66 0 0 1 .399.126l5.53 3.108c.224.119.371.35.371.616zm-6.3-8.645L8.428 5.25 12.6 7.595l4.172-2.345z"/><path fill="#4DD0E1" d="M14.7 19.95a.69.69 0 0 1-.371.616l-5.53 3.108a.66.66 0 0 1-.399.126.66.66 0 0 1-.399-.126l-5.53-3.108a.69.69 0 0 1-.371-.616v-6.3c0-.266.147-.497.371-.616l5.53-3.108A.66.66 0 0 1 8.4 9.8a.66.66 0 0 1 .399.126l5.53 3.108c.224.119.371.35.371.616zm-6.3-8.645L4.228 13.65 8.4 15.995l4.172-2.345z"/><path fill="#4DD0E1" d="M23.1 19.95a.69.69 0 0 1-.371.616l-5.53 3.108a.66.66 0 0 1-.399.126.66.66 0 0 1-.399-.126l-5.53-3.108a.69.69 0 0 1-.371-.616v-6.3c0-.266.147-.497.371-.616l5.53-3.108A.66.66 0 0 1 16.8 9.8a.66.66 0 0 1 .399.126l5.53 3.108c.224.119.371.35.371.616zm-6.3-8.645-4.172 2.345 4.172 2.345 4.172-2.345z"/></svg>