<svg xmlns="http://www.w3.org/2000/svg" xml:space="preserve" width="16" height="16" fill-rule="evenodd" stroke-linejoin="round" stroke-miterlimit="1.414" clip-rule="evenodd"  viewBox="0 0 24 24"><path fill="#00acc1" fill-rule="nonzero" d="M10 4H4c-1.11 0-2 .89-2 2v12c0 1.097.903 2 2 2h16c1.097 0 2-.903 2-2V8a2 2 0 0 0-2-2h-8z"/><path fill="#B2EBF2" d="M15.96 22.511c-.09-.063-.198-.27-.258-.501-.055-.206-.075-.748-.039-1.013.014-.1.021-.183.017-.187a2 2 0 0 0-.186-.03 4.6 4.6 0 0 1-1.635-.52 1.2 1.2 0 0 0-.204-.1c-.014 0-.064.073-.11.163-.218.419-.598.834-.886.97-.105.049-.246.061-.31.026-.099-.052-.128-.26-.07-.49.04-.157.202-.489.332-.683.058-.085.172-.23.253-.322l.148-.167-.077-.073c-.203-.195-.586-.645-.586-.69 0-.016.522-.378.56-.388q.032-.006.13.128c.136.188.503.55.718.71 1.644 1.222 3.96.916 5.207-.69a.7.7 0 0 1 .144-.154c.025 0 .54.35.559.379.016.026-.21.318-.402.521a1.5 1.5 0 0 0-.167.192c0 .01.072.093.16.186.279.293.553.752.629 1.051.058.23.029.438-.069.49a.3.3 0 0 1-.124.02c-.3 0-.798-.482-1.093-1.057-.057-.111-.112-.202-.122-.202s-.068.032-.129.07c-.429.275-1.07.512-1.623.601a1.4 1.4 0 0 0-.236.051c-.015.012-.013.068.007.192.036.223.022.751-.026.965-.049.22-.124.391-.217.492-.106.117-.19.134-.296.06m-5.898-4.496a70 70 0 0 1-.004-1.625l.005-1.6h.839l.005.589c.004.44.012.593.03.605.014.008.223.015.466.015.345 0 .447-.005.464-.026q.022-.026.028-.605l.005-.578h.839v3.24H11.9l-.005-.619c-.004-.415-.013-.627-.028-.645-.017-.02-.12-.026-.466-.026s-.45.006-.467.026c-.014.018-.023.23-.027.645l-.005.619-.415.005c-.321.004-.417 0-.425-.02m3.395 0a71 71 0 0 1-.005-1.625l.006-1.6h2.076l.006.354.005.355-.614.005-.615.006-.006.238c-.004.177.001.243.02.255.015.009.253.016.53.016h.505l-.005.356-.006.355-.519.01-.519.01v.56l.64.01.638.01v.7l-1.064.005c-.84.004-1.066 0-1.073-.02m2.795 0a71 71 0 0 1-.004-1.625l.005-1.6h.839l.01 1.26.01 1.26.608.01.61.01v.7l-1.034.005c-.817.004-1.036 0-1.044-.02m2.656 0a71 71 0 0 1-.005-1.625l.005-1.6.44-.005c.241-.003.449.002.461.01.03.02.473 1.228.571 1.555.102.34.094.32.117.297.01-.011.058-.145.105-.299.103-.337.512-1.508.539-1.544.015-.019.122-.024.46-.02l.442.006v3.24l-.374.005-.373.006-.014-.053c-.027-.11.01-1.268.051-1.598.066-.52.056-.528-.099-.08-.166.485-.498 1.376-.53 1.425-.027.042-.044.045-.236.045-.142 0-.213-.008-.226-.025-.025-.032-.433-1.141-.544-1.48-.079-.239-.121-.325-.12-.241 0 .02.019.184.04.366.042.34.079 1.48.052 1.587l-.014.053h-.37c-.276 0-.371-.007-.378-.025m.264-3.694a4 4 0 0 0-.444-.559c-.54-.567-1.189-.926-1.986-1.097-.228-.049-.289-.053-.709-.054-.494-.001-.603.011-.986.111a3.7 3.7 0 0 0-1.41.719 4.7 4.7 0 0 0-.659.694c-.084.119-.126.163-.148.154-.073-.027-.56-.355-.56-.376 0-.047.329-.46.551-.692l.23-.24-.152-.166c-.278-.302-.545-.752-.62-1.044-.058-.23-.029-.438.07-.49a.3.3 0 0 1 .124-.021c.3 0 .797.482 1.092 1.058.057.111.111.202.12.202s.086-.04.173-.09c.446-.255 1.162-.482 1.65-.523a1 1 0 0 0 .176-.027c.017-.011.015-.065-.011-.219-.047-.284-.033-.84.028-1.071.097-.366.252-.572.41-.542.148.028.29.269.365.614.049.226.05.86.002 1.068a.4.4 0 0 0-.019.154c.008.007.103.028.213.045.636.1 1.119.277 1.71.63.04.023.079.035.085.025l.12-.238c.235-.469.612-.894.92-1.039.106-.05.246-.061.311-.027.098.053.127.26.068.49-.042.169-.206.5-.354.716-.068.1-.208.267-.31.37l-.185.187.183.193c.184.196.509.61.568.726.027.052.028.067.006.087-.046.043-.537.33-.563.33-.013 0-.04-.026-.06-.058"/></svg>