<svg xmlns="http://www.w3.org/2000/svg" xml:space="preserve" width="128" height="128" viewBox="0 0 473.931 473.931"><circle cx="236.966" cy="236.966" r="236.966" style="fill:#344e5d"/><path d="M288.104 155.47c-10.151-35.251-26.529-58.154-45.025-58.154-19.584 0-36.804 25.687-46.757 64.519 13.702 3.244 28.422 8.041 43.584 14.327 16.753-8.995 33.108-15.97 48.198-20.692" style="fill:#83ceca"/><path d="m240.116 180.297-1.639-.681c-14.78-6.125-29.253-10.885-43.015-14.144l-3.708-.879.947-3.693c10.81-42.162 29.642-67.333 50.383-67.333 19.76 0 37.485 22.181 48.62 60.86l1.014 3.514-3.491 1.093c-15.158 4.748-31.154 11.614-47.543 20.419zm-39.202-21.19c12.509 3.173 25.526 7.51 38.783 12.924 15.012-7.962 29.71-14.342 43.775-19.001-10.013-32.624-24.991-51.973-40.396-51.973-16.303 0-32.303 22.137-42.162 58.05" style="fill:#039a88"/><path d="M198.048 322.936c10.151 35.244 26.537 58.147 45.032 58.147 19.577 0 36.796-25.683 46.742-64.512-13.695-3.248-28.415-8.049-43.584-14.335-16.745 9.007-33.1 15.971-48.19 20.7" style="fill:#83ceca"/><path d="M243.08 384.829c-19.764 0-37.492-22.181-48.628-60.852l-1.014-3.514 3.491-1.093c15.221-4.774 31.217-11.644 47.535-20.426l1.564-.842 1.639.681c14.795 6.129 29.264 10.889 43.015 14.151l3.708.879-.947 3.689c-10.794 42.156-29.623 67.327-50.363 67.327m-40.404-59.453c10.013 32.621 24.995 51.966 40.404 51.966 16.299 0 32.299-22.136 42.151-58.046-12.497-3.173-25.515-7.51-38.783-12.928-14.957 7.947-29.658 14.327-43.772 19.008" style="fill:#039a88"/><path d="M151.915 243.783c-26.323 29.384-37.893 57.488-27.206 73.66 10.196 15.424 38.338 16.464 73.338 5.497-4.318-15.008-7.498-32.261-9.246-50.944-13.952-9.077-26.39-18.626-36.886-28.213" style="fill:#83ceca"/><path d="M156.959 333.982q-.004 0 0 0c-16.883 0-29.111-5.006-35.371-14.477-11.472-17.366-1.437-45.874 27.539-78.218l2.522-2.814 2.791 2.548c10.503 9.594 22.75 18.956 36.4 27.835l1.515.988.172 1.8c1.706 18.267 4.771 35.176 9.111 50.259l1.014 3.51-3.491 1.093c-15.815 4.962-30.018 7.476-42.202 7.476m-4.733-84.889c-23.925 27.648-33.272 52.86-24.4 66.285 6.077 9.19 19.191 11.121 29.126 11.121 10.383 0 22.944-2.095 36.505-6.08-3.813-14.103-6.571-29.642-8.209-46.282-12.188-8.016-23.275-16.423-33.022-25.044" style="fill:#039a88"/><path d="M334.24 234.623c26.316-29.384 37.885-57.488 27.203-73.66-10.196-15.424-38.338-16.464-73.338-5.497 4.325 15.012 7.506 32.261 9.246 50.944 13.948 9.07 26.386 18.627 36.889 28.213" style="fill:#83ceca"/><path d="m334.506 239.933-2.788-2.544c-10.544-9.624-22.795-18.989-36.407-27.835l-1.519-.988-.168-1.804c-1.699-18.26-4.763-35.169-9.115-50.256l-1.014-3.514 3.491-1.093c15.824-4.958 30.02-7.476 42.207-7.476 16.879 0 29.107 5.006 35.367 14.477 11.472 17.362 1.437 45.87-27.532 78.218zm-33.605-35.667c12.161 7.996 23.251 16.404 33.029 25.047 23.921-27.648 33.264-52.86 24.393-66.285-6.077-9.19-19.191-11.121-29.126-11.121-10.383 0-22.944 2.095-36.501 6.08 3.812 14.108 6.57 29.647 8.205 46.279" style="fill:#039a88"/><path d="M269.021 189.816a353 353 0 0 1 28.325 16.598c-1.74-18.683-4.917-35.936-9.246-50.944-15.091 4.726-31.446 11.697-48.198 20.692a356 356 0 0 1 29.119 13.654" style="fill:#83ceca"/><path d="m301.792 213.771-6.484-4.221a351 351 0 0 0-28.022-16.419 356 356 0 0 0-28.808-13.512l-7.281-3.023 6.941-3.731c16.808-9.029 33.246-16.082 48.852-20.969l3.656-1.145 1.059 3.678c4.475 15.536 7.629 32.905 9.377 51.633zm-53.16-37.942a363 363 0 0 1 22.129 10.679 361 361 0 0 1 22.061 12.602c-1.62-13.893-4.06-26.926-7.274-38.881-11.891 3.952-24.265 9.183-36.916 15.6" style="fill:#039a88"/><path d="M217.127 288.587a354 354 0 0 1-28.325-16.595c1.747 18.683 4.924 35.936 9.246 50.944 15.091-4.733 31.446-11.693 48.19-20.699a354 354 0 0 1-29.111-13.65" style="fill:#83ceca"/><path d="m195.511 327.655-1.059-3.682c-4.468-15.528-7.622-32.898-9.377-51.629l-.718-7.701 6.484 4.213a353 353 0 0 0 28.026 16.419 353 353 0 0 0 28.8 13.508l7.281 3.02-6.941 3.734c-16.737 9.003-33.167 16.06-48.845 20.973zm-2.178-48.359c1.624 13.893 4.06 26.929 7.27 38.881 11.929-3.974 24.303-9.201 36.909-15.603a359 359 0 0 1-22.125-10.679 359 359 0 0 1-22.054-12.599" style="fill:#039a88"/><path d="M188.487 209.853c1.441-17.399 4.142-33.608 7.835-48.018-39.004-9.257-69.743-5.961-78.854 11.379-9.01 17.16 5.313 43.969 34.45 70.57 10.141-11.323 22.478-22.837 36.569-33.931" style="fill:#83ceca"/><path d="m152.185 249.093-2.788-2.548c-32.074-29.279-44.92-56.643-35.244-75.071 6.339-12.056 21.478-18.428 43.79-18.428 11.644 0 24.849 1.732 39.24 5.145l3.708.879-.947 3.689c-3.734 14.574-6.331 30.522-7.727 47.397l-.135 1.624-1.283 1.007c-13.732 10.814-25.878 22.08-36.093 33.489zm5.758-88.564c-19.079 0-32.276 5.122-37.167 14.424-7.48 14.249 4.34 38.402 30.918 63.516 9.624-10.41 20.771-20.666 33.201-30.548 1.336-15.278 3.648-29.814 6.877-43.288-12.392-2.723-23.756-4.104-33.829-4.104" style="fill:#039a88"/><path d="M334.24 234.623c-10.151 11.33-22.488 22.84-36.576 33.93-1.441 17.395-4.142 33.605-7.843 48.018 39.004 9.246 69.75 5.961 78.861-11.379 9.011-17.163-5.312-43.968-34.442-70.569" style="fill:#83ceca"/><path d="M328.208 325.357q-.004 0 0 0c-11.648 0-24.857-1.732-39.247-5.145l-3.708-.879.947-3.693c3.738-14.563 6.339-30.507 7.734-47.397l.135-1.624 1.283-1.007c13.747-10.825 25.893-22.091 36.1-33.489l2.522-2.814 2.791 2.548c32.063 29.283 44.905 56.646 35.232 75.071-6.337 12.057-21.476 18.429-43.789 18.429m-33.836-11.584c12.396 2.72 23.76 4.097 33.833 4.101 19.083 0 32.28-5.122 37.171-14.421 7.48-14.249-4.34-38.402-30.911-63.516-9.616 10.402-20.771 20.658-33.208 30.548-1.344 15.288-3.652 29.821-6.885 43.288" style="fill:#039a88"/><path d="M273.837 285.74a354 354 0 0 1-27.603 16.497c15.173 6.286 29.889 11.087 43.584 14.335 3.697-14.413 6.402-30.623 7.843-48.018a360 360 0 0 1-23.824 17.186" style="fill:#83ceca"/><path d="m292.535 321.062-3.573-.849c-14.136-3.353-28.995-8.239-44.157-14.518l-7.289-3.02 6.948-3.734a352 352 0 0 0 27.315-16.325 362 362 0 0 0 23.573-17.006l6.75-5.298-.703 8.55c-1.433 17.306-4.108 33.672-7.948 48.639zm-37.579-19.364c10.986 4.247 21.751 7.716 32.134 10.35 2.66-11.072 4.681-22.903 6.032-35.303a368 368 0 0 1-17.22 12.112 361 361 0 0 1-20.946 12.841" style="fill:#039a88"/><path d="M212.311 192.663a358 358 0 0 1 27.595-16.501c-15.165-6.286-29.882-11.083-43.584-14.327-3.689 14.41-6.395 30.619-7.835 48.018a359 359 0 0 1 23.824-17.19" style="fill:#83ceca"/><path d="m184.05 218.092.703-8.55c1.433-17.294 4.105-33.661 7.94-48.639l.913-3.558 3.573.846c14.151 3.353 29.006 8.236 44.157 14.511l7.278 3.016-6.933 3.738a356 356 0 0 0-27.307 16.329 356 356 0 0 0-23.573 17.01zm15.004-51.737c-2.657 11.079-4.673 22.907-6.024 35.304a366 366 0 0 1 17.22-12.116 365 365 0 0 1 20.95-12.842c-10.986-4.243-21.755-7.712-32.146-10.346" style="fill:#039a88"/><path d="M298.862 239.203c0 10.065-.423 19.88-1.197 29.354 14.091-11.094 26.428-22.6 36.576-33.93-10.503-9.586-22.941-19.143-36.89-28.209a355 355 0 0 1 1.511 32.785" style="fill:#83ceca"/><path d="m293.234 276.804.7-8.554a357 357 0 0 0 1.186-29.047c0-10.851-.505-21.766-1.497-32.441l-.715-7.697 6.481 4.209c13.953 9.066 26.529 18.683 37.373 28.583l2.739 2.499-2.473 2.761c-10.499 11.719-22.967 23.285-37.051 34.376zm8.475-62.989c.595 8.411.894 16.916.894 25.388 0 6.986-.206 14.032-.61 21.044 9.972-8.273 19.001-16.771 26.944-25.354-8.175-7.226-17.297-14.286-27.228-21.078" style="fill:#039a88"/><path d="M187.29 239.203c0-10.058.415-19.88 1.197-29.35-14.091 11.094-26.428 22.608-36.568 33.93 10.496 9.586 22.933 19.135 36.883 28.209a354 354 0 0 1-1.512-32.789" style="fill:#83ceca"/><path d="m193.243 279.345-6.481-4.213c-13.99-9.1-26.566-18.716-37.369-28.583l-2.731-2.499 2.47-2.758c10.511-11.73 22.974-23.296 37.043-34.376l6.75-5.313-.703 8.565a353 353 0 0 0-1.186 29.04c0 10.851.505 21.77 1.497 32.445zm-36.025-35.828c8.15 7.203 17.272 14.267 27.221 21.07a361 361 0 0 1-.894-25.388c0-7.031.206-14.073.606-21.036-9.957 8.266-18.99 16.763-26.933 25.354" style="fill:#039a88"/><path d="M297.35 206.414a354 354 0 0 0-28.325-16.598 357 357 0 0 0-29.115-13.654 359 359 0 0 0-27.595 16.501 359 359 0 0 0-23.824 17.19 357 357 0 0 0-1.197 29.35c0 11.289.535 22.263 1.512 32.793a355.4 355.4 0 0 0 57.432 30.245 356 356 0 0 0 27.603-16.497 362 362 0 0 0 23.824-17.186 360 360 0 0 0 1.197-29.354 355 355 0 0 0-1.512-32.79" style="fill:#83ceca"/><path d="m246.444 306.375-1.639-.681a359 359 0 0 1-29.414-13.796 359 359 0 0 1-28.624-16.767l-1.519-.988-.168-1.804a360 360 0 0 1-1.527-33.137c0-9.949.408-19.925 1.209-29.657l.135-1.628 1.283-1.01a365 365 0 0 1 24.074-17.366 364 364 0 0 1 27.887-16.677l1.564-.846 1.639.681a361 361 0 0 1 29.421 13.8 358 358 0 0 1 28.628 16.774l1.515.988.168 1.8a359 359 0 0 1 1.527 33.133c0 9.856-.408 19.835-1.209 29.657l-.135 1.628-1.283 1.01a369 369 0 0 1-24.074 17.362 360 360 0 0 1-27.895 16.673zm-54.08-36.534a353 353 0 0 0 26.503 15.435 352 352 0 0 0 27.161 12.823 352 352 0 0 0 25.751-15.48 363 363 0 0 0 22.286-15.996 357 357 0 0 0 1.055-27.42c0-10.241-.449-20.535-1.332-30.638a350 350 0 0 0-26.503-15.435 356 356 0 0 0-27.169-12.827 358 358 0 0 0-25.743 15.483 357 357 0 0 0-22.286 16.004 354 354 0 0 0-1.055 27.412c0 10.239.449 20.54 1.332 30.639" style="fill:#039a88"/><circle cx="270.791" cy="118.629" r="16.976" style="fill:#039a88"/><circle cx="152.312" cy="327.778" r="16.976" style="fill:#039a88"/><path d="M300.022 250.833c-9.369 0-16.969 7.599-16.969 16.98 0 9.369 7.6 16.973 16.969 16.973 9.384 0 16.984-7.603 16.984-16.973.003-9.381-7.6-16.98-16.984-16.98" style="fill:#039a88"/></svg>