<?xml version="1.0" encoding="UTF-8"?>
<!--
  - The MIT License (MIT)
  -
  - Copyright (c) 2015-2021 Elior "Mallowigi" Boukhobza
  -
  - Permission is hereby granted, free of charge, to any person obtaining a copy
  - of this software and associated documentation files (the "Software"), to deal
  - in the Software without restriction, including without limitation the rights
  - to use, copy, modify, merge, publish, distribute, sublicense, and/or sell
  - copies of the Software, and to permit persons to whom the Software is
  - furnished to do so, subject to the following conditions:
  -
  - The above copyright notice and this permission notice shall be included in all
  - copies or substantial portions of the Software.
  -
  - THE SOFTWARE IS PROVIDED "AS IS", WITHOUT WARRANTY OF ANY KIND, EXPRESS OR
  - IMPLIED, INCLUDING BUT NOT LIMITED TO THE WARRANTIES OF MERCHANTABILITY,
  - FITNESS FOR A PARTICULAR PURPOSE AND NONINFRINGEMENT. IN NO EVENT SHALL THE
  - AUTHORS OR COPYRIGHT HOLDERS BE LIABLE FOR ANY CLAIM, DAMAGES OR OTHER
  - LIABILITY, WHETHER IN AN ACTION OF CONTRACT, TORT OR OTHERWISE, ARISING FROM,
  - OUT OF OR IN CONNECTION WITH THE SOFTWARE OR THE USE OR OTHER DEALINGS IN THE
  - SOFTWARE.
  -
  -
  -->

<svg xmlns="http://www.w3.org/2000/svg" version="1.1" width="13px" height="13px"
     viewBox="0 0 24 24">
    <path fill="#FFD54F"
          d="M21 6.5C21 8.43 19.43 10 17.5 10S14 8.43 14 6.5 15.57 3 17.5 3 21 4.57 21 6.5M19 11.79C18.5 11.92 18 12 17.5 12C14.47 12 12 9.53 12 6.5C12 5.03 12.58 3.7 13.5 2.71C13.15 2.28 12.61 2 12 2C10.9 2 10 2.9 10 4V4.29C7.03 5.17 5 7.9 5 11V17L3 19V20H21V19L19 17V11.79M12 23C13.11 23 14 22.11 14 21H10C10 22.11 10.9 23 12 23Z" />
</svg>
