<!--
  - The MIT License (MIT)
  -
  - Copyright (c) 2015-2021 Elior "Mallowigi" Boukhobza
  -
  - Permission is hereby granted, free of charge, to any person obtaining a copy
  - of this software and associated documentation files (the "Software"), to deal
  - in the Software without restriction, including without limitation the rights
  - to use, copy, modify, merge, publish, distribute, sublicense, and/or sell
  - copies of the Software, and to permit persons to whom the Software is
  - furnished to do so, subject to the following conditions:
  -
  - The above copyright notice and this permission notice shall be included in all
  - copies or substantial portions of the Software.
  -
  - THE SOFTWARE IS PROVIDED "AS IS", WITHOUT WARRANTY OF ANY KIND, EXPRESS OR
  - IMPLIED, INCLUDING BUT NOT LIMITED TO THE WARRANTIES OF MERCHANTABILITY,
  - FITNESS FOR A PARTICULAR PURPOSE AND NONINFRINGEMENT. IN NO EVENT SHALL THE
  - AUTHORS OR COPYRIGHT HOLDERS BE LIABLE FOR ANY CLAIM, DAMAGES OR OTHER
  - LIABILITY, WHETHER IN AN ACTION OF CONTRACT, TORT OR OTHERWISE, ARISING FROM,
  - OUT OF OR IN CONNECTION WITH THE SOFTWARE OR THE USE OR OTHER DEALINGS IN THE
  - SOFTWARE.
  -
  -
  -->

<svg big="true" xmlns="http://www.w3.org/2000/svg" width="16px" height="16px" viewBox="0 0 16 16">
  <g transform="scale(0.75)">
    <rect width="16" height="16" opacity="0" />
    <g>
      <rect x="1" y="1" width="14" height="14" fill="#323232" />
      <path
        d="M6,10.533s4.847,2.054,5.208,2.177c.221.075.268.063.3.024a5.019,5.019,0,0,0,.589-1.381c-1.43-.781-2.674-1.915-2.674-2.97a.408.408,0,0,1,.12-.18c.375.507,2.96,2.4,3.054,1.838a4.905,4.905,0,0,0-.244-3.136c-.409-.085-2.227-.821-2.371-1.474a.635.635,0,0,1,.065-.392,10.772,10.772,0,0,0,2.967.809c.348-.011.325-.147.353-.416a6.038,6.038,0,0,0-.537-2.34,1.746,1.746,0,0,0-.574-.634c-.947-.7-4.234-1.748-6.233-.6a7.923,7.923,0,0,0,1.944.871A.4.4,0,0,1,7.9,2.9c-.917.254-3.3-.659-3.553-.533A.992.992,0,0,0,3.771,3C3.51,4.166,5.522,5.008,6.522,5.62c0,.024-.017.117-.047.141a9.292,9.292,0,0,1-2.517-.386A16.693,16.693,0,0,1,1,6.375V15H2.048C3.208,13.948,6,10.533,6,10.533Z"
        fill="#ebebeb" />
    </g>
  </g>
  <path fill="#4DD0E1" transform="scale(0.45) translate(10 10)"
        d="M4 2V8H2V2H4M2 22V16H4V22H2M5 12C5 13.11 4.11 14 3 14C1.9 14 1 13.11 1 12C1 10.9 1.9 10 3 10C4.11 10 5 10.9 5 12M16 4C20.42 4 24 7.58 24 12C24 16.42 20.42 20 16 20C12.4 20 9.36 17.62 8.35 14.35L6 12L8.35 9.65C9.36 6.38 12.4 4 16 4M15 13L19.53 15.79L20.33 14.5L16.5 12.2V7H15V13Z" />

</svg>
