<!--
  - The MIT License (MIT)
  -
  - Copyright (c) 2015-2021 Elior "Mallowigi" Boukhobza
  -
  - Permission is hereby granted, free of charge, to any person obtaining a copy
  - of this software and associated documentation files (the "Software"), to deal
  - in the Software without restriction, including without limitation the rights
  - to use, copy, modify, merge, publish, distribute, sublicense, and/or sell
  - copies of the Software, and to permit persons to whom the Software is
  - furnished to do so, subject to the following conditions:
  -
  - The above copyright notice and this permission notice shall be included in all
  - copies or substantial portions of the Software.
  -
  - THE SOFTWARE IS PROVIDED "AS IS", WITHOUT WARRANTY OF ANY KIND, EXPRESS OR
  - IMPLIED, INCLUDING BUT NOT LIMITED TO THE WARRANTIES OF MERCHANTABILITY,
  - FITNESS FOR A PARTICULAR PURPOSE AND NONINFRINGEMENT. IN NO EVENT SHALL THE
  - AUTHORS OR COPYRIGHT HOLDERS BE LIABLE FOR ANY CLAIM, DAMAGES OR OTHER
  - LIABILITY, WHETHER IN AN ACTION OF CONTRACT, TORT OR OTHERWISE, ARISING FROM,
  - OUT OF OR IN CONNECTION WITH THE SOFTWARE OR THE USE OR OTHER DEALINGS IN THE
  - SOFTWARE.
  -
  -
  -->

<!DOCTYPE svg PUBLIC "-//W3C//DTD SVG 1.1//EN"
  "http://www.w3.org/Graphics/SVG/1.1/DTD/svg11.dtd">
<svg xmlns="http://www.w3.org/2000/svg" version="1.1" width="9px" height="9px" fill="#7C4DFF" viewBox="0 0 24 24">
  <path
    d="M19,13.5A1.5,1.5 0 0,1 17.5,12A1.5,1.5 0 0,1 19,10.5A1.5,1.5 0 0,1 20.5,12A1.5,1.5 0 0,1 19,13.5M14,13.5A1.5,1.5 0 0,1 12.5,12A1.5,1.5 0 0,1 14,10.5A1.5,1.5 0 0,1 15.5,12A1.5,1.5 0 0,1 14,13.5M9,13.5A1.5,1.5 0 0,1 7.5,12A1.5,1.5 0 0,1 9,10.5A1.5,1.5 0 0,1 10.5,12A1.5,1.5 0 0,1 9,13.5M22,3H7C6.31,3 5.77,3.35 5.41,3.88L0,12L5.41,20.11C5.77,20.64 6.37,21 7.06,21H22A2,2 0 0,0 24,19V5C24,3.89 23.1,3 22,3Z" />
</svg>
