<svg xmlns="http://www.w3.org/2000/svg" width="16" height="16" data-big="true" viewBox="0 0 24 24"><defs><mask id="a"><path fill="#fff" d="M0 0h24v24H0z"/><circle cx="18" cy="18" r="6"/></mask></defs><path fill="#64B5F6" d="M19 12v1.5c2.21 0 4 1.79 4 4 0 .82-.25 1.58-.67 2.21l-1.09-1.09c.17-.34.26-.72.26-1.12A2.5 2.5 0 0 0 19 15v1.5l-2.25-2.25-.03-.03c.06-.05.13-.09 2.28-2.22m0 11v-1.5c-2.21 0-4-1.79-4-4 0-.82.25-1.58.67-2.21l1.09 1.09c-.17.34-.26.72-.26 1.12A2.5 2.5 0 0 0 19 20v-1.5l2.25 2.25.03.03c-.06.05-.13.09-2.28 2.22m-6-5.5a6.5 6.5 0 0 1 6.5-6.5c1.28 0 2.47.38 3.5 1-.87-1.1-2.16-1.86-3.65-1.97A7.49 7.49 0 0 0 12 4C9.11 4 6.6 5.64 5.35 8.03A6.004 6.004 0 0 0 6 20h7.5c-.32-.77-.5-1.61-.5-2.5" mask="url(#a)"/><path fill="#64B5F6" d="M15 18a3 3 0 0 1 3-3c.5 0 .985.125 1.4.35l.73-.73A3.97 3.97 0 0 0 18 14a4 4 0 0 0-4 4h-1.5l2 2 2-2m5.5 0h1.5l-2-2-2 2H21a3 3 0 0 1-3 3c-.5 0-.985-.125-1.4-.35l-.73.73c.615.39 1.345.62 2.13.62a4 4 0 0 0 4-4"/></svg>