<svg xmlns="http://www.w3.org/2000/svg" width="16" height="16" fill="#C792EA"  viewBox="0 0 24 24"><path fill="#4CAF50" d="M9.5 13 7 15.25v5.5l2.5-2.25zm-6.25 1.5c-.975 0-2.025.2-2.75.75v7.33c0 .125.125.25.25.25.05 0 .075-.035.125-.035.675-.325 1.65-.545 2.375-.545.975 0 2.025.2 2.75.75.675-.425 1.9-.75 2.75-.75.825 0 1.675.155 2.375.53.05.025.075.015.125.015.125 0 .25-.125.25-.25V15.25a3.4 3.4 0 0 0-1-.5v6.75a5.8 5.8 0 0 0-1.75-.25c-.85 0-2.075.325-2.75.75v-6.75c-.725-.55-1.775-.75-2.75-.75"/><path fill="#F44336" d="M22.355 15.52a.5.5 0 0 0 0-.705l-1.17-1.17a.5.5 0 0 0-.705 0l-.92.915 1.875 1.875m-7.935 4.19V22.5h1.875l5.53-5.535-1.875-1.875z"/></svg>