<!--
  - The MIT License (MIT)
  -
  - Copyright (c) 2015-2022 Elior "Mallowigi" Boukhobza
  -
  - Permission is hereby granted, free of charge, to any person obtaining a copy
  - of this software and associated documentation files (the "Software"), to deal
  - in the Software without restriction, including without limitation the rights
  - to use, copy, modify, merge, publish, distribute, sublicense, and/or sell
  - copies of the Software, and to permit persons to whom the Software is
  - furnished to do so, subject to the following conditions:
  -
  - The above copyright notice and this permission notice shall be included in all
  - copies or substantial portions of the Software.
  -
  - THE SOFTWARE IS PROVIDED "AS IS", WITHOUT WARRANTY OF ANY KIND, EXPRESS OR
  - IMPLIED, INCLUDING BUT NOT LIMITED TO THE WARRANTIES OF MERCHANTABILITY,
  - FITNESS FOR A PARTICULAR PURPOSE AND NONINFRINGEMENT. IN NO EVENT SHALL THE
  - AUTHORS OR COPYRIGHT HOLDERS BE LIABLE FOR ANY CLAIM, DAMAGES OR OTHER
  - LIABILITY, WHETHER IN AN ACTION OF CONTRACT, TORT OR OTHERWISE, ARISING FROM,
  - OUT OF OR IN CONNECTION WITH THE SOFTWARE OR THE USE OR OTHER DEALINGS IN THE
  - SOFTWARE.
  -
  -
  -->


<svg xmlns="http://www.w3.org/2000/svg" version="1.1" width="16px" height="16px" viewBox="0 0 24 24"
     fill="#EF5350">
  <g big="true">
      <path
            d="M21,13A9,9 0 0,1 12,22A9,9 0 0,1 3,13L3.03,4.43C5.68,2.88 8.76,2 12.05,2C15.3,2 18.36,2.87 21,4.38V13M13,19.93C16.39,19.44 19,16.5 19,13V5.59C16.9,4.57 14.54,4 12.05,4C9.5,4 7.08,4.6 4.94,5.66L5,13C5,16.5 7.63,19.44 11,19.93V18H13V19.93M11,16H8L6,13L9,14H10L11,13H13L14,14H15L18,13L16,16H13L12,15L11,16M6,9.03C6.64,8.4 7.5,8.05 8.5,8.05C9.45,8.05 10.34,8.4 11,9.03C10.34,9.65 9.45,10 8.5,10C7.5,10 6.64,9.65 6,9.03M13,9.03C13.64,8.4 14.5,8.05 15.5,8.05C16.45,8.05 17.34,8.4 18,9.03C17.34,9.65 16.45,10 15.5,10C14.5,10 13.64,9.65 13,9.03Z" />
  </g>
</svg>
