<svg xmlns="http://www.w3.org/2000/svg" width="16" height="16" fill="#4DB6AC" data-big="true" viewBox="0 0 24 24"><path d="M1.5 3H3v18H1.5zM3 3h3v1.5H3zM3 19.5h3V21H3zM21 3h1.5v18H21z"/><path d="M18 3h4.5v1.5H18zM18 19.5h3V21h-3zM6 15.75v-6H4.5v-1.5h3v7.5zm13.5-1.5a1.5 1.5 0 0 1-1.5 1.5h-3v-1.5h3v-1.5h-1.5v-1.5H18v-1.5h-3v-1.5h3a1.5 1.5 0 0 1 1.5 1.5v1.125A1.125 1.125 0 0 1 18.375 12a1.125 1.125 0 0 1 1.125 1.125zm-6 0v1.5H9v-3a1.5 1.5 0 0 1 1.5-1.5H12v-1.5H9v-1.5h3a1.5 1.5 0 0 1 1.5 1.5v1.5a1.5 1.5 0 0 1-1.5 1.5h-1.5v1.5z"/></svg>