<!--
  - The MIT License (MIT)
  -
  - Copyright (c) 2015-2023 Elior "Mallowigi" Boukhobza
  -
  - Permission is hereby granted, free of charge, to any person obtaining a copy
  - of this software and associated documentation files (the "Software"), to deal
  - in the Software without restriction, including without limitation the rights
  - to use, copy, modify, merge, publish, distribute, sublicense, and/or sell
  - copies of the Software, and to permit persons to whom the Software is
  - furnished to do so, subject to the following conditions:
  -
  - The above copyright notice and this permission notice shall be included in all
  - copies or substantial portions of the Software.
  -
  - THE SOFTWARE IS PROVIDED "AS IS", WITHOUT WARRANTY OF ANY KIND, EXPRESS OR
  - IMPLIED, INCLUDING BUT NOT LIMITED TO THE WARRANTIES OF MERCHANTABILITY,
  - FITNESS FOR A PARTICULAR PURPOSE AND NONINFRINGEMENT. IN NO EVENT SHALL THE
  - AUTHORS OR COPYRIGHT HOLDERS BE LIABLE FOR ANY CLAIM, DAMAGES OR OTHER
  - LIABILITY, WHETHER IN AN ACTION OF CONTRACT, TORT OR OTHERWISE, ARISING FROM,
  - OUT OF OR IN CONNECTION WITH THE SOFTWARE OR THE USE OR OTHER DEALINGS IN THE
  - SOFTWARE.
  -
  -->

<!-- Generator: Adobe Illustrator 26.2.1, SVG Export Plug-In . SVG Version: 6.00 Build 0)  -->
<svg version="1.1" id="_x30_1" xmlns="http://www.w3.org/2000/svg" x="0px"
     y="0px" width="16px" height="16px"
     viewBox="0 0 963 961.4" style="enable-background:new 0 0 963 961.4;" xml:space="preserve">
    <g fill="#69D3A7" iconColor="Cypress">
    <path d="M340.4,382.8c38.4,0,69.6,20.5,85.6,56.1l1.2,2.8l64.4-21.9l-1.3-3.3c-24.9-60.8-82.4-98.5-149.9-98.5
c-47.5,0-86.1,15.2-118,46.5c-31.7,31.1-47.7,70.2-47.7,116.2c0,45.7,16.1,84.6,47.7,115.6c31.9,31.3,70.5,46.5,118,46.5
c67.5,0,124.9-37.8,149.9-98.5l1.3-3.3l-64.5-21.9L426,522c-14.4,35.1-46.4,56-85.6,56c-26.7,0-49.3-9.3-67.1-27.7
c-18.1-18.6-27.2-42.1-27.2-69.6c0-27.7,8.9-50.7,27.2-70.2C291.2,392.1,313.7,382.8,340.4,382.8z"/>
        <path d="M620,934.4l-19.2-63.3C774,818.5,890.4,661.6,890.4,480.7c0-49.9-8.9-98.7-26.5-144.9l61.8-23.5
c20.5,53.8,30.9,110.4,30.9,168.5C956.5,690.9,821.3,873.2,620,934.4z"/>
        <path d="M872.5,361.1c-52.9-172.6-210-288.5-391-288.5c-24.6,0-49.2,2.2-73.2,6.5L396.6,14c27.8-5,56.4-7.6,84.9-7.6
c210.2,0,392.7,134.7,454.2,335.2L872.5,361.1z"/>
        <path d="M36.9,647.9
C16.7,594.5,6.5,538.2,6.5,480.7c0-245,183.9-447.9,427.8-471.9l6.5,65.8C230.9,95.3,72.6,269.9,72.6,480.7
c0,49.5,8.8,98,26.1,143.9L36.9,647.9z"/>
        <polygon points="743.7,324 652,556.4 559.6,324 484,324 613.6,641.2 519.2,870.2 585.3,883.4 815.1,324 "/>
        <path d="M531.1,841.4l-13.9,33.7
c-3.2,7.7-10.5,13-18.7,13.3c-5.7,0.2-11.3,0.4-17.1,0.4c-181.5,0-343.1-121.5-393-295.5l-63.6,18.2
c58,202.1,245.7,343.3,456.5,343.4c0,0,0,0,0,0c0,0,0.1,0,0.1,0v0c6.6,0,13.2-0.1,19.8-0.4c33.9-1.4,64.2-22.7,77.2-54.2l18.8-45.7
L531.1,841.4z"/>
    </g>
</svg>
