<!--
  - The MIT License (MIT)
  -
  - Copyright (c) 2015-2024 Elior "Mallowigi" Boukhobza
  -
  - Permission is hereby granted, free of charge, to any person obtaining a copy
  - of this software and associated documentation files (the "Software"), to deal
  - in the Software without restriction, including without limitation the rights
  - to use, copy, modify, merge, publish, distribute, sublicense, and/or sell
  - copies of the Software, and to permit persons to whom the Software is
  - furnished to do so, subject to the following conditions:
  -
  - The above copyright notice and this permission notice shall be included in all
  - copies or substantial portions of the Software.
  -
  - THE SOFTWARE IS PROVIDED "AS IS", WITHOUT WARRANTY OF ANY KIND, EXPRESS OR
  - IMPLIED, INCLUDING BUT NOT LIMITED TO THE WARRANTIES OF MERCHANTABILITY,
  - FITNESS FOR A PARTICULAR PURPOSE AND NONINFRINGEMENT. IN NO EVENT SHALL THE
  - AUTHORS OR COPYRIGHT HOLDERS BE LIABLE FOR ANY CLAIM, DAMAGES OR OTHER
  - LIABILITY, WHETHER IN AN ACTION OF CONTRACT, TORT OR OTHERWISE, ARISING FROM,
  - OUT OF OR IN CONNECTION WITH THE SOFTWARE OR THE USE OR OTHER DEALINGS IN THE
  - SOFTWARE.
  -->

<svg xmlns="http://www.w3.org/2000/svg" width="14px" height="14px" fill="#64B5F6" viewBox="0 0 24 24">
  <path
    d="M11 5H8l4-4 4 4h-3v4.43c-.75.46-1.42 1.03-2 1.69zm11 6-4-4v3a6.747 6.747 0 0 0-7 6.17A3.006 3.006 0 0 0 9.17 20 3.006 3.006 0 0 0 13 21.83 3.01 3.01 0 0 0 14.83 18c-.3-.86-.98-1.53-1.83-1.83.47-4 4.47-4.2 4.95-4.2v3zm-11.37.59A7.63 7.63 0 0 0 6 10V7l-4 4 4 4v-3c1.34.03 2.63.5 3.64 1.4.25-.64.58-1.25.99-1.81"/>
</svg>
