<svg xmlns="http://www.w3.org/2000/svg" width="16" height="16" ><path fill="#1976d2" d="M4.98 8.5H3.677L1.22 6l2.455-2.5H4.98l.655-1.13L9.03 1.5l.935 3.37L9.31 6l.655 1.13-.935 3.37-3.395-.87zm.07-.125 2.565.69L6.136 6.5h-2.96zm3.435.19L9.176 6l-.69-2.565L7 6zM5.05 3.625 3.176 5.5h2.96l1.48-2.565z"/><path fill="#4DD0E1" d="M6.3 5.4v2.7h-.9V5.4zm-.9 9v-2.7h.9v2.7zm1.35-4.5a.9.9 0 1 1-1.8 0 .9.9 0 0 1 1.8 0m4.95-3.6c1.989 0 3.6 1.611 3.6 3.6s-1.611 3.6-3.6 3.6a3.61 3.61 0 0 1-3.442-2.543L7.2 9.9l1.058-1.057A3.61 3.61 0 0 1 11.7 6.3m-.45 4.05 2.039 1.255.36-.58-1.724-1.035V7.65h-.675z"/></svg>