<svg xmlns="http://www.w3.org/2000/svg" width="16" height="16"  viewBox="0 -1 16 16"><path fill="#1E9CEF" d="M7.511 1.479S8.1-.3 8.637.045A9 9 0 0 1 9.4 1.488a1.23 1.23 0 0 1 .711-.234 5.8 5.8 0 0 1-1.033 5.771 4.57 4.57 0 0 1 1.436 4.55c1.378 0 2.087-1.342 3.845-1.425a.541.541 0 0 1 .234 1.055c-1.222.173-2.427 1.538-4.89 2.232-.318.484-2.216.43-3.71.564-1.581.017-1.173-1.216-.6-1.425a5 5 0 0 1-.459-.383C4.536 14.3 3.457 13.658 2.8 13.477c-.509-.271.036-.906.036-.906-.5.213-.886-.725-.828-1.646a2.7 2.7 0 0 1 .873-1.447 4.25 4.25 0 0 1 1.906-4.032 2.02 2.02 0 0 1-.314-2.629c.985-.274 1.176-1.443 3.038-1.338" class="i-color"/></svg>