<svg xmlns="http://www.w3.org/2000/svg" xml:space="preserve" width="16" height="16" fill-rule="evenodd" stroke-linejoin="round" stroke-miterlimit="1.414" clip-rule="evenodd"  viewBox="0 0 24 24"><path fill="#BC3F43" fill-rule="nonzero" d="M10 4H4c-1.11 0-2 .89-2 2v12c0 1.097.903 2 2 2h16c1.097 0 2-.903 2-2V8a2 2 0 0 0-2-2h-8z"/><path fill="#EC6E6E" d="M18.92 11.61c-.12.179-.054 1.512 0 1.72s.099.386.43.43c.403.054.087.33 0 .43q-.087.1-3.87 4.73-3.702-.168-3.87 0c-.168.168-.296.263-.43.43q-.134.167 0 3.44v.43h.86V21.5h.86v1.72h.86V21.5h.86v1.72h.86V21.5h.86v1.72h.86V21.5h.86v1.72h.86V21.5h.86v1.72h.86V21.5h.86v1.72h.86q.167-2.715 0-3.87c-.03-.212-.267-.292-.43-.43q-.163-.138-4.73 0 3.87-5.22 4.3-5.16c.53.074 1.1.077 1.29 0s.31-.251.43-.43.343-1.29 0-1.72-.263-.296-.43-.43-3.044-.208-3.44 0-.31.251-.43.43"/></svg>