<svg xmlns="http://www.w3.org/2000/svg" width="16" height="16" fill="#80cbc4" data-big="true" viewBox="0.344 0.198 31.58 31.302"><mask id="a" width="400%" height="400%" x="-200%" y="-200%"><rect width="400%" height="400%" x="-200%" y="-200%" fill="#fff"/><path d="M22 4c.765-.558 5.093-.251 6 0s.899 1.487 0 2-5.231.207-6 0-.765-1.442 0-2"/></mask><g mask="url(#a)"><path d="M20 3c-.277.416-.125 3.516 0 4s.23.897 1 1c.938.125.203.766 0 1q-.203.234-9 11-8.61-.39-9 0c-.39.39-.689.611-1 1q-.311.389 0 8v1h2v-4h2v4h2v-4h2v4h2v-4h2v4h2v-4h2v4h2v-4h2v4h2v-4h2v4h2q.388-6.315 0-9c-.071-.493-.62-.679-1-1q-.38-.321-11 0Q25.002 7.861 26 8c1.234.172 2.558.179 3 0s.723-.584 1-1 .797-3 0-4-.611-.689-1-1-7.078-.484-8 0-.723.584-1 1"/></g></svg>