<svg xmlns="http://www.w3.org/2000/svg" xml:space="preserve" width="16" height="16" fill="#9CCC65"
     viewBox="0 0 494.575 494.575"><path d="M487.428 452.934 292.366 257.873c46.654-63.372 41.5-153.181-15.799-210.485-63.187-63.183-165.996-63.183-229.179 0s-63.183 165.992 0 229.175c57.311 57.311 147.119 62.459 210.488 15.812L452.933 487.43c9.521 9.527 24.967 9.527 34.495 0 9.528-9.529 9.528-24.98 0-34.496M242.072 242.07c-44.163 44.156-116.022 44.156-160.191 0-44.165-44.162-44.165-116.025 0-160.185 44.168-44.165 116.028-44.165 160.191 0 44.159 44.16 44.159 116.023 0 160.185m-121.186-47.38h6.511v16.189H94.072V194.69h7.74v-69.449l-10.894 8.595-4.261-16.778 18.751-13.399h15.478zm55.612 3.588c0 7.338-5.139 12.602-12.214 12.602-6.872 0-12.052-5.378-12.052-12.516 0-7.335 5.139-12.667 12.22-12.667 6.888-.001 11.839 5.175 12.046 12.581m0-54.019c0 7.335-5.139 12.602-12.214 12.602-6.872 0-12.052-5.382-12.052-12.517 0-7.344 5.139-12.669 12.22-12.669 6.888-.006 11.839 5.169 12.046 12.584m61.814 50.431v16.189h-33.325V194.69h7.093v-69.449l-10.903 8.595-4.258-16.778 18.749-13.399h15.478v91.032h7.166z"/></svg>