<svg xmlns="http://www.w3.org/2000/svg" width="38" height="15" fill="none"><defs><mask id="a"><rect width="36" height="13" x="1" y="1" fill="#fff" rx="2"/><path fill="#000" d="M6.413 11H5.25l2.617-7.273h1.268L11.75 11h-1.165L8.53 5.048h-.057zm.196-2.848h3.778v.923H6.61zm7.169-4.425V11h-1.062V3.727zm1.428 9.319v-7.5h1.037v.884h.089q.092-.17.266-.394.174-.225.483-.391.309-.17.817-.17.66 0 1.179.333.517.335.813.963.298.628.298 1.512 0 .885-.294 1.517a2.3 2.3 0 0 1-.81.97 2.1 2.1 0 0 1-1.176.337q-.496 0-.813-.167a1.5 1.5 0 0 1-.49-.391 3 3 0 0 1-.273-.398h-.064v2.895zm1.04-4.773q0 .575.167 1.008.168.434.483.679.317.24.774.241.477 0 .796-.252.32-.255.483-.693a2.7 2.7 0 0 0 .167-.983q0-.54-.164-.97a1.5 1.5 0 0 0-.483-.678q-.32-.249-.799-.249-.461 0-.78.238-.317.238-.48.664a2.8 2.8 0 0 0-.164.995m6.194-.512V11h-1.062V3.727h1.047v2.706h.068q.192-.44.586-.7.394-.258 1.03-.259a2 2 0 0 1 .98.231q.423.231.653.69.235.453.235 1.136V11h-1.062V7.658q0-.6-.31-.93-.308-.334-.859-.334-.375 0-.674.16a1.15 1.15 0 0 0-.465.469q-.167.305-.167.738m6.54 3.36q-.517 0-.937-.192-.418-.195-.664-.565-.24-.37-.241-.905 0-.462.177-.76a1.3 1.3 0 0 1 .48-.472q.302-.174.674-.263t.76-.135l.796-.092q.305-.04.444-.125.138-.085.138-.277V7.31q0-.465-.262-.72-.26-.256-.775-.256-.536 0-.845.238-.306.234-.422.522l-.998-.228a1.9 1.9 0 0 1 .518-.802q.345-.309.792-.448.447-.142.941-.142.327 0 .693.079.369.075.689.277.322.201.529.578.206.373.206.97V11h-1.037v-.746h-.043a1.5 1.5 0 0 1-.309.405 1.6 1.6 0 0 1-.529.33 2.1 2.1 0 0 1-.774.132m.232-.853q.44 0 .753-.174.315-.174.479-.454.167-.285.167-.607V8.33a.55.55 0 0 1-.22.106q-.16.046-.366.082l-.401.06q-.196.024-.327.043-.309.04-.565.131a1 1 0 0 0-.405.266.67.67 0 0 0-.149.455q0 .394.291.597.292.198.743.198"/></mask></defs><g mask="url(#a)"><rect width="36" height="13" x="1" y="1" fill="#FF8A65" rx="2"/><path fill="#fff" d="M6.413 11H5.25l2.617-7.273h1.268L11.75 11h-1.165L8.53 5.048h-.057zm.196-2.848h3.778v.923H6.61zm7.169-4.425V11h-1.062V3.727zm1.428 9.319v-7.5h1.037v.884h.089q.092-.17.266-.394.174-.225.483-.391.309-.17.817-.17.66 0 1.179.333.517.335.813.963.298.628.298 1.512 0 .885-.294 1.517a2.3 2.3 0 0 1-.81.97 2.1 2.1 0 0 1-1.176.337q-.496 0-.813-.167a1.5 1.5 0 0 1-.49-.391 3 3 0 0 1-.273-.398h-.064v2.895zm1.04-4.773q0 .575.167 1.008.168.434.483.679.317.24.774.241.477 0 .796-.252.32-.255.483-.693a2.7 2.7 0 0 0 .167-.983q0-.54-.164-.97a1.5 1.5 0 0 0-.483-.678q-.32-.249-.799-.249-.461 0-.78.238-.317.238-.48.664a2.8 2.8 0 0 0-.164.995m6.194-.512V11h-1.062V3.727h1.047v2.706h.068q.192-.44.586-.7.394-.258 1.03-.259a2 2 0 0 1 .98.231q.423.231.653.69.235.453.235 1.136V11h-1.062V7.658q0-.6-.31-.93-.308-.334-.859-.334-.375 0-.674.16a1.15 1.15 0 0 0-.465.469q-.167.305-.167.738m6.54 3.36q-.517 0-.937-.192-.418-.195-.664-.565-.24-.37-.241-.905 0-.462.177-.76a1.3 1.3 0 0 1 .48-.472q.302-.174.674-.263t.76-.135l.796-.092q.305-.04.444-.125.138-.085.138-.277V7.31q0-.465-.262-.72-.26-.256-.775-.256-.536 0-.845.238-.306.234-.422.522l-.998-.228a1.9 1.9 0 0 1 .518-.802q.345-.309.792-.448.447-.142.941-.142.327 0 .693.079.369.075.689.277.322.201.529.578.206.373.206.97V11h-1.037v-.746h-.043a1.5 1.5 0 0 1-.309.405 1.6 1.6 0 0 1-.529.33 2.1 2.1 0 0 1-.774.132m.232-.853q.44 0 .753-.174.315-.174.479-.454.167-.285.167-.607V8.33a.55.55 0 0 1-.22.106q-.16.046-.366.082l-.401.06q-.196.024-.327.043-.309.04-.565.131a1 1 0 0 0-.405.266.67.67 0 0 0-.149.455q0 .394.291.597.292.198.743.198"/></g></svg>