<svg xmlns="http://www.w3.org/2000/svg" width="32" height="15" fill="none"><defs><mask id="a"><path fill="#fff" d="M0 0h256v256H0z"/><path fill="#000" d="M5.884 11h2.895c1.504 0 2.408-.752 2.408-1.987v-.01c0-.918-.635-1.592-1.587-1.694v-.083c.693-.118 1.235-.777 1.235-1.51v-.009c0-1.08-.796-1.753-2.12-1.753H5.885zm2.578-6.152c.81 0 1.284.385 1.284 1.05v.01c0 .683-.503 1.044-1.47 1.044H6.978V4.848zm.034 2.94c1.03 0 1.572.39 1.572 1.147v.01c0 .756-.522 1.161-1.508 1.161H6.978V7.787zm6.201 3.314c1.358 0 2.09-.78 2.266-1.479l.01-.044-1.02.005-.02.039c-.127.273-.533.61-1.211.61-.874 0-1.431-.59-1.45-1.606h3.76v-.371c0-1.592-.909-2.661-2.388-2.661-1.48 0-2.437 1.108-2.437 2.763v.005c0 1.68.938 2.74 2.49 2.74m-.049-4.638c.718 0 1.25.459 1.333 1.406h-2.695c.093-.913.64-1.406 1.362-1.406m5.645 4.57c.205 0 .4-.024.571-.054v-.844a4 4 0 0 1-.4.02c-.523 0-.737-.235-.737-.806V6.532h1.137v-.835h-1.137V4.36h-1.08v1.338h-.83v.835h.83v3.072c0 1.02.479 1.43 1.646 1.43m3.262.054c.703 0 1.26-.303 1.572-.84h.083V11h1.05V7.372c0-1.113-.752-1.777-2.085-1.777-1.206 0-2.041.58-2.168 1.45l-.005.034h1.02l.005-.02c.127-.375.513-.59 1.099-.59.718 0 1.084.322 1.084.903v.469l-1.436.083c-1.264.078-1.977.63-1.977 1.577v.01c0 .962.747 1.577 1.758 1.577m-.703-1.621v-.01c0-.478.332-.742 1.064-.786l1.294-.083v.454c0 .684-.581 1.201-1.372 1.201-.571 0-.986-.288-.986-.776"/></mask></defs><g mask="url('#a')"><rect width="32" height="15" data-tint="true" rx="7.5"/><path fill="#231F20" d="M5.884 11h2.895c1.504 0 2.408-.752 2.408-1.987v-.01c0-.918-.635-1.592-1.587-1.694v-.083c.693-.118 1.235-.777 1.235-1.51v-.009c0-1.08-.796-1.753-2.12-1.753H5.885zm2.578-6.152c.81 0 1.284.385 1.284 1.05v.01c0 .683-.503 1.044-1.47 1.044H6.978V4.848zm.034 2.94c1.03 0 1.572.39 1.572 1.147v.01c0 .756-.522 1.161-1.508 1.161H6.978V7.787zm6.201 3.314c1.358 0 2.09-.78 2.266-1.479l.01-.044-1.02.005-.02.039c-.127.273-.533.61-1.211.61-.874 0-1.431-.59-1.45-1.606h3.76v-.371c0-1.592-.909-2.661-2.388-2.661-1.48 0-2.437 1.108-2.437 2.763v.005c0 1.68.938 2.74 2.49 2.74m-.049-4.638c.718 0 1.25.459 1.333 1.406h-2.695c.093-.913.64-1.406 1.362-1.406m5.645 4.57c.205 0 .4-.024.571-.054v-.844a4 4 0 0 1-.4.02c-.523 0-.737-.235-.737-.806V6.532h1.137v-.835h-1.137V4.36h-1.08v1.338h-.83v.835h.83v3.072c0 1.02.479 1.43 1.646 1.43m3.262.054c.703 0 1.26-.303 1.572-.84h.083V11h1.05V7.372c0-1.113-.752-1.777-2.085-1.777-1.206 0-2.041.58-2.168 1.45l-.005.034h1.02l.005-.02c.127-.375.513-.59 1.099-.59.718 0 1.084.322 1.084.903v.469l-1.436.083c-1.264.078-1.977.63-1.977 1.577v.01c0 .962.747 1.577 1.758 1.577m-.703-1.621v-.01c0-.478.332-.742 1.064-.786l1.294-.083v.454c0 .684-.581 1.201-1.372 1.201-.571 0-.986-.288-.986-.776"/></g></svg>