<svg xmlns="http://www.w3.org/2000/svg" xml:space="preserve" width="32" height="32" viewBox="0 0 512 512"><path fill="#8BC34A" d="M286 346c-7.383 0-14.473 2.725-19.995 7.661a14.98 14.98 0 0 1-16.128 2.52A15 15 0 0 1 241 342.484V271h-46.904A59.8 59.8 0 0 1 196 286c0 33.091-26.909 60-60 60s-60-26.909-60-60c0-5.098.645-10.137 1.904-15H15c-8.284 0-15 6.716-15 15v181c0 24.853 21.147 45 46 45h195V409.34c.104-8.681 7.498-14.795 13.989-14.795 0 0 5.964-.751 11.03 3.809A29.94 29.94 0 0 0 286 406c16.538 0 30-13.462 30-30s-13.462-30-30-30"/><path fill="#EF5350" d="M467 0H286c-8.284 0-15 6.716-15 15v87.455a15 15 0 0 1-8.877 13.696 15.02 15.02 0 0 1-16.128-2.52A29.93 29.93 0 0 0 226 106c-16.538 0-30 13.462-30 30s13.462 30 30 30c7.397 0 14.502-2.71 19.995-7.632 4.453-3.94 10.767-4.922 16.128-2.52A15 15 0 0 1 271 169.544V241h46.904A59.8 59.8 0 0 1 316 226c0-33.091 26.909-60 60-60s60 26.909 60 60c0 5.098-.645 10.137-1.904 15H512V46c0-24.853-20.147-46-45-46"/><path fill="#FFEE58" d="M409.516 271a14.997 14.997 0 0 1-11.177-25.005C403.275 240.473 406 233.383 406 226c0-16.538-13.462-30-30-30s-30 13.462-30 30c0 7.383 2.725 14.473 7.661 19.995A14.997 14.997 0 0 1 342.484 271H271v46.904A59.8 59.8 0 0 1 286 316c33.091 0 60 26.909 60 60s-26.909 60-60 60a59.8 59.8 0 0 1-15-1.904V512h196c24.853 0 45-20.147 45-45V271z"/></svg>