<!--
  - The MIT License (MIT)
  -
  - Copyright (c) 2015-2024 Elior "Mallowigi" Boukhobza
  -
  - Permission is hereby granted, free of charge, to any person obtaining a copy
  - of this software and associated documentation files (the "Software"), to deal
  - in the Software without restriction, including without limitation the rights
  - to use, copy, modify, merge, publish, distribute, sublicense, and/or sell
  - copies of the Software, and to permit persons to whom the Software is
  - furnished to do so, subject to the following conditions:
  -
  - The above copyright notice and this permission notice shall be included in all
  - copies or substantial portions of the Software.
  -
  - THE SOFTWARE IS PROVIDED "AS IS", WITHOUT WARRANTY OF ANY KIND, EXPRESS OR
  - IMPLIED, INCLUDING BUT NOT LIMITED TO THE WARRANTIES OF MERCHANTABILITY,
  - FITNESS FOR A PARTICULAR PURPOSE AND NONINFRINGEMENT. IN NO EVENT SHALL THE
  - AUTHORS OR COPYRIGHT HOLDERS BE LIABLE FOR ANY CLAIM, DAMAGES OR OTHER
  - LIABILITY, WHETHER IN AN ACTION OF CONTRACT, TORT OR OTHERWISE, ARISING FROM,
  - OUT OF OR IN CONNECTION WITH THE SOFTWARE OR THE USE OR OTHER DEALINGS IN THE
  - SOFTWARE.
  -->

<svg width="16px" height="16px" viewBox="0 0 16 16" fill="#6B57FF" xmlns="http://www.w3.org/2000/svg" >
  <g>
    <path
      d="M15.934 6.16601C15.712 8.46601 15.158 10.934 13.884 12.832C13.5873 13.2318 13.2611 13.6089 12.908 13.96C12.268 14.6177 11.5005 15.1379 10.6524 15.4887C9.80439 15.8394 8.89367 16.0134 7.97604 16C5.9032 15.985 3.91598 15.1712 2.42804 13.728C-0.599962 10.82 -0.827962 6.18401 1.91204 3.37801C2.4839 2.80294 3.13928 2.31747 3.85604 1.93801C3.5099 2.54144 3.29011 3.20897 3.21004 3.90001C3.1158 4.70445 3.18542 5.51965 3.41468 6.29647C3.64395 7.07328 4.02811 7.79564 4.54404 8.42001C5.14014 9.08847 5.87342 9.6205 6.69384 9.9798C7.51426 10.3391 8.40252 10.5172 9.29804 10.502C10.7836 10.5023 12.2297 10.024 13.422 9.13801C13.7154 8.91572 13.9934 8.67383 14.254 8.41401C14.9154 7.74603 15.4808 6.98948 15.934 6.16601ZM12.244 7.58601C12.4657 7.41866 12.6755 7.23623 12.872 7.04001C14.738 5.18601 15.438 2.35601 15.89 0.580009C15.914 0.488009 15.978 0.180009 16 0.088009C15.0632 0.00371822 14.1223 -0.0256654 13.182 9.00775e-06H13.01C11.9448 0.0193305 10.8816 0.101473 9.82604 0.246009C8.40004 0.526009 7.73204 0.826009 7.04004 1.27401C6.38804 1.69601 5.28004 2.81401 5.15404 4.11601C5.08797 4.65546 5.13131 5.20269 5.28148 5.72501C5.43165 6.24733 5.68556 6.73402 6.02804 7.15601C7.46604 8.82201 10.288 9.05401 12.244 7.58601Z"
    />
  </g>
</svg>
