<svg xmlns="http://www.w3.org/2000/svg" width="16" height="16" data-big="true" viewBox="0 -1 16 16"><path fill="#E87537" d="M15.933 7.142c-.106-.119-1.571-1.96-1.829-2.273a.456.456 0 0 0-.543-.233c-.159.023-2.013.336-2.228.372s-.351.123-.219.309l1.605 2.281-4.844 1.166L4.021 2.3a.457.457 0 0 0-.534-.292c-.349.014-3.023.236-3.213.253s-.4.1-.209.552 3.227 7.018 3.311 7.209a.65.65 0 0 0 .82.377c.528-.127 2.359-.607 3.359-.87.528.961 1.607 2.909 1.806 3.189.266.373.449.311.858.187.319-.1 4.992-1.784 5.2-1.87s.34-.149.2-.361c-.1-.155-1.337-1.813-1.983-2.68l2.182-.584c.2-.053.222-.149.116-.269ZM7.124 8.95c-.058.012-2.772.665-2.917.7s-.145.016-.161-.033S.819 2.92.775 2.837s-.042-.149 0-.149 2.563-.227 2.652-.231.08.014.112.071L7.157 8.8c.063.1.025.137-.033.149Zm7.652 1.439c.043.068.086.112-.05.161s-4.593 1.559-4.68 1.6-.155.05-.266-.112-1.561-2.68-1.561-2.68l4.724-1.238c.117-.037.155-.062.229.056s1.56 2.143 1.6 2.212Zm.3-3.366c-.106.023-1.841.455-1.841.455l-1.416-1.954c-.04-.056-.073-.113.026-.126s1.711-.306 1.784-.322a.175.175 0 0 1 .225.087c.089.122 1.316 1.68 1.362 1.737s-.033.1-.139.119Z" class="i-color"/></svg>