<svg clip-rule="evenodd" fill-rule="evenodd" stroke-linejoin="round"
     stroke-miterlimit="1.4142" version="1.1" width="16px" height="16px"
     viewBox="0 0 24 24" xml:space="preserve" xmlns="http://www.w3.org/2000/svg">

    <path d="m10 4h-6c-1.11 0-2 .89-2 2v12c0 1.097.903 2 2 2h16c1.097 0 2-.903 2-2v-10c0-1.11-.9-2-2-2h-8l-2-2z"
          fill="#b3e5fc" fill-rule="nonzero" style="fill:#b3e5fc"/>
    <path d="M23.6 11.2v7.792l-3.2 2.624-4.96-1.808V21.6L12.632 17.928l8.184.64V11.552Zm-2.728.392L16.28 8.8V10.632L12.064 11.872 10.8 13.496v3.688l1.808.8V13.256Z"
          fill="#0077db" stroke="#98c6ff" stroke-width=".20"/>
</svg>
