<!--
  - The MIT License (MIT)
  -
  - Copyright (c) 2015-2021 Elior "Mallowigi" Boukhobza
  -
  - Permission is hereby granted, free of charge, to any person obtaining a copy
  - of this software and associated documentation files (the "Software"), to deal
  - in the Software without restriction, including without limitation the rights
  - to use, copy, modify, merge, publish, distribute, sublicense, and/or sell
  - copies of the Software, and to permit persons to whom the Software is
  - furnished to do so, subject to the following conditions:
  -
  - The above copyright notice and this permission notice shall be included in all
  - copies or substantial portions of the Software.
  -
  - THE SOFTWARE IS PROVIDED "AS IS", WITHOUT WARRANTY OF ANY KIND, EXPRESS OR
  - IMPLIED, INCLUDING BUT NOT LIMITED TO THE WARRANTIES OF MERCHANTABILITY,
  - FITNESS FOR A PARTICULAR PURPOSE AND NONINFRINGEMENT. IN NO EVENT SHALL THE
  - AUTHORS OR COPYRIGHT HOLDERS BE LIABLE FOR ANY CLAIM, DAMAGES OR OTHER
  - LIABILITY, WHETHER IN AN ACTION OF CONTRACT, TORT OR OTHERWISE, ARISING FROM,
  - OUT OF OR IN CONNECTION WITH THE SOFTWARE OR THE USE OR OTHER DEALINGS IN THE
  - SOFTWARE.
  -
  -
  -->

<svg xmlns="http://www.w3.org/2000/svg" width="64px" height="64px" viewBox="0 0 508 508">
    <circle cx="254" cy="254" r="254" fill="#90dfaa"/>
    <path d="M296.4 114.8H328v94.8h-31.6zm-116.4 0h31.6v94.8H180z" fill="#324a5e"/>
    <path d="M328 118V88.8c0-8.8-7.2-15.6-15.6-15.6-8.8 0-15.6 7.2-15.6 15.6V118H328zm-116.4 0V88.8c0-8.8-7.2-15.6-15.6-15.6-8.8 0-15.6 7.2-15.6 15.6V118h31.2z"
          fill="#fff"/>
    <path fill="#e6e9ee" d="M148.8 209.2h210.8V370H148.8z"/>
    <path fill="#ced5e0" d="M359.2 370H148.8l80 62.8h50z"/>
    <path d="M360 222.8H148c-7.6 0-13.6-6-13.6-13.6s6-13.6 13.6-13.6h212c7.6 0 13.6 6 13.6 13.6s-6 13.6-13.6 13.6z"
          fill="#fff"/>
    <path d="M279.2 432.8v74c-8 .8-16.4 1.2-24.8 1.2s-16.8-.4-25.2-1.2v-73.6h50v-.4z" fill="#324a5e"/>
    <path d="M322.4 250.8H185.6c-3.2 0-5.6-2.4-5.6-5.6 0-3.2 2.4-5.6 5.6-5.6h137.2c3.2 0 5.6 2.4 5.6 5.6-.4 3.2-2.8 5.6-6 5.6zm0 19.2H185.6c-3.2 0-5.6-2.4-5.6-5.6 0-3.2 2.4-5.6 5.6-5.6h137.2c3.2 0 5.6 2.4 5.6 5.6-.4 3.2-2.8 5.6-6 5.6zm0 19.2H185.6c-3.2 0-5.6-2.4-5.6-5.6 0-3.2 2.4-5.6 5.6-5.6h137.2c3.2 0 5.6 2.4 5.6 5.6-.4 2.8-2.8 5.6-6 5.6z"
          fill="#ced5e0"/>
    <circle cx="254" cy="326.8" r="22.8" fill="#324a5e"/>
</svg>
