<!--
  - The MIT License (MIT)
  -
  - Copyright (c) 2015-2021 Elior "Mallowigi" Boukhobza
  -
  - Permission is hereby granted, free of charge, to any person obtaining a copy
  - of this software and associated documentation files (the "Software"), to deal
  - in the Software without restriction, including without limitation the rights
  - to use, copy, modify, merge, publish, distribute, sublicense, and/or sell
  - copies of the Software, and to permit persons to whom the Software is
  - furnished to do so, subject to the following conditions:
  -
  - The above copyright notice and this permission notice shall be included in all
  - copies or substantial portions of the Software.
  -
  - THE SOFTWARE IS PROVIDED "AS IS", WITHOUT WARRANTY OF ANY KIND, EXPRESS OR
  - IMPLIED, INCLUDING BUT NOT LIMITED TO THE WARRANTIES OF MERCHANTABILITY,
  - FITNESS FOR A PARTICULAR PURPOSE AND NONINFRINGEMENT. IN NO EVENT SHALL THE
  - AUTHORS OR COPYRIGHT HOLDERS BE LIABLE FOR ANY CLAIM, DAMAGES OR OTHER
  - LIABILITY, WHETHER IN AN ACTION OF CONTRACT, TORT OR OTHERWISE, ARISING FROM,
  - OUT OF OR IN CONNECTION WITH THE SOFTWARE OR THE USE OR OTHER DEALINGS IN THE
  - SOFTWARE.
  -
  -
  -->

<svg xmlns="http://www.w3.org/2000/svg" width="64px" height="64px" viewBox="0 0 51 51">
    <path fill="#694f87" d="M25.5 29L9.7 19.973.044 25.456 25.5 40l25.456-14.544-9.656-5.483z"/>
    <path fill="#556080" d="M25.5 40L9.7 30.973.044 36.456 25.5 51l25.456-14.544-9.656-5.483z"/>
    <g fill="#bf4d90">
        <circle cx="40.044" cy="21" r="1"/>
        <circle cx="43.044" cy="24" r="1"/>
        <circle cx="10.044" cy="21" r="1"/>
        <circle cx="37.044" cy="24" r="1"/>
        <circle cx="7.044" cy="24" r="1"/>
        <circle cx="13.044" cy="24" r="1"/>
        <circle cx="10.044" cy="27" r="1"/>
        <circle cx="16.044" cy="27" r="1"/>
        <circle cx="16.044" cy="33" r="1"/>
        <circle cx="13.044" cy="30" r="1"/>
        <circle cx="19.044" cy="30" r="1"/>
        <circle cx="22.044" cy="33" r="1"/>
        <circle cx="28.044" cy="33" r="1"/>
        <circle cx="25.044" cy="30" r="1"/>
        <circle cx="31.044" cy="30" r="1"/>
        <circle cx="25.044" cy="36" r="1"/>
        <circle cx="34.044" cy="27" r="1"/>
        <circle cx="40.044" cy="27" r="1"/>
        <circle cx="34.044" cy="33" r="1"/>
        <circle cx="37.044" cy="30" r="1"/>
        <circle cx="46.044" cy="27" r="1"/>
    </g>
    <path fill="#bf4d90" d="M50.956 14.456L25.5 29 .044 14.456 25.5 0z"/>
</svg>
