<?xml version="1.0" encoding="UTF-8"?><!DOCTYPE svg PUBLIC "-//W3C//DTD SVG 1.1//EN"
        "http://www.w3.org/Graphics/SVG/1.1/DTD/svg11.dtd">
<svg xmlns:xlink="http://www.w3.org/1999/xlink" xmlns="http://www.w3.org/2000/svg"
     version="1.1" width="16px" height="16px" fill="#80CBC4"
     viewBox="0 0 24 24">
    <path d="M5,4H19A2,2 0 0,1 21,6V18A2,2 0 0,1 19,20H5A2,2 0 0,1 3,18V6A2,2 0 0,1 5,4M5,8V12H11V8H5M13,8V12H19V8H13M5,14V18H11V14H5M13,14V18H19V14H13Z"/>
    <path fill="#EF5350" transform="scale(.5) translate(24 24)"
          d="M11,2V22C5.9,21.5 2,17.2 2,12C2,6.8 5.9,2.5 11,2M13,2V11H22C21.5,6.2 17.8,2.5 13,2M13,13V22C17.7,21.5 21.5,17.8 22,13H13Z"/>
</svg>
