<!--
  - The MIT License (MIT)
  -
  - Copyright (c) 2015-2024 Elior "Mallowigi" Boukhobza
  -
  - Permission is hereby granted, free of charge, to any person obtaining a copy
  - of this software and associated documentation files (the "Software"), to deal
  - in the Software without restriction, including without limitation the rights
  - to use, copy, modify, merge, publish, distribute, sublicense, and/or sell
  - copies of the Software, and to permit persons to whom the Software is
  - furnished to do so, subject to the following conditions:
  -
  - The above copyright notice and this permission notice shall be included in all
  - copies or substantial portions of the Software.
  -
  - THE SOFTWARE IS PROVIDED "AS IS", WITHOUT WARRANTY OF ANY KIND, EXPRESS OR
  - IMPLIED, INCLUDING BUT NOT LIMITED TO THE WARRANTIES OF MERCHANTABILITY,
  - FITNESS FOR A PARTICULAR PURPOSE AND NONINFRINGEMENT. IN NO EVENT SHALL THE
  - AUTHORS OR COPYRIGHT HOLDERS BE LIABLE FOR ANY CLAIM, DAMAGES OR OTHER
  - LIABILITY, WHETHER IN AN ACTION OF CONTRACT, TORT OR OTHERWISE, ARISING FROM,
  - OUT OF OR IN CONNECTION WITH THE SOFTWARE OR THE USE OR OTHER DEALINGS IN THE
  - SOFTWARE.
  -->

<svg xmlns="http://www.w3.org/2000/svg" width="16" height="16" viewBox="0 0 512 512">
  <path fill="#8BC34A"
        d="M74.5 435.788c-225.295-244.41 108.315-592.1 364.827-357.844 3.682-1.419 16.13-23.3 27.374-44.577 36.31 105.703 53.77 192.06 41.292 262.637-37.835 213.985-275.933 271.105-410.007 160.79 14.96-1.046 21.428-8.22 24.557-15.861 4.377-10.69.006-21.972-5.374-26.592-17.213-14.78-36.631-4.47-40.974 11.136-.905 3.25-.66 9.575-1.696 10.31M464.117 57.102c-34.533 60.53-107.167 114.713-211.795 117.57-67.05 1.83-109.877 14.77-143.592 52.634-48.056 53.97-41.409 132.563-.162 163.625 4.24 3.193 9.975 6.692 14.866 7.009 145.557-26.936 243.078-63.777 312.957-188.44-23.742 78.365-78.74 126.877-122.43 158.684-39.468 28.734-133.067 49.23-162.462 63.068-1.087 1.471.321 1.98 3.48 1.577 61.17-7.806 121.277 4.72 188.748-2.105 151.22-15.297 202.355-147.018 120.39-373.622"/>
</svg>
