<svg xmlns="http://www.w3.org/2000/svg" width="16" height="16">
  <path fill="#7963E6"
        d="M2.516 15h6.833a15.2 15.2 0 0 1-1.13-6.725 5.37 5.37 0 0 1 4.29-4.841 2.6 2.6 0 0 1 2.184.733L15 3.7a6.39 6.39 0 0 0-4.6-1.858 6.94 6.94 0 0 0-5.444 4.052 19.2 19.2 0 0 0-2.183 5.757A10.7 10.7 0 0 0 2.516 15m-1.362-3.506 1.336.106-.231 1.359L1 12.8Zm2.107-2.879.359-1.021-1.181-.471-.385 1.1ZM4.93 5.109l.694-.837-.9-.6-.719.811Zm1.824-3.245.617.759.848-.5-.619-.704ZM9.76 1l.154.759 1.053-.026-.1-.68Zm3.57.811-.03.471.719.393.154-.236Zm-.154 2.015v.393l.694.081v-.317Zm-2.209.34.333.629.489-.395-.1-.419Zm-1.053.811.514.785-.308.55-.746-.837ZM8.886 7.15l-.334.68.874.759.205-.864Zm-.359 2.381-.051.916 1.079.471-.055-.864Zm.308 3.245.257.942 1.361.082-.488-1.024z"
        data-iconColor="Rails"/>
</svg>