<!--
  - The MIT License (MIT)
  -
  - Copyright (c) 2015-2022 Elior "Mallowigi" Boukhobza
  -
  - Permission is hereby granted, free of charge, to any person obtaining a copy
  - of this software and associated documentation files (the "Software"), to deal
  - in the Software without restriction, including without limitation the rights
  - to use, copy, modify, merge, publish, distribute, sublicense, and/or sell
  - copies of the Software, and to permit persons to whom the Software is
  - furnished to do so, subject to the following conditions:
  -
  - The above copyright notice and this permission notice shall be included in all
  - copies or substantial portions of the Software.
  -
  - THE SOFTWARE IS PROVIDED "AS IS", WITHOUT WARRANTY OF ANY KIND, EXPRESS OR
  - IMPLIED, INCLUDING BUT NOT LIMITED TO THE WARRANTIES OF MERCHANTABILITY,
  - FITNESS FOR A PARTICULAR PURPOSE AND NONINFRINGEMENT. IN NO EVENT SHALL THE
  - AUTHORS OR COPYRIGHT HOLDERS BE LIABLE FOR ANY CLAIM, DAMAGES OR OTHER
  - LIABILITY, WHETHER IN AN ACTION OF CONTRACT, TORT OR OTHERWISE, ARISING FROM,
  - OUT OF OR IN CONNECTION WITH THE SOFTWARE OR THE USE OR OTHER DEALINGS IN THE
  - SOFTWARE.
  -
  -
  -->

<svg big="true" clip-rule="evenodd" fill-rule="evenodd" stroke-linejoin="round" stroke-miterlimit="1.4142" version="1.1"
     viewBox="8 8 16 16" xml:space="preserve" xmlns="http://www.w3.org/2000/svg" width="16px" height="16px">
    <path
            d="m23.395 13.464v-1.8011h-3.6023a1.8011 1.8011 0 0 0 -1.8011 1.8011v1.8011a1.8011 1.8011 0 0 0 1.8011 1.8011h1.8011v1.8011h-3.6023v1.8011h3.6023a1.8011 1.8011 0 0 0 1.8011 -1.8011v-1.8011a1.8011 1.8011 0 0 0 -1.8011 -1.8011h-1.8011v-1.8011m-4.5028 5.4034h-1.8011v-5.4034h1.8011m0-1.8011h-1.8011a1.8011 1.8011 0 0 0 -1.8011 1.8011v5.4034a1.8011 1.8011 0 0 0 1.8011 1.8011h1.8011a1.8011 1.8011 0 0 0 1.8011 -1.8011v-5.4034a1.8011 1.8011 0 0 0 -1.8011 -1.8011m-6.3039 9.0056h1.8011v-5.4034h-1.8011m0-1.8011h1.8011v-1.8011h-1.8011z"
            style="fill:#cfd8dc;stroke-width:.90056" />
</svg>
