<svg xmlns="http://www.w3.org/2000/svg" xml:space="preserve" width="16" height="16" fill-rule="evenodd" stroke-linejoin="round" stroke-miterlimit="1.414" clip-rule="evenodd"  viewBox="0 0 24 24"><path fill="#78909C" d="M10 4H4c-1.11 0-2 .89-2 2v12c0 1.097.903 2 2 2h16c1.097 0 2-.903 2-2V8a2 2 0 0 0-2-2h-8z" data-folderColor="Utils"/><path fill="#CFD8DC" d="m18.648 14.536-7.217 7.21-.895-.894 7.21-7.217zm2.864-1.847.377-.378-.505-.505.409-.409-.908-.907-.409.409-.505-.505-.377.377a13.4 13.4 0 0 0-3.707-2.148l-.531 1.144a16 16 0 0 1 3.107 2.135l-.32.32 1.918 1.918.32-.32a16 16 0 0 1 2.134 3.107l1.144-.53a13.4 13.4 0 0 0-2.147-3.708" data-folderIconColor="Utils"/></svg>