<svg xmlns="http://www.w3.org/2000/svg" width="16" height="16"  viewBox="0 -1 16 16"><path fill="#7A8387" d="M13.749 10.91a7.6 7.6 0 0 1-.766 1.353A7 7 0 0 1 12 13.436a1.93 1.93 0 0 1-1.268.549 3.2 3.2 0 0 1-1.171-.275 3.4 3.4 0 0 0-1.261-.274 3.5 3.5 0 0 0-1.3.274 3.5 3.5 0 0 1-1.122.29 1.82 1.82 0 0 1-1.3-.563 7.3 7.3 0 0 1-1.028-1.215 8.3 8.3 0 0 1-1.091-2.13A7.7 7.7 0 0 1 2 7.553a4.57 4.57 0 0 1 .62-2.426 3.6 3.6 0 0 1 1.3-1.29 3.54 3.54 0 0 1 1.754-.486 4.2 4.2 0 0 1 1.357.31 4.4 4.4 0 0 0 1.069.312 6.5 6.5 0 0 0 1.2-.367 4 4 0 0 1 1.622-.283 3.46 3.46 0 0 1 2.7 1.4A2.94 2.94 0 0 0 12.026 7.4a2.93 2.93 0 0 0 .988 2.227 3.3 3.3 0 0 0 .987.636q-.119.338-.252.649ZM11 .28a2.96 2.96 0 0 1-.779 1.959 2.67 2.67 0 0 1-2.2 1.069A2 2 0 0 1 8 3.043a3.04 3.04 0 0 1 .827-1.98A3.2 3.2 0 0 1 9.834.32 3 3 0 0 1 10.985 0 3 3 0 0 1 11 .28" class="i-color"/></svg>