<svg xmlns="http://www.w3.org/2000/svg" width="16" height="16" data-big="true" viewBox="0 0 512 512"><path fill="#1E88E5" d="M52.292 383.93H36.433l9.148-38.742zm119.822-224.948L87.33 217.775c-77.99-77.122-203.169-7.763-363.193-79.887 134.301 32.03 313.876-36.779 447.977 21.094m-443.345 6.64c78.399 29.233 154.6 40.341 235.568 36.592 8.832 3.94 15.846 12.563 19.866 20.777-151.001 14.855-218.934-30.393-255.434-57.37m33.895 46.965c71.961 27.619 137.215 43.931 230.135 27.639 0 0 13.774 11.078 14.154 16.834-124.88 23.27-173.563 2.982-244.289-44.473m248.798 63.52c-67.504 36.128-156.194 26.253-176.555-.865 73.279 14.504 121.176 11.941 176.555.865m794.4-138.219c-160.023 72.124-285.202 2.765-363.192 79.887l-84.784-58.793c134.101-57.873 313.676 10.935 447.977-21.094m-260.065 85.103c4.02-8.214 11.034-16.837 19.866-20.777 80.968 3.75 157.17-7.359 235.568-36.593-36.5 26.977-104.433 72.225-255.434 57.37m-22.75 34.07c.38-5.757 14.154-16.835 14.154-16.835 92.92 16.292 158.174-.02 230.135-27.64-70.726 47.456-119.408 67.745-244.289 44.474m172.046 18.18c-20.36 27.119-109.051 36.994-176.555.866 55.38 11.076 103.276 13.639 176.555-.865M-6.999 421.244H-128.51L21.748 320.696zm33.043.408 2.813-12.383h29.978l2.453 12.383zm69.74.274-36.15-126.457 47.91-33.088 48.613 159.545zm40.836-178.854 76.116-51.574-41.132 169.416zm122.778 178.032H188.01l62.909-254.925 8.478-4.662zm30.528-217.93c65.383 62.145 72.555 90.633 0 93.53zm.412 218.478.114-82.126 56.922 82.126zm93.049 0-64.714-96.385c62.22-14.454 72.58-55.662 20.246-118.55 38.572 26.826 78.15 51.505 116.265 78.926-53.57 20.63-70.915 98.507-7.312 136.01zm60.573-47.09c-24.105-46.95 41.343-93.09 56.195-25.987 4.851 41.118-36.338 64.386-56.195 25.988m214.05 46.405H488.911c32.81-15.234 49.802-51.99 40.08-86.834zM197.105 143.51C-8.62 48.33-230.331 205.59-374.928 65.298c-2.683 51.387 70.384 99.933 102.173 145.713 18.126 32.764 54.484 62.988 86.65 77.83 20.45 35.92 44.326 32.502 114.621 34.186l-207.943 141.675H810.288L601.484 323.027c70.295-1.684 94.171 1.734 114.62-34.186 32.167-14.842 68.525-45.066 86.65-77.83 31.79-45.78 104.857-94.326 102.174-145.713-144.597 140.291-366.244-16.969-571.97 78.212l-67.94-45.2z" data-iconColor="Avro"/></svg>