<svg xmlns="http://www.w3.org/2000/svg" width="16" height="16" ><path fill="#50ABF1" fill-rule="evenodd" d="M7.302 13.868c-.633-.675-.652-.705-.538-.832.18-.203 7.874-7.245 7.985-7.31.095-.054 1.038.401 1.245.602.079.077-.534.732-3.879 4.145-2.185 2.23-4.014 4.063-4.064 4.075-.051.01-.388-.295-.749-.68m-1.746-1.794c-.342-.343-.558-.613-.536-.669.039-.101 4.462-3.676 4.545-3.673.102.003 1.143.794 1.143.868 0 .077-4.447 4.049-4.534 4.049-.025 0-.304-.259-.618-.575M3.94 10.425c-.268-.298-.435-.54-.4-.573.187-.174 2.11-1.507 2.174-1.507.103.002 1.031.798 1.031.885 0 .107-2.083 1.71-2.222 1.71-.067 0-.33-.231-.583-.515m-1.326-1.36c-.383-.387-.428-.46-.341-.54.124-.116 6.238-4.062 6.363-4.108.098-.035.944.478.944.572 0 .068-6.267 4.457-6.42 4.496-.06.016-.29-.16-.546-.42m4.078-.623c-.253-.21-.458-.417-.456-.461s.224-.236.495-.426c.27-.19 1.485-1.06 2.698-1.93 1.213-.872 2.255-1.584 2.316-1.584.163 0 .99.477.963.557-.038.114-5.341 4.223-5.453 4.224-.057 0-.31-.17-.563-.38m-5.309-.615c-.301-.319-.345-.396-.266-.468.068-.062 3.855-2.299 4.313-2.547.076-.041.879.538.853.615-.033.1-4.304 2.78-4.43 2.78-.06 0-.272-.17-.47-.38m9.157.025c-.277-.199-.515-.394-.528-.433-.019-.056 2.494-2.144 3.063-2.546.111-.078.198-.052.673.201.3.16.546.323.545.363-.001.102-2.991 2.732-3.133 2.757-.064.01-.343-.143-.62-.342M.364 6.746 0 6.377l.162-.105C.25 6.215 2.056 5.23 4.174 4.084L8.024 2l.368.18c.203.1.369.215.369.256 0 .056-7.917 4.679-8.013 4.679a6 6 0 0 1-.384-.369m5.92-1.86c-.178-.134-.324-.28-.324-.322 0-.044.722-.504 1.604-1.024l1.603-.944.412.22c.226.12.411.242.411.27 0 .082-3.144 2.048-3.27 2.046-.061-.001-.257-.112-.436-.246m3.211-.409c-.216-.133-.392-.278-.391-.322 0-.075 1.093-.806 1.272-.853.082-.021.817.367.877.463.017.029-.021.1-.086.157-.222.198-1.133.802-1.206.8-.04-.001-.25-.111-.466-.245"/></svg>