<svg xmlns="http://www.w3.org/2000/svg" width="16" height="16" viewBox="0 -1 16 16">
  <path fill="#F03D70"
        d="M15.984 9.5a1.63 1.63 0 0 0-.657-1.114A2.4 2.4 0 0 0 13.9 7.9a3.2 3.2 0 0 0-1.244.193c-.114.042-.227.091-.342.137-.014-.03-.035-.058-.048-.086a2.3 2.3 0 0 1-.292-.754 1.7 1.7 0 0 1 0-.591q.069-.281.159-.559a.136.136 0 0 0-.082-.192.4.4 0 0 0-.1-.033 1.55 1.55 0 0 0-.66.049.19.19 0 0 0-.149.151c-.01.049-.03.1-.043.144a3.6 3.6 0 0 1-.188.6c-.229.479-.49.939-.758 1.4-.029.049-.059.1-.1.158a2 2 0 0 1-.225-.583 1.8 1.8 0 0 1 0-.7c.043-.174.1-.345.152-.516a.12.12 0 0 0-.06-.167.4.4 0 0 0-.12-.059 1.5 1.5 0 0 0-.683.056.19.19 0 0 0-.127.139 5 5 0 0 1-.2.63c-.354.815-.718 1.627-1.082 2.437-.076.169-.165.333-.251.5a1 1 0 0 1-.08.118.1.1 0 0 1-.03-.061A1.7 1.7 0 0 1 7.348 10a18.547 18.547 0 0 1 .4-1.655.23.23 0 0 0-.037-.23.34.34 0 0 0-.431-.052c-.013.01-.029.016-.055.031 0-.039.007-.064.011-.089a1.4 1.4 0 0 0-.02-.566.45.45 0 0 0-.47-.359 1 1 0 0 0-.333.064 2.5 2.5 0 0 0-1.057.842.3.3 0 0 1-.1.084q-.554.308-1.11.613l-.412.227c-.11-.11-.211-.219-.325-.31-.348-.285-.7-.563-1.052-.845a4.2 4.2 0 0 1-.842-.841 1.5 1.5 0 0 1-.292-.82 1.93 1.93 0 0 1 .293-1.072 4.1 4.1 0 0 1 .972-1.068A9 9 0 0 1 3.764 3.1a9.6 9.6 0 0 1 1.959-.869 5.4 5.4 0 0 1 2.165-.247 2.2 2.2 0 0 1 .833.243.86.86 0 0 1 .438.476 1.2 1.2 0 0 1 .02.667 2.55 2.55 0 0 1-.663 1.16A4.5 4.5 0 0 1 6.684 5.7a5 5 0 0 1-1.246.267 2.3 2.3 0 0 1-1.019-.124 1.3 1.3 0 0 1-.562-.383.084.084 0 0 0-.113-.037.1.1 0 0 0-.042.126 1.2 1.2 0 0 0 .1.235 1.34 1.34 0 0 0 .445.423 2.17 2.17 0 0 0 1.105.3 5.5 5.5 0 0 0 1.742-.223 4.27 4.27 0 0 0 2.089-1.265 3.23 3.23 0 0 0 .883-1.849A1.8 1.8 0 0 0 9.9 2.152a1.8 1.8 0 0 0-.8-.766A3.75 3.75 0 0 0 7.527.995h-.549a6.5 6.5 0 0 0-1.933.4 13 13 0 0 0-1.387.593 9 9 0 0 0-2.644 1.9 4 4 0 0 0-.872 1.379c-.053.155-.086.319-.124.479 0 .013.012.026-.021.039v.226a.6.6 0 0 1 .051.173 2.5 2.5 0 0 0 .541.993A6.5 6.5 0 0 0 1.8 8.252q.579.414 1.155.818c.066.047.127.1.2.158-.061.033-.113.063-.166.09a9 9 0 0 0-1.44.9 3 3 0 0 0-.716.727 1.57 1.57 0 0 0-.181 1.508.9.9 0 0 0 .3.391.4.4 0 0 0 .148.077c.136.028.274.049.411.079H1.9a2.4 2.4 0 0 0 1.17-.43 2.58 2.58 0 0 0 1.081-1.55 2.75 2.75 0 0 0-.016-1.43c-.015-.048-.035-.09-.048-.134s-.036-.084-.059-.137l.878-.507.013.011c-.016.052-.033.1-.047.158a3.6 3.6 0 0 0-.149 1.169 2.25 2.25 0 0 0 .391 1.173.565.565 0 0 0 .886.01 2 2 0 0 0 .2-.322c.143-.3.276-.6.412-.9l.024-.055c-.01.142-.021.267-.027.392a1.5 1.5 0 0 0 .069.574.39.39 0 0 0 .334.3.42.42 0 0 0 .313-.115 1.3 1.3 0 0 0 .344-.41c.243-.448.492-.892.712-1.351.238-.5.446-1.007.667-1.512l.037-.09c.052.206.089.408.156.6a6 6 0 0 0 .279.648.194.194 0 0 1-.025.247q-.43.523-.854 1.054a2 2 0 0 0-.177.242.5.5 0 0 0-.061.175.223.223 0 0 0 .177.253 1.2 1.2 0 0 0 .346.025 2 2 0 0 0 1.072-.4 1.13 1.13 0 0 0 .444-1.218 3 3 0 0 0-.121-.394.15.15 0 0 1 .016-.154 12.5 12.5 0 0 0 .87-1.483.3.3 0 0 1 .039-.062 3.9 3.9 0 0 0 .44 1.255c-.116.113-.232.215-.336.328a2.25 2.25 0 0 0-.533.846 1 1 0 0 0-.059.437.367.367 0 0 0 .452.334 2.06 2.06 0 0 0 1.227-.76 1 1 0 0 0 .14-.912c-.022-.095-.05-.182-.077-.283.121-.038.24-.083.362-.111a3.2 3.2 0 0 1 1.876.11 1.42 1.42 0 0 1 .817.714.826.826 0 0 1-.313 1.118 1 1 0 0 0-.113.077.11.11 0 0 0-.026.086.09.09 0 0 0 .068.035.62.62 0 0 0 .346-.144 1.05 1.05 0 0 0 .474-.746c0-.009-.012-.018.02-.027v-.212c-.033-.009-.019-.017-.02-.027Zm-12.434.863a2.04 2.04 0 0 1-.722 1.41 1.64 1.64 0 0 1-.828.414.6.6 0 0 1-.344-.024.35.35 0 0 1-.2-.361 1.3 1.3 0 0 1 .194-.665 2.4 2.4 0 0 1 .6-.667 9 9 0 0 1 1.183-.8l.031-.013a2.1 2.1 0 0 1 .076.706Zm3.211-2.485a4 4 0 0 1-.12.542 16 16 0 0 1-.674 1.791 3 3 0 0 1-.175.31.2.2 0 0 1-.036.043c-.074.073-.144.069-.181-.027a2 2 0 0 1-.093-.348 2 2 0 0 1-.016-.243 3.06 3.06 0 0 1 .477-1.587A1.5 1.5 0 0 1 6.4 7.84a.8.8 0 0 1 .2-.091c.108-.031.175.02.157.129Zm2.191 2.8.787-.924a1.07 1.07 0 0 1-.787.928Zm2.515-.621c-.056.032-.116.055-.174.085s-.069 0-.071-.045a.3.3 0 0 1 .012-.092 2 2 0 0 1 .593-.96l.02-.011a.85.85 0 0 1-.381 1.023Z"
        class="i-color" data-iconColor="SASS"/>
</svg>