<!--
  - The MIT License (MIT)
  -
  - Copyright (c) 2015-2024 Elior "Mallowigi" Boukhobza
  -
  - Permission is hereby granted, free of charge, to any person obtaining a copy
  - of this software and associated documentation files (the "Software"), to deal
  - in the Software without restriction, including without limitation the rights
  - to use, copy, modify, merge, publish, distribute, sublicense, and/or sell
  - copies of the Software, and to permit persons to whom the Software is
  - furnished to do so, subject to the following conditions:
  -
  - The above copyright notice and this permission notice shall be included in all
  - copies or substantial portions of the Software.
  -
  - THE SOFTWARE IS PROVIDED "AS IS", WITHOUT WARRANTY OF ANY KIND, EXPRESS OR
  - IMPLIED, INCLUDING BUT NOT LIMITED TO THE WARRANTIES OF MERCHANTABILITY,
  - FITNESS FOR A PARTICULAR PURPOSE AND NONINFRINGEMENT. IN NO EVENT SHALL THE
  - AUTHORS OR COPYRIGHT HOLDERS BE LIABLE FOR ANY CLAIM, DAMAGES OR OTHER
  - LIABILITY, WHETHER IN AN ACTION OF CONTRACT, TORT OR OTHERWISE, ARISING FROM,
  - OUT OF OR IN CONNECTION WITH THE SOFTWARE OR THE USE OR OTHER DEALINGS IN THE
  - SOFTWARE.
  -->

<svg xmlns="http://www.w3.org/2000/svg" width="14px" height="14px" fill="#80CBC4" viewBox="0 0 24 24">
  <path
    d="M5.5 7A1.5 1.5 0 0 1 4 5.5 1.5 1.5 0 0 1 5.5 4 1.5 1.5 0 0 1 7 5.5 1.5 1.5 0 0 1 5.5 7m15.91 4.58-9-9C12.05 2.22 11.55 2 11 2H4c-1.11 0-2 .89-2 2v7c0 .55.22 1.05.59 1.41l8.99 9c.37.36.87.59 1.42.59s1.05-.23 1.41-.59l7-7c.37-.36.59-.86.59-1.41 0-.56-.23-1.06-.59-1.42"/>
</svg>
