<svg xmlns="http://www.w3.org/2000/svg" width="16" height="16" data-big="true"><path fill="#40b6e0" d="M15 9.943A2.93 2.93 0 0 1 12.213 13H6.371a2.61 2.61 0 0 1-2.332-2.25H7.95a2 2 0 1 0 0-2.5H4.991a2.14 2.14 0 0 1 1.362-.583A2.99 2.99 0 0 1 9.366 5a3.02 3.02 0 0 1 2.827 1.887h.02A2.93 2.93 0 0 1 15 9.943M9.5 8.5a.99.99 0 0 0-.847.5H3.9A1.837 1.837 0 0 1 2 7.069 1.833 1.833 0 0 1 3.9 5.1h.8v-.5A1.764 1.764 0 0 1 6.559 3 1.6 1.6 0 0 1 8.32 4.145a4 4 0 0 1 .988-.14A2.57 2.57 0 0 0 6.559 2a2.826 2.826 0 0 0-2.8 2.1A2.8 2.8 0 0 0 1 7.069 2.854 2.854 0 0 0 3.9 10h4.753a.99.99 0 0 0 .847.5 1 1 0 0 0 0-2"/></svg>