<svg xmlns="http://www.w3.org/2000/svg" width="14" height="14" viewBox="0 0 24 24"><defs><mask id="a"><path fill="#fff" d="M12 20c-4.41 0-8-3.59-8-8s3.59-8 8-8 8 3.59 8 8-3.59 8-8 8m0-18A10 10 0 0 0 2 12a10 10 0 0 0 10 10 10 10 0 0 0 10-10A10 10 0 0 0 12 2M7 13h10v-2H7"/><path stroke="#000" stroke-width="4.800000000000001" d="m23.2 1.6-9.6 9.6-4.4-4.4 1.128-1.128L13.6 8.936 22.072.472z"/><path fill="#fff" d="m23.2 1.6-9.6 9.6-4.4-4.4 1.128-1.128L13.6 8.936 22.072.472z"/></mask></defs><g mask="url(#a)"><path fill="#ab7967" d="M12 20c-4.41 0-8-3.59-8-8s3.59-8 8-8 8 3.59 8 8-3.59 8-8 8m0-18A10 10 0 0 0 2 12a10 10 0 0 0 10 10 10 10 0 0 0 10-10A10 10 0 0 0 12 2M7 13h10v-2H7"/><path fill="#9CCC65" stroke="#9CCC65" stroke-width="2.4000000000000004" d="m23.2 1.6-9.6 9.6-4.4-4.4 1.128-1.128L13.6 8.936 22.072.472z"/></g></svg>