<svg xmlns="http://www.w3.org/2000/svg" width="14" height="14" viewBox="0 0 24 24"><defs><mask id="a"><path fill="#fff" d="M19 3H5c-1.11 0-2 .89-2 2v14a2 2 0 0 0 2 2h14a2 2 0 0 0 2-2V5a2 2 0 0 0-2-2m0 2v14H5V5z"/><path stroke="#000" stroke-width="4" d="M12 10.072 20.472 1.6H15.2V0h8v8h-1.6V2.728L13.128 11.2z"/><path fill="#fff" d="M12 10.072 20.472 1.6H15.2V0h8v8h-1.6V2.728L13.128 11.2z"/></mask></defs><g mask="url(#a)"><path fill="#FFCB6B" d="M19 3H5c-1.11 0-2 .89-2 2v14a2 2 0 0 0 2 2h14a2 2 0 0 0 2-2V5a2 2 0 0 0-2-2m0 2v14H5V5z"/><path fill="#FFD54F" d="M12 10.072 20.472 1.6H15.2V0h8v8h-1.6V2.728L13.128 11.2z"/></g></svg>