<svg xmlns="http://www.w3.org/2000/svg" width="14" height="14" viewBox="0 0 24 24"><defs><mask id="a"><path fill="#fff" d="M12 20a8 8 0 0 1-8-8 8 8 0 0 1 8-8 8 8 0 0 1 8 8 8 8 0 0 1-8 8m0-18A10 10 0 0 0 2 12a10 10 0 0 0 10 10 10 10 0 0 0 10-10A10 10 0 0 0 12 2"/><path stroke="#000" stroke-width="4" d="M12 10.072 20.472 1.6H15.2V0h8v8h-1.6V2.728L13.128 11.2z"/><path fill="#fff" d="M12 10.072 20.472 1.6H15.2V0h8v8h-1.6V2.728L13.128 11.2z"/></mask></defs><g mask="url(#a)"><path fill="#FFCB6B" d="M12 20a8 8 0 0 1-8-8 8 8 0 0 1 8-8 8 8 0 0 1 8 8 8 8 0 0 1-8 8m0-18A10 10 0 0 0 2 12a10 10 0 0 0 10 10 10 10 0 0 0 10-10A10 10 0 0 0 12 2"/><path fill="#FFD54F" stroke="#FFD54F" stroke-width="4.800000000000001" d="M12 10.072 20.472 1.6H15.2V0h8v8h-1.6V2.728L13.128 11.2z"/></g></svg>