<svg xmlns="http://www.w3.org/2000/svg" width="16" height="16" fill="#C792EA" viewBox="0 0 24 24">
  <circle cx="12" cy="12" r="12" fill="#FFD54F"/>
  <path fill="#E91E63"
        d="M12.42 5.29c-1.1-.1-2.07.71-2.17 1.82L10 10h2.82v2h-3l-.44 5.07A4.001 4.001 0 0 1 2 18.83l1.5-1.5c.33 1.05 1.46 1.64 2.5 1.3.78-.24 1.33-.93 1.4-1.74L7.82 12h-3v-2H8l.27-3.07a4.01 4.01 0 0 1 4.33-3.65c1.26.11 2.4.81 3.06 1.89l-1.5 1.5c-.25-.77-.93-1.31-1.74-1.38M22 13.65l-1.41-1.41-2.83 2.83-2.83-2.83-1.43 1.41 2.85 2.85-2.85 2.81 1.43 1.41 2.83-2.83 2.83 2.83L22 19.31l-2.83-2.81z"/>
  <path fill="#311B92"
        d="M7 17H4C2.38 17 .96 15.74.76 14.14l-.5-2.99C.15 10.3.39 9.5.91 8.92S2.19 8 3 8h6c.83 0 1.58.35 2.06.96.11.15.21.31.29.49.43-.09.87-.09 1.29 0 .08-.18.18-.34.3-.49C13.41 8.35 14.16 8 15 8h6c.81 0 1.57.34 2.09.92.51.58.75 1.38.65 2.19l-.51 3.07C23.04 15.74 21.61 17 20 17h-3c-1.56 0-3.08-1.19-3.46-2.7l-.9-2.71c-.38-.28-.91-.28-1.29 0l-.92 2.78C10.07 15.82 8.56 17 7 17"/>
</svg>