<svg xmlns="http://www.w3.org/2000/svg" width="16" height="16" viewBox="0 0 24 24">
  <path fill="#7986CB"
        d="M20.5 11H19V7a2 2 0 0 0-2-2h-4V3.5A2.5 2.5 0 0 0 10.5 1 2.5 2.5 0 0 0 8 3.5V5H4a2 2 0 0 0-2 2v3.8h1.5c1.5 0 2.7 1.2 2.7 2.7S5 16.2 3.5 16.2H2V20a2 2 0 0 0 2 2h3.8v-1.5c0-1.5 1.2-2.7 2.7-2.7s2.7 1.2 2.7 2.7V22H17a2 2 0 0 0 2-2v-4h1.5a2.5 2.5 0 0 0 2.5-2.5 2.5 2.5 0 0 0-2.5-2.5"/>
  <path fill="#FFB74D"
        d="m15.18 20.4-1.93 1.95c-.215.195-.5.325-.812.325a1.14 1.14 0 0 1-1.138-1.137v-.163l.65-4.797a2.94 2.94 0 0 1 2.925-2.678h5.85a2.94 2.94 0 0 1 2.925 2.678l.65 4.797v.163a1.14 1.14 0 0 1-1.137 1.137c-.312 0-.599-.13-.813-.325l-1.93-1.95zm-.63-5.2v1.3h-1.3v.65h1.3v1.3h.65v-1.3h1.3v-.65h-1.3v-1.3zm6.175 0a.49.49 0 0 0-.488.488.49.49 0 0 0 .488.487.49.49 0 0 0 .487-.488.49.49 0 0 0-.487-.487m-1.138 1.137a.49.49 0 0 0-.487.488.49.49 0 0 0 .487.488.49.49 0 0 0 .488-.488.49.49 0 0 0-.488-.488m2.276 0a.49.49 0 0 0-.488.488.49.49 0 0 0 .488.488.49.49 0 0 0 .487-.488.49.49 0 0 0-.488-.488m-1.137 1.138a.49.49 0 0 0-.488.487.49.49 0 0 0 .488.488.49.49 0 0 0 .487-.488.49.49 0 0 0-.487-.487"/>
</svg>