<svg xmlns="http://www.w3.org/2000/svg" width="16" height="16" data-big="true" viewBox="0 0 24 24"><path fill="#DCE775" d="M20.5 11H19V7a2 2 0 0 0-2-2h-4V3.5A2.5 2.5 0 0 0 10.5 1 2.5 2.5 0 0 0 8 3.5V5H4a2 2 0 0 0-2 2v3.8h1.5c1.5 0 2.7 1.2 2.7 2.7S5 16.2 3.5 16.2H2V20a2 2 0 0 0 2 2h3.8v-1.5c0-1.5 1.2-2.7 2.7-2.7s2.7 1.2 2.7 2.7V22H17a2 2 0 0 0 2-2v-4h1.5a2.5 2.5 0 0 0 2.5-2.5 2.5 2.5 0 0 0-2.5-2.5"/><path fill="#F06292" d="M12.75 10.5V12H15v1.5h-2.25l-1.5 1.5v2.25h-1.5V15h-1.5v6h1.5v-2.25h1.5V21h2.25l1.5 1.5h6v-3h1.5v2.25h2.25v-7.5H22.5v2.25H21v-3h-4.5V12h2.25v-1.5z"/></svg>