<svg xmlns="http://www.w3.org/2000/svg" xml:space="preserve" width="16" height="16" fill-rule="evenodd"
     stroke-linejoin="round" stroke-miterlimit="1.414" clip-rule="evenodd" viewBox="8 7 16 16"><path fill="#4DB6AC" d="M16.364 17.621a2.08 2.08 0 0 1-2.08-2.08c0-.777.423-1.456 1.04-1.81l6.733-3.897-3.835 6.643a2.08 2.08 0 0 1-1.858 1.144m0-9.014a7.06 7.06 0 0 1 3.446.915l-1.456.839a5.6 5.6 0 0 0-1.99-.367 5.547 5.547 0 0 0-5.547 5.547 5.5 5.5 0 0 0 1.622 3.918h.007c.27.27.27.707 0 .977s-.714.27-.984.007a6.9 6.9 0 0 1-2.032-4.902 6.934 6.934 0 0 1 6.934-6.934m6.934 6.934a6.9 6.9 0 0 1-2.032 4.902.697.697 0 0 1-.977-.007.69.69 0 0 1 0-.977 5.51 5.51 0 0 0 1.622-3.918c0-.694-.131-1.387-.374-2.011l.839-1.456c.575 1.04.922 2.205.922 3.467z"/></svg>