<!--
  - The MIT License (MIT)
  -
  - Copyright (c) 2015-2022 Elior "Mallowigi" Boukhobza
  -
  - Permission is hereby granted, free of charge, to any person obtaining a copy
  - of this software and associated documentation files (the "Software"), to deal
  - in the Software without restriction, including without limitation the rights
  - to use, copy, modify, merge, publish, distribute, sublicense, and/or sell
  - copies of the Software, and to permit persons to whom the Software is
  - furnished to do so, subject to the following conditions:
  -
  - The above copyright notice and this permission notice shall be included in all
  - copies or substantial portions of the Software.
  -
  - THE SOFTWARE IS PROVIDED "AS IS", WITHOUT WARRANTY OF ANY KIND, EXPRESS OR
  - IMPLIED, INCLUDING BUT NOT LIMITED TO THE WARRANTIES OF MERCHANTABILITY,
  - FITNESS FOR A PARTICULAR PURPOSE AND NONINFRINGEMENT. IN NO EVENT SHALL THE
  - AUTHORS OR COPYRIGHT HOLDERS BE LIABLE FOR ANY CLAIM, DAMAGES OR OTHER
  - LIABILITY, WHETHER IN AN ACTION OF CONTRACT, TORT OR OTHERWISE, ARISING FROM,
  - OUT OF OR IN CONNECTION WITH THE SOFTWARE OR THE USE OR OTHER DEALINGS IN THE
  - SOFTWARE.
  -
  -
  -->

<svg clip-rule="evenodd" fill-rule="evenodd" stroke-linejoin="round" stroke-miterlimit="1.4142" version="1.1"
     viewBox="8 7 16 16" width="16px" height="16px" xml:space="preserve" xmlns="http://www.w3.org/2000/svg">
  <g big="true">
      <path
      d="m16.364 17.621a2.0802 2.0802 0 0 1 -2.0802 -2.0802c0-.77662.42298-1.4562 1.0401-1.8098l6.733-3.897-3.8346 6.6429c-.3467.67954-1.047 1.1441-1.8583 1.1441m0-9.0143c1.2551 0 2.4269.34671 3.4463.9153l-1.4562.83903c-.60327-.23576-1.2967-.36751-1.9901-.36751a5.5473 5.5473 0 0 0 -5.5473 5.5473c0 1.5324.61713 2.9193 1.6226 3.9178h.007c.27043.27043.27043.70728 0 .97771s-.71421.27043-.98464.007c-1.2551-1.2551-2.0317-2.9886-2.0317-4.9024a6.9341 6.9341 0 0 1 6.9341 -6.9341m6.9341 6.9341c0 1.9138-.77662 3.6473-2.0317 4.9024-.27043.2635-.70728.2635-.97771-.007-.27043-.27043-.27043-.70728 0-.97771 1.0054-1.0054 1.6226-2.3853 1.6226-3.9178 0-.69341-.13175-1.3868-.37444-2.0109l.83903-1.4562c.57553 1.0401.92224 2.205.92224 3.4671z"
      fill="#4DB6AC" />
  </g>
</svg>
