<!--
  - The MIT License (MIT)
  -
  - Copyright (c) 2015-2024 Elior "Mallowigi" Boukhobza
  -
  - Permission is hereby granted, free of charge, to any person obtaining a copy
  - of this software and associated documentation files (the "Software"), to deal
  - in the Software without restriction, including without limitation the rights
  - to use, copy, modify, merge, publish, distribute, sublicense, and/or sell
  - copies of the Software, and to permit persons to whom the Software is
  - furnished to do so, subject to the following conditions:
  -
  - The above copyright notice and this permission notice shall be included in all
  - copies or substantial portions of the Software.
  -
  - THE SOFTWARE IS PROVIDED "AS IS", WITHOUT WARRANTY OF ANY KIND, EXPRESS OR
  - IMPLIED, INCLUDING BUT NOT LIMITED TO THE WARRANTIES OF MERCHANTABILITY,
  - FITNESS FOR A PARTICULAR PURPOSE AND NONINFRINGEMENT. IN NO EVENT SHALL THE
  - AUTHORS OR COPYRIGHT HOLDERS BE LIABLE FOR ANY CLAIM, DAMAGES OR OTHER
  - LIABILITY, WHETHER IN AN ACTION OF CONTRACT, TORT OR OTHERWISE, ARISING FROM,
  - OUT OF OR IN CONNECTION WITH THE SOFTWARE OR THE USE OR OTHER DEALINGS IN THE
  - SOFTWARE.
  -->

<svg xmlns="http://www.w3.org/2000/svg" width="16" height="16"  viewBox="0 0 24 24">
  <path fill="#FF5370" d="M18 18H6V6h12z"/>
  <path fill="#66BB6A"
        d="M20.755 12.845A5.57 5.57 0 0 0 16.8 11.2a5.6 5.6 0 0 0-5.6 5.6 5.6 5.6 0 0 0 5.6 5.6 5.59 5.59 0 0 0 5.411-4.2h-1.456A4.19 4.19 0 0 1 16.8 21a4.2 4.2 0 0 1-4.2-4.2 4.2 4.2 0 0 1 4.2-4.2 4.14 4.14 0 0 1 2.954 1.246L17.5 16.1h4.9v-4.9z"/>
</svg>
