<svg xmlns="http://www.w3.org/2000/svg" width="16" height="16" fill="#66BB6A" class="has-solid"  viewBox="0 0 36 36"><path d="M23 14h10.9a1 1 0 0 0 0-2h-8.53l8.82-9a1 1 0 1 0-1.43-1.4L24 10.54V2.1a1 1 0 0 0-2 0V13a1 1 0 0 0 1 1M11.54 10.73l-9 5.17a1 1 0 0 0-.5.87v11a1 1 0 0 0 .5.87l9 5.15a1 1 0 0 0 1 0l9-5.15a1 1 0 0 0 .5-.87v-11a1 1 0 0 0-.5-.87l-9-5.17a1 1 0 0 0-1 0M11 31.08l-7-4v-8.64l7 4ZM12 21l-7.19-4.13L12 12.78l7.21 4.12Zm8 6.09-7 4v-8.65l7-4Z"/><path d="M2 27.73a1 1 0 0 0 .5.87l8.5 4.86v-11l-9-5.18ZM13 33.46l8.5-4.86a1 1 0 0 0 .5-.87V17.29l-9 5.15Z"/></svg>