<!--
  - The MIT License (MIT)
  -
  - Copyright (c) 2015-2021 Elior "Mallowigi" Boukhobza
  -
  - Permission is hereby granted, free of charge, to any person obtaining a copy
  - of this software and associated documentation files (the "Software"), to deal
  - in the Software without restriction, including without limitation the rights
  - to use, copy, modify, merge, publish, distribute, sublicense, and/or sell
  - copies of the Software, and to permit persons to whom the Software is
  - furnished to do so, subject to the following conditions:
  -
  - The above copyright notice and this permission notice shall be included in all
  - copies or substantial portions of the Software.
  -
  - THE SOFTWARE IS PROVIDED "AS IS", WITHOUT WARRANTY OF ANY KIND, EXPRESS OR
  - IMPLIED, INCLUDING BUT NOT LIMITED TO THE WARRANTIES OF MERCHANTABILITY,
  - FITNESS FOR A PARTICULAR PURPOSE AND NONINFRINGEMENT. IN NO EVENT SHALL THE
  - AUTHORS OR COPYRIGHT HOLDERS BE LIABLE FOR ANY CLAIM, DAMAGES OR OTHER
  - LIABILITY, WHETHER IN AN ACTION OF CONTRACT, TORT OR OTHERWISE, ARISING FROM,
  - OUT OF OR IN CONNECTION WITH THE SOFTWARE OR THE USE OR OTHER DEALINGS IN THE
  - SOFTWARE.
  -
  -
  -->


<svg xmlns="http://www.w3.org/2000/svg" version="1.1" width="16px" height="16px" viewBox="0 0 24 24">
  <path fill="#EF5350"
        d="M22 17V16.5C22 15.12 20.88 14 19.5 14S17 15.12 17 16.5V17C16.45 17 16 17.45 16 18V22C16 22.55 16.45 23 17 23H22C22.55 23 23 22.55 23 22V18C23 17.45 22.55 17 22 17M21 17H18V16.5C18 15.67 18.67 15 19.5 15S21 15.67 21 16.5V17M8 8C8 5.79 9.79 4 12 4S16 5.79 16 8 14.21 12 12 12 8 10.21 8 8M14 20H4V18C4 15.79 7.58 14 12 14C13.27 14 14.46 14.15 15.53 14.41C15.32 14.82 15.15 15.25 15.07 15.71C14.42 16.26 14 17.08 14 18V20Z" />
</svg>
