<!--
  - The MIT License (MIT)
  -
  - Copyright (c) 2015-2024 Elior "Mallowigi" Boukhobza
  -
  - Permission is hereby granted, free of charge, to any person obtaining a copy
  - of this software and associated documentation files (the "Software"), to deal
  - in the Software without restriction, including without limitation the rights
  - to use, copy, modify, merge, publish, distribute, sublicense, and/or sell
  - copies of the Software, and to permit persons to whom the Software is
  - furnished to do so, subject to the following conditions:
  -
  - The above copyright notice and this permission notice shall be included in all
  - copies or substantial portions of the Software.
  -
  - THE SOFTWARE IS PROVIDED "AS IS", WITHOUT WARRANTY OF ANY KIND, EXPRESS OR
  - IMPLIED, INCLUDING BUT NOT LIMITED TO THE WARRANTIES OF MERCHANTABILITY,
  - FITNESS FOR A PARTICULAR PURPOSE AND NONINFRINGEMENT. IN NO EVENT SHALL THE
  - AUTHORS OR COPYRIGHT HOLDERS BE LIABLE FOR ANY CLAIM, DAMAGES OR OTHER
  - LIABILITY, WHETHER IN AN ACTION OF CONTRACT, TORT OR OTHERWISE, ARISING FROM,
  - OUT OF OR IN CONNECTION WITH THE SOFTWARE OR THE USE OR OTHER DEALINGS IN THE
  - SOFTWARE.
  -->

<svg xmlns="http://www.w3.org/2000/svg" width="16" height="16" fill="#4DB6AC"  viewBox="0 0 24 24">
  <path fill="#82AAFF" transform="scale(0.03) translate(128 80)"
        d="m37.435 218.2 7.266-9.271 92.304-.044-5.943 9.27zm83.718 22.805 3.061-9.27-116.949.08L0 241.085zm-3.361 22.887.884-9.27-53.197.043-5.163 9.27zm339.301 72.6c-51.18 28.193-121.104 16.253-139.798-44.876-11.048 21.741-29.087 39.56-50.584 49.721-50.933 24.075-120.085 3.08-128.979-62.896-6.513-63.238 44.669-102.314 74.925-112.18 48.085-14.979 95.508 2.622 111.907 46.427l-51.65 13.538c-5.488-15.271-35.313-26.268-58.239-9.693-36.057 22.247-35.391 78.232 8.173 86.545 22.618 2.9 37.81-8.276 49.2-25.466l-56.087.12 18.021-38.86h84.057c36.406-102.707 178.391-98.21 192.821-5.92 5.129 32.802-6.069 77.264-53.767 103.54M410.447 209.42c-38.861 8.362-48.547 42.69-42.548 64.684 6.383 23.406 31.11 38.754 62.482 24.076 50.28-23.523 37.1-101.032-19.934-88.76"/>
  <path
    d="M12 19a1 1 0 0 1-1-1 1 1 0 0 1 1-1 1 1 0 0 1 1 1 1 1 0 0 1-1 1M4 5h16v11H4m16 2a2 2 0 0 0 2-2V5a2 2 0 0 0-2-2H4c-1.11 0-2 .89-2 2v11a2 2 0 0 0 2 2H0a2 2 0 0 0 2 2h20a2 2 0 0 0 2-2z"/>
</svg>
