<!--
  - The MIT License (MIT)
  -
  - Copyright (c) 2015-2024 Elior "Mallowigi" Boukhobza
  -
  - Permission is hereby granted, free of charge, to any person obtaining a copy
  - of this software and associated documentation files (the "Software"), to deal
  - in the Software without restriction, including without limitation the rights
  - to use, copy, modify, merge, publish, distribute, sublicense, and/or sell
  - copies of the Software, and to permit persons to whom the Software is
  - furnished to do so, subject to the following conditions:
  -
  - The above copyright notice and this permission notice shall be included in all
  - copies or substantial portions of the Software.
  -
  - THE SOFTWARE IS PROVIDED "AS IS", WITHOUT WARRANTY OF ANY KIND, EXPRESS OR
  - IMPLIED, INCLUDING BUT NOT LIMITED TO THE WARRANTIES OF MERCHANTABILITY,
  - FITNESS FOR A PARTICULAR PURPOSE AND NONINFRINGEMENT. IN NO EVENT SHALL THE
  - AUTHORS OR COPYRIGHT HOLDERS BE LIABLE FOR ANY CLAIM, DAMAGES OR OTHER
  - LIABILITY, WHETHER IN AN ACTION OF CONTRACT, TORT OR OTHERWISE, ARISING FROM,
  - OUT OF OR IN CONNECTION WITH THE SOFTWARE OR THE USE OR OTHER DEALINGS IN THE
  - SOFTWARE.
  -->

<svg height="16px" width="16px" version="1.1" xmlns="http://www.w3.org/2000/svg" data-big="true" viewBox="0 0 512 512">
  <g>
    <path fill="#DD507B" d="M415.381,393.634c-59.076-1.08-81.879-60.082-81.879-60.082c23.035-0.072,19.606-25.194,19.606-25.194
		l-0.288-90.495c50.275-0.16,70.114-26.248,60.171-53.832C396.198,117.519,291.707,1.95,255.739,0.336V0
		c-35.193,0-140.77,117.304-157.54,164.23c-9.855,27.615,10.063,53.632,60.338,53.632v90.503c0,0-3.349,25.138,19.687,25.138
		c0,0-22.62,59.067-81.688,60.314c-41.451,0.887-44.001,52.793,5.02,55.311c41.411,2.126,85.468-30.165,105.578-75.404
		c0,0-25.13,70.377-51.946,87.138c-26.816,16.762-11.254,57.501,16.762,50.275c51.953-13.404,83.789-107.256,83.789-145.798
		l0.352,0.304c0.111,38.541,32.259,132.289,84.244,145.526c28.031,7.146,43.466-33.65,16.601-50.323
		c-26.872-16.681-52.225-86.979-52.225-86.979c20.262,45.184,64.422,77.323,105.818,75.069
		C459.542,446.274,456.84,394.377,415.381,393.634z"/>
  </g>
</svg>
