<!--
  - The MIT License (MIT)
  -
  - Copyright (c) 2015-2023 Elior "Mallowigi" Boukhobza
  -
  - Permission is hereby granted, free of charge, to any person obtaining a copy
  - of this software and associated documentation files (the "Software"), to deal
  - in the Software without restriction, including without limitation the rights
  - to use, copy, modify, merge, publish, distribute, sublicense, and/or sell
  - copies of the Software, and to permit persons to whom the Software is
  - furnished to do so, subject to the following conditions:
  -
  - The above copyright notice and this permission notice shall be included in all
  - copies or substantial portions of the Software.
  -
  - THE SOFTWARE IS PROVIDED "AS IS", WITHOUT WARRANTY OF ANY KIND, EXPRESS OR
  - IMPLIED, INCLUDING BUT NOT LIMITED TO THE WARRANTIES OF MERCHANTABILITY,
  - FITNESS FOR A PARTICULAR PURPOSE AND NONINFRINGEMENT. IN NO EVENT SHALL THE
  - AUTHORS OR COPYRIGHT HOLDERS BE LIABLE FOR ANY CLAIM, DAMAGES OR OTHER
  - LIABILITY, WHETHER IN AN ACTION OF CONTRACT, TORT OR OTHERWISE, ARISING FROM,
  - OUT OF OR IN CONNECTION WITH THE SOFTWARE OR THE USE OR OTHER DEALINGS IN THE
  - SOFTWARE.
  -
  -->

<svg big="true" width="16px" height="16px" xmlns="http://www.w3.org/2000/svg" viewBox="0 0 24 24">
  <g fill="#26a69a">
    <path
      d="m14.552 11.422-1.666 1.642 2.5 2.46-2.5 2.462 1.666 1.64 2.502-2.461 2.5 2.46 1.665-1.64-2.5-2.46 2.5-2.461-1.666-1.642-2.5 2.461zM5.77 4.374c-1.644 0-2.989 1.36-2.989 3.023v9.065c0 1.678 1.345 3.023 2.988 3.023h2.989c1.658 0 2.988-1.345 2.988-3.023V7.397c0-1.663-1.33-3.023-2.988-3.023zm0 3.023h2.988v9.065H5.769z"/>
  </g>
</svg>
