<svg xmlns="http://www.w3.org/2000/svg" width="16" height="16" viewBox="0 0 24 24">
  <path fill="#EC407A"
        d="m16 5 3 3-.5.5c1 1 1.5 1.5 2 1L22 11c0 1-1.5 2.5-2.5 2.5L18 12c.5-.5 0-1-1-2l-1 1-3-3c1.5-2 0-4-4-3 1-1 2-2 3-2 .5 0 2 0 4 2M2 20l2 2 10-10-2-2z"/>
  <path fill="#4DB6AC"
        d="M17.25 12a5.96 5.96 0 0 1 4.237 1.748 5.99 5.99 0 0 1-.007 8.482c-1.372 1.395-3.255 1.95-5.047 1.71l.397-1.47a4.498 4.498 0 0 0 3.6-7.657 4.47 4.47 0 0 0-3.18-1.313v3.435l-3.72-3.712 3.72-3.713zm-4.245 10.237a5.99 5.99 0 0 1-.923-7.282l1.11 1.103a4.465 4.465 0 0 0 .87 5.115c.39.39.84.697 1.313.915L15 23.55c-.75-.3-1.41-.728-1.995-1.313"/>
</svg>