<!--
  - The MIT License (MIT)
  -
  - Copyright (c) 2015-2021 Elior "Mallowigi" Boukhobza
  -
  - Permission is hereby granted, free of charge, to any person obtaining a copy
  - of this software and associated documentation files (the "Software"), to deal
  - in the Software without restriction, including without limitation the rights
  - to use, copy, modify, merge, publish, distribute, sublicense, and/or sell
  - copies of the Software, and to permit persons to whom the Software is
  - furnished to do so, subject to the following conditions:
  -
  - The above copyright notice and this permission notice shall be included in all
  - copies or substantial portions of the Software.
  -
  - THE SOFTWARE IS PROVIDED "AS IS", WITHOUT WARRANTY OF ANY KIND, EXPRESS OR
  - IMPLIED, INCLUDING BUT NOT LIMITED TO THE WARRANTIES OF MERCHANTABILITY,
  - FITNESS FOR A PARTICULAR PURPOSE AND NONINFRINGEMENT. IN NO EVENT SHALL THE
  - AUTHORS OR COPYRIGHT HOLDERS BE LIABLE FOR ANY CLAIM, DAMAGES OR OTHER
  - LIABILITY, WHETHER IN AN ACTION OF CONTRACT, TORT OR OTHERWISE, ARISING FROM,
  - OUT OF OR IN CONNECTION WITH THE SOFTWARE OR THE USE OR OTHER DEALINGS IN THE
  - SOFTWARE.
  -
  -
  -->

<svg big="true" xmlns="http://www.w3.org/2000/svg" version="1.1" width="16px" height="16px" viewBox="0 0 24 24">
  <path fill="#64B5F6"
        d="M22,22H2V20H22V22M6.2,17.3L5.5,18L4.1,16.6L2.7,18L2,17.3L3.4,15.9L2,14.5L2.7,13.8L4.1,15.2L5.5,13.8L6.2,14.5L4.8,15.9L6.2,17.3M16.22,14.43C16.22,13.85 15.5,13.2 14.06,12.46C12.23,11.54 11,10.79 10.36,10.24C9.71,9.68 9.39,9.06 9.39,8.37C9.39,6.59 10.3,5.12 12.12,3.95C13.94,2.78 15.43,2.19 16.57,2.19C17.31,2.19 17.85,2.32 18.18,2.58C18.5,2.83 18.68,3.27 18.68,3.9C18.68,4.18 18.56,4.42 18.31,4.63C18.07,4.83 17.87,4.93 17.74,4.93C17.63,4.93 17.43,4.83 17.13,4.64L16.55,4.38C16.08,4.38 15.14,4.71 13.71,5.38C12.29,6.04 11.58,6.79 11.58,7.63C11.58,8.14 11.82,8.6 12.32,9C12.82,9.42 13.71,9.93 15,10.53C16.03,11 16.86,11.5 17.5,12.07C18.1,12.61 18.41,13.25 18.41,14C18.41,15.34 17.47,16.41 15.58,17.17C13.7,17.94 11.9,18.32 10.19,18.32C8.75,18.32 8,17.83 8,16.86C8,16.5 8.19,16.27 8.5,16.11C8.83,15.95 9.16,15.87 9.5,15.87L10.25,16L10.97,16.13C11.95,16.13 13,15.97 14.13,15.64C15.26,15.32 15.96,14.91 16.22,14.43Z" />
</svg>
