<?xml version="1.0" encoding="UTF-8"?><!DOCTYPE svg PUBLIC "-//W3C//DTD SVG 1.1//EN"
        "http://www.w3.org/Graphics/SVG/1.1/DTD/svg11.dtd">
<svg xmlns="http://www.w3.org/2000/svg" xmlns:xlink="http://www.w3.org/1999/xlink" version="1.1" width="16px"
     height="16px"
     viewBox="0 0 24 24" fill="#7986CB">
    <path fill="#7986CB" d="M4,18V20H8V18H4M4,14V16H14V14H4M10,18V20H14V18H10M16,14V16H20V14H16M16,18V20H20V18H16M2,22V8L7,12V8L12,12V8L17,12L18,2H21L22,12V22H2Z"
          transform="scale(1)"/>
    <path fill="#64B5F6"
          transform="scale(0.75) translate(12 -4)"
          d="M10,4H14V13L17.5,9.5L19.92,11.92L12,19.84L4.08,11.92L6.5,9.5L10,13V4Z"/>
</svg>
