<svg xmlns="http://www.w3.org/2000/svg" xml:space="preserve" width="16" height="16" fill-rule="evenodd"
     stroke-linejoin="round" stroke-miterlimit="1.414" clip-rule="evenodd" viewBox="0 0 24 24"><path fill="#5C6BC0" fill-rule="nonzero" d="M10 4H4c-1.11 0-2 .89-2 2v12c0 1.097.903 2 2 2h16c1.097 0 2-.903 2-2V8a2 2 0 0 0-2-2h-8z"/>
  <g fill="#5C6BC0"><path fill="#89ddff" fill-rule="nonzero" d="M15.597 21.678a.6.6 0 0 1-.147-.018.74.74 0 0 1-.513-.857l1.915-10.2a.73.73 0 0 1 .314-.482.63.63 0 0 1 .495-.087.74.74 0 0 1 .513.858l-1.92 10.2a.73.73 0 0 1-.312.481.63.63 0 0 1-.345.105M19.436 20.233h-.048a.66.66 0 0 1-.472-.267.78.78 0 0 1 .07-1.003l3.293-3.218L19 12.75a.78.78 0 0 1-.1-1 .66.66 0 0 1 .467-.283.64.64 0 0 1 .501.167l3.866 3.534a.78.78 0 0 1 .102 1 .7.7 0 0 1-.1.116l-3.85 3.763a.65.65 0 0 1-.451.187M13.672 20.235a.65.65 0 0 1-.451-.189l-3.854-3.765a.775.775 0 0 1 .006-1.108l3.867-3.533a.62.62 0 0 1 .495-.169c.19.022.361.125.47.283a.78.78 0 0 1-.099 1.002l-3.277 2.993 3.293 3.216c.266.27.297.699.07 1.003a.66.66 0 0 1-.472.267z"/></g></svg>