<svg xmlns="http://www.w3.org/2000/svg" xml:space="preserve" width="16" height="16" fill-rule="evenodd" stroke-linejoin="round" stroke-miterlimit="1.414" clip-rule="evenodd" data-big="true" viewBox="0 0 24 24"><path fill="#009688" d="M10 4H4c-1.11 0-2 .89-2 2v12c0 1.097.903 2 2 2h16c1.097 0 2-.903 2-2V8a2 2 0 0 0-2-2h-8z"/><path fill="#C5E1A5" d="M14 8.097v1.39h.695v9.732A2.794 2.794 0 0 0 17.475 22a2.794 2.794 0 0 0 2.781-2.78V9.486h.695v-1.39zm2.78 9.732c-.417 0-.695-.278-.695-.695s.278-.695.696-.695.695.278.695.695-.278.695-.695.695m1.39-2.78c-.417 0-.695-.278-.695-.696s.278-.695.695-.695.695.278.695.695c0 .418-.278.696-.695.696m.695-3.476h-2.78V9.487h2.78z"/></svg>