<!--
  - The MIT License (MIT)
  -
  - Copyright (c) 2015-2021 Elior "Mallowigi" Boukhobza
  -
  - Permission is hereby granted, free of charge, to any person obtaining a copy
  - of this software and associated documentation files (the "Software"), to deal
  - in the Software without restriction, including without limitation the rights
  - to use, copy, modify, merge, publish, distribute, sublicense, and/or sell
  - copies of the Software, and to permit persons to whom the Software is
  - furnished to do so, subject to the following conditions:
  -
  - The above copyright notice and this permission notice shall be included in all
  - copies or substantial portions of the Software.
  -
  - THE SOFTWARE IS PROVIDED "AS IS", WITHOUT WARRANTY OF ANY KIND, EXPRESS OR
  - IMPLIED, INCLUDING BUT NOT LIMITED TO THE WARRANTIES OF MERCHANTABILITY,
  - FITNESS FOR A PARTICULAR PURPOSE AND NONINFRINGEMENT. IN NO EVENT SHALL THE
  - AUTHORS OR COPYRIGHT HOLDERS BE LIABLE FOR ANY CLAIM, DAMAGES OR OTHER
  - LIABILITY, WHETHER IN AN ACTION OF CONTRACT, TORT OR OTHERWISE, ARISING FROM,
  - OUT OF OR IN CONNECTION WITH THE SOFTWARE OR THE USE OR OTHER DEALINGS IN THE
  - SOFTWARE.
  -
  -
  -->

<svg xmlns="http://www.w3.org/2000/svg" width="16" height="16" viewBox="0 0 16 16">
  <title>publishAzure</title>
  <g>
    <path d="M0,0H16V16H0Z" fill="#ffd3ff" opacity="0"/>
    <path d="M15,9.943A2.932,2.932,0,0,1,12.213,13H6.371a2.611,2.611,0,0,1-2.332-2.25H7.95a2,2,0,1,0,0-2.5H4.991a2.143,2.143,0,0,1,1.362-.583A2.988,2.988,0,0,1,9.366,5a3.022,3.022,0,0,1,2.827,1.887h.02A2.932,2.932,0,0,1,15,9.943ZM9.5,8.5a.985.985,0,0,0-.847.5H3.9A1.837,1.837,0,0,1,2,7.069,1.833,1.833,0,0,1,3.9,5.1h.8V4.6A1.764,1.764,0,0,1,6.559,3,1.6,1.6,0,0,1,8.32,4.145a4.069,4.069,0,0,1,.988-.14A2.57,2.57,0,0,0,6.559,2a2.826,2.826,0,0,0-2.8,2.1A2.8,2.8,0,0,0,1,7.069,2.854,2.854,0,0,0,3.9,10H8.653a.988.988,0,0,0,.847.5,1,1,0,0,0,0-2Z" fill="#40b6e0"/>
  </g>
</svg>
