<svg xmlns="http://www.w3.org/2000/svg" width="16" height="16">
  <g fill="#26A2C1" fill-rule="evenodd">
    <path
        d="M15.646 12.015v3.572l-1.259-1.26a4.047 4.047 0 0 1-6.908-2.34l1.362.12a2.733 2.733 0 0 0 4.616 1.291l-1.383-1.383zm-3.938-4.559a4.05 4.05 0 0 1 3.795 3.473l-1.353-.118a2.733 2.733 0 0 0-4.67-1.158l1.433 1.433H7.341V7.515L8.55 8.724a4.04 4.04 0 0 1 3.158-1.268"/>
    <path
        d="M9.428.555a2.06 2.06 0 0 1 2.865.049c.766.766 1.636 2.887-1.673 5.362a2 2 0 0 0-.197.166 4.002 4.002 0 0 0-4.85 2.702c-.102.158-.17.341-.197.54a.2.2 0 0 1-.193.171h-.888a.195.195 0 0 1-.193-.172 1.342 1.342 0 0 0-2.662 0 .197.197 0 0 1-.2.18H.331a.2.2 0 0 1-.192-.16c-.512-2.665.433-4.77 1.972-5.864l.805 1.388a1.076 1.076 0 0 0 1.456.4l.378-.21h.013a9 9 0 0 0 1.254-.944.194.194 0 0 0-.009-.29l-.051-.03a.21.21 0 0 0-.22.04q-.555.493-1.187.885l-.373.208.016-.011-.02.011a.67.67 0 0 1-.91-.25l-.851-1.47a.67.67 0 0 1 .289-.944c4.959-2.364 7.143 2.222 8.78.587a1.182 1.182 0 0 0-1.548-1.783.2.2 0 0 1-.258-.018L9.428.844a.2.2 0 0 1 0-.29m-.75 3.074-.078.01a.396.396 0 0 0-.312.387l.631.316a.396.396 0 0 0-.32-.704Z"/>
  </g>
</svg>