<svg xmlns="http://www.w3.org/2000/svg" width="13" height="13" viewBox="0 0 16 16"><path fill="#497CE3" d="M15.275 9.5c2.585-4.065-2.321-6.72-5.6-7.333C3.1.939-3.71 6.736 2.359 11.113A8.35 8.35 0 0 0 6 12.406V14h2.685v-1.488a13 13 0 0 0 2.289-.336c.475.913.882 1.824.882 1.824h3.05s-.991-1.657-1.623-2.7a5.45 5.45 0 0 0 1.992-1.8m-6.59 1.81v-.965h1a1.88 1.88 0 0 1 .777.9 11.5 11.5 0 0 1-1.777.065m2.005-2.717H8.685v-1.77h2.005a1.12 1.12 0 0 1 .668.9 1.06 1.06 0 0 1-.668.87m2.194 2.048q-.062-.1-.092-.147a2.9 2.9 0 0 0-1.286-.6 2.54 2.54 0 0 0 2.464-2.589c-.022-1.849-1.88-2.355-2.813-2.355H6v5.883a5 5 0 0 1-1.069-.515c-4.651-3.083.566-7.166 5.6-6.3 2.514.432 6.274 2.3 4.293 5.165a4.37 4.37 0 0 1-1.94 1.458"/></svg>