<!--
  - The MIT License (MIT)
  -
  - Copyright (c) 2015-2022 Elior "Mallowigi" Boukhobza
  -
  - Permission is hereby granted, free of charge, to any person obtaining a copy
  - of this software and associated documentation files (the "Software"), to deal
  - in the Software without restriction, including without limitation the rights
  - to use, copy, modify, merge, publish, distribute, sublicense, and/or sell
  - copies of the Software, and to permit persons to whom the Software is
  - furnished to do so, subject to the following conditions:
  -
  - The above copyright notice and this permission notice shall be included in all
  - copies or substantial portions of the Software.
  -
  - THE SOFTWARE IS PROVIDED "AS IS", WITHOUT WARRANTY OF ANY KIND, EXPRESS OR
  - IMPLIED, INCLUDING BUT NOT LIMITED TO THE WARRANTIES OF MERCHANTABILITY,
  - FITNESS FOR A PARTICULAR PURPOSE AND NONINFRINGEMENT. IN NO EVENT SHALL THE
  - AUTHORS OR COPYRIGHT HOLDERS BE LIABLE FOR ANY CLAIM, DAMAGES OR OTHER
  - LIABILITY, WHETHER IN AN ACTION OF CONTRACT, TORT OR OTHERWISE, ARISING FROM,
  - OUT OF OR IN CONNECTION WITH THE SOFTWARE OR THE USE OR OTHER DEALINGS IN THE
  - SOFTWARE.
  -
  -
  -->

<svg version="1.1" xmlns="http://www.w3.org/2000/svg" width="16px" height="16px" viewBox="0 0 400 400">
  <g big="true">
    <g fill="#d6479c">
    <path
      d="M90.200 18.377 C 85.585 18.713,79.783 19.824,78.557 20.606 C 78.093 20.902,76.563 21.349,75.157 21.599 C 71.792 22.198,69.188 23.086,68.200 23.972 C 67.371 24.714,63.748 26.484,62.000 27.000 C 61.450 27.162,60.730 27.519,60.400 27.794 C 60.070 28.068,59.341 28.401,58.780 28.534 C 58.219 28.666,57.018 29.460,56.111 30.297 C 55.204 31.135,53.593 32.438,52.531 33.194 C 49.804 35.135,38.906 46.354,37.847 48.310 C 37.642 48.689,36.811 49.810,36.000 50.800 C 32.205 55.434,29.973 58.659,29.390 60.352 C 28.716 62.306,28.045 63.745,26.287 67.000 C 24.915 69.542,23.532 72.866,21.601 78.269 C 21.194 79.407,20.642 80.748,20.374 81.249 C 19.647 82.606,18.505 88.200,17.999 92.876 C 17.754 95.144,17.294 98.509,16.977 100.352 C 16.240 104.637,16.238 110.961,16.972 113.906 C 17.287 115.168,17.741 118.688,17.982 121.730 C 18.248 125.087,18.641 127.601,18.981 128.130 C 19.289 128.608,19.668 129.720,19.823 130.600 C 19.978 131.480,20.269 132.517,20.469 132.904 C 20.669 133.291,21.188 135.270,21.622 137.301 C 22.324 140.586,24.800 146.631,26.168 148.400 C 26.423 148.730,27.163 150.170,27.811 151.600 C 28.459 153.030,29.642 155.104,30.439 156.208 C 31.237 157.312,32.448 159.205,33.130 160.414 C 33.812 161.623,35.068 163.329,35.921 164.206 C 36.773 165.083,38.225 166.835,39.148 168.100 C 40.070 169.365,40.963 170.400,41.132 170.400 C 41.301 170.400,42.701 171.615,44.243 173.100 C 45.785 174.585,47.921 176.520,48.989 177.400 C 50.058 178.280,51.667 179.688,52.566 180.529 C 54.374 182.222,57.436 184.400,58.007 184.400 C 58.209 184.400,59.976 185.931,61.934 187.802 C 65.372 191.087,68.055 193.200,68.789 193.200 C 68.983 193.200,70.692 194.729,72.586 196.597 C 74.480 198.466,76.518 200.254,77.115 200.571 C 77.712 200.887,79.137 202.128,80.282 203.327 C 82.658 205.817,84.972 206.587,85.354 205.017 C 85.463 204.568,85.567 177.655,85.586 145.210 C 85.608 105.299,85.752 86.088,86.031 85.810 C 86.297 85.546,91.304 85.400,100.122 85.400 C 107.645 85.400,129.820 85.312,149.400 85.205 C 184.788 85.012,184.872 85.009,163.600 84.805 C 138.844 84.568,137.719 84.100,161.293 83.847 C 175.497 83.694,177.667 83.590,178.221 83.036 C 178.571 82.686,179.149 82.400,179.505 82.400 C 180.042 82.400,180.020 82.302,179.376 81.830 C 178.618 81.273,179.740 80.400,181.213 80.400 C 181.412 80.400,181.471 80.130,181.345 79.800 C 181.210 79.450,181.340 79.196,181.657 79.191 C 181.964 79.186,181.765 78.842,181.200 78.400 C 180.531 77.876,180.398 77.615,180.800 77.609 C 181.624 77.596,181.697 75.582,180.905 74.700 C 180.324 74.053,180.349 73.999,181.238 73.987 C 182.141 73.975,182.156 73.941,181.472 73.423 C 180.797 72.911,180.793 72.843,181.417 72.494 C 181.975 72.182,181.872 72.074,180.818 71.864 C 180.109 71.722,179.657 71.431,179.797 71.205 C 179.936 70.980,179.670 70.800,179.200 70.800 C 178.734 70.800,178.452 70.639,178.574 70.443 C 178.695 70.246,178.346 69.973,177.797 69.835 C 176.591 69.532,176.545 69.154,177.600 68.200 C 179.420 66.553,177.429 64.000,174.325 64.000 C 172.675 64.000,172.400 63.887,172.400 63.210 C 172.400 62.775,172.041 61.830,171.601 61.110 C 171.162 60.389,170.802 59.324,170.801 58.741 C 170.799 56.926,168.912 55.200,166.931 55.200 L 165.240 55.200 165.120 49.199 L 165.000 43.199 166.838 43.199 C 169.736 43.200,169.953 42.738,170.086 36.252 C 170.221 29.694,170.175 29.618,166.024 29.568 C 163.847 29.542,157.020 28.562,158.149 28.438 C 158.341 28.417,158.276 28.132,158.004 27.804 C 157.732 27.477,157.350 27.307,157.156 27.427 C 156.491 27.838,155.217 27.951,155.011 27.617 C 154.897 27.434,155.074 27.181,155.402 27.054 C 155.731 26.928,156.000 26.629,156.000 26.389 C 156.000 26.149,155.835 26.055,155.634 26.179 C 155.433 26.303,155.197 26.192,155.110 25.931 C 154.997 25.590,153.362 25.479,149.297 25.536 L 143.642 25.616 142.184 24.157 C 140.603 22.576,138.960 22.025,135.785 22.010 C 134.606 22.004,133.145 21.682,132.268 21.234 C 131.345 20.764,129.422 20.359,127.283 20.184 C 125.367 20.027,122.900 19.544,121.800 19.112 C 119.586 18.240,98.733 17.756,90.200 18.377 M314.200 237.210 C 314.200 311.963,314.196 312.382,313.396 313.182 C 312.598 313.980,312.062 313.987,234.996 314.166 C 185.322 314.281,156.177 314.494,154.000 314.758 C 152.130 314.985,147.476 315.256,143.657 315.361 C 139.839 315.466,136.614 315.653,136.491 315.776 C 136.367 315.899,136.487 316.000,136.757 316.000 C 137.027 316.000,137.136 316.180,137.000 316.400 C 136.864 316.620,137.123 316.800,137.576 316.800 C 138.029 316.800,138.400 316.980,138.400 317.200 C 138.400 317.420,138.929 317.600,139.576 317.600 C 140.223 317.600,140.856 317.767,140.982 317.970 C 141.107 318.174,141.761 318.271,142.435 318.185 C 143.156 318.094,144.262 318.353,145.124 318.815 C 145.929 319.247,146.776 319.600,147.005 319.600 C 147.940 319.600,149.301 320.890,148.741 321.245 C 148.296 321.527,148.302 321.589,148.776 321.594 C 149.193 321.598,149.142 321.755,148.593 322.156 C 147.801 322.735,148.092 323.110,151.169 325.487 C 151.740 325.928,151.737 325.976,151.140 325.987 C 150.654 325.997,150.480 326.372,150.480 327.411 C 150.480 328.187,150.270 329.075,150.013 329.384 C 149.642 329.832,149.756 330.083,150.573 330.619 C 151.515 331.236,152.114 332.365,151.200 331.800 C 150.980 331.664,150.800 331.733,150.800 331.953 C 150.800 332.173,150.987 332.469,151.216 332.610 C 151.445 332.752,151.523 333.212,151.389 333.634 C 151.253 334.062,151.334 334.400,151.573 334.400 C 151.808 334.400,151.965 334.535,151.923 334.700 C 151.881 334.865,152.155 336.315,152.533 337.922 C 152.911 339.530,153.102 341.035,152.959 341.267 C 152.815 341.499,152.893 341.811,153.133 341.959 C 153.652 342.280,153.989 368.801,153.473 368.800 C 153.293 368.800,153.256 369.145,153.389 369.566 C 153.523 369.988,153.453 370.444,153.234 370.579 C 153.014 370.715,152.925 371.061,153.036 371.349 C 153.414 372.334,152.135 372.784,148.430 372.971 C 144.094 373.190,142.960 373.739,142.572 375.807 C 142.209 377.745,141.112 378.399,138.211 378.407 C 136.885 378.411,134.549 378.679,133.021 379.003 C 131.492 379.326,127.982 379.772,125.221 379.993 C 117.100 380.643,115.736 380.854,114.537 381.648 L 113.400 382.402 115.400 382.159 C 116.500 382.025,118.658 381.665,120.196 381.359 C 121.733 381.053,124.973 380.616,127.396 380.386 C 129.818 380.157,133.006 379.706,134.479 379.385 C 135.952 379.063,137.934 378.800,138.882 378.800 C 139.830 378.800,141.234 378.616,142.003 378.392 C 144.059 377.792,150.916 376.800,153.010 376.800 C 154.009 376.800,155.432 376.547,156.172 376.237 C 156.912 375.928,159.832 375.472,162.659 375.223 C 165.487 374.974,168.700 374.527,169.800 374.229 C 170.900 373.930,173.372 373.576,175.293 373.441 C 177.215 373.307,180.545 372.852,182.693 372.430 C 186.665 371.651,195.678 370.342,202.200 369.597 C 204.180 369.370,206.970 368.922,208.400 368.601 C 209.830 368.280,211.900 368.008,213.000 367.998 C 214.100 367.988,216.530 367.629,218.400 367.200 C 220.270 366.771,222.700 366.409,223.800 366.394 C 224.900 366.380,227.150 366.096,228.800 365.763 C 230.450 365.430,233.895 364.911,236.457 364.609 C 239.018 364.308,241.805 363.871,242.650 363.637 C 243.496 363.404,246.530 363.004,249.394 362.749 C 252.661 362.458,255.121 362.029,256.000 361.597 C 256.861 361.174,258.941 360.802,261.400 360.631 C 263.600 360.479,266.210 360.184,267.200 359.977 C 268.190 359.770,271.086 359.428,273.635 359.215 C 276.184 359.003,278.794 358.626,279.435 358.377 C 280.076 358.129,282.850 357.682,285.600 357.385 C 288.350 357.088,292.040 356.571,293.800 356.236 C 295.560 355.902,298.080 355.619,299.400 355.607 C 300.720 355.596,303.060 355.306,304.600 354.964 C 306.140 354.621,309.290 354.091,311.600 353.784 C 313.910 353.478,316.784 352.951,317.987 352.614 C 319.190 352.276,320.507 352.000,320.913 352.000 C 321.319 352.000,322.495 351.660,323.526 351.246 C 324.557 350.831,326.907 349.918,328.750 349.218 C 330.592 348.518,332.392 347.782,332.750 347.582 C 333.107 347.383,334.030 346.944,334.800 346.607 C 335.570 346.270,336.920 345.558,337.800 345.025 C 338.680 344.491,339.940 343.748,340.600 343.372 C 341.260 342.996,341.890 342.560,342.000 342.402 C 342.110 342.245,342.674 341.865,343.254 341.558 C 344.313 340.998,346.221 339.513,349.532 336.672 C 350.511 335.832,351.782 334.852,352.356 334.495 C 354.337 333.262,361.194 325.777,364.244 321.519 C 366.883 317.835,369.539 313.717,370.513 311.800 C 372.107 308.665,373.600 305.358,373.601 304.961 C 373.602 304.763,374.256 303.520,375.055 302.200 C 375.855 300.880,376.734 298.900,377.008 297.800 C 377.283 296.700,378.000 294.540,378.602 293.000 C 379.204 291.460,379.957 289.120,380.276 287.800 C 380.594 286.480,381.101 284.860,381.403 284.200 C 381.704 283.540,382.063 281.470,382.200 279.600 C 382.337 277.730,382.708 274.259,383.025 271.886 C 384.456 261.154,382.753 245.244,379.171 235.898 C 378.517 234.192,377.704 231.672,377.363 230.298 C 377.022 228.924,376.396 227.312,375.972 226.716 C 375.547 226.120,375.200 225.373,375.200 225.057 C 375.200 224.568,373.648 221.425,370.349 215.238 C 369.950 214.489,369.295 213.499,368.894 213.038 C 368.493 212.577,367.379 211.030,366.420 209.600 C 365.460 208.170,364.298 206.585,363.837 206.078 C 363.377 205.572,362.637 204.762,362.193 204.278 C 361.750 203.795,360.589 202.347,359.614 201.061 C 358.640 199.774,355.583 196.847,352.821 194.557 C 350.059 192.267,346.162 188.999,344.161 187.296 C 342.159 185.593,339.663 183.570,338.614 182.800 C 337.565 182.030,335.765 180.545,334.615 179.500 C 333.464 178.455,332.375 177.600,332.196 177.600 C 332.016 177.600,331.133 176.903,330.234 176.051 C 327.007 172.992,324.570 170.912,322.800 169.706 C 321.810 169.032,320.466 167.916,319.812 167.227 C 319.159 166.537,317.857 165.523,316.918 164.973 C 315.979 164.423,314.984 163.539,314.706 163.008 C 314.296 162.227,314.200 176.383,314.200 237.210 M84.400 213.800 L 83.400 214.372 84.500 214.386 C 85.217 214.395,85.600 214.191,85.600 213.800 C 85.600 213.085,85.652 213.085,84.400 213.800 M84.678 221.856 C 84.358 222.175,84.719 222.800,85.224 222.800 C 85.431 222.800,85.600 222.530,85.600 222.200 C 85.600 221.581,85.128 221.405,84.678 221.856 M155.200 370.824 C 155.200 371.031,154.975 371.155,154.700 371.100 C 154.425 371.045,154.245 371.225,154.300 371.500 C 154.355 371.775,154.235 372.000,154.033 372.000 C 153.367 372.000,153.318 371.009,153.960 370.535 C 154.621 370.049,155.200 370.183,155.200 370.824 M100.300 383.489 C 101.015 383.578,102.185 383.578,102.900 383.489 C 103.615 383.401,103.030 383.328,101.600 383.328 C 100.170 383.328,99.585 383.401,100.300 383.489 "
      stroke="none" fill-rule="evenodd"></path>
    <rect x="87" y="85" width="200" height="200" fill="#fbfafa" fill-rule="evenodd"></rect>
    <path
      d="M87.200 85.514 C 86.650 85.598,86.072 85.789,85.916 85.938 C 85.709 86.135,85.551 186.940,85.720 211.200 C 85.730 212.630,85.709 236.203,85.673 263.584 C 85.629 297.609,85.740 313.500,86.024 313.784 C 86.311 314.070,121.656 314.174,199.492 314.117 L 312.543 314.035 313.371 313.206 L 314.200 312.378 314.217 199.159 C 314.234 89.889,314.209 85.926,313.503 85.548 C 312.811 85.178,89.598 85.144,87.200 85.514 M159.400 112.447 C 160.280 112.683,162.504 113.120,164.342 113.420 C 166.181 113.719,168.071 114.213,168.542 114.517 C 169.014 114.822,170.015 115.192,170.767 115.339 C 172.527 115.684,176.081 117.405,178.496 119.083 C 179.539 119.807,180.564 120.400,180.775 120.400 C 182.353 120.400,192.000 130.385,192.000 132.018 C 192.000 132.228,192.319 132.719,192.708 133.108 C 194.315 134.715,195.968 138.379,198.344 145.600 C 199.578 149.347,199.617 164.880,198.400 167.400 C 197.975 168.280,197.618 169.540,197.608 170.200 C 197.586 171.538,194.426 178.095,193.147 179.457 C 192.036 180.639,192.409 181.588,194.716 183.453 C 195.752 184.290,197.511 185.935,198.625 187.107 L 200.650 189.239 199.225 190.888 C 198.441 191.795,197.260 193.109,196.600 193.808 C 195.940 194.508,194.410 196.221,193.200 197.617 C 189.822 201.511,189.296 202.000,188.474 202.000 C 187.707 202.000,181.690 197.261,181.085 196.180 C 180.906 195.861,180.521 195.600,180.229 195.600 C 179.937 195.600,179.472 195.328,179.196 194.995 C 178.849 194.577,178.544 194.514,178.211 194.791 C 177.185 195.642,173.178 197.600,172.462 197.600 C 172.047 197.600,171.250 197.960,170.691 198.400 C 170.131 198.840,169.325 199.200,168.900 199.200 C 168.474 199.200,167.062 199.601,165.763 200.092 C 162.557 201.302,143.729 201.478,142.000 200.314 C 141.450 199.943,140.190 199.518,139.200 199.369 C 138.210 199.220,136.839 198.761,136.153 198.349 C 135.467 197.937,134.678 197.600,134.400 197.600 C 133.592 197.600,126.832 193.622,124.086 191.530 C 120.380 188.707,116.497 184.217,113.816 179.654 C 113.605 179.294,113.132 178.543,112.766 177.984 C 112.400 177.426,111.976 176.403,111.825 175.712 C 111.673 175.021,111.300 174.249,110.996 173.997 C 110.692 173.745,110.238 172.545,109.986 171.331 C 109.734 170.118,109.245 168.466,108.899 167.662 C 107.803 165.114,107.982 148.406,109.131 145.922 C 109.609 144.889,110.000 143.564,110.000 142.976 C 110.000 142.389,110.344 141.254,110.765 140.454 C 111.186 139.655,111.901 138.190,112.354 137.200 C 115.052 131.307,120.463 124.761,125.166 121.702 C 126.395 120.902,127.722 119.922,128.116 119.524 C 128.509 119.126,129.072 118.800,129.367 118.800 C 129.661 118.800,130.118 118.539,130.383 118.220 C 130.648 117.902,131.525 117.429,132.332 117.170 C 133.139 116.911,134.070 116.471,134.400 116.193 C 134.730 115.915,135.806 115.555,136.791 115.393 C 137.776 115.231,138.957 114.854,139.414 114.554 C 139.872 114.254,141.765 113.723,143.623 113.372 C 145.480 113.022,147.630 112.591,148.400 112.414 C 150.483 111.935,157.567 111.957,159.400 112.447 M255.353 114.361 C 255.725 114.669,257.327 115.147,258.914 115.422 C 264.104 116.322,269.228 118.498,273.698 121.700 C 274.082 121.975,275.071 122.650,275.896 123.200 C 278.098 124.668,283.831 130.518,284.794 132.279 C 285.251 133.115,286.243 134.790,286.997 136.000 C 287.752 137.210,288.376 138.475,288.384 138.811 C 288.393 139.147,288.664 139.799,288.987 140.260 C 289.310 140.721,289.766 141.976,290.001 143.049 C 290.236 144.122,290.717 145.622,291.072 146.382 C 293.089 150.713,291.784 167.535,288.972 173.440 C 288.437 174.562,288.000 175.704,288.000 175.977 C 288.000 176.250,287.640 176.931,287.200 177.491 C 286.760 178.050,286.400 178.748,286.400 179.042 C 286.400 180.973,276.952 190.710,272.739 193.120 C 271.504 193.827,270.271 194.674,269.998 195.003 C 269.725 195.331,269.221 195.600,268.877 195.600 C 268.534 195.600,267.521 195.946,266.626 196.370 C 263.878 197.671,259.118 199.108,256.711 199.362 C 255.452 199.495,253.389 199.873,252.127 200.202 C 248.946 201.031,215.355 201.094,214.233 200.274 C 213.472 199.717,213.142 115.070,213.897 114.361 C 214.578 113.723,216.609 113.663,235.239 113.730 C 251.251 113.788,254.797 113.899,255.353 114.361 M150.200 130.404 C 149.540 130.607,147.830 131.067,146.400 131.426 C 143.382 132.184,143.487 132.142,141.400 133.411 C 140.520 133.946,139.350 134.602,138.800 134.868 C 137.714 135.394,134.098 138.909,133.315 140.200 C 132.206 142.030,130.060 146.818,129.792 148.062 C 129.633 148.798,129.255 149.886,128.952 150.480 C 128.185 151.981,128.187 160.824,128.954 162.320 C 129.259 162.914,129.721 164.432,129.981 165.693 C 130.241 166.954,130.609 168.082,130.798 168.199 C 130.987 168.315,131.358 169.084,131.623 169.906 C 132.338 172.127,138.896 179.600,140.131 179.600 C 140.319 179.600,140.931 179.960,141.491 180.400 C 142.050 180.840,142.909 181.200,143.400 181.200 C 143.891 181.200,144.807 181.605,145.436 182.100 C 146.792 183.166,160.522 183.503,162.250 182.513 C 163.745 181.656,163.678 180.553,162.058 179.338 C 159.994 177.790,153.616 172.428,152.267 171.106 C 150.940 169.806,150.949 169.755,152.890 167.517 C 157.107 162.655,160.708 158.534,161.609 157.537 C 163.015 155.982,165.240 157.426,172.886 164.856 C 173.484 165.436,174.693 166.481,175.573 167.179 L 177.173 168.446 177.356 167.523 C 177.456 167.015,177.844 165.430,178.217 164.000 C 179.202 160.228,179.408 155.071,178.654 153.039 C 178.319 152.138,177.862 150.369,177.638 149.109 C 177.414 147.849,176.972 146.409,176.657 145.909 C 176.341 145.409,175.949 144.550,175.785 144.000 C 175.119 141.764,167.679 133.907,165.775 133.429 C 165.163 133.276,164.220 132.802,163.678 132.375 C 163.136 131.949,162.131 131.592,161.446 131.582 C 160.761 131.573,159.480 131.307,158.600 130.992 C 156.556 130.261,151.758 129.925,150.200 130.404 M233.384 132.100 C 233.279 132.375,233.239 143.850,233.296 157.600 L 233.400 182.600 240.105 182.710 C 245.728 182.802,247.351 182.689,250.160 182.010 C 252.002 181.564,253.935 181.198,254.455 181.196 C 254.975 181.194,256.300 180.750,257.400 180.209 C 258.500 179.668,259.547 179.219,259.727 179.213 C 262.343 179.112,269.481 169.764,270.184 165.517 C 270.319 164.701,270.692 163.531,271.012 162.917 C 271.797 161.412,271.820 153.701,271.045 151.846 C 270.740 151.116,270.368 149.727,270.219 148.759 C 269.536 144.325,262.745 135.200,260.128 135.200 C 259.982 135.200,259.552 134.918,259.172 134.574 C 258.792 134.230,257.607 133.702,256.540 133.400 C 255.473 133.098,253.880 132.578,253.000 132.243 C 250.867 131.433,233.687 131.307,233.384 132.100 M200.112 271.151 C 200.436 271.474,200.644 273.534,200.731 277.289 C 200.895 284.328,200.721 285.370,199.281 285.966 C 197.974 286.508,114.679 286.412,114.133 285.868 C 113.722 285.458,113.441 274.772,113.792 272.901 C 113.977 271.917,114.356 271.412,115.167 271.071 C 116.812 270.379,199.417 270.457,200.112 271.151 "
      stroke="none" fill="#120e21" fill-rule="evenodd"></path>
    <path
      d="M80.400 214.830 C 78.750 215.188,76.900 215.685,76.290 215.934 C 75.679 216.184,73.969 216.573,72.490 216.798 C 70.991 217.027,68.294 217.894,66.400 218.755 C 64.530 219.606,62.138 220.611,61.084 220.990 C 58.719 221.840,57.095 223.170,56.251 224.949 C 55.667 226.179,55.402 226.333,53.438 226.578 C 50.560 226.938,44.473 232.189,39.837 238.312 C 38.790 239.694,37.527 241.092,37.029 241.418 C 36.531 241.744,35.902 242.497,35.632 243.090 C 35.361 243.684,34.598 244.806,33.936 245.585 C 32.165 247.665,28.400 253.696,28.400 254.451 C 28.400 254.809,28.101 255.349,27.735 255.651 C 27.066 256.204,25.200 260.042,25.200 260.867 C 25.200 261.111,24.451 262.861,23.536 264.755 C 22.621 266.650,21.558 269.460,21.174 271.000 C 20.790 272.540,20.081 275.060,19.599 276.600 C 16.372 286.909,16.374 310.777,19.603 320.400 C 20.230 322.270,21.034 324.969,21.389 326.398 C 21.743 327.827,22.825 330.617,23.792 332.598 C 24.759 334.579,25.848 337.132,26.211 338.271 C 26.575 339.410,27.217 340.653,27.637 341.033 C 28.056 341.413,28.400 341.945,28.400 342.214 C 28.400 342.908,33.021 349.046,33.755 349.327 C 34.090 349.456,34.722 350.245,35.159 351.081 C 36.093 352.866,40.168 357.540,42.971 360.041 C 44.056 361.008,45.856 362.642,46.971 363.670 C 50.873 367.267,53.410 369.295,54.708 369.854 C 55.427 370.164,56.836 371.043,57.839 371.809 C 58.841 372.574,59.949 373.200,60.300 373.200 C 60.652 373.200,62.327 373.914,64.022 374.787 C 65.717 375.660,68.341 376.753,69.852 377.215 C 71.364 377.677,73.500 378.421,74.600 378.867 C 85.129 383.138,109.484 385.011,114.200 381.913 C 115.838 380.837,116.617 380.713,127.530 379.793 C 129.142 379.657,131.662 379.291,133.130 378.980 C 134.599 378.669,136.885 378.411,138.211 378.407 C 141.112 378.399,142.209 377.745,142.572 375.807 C 142.960 373.739,144.094 373.190,148.430 372.971 C 152.135 372.784,153.414 372.334,153.036 371.349 C 152.925 371.061,153.014 370.715,153.234 370.579 C 153.453 370.444,153.523 369.988,153.389 369.566 C 153.256 369.145,153.293 368.800,153.473 368.800 C 153.989 368.801,153.652 342.280,153.133 341.959 C 152.893 341.811,152.815 341.499,152.959 341.267 C 153.102 341.035,152.911 339.530,152.533 337.922 C 152.155 336.315,151.881 334.865,151.923 334.700 C 151.965 334.535,151.808 334.400,151.573 334.400 C 151.334 334.400,151.253 334.062,151.389 333.634 C 151.523 333.212,151.445 332.752,151.216 332.610 C 150.987 332.469,150.800 332.173,150.800 331.953 C 150.800 331.733,150.980 331.664,151.200 331.800 C 152.114 332.365,151.515 331.236,150.573 330.619 C 149.756 330.083,149.642 329.832,150.013 329.384 C 150.270 329.075,150.480 328.187,150.480 327.411 C 150.480 326.372,150.654 325.997,151.140 325.987 C 151.737 325.976,151.740 325.928,151.169 325.487 C 148.092 323.110,147.801 322.735,148.593 322.156 C 149.142 321.755,149.193 321.598,148.776 321.594 C 148.302 321.589,148.296 321.527,148.741 321.245 C 149.301 320.890,147.940 319.600,147.005 319.600 C 146.776 319.600,145.929 319.247,145.124 318.815 C 144.262 318.353,143.156 318.094,142.435 318.185 C 141.761 318.271,141.107 318.174,140.982 317.970 C 140.856 317.767,140.223 317.600,139.576 317.600 C 138.929 317.600,138.400 317.420,138.400 317.200 C 138.400 316.980,138.029 316.800,137.576 316.800 C 137.123 316.800,136.855 316.635,136.979 316.434 C 137.103 316.233,136.979 315.977,136.702 315.866 C 136.130 315.635,137.660 315.528,143.478 315.393 C 148.798 315.270,156.101 314.768,155.875 314.542 C 155.777 314.444,140.140 314.314,121.126 314.253 C 102.112 314.193,86.340 314.010,86.078 313.848 C 85.712 313.622,85.600 302.923,85.600 268.219 C 85.600 225.414,85.561 222.870,84.900 222.614 C 84.251 222.362,84.248 222.307,84.865 221.853 C 85.394 221.463,85.532 220.659,85.540 217.923 C 85.551 213.829,85.410 213.744,80.400 214.830 M153.960 370.535 C 153.318 371.009,153.367 372.000,154.033 372.000 C 154.235 372.000,154.355 371.775,154.300 371.500 C 154.245 371.225,154.425 371.045,154.700 371.100 C 154.975 371.155,155.200 371.031,155.200 370.824 C 155.200 370.183,154.621 370.049,153.960 370.535 "
      fill-rule="evenodd"></path>
    <path
      d="M94.000 16.807 C 92.130 17.218,89.250 17.677,87.600 17.828 C 85.950 17.979,84.022 18.338,83.315 18.625 C 82.609 18.912,81.169 19.272,80.115 19.426 C 79.062 19.579,77.566 20.024,76.791 20.414 C 76.015 20.805,74.536 21.251,73.504 21.405 C 72.471 21.560,71.395 21.967,71.113 22.309 C 70.666 22.851,70.703 22.877,71.400 22.516 C 71.840 22.287,73.435 21.889,74.944 21.631 C 76.452 21.373,78.072 20.915,78.544 20.613 C 82.473 18.098,116.232 16.936,121.822 19.124 C 122.910 19.550,125.367 20.027,127.283 20.184 C 129.422 20.359,131.345 20.764,132.268 21.234 C 133.145 21.682,134.606 22.004,135.785 22.010 C 138.960 22.025,140.603 22.576,142.184 24.157 L 143.642 25.616 149.297 25.536 C 153.362 25.479,154.997 25.590,155.110 25.931 C 155.197 26.192,155.433 26.303,155.634 26.179 C 155.835 26.055,156.000 26.149,156.000 26.389 C 156.000 26.629,155.731 26.928,155.402 27.054 C 155.074 27.181,154.897 27.434,155.011 27.617 C 155.217 27.951,156.491 27.838,157.156 27.427 C 157.350 27.307,157.732 27.477,158.004 27.804 C 158.276 28.132,158.341 28.417,158.149 28.438 C 157.020 28.562,163.847 29.542,166.024 29.568 C 170.175 29.618,170.221 29.694,170.086 36.252 C 169.953 42.738,169.736 43.200,166.838 43.199 L 165.000 43.199 165.120 49.199 L 165.240 55.200 166.931 55.200 C 168.912 55.200,170.799 56.926,170.801 58.741 C 170.802 59.324,171.162 60.389,171.601 61.110 C 172.041 61.830,172.400 62.775,172.400 63.210 C 172.400 63.887,172.675 64.000,174.325 64.000 C 177.429 64.000,179.420 66.553,177.600 68.200 C 176.545 69.154,176.591 69.532,177.797 69.835 C 178.346 69.973,178.695 70.246,178.574 70.443 C 178.452 70.639,178.734 70.800,179.200 70.800 C 179.670 70.800,179.936 70.980,179.797 71.205 C 179.657 71.431,180.109 71.722,180.818 71.864 C 181.872 72.074,181.975 72.182,181.417 72.494 C 180.793 72.843,180.797 72.911,181.472 73.423 C 182.156 73.941,182.141 73.975,181.238 73.987 C 180.349 73.999,180.324 74.053,180.905 74.700 C 181.697 75.582,181.624 77.596,180.800 77.609 C 180.398 77.615,180.531 77.876,181.200 78.400 C 181.765 78.842,181.964 79.186,181.657 79.191 C 181.340 79.196,181.210 79.450,181.345 79.800 C 181.471 80.130,181.412 80.400,181.213 80.400 C 179.740 80.400,178.618 81.273,179.376 81.830 C 180.020 82.302,180.042 82.400,179.505 82.400 C 179.149 82.400,178.569 82.688,178.218 83.039 C 177.659 83.598,175.447 83.705,160.696 83.887 C 151.410 84.001,143.465 84.224,143.040 84.381 C 141.902 84.802,198.499 85.200,259.492 85.200 C 297.775 85.200,313.087 85.325,313.681 85.643 L 314.509 86.087 314.232 123.943 C 313.921 166.461,313.714 163.220,316.845 164.949 L 318.200 165.697 316.700 164.419 L 315.200 163.142 315.200 144.833 C 315.200 127.901,315.253 126.477,315.900 125.897 C 316.599 125.271,319.767 124.034,323.231 123.036 C 324.238 122.746,325.498 122.232,326.031 121.894 C 326.564 121.555,327.567 121.160,328.261 121.016 C 328.954 120.872,330.208 120.404,331.046 119.977 C 331.884 119.550,332.936 119.199,333.385 119.198 C 333.833 119.196,334.737 118.915,335.393 118.573 C 337.604 117.420,341.456 116.000,342.372 116.000 C 342.873 116.000,344.119 115.564,345.141 115.030 C 346.163 114.497,348.530 113.498,350.400 112.812 C 352.270 112.125,354.160 111.398,354.600 111.196 C 356.031 110.539,360.156 109.166,362.000 108.733 C 362.990 108.501,364.070 108.086,364.400 107.812 C 364.730 107.538,365.540 107.133,366.200 106.912 C 369.124 105.935,374.271 101.365,376.200 98.034 C 376.860 96.894,377.715 95.583,378.100 95.120 C 378.485 94.657,378.800 93.985,378.800 93.628 C 378.800 93.270,379.092 92.562,379.448 92.053 C 380.705 90.258,382.340 83.112,382.376 79.254 C 382.403 76.420,380.647 68.566,379.766 67.574 C 379.460 67.229,379.097 66.384,378.959 65.694 C 378.821 65.005,378.369 64.134,377.954 63.758 C 377.539 63.383,377.200 62.899,377.200 62.683 C 377.200 62.167,372.889 57.105,372.051 56.636 C 371.693 56.436,370.973 55.854,370.452 55.342 C 369.930 54.831,368.580 53.948,367.452 53.380 C 366.323 52.813,364.950 52.093,364.400 51.780 C 363.850 51.468,363.076 51.209,362.680 51.206 C 362.284 51.203,361.384 50.902,360.680 50.537 C 359.829 50.097,357.723 49.766,354.400 49.551 C 351.650 49.372,348.573 48.967,347.562 48.651 C 346.551 48.334,343.671 47.951,341.162 47.799 C 338.653 47.647,335.700 47.271,334.600 46.964 C 333.500 46.657,330.379 46.224,327.665 46.004 C 324.951 45.783,321.801 45.347,320.665 45.036 C 319.529 44.724,316.800 44.357,314.600 44.220 C 312.400 44.083,309.486 43.712,308.124 43.397 C 306.763 43.081,304.153 42.709,302.324 42.570 C 300.496 42.432,298.100 42.057,297.000 41.738 C 295.900 41.418,292.750 40.986,290.000 40.777 C 287.250 40.568,283.830 40.137,282.400 39.820 C 280.970 39.503,277.910 39.117,275.600 38.963 C 273.290 38.809,270.714 38.443,269.875 38.150 C 269.036 37.857,265.886 37.422,262.875 37.183 C 259.864 36.944,256.952 36.564,256.404 36.339 C 255.856 36.114,252.706 35.673,249.404 35.359 C 246.102 35.045,242.860 34.619,242.200 34.412 C 241.540 34.205,238.930 33.848,236.400 33.620 C 233.870 33.391,231.170 33.017,230.400 32.787 C 229.630 32.557,226.960 32.197,224.467 31.986 C 221.973 31.775,219.003 31.337,217.867 31.012 C 216.730 30.686,213.370 30.251,210.400 30.044 C 207.430 29.836,204.492 29.472,203.872 29.233 C 203.252 28.994,200.787 28.627,198.394 28.417 C 196.002 28.207,193.089 27.769,191.922 27.444 C 190.755 27.119,187.730 26.729,185.200 26.577 C 182.670 26.426,179.610 26.044,178.400 25.730 C 177.190 25.415,174.220 24.976,171.800 24.753 C 169.380 24.531,166.500 24.104,165.400 23.805 C 164.300 23.505,160.970 23.051,158.000 22.795 C 155.030 22.539,151.520 22.078,150.200 21.771 C 148.880 21.463,146.900 21.207,145.800 21.202 C 144.700 21.197,142.015 20.832,139.834 20.391 C 137.652 19.950,133.573 19.426,130.769 19.227 C 127.965 19.029,125.311 18.674,124.873 18.439 C 124.434 18.204,122.309 17.815,120.152 17.574 C 117.994 17.334,115.502 16.884,114.614 16.574 C 112.065 15.686,98.406 15.840,94.000 16.807 M67.294 23.819 C 66.808 24.160,65.823 24.655,65.105 24.919 C 62.892 25.735,58.671 28.157,59.172 28.324 C 59.433 28.411,59.951 28.215,60.323 27.888 C 60.695 27.562,61.450 27.161,62.000 26.998 C 63.845 26.451,67.856 24.456,68.380 23.825 C 69.045 23.023,68.435 23.020,67.294 23.819 M57.029 29.029 C 56.077 29.980,56.276 30.228,57.300 29.366 C 57.795 28.950,58.275 28.562,58.367 28.504 C 58.458 28.447,58.336 28.400,58.095 28.400 C 57.854 28.400,57.374 28.683,57.029 29.029 M55.178 30.626 C 54.892 30.971,54.114 31.534,53.449 31.878 C 52.783 32.222,52.024 32.705,51.761 32.952 C 51.499 33.198,50.708 33.850,50.004 34.400 C 48.620 35.481,44.984 38.974,42.914 41.211 C 42.206 41.975,41.436 42.780,41.202 43.000 C 39.981 44.149,37.200 47.322,37.200 47.567 C 37.200 47.722,36.882 48.198,36.493 48.625 C 35.824 49.359,33.042 53.340,32.216 54.746 C 32.005 55.106,31.497 55.940,31.087 56.600 L 30.342 57.800 31.271 56.748 C 32.707 55.121,37.351 49.152,37.807 48.347 C 39.045 46.156,50.759 34.223,53.053 32.814 C 53.936 32.272,54.969 31.417,55.348 30.914 C 56.122 29.888,55.984 29.655,55.178 30.626 M27.898 62.100 C 26.425 64.659,24.925 68.040,24.614 69.500 C 24.461 70.215,24.178 70.800,23.984 70.800 C 23.790 70.800,23.371 71.655,23.052 72.700 C 22.734 73.745,22.187 75.269,21.837 76.087 C 21.487 76.905,21.208 77.895,21.218 78.287 C 21.227 78.679,21.516 78.280,21.859 77.400 C 22.202 76.520,22.797 74.990,23.182 74.000 C 23.567 73.010,24.178 71.531,24.541 70.713 C 24.903 69.895,25.200 69.122,25.200 68.994 C 25.200 68.867,25.988 67.376,26.952 65.681 C 28.511 62.939,29.518 60.400,29.046 60.400 C 28.952 60.400,28.436 61.165,27.898 62.100 M17.458 92.496 C 17.091 94.533,16.624 97.010,16.419 98.000 C 15.673 101.616,15.926 115.863,16.800 119.400 C 17.235 121.160,17.594 123.590,17.598 124.800 C 17.602 126.010,17.874 127.515,18.202 128.145 C 18.530 128.774,18.989 130.484,19.221 131.945 C 19.454 133.405,19.897 134.988,20.207 135.463 C 20.516 135.937,20.979 137.156,21.234 138.170 C 21.489 139.184,21.827 140.093,21.985 140.191 C 22.335 140.407,20.982 133.897,20.471 132.908 C 20.270 132.519,19.978 131.480,19.823 130.600 C 19.668 129.720,19.289 128.608,18.981 128.130 C 18.641 127.601,18.248 125.087,17.982 121.730 C 17.741 118.688,17.287 115.168,16.972 113.906 C 16.238 110.962,16.240 104.639,16.976 100.352 C 17.657 96.385,18.478 89.145,18.271 88.938 C 18.191 88.857,17.825 90.459,17.458 92.496 M148.400 112.414 C 147.630 112.591,145.480 113.022,143.623 113.372 C 141.765 113.723,139.872 114.254,139.414 114.554 C 138.957 114.854,137.776 115.231,136.791 115.393 C 135.806 115.555,134.730 115.915,134.400 116.193 C 134.070 116.471,133.139 116.911,132.332 117.170 C 131.525 117.429,130.648 117.902,130.383 118.220 C 130.118 118.539,129.661 118.800,129.367 118.800 C 129.072 118.800,128.509 119.126,128.116 119.524 C 127.722 119.922,126.395 120.902,125.166 121.702 C 120.463 124.761,115.052 131.307,112.354 137.200 C 111.901 138.190,111.186 139.655,110.765 140.454 C 110.344 141.254,110.000 142.389,110.000 142.976 C 110.000 143.564,109.609 144.889,109.131 145.922 C 107.982 148.406,107.803 165.114,108.899 167.662 C 109.245 168.466,109.734 170.118,109.986 171.331 C 110.238 172.545,110.692 173.745,110.996 173.997 C 111.300 174.249,111.673 175.021,111.825 175.712 C 111.976 176.403,112.400 177.426,112.766 177.984 C 113.132 178.543,113.605 179.294,113.816 179.654 C 116.497 184.217,120.380 188.707,124.086 191.530 C 126.832 193.622,133.592 197.600,134.400 197.600 C 134.678 197.600,135.467 197.937,136.153 198.349 C 136.839 198.761,138.210 199.220,139.200 199.369 C 140.190 199.518,141.450 199.943,142.000 200.314 C 143.729 201.478,162.557 201.302,165.763 200.092 C 167.062 199.601,168.474 199.200,168.900 199.200 C 169.325 199.200,170.131 198.840,170.691 198.400 C 171.250 197.960,172.047 197.600,172.462 197.600 C 173.178 197.600,177.185 195.642,178.211 194.791 C 178.544 194.514,178.849 194.577,179.196 194.995 C 179.472 195.328,179.937 195.600,180.229 195.600 C 180.521 195.600,180.906 195.861,181.085 196.180 C 181.690 197.261,187.707 202.000,188.474 202.000 C 189.296 202.000,189.822 201.511,193.200 197.617 C 194.410 196.221,195.940 194.508,196.600 193.808 C 197.260 193.109,198.441 191.795,199.225 190.888 L 200.650 189.239 198.625 187.107 C 197.511 185.935,195.752 184.290,194.716 183.453 C 192.409 181.588,192.036 180.639,193.147 179.457 C 194.426 178.095,197.586 171.538,197.608 170.200 C 197.618 169.540,197.975 168.280,198.400 167.400 C 199.617 164.880,199.578 149.347,198.344 145.600 C 195.968 138.379,194.315 134.715,192.708 133.108 C 192.319 132.719,192.000 132.228,192.000 132.018 C 192.000 130.385,182.353 120.400,180.775 120.400 C 180.564 120.400,179.539 119.807,178.496 119.083 C 176.081 117.405,172.527 115.684,170.767 115.339 C 170.015 115.192,169.014 114.822,168.542 114.517 C 168.071 114.213,166.181 113.719,164.342 113.420 C 162.504 113.120,160.280 112.683,159.400 112.447 C 157.567 111.957,150.483 111.935,148.400 112.414 M160.000 114.068 C 164.694 114.425,166.418 114.706,167.095 115.224 C 167.588 115.600,168.788 116.027,169.763 116.173 C 170.737 116.320,171.753 116.702,172.019 117.023 C 172.286 117.344,173.201 117.719,174.052 117.855 C 174.903 117.991,175.600 118.229,175.600 118.384 C 175.600 118.760,179.163 121.030,180.300 121.378 C 180.795 121.530,181.200 121.798,181.200 121.974 C 181.200 122.150,181.886 122.747,182.723 123.302 C 184.738 124.635,187.832 127.756,189.143 129.777 C 189.723 130.669,190.512 131.635,190.898 131.923 C 191.284 132.210,191.600 132.773,191.600 133.174 C 191.600 133.574,191.898 134.149,192.262 134.451 C 192.626 134.753,193.177 135.540,193.486 136.200 C 193.795 136.860,194.305 137.850,194.618 138.400 C 194.932 138.950,195.191 139.781,195.194 140.246 C 195.197 140.711,195.533 141.521,195.940 142.046 C 196.360 142.587,196.778 143.976,196.907 145.255 C 197.031 146.495,197.418 148.061,197.766 148.735 C 198.678 150.499,198.695 163.578,197.787 164.963 C 197.450 165.478,197.060 166.867,196.921 168.049 C 196.782 169.232,196.247 170.992,195.734 171.960 C 195.220 172.927,194.800 174.142,194.800 174.660 C 194.800 175.177,194.611 175.600,194.380 175.600 C 194.148 175.600,193.679 176.275,193.337 177.100 C 192.994 177.925,192.463 178.744,192.157 178.920 C 190.778 179.712,191.477 182.509,193.427 184.002 C 198.470 187.863,199.235 189.011,197.868 190.669 C 197.356 191.291,196.821 192.115,196.681 192.500 C 196.540 192.885,196.149 193.200,195.813 193.200 C 195.476 193.200,195.200 193.381,195.200 193.603 C 195.200 193.824,194.750 194.397,194.200 194.875 C 193.650 195.353,193.200 195.982,193.200 196.272 C 193.200 196.562,192.924 196.800,192.587 196.800 C 192.251 196.800,191.856 197.115,191.711 197.500 C 190.764 200.008,188.138 201.029,186.567 199.500 C 184.104 197.101,183.739 196.800,183.295 196.800 C 183.033 196.800,182.524 196.350,182.163 195.800 C 181.803 195.250,181.253 194.800,180.941 194.800 C 180.630 194.800,180.277 194.544,180.157 194.231 C 179.706 193.056,177.200 193.015,177.200 194.182 C 177.200 194.477,176.535 194.835,175.700 194.991 C 174.875 195.145,173.878 195.615,173.484 196.035 C 173.091 196.456,172.281 196.801,171.684 196.801 C 171.088 196.802,170.040 197.144,169.356 197.561 C 168.672 197.979,166.902 198.508,165.423 198.739 C 163.944 198.969,162.451 199.392,162.105 199.679 C 160.938 200.648,149.639 200.630,145.600 199.652 C 143.730 199.199,141.165 198.707,139.900 198.559 C 138.464 198.391,137.600 198.101,137.600 197.788 C 137.600 197.164,136.698 196.800,135.155 196.800 C 134.478 196.800,133.877 196.546,133.746 196.204 C 133.620 195.876,132.816 195.397,131.959 195.140 C 131.101 194.884,130.400 194.513,130.400 194.316 C 130.400 194.120,129.744 193.685,128.942 193.350 C 128.140 193.015,127.227 192.484,126.913 192.170 C 126.599 191.857,126.150 191.600,125.914 191.600 C 125.369 191.600,124.330 190.600,119.503 185.432 C 116.886 182.630,116.694 182.376,115.906 180.688 C 115.525 179.869,115.050 179.200,114.850 179.200 C 114.650 179.200,114.366 178.719,114.219 178.132 C 114.071 177.544,113.602 176.620,113.175 176.078 C 112.749 175.536,112.400 174.673,112.400 174.162 C 112.400 173.650,112.065 172.909,111.655 172.516 C 111.177 172.056,110.831 170.995,110.689 169.545 C 110.567 168.305,110.167 166.709,109.800 166.000 C 108.712 163.896,108.854 149.611,109.984 147.415 C 110.433 146.544,110.800 145.081,110.800 144.164 C 110.800 143.161,111.042 142.297,111.408 141.993 C 111.743 141.715,112.213 140.709,112.453 139.756 C 112.693 138.804,113.139 137.817,113.444 137.563 C 113.750 137.310,114.000 136.868,114.000 136.582 C 114.000 136.296,114.450 135.527,115.000 134.873 C 115.550 134.219,116.000 133.512,116.000 133.301 C 116.000 133.090,116.455 132.396,117.011 131.758 C 118.348 130.227,118.531 129.987,119.425 128.590 C 119.844 127.935,120.504 127.165,120.893 126.877 C 121.282 126.590,121.600 126.095,121.600 125.777 C 121.600 125.460,121.856 125.200,122.169 125.200 C 122.482 125.200,123.247 124.781,123.869 124.268 C 124.491 123.756,125.315 123.221,125.700 123.081 C 126.085 122.940,126.400 122.567,126.400 122.252 C 126.400 121.936,126.940 121.490,127.600 121.260 C 128.260 121.030,128.800 120.659,128.800 120.437 C 128.800 120.214,129.539 119.811,130.442 119.540 C 131.345 119.270,132.174 118.813,132.284 118.524 C 132.395 118.236,132.788 118.000,133.158 118.000 C 133.528 118.000,134.544 117.631,135.415 117.180 C 136.287 116.730,137.882 116.189,138.960 115.979 C 140.039 115.769,141.188 115.373,141.515 115.099 C 142.058 114.643,148.332 113.794,152.200 113.654 C 153.080 113.623,156.590 113.809,160.000 114.068 M215.000 113.869 C 214.560 113.984,214.064 114.205,213.897 114.361 C 213.142 115.070,213.472 199.717,214.233 200.274 C 215.355 201.094,248.946 201.031,252.127 200.202 C 253.389 199.873,255.452 199.495,256.711 199.362 C 259.118 199.108,263.878 197.671,266.626 196.370 C 267.521 195.946,268.534 195.600,268.877 195.600 C 269.221 195.600,269.725 195.331,269.998 195.003 C 270.271 194.674,271.504 193.827,272.739 193.120 C 274.847 191.915,275.920 191.050,279.594 187.600 C 281.646 185.673,286.400 179.695,286.400 179.042 C 286.400 178.748,286.760 178.050,287.200 177.491 C 287.640 176.931,288.000 176.250,288.000 175.977 C 288.000 175.704,288.437 174.562,288.972 173.440 C 291.784 167.535,293.089 150.713,291.072 146.382 C 290.717 145.622,290.236 144.122,290.001 143.049 C 289.766 141.976,289.310 140.721,288.987 140.260 C 288.664 139.799,288.393 139.147,288.384 138.811 C 288.376 138.475,287.752 137.210,286.997 136.000 C 286.243 134.790,285.251 133.115,284.794 132.279 C 283.831 130.518,278.098 124.668,275.896 123.200 C 275.071 122.650,274.082 121.975,273.698 121.700 C 269.228 118.498,264.104 116.322,258.914 115.422 C 257.327 115.147,255.725 114.669,255.353 114.361 C 254.675 113.798,217.031 113.339,215.000 113.869 M255.095 115.737 C 257.788 116.088,260.398 116.638,260.895 116.958 C 261.393 117.279,262.520 117.666,263.400 117.819 C 264.280 117.972,265.561 118.435,266.247 118.849 C 266.933 119.262,267.868 119.600,268.325 119.600 C 268.781 119.600,269.390 119.918,269.677 120.306 C 269.965 120.695,270.650 121.247,271.200 121.533 C 273.527 122.744,274.651 123.447,275.465 124.200 C 275.940 124.640,277.332 125.900,278.560 127.000 C 279.787 128.100,280.793 129.182,280.796 129.404 C 280.801 129.921,282.718 132.000,283.189 132.000 C 283.386 132.000,283.673 132.405,283.828 132.900 C 283.983 133.395,284.535 134.309,285.055 134.931 C 285.575 135.553,286.000 136.296,286.000 136.582 C 286.000 136.868,286.250 137.310,286.556 137.563 C 286.861 137.817,287.325 138.874,287.586 139.912 C 287.847 140.950,288.292 142.070,288.576 142.400 C 288.860 142.730,289.201 143.968,289.334 145.151 C 289.466 146.333,289.850 147.722,290.187 148.237 C 291.074 149.589,291.089 164.388,290.205 165.736 C 289.878 166.235,289.455 167.777,289.266 169.161 C 289.077 170.545,288.701 171.814,288.431 171.981 C 288.162 172.147,287.769 173.048,287.560 173.981 C 287.350 174.915,286.913 175.944,286.590 176.267 C 286.266 176.591,285.885 177.319,285.743 177.886 C 285.601 178.452,285.237 179.205,284.935 179.558 C 282.918 181.917,282.000 183.162,282.000 183.539 C 282.000 183.777,281.640 184.165,281.200 184.400 C 280.760 184.635,280.400 184.983,280.400 185.172 C 280.400 185.685,278.304 187.810,277.500 188.112 C 277.115 188.257,276.800 188.651,276.800 188.987 C 276.800 189.324,276.540 189.600,276.223 189.600 C 275.905 189.600,275.410 189.931,275.123 190.335 C 274.835 190.740,274.099 191.195,273.487 191.346 C 272.874 191.498,272.069 191.977,271.698 192.411 C 271.326 192.845,270.730 193.200,270.373 193.200 C 270.016 193.200,269.410 193.547,269.026 193.971 C 268.643 194.395,267.641 194.858,266.800 195.000 C 265.959 195.142,264.957 195.605,264.574 196.029 C 264.155 196.492,263.351 196.800,262.564 196.800 C 261.162 196.800,259.151 197.434,258.808 197.984 C 258.088 199.139,216.975 199.801,215.445 198.682 C 214.504 197.994,214.587 117.325,215.530 115.670 L 216.060 114.740 233.130 114.920 C 245.534 115.050,251.538 115.274,255.095 115.737 M147.474 129.582 C 146.855 129.781,146.135 130.117,145.874 130.327 C 145.613 130.537,144.633 130.836,143.695 130.991 C 142.631 131.166,141.836 131.559,141.581 132.036 C 141.356 132.456,140.761 132.800,140.258 132.800 C 139.755 132.800,138.953 133.250,138.475 133.800 C 137.997 134.350,137.443 134.800,137.245 134.800 C 136.870 134.800,134.400 136.979,134.400 137.310 C 134.400 137.414,133.691 138.274,132.825 139.222 C 131.959 140.169,131.138 141.393,131.000 141.941 C 130.863 142.489,130.402 143.380,129.975 143.922 C 129.549 144.464,129.200 145.224,129.200 145.610 C 129.200 145.997,128.844 147.097,128.409 148.056 C 127.723 149.568,127.618 150.679,127.618 156.400 C 127.618 162.121,127.723 163.232,128.409 164.744 C 128.844 165.703,129.200 166.855,129.200 167.305 C 129.200 168.530,131.116 172.341,132.014 172.902 C 132.446 173.172,132.800 173.603,132.800 173.860 C 132.800 174.420,138.167 180.000,138.706 180.000 C 138.913 180.000,139.569 180.450,140.162 181.000 C 140.756 181.550,141.623 182.000,142.089 182.000 C 142.555 182.000,143.248 182.281,143.627 182.625 C 144.007 182.968,145.428 183.406,146.786 183.598 C 148.143 183.790,149.500 184.151,149.801 184.401 C 150.478 184.963,157.239 184.712,160.400 184.008 C 161.610 183.738,162.960 183.454,163.400 183.376 C 165.869 182.940,165.928 180.446,163.500 179.146 C 163.009 178.884,161.939 178.023,161.123 177.234 C 160.307 176.445,159.066 175.350,158.365 174.800 C 157.664 174.250,156.536 173.305,155.856 172.700 C 155.177 172.095,154.392 171.600,154.111 171.600 C 153.830 171.600,153.600 171.324,153.600 170.987 C 153.600 170.651,153.337 170.274,153.015 170.150 C 152.226 169.848,153.072 168.565,156.000 165.624 C 157.210 164.409,159.198 162.223,160.419 160.768 C 162.954 157.745,163.193 157.723,165.886 160.259 C 169.028 163.218,172.118 165.802,172.856 166.087 C 173.265 166.245,173.600 166.564,173.600 166.797 C 173.600 167.030,174.050 167.391,174.600 167.600 C 175.150 167.809,175.600 168.234,175.600 168.543 C 175.600 168.853,175.963 169.202,176.407 169.318 C 177.268 169.543,178.400 168.689,178.400 167.815 C 178.400 167.525,178.756 166.503,179.191 165.544 C 180.359 162.969,180.359 152.631,179.191 150.056 C 178.756 149.097,178.400 147.942,178.400 147.488 C 178.400 146.476,176.188 141.854,175.384 141.187 C 175.063 140.920,174.800 140.475,174.800 140.197 C 174.800 139.132,167.992 132.800,166.848 132.800 C 166.479 132.800,165.870 132.440,165.493 132.000 C 165.116 131.560,164.398 131.200,163.898 131.200 C 163.398 131.200,162.271 130.809,161.394 130.332 C 159.628 129.370,149.781 128.839,147.474 129.582 M158.600 130.992 C 159.480 131.307,160.761 131.573,161.446 131.582 C 162.131 131.592,163.136 131.949,163.678 132.375 C 164.220 132.802,165.163 133.276,165.775 133.429 C 167.679 133.907,175.119 141.764,175.785 144.000 C 175.949 144.550,176.341 145.409,176.657 145.909 C 176.972 146.409,177.414 147.849,177.638 149.109 C 177.862 150.369,178.319 152.138,178.654 153.039 C 179.408 155.071,179.202 160.228,178.217 164.000 C 177.844 165.430,177.456 167.015,177.356 167.523 L 177.173 168.446 175.573 167.179 C 174.693 166.481,173.484 165.436,172.886 164.856 C 169.784 161.841,164.791 157.548,163.775 157.021 C 162.452 156.334,163.050 155.839,157.490 162.227 C 150.163 170.645,150.760 169.629,152.267 171.106 C 153.616 172.428,159.994 177.790,162.058 179.338 C 163.678 180.553,163.745 181.656,162.250 182.513 C 160.522 183.503,146.792 183.166,145.436 182.100 C 144.807 181.605,143.891 181.200,143.400 181.200 C 142.909 181.200,142.050 180.840,141.491 180.400 C 140.931 179.960,140.319 179.600,140.131 179.600 C 138.896 179.600,132.338 172.127,131.623 169.906 C 131.358 169.084,130.987 168.315,130.798 168.199 C 130.609 168.082,130.241 166.954,129.981 165.693 C 129.721 164.432,129.259 162.914,128.954 162.320 C 128.187 160.824,128.185 151.981,128.952 150.480 C 129.255 149.886,129.633 148.798,129.792 148.062 C 130.060 146.818,132.206 142.030,133.315 140.200 C 134.098 138.909,137.714 135.394,138.800 134.868 C 139.350 134.602,140.520 133.946,141.400 133.411 C 143.487 132.142,143.382 132.184,146.400 131.426 C 147.830 131.067,149.540 130.607,150.200 130.404 C 151.758 129.925,156.556 130.261,158.600 130.992 M233.005 130.947 C 232.324 131.445,231.887 182.046,232.554 183.126 C 232.918 183.714,249.471 183.779,251.600 183.201 C 252.370 182.991,254.172 182.501,255.604 182.110 C 257.036 181.720,258.651 181.085,259.193 180.700 C 259.735 180.315,260.406 180.000,260.686 180.000 C 260.965 180.000,261.418 179.640,261.693 179.200 C 261.968 178.760,262.374 178.399,262.596 178.398 C 263.406 178.394,268.152 173.437,269.104 171.600 C 269.389 171.050,269.885 170.150,270.205 169.600 C 270.526 169.050,270.791 168.115,270.794 167.523 C 270.797 166.930,271.162 165.832,271.605 165.082 C 273.514 161.847,272.624 149.364,270.160 144.800 C 269.863 144.250,269.279 143.080,268.863 142.200 C 267.845 140.050,263.173 135.287,261.525 134.719 C 260.796 134.468,259.965 133.934,259.677 133.531 C 259.390 133.129,258.760 132.799,258.277 132.797 C 257.795 132.796,256.875 132.448,256.233 132.025 C 254.385 130.807,234.461 129.882,233.005 130.947 M253.000 132.243 C 253.880 132.578,255.473 133.098,256.540 133.400 C 257.607 133.702,258.792 134.230,259.172 134.574 C 259.552 134.918,259.982 135.200,260.128 135.200 C 262.745 135.200,269.536 144.325,270.219 148.759 C 270.368 149.727,270.740 151.116,271.045 151.846 C 271.820 153.701,271.797 161.412,271.012 162.917 C 270.692 163.531,270.319 164.701,270.184 165.517 C 269.481 169.764,262.343 179.112,259.727 179.213 C 259.547 179.219,258.500 179.668,257.400 180.209 C 256.300 180.750,254.975 181.194,254.455 181.196 C 253.935 181.198,252.002 181.564,250.160 182.010 C 247.351 182.689,245.728 182.802,240.105 182.710 L 233.400 182.600 233.296 157.600 C 233.239 143.850,233.279 132.375,233.384 132.100 C 233.687 131.307,250.867 131.433,253.000 132.243 M23.205 143.400 C 23.205 143.620,23.563 144.340,24.000 145.000 C 24.437 145.660,24.795 146.020,24.795 145.800 C 24.795 145.580,24.437 144.860,24.000 144.200 C 23.563 143.540,23.205 143.180,23.205 143.400 M24.800 146.727 C 24.800 147.294,28.028 153.417,29.368 155.391 C 29.936 156.227,30.400 157.157,30.400 157.456 C 30.400 157.755,30.575 158.000,30.790 158.000 C 31.004 158.000,31.459 158.540,31.800 159.200 C 32.141 159.860,32.600 160.400,32.819 160.400 C 33.247 160.400,32.659 159.377,30.407 156.200 C 29.628 155.100,28.452 153.030,27.795 151.600 C 26.503 148.789,24.800 146.018,24.800 146.727 M35.595 164.400 C 38.095 167.628,39.115 168.800,39.422 168.800 C 39.843 168.800,37.661 166.004,35.675 164.000 L 33.892 162.200 35.595 164.400 M320.000 167.350 C 320.550 167.971,321.540 168.850,322.200 169.304 C 323.626 170.285,323.243 169.864,320.800 167.768 C 319.604 166.741,319.336 166.601,320.000 167.350 M41.100 170.721 C 41.595 171.165,42.000 171.687,42.000 171.881 C 42.000 172.297,45.109 175.340,46.053 175.849 C 46.412 176.042,47.492 176.872,48.453 177.693 C 49.414 178.515,51.460 180.173,53.000 181.378 C 54.540 182.583,56.098 183.829,56.462 184.146 C 56.826 184.464,59.346 186.562,62.062 188.808 C 66.979 192.874,70.113 195.543,73.578 198.615 C 74.580 199.503,76.089 200.739,76.932 201.360 C 77.775 201.981,78.984 202.964,79.618 203.545 C 80.253 204.125,81.319 205.019,81.986 205.530 C 82.654 206.042,83.306 206.884,83.436 207.401 C 83.566 207.919,83.926 208.439,84.236 208.559 C 84.977 208.843,85.034 213.158,84.300 213.369 C 84.025 213.448,82.737 213.748,81.437 214.035 C 80.137 214.323,79.296 214.632,79.567 214.722 C 80.075 214.892,82.954 214.239,84.900 213.513 C 87.037 212.716,85.974 205.900,83.678 205.675 C 82.741 205.583,81.847 204.967,80.302 203.348 C 79.146 202.137,77.712 200.887,77.115 200.571 C 76.518 200.254,74.480 198.466,72.586 196.597 C 70.692 194.729,68.983 193.200,68.789 193.200 C 68.055 193.200,65.372 191.087,61.934 187.802 C 59.976 185.931,58.209 184.400,58.007 184.400 C 57.436 184.400,54.374 182.222,52.566 180.529 C 51.667 179.688,50.057 178.280,48.986 177.400 C 47.916 176.520,45.951 174.743,44.620 173.452 C 43.289 172.161,41.750 170.836,41.200 170.509 L 40.200 169.913 41.100 170.721 M334.996 179.979 C 335.433 180.471,336.153 181.064,336.596 181.295 C 337.399 181.716,337.399 181.715,336.604 180.821 C 336.167 180.329,335.447 179.736,335.004 179.505 C 334.201 179.084,334.201 179.085,334.996 179.979 M338.967 182.962 C 339.828 183.753,340.638 184.285,340.767 184.145 C 340.895 184.005,340.768 183.808,340.485 183.707 C 340.202 183.606,339.392 183.074,338.685 182.524 C 337.846 181.871,337.944 182.024,338.967 182.962 M75.800 215.228 C 75.140 215.418,73.340 215.924,71.800 216.353 C 69.268 217.059,67.306 217.807,63.800 219.403 C 59.181 221.506,57.126 222.590,55.200 223.939 C 53.990 224.786,51.962 226.148,50.694 226.966 C 46.652 229.569,37.018 239.398,35.155 242.819 C 34.850 243.380,34.002 244.640,33.271 245.619 C 31.086 248.548,28.402 252.932,28.140 254.000 C 28.005 254.550,27.562 255.368,27.156 255.817 C 26.365 256.691,22.817 264.264,22.806 265.101 C 22.803 265.377,22.440 266.275,22.000 267.096 C 21.560 267.916,21.215 268.951,21.234 269.394 C 21.263 270.061,21.322 270.027,21.577 269.200 C 21.747 268.650,22.632 266.650,23.543 264.755 C 24.454 262.861,25.200 261.111,25.200 260.867 C 25.200 260.042,27.066 256.204,27.735 255.651 C 28.101 255.349,28.400 254.809,28.400 254.451 C 28.400 253.696,32.165 247.665,33.936 245.585 C 34.598 244.806,35.361 243.684,35.632 243.090 C 35.902 242.497,36.531 241.744,37.029 241.418 C 37.527 241.092,38.790 239.694,39.837 238.312 C 44.473 232.189,50.560 226.938,53.438 226.578 C 55.402 226.333,55.667 226.179,56.251 224.949 C 57.095 223.170,58.719 221.840,61.084 220.990 C 62.138 220.611,64.530 219.606,66.400 218.756 C 68.270 217.905,70.880 217.038,72.200 216.828 C 74.936 216.392,79.577 214.814,78.000 214.855 C 77.450 214.870,76.460 215.037,75.800 215.228 M377.630 231.420 C 377.647 231.629,377.919 232.430,378.236 233.200 L 378.810 234.600 378.598 233.213 C 378.411 231.995,377.548 230.397,377.630 231.420 M381.365 243.679 L 381.800 245.800 381.928 244.242 C 382.006 243.284,381.838 242.467,381.493 242.121 C 381.009 241.638,380.991 241.857,381.365 243.679 M20.474 271.897 C 20.186 272.724,19.701 274.376,19.395 275.568 C 19.090 276.761,18.653 278.201,18.424 278.768 C 16.720 282.985,15.617 299.357,16.580 306.125 C 16.899 308.366,17.360 311.804,17.604 313.765 C 17.848 315.726,18.385 318.426,18.796 319.765 C 19.208 321.104,20.014 323.730,20.589 325.600 C 21.164 327.470,21.906 329.450,22.238 330.000 C 22.570 330.550,22.755 330.730,22.648 330.400 C 22.542 330.070,22.156 328.810,21.790 327.600 C 21.424 326.390,20.519 323.499,19.778 321.176 C 16.847 311.986,16.253 286.477,18.800 279.200 C 19.844 276.215,21.251 271.153,21.133 270.800 C 21.059 270.576,20.762 271.070,20.474 271.897 M115.167 271.071 C 114.356 271.412,113.977 271.917,113.792 272.901 C 113.441 274.772,113.722 285.458,114.133 285.868 C 114.679 286.412,197.974 286.508,199.281 285.966 C 200.721 285.370,200.895 284.328,200.731 277.289 C 200.644 273.534,200.436 271.474,200.112 271.151 C 199.417 270.457,116.812 270.379,115.167 271.071 M199.113 277.787 C 199.185 281.108,199.056 283.383,198.754 284.111 L 198.283 285.248 157.441 285.124 C 125.087 285.026,116.413 284.893,115.700 284.486 C 114.628 283.874,114.263 273.084,115.300 272.664 C 115.575 272.552,134.520 272.492,157.400 272.531 L 199.000 272.600 199.113 277.787 M377.886 294.817 C 377.514 295.766,377.273 296.606,377.352 296.685 C 377.598 296.931,378.863 293.988,378.709 293.528 C 378.629 293.288,378.259 293.868,377.886 294.817 M374.210 303.580 C 373.375 305.196,373.445 305.501,374.400 304.400 C 375.127 303.562,375.481 302.400,375.010 302.400 C 374.906 302.400,374.546 302.931,374.210 303.580 M22.804 331.553 C 22.802 331.857,23.146 332.667,23.569 333.353 C 23.993 334.039,24.730 335.647,25.208 336.928 C 25.687 338.208,26.168 339.165,26.278 339.055 C 26.567 338.766,24.921 334.525,23.781 332.623 C 23.245 331.730,22.806 331.249,22.804 331.553 M351.000 335.447 C 350.340 336.007,348.929 337.170,347.864 338.032 C 346.799 338.895,346.059 339.600,346.220 339.600 C 346.550 339.600,351.903 335.280,352.233 334.747 C 352.575 334.193,352.282 334.359,351.000 335.447 M26.400 339.812 C 26.400 339.962,26.850 340.619,27.400 341.273 C 27.950 341.927,28.400 342.339,28.400 342.188 C 28.400 342.038,27.950 341.381,27.400 340.727 C 26.850 340.073,26.400 339.661,26.400 339.812 M30.165 345.600 C 30.528 346.150,31.197 347.185,31.652 347.900 C 32.107 348.615,32.616 349.200,32.783 349.200 C 32.950 349.200,33.720 350.145,34.494 351.300 C 35.700 353.099,38.642 356.753,40.532 358.800 C 40.836 359.130,41.951 360.120,43.009 361.000 C 44.066 361.880,46.174 363.706,47.692 365.057 C 50.372 367.443,56.729 372.000,57.377 372.000 C 58.101 372.000,56.501 370.642,55.006 369.988 C 53.085 369.146,48.271 365.102,41.688 358.800 C 39.566 356.769,38.596 355.645,33.285 349.065 C 30.527 345.650,29.294 344.279,30.165 345.600 M312.100 353.876 C 312.485 353.976,313.115 353.976,313.500 353.876 C 313.885 353.775,313.570 353.693,312.800 353.693 C 312.030 353.693,311.715 353.775,312.100 353.876 M265.400 360.266 C 264.960 360.352,262.890 360.587,260.800 360.789 L 257.000 361.154 261.600 361.009 C 264.130 360.928,266.650 360.680,267.200 360.457 L 268.200 360.051 267.200 360.080 C 266.650 360.096,265.840 360.180,265.400 360.266 M191.800 371.037 L 189.000 371.566 191.831 371.441 C 193.389 371.373,195.009 371.116,195.431 370.870 C 196.462 370.272,195.652 370.309,191.800 371.037 M58.744 372.768 C 59.264 373.226,59.920 373.600,60.204 373.600 C 60.673 373.600,64.814 375.639,65.791 376.351 C 66.435 376.821,72.872 379.121,78.400 380.858 C 86.987 383.555,109.867 384.949,113.400 382.991 C 114.473 382.396,114.494 382.351,113.600 382.562 C 104.618 384.677,83.657 382.788,75.200 379.101 C 74.430 378.765,72.276 378.005,70.414 377.413 C 68.551 376.820,65.658 375.629,63.984 374.767 C 62.309 373.905,60.678 373.200,60.359 373.200 C 60.039 373.200,59.333 372.916,58.789 372.568 L 57.800 371.936 58.744 372.768 M171.700 373.876 C 172.085 373.976,172.715 373.976,173.100 373.876 C 173.485 373.775,173.170 373.693,172.400 373.693 C 171.630 373.693,171.315 373.775,171.700 373.876 M169.200 374.400 C 168.376 374.664,168.341 374.726,169.000 374.754 C 169.440 374.773,170.070 374.613,170.400 374.400 C 171.101 373.947,170.614 373.947,169.200 374.400 M165.700 375.076 C 166.085 375.176,166.715 375.176,167.100 375.076 C 167.485 374.975,167.170 374.893,166.400 374.893 C 165.630 374.893,165.315 374.975,165.700 375.076 M150.500 377.076 C 150.885 377.176,151.515 377.176,151.900 377.076 C 152.285 376.975,151.970 376.893,151.200 376.893 C 150.430 376.893,150.115 376.975,150.500 377.076 M142.800 378.228 L 141.000 378.778 143.506 378.663 C 144.884 378.600,146.225 378.335,146.486 378.074 C 147.139 377.421,145.174 377.503,142.800 378.228 M134.400 379.417 C 133.190 379.719,131.480 380.001,130.600 380.043 C 129.206 380.110,129.154 380.143,130.200 380.299 C 130.860 380.397,132.840 380.193,134.600 379.845 C 136.360 379.497,138.250 379.144,138.800 379.060 C 139.350 378.977,139.080 378.900,138.200 378.888 C 137.320 378.877,135.610 379.115,134.400 379.417 M125.705 380.687 C 126.314 380.779,127.214 380.777,127.705 380.682 C 128.197 380.587,127.700 380.511,126.600 380.514 C 125.500 380.517,125.097 380.595,125.705 380.687 M121.925 381.008 C 121.811 381.122,120.116 381.479,118.159 381.800 C 114.649 382.376,114.639 382.381,117.400 382.168 C 120.745 381.909,125.315 380.888,123.367 380.834 C 122.688 380.815,122.040 380.894,121.925 381.008 "
      fill-rule="evenodd"></path>
  </g>
  </g>
</svg>
