<svg xmlns="http://www.w3.org/2000/svg" width="16" height="16" data-big="true" viewBox="0 0 400 400"><g fill="#d6479c" fill-rule="evenodd"><path d="M90.2 18.377c-4.615.336-10.417 1.447-11.643 2.229-.464.296-1.994.743-3.4.993-3.365.599-5.969 1.487-6.957 2.373-.829.742-4.452 2.512-6.2 3.028-.55.162-1.27.519-1.6.794-.33.274-1.059.607-1.62.74-.561.132-1.762.926-2.669 1.763-.907.838-2.518 2.141-3.58 2.897-2.727 1.941-13.625 13.16-14.684 15.116-.205.379-1.036 1.5-1.847 2.49-3.795 4.634-6.027 7.859-6.61 9.552-.674 1.954-1.345 3.393-3.103 6.648-1.372 2.542-2.755 5.866-4.686 11.269-.407 1.138-.959 2.479-1.227 2.98-.727 1.357-1.869 6.951-2.375 11.627-.245 2.268-.705 5.633-1.022 7.476-.737 4.285-.739 10.609-.005 13.554.315 1.262.769 4.782 1.01 7.824.266 3.357.659 5.871.999 6.4.308.478.687 1.59.842 2.47s.446 1.917.646 2.304.719 2.366 1.153 4.397c.702 3.285 3.178 9.33 4.546 11.099.255.33.995 1.77 1.643 3.2s1.831 3.504 2.628 4.608a54 54 0 0 1 2.691 4.206c.682 1.209 1.938 2.915 2.791 3.792.852.877 2.304 2.629 3.227 3.894.922 1.265 1.815 2.3 1.984 2.3s1.569 1.215 3.111 2.7 3.678 3.42 4.746 4.3a91 91 0 0 1 3.577 3.129c1.808 1.693 4.87 3.871 5.441 3.871.202 0 1.969 1.531 3.927 3.402 3.438 3.285 6.121 5.398 6.855 5.398.194 0 1.903 1.529 3.797 3.397 1.894 1.869 3.932 3.657 4.529 3.974.597.316 2.022 1.557 3.167 2.756 2.376 2.49 4.69 3.26 5.072 1.69.109-.449.213-27.362.232-59.807.022-39.911.166-59.122.445-59.4.266-.264 5.273-.41 14.091-.41 7.523 0 29.698-.088 49.278-.195 35.388-.193 35.472-.196 14.2-.4-24.756-.237-25.881-.705-2.307-.958 14.204-.153 16.374-.257 16.928-.811.35-.35.928-.636 1.284-.636.537 0 .515-.098-.129-.57-.758-.557.364-1.43 1.837-1.43.199 0 .258-.27.132-.6-.135-.35-.005-.604.312-.609.307-.005.108-.349-.457-.791-.669-.524-.802-.785-.4-.791.824-.013.897-2.027.105-2.909-.581-.647-.556-.701.333-.713.903-.012.918-.046.234-.564-.675-.512-.679-.58-.055-.929.558-.312.455-.42-.599-.63-.709-.142-1.161-.433-1.021-.659.139-.225-.127-.405-.597-.405-.466 0-.748-.161-.626-.357.121-.197-.228-.47-.777-.608-1.206-.303-1.252-.681-.197-1.635 1.82-1.647-.171-4.2-3.275-4.2-1.65 0-1.925-.113-1.925-.79 0-.435-.359-1.38-.799-2.1-.439-.721-.799-1.786-.8-2.369-.002-1.815-1.889-3.541-3.87-3.541h-1.691l-.12-6.001-.12-6h1.838c2.898.001 3.115-.461 3.248-6.947.135-6.558.089-6.634-4.062-6.684-2.177-.026-9.004-1.006-7.875-1.13.192-.021.127-.306-.145-.634-.272-.327-.654-.497-.848-.377-.665.411-1.939.524-2.145.19-.114-.183.063-.436.391-.563.329-.126.598-.425.598-.665s-.165-.334-.366-.21-.437.013-.524-.248c-.113-.341-1.748-.452-5.813-.395l-5.655.08-1.458-1.459c-1.581-1.581-3.224-2.132-6.399-2.147-1.179-.006-2.64-.328-3.517-.776-.923-.47-2.846-.875-4.985-1.05-1.916-.157-4.383-.64-5.483-1.072-2.214-.872-23.067-1.356-31.6-.735m224 218.833c0 74.753-.004 75.172-.804 75.972-.798.798-1.334.805-78.4.984-49.674.115-78.819.328-80.996.592-1.87.227-6.524.498-10.343.603s-7.043.292-7.166.415-.004.224.266.224.379.18.243.4.123.4.576.4.824.18.824.4.529.4 1.176.4 1.28.167 1.406.37c.125.204.779.301 1.453.215.721-.091 1.827.168 2.689.63.805.432 1.652.785 1.881.785.935 0 2.296 1.29 1.736 1.645-.445.282-.439.344.035.349.417.004.366.161-.183.562-.792.579-.501.954 2.576 3.331.571.441.568.489-.029.5-.486.01-.66.385-.66 1.424 0 .776-.21 1.664-.467 1.973-.371.448-.257.699.56 1.235.942.617 1.541 1.746.627 1.181-.22-.136-.4-.067-.4.153s.187.516.416.657.307.602.173 1.024c-.136.428-.055.766.184.766.235 0 .392.135.35.3s.232 1.615.61 3.222c.378 1.608.569 3.113.426 3.345a.506.506 0 0 0 .174.692c.519.321.856 26.842.34 26.841-.18 0-.217.345-.084.766.134.422.064.878-.155 1.013-.22.136-.309.482-.198.77.378.985-.901 1.435-4.606 1.622-4.336.219-5.47.768-5.858 2.836-.363 1.938-1.46 2.592-4.361 2.6-1.326.004-3.662.272-5.19.596s-5.039.769-7.8.99c-8.121.65-9.485.861-10.684 1.655l-1.137.754 2-.243c1.1-.134 3.258-.494 4.796-.8 1.537-.306 4.777-.743 7.2-.973s5.61-.68 7.083-1.001c1.473-.322 3.455-.585 4.403-.585s2.352-.184 3.121-.408c2.056-.6 8.913-1.592 11.007-1.592.999 0 2.422-.253 3.162-.563s3.66-.765 6.487-1.014 6.041-.696 7.141-.994 3.572-.653 5.493-.788c1.922-.134 5.252-.589 7.4-1.011 3.972-.779 12.985-2.088 19.507-2.833 1.98-.227 4.77-.675 6.2-.996s3.5-.593 4.6-.603 3.53-.369 5.4-.798 4.3-.791 5.4-.806c1.1-.014 3.35-.298 5-.631s5.095-.852 7.657-1.154c2.561-.301 5.348-.738 6.193-.972.846-.233 3.88-.633 6.744-.888 3.267-.291 5.727-.72 6.606-1.152.861-.423 2.941-.795 5.4-.966 2.2-.152 4.81-.447 5.8-.654s3.886-.549 6.435-.762 5.159-.589 5.8-.838c.641-.248 3.415-.695 6.165-.992s6.44-.814 8.2-1.149c1.76-.334 4.28-.617 5.6-.629 1.32-.011 3.66-.301 5.2-.643 1.54-.343 4.69-.873 7-1.18s5.184-.833 6.387-1.17c1.203-.338 2.52-.614 2.926-.614s1.582-.34 2.613-.754a367 367 0 0 1 5.224-2.028c1.842-.7 3.642-1.436 4-1.636.357-.199 1.28-.638 2.05-.975s2.12-1.049 3-1.582 2.14-1.277 2.8-1.653 1.29-.812 1.4-.97.674-.537 1.254-.844c1.059-.56 2.967-2.045 6.278-4.886.979-.84 2.25-1.82 2.824-2.177 1.981-1.233 8.838-8.718 11.888-12.976 2.639-3.684 5.295-7.802 6.269-9.719 1.594-3.135 3.087-6.442 3.088-6.839.001-.198.655-1.441 1.454-2.761.8-1.32 1.679-3.3 1.953-4.4.275-1.1.992-3.26 1.594-4.8s1.355-3.88 1.674-5.2.825-2.94 1.127-3.6c.301-.66.66-2.73.797-4.6s.508-5.341.825-7.714c1.431-10.732-.272-26.642-3.854-35.988-.654-1.706-1.467-4.226-1.808-5.6s-.967-2.986-1.391-3.582-.772-1.343-.772-1.659c0-.489-1.552-3.632-4.851-9.819-.399-.749-1.054-1.739-1.455-2.2s-1.515-2.008-2.474-3.438-2.122-3.015-2.583-3.522c-.46-.506-1.2-1.316-1.644-1.8-.443-.483-1.604-1.931-2.579-3.217-.974-1.287-4.031-4.214-6.793-6.504s-6.659-5.558-8.66-7.261-4.498-3.726-5.547-4.496-2.849-2.255-3.999-3.3c-1.151-1.045-2.24-1.9-2.419-1.9-.18 0-1.063-.697-1.962-1.549-3.227-3.059-5.664-5.139-7.434-6.345-.99-.674-2.334-1.79-2.988-2.479s-1.955-1.704-2.894-2.254-1.934-1.434-2.212-1.965c-.41-.781-.506 13.375-.506 74.202M84.4 213.8l-1 .572 1.1.014c.717.009 1.1-.195 1.1-.586 0-.715.052-.715-1.2 0m.278 8.056c-.32.319.041.944.546.944.207 0 .376-.27.376-.6 0-.619-.472-.795-.922-.344M155.2 370.824c0 .207-.225.331-.5.276s-.455.125-.4.4-.065.5-.267.5c-.666 0-.715-.991-.073-1.465.661-.486 1.24-.352 1.24.289m-54.9 12.665c.715.089 1.885.089 2.6 0 .715-.088.13-.161-1.3-.161s-2.015.073-1.3.161"/><path fill="#fbfafa" d="M87 85h200v200H87z"/><path fill="#120e21" d="M87.2 85.514c-.55.084-1.128.275-1.284.424-.207.197-.365 101.002-.196 125.262.01 1.43-.011 25.003-.047 52.384-.044 34.025.067 49.916.351 50.2.287.286 35.632.39 113.468.333l113.051-.082.828-.829.829-.828.017-113.219c.017-109.27-.008-113.233-.714-113.611-.692-.37-223.905-.404-226.303-.034m72.2 26.933c.88.236 3.104.673 4.942.973s3.729.793 4.2 1.097c.472.305 1.473.675 2.225.822 1.76.345 5.314 2.066 7.729 3.744 1.043.724 2.068 1.317 2.279 1.317 1.578 0 11.225 9.985 11.225 11.618 0 .21.319.701.708 1.09 1.607 1.607 3.26 5.271 5.636 12.492 1.234 3.747 1.273 19.28.056 21.8-.425.88-.782 2.14-.792 2.8-.022 1.338-3.182 7.895-4.461 9.257-1.111 1.182-.738 2.131 1.569 3.996 1.036.837 2.795 2.482 3.909 3.654l2.025 2.132-1.425 1.649c-.784.907-1.965 2.221-2.625 2.92-.66.7-2.19 2.413-3.4 3.809-3.378 3.894-3.904 4.383-4.726 4.383-.767 0-6.784-4.739-7.389-5.82-.179-.319-.564-.58-.856-.58s-.757-.272-1.033-.605c-.347-.418-.652-.481-.985-.204-1.026.851-5.033 2.809-5.749 2.809-.415 0-1.212.36-1.771.8-.56.44-1.366.8-1.791.8-.426 0-1.838.401-3.137.892-3.206 1.21-22.034 1.386-23.763.222-.55-.371-1.81-.796-2.8-.945s-2.361-.608-3.047-1.02-1.475-.749-1.753-.749c-.808 0-7.568-3.978-10.314-6.07-3.706-2.823-7.589-7.313-10.27-11.876a51 51 0 0 0-1.05-1.67c-.366-.558-.79-1.581-.941-2.272-.152-.691-.525-1.463-.829-1.715s-.758-1.452-1.01-2.666-.741-2.865-1.087-3.669c-1.096-2.548-.917-19.256.232-21.74.478-1.033.869-2.358.869-2.946 0-.587.344-1.722.765-2.522a79 79 0 0 0 1.589-3.254c2.698-5.893 8.109-12.439 12.812-15.498 1.229-.8 2.556-1.78 2.95-2.178.393-.398.956-.724 1.251-.724s.751-.261 1.016-.58 1.142-.791 1.949-1.05 1.738-.699 2.068-.977 1.406-.638 2.391-.8 2.166-.539 2.623-.839 2.351-.831 4.209-1.182c1.857-.35 4.007-.781 4.777-.958 2.083-.479 9.167-.457 11 .033m95.953 1.914c.372.308 1.974.786 3.561 1.061 5.19.9 10.314 3.076 14.784 6.278.384.275 1.373.95 2.198 1.5 2.202 1.468 7.935 7.318 8.898 9.079a95 95 0 0 0 2.203 3.721c.755 1.21 1.379 2.475 1.387 2.811s.28.988.603 1.449.779 1.716 1.014 2.789.716 2.573 1.071 3.333c2.017 4.331.712 21.153-2.1 27.058-.535 1.122-.972 2.264-.972 2.537s-.36.954-.8 1.514c-.44.559-.8 1.257-.8 1.551 0 1.931-9.448 11.668-13.661 14.078-1.235.707-2.468 1.554-2.741 1.883s-.777.597-1.121.597-1.356.346-2.251.77c-2.748 1.301-7.508 2.738-9.915 2.992-1.259.133-3.322.511-4.584.84-3.181.829-36.772.892-37.894.072-.761-.557-1.091-85.204-.336-85.913.681-.638 2.712-.698 21.342-.631 16.012.058 19.558.169 20.114.631M150.2 130.404c-.66.203-2.37.663-3.8 1.022-3.018.758-2.913.716-5 1.985-.88.535-2.05 1.191-2.6 1.457-1.086.526-4.702 4.041-5.485 5.332-1.109 1.83-3.255 6.618-3.523 7.862-.159.736-.537 1.824-.84 2.418-.767 1.501-.765 10.344.002 11.84.305.594.767 2.112 1.027 3.373s.628 2.389.817 2.506.56.885.825 1.707c.715 2.221 7.273 9.694 8.508 9.694.188 0 .8.36 1.36.8.559.44 1.418.8 1.909.8s1.407.405 2.036.9c1.356 1.066 15.086 1.403 16.814.413 1.495-.857 1.428-1.96-.192-3.175-2.064-1.548-8.442-6.91-9.791-8.232-1.327-1.3-1.318-1.351.623-3.589 4.217-4.862 7.818-8.983 8.719-9.98 1.406-1.555 3.631-.111 11.277 7.319.598.58 1.807 1.625 2.687 2.323l1.6 1.267.183-.923c.1-.508.488-2.093.861-3.523.985-3.772 1.191-8.929.437-10.961-.335-.901-.792-2.67-1.016-3.93s-.666-2.7-.981-3.2a9.3 9.3 0 0 1-.872-1.909c-.666-2.236-8.106-10.093-10.01-10.571-.612-.153-1.555-.627-2.097-1.054-.542-.426-1.547-.783-2.232-.793-.685-.009-1.966-.275-2.846-.59-2.044-.731-6.842-1.067-8.4-.588m83.184 1.696c-.105.275-.145 11.75-.088 25.5l.104 25 6.705.11c5.623.092 7.246-.021 10.055-.7 1.842-.446 3.775-.812 4.295-.814s1.845-.446 2.945-.987 2.147-.99 2.327-.996c2.616-.101 9.754-9.449 10.457-13.696.135-.816.508-1.986.828-2.6.785-1.505.808-9.216.033-11.071-.305-.73-.677-2.119-.826-3.087-.683-4.434-7.474-13.559-10.091-13.559-.146 0-.576-.282-.956-.626s-1.565-.872-2.632-1.174a52 52 0 0 1-3.54-1.157c-2.133-.81-19.313-.936-19.616-.143m-33.272 139.051c.324.323.532 2.383.619 6.138.164 7.039-.01 8.081-1.45 8.677-1.307.542-84.602.446-85.148-.098-.411-.41-.692-11.096-.341-12.967.185-.984.564-1.489 1.375-1.83 1.645-.692 84.25-.614 84.945.08"/><path d="M80.4 214.83c-1.65.358-3.5.855-4.11 1.104s-2.321.639-3.8.864c-1.499.229-4.196 1.096-6.09 1.957-1.87.851-4.262 1.856-5.316 2.235-2.365.85-3.989 2.18-4.833 3.959-.584 1.23-.849 1.384-2.813 1.629-2.878.36-8.965 5.611-13.601 11.734-1.047 1.382-2.31 2.78-2.808 3.106s-1.127 1.079-1.397 1.672c-.271.594-1.034 1.716-1.696 2.495-1.771 2.08-5.536 8.111-5.536 8.866 0 .358-.299.898-.665 1.2-.669.553-2.535 4.391-2.535 5.216 0 .244-.749 1.994-1.664 3.888-.915 1.895-1.978 4.705-2.362 6.245s-1.093 4.06-1.575 5.6c-3.227 10.309-3.225 34.177.004 43.8.627 1.87 1.431 4.569 1.786 5.998.354 1.429 1.436 4.219 2.403 6.2s2.056 4.534 2.419 5.673c.364 1.139 1.006 2.382 1.426 2.762s.763.912.763 1.181c0 .694 4.621 6.832 5.355 7.113.335.129.967.918 1.404 1.754.934 1.785 5.009 6.459 7.812 8.96 1.085.967 2.885 2.601 4 3.629 3.902 3.597 6.439 5.625 7.737 6.184.719.31 2.128 1.189 3.131 1.955 1.002.765 2.11 1.391 2.461 1.391.352 0 2.027.714 3.722 1.587s4.319 1.966 5.83 2.428 3.648 1.206 4.748 1.652c10.529 4.271 34.884 6.144 39.6 3.046 1.638-1.076 2.417-1.2 13.33-2.12 1.612-.136 4.132-.502 5.6-.813 1.469-.311 3.755-.569 5.081-.573 2.901-.008 3.998-.662 4.361-2.6.388-2.068 1.522-2.617 5.858-2.836 3.705-.187 4.984-.637 4.606-1.622-.111-.288-.022-.634.198-.77.219-.135.289-.591.155-1.013s-.096-.766.084-.766c.516.001.179-26.52-.34-26.841a.506.506 0 0 1-.174-.692c.143-.232-.048-1.737-.426-3.345-.378-1.607-.652-3.057-.61-3.222s-.115-.3-.35-.3c-.239 0-.32-.338-.184-.766.134-.422.056-.882-.173-1.024-.229-.141-.416-.437-.416-.657s.18-.289.4-.153c.914.565.315-.564-.627-1.181-.817-.536-.931-.787-.56-1.235.257-.309.467-1.197.467-1.973 0-1.039.174-1.414.66-1.424.597-.011.6-.059.029-.5-3.077-2.377-3.368-2.752-2.576-3.331.549-.401.6-.558.183-.562-.474-.005-.48-.067-.035-.349.56-.355-.801-1.645-1.736-1.645-.229 0-1.076-.353-1.881-.785-.862-.462-1.968-.721-2.689-.63-.674.086-1.328-.011-1.453-.215-.126-.203-.759-.37-1.406-.37s-1.176-.18-1.176-.4-.371-.4-.824-.4-.721-.165-.597-.366 0-.457-.277-.568c-.572-.231.958-.338 6.776-.473 5.32-.123 12.623-.625 12.397-.851-.098-.098-15.735-.228-34.749-.289s-34.786-.243-35.048-.405c-.366-.226-.478-10.925-.478-45.629 0-42.805-.039-45.349-.7-45.605-.649-.252-.652-.307-.035-.761.529-.39.667-1.194.675-3.93.011-4.094-.13-4.179-5.14-3.093m73.56 155.705c-.642.474-.593 1.465.073 1.465.202 0 .322-.225.267-.5s.125-.455.4-.4.5-.069.5-.276c0-.641-.579-.775-1.24-.289"/><path d="M94 16.807c-1.87.411-4.75.87-6.4 1.021s-3.578.51-4.285.797c-.706.287-2.146.647-3.2.801-1.053.153-2.549.598-3.324.988-.776.391-2.255.837-3.287.991s-2.109.562-2.391.904c-.447.542-.41.568.287.207.44-.229 2.035-.627 3.544-.885s3.128-.716 3.6-1.018c3.929-2.515 37.688-3.677 43.278-1.489 1.088.426 3.545.903 5.461 1.06 2.139.175 4.062.58 4.985 1.05.877.448 2.338.77 3.517.776 3.175.015 4.818.566 6.399 2.147l1.458 1.459 5.655-.08c4.065-.057 5.7.054 5.813.395.087.261.323.372.524.248s.366-.03.366.21-.269.539-.598.665c-.328.127-.505.38-.391.563.206.334 1.48.221 2.145-.19.194-.12.576.05.848.377.272.328.337.613.145.634-1.129.124 5.698 1.104 7.875 1.13 4.151.05 4.197.126 4.062 6.684-.133 6.486-.35 6.948-3.248 6.947H165l.12 6 .12 6.001h1.691c1.981 0 3.868 1.726 3.87 3.541.001.583.361 1.648.8 2.369.44.72.799 1.665.799 2.1 0 .677.275.79 1.925.79 3.104 0 5.095 2.553 3.275 4.2-1.055.954-1.009 1.332.197 1.635.549.138.898.411.777.608-.122.196.16.357.626.357.47 0 .736.18.597.405-.14.226.312.517 1.021.659 1.054.21 1.157.318.599.63-.624.349-.62.417.055.929.684.518.669.552-.234.564-.889.012-.914.066-.333.713.792.882.719 2.896-.105 2.909q-.603.007.4.791c.565.442.764.786.457.791-.317.005-.447.259-.312.609.126.33.067.6-.132.6-1.473 0-2.595.873-1.837 1.43.644.472.666.57.129.57-.356 0-.936.288-1.287.639-.559.559-2.771.666-17.522.848-9.286.114-17.231.337-17.656.494-1.138.421 55.459.819 116.452.819 38.283 0 53.595.125 54.189.443l.828.444-.277 37.856c-.311 42.518-.518 39.277 2.613 41.006l1.355.748-1.5-1.278-1.5-1.277v-18.309c0-16.932.053-18.356.7-18.936.699-.626 3.867-1.863 7.331-2.861 1.007-.29 2.267-.804 2.8-1.142.533-.339 1.536-.734 2.23-.878.693-.144 1.947-.612 2.785-1.039s1.89-.778 2.339-.779c.448-.002 1.352-.283 2.008-.625 2.211-1.153 6.063-2.573 6.979-2.573.501 0 1.747-.436 2.769-.97 1.022-.533 3.389-1.532 5.259-2.218 1.87-.687 3.76-1.414 4.2-1.616 1.431-.657 5.556-2.03 7.4-2.463.99-.232 2.07-.647 2.4-.921s1.14-.679 1.8-.9c2.924-.977 8.071-5.547 10-8.878.66-1.14 1.515-2.451 1.9-2.914s.7-1.135.7-1.492c0-.358.292-1.066.648-1.575 1.257-1.795 2.892-8.941 2.928-12.799.027-2.834-1.729-10.688-2.61-11.68-.306-.345-.669-1.19-.807-1.88-.138-.689-.59-1.56-1.005-1.936s-.754-.859-.754-1.075c0-.516-4.311-5.578-5.149-6.047-.358-.2-1.078-.782-1.599-1.294-.522-.511-1.872-1.394-3-1.962a89 89 0 0 1-3.052-1.6c-.55-.312-1.324-.571-1.72-.574s-1.296-.304-2-.669c-.851-.44-2.957-.771-6.28-.986-2.75-.179-5.827-.584-6.838-.9s-3.891-.7-6.4-.852-5.462-.528-6.562-.835-4.221-.74-6.935-.96c-2.714-.221-5.864-.657-7-.968-1.136-.312-3.865-.679-6.065-.816s-5.114-.508-6.476-.823c-1.361-.316-3.971-.688-5.8-.827-1.828-.138-4.224-.513-5.324-.832-1.1-.32-4.25-.752-7-.961s-6.17-.64-7.6-.957-4.49-.703-6.8-.857-4.886-.52-5.725-.813-3.989-.728-7-.967-5.923-.619-6.471-.844-3.698-.666-7-.98-6.544-.74-7.204-.947-3.27-.564-5.8-.792-5.23-.603-6-.833-3.44-.59-5.933-.801c-2.494-.211-5.464-.649-6.6-.974-1.137-.326-4.497-.761-7.467-.968-2.97-.208-5.908-.572-6.528-.811s-3.085-.606-5.478-.816-5.305-.648-6.472-.973-4.192-.715-6.722-.867c-2.53-.151-5.59-.533-6.8-.847-1.21-.315-4.18-.754-6.6-.977s-5.3-.649-6.4-.948c-1.1-.3-4.43-.754-7.4-1.01s-6.48-.717-7.8-1.024-3.3-.564-4.4-.569-3.785-.37-5.966-.811-6.261-.965-9.065-1.164-5.458-.553-5.896-.788c-.439-.235-2.564-.624-4.721-.865-2.158-.24-4.65-.69-5.538-1-2.549-.888-16.208-.734-20.614.233m-26.706 7.012c-.486.341-1.471.836-2.189 1.1-2.213.816-6.434 3.238-5.933 3.405.261.087.779-.109 1.151-.436.372-.326 1.127-.727 1.677-.89 1.845-.547 5.856-2.542 6.38-3.173.665-.802.055-.805-1.086-.006m-10.265 5.21c-.952.951-.753 1.199.271.337.495-.416.975-.804 1.067-.862s-.031-.104-.272-.104-.721.283-1.066.629m-1.851 1.597c-.286.345-1.064.908-1.729 1.252-.666.344-1.425.827-1.688 1.074-.262.246-1.053.898-1.757 1.448-1.384 1.081-5.02 4.574-7.09 6.811-.708.764-1.478 1.569-1.712 1.789-1.221 1.149-4.002 4.322-4.002 4.567 0 .155-.318.631-.707 1.058-.669.734-3.451 4.715-4.277 6.121-.211.36-.719 1.194-1.129 1.854l-.745 1.2.929-1.052c1.436-1.627 6.08-7.596 6.536-8.401 1.238-2.191 12.952-14.124 15.246-15.533.883-.542 1.916-1.397 2.295-1.9.774-1.026.636-1.259-.17-.288M27.898 62.1c-1.473 2.559-2.973 5.94-3.284 7.4-.153.715-.436 1.3-.63 1.3s-.613.855-.932 1.9c-.318 1.045-.865 2.569-1.215 3.387s-.629 1.808-.619 2.2c.009.392.298-.007.641-.887l1.323-3.4c.385-.99.996-2.469 1.359-3.287.362-.818.659-1.591.659-1.719 0-.127.788-1.618 1.752-3.313 1.559-2.742 2.566-5.281 2.094-5.281-.094 0-.61.765-1.148 1.7m-10.44 30.396A293 293 0 0 1 16.419 98c-.746 3.616-.493 17.863.381 21.4.435 1.76.794 4.19.798 5.4s.276 2.715.604 3.345c.328.629.787 2.339 1.019 3.8.233 1.46.676 3.043.986 3.518s.772 1.693 1.027 2.707.593 1.923.751 2.021c.35.216-1.003-6.294-1.514-7.283-.201-.389-.493-1.428-.648-2.308s-.534-1.992-.842-2.47c-.34-.529-.733-3.043-.999-6.4-.241-3.042-.695-6.562-1.01-7.824-.734-2.944-.732-9.267.004-13.554.681-3.967 1.502-11.207 1.295-11.414-.08-.081-.446 1.521-.813 3.558M148.4 112.414c-.77.177-2.92.608-4.777.958-1.858.351-3.751.882-4.209 1.182s-1.638.677-2.623.839-2.061.522-2.391.8-1.261.718-2.068.977-1.684.732-1.949 1.05-.722.58-1.016.58-.858.326-1.251.724c-.394.398-1.721 1.378-2.95 2.178-4.703 3.059-10.114 9.605-12.812 15.498a79 79 0 0 1-1.589 3.254c-.421.8-.765 1.935-.765 2.522 0 .588-.391 1.913-.869 2.946-1.149 2.484-1.328 19.192-.232 21.74.346.804.835 2.456 1.087 3.669s.706 2.414 1.01 2.666.677 1.024.829 1.715.575 1.714.941 2.272c.366.559.839 1.31 1.05 1.67 2.681 4.563 6.564 9.053 10.27 11.876 2.746 2.092 9.506 6.07 10.314 6.07.278 0 1.067.337 1.753.749s2.057.871 3.047 1.02 2.25.574 2.8.945c1.729 1.164 20.557.988 23.763-.222 1.299-.491 2.711-.892 3.137-.892.425 0 1.231-.36 1.791-.8s1.356-.8 1.771-.8c.716 0 4.723-1.958 5.749-2.809.333-.277.638-.214.985.204.276.333.741.605 1.033.605s.677.261.856.58c.605 1.081 6.622 5.82 7.389 5.82.822 0 1.348-.489 4.726-4.383 1.21-1.396 2.74-3.109 3.4-3.809.66-.699 1.841-2.013 2.625-2.92l1.425-1.649-2.025-2.132c-1.114-1.172-2.873-2.817-3.909-3.654-2.307-1.865-2.68-2.814-1.569-3.996 1.279-1.362 4.439-7.919 4.461-9.257.01-.66.367-1.92.792-2.8 1.217-2.52 1.178-18.053-.056-21.8-2.376-7.221-4.029-10.885-5.636-12.492-.389-.389-.708-.88-.708-1.09 0-1.633-9.647-11.618-11.225-11.618-.211 0-1.236-.593-2.279-1.317-2.415-1.678-5.969-3.399-7.729-3.744-.752-.147-1.753-.517-2.225-.822-.471-.304-2.361-.798-4.2-1.097-1.838-.3-4.062-.737-4.942-.973-1.833-.49-8.917-.512-11-.033m11.6 1.654c4.694.357 6.418.638 7.095 1.156.493.376 1.693.803 2.668.949.974.147 1.99.529 2.256.85.267.321 1.182.696 2.033.832s1.548.374 1.548.529c0 .376 3.563 2.646 4.7 2.994.495.152.9.42.9.596s.686.773 1.523 1.328c2.015 1.333 5.109 4.454 6.42 6.475.58.892 1.369 1.858 1.755 2.146s.702.85.702 1.251.298.975.662 1.277.915 1.089 1.224 1.749.819 1.65 1.132 2.2c.314.55.573 1.381.576 1.846s.339 1.275.746 1.8c.42.541.838 1.93.967 3.209.124 1.24.511 2.806.859 3.48.912 1.764.929 14.843.021 16.228-.337.515-.727 1.904-.866 3.086-.139 1.183-.674 2.943-1.187 3.911-.514.967-.934 2.182-.934 2.7 0 .517-.189.94-.42.94-.232 0-.701.675-1.043 1.5-.343.825-.874 1.644-1.18 1.82-1.379.792-.68 3.589 1.27 5.082 5.043 3.861 5.808 5.009 4.441 6.667-.512.622-1.047 1.446-1.187 1.831s-.532.7-.868.7c-.337 0-.613.181-.613.403 0 .221-.45.794-1 1.272s-1 1.107-1 1.397-.276.528-.613.528-.731.315-.876.7c-.947 2.508-3.573 3.529-5.144 2-2.463-2.399-2.828-2.7-3.272-2.7-.262 0-.771-.45-1.132-1s-.91-1-1.222-1-.664-.256-.784-.569c-.451-1.175-2.957-1.216-2.957-.049 0 .295-.665.653-1.5.809-.825.154-1.822.624-2.216 1.044-.393.421-1.203.766-1.8.766-.596.001-1.644.343-2.328.76-.684.418-2.454.947-3.933 1.178s-2.972.653-3.318.94c-1.167.969-12.466.951-16.505-.027-1.87-.453-4.435-.945-5.7-1.093-1.436-.168-2.3-.458-2.3-.771 0-.624-.902-.988-2.445-.988-.677 0-1.278-.254-1.409-.596-.126-.328-.93-.807-1.787-1.064-.858-.256-1.559-.627-1.559-.824s-.656-.631-1.458-.966-1.715-.866-2.029-1.18-.763-.57-.999-.57c-.545 0-1.584-1-6.411-6.168-2.617-2.802-2.809-3.056-3.597-4.744-.381-.819-.856-1.488-1.056-1.488s-.484-.481-.631-1.068-.617-1.512-1.044-2.054c-.426-.542-.775-1.405-.775-1.916 0-.512-.335-1.253-.745-1.646-.478-.46-.824-1.521-.966-2.971-.122-1.24-.522-2.836-.889-3.545-1.088-2.104-.946-16.389.184-18.585.449-.871.816-2.334.816-3.251 0-1.003.242-1.867.608-2.171.335-.278.805-1.284 1.045-2.237.24-.952.686-1.939.991-2.193.306-.253.556-.695.556-.981s.45-1.055 1-1.709 1-1.361 1-1.572.455-.905 1.011-1.543c1.337-1.531 1.52-1.771 2.414-3.168.419-.655 1.079-1.425 1.468-1.713.389-.287.707-.782.707-1.1 0-.317.256-.577.569-.577s1.078-.419 1.7-.932c.622-.512 1.446-1.047 1.831-1.187s.7-.514.7-.829c0-.316.54-.762 1.2-.992s1.2-.601 1.2-.823c0-.223.739-.626 1.642-.897.903-.27 1.732-.727 1.842-1.016.111-.288.504-.524.874-.524s1.386-.369 2.257-.82 2.467-.991 3.545-1.201c1.079-.21 2.228-.606 2.555-.88.543-.456 6.817-1.305 10.685-1.445.88-.031 4.39.155 7.8.414m55-.199c-.44.115-.936.336-1.103.492-.755.709-.425 85.356.336 85.913 1.122.82 34.713.757 37.894-.072 1.262-.329 3.325-.707 4.584-.84 2.407-.254 7.167-1.691 9.915-2.992.895-.424 1.908-.77 2.251-.77.344 0 .848-.269 1.121-.597.273-.329 1.506-1.176 2.741-1.883 2.108-1.205 3.181-2.07 6.855-5.52 2.052-1.927 6.806-7.905 6.806-8.558 0-.294.36-.992.8-1.551.44-.56.8-1.241.8-1.514s.437-1.415.972-2.537c2.812-5.905 4.117-22.727 2.1-27.058-.355-.76-.836-2.26-1.071-3.333s-.691-2.328-1.014-2.789-.594-1.113-.603-1.449c-.008-.336-.632-1.601-1.387-2.811a95 95 0 0 1-2.203-3.721c-.963-1.761-6.696-7.611-8.898-9.079-.825-.55-1.814-1.225-2.198-1.5-4.47-3.202-9.594-5.378-14.784-6.278-1.587-.275-3.189-.753-3.561-1.061-.678-.563-38.322-1.022-40.353-.492m40.095 1.868c2.693.351 5.303.901 5.8 1.221.498.321 1.625.708 2.505.861s2.161.616 2.847 1.03c.686.413 1.621.751 2.078.751s1.065.318 1.352.706c.288.389.973.941 1.523 1.227 2.327 1.211 3.451 1.914 4.265 2.667.475.44 1.867 1.7 3.095 2.8 1.227 1.1 2.233 2.182 2.236 2.404.005.517 1.922 2.596 2.393 2.596.197 0 .484.405.639.9s.707 1.409 1.227 2.031.945 1.365.945 1.651.25.728.556.981c.305.254.769 1.311 1.03 2.349s.706 2.158.99 2.488.625 1.568.758 2.751c.132 1.182.516 2.571.853 3.086.887 1.352.902 16.151.018 17.499-.327.499-.75 2.041-.939 3.425s-.565 2.653-.835 2.82c-.269.166-.662 1.067-.871 2-.21.934-.647 1.963-.97 2.286-.324.324-.705 1.052-.847 1.619-.142.566-.506 1.319-.808 1.672-2.017 2.359-2.935 3.604-2.935 3.981 0 .238-.36.626-.8.861s-.8.583-.8.772c0 .513-2.096 2.638-2.9 2.94-.385.145-.7.539-.7.875 0 .337-.26.613-.577.613-.318 0-.813.331-1.1.735-.288.405-1.024.86-1.636 1.011-.613.152-1.418.631-1.789 1.065-.372.434-.968.789-1.325.789s-.963.347-1.347.771c-.383.424-1.385.887-2.226 1.029s-1.843.605-2.226 1.029c-.419.463-1.223.771-2.01.771-1.402 0-3.413.634-3.756 1.184-.72 1.155-41.833 1.817-43.363.698-.941-.688-.858-81.357.085-83.012l.53-.93 17.07.18c12.404.13 18.408.354 21.965.817m-107.621 13.845c-.619.199-1.339.535-1.6.745s-1.241.509-2.179.664c-1.064.175-1.859.568-2.114 1.045-.225.42-.82.764-1.323.764s-1.305.45-1.783 1-1.032 1-1.23 1c-.375 0-2.845 2.179-2.845 2.51 0 .104-.709.964-1.575 1.912-.866.947-1.687 2.171-1.825 2.719s-.598 1.439-1.025 1.981-.775 1.302-.775 1.688c0 .387-.356 1.487-.791 2.446-.686 1.512-.791 2.623-.791 8.344s.105 6.832.791 8.344c.435.959.791 2.111.791 2.561 0 1.225 1.916 5.036 2.814 5.597.432.27.786.701.786.958 0 .56 5.367 6.14 5.906 6.14.207 0 .863.45 1.456 1 .594.55 1.461 1 1.927 1s1.159.281 1.538.625c.38.343 1.801.781 3.159.973s2.714.553 3.015.803c.677.562 7.438.311 10.599-.393 1.21-.27 2.56-.554 3-.632 2.469-.436 2.528-2.93.1-4.23-.491-.262-1.561-1.123-2.377-1.912s-2.057-1.884-2.758-2.434a64 64 0 0 1-2.509-2.1c-.679-.605-1.464-1.1-1.745-1.1s-.511-.276-.511-.613-.263-.713-.585-.837c-.789-.302.057-1.585 2.985-4.526 1.21-1.215 3.198-3.401 4.419-4.856 2.535-3.023 2.774-3.045 5.467-.509 3.142 2.959 6.232 5.543 6.97 5.828.409.158.744.477.744.71s.45.594 1 .803 1 .634 1 .943c0 .31.363.659.807.775.861.225 1.993-.629 1.993-1.503 0-.29.356-1.312.791-2.271 1.168-2.575 1.168-12.913 0-15.488-.435-.959-.791-2.114-.791-2.568 0-1.012-2.212-5.634-3.016-6.301-.321-.267-.584-.712-.584-.99 0-1.065-6.808-7.397-7.952-7.397-.369 0-.978-.36-1.355-.8s-1.095-.8-1.595-.8-1.627-.391-2.504-.868c-1.766-.962-11.613-1.493-13.92-.75m11.126 1.41c.88.315 2.161.581 2.846.59s1.69.367 2.232.793 1.485.901 2.097 1.054c1.904.478 9.344 8.335 10.01 10.571.164.55.556 1.409.872 1.909s.757 1.94.981 3.2.681 3.029 1.016 3.93c.754 2.032.548 7.189-.437 10.961-.373 1.43-.761 3.015-.861 3.523l-.183.923-1.6-1.267c-.88-.698-2.089-1.743-2.687-2.323-3.102-3.015-8.095-7.308-9.111-7.835-1.323-.687-.725-1.182-6.285 5.206-7.327 8.418-6.73 7.402-5.223 8.879 1.349 1.322 7.727 6.684 9.791 8.232 1.62 1.215 1.687 2.318.192 3.175-1.728.99-15.458.653-16.814-.413-.629-.495-1.545-.9-2.036-.9s-1.35-.36-1.909-.8c-.56-.44-1.172-.8-1.36-.8-1.235 0-7.793-7.473-8.508-9.694-.265-.822-.636-1.591-.825-1.707s-.557-1.245-.817-2.506-.722-2.779-1.027-3.373c-.767-1.496-.769-10.339-.002-11.84.303-.594.681-1.682.84-2.418.268-1.244 2.414-6.032 3.523-7.862.783-1.291 4.399-4.806 5.485-5.332.55-.266 1.72-.922 2.6-1.457 2.087-1.269 1.982-1.227 5-1.985 1.43-.359 3.14-.819 3.8-1.022 1.558-.479 6.356-.143 8.4.588m74.405-.045c-.681.498-1.118 51.099-.451 52.179.364.588 16.917.653 19.046.075l4.004-1.091c1.432-.39 3.047-1.025 3.589-1.41s1.213-.7 1.493-.7c.279 0 .732-.36 1.007-.8s.681-.801.903-.802c.81-.004 5.556-4.961 6.508-6.798.285-.55.781-1.45 1.101-2 .321-.55.586-1.485.589-2.077.003-.593.368-1.691.811-2.441 1.909-3.235 1.019-15.718-1.445-20.282-.297-.55-.881-1.72-1.297-2.6-1.018-2.15-5.69-6.913-7.338-7.481-.729-.251-1.56-.785-1.848-1.188-.287-.402-.917-.732-1.4-.734-.482-.001-1.402-.349-2.044-.772-1.848-1.218-21.772-2.143-23.228-1.078M253 132.243c.88.335 2.473.855 3.54 1.157s2.252.83 2.632 1.174.81.626.956.626c2.617 0 9.408 9.125 10.091 13.559.149.968.521 2.357.826 3.087.775 1.855.752 9.566-.033 11.071-.32.614-.693 1.784-.828 2.6-.703 4.247-7.841 13.595-10.457 13.696-.18.006-1.227.455-2.327.996s-2.425.985-2.945.987-2.453.368-4.295.814c-2.809.679-4.432.792-10.055.7l-6.705-.11-.104-25c-.057-13.75-.017-25.225.088-25.5.303-.793 17.483-.667 19.616.143M23.205 143.4c0 .22.358.94.795 1.6s.795 1.02.795.8-.358-.94-.795-1.6-.795-1.02-.795-.8m1.595 3.327c0 .567 3.228 6.69 4.568 8.664.568.836 1.032 1.766 1.032 2.065s.175.544.39.544c.214 0 .669.54 1.01 1.2s.8 1.2 1.019 1.2c.428 0-.16-1.023-2.412-4.2-.779-1.1-1.955-3.17-2.612-4.6-1.292-2.811-2.995-5.582-2.995-4.873M35.595 164.4c2.5 3.228 3.52 4.4 3.827 4.4.421 0-1.761-2.796-3.747-4.8l-1.783-1.8zM320 167.35c.55.621 1.54 1.5 2.2 1.954 1.426.981 1.043.56-1.4-1.536q-1.795-1.541-.8-.418m-278.9 3.371c.495.444.9.966.9 1.16 0 .416 3.109 3.459 4.053 3.968.359.193 1.439 1.023 2.4 1.844s3.007 2.48 4.547 3.685 3.098 2.451 3.462 2.768c.364.318 2.884 2.416 5.6 4.662 4.917 4.066 8.051 6.735 11.516 9.807 1.002.888 2.511 2.124 3.354 2.745s2.052 1.604 2.686 2.185a43 43 0 0 0 2.368 1.985c.668.512 1.32 1.354 1.45 1.871.13.518.49 1.038.8 1.158.741.284.798 4.599.064 4.81-.275.079-1.563.379-2.863.666s-2.141.597-1.87.687c.508.17 3.387-.483 5.333-1.209 2.137-.797 1.074-7.613-1.222-7.838-.937-.092-1.831-.708-3.376-2.327-1.156-1.211-2.59-2.461-3.187-2.777s-2.635-2.105-4.529-3.974c-1.894-1.868-3.603-3.397-3.797-3.397-.734 0-3.417-2.113-6.855-5.398-1.958-1.871-3.725-3.402-3.927-3.402-.571 0-3.633-2.178-5.441-3.871a90 90 0 0 0-3.58-3.129c-1.07-.88-3.035-2.657-4.366-3.948s-2.87-2.616-3.42-2.943l-1-.596zm293.896 9.258c.437.492 1.157 1.085 1.6 1.316.803.421.803.42.008-.474-.437-.492-1.157-1.085-1.6-1.316-.803-.421-.803-.42-.008.474m3.971 2.983c.861.791 1.671 1.323 1.8 1.183.128-.14.001-.337-.282-.438s-1.093-.633-1.8-1.183c-.839-.653-.741-.5.282.438M75.8 215.228c-.66.19-2.46.696-4 1.125-2.532.706-4.494 1.454-8 3.05-4.619 2.103-6.674 3.187-8.6 4.536-1.21.847-3.238 2.209-4.506 3.027-4.042 2.603-13.676 12.432-15.539 15.853-.305.561-1.153 1.821-1.884 2.8-2.185 2.929-4.869 7.313-5.131 8.381-.135.55-.578 1.368-.984 1.817-.791.874-4.339 8.447-4.35 9.284-.003.276-.366 1.174-.806 1.995-.44.82-.785 1.855-.766 2.298.029.667.088.633.343-.194.17-.55 1.055-2.55 1.966-4.445.911-1.894 1.657-3.644 1.657-3.888 0-.825 1.866-4.663 2.535-5.216.366-.302.665-.842.665-1.2 0-.755 3.765-6.786 5.536-8.866.662-.779 1.425-1.901 1.696-2.495.27-.593.899-1.346 1.397-1.672s1.761-1.724 2.808-3.106c4.636-6.123 10.723-11.374 13.601-11.734 1.964-.245 2.229-.399 2.813-1.629.844-1.779 2.468-3.109 4.833-3.959 1.054-.379 3.446-1.384 5.316-2.234s4.48-1.718 5.8-1.928c2.736-.436 7.377-2.014 5.8-1.973-.55.015-1.54.182-2.2.373m301.83 16.192c.017.209.289 1.01.606 1.78l.574 1.4-.212-1.387c-.187-1.218-1.05-2.816-.968-1.793m3.735 12.259.435 2.121.128-1.558c.078-.958-.09-1.775-.435-2.121-.484-.483-.502-.264-.128 1.558M20.474 271.897c-.288.827-.773 2.479-1.079 3.671-.305 1.193-.742 2.633-.971 3.2-1.704 4.217-2.807 20.589-1.844 27.357.319 2.241.78 5.679 1.024 7.64s.781 4.661 1.192 6l1.793 5.835c.575 1.87 1.317 3.85 1.649 4.4s.517.73.41.4c-.106-.33-.492-1.59-.858-2.8a589 589 0 0 0-2.012-6.424c-2.931-9.19-3.525-34.699-.978-41.976 1.044-2.985 2.451-8.047 2.333-8.4-.074-.224-.371.27-.659 1.097m94.693-.826c-.811.341-1.19.846-1.375 1.83-.351 1.871-.07 12.557.341 12.967.546.544 83.841.64 85.148.098 1.44-.596 1.614-1.638 1.45-8.677-.087-3.755-.295-5.815-.619-6.138-.695-.694-83.3-.772-84.945-.08m83.946 6.716c.072 3.321-.057 5.596-.359 6.324l-.471 1.137-40.842-.124c-32.354-.098-41.028-.231-41.741-.638-1.072-.612-1.437-11.402-.4-11.822.275-.112 19.22-.172 42.1-.133l41.6.069zm178.773 17.03c-.372.949-.613 1.789-.534 1.868.246.246 1.511-2.697 1.357-3.157-.08-.24-.45.34-.823 1.289m-3.676 8.763c-.835 1.616-.765 1.921.19.82.727-.838 1.081-2 .61-2-.104 0-.464.531-.8 1.18M22.804 331.553c-.002.304.342 1.114.765 1.8.424.686 1.161 2.294 1.639 3.575.479 1.28.96 2.237 1.07 2.127.289-.289-1.357-4.53-2.497-6.432-.536-.893-.975-1.374-.977-1.07M351 335.447c-.66.56-2.071 1.723-3.136 2.585-1.065.863-1.805 1.568-1.644 1.568.33 0 5.683-4.32 6.013-4.853.342-.554.049-.388-1.233.7m-324.6 4.365c0 .15.45.807 1 1.461s1 1.066 1 .915c0-.15-.45-.807-1-1.461s-1-1.066-1-.915m3.765 5.788c.363.55 1.032 1.585 1.487 2.3s.964 1.3 1.131 1.3.937.945 1.711 2.1c1.206 1.799 4.148 5.453 6.038 7.5.304.33 1.419 1.32 2.477 2.2a235 235 0 0 1 4.683 4.057c2.68 2.386 9.037 6.943 9.685 6.943.724 0-.876-1.358-2.371-2.012-1.921-.842-6.735-4.886-13.318-11.188-2.122-2.031-3.092-3.155-8.403-9.735-2.758-3.415-3.991-4.786-3.12-3.465m281.935 8.276c.385.1 1.015.1 1.4 0 .385-.101.07-.183-.7-.183s-1.085.082-.7.183m-46.7 6.39c-.44.086-2.51.321-4.6.523l-3.8.365 4.6-.145c2.53-.081 5.05-.329 5.6-.552l1-.406-1 .029c-.55.016-1.36.1-1.8.186m-73.6 10.771-2.8.529 2.831-.125c1.558-.068 3.178-.325 3.6-.571 1.031-.598.221-.561-3.631.167m-133.056 1.731c.52.458 1.176.832 1.46.832.469 0 4.61 2.039 5.587 2.751.644.47 7.081 2.77 12.609 4.507 8.587 2.697 31.467 4.091 35 2.133 1.073-.595 1.094-.64.2-.429-8.982 2.115-29.943.226-38.4-3.461-.77-.336-2.924-1.096-4.786-1.688-1.863-.593-4.756-1.784-6.43-2.646-1.675-.862-3.306-1.567-3.625-1.567-.32 0-1.026-.284-1.57-.632l-.989-.632zm112.956 1.108c.385.1 1.015.1 1.4 0 .385-.101.07-.183-.7-.183s-1.085.082-.7.183m-2.5.524c-.824.264-.859.326-.2.354.44.019 1.07-.141 1.4-.354.701-.453.214-.453-1.2 0m-3.5.676c.385.1 1.015.1 1.4 0 .385-.101.07-.183-.7-.183s-1.085.082-.7.183m-15.2 2c.385.1 1.015.1 1.4 0 .385-.101.07-.183-.7-.183s-1.085.082-.7.183m-7.7 1.152-1.8.55 2.506-.115c1.378-.063 2.719-.328 2.98-.589.653-.653-1.312-.571-3.686.154m-8.4 1.189c-1.21.302-2.92.584-3.8.626-1.394.067-1.446.1-.4.256.66.098 2.64-.106 4.4-.454s3.65-.701 4.2-.785c.55-.083.28-.16-.6-.172s-2.59.227-3.8.529m-8.695 1.27c.609.092 1.509.09 2-.005s-.005-.171-1.105-.168-1.503.081-.895.173m-3.78.321c-.114.114-1.809.471-3.766.792-3.51.576-3.52.581-.759.368 3.345-.259 7.915-1.28 5.967-1.334-.679-.019-1.327.06-1.442.174"/></g></svg>