<svg xmlns="http://www.w3.org/2000/svg" xml:space="preserve" width="16" height="16" viewBox="-48 -48 620 620"><g fill="#3949AB"><path d="M342.538 113.392V82.877L167.621 186.233l37.701 10.214zM144.617 180.004 342.539 63.055V46.713c0-6.656-2.398-12.706-6.246-17.553l-235.29 139.034zM309.834 242.434l-240.367-65.1v34.85l197.137 54.425zM320.063 18.926a28 28 0 0 0-5.965-.657h-39.825v-39.817c0-15.684-12.757-28.45-28.442-28.45h-79.65c-15.684 0-28.442 12.766-28.442 28.45v39.817H97.914c-15.684 0-28.442 12.766-28.442 28.45V108.5l130.654-73.165h34.918L69.472 128.058v31.59l8.525 2.313zM152.104 350.634l-.478-.162-69.12 38.665c4.446 2.884 9.719 4.599 15.403 4.599h39.825v39.825c0 15.684 12.766 28.442 28.442 28.442h79.65c15.684 0 28.442-12.757 28.442-28.442v-39.825h39.825c15.684 0 28.442-12.757 28.442-28.442V304.75l-122.266 71.919h-33.655l155.921-91.716v-41.259l-190.26 106.419zM186 311.693 69.469 279.574v25.523l80.41 26.803zM331.137 230.519l11.401-6.374v-37.717l-53.743 32.622zM69.471 323.09v42.206c0 3.686.759 7.194 2.048 10.436l58.206-32.555z"/><path
    d="M427.871 35.338c-18.825 0-34.133 15.309-34.133 34.133 0 6.118 1.749 11.785 4.574 16.751l-55.774 49.579v-2.458l-114.449 69.265 37.973 10.283 76.476-46.43v-7.825l67.635-60.117c5.18 3.166 11.196 5.086 17.698 5.086 18.825 0 34.133-15.309 34.133-34.133s-15.309-34.134-34.133-34.134M81.78 265.264l125.423 34.577 38.212-21.376-175.949-48.58v23.492L1.831 313.494c-5.171-3.166-11.196-5.094-17.698-5.094C-34.691 308.4-50 323.718-50 342.534c0 18.825 15.309 34.133 34.133 34.133 18.833 0 34.133-15.309 34.133-34.133 0-6.11-1.741-11.776-4.574-16.751z"/></g>
  <g fill="#82AAFF"><path d="M442.538 213.392v-30.515L267.621 286.233l37.701 10.214zM244.617 280.004l197.922-116.949v-16.342c0-6.656-2.398-12.706-6.246-17.553l-235.29 139.034zM409.834 342.434l-240.367-65.1v34.85l197.137 54.425zM420.063 118.926a28 28 0 0 0-5.965-.657h-39.825V78.452c0-15.684-12.757-28.45-28.442-28.45h-79.65c-15.684 0-28.442 12.766-28.442 28.45v39.817h-39.825c-15.684 0-28.442 12.766-28.442 28.45V208.5l130.654-73.165h34.918l-165.572 92.723v31.59l8.525 2.313zM252.104 450.634l-.478-.162-69.12 38.665c4.446 2.884 9.719 4.599 15.403 4.599h39.825v39.825c0 15.684 12.766 28.442 28.442 28.442h79.65c15.684 0 28.442-12.757 28.442-28.442v-39.825h39.825c15.684 0 28.442-12.757 28.442-28.442V404.75l-122.266 71.919h-33.655l155.921-91.716v-41.259l-190.26 106.419zM286 411.693l-116.531-32.119v25.523l80.41 26.803zM431.137 330.519l11.401-6.374v-37.717l-53.743 32.622zM169.471 423.09v42.206c0 3.686.759 7.194 2.048 10.436l58.206-32.555z"/>
    <path
        d="M527.871 135.338c-18.825 0-34.133 15.309-34.133 34.133 0 6.118 1.749 11.785 4.574 16.751l-55.774 49.579v-2.458l-114.449 69.265 37.973 10.283 76.476-46.43v-7.825l67.635-60.117c5.18 3.166 11.196 5.086 17.698 5.086 18.825 0 34.133-15.309 34.133-34.133s-15.309-34.134-34.133-34.134M181.78 365.264l125.423 34.577 38.212-21.376-175.949-48.58v23.492l-67.635 60.117c-5.171-3.166-11.196-5.094-17.698-5.094C65.309 408.4 50 423.718 50 442.534c0 18.825 15.309 34.133 34.133 34.133 18.833 0 34.133-15.309 34.133-34.133 0-6.11-1.741-11.776-4.574-16.751z"/></g>
  <path fill="#FF8A65" d="M540 260 300 500 190 390l28.2-28.2 81.8 81.6 211.8-211.6z"/></svg>